<?xml version="1.0" encoding="UTF-8" standalone="no"?>
<!DOCTYPE svg PUBLIC "-//W3C//DTD SVG 1.1//EN"
 "http://www.w3.org/Graphics/SVG/1.1/DTD/svg11.dtd">
<!-- Generated by graphviz version 2.40.1 (20161225.0304)
 -->
<!-- Title: attachments Pages: 1 -->
<svg width="1477pt" height="1334pt"
 viewBox="0.00 0.00 1477.00 1334.00" xmlns="http://www.w3.org/2000/svg" xmlns:xlink="http://www.w3.org/1999/xlink">
<g id="graph0" class="graph" transform="scale(1 1) rotate(0) translate(4 1330)">
<title>attachments</title>
<polygon fill="#ffffff" stroke="transparent" points="-4,4 -4,-1330 1473,-1330 1473,4 -4,4"/>
<!-- attachments -->
<g id="node1" class="node">
<title>attachments</title>
<polygon fill="#efefef" stroke="transparent" points="46,-1234 46,-1280 1372,-1280 1372,-1234 46,-1234"/>
<polygon fill="none" stroke="#000000" points="46,-1234 46,-1280 1372,-1280 1372,-1234 46,-1234"/>
<text text-anchor="start" x="611.3582" y="-1257.8" font-family="Arial Bold" font-size="18.00" fill="#000000">attachments</text>
<text text-anchor="start" x="709.388" y="-1257.8" font-family="Arial" font-size="14.00" fill="#000000"> </text>
<text text-anchor="start" x="713.2786" y="-1257.8" font-family="Arial" font-size="14.00" fill="#666666">[BASE TABLE]</text>
<text text-anchor="start" x="665.4586" y="-1243.4" font-family="Arial" font-size="14.00" fill="#333333">添付ファイル</text>
<polygon fill="none" stroke="#000000" points="46,-1204 46,-1234 1372,-1234 1372,-1204 46,-1204"/>
<text text-anchor="start" x="53" y="-1215.4" font-family="Arial" font-size="14.00" fill="#000000">id </text>
<text text-anchor="start" x="67.7798" y="-1215.4" font-family="Arial" font-size="14.00" fill="#666666">[int(11)]</text>
<polygon fill="none" stroke="#000000" points="46,-1174 46,-1204 1372,-1204 1372,-1174 46,-1174"/>
<text text-anchor="start" x="53" y="-1185.4" font-family="Arial" font-size="14.00" fill="#000000">container_id </text>
<text text-anchor="start" x="133.1332" y="-1185.4" font-family="Arial" font-size="14.00" fill="#666666">[int(11)]</text>
<polygon fill="none" stroke="#000000" points="46,-1144 46,-1174 1372,-1174 1372,-1144 46,-1144"/>
<text text-anchor="start" x="53" y="-1155.4" font-family="Arial" font-size="14.00" fill="#000000">container_type </text>
<text text-anchor="start" x="148.6998" y="-1155.4" font-family="Arial" font-size="14.00" fill="#666666">[varchar(30)]</text>
<polygon fill="none" stroke="#000000" points="46,-1114 46,-1144 1372,-1144 1372,-1114 46,-1114"/>
<text text-anchor="start" x="53" y="-1125.4" font-family="Arial" font-size="14.00" fill="#000000">filename </text>
<text text-anchor="start" x="109.7854" y="-1125.4" font-family="Arial" font-size="14.00" fill="#666666">[varchar(255)]</text>
<polygon fill="none" stroke="#000000" points="46,-1084 46,-1114 1372,-1114 1372,-1084 46,-1084"/>
<text text-anchor="start" x="53" y="-1095.4" font-family="Arial" font-size="14.00" fill="#000000">disk_filename </text>
<text text-anchor="start" x="142.4572" y="-1095.4" font-family="Arial" font-size="14.00" fill="#666666">[varchar(255)]</text>
<polygon fill="none" stroke="#000000" points="46,-1054 46,-1084 1372,-1084 1372,-1054 46,-1054"/>
<text text-anchor="start" x="53" y="-1065.4" font-family="Arial" font-size="14.00" fill="#000000">filesize </text>
<text text-anchor="start" x="99.6662" y="-1065.4" font-family="Arial" font-size="14.00" fill="#666666">[bigint(20)]</text>
<polygon fill="none" stroke="#000000" points="46,-1024 46,-1054 1372,-1054 1372,-1024 46,-1024"/>
<text text-anchor="start" x="52.7549" y="-1035.4" font-family="Arial" font-size="14.00" fill="#000000">content_type </text>
<text text-anchor="start" x="136.7955" y="-1035.4" font-family="Arial" font-size="14.00" fill="#666666">[varchar(255)]</text>
<text text-anchor="start" x="223.9147" y="-1035.4" font-family="Arial" font-size="14.00" fill="#000000"> Project:プロジェクト Issue:文書 WikiPage: Wikiページ Version:バージョン News:ニュース Document:文書 Message:フォーラムメッセージ CustomValue:カスタムフィールド </text>
<polygon fill="none" stroke="#000000" points="46,-994 46,-1024 1372,-1024 1372,-994 46,-994"/>
<text text-anchor="start" x="53" y="-1005.4" font-family="Arial" font-size="14.00" fill="#000000">digest </text>
<text text-anchor="start" x="94.2356" y="-1005.4" font-family="Arial" font-size="14.00" fill="#666666">[varchar(64)]</text>
<polygon fill="none" stroke="#000000" points="46,-964 46,-994 1372,-994 1372,-964 46,-964"/>
<text text-anchor="start" x="53" y="-975.4" font-family="Arial" font-size="14.00" fill="#000000">downloads </text>
<text text-anchor="start" x="123.7994" y="-975.4" font-family="Arial" font-size="14.00" fill="#666666">[int(11)]</text>
<polygon fill="none" stroke="#000000" points="46,-934 46,-964 1372,-964 1372,-934 46,-934"/>
<text text-anchor="start" x="53" y="-945.4" font-family="Arial" font-size="14.00" fill="#000000">author_id </text>
<text text-anchor="start" x="115.244" y="-945.4" font-family="Arial" font-size="14.00" fill="#666666">[int(11)]</text>
<polygon fill="none" stroke="#000000" points="46,-904 46,-934 1372,-934 1372,-904 46,-904"/>
<text text-anchor="start" x="53" y="-915.4" font-family="Arial" font-size="14.00" fill="#000000">created_on </text>
<text text-anchor="start" x="126.92" y="-915.4" font-family="Arial" font-size="14.00" fill="#666666">[timestamp]</text>
<polygon fill="none" stroke="#000000" points="46,-874 46,-904 1372,-904 1372,-874 46,-874"/>
<text text-anchor="start" x="53" y="-885.4" font-family="Arial" font-size="14.00" fill="#000000">description </text>
<text text-anchor="start" x="124.568" y="-885.4" font-family="Arial" font-size="14.00" fill="#666666">[varchar(255)]</text>
<polygon fill="none" stroke="#000000" points="46,-844 46,-874 1372,-874 1372,-844 46,-844"/>
<text text-anchor="start" x="53" y="-855.4" font-family="Arial" font-size="14.00" fill="#000000">disk_directory </text>
<text text-anchor="start" x="143.2286" y="-855.4" font-family="Arial" font-size="14.00" fill="#666666">[varchar(255)]</text>
<polygon fill="none" stroke="#000000" stroke-width="3" points="44.5,-842.5 44.5,-1281.5 1373.5,-1281.5 1373.5,-842.5 44.5,-842.5"/>
</g>
<!-- users -->
<g id="node2" class="node">
<title>users</title>
<polygon fill="#efefef" stroke="transparent" points="468,-673 468,-719 950,-719 950,-673 468,-673"/>
<polygon fill="none" stroke="#000000" points="468,-673 468,-719 950,-719 950,-673 468,-673"/>
<text text-anchor="start" x="638.3708" y="-696.8" font-family="Arial Bold" font-size="18.00" fill="#000000">users</text>
<text text-anchor="start" x="682.3754" y="-696.8" font-family="Arial" font-size="14.00" fill="#000000"> </text>
<text text-anchor="start" x="686.266" y="-696.8" font-family="Arial" font-size="14.00" fill="#666666">[BASE TABLE]</text>
<text text-anchor="start" x="630.4558" y="-682.4" font-family="Arial" font-size="14.00" fill="#333333">ユーザー / グループ</text>
<polygon fill="none" stroke="#000000" points="468,-643 468,-673 950,-673 950,-643 468,-643"/>
<text text-anchor="start" x="475" y="-654.4" font-family="Arial" font-size="14.00" fill="#000000">id </text>
<text text-anchor="start" x="489.7798" y="-654.4" font-family="Arial" font-size="14.00" fill="#666666">[int(11)]</text>
<polygon fill="none" stroke="#000000" points="468,-613 468,-643 950,-643 950,-613 468,-613"/>
<text text-anchor="start" x="475" y="-624.4" font-family="Arial" font-size="14.00" fill="#000000">login </text>
<text text-anchor="start" x="508.4516" y="-624.4" font-family="Arial" font-size="14.00" fill="#666666">[varchar(255)]</text>
<text text-anchor="start" x="595.5708" y="-624.4" font-family="Arial" font-size="14.00" fill="#000000"> ログインID</text>
<polygon fill="none" stroke="#000000" points="468,-583 468,-613 950,-613 950,-583 468,-583"/>
<text text-anchor="start" x="475" y="-594.4" font-family="Arial" font-size="14.00" fill="#000000">hashed_password </text>
<text text-anchor="start" x="592.4838" y="-594.4" font-family="Arial" font-size="14.00" fill="#666666">[varchar(40)]</text>
<text text-anchor="start" x="671.8204" y="-594.4" font-family="Arial" font-size="14.00" fill="#000000"> パスワード(ハッシュ化済み)</text>
<polygon fill="none" stroke="#000000" points="468,-553 468,-583 950,-583 950,-553 468,-553"/>
<text text-anchor="start" x="475" y="-564.4" font-family="Arial" font-size="14.00" fill="#000000">firstname </text>
<text text-anchor="start" x="536.4474" y="-564.4" font-family="Arial" font-size="14.00" fill="#666666">[varchar(30)]</text>
<text text-anchor="start" x="615.784" y="-564.4" font-family="Arial" font-size="14.00" fill="#000000"> 名</text>
<polygon fill="none" stroke="#000000" points="468,-523 468,-553 950,-553 950,-523 468,-523"/>
<text text-anchor="start" x="475" y="-534.4" font-family="Arial" font-size="14.00" fill="#000000">lastname </text>
<text text-anchor="start" x="535.6788" y="-534.4" font-family="Arial" font-size="14.00" fill="#666666">[varchar(255)]</text>
<text text-anchor="start" x="622.798" y="-534.4" font-family="Arial" font-size="14.00" fill="#000000"> 姓</text>
<polygon fill="none" stroke="#000000" points="468,-493 468,-523 950,-523 950,-493 468,-493"/>
<text text-anchor="start" x="475" y="-504.4" font-family="Arial" font-size="14.00" fill="#000000">admin </text>
<text text-anchor="start" x="517.0056" y="-504.4" font-family="Arial" font-size="14.00" fill="#666666">[tinyint(1)]</text>
<text text-anchor="start" x="578.4502" y="-504.4" font-family="Arial" font-size="14.00" fill="#000000"> システム管理者</text>
<polygon fill="none" stroke="#000000" points="468,-463 468,-493 950,-493 950,-463 468,-463"/>
<text text-anchor="start" x="475" y="-474.4" font-family="Arial" font-size="14.00" fill="#000000">status </text>
<text text-anchor="start" x="516.237" y="-474.4" font-family="Arial" font-size="14.00" fill="#666666">[int(11)]</text>
<polygon fill="none" stroke="#000000" points="468,-433 468,-463 950,-463 950,-433 468,-433"/>
<text text-anchor="start" x="475" y="-444.4" font-family="Arial" font-size="14.00" fill="#000000">last_login_on </text>
<text text-anchor="start" x="561.3618" y="-444.4" font-family="Arial" font-size="14.00" fill="#666666">[datetime]</text>
<polygon fill="none" stroke="#000000" points="468,-403 468,-433 950,-433 950,-403 468,-403"/>
<text text-anchor="start" x="475" y="-414.4" font-family="Arial" font-size="14.00" fill="#000000">language </text>
<text text-anchor="start" x="536.4754" y="-414.4" font-family="Arial" font-size="14.00" fill="#666666">[varchar(5)]</text>
<text text-anchor="start" x="608.0294" y="-414.4" font-family="Arial" font-size="14.00" fill="#000000"> 言語</text>
<polygon fill="none" stroke="#000000" points="468,-373 468,-403 950,-403 950,-373 468,-373"/>
<text text-anchor="start" x="475" y="-384.4" font-family="Arial" font-size="14.00" fill="#000000">auth_source_id </text>
<text text-anchor="start" x="574.5918" y="-384.4" font-family="Arial" font-size="14.00" fill="#666666">[int(11)]</text>
<polygon fill="none" stroke="#000000" points="468,-343 468,-373 950,-373 950,-343 468,-343"/>
<text text-anchor="start" x="475" y="-354.4" font-family="Arial" font-size="14.00" fill="#000000">created_on </text>
<text text-anchor="start" x="548.92" y="-354.4" font-family="Arial" font-size="14.00" fill="#666666">[timestamp]</text>
<polygon fill="none" stroke="#000000" points="468,-313 468,-343 950,-343 950,-313 468,-313"/>
<text text-anchor="start" x="475" y="-324.4" font-family="Arial" font-size="14.00" fill="#000000">updated_on </text>
<text text-anchor="start" x="552.8246" y="-324.4" font-family="Arial" font-size="14.00" fill="#666666">[timestamp]</text>
<polygon fill="none" stroke="#000000" points="468,-283 468,-313 950,-313 950,-283 468,-283"/>
<text text-anchor="start" x="475" y="-294.4" font-family="Arial" font-size="14.00" fill="#000000">type </text>
<text text-anchor="start" x="505.3464" y="-294.4" font-family="Arial" font-size="14.00" fill="#666666">[varchar(255)]</text>
<text text-anchor="start" x="592.4656" y="-294.4" font-family="Arial" font-size="14.00" fill="#000000"> User:ユーザー Group:グループ </text>
<polygon fill="none" stroke="#000000" points="468,-253 468,-283 950,-283 950,-253 468,-253"/>
<text text-anchor="start" x="475" y="-264.4" font-family="Arial" font-size="14.00" fill="#000000">mail_notification </text>
<text text-anchor="start" x="579.2342" y="-264.4" font-family="Arial" font-size="14.00" fill="#666666">[varchar(255)]</text>
<text text-anchor="start" x="666.3534" y="-264.4" font-family="Arial" font-size="14.00" fill="#000000"> メール通知</text>
<polygon fill="none" stroke="#000000" points="468,-223 468,-253 950,-253 950,-223 468,-223"/>
<text text-anchor="start" x="475" y="-234.4" font-family="Arial" font-size="14.00" fill="#000000">salt </text>
<text text-anchor="start" x="500.6704" y="-234.4" font-family="Arial" font-size="14.00" fill="#666666">[varchar(64)]</text>
<polygon fill="none" stroke="#000000" points="468,-193 468,-223 950,-223 950,-193 468,-193"/>
<text text-anchor="start" x="474.7646" y="-204.4" font-family="Arial" font-size="14.00" fill="#000000">must_change_passwd </text>
<text text-anchor="start" x="617.9216" y="-204.4" font-family="Arial" font-size="14.00" fill="#666666">[tinyint(1)]</text>
<text text-anchor="start" x="679.3662" y="-204.4" font-family="Arial" font-size="14.00" fill="#000000"> 次回ログイン時にパスワード変更を強制</text>
<polygon fill="none" stroke="#000000" points="468,-163 468,-193 950,-193 950,-163 468,-163"/>
<text text-anchor="start" x="475" y="-174.4" font-family="Arial" font-size="14.00" fill="#000000">passwd_changed_on </text>
<text text-anchor="start" x="611.171" y="-174.4" font-family="Arial" font-size="14.00" fill="#666666">[datetime]</text>
<polygon fill="none" stroke="#000000" points="468,-133 468,-163 950,-163 950,-133 468,-133"/>
<text text-anchor="start" x="475" y="-144.4" font-family="Arial" font-size="14.00" fill="#000000">twofa_scheme </text>
<text text-anchor="start" x="569.1346" y="-144.4" font-family="Arial" font-size="14.00" fill="#666666">[varchar(255)]</text>
<polygon fill="none" stroke="#000000" points="468,-103 468,-133 950,-133 950,-103 468,-103"/>
<text text-anchor="start" x="475" y="-114.4" font-family="Arial" font-size="14.00" fill="#000000">twofa_totp_key </text>
<text text-anchor="start" x="573.0378" y="-114.4" font-family="Arial" font-size="14.00" fill="#666666">[varchar(255)]</text>
<polygon fill="none" stroke="#000000" points="468,-73 468,-103 950,-103 950,-73 468,-73"/>
<text text-anchor="start" x="475" y="-84.4" font-family="Arial" font-size="14.00" fill="#000000">twofa_totp_last_used_at </text>
<text text-anchor="start" x="630.6212" y="-84.4" font-family="Arial" font-size="14.00" fill="#666666">[int(11)]</text>
<polygon fill="none" stroke="#000000" points="468,-43 468,-73 950,-73 950,-43 468,-43"/>
<text text-anchor="start" x="475" y="-54.4" font-family="Arial" font-size="14.00" fill="#000000">twofa_required </text>
<text text-anchor="start" x="571.467" y="-54.4" font-family="Arial" font-size="14.00" fill="#666666">[tinyint(1)]</text>
</g>
<!-- attachments&#45;&gt;users -->
<g id="edge1" class="edge">
<title>attachments:author_id&#45;&gt;users:id</title>
<path fill="none" stroke="#000000" stroke-dasharray="5,2" d="M1382.1722,-948.1561C1436.0328,-938.5622 1409.1312,-849.4396 1372,-798 1314.1715,-717.8874 1048.8037,-658 950,-658"/>
<polygon fill="#000000" stroke="#000000" points="1381.9658,-948.1732 1371.6279,-944.5154 1376.9829,-948.5866 1372,-949 1372,-949 1372,-949 1376.9829,-948.5866 1372.3721,-953.4846 1381.9658,-948.1732 1381.9658,-948.1732"/>
<text text-anchor="start" x="1379.3245" y="-959" font-family="Arial" font-size="10.00" fill="#000000">Additional Relation</text>
</g>
</g>
</svg>
