<?xml version="1.0" encoding="UTF-8" standalone="no"?>
<!DOCTYPE svg PUBLIC "-//W3C//DTD SVG 1.1//EN"
 "http://www.w3.org/Graphics/SVG/1.1/DTD/svg11.dtd">
<!-- Generated by graphviz version 2.40.1 (20161225.0304)
 -->
<!-- Title: attachments Pages: 1 -->
<svg width="1541pt" height="1334pt"
 viewBox="0.00 0.00 1540.50 1334.00" xmlns="http://www.w3.org/2000/svg" xmlns:xlink="http://www.w3.org/1999/xlink">
<g id="graph0" class="graph" transform="scale(1 1) rotate(0) translate(4 1330)">
<title>attachments</title>
<polygon fill="#ffffff" stroke="transparent" points="-4,4 -4,-1330 1536.5,-1330 1536.5,4 -4,4"/>
<!-- attachments -->
<g id="node1" class="node">
<title>attachments</title>
<polygon fill="#efefef" stroke="transparent" points="46.5,-1234 46.5,-1280 1435.5,-1280 1435.5,-1234 46.5,-1234"/>
<polygon fill="none" stroke="#000000" points="46.5,-1234 46.5,-1280 1435.5,-1280 1435.5,-1234 46.5,-1234"/>
<text text-anchor="start" x="643.3582" y="-1257.8" font-family="Arial Bold" font-size="18.00" fill="#000000">attachments</text>
<text text-anchor="start" x="741.388" y="-1257.8" font-family="Arial" font-size="14.00" fill="#000000"> </text>
<text text-anchor="start" x="745.2786" y="-1257.8" font-family="Arial" font-size="14.00" fill="#666666">[BASE TABLE]</text>
<text text-anchor="start" x="697.4586" y="-1243.4" font-family="Arial" font-size="14.00" fill="#333333">添付ファイル</text>
<polygon fill="none" stroke="#000000" points="46.5,-1204 46.5,-1234 1435.5,-1234 1435.5,-1204 46.5,-1204"/>
<text text-anchor="start" x="53.5" y="-1215.4" font-family="Arial" font-size="14.00" fill="#000000">id </text>
<text text-anchor="start" x="68.2798" y="-1215.4" font-family="Arial" font-size="14.00" fill="#666666">[int(11)]</text>
<polygon fill="none" stroke="#000000" points="46.5,-1174 46.5,-1204 1435.5,-1204 1435.5,-1174 46.5,-1174"/>
<text text-anchor="start" x="53.5" y="-1185.4" font-family="Arial" font-size="14.00" fill="#000000">container_id </text>
<text text-anchor="start" x="133.6332" y="-1185.4" font-family="Arial" font-size="14.00" fill="#666666">[int(11)]</text>
<polygon fill="none" stroke="#000000" points="46.5,-1144 46.5,-1174 1435.5,-1174 1435.5,-1144 46.5,-1144"/>
<text text-anchor="start" x="53.1373" y="-1155.4" font-family="Arial" font-size="14.00" fill="#000000">container_type </text>
<text text-anchor="start" x="148.8371" y="-1155.4" font-family="Arial" font-size="14.00" fill="#666666">[varchar(30)]</text>
<text text-anchor="start" x="228.1737" y="-1155.4" font-family="Arial" font-size="14.00" fill="#000000"> Project:プロジェクト Issue:チケット WikiPage: Wikiページ Version:バージョン News:ニュース Document:文書 Message:フォーラムメッセージ CustomValue:カスタムフィールドの値 </text>
<polygon fill="none" stroke="#000000" points="46.5,-1114 46.5,-1144 1435.5,-1144 1435.5,-1114 46.5,-1114"/>
<text text-anchor="start" x="53.5" y="-1125.4" font-family="Arial" font-size="14.00" fill="#000000">filename </text>
<text text-anchor="start" x="110.2854" y="-1125.4" font-family="Arial" font-size="14.00" fill="#666666">[varchar(255)]</text>
<polygon fill="none" stroke="#000000" points="46.5,-1084 46.5,-1114 1435.5,-1114 1435.5,-1084 46.5,-1084"/>
<text text-anchor="start" x="53.5" y="-1095.4" font-family="Arial" font-size="14.00" fill="#000000">disk_filename </text>
<text text-anchor="start" x="142.9572" y="-1095.4" font-family="Arial" font-size="14.00" fill="#666666">[varchar(255)]</text>
<polygon fill="none" stroke="#000000" points="46.5,-1054 46.5,-1084 1435.5,-1084 1435.5,-1054 46.5,-1054"/>
<text text-anchor="start" x="53.5" y="-1065.4" font-family="Arial" font-size="14.00" fill="#000000">filesize </text>
<text text-anchor="start" x="100.1662" y="-1065.4" font-family="Arial" font-size="14.00" fill="#666666">[bigint(20)]</text>
<polygon fill="none" stroke="#000000" points="46.5,-1024 46.5,-1054 1435.5,-1054 1435.5,-1024 46.5,-1024"/>
<text text-anchor="start" x="53.5" y="-1035.4" font-family="Arial" font-size="14.00" fill="#000000">content_type </text>
<text text-anchor="start" x="137.5406" y="-1035.4" font-family="Arial" font-size="14.00" fill="#666666">[varchar(255)]</text>
<polygon fill="none" stroke="#000000" points="46.5,-994 46.5,-1024 1435.5,-1024 1435.5,-994 46.5,-994"/>
<text text-anchor="start" x="53.5" y="-1005.4" font-family="Arial" font-size="14.00" fill="#000000">digest </text>
<text text-anchor="start" x="94.7356" y="-1005.4" font-family="Arial" font-size="14.00" fill="#666666">[varchar(64)]</text>
<polygon fill="none" stroke="#000000" points="46.5,-964 46.5,-994 1435.5,-994 1435.5,-964 46.5,-964"/>
<text text-anchor="start" x="53.5" y="-975.4" font-family="Arial" font-size="14.00" fill="#000000">downloads </text>
<text text-anchor="start" x="124.2994" y="-975.4" font-family="Arial" font-size="14.00" fill="#666666">[int(11)]</text>
<polygon fill="none" stroke="#000000" points="46.5,-934 46.5,-964 1435.5,-964 1435.5,-934 46.5,-934"/>
<text text-anchor="start" x="53.5" y="-945.4" font-family="Arial" font-size="14.00" fill="#000000">author_id </text>
<text text-anchor="start" x="115.744" y="-945.4" font-family="Arial" font-size="14.00" fill="#666666">[int(11)]</text>
<polygon fill="none" stroke="#000000" points="46.5,-904 46.5,-934 1435.5,-934 1435.5,-904 46.5,-904"/>
<text text-anchor="start" x="53.5" y="-915.4" font-family="Arial" font-size="14.00" fill="#000000">created_on </text>
<text text-anchor="start" x="127.42" y="-915.4" font-family="Arial" font-size="14.00" fill="#666666">[timestamp]</text>
<polygon fill="none" stroke="#000000" points="46.5,-874 46.5,-904 1435.5,-904 1435.5,-874 46.5,-874"/>
<text text-anchor="start" x="53.5" y="-885.4" font-family="Arial" font-size="14.00" fill="#000000">description </text>
<text text-anchor="start" x="125.068" y="-885.4" font-family="Arial" font-size="14.00" fill="#666666">[varchar(255)]</text>
<polygon fill="none" stroke="#000000" points="46.5,-844 46.5,-874 1435.5,-874 1435.5,-844 46.5,-844"/>
<text text-anchor="start" x="53.5" y="-855.4" font-family="Arial" font-size="14.00" fill="#000000">disk_directory </text>
<text text-anchor="start" x="143.7286" y="-855.4" font-family="Arial" font-size="14.00" fill="#666666">[varchar(255)]</text>
<polygon fill="none" stroke="#000000" stroke-width="3" points="44.5,-842.5 44.5,-1281.5 1436.5,-1281.5 1436.5,-842.5 44.5,-842.5"/>
</g>
<!-- users -->
<g id="node2" class="node">
<title>users</title>
<polygon fill="#efefef" stroke="transparent" points="500.5,-673 500.5,-719 982.5,-719 982.5,-673 500.5,-673"/>
<polygon fill="none" stroke="#000000" points="500.5,-673 500.5,-719 982.5,-719 982.5,-673 500.5,-673"/>
<text text-anchor="start" x="670.8708" y="-696.8" font-family="Arial Bold" font-size="18.00" fill="#000000">users</text>
<text text-anchor="start" x="714.8754" y="-696.8" font-family="Arial" font-size="14.00" fill="#000000"> </text>
<text text-anchor="start" x="718.766" y="-696.8" font-family="Arial" font-size="14.00" fill="#666666">[BASE TABLE]</text>
<text text-anchor="start" x="662.9558" y="-682.4" font-family="Arial" font-size="14.00" fill="#333333">ユーザー / グループ</text>
<polygon fill="none" stroke="#000000" points="500.5,-643 500.5,-673 982.5,-673 982.5,-643 500.5,-643"/>
<text text-anchor="start" x="507.5" y="-654.4" font-family="Arial" font-size="14.00" fill="#000000">id </text>
<text text-anchor="start" x="522.2798" y="-654.4" font-family="Arial" font-size="14.00" fill="#666666">[int(11)]</text>
<polygon fill="none" stroke="#000000" points="500.5,-613 500.5,-643 982.5,-643 982.5,-613 500.5,-613"/>
<text text-anchor="start" x="507.5" y="-624.4" font-family="Arial" font-size="14.00" fill="#000000">login </text>
<text text-anchor="start" x="540.9516" y="-624.4" font-family="Arial" font-size="14.00" fill="#666666">[varchar(255)]</text>
<text text-anchor="start" x="628.0708" y="-624.4" font-family="Arial" font-size="14.00" fill="#000000"> ログインID</text>
<polygon fill="none" stroke="#000000" points="500.5,-583 500.5,-613 982.5,-613 982.5,-583 500.5,-583"/>
<text text-anchor="start" x="507.5" y="-594.4" font-family="Arial" font-size="14.00" fill="#000000">hashed_password </text>
<text text-anchor="start" x="624.9838" y="-594.4" font-family="Arial" font-size="14.00" fill="#666666">[varchar(40)]</text>
<text text-anchor="start" x="704.3204" y="-594.4" font-family="Arial" font-size="14.00" fill="#000000"> パスワード(ハッシュ化済み)</text>
<polygon fill="none" stroke="#000000" points="500.5,-553 500.5,-583 982.5,-583 982.5,-553 500.5,-553"/>
<text text-anchor="start" x="507.5" y="-564.4" font-family="Arial" font-size="14.00" fill="#000000">firstname </text>
<text text-anchor="start" x="568.9474" y="-564.4" font-family="Arial" font-size="14.00" fill="#666666">[varchar(30)]</text>
<text text-anchor="start" x="648.284" y="-564.4" font-family="Arial" font-size="14.00" fill="#000000"> 名</text>
<polygon fill="none" stroke="#000000" points="500.5,-523 500.5,-553 982.5,-553 982.5,-523 500.5,-523"/>
<text text-anchor="start" x="507.5" y="-534.4" font-family="Arial" font-size="14.00" fill="#000000">lastname </text>
<text text-anchor="start" x="568.1788" y="-534.4" font-family="Arial" font-size="14.00" fill="#666666">[varchar(255)]</text>
<text text-anchor="start" x="655.298" y="-534.4" font-family="Arial" font-size="14.00" fill="#000000"> 姓</text>
<polygon fill="none" stroke="#000000" points="500.5,-493 500.5,-523 982.5,-523 982.5,-493 500.5,-493"/>
<text text-anchor="start" x="507.5" y="-504.4" font-family="Arial" font-size="14.00" fill="#000000">admin </text>
<text text-anchor="start" x="549.5056" y="-504.4" font-family="Arial" font-size="14.00" fill="#666666">[tinyint(1)]</text>
<text text-anchor="start" x="610.9502" y="-504.4" font-family="Arial" font-size="14.00" fill="#000000"> システム管理者</text>
<polygon fill="none" stroke="#000000" points="500.5,-463 500.5,-493 982.5,-493 982.5,-463 500.5,-463"/>
<text text-anchor="start" x="507.5" y="-474.4" font-family="Arial" font-size="14.00" fill="#000000">status </text>
<text text-anchor="start" x="548.737" y="-474.4" font-family="Arial" font-size="14.00" fill="#666666">[int(11)]</text>
<polygon fill="none" stroke="#000000" points="500.5,-433 500.5,-463 982.5,-463 982.5,-433 500.5,-433"/>
<text text-anchor="start" x="507.5" y="-444.4" font-family="Arial" font-size="14.00" fill="#000000">last_login_on </text>
<text text-anchor="start" x="593.8618" y="-444.4" font-family="Arial" font-size="14.00" fill="#666666">[datetime]</text>
<polygon fill="none" stroke="#000000" points="500.5,-403 500.5,-433 982.5,-433 982.5,-403 500.5,-403"/>
<text text-anchor="start" x="507.5" y="-414.4" font-family="Arial" font-size="14.00" fill="#000000">language </text>
<text text-anchor="start" x="568.9754" y="-414.4" font-family="Arial" font-size="14.00" fill="#666666">[varchar(5)]</text>
<text text-anchor="start" x="640.5294" y="-414.4" font-family="Arial" font-size="14.00" fill="#000000"> 言語</text>
<polygon fill="none" stroke="#000000" points="500.5,-373 500.5,-403 982.5,-403 982.5,-373 500.5,-373"/>
<text text-anchor="start" x="507.5" y="-384.4" font-family="Arial" font-size="14.00" fill="#000000">auth_source_id </text>
<text text-anchor="start" x="607.0918" y="-384.4" font-family="Arial" font-size="14.00" fill="#666666">[int(11)]</text>
<polygon fill="none" stroke="#000000" points="500.5,-343 500.5,-373 982.5,-373 982.5,-343 500.5,-343"/>
<text text-anchor="start" x="507.5" y="-354.4" font-family="Arial" font-size="14.00" fill="#000000">created_on </text>
<text text-anchor="start" x="581.42" y="-354.4" font-family="Arial" font-size="14.00" fill="#666666">[timestamp]</text>
<polygon fill="none" stroke="#000000" points="500.5,-313 500.5,-343 982.5,-343 982.5,-313 500.5,-313"/>
<text text-anchor="start" x="507.5" y="-324.4" font-family="Arial" font-size="14.00" fill="#000000">updated_on </text>
<text text-anchor="start" x="585.3246" y="-324.4" font-family="Arial" font-size="14.00" fill="#666666">[timestamp]</text>
<polygon fill="none" stroke="#000000" points="500.5,-283 500.5,-313 982.5,-313 982.5,-283 500.5,-283"/>
<text text-anchor="start" x="507.5" y="-294.4" font-family="Arial" font-size="14.00" fill="#000000">type </text>
<text text-anchor="start" x="537.8464" y="-294.4" font-family="Arial" font-size="14.00" fill="#666666">[varchar(255)]</text>
<text text-anchor="start" x="624.9656" y="-294.4" font-family="Arial" font-size="14.00" fill="#000000"> User:ユーザー Group:グループ </text>
<polygon fill="none" stroke="#000000" points="500.5,-253 500.5,-283 982.5,-283 982.5,-253 500.5,-253"/>
<text text-anchor="start" x="507.5" y="-264.4" font-family="Arial" font-size="14.00" fill="#000000">mail_notification </text>
<text text-anchor="start" x="611.7342" y="-264.4" font-family="Arial" font-size="14.00" fill="#666666">[varchar(255)]</text>
<text text-anchor="start" x="698.8534" y="-264.4" font-family="Arial" font-size="14.00" fill="#000000"> メール通知</text>
<polygon fill="none" stroke="#000000" points="500.5,-223 500.5,-253 982.5,-253 982.5,-223 500.5,-223"/>
<text text-anchor="start" x="507.5" y="-234.4" font-family="Arial" font-size="14.00" fill="#000000">salt </text>
<text text-anchor="start" x="533.1704" y="-234.4" font-family="Arial" font-size="14.00" fill="#666666">[varchar(64)]</text>
<polygon fill="none" stroke="#000000" points="500.5,-193 500.5,-223 982.5,-223 982.5,-193 500.5,-193"/>
<text text-anchor="start" x="507.2646" y="-204.4" font-family="Arial" font-size="14.00" fill="#000000">must_change_passwd </text>
<text text-anchor="start" x="650.4216" y="-204.4" font-family="Arial" font-size="14.00" fill="#666666">[tinyint(1)]</text>
<text text-anchor="start" x="711.8662" y="-204.4" font-family="Arial" font-size="14.00" fill="#000000"> 次回ログイン時にパスワード変更を強制</text>
<polygon fill="none" stroke="#000000" points="500.5,-163 500.5,-193 982.5,-193 982.5,-163 500.5,-163"/>
<text text-anchor="start" x="507.5" y="-174.4" font-family="Arial" font-size="14.00" fill="#000000">passwd_changed_on </text>
<text text-anchor="start" x="643.671" y="-174.4" font-family="Arial" font-size="14.00" fill="#666666">[datetime]</text>
<polygon fill="none" stroke="#000000" points="500.5,-133 500.5,-163 982.5,-163 982.5,-133 500.5,-133"/>
<text text-anchor="start" x="507.5" y="-144.4" font-family="Arial" font-size="14.00" fill="#000000">twofa_scheme </text>
<text text-anchor="start" x="601.6346" y="-144.4" font-family="Arial" font-size="14.00" fill="#666666">[varchar(255)]</text>
<polygon fill="none" stroke="#000000" points="500.5,-103 500.5,-133 982.5,-133 982.5,-103 500.5,-103"/>
<text text-anchor="start" x="507.5" y="-114.4" font-family="Arial" font-size="14.00" fill="#000000">twofa_totp_key </text>
<text text-anchor="start" x="605.5378" y="-114.4" font-family="Arial" font-size="14.00" fill="#666666">[varchar(255)]</text>
<polygon fill="none" stroke="#000000" points="500.5,-73 500.5,-103 982.5,-103 982.5,-73 500.5,-73"/>
<text text-anchor="start" x="507.5" y="-84.4" font-family="Arial" font-size="14.00" fill="#000000">twofa_totp_last_used_at </text>
<text text-anchor="start" x="663.1212" y="-84.4" font-family="Arial" font-size="14.00" fill="#666666">[int(11)]</text>
<polygon fill="none" stroke="#000000" points="500.5,-43 500.5,-73 982.5,-73 982.5,-43 500.5,-43"/>
<text text-anchor="start" x="507.5" y="-54.4" font-family="Arial" font-size="14.00" fill="#000000">twofa_required </text>
<text text-anchor="start" x="603.967" y="-54.4" font-family="Arial" font-size="14.00" fill="#666666">[tinyint(1)]</text>
</g>
<!-- attachments&#45;&gt;users -->
<g id="edge1" class="edge">
<title>attachments:author_id&#45;&gt;users:id</title>
<path fill="none" stroke="#000000" stroke-dasharray="5,2" d="M1445.7338,-948.1048C1500.2827,-937.936 1479.4881,-843.7144 1435.5,-798 1363.4131,-723.0842 572.5869,-836.9158 500.5,-762 468.4509,-728.6931 454.2778,-658 500.5,-658"/>
<polygon fill="#000000" stroke="#000000" points="1445.462,-948.1284 1435.1078,-944.5171 1440.481,-948.5642 1435.5,-949 1435.5,-949 1435.5,-949 1440.481,-948.5642 1435.8922,-953.4829 1445.462,-948.1284 1445.462,-948.1284"/>
<text text-anchor="start" x="1442.8245" y="-959" font-family="Arial" font-size="10.00" fill="#000000">Additional Relation</text>
</g>
</g>
</svg>
