<?xml version="1.0" encoding="UTF-8" standalone="no"?>
<!DOCTYPE svg PUBLIC "-//W3C//DTD SVG 1.1//EN"
 "http://www.w3.org/Graphics/SVG/1.1/DTD/svg11.dtd">
<!-- Generated by graphviz version 2.40.1 (20161225.0304)
 -->
<!-- Title: auth_sources Pages: 1 -->
<svg width="626pt" height="1443pt"
 viewBox="0.00 0.00 626.00 1443.00" xmlns="http://www.w3.org/2000/svg" xmlns:xlink="http://www.w3.org/1999/xlink">
<g id="graph0" class="graph" transform="scale(1 1) rotate(0) translate(4 1439)">
<title>auth_sources</title>
<polygon fill="#ffffff" stroke="transparent" points="-4,4 -4,-1439 622,-1439 622,4 -4,4"/>
<!-- auth_sources -->
<g id="node1" class="node">
<title>auth_sources</title>
<polygon fill="#efefef" stroke="transparent" points="223,-555.5 223,-590.5 444,-590.5 444,-555.5 223,-555.5"/>
<polygon fill="none" stroke="#000000" points="223,-555.5 223,-590.5 444,-590.5 444,-555.5 223,-555.5"/>
<text text-anchor="start" x="230.8542" y="-568.3" font-family="Arial Bold" font-size="18.00" fill="#000000">auth_sources</text>
<text text-anchor="start" x="338.892" y="-568.3" font-family="Arial" font-size="14.00" fill="#000000"> </text>
<text text-anchor="start" x="342.7826" y="-568.3" font-family="Arial" font-size="14.00" fill="#666666">[BASE TABLE]</text>
<polygon fill="none" stroke="#000000" points="223,-525.5 223,-555.5 444,-555.5 444,-525.5 223,-525.5"/>
<text text-anchor="start" x="230" y="-536.9" font-family="Arial" font-size="14.00" fill="#000000">id </text>
<text text-anchor="start" x="244.7798" y="-536.9" font-family="Arial" font-size="14.00" fill="#666666">[int(11)]</text>
<polygon fill="none" stroke="#000000" points="223,-495.5 223,-525.5 444,-525.5 444,-495.5 223,-495.5"/>
<text text-anchor="start" x="230" y="-506.9" font-family="Arial" font-size="14.00" fill="#000000">type </text>
<text text-anchor="start" x="260.3464" y="-506.9" font-family="Arial" font-size="14.00" fill="#666666">[varchar(30)]</text>
<polygon fill="none" stroke="#000000" points="223,-465.5 223,-495.5 444,-495.5 444,-465.5 223,-465.5"/>
<text text-anchor="start" x="230" y="-476.9" font-family="Arial" font-size="14.00" fill="#000000">name </text>
<text text-anchor="start" x="268.899" y="-476.9" font-family="Arial" font-size="14.00" fill="#666666">[varchar(60)]</text>
<polygon fill="none" stroke="#000000" points="223,-435.5 223,-465.5 444,-465.5 444,-435.5 223,-435.5"/>
<text text-anchor="start" x="230" y="-446.9" font-family="Arial" font-size="14.00" fill="#000000">host </text>
<text text-anchor="start" x="260.3464" y="-446.9" font-family="Arial" font-size="14.00" fill="#666666">[varchar(60)]</text>
<polygon fill="none" stroke="#000000" points="223,-405.5 223,-435.5 444,-435.5 444,-405.5 223,-405.5"/>
<text text-anchor="start" x="230" y="-416.9" font-family="Arial" font-size="14.00" fill="#000000">port </text>
<text text-anchor="start" x="258.007" y="-416.9" font-family="Arial" font-size="14.00" fill="#666666">[int(11)]</text>
<polygon fill="none" stroke="#000000" points="223,-375.5 223,-405.5 444,-405.5 444,-375.5 223,-375.5"/>
<text text-anchor="start" x="230" y="-386.9" font-family="Arial" font-size="14.00" fill="#000000">account </text>
<text text-anchor="start" x="282.9116" y="-386.9" font-family="Arial" font-size="14.00" fill="#666666">[varchar(255)]</text>
<polygon fill="none" stroke="#000000" points="223,-345.5 223,-375.5 444,-375.5 444,-345.5 223,-345.5"/>
<text text-anchor="start" x="229.6445" y="-356.9" font-family="Arial" font-size="14.00" fill="#000000">account_password </text>
<text text-anchor="start" x="350.2363" y="-356.9" font-family="Arial" font-size="14.00" fill="#666666">[varchar(255)]</text>
<polygon fill="none" stroke="#000000" points="223,-315.5 223,-345.5 444,-345.5 444,-315.5 223,-315.5"/>
<text text-anchor="start" x="230" y="-326.9" font-family="Arial" font-size="14.00" fill="#000000">base_dn </text>
<text text-anchor="start" x="287.5862" y="-326.9" font-family="Arial" font-size="14.00" fill="#666666">[varchar(255)]</text>
<polygon fill="none" stroke="#000000" points="223,-285.5 223,-315.5 444,-315.5 444,-285.5 223,-285.5"/>
<text text-anchor="start" x="230" y="-296.9" font-family="Arial" font-size="14.00" fill="#000000">attr_login </text>
<text text-anchor="start" x="291.4586" y="-296.9" font-family="Arial" font-size="14.00" fill="#666666">[varchar(30)]</text>
<polygon fill="none" stroke="#000000" points="223,-255.5 223,-285.5 444,-285.5 444,-255.5 223,-255.5"/>
<text text-anchor="start" x="230" y="-266.9" font-family="Arial" font-size="14.00" fill="#000000">attr_firstname </text>
<text text-anchor="start" x="319.4544" y="-266.9" font-family="Arial" font-size="14.00" fill="#666666">[varchar(30)]</text>
<polygon fill="none" stroke="#000000" points="223,-225.5 223,-255.5 444,-255.5 444,-225.5 223,-225.5"/>
<text text-anchor="start" x="230" y="-236.9" font-family="Arial" font-size="14.00" fill="#000000">attr_lastname </text>
<text text-anchor="start" x="318.6858" y="-236.9" font-family="Arial" font-size="14.00" fill="#666666">[varchar(30)]</text>
<polygon fill="none" stroke="#000000" points="223,-195.5 223,-225.5 444,-225.5 444,-195.5 223,-195.5"/>
<text text-anchor="start" x="230" y="-206.9" font-family="Arial" font-size="14.00" fill="#000000">attr_mail </text>
<text text-anchor="start" x="287.554" y="-206.9" font-family="Arial" font-size="14.00" fill="#666666">[varchar(30)]</text>
<polygon fill="none" stroke="#000000" points="223,-165.5 223,-195.5 444,-195.5 444,-165.5 223,-165.5"/>
<text text-anchor="start" x="230" y="-176.9" font-family="Arial" font-size="14.00" fill="#000000">onthefly_register </text>
<text text-anchor="start" x="337.3576" y="-176.9" font-family="Arial" font-size="14.00" fill="#666666">[tinyint(1)]</text>
<polygon fill="none" stroke="#000000" points="223,-135.5 223,-165.5 444,-165.5 444,-135.5 223,-135.5"/>
<text text-anchor="start" x="230" y="-146.9" font-family="Arial" font-size="14.00" fill="#000000">tls </text>
<text text-anchor="start" x="247.8878" y="-146.9" font-family="Arial" font-size="14.00" fill="#666666">[tinyint(1)]</text>
<polygon fill="none" stroke="#000000" points="223,-105.5 223,-135.5 444,-135.5 444,-105.5 223,-105.5"/>
<text text-anchor="start" x="230" y="-116.9" font-family="Arial" font-size="14.00" fill="#000000">filter </text>
<text text-anchor="start" x="260.3282" y="-116.9" font-family="Arial" font-size="14.00" fill="#666666">[text]</text>
<polygon fill="none" stroke="#000000" points="223,-75.5 223,-105.5 444,-105.5 444,-75.5 223,-75.5"/>
<text text-anchor="start" x="230" y="-86.9" font-family="Arial" font-size="14.00" fill="#000000">timeout </text>
<text text-anchor="start" x="279.7868" y="-86.9" font-family="Arial" font-size="14.00" fill="#666666">[int(11)]</text>
<polygon fill="none" stroke="#000000" points="223,-45.5 223,-75.5 444,-75.5 444,-45.5 223,-45.5"/>
<text text-anchor="start" x="230" y="-56.9" font-family="Arial" font-size="14.00" fill="#000000">verify_peer </text>
<text text-anchor="start" x="303.122" y="-56.9" font-family="Arial" font-size="14.00" fill="#666666">[tinyint(1)]</text>
<polygon fill="none" stroke="#000000" stroke-width="3" points="221,-44.5 221,-592.5 445,-592.5 445,-44.5 221,-44.5"/>
</g>
<!-- users -->
<g id="node2" class="node">
<title>users</title>
<polygon fill="#efefef" stroke="transparent" points="93,-1346 93,-1392 575,-1392 575,-1346 93,-1346"/>
<polygon fill="none" stroke="#000000" points="93,-1346 93,-1392 575,-1392 575,-1346 93,-1346"/>
<text text-anchor="start" x="263.3708" y="-1369.8" font-family="Arial Bold" font-size="18.00" fill="#000000">users</text>
<text text-anchor="start" x="307.3754" y="-1369.8" font-family="Arial" font-size="14.00" fill="#000000"> </text>
<text text-anchor="start" x="311.266" y="-1369.8" font-family="Arial" font-size="14.00" fill="#666666">[BASE TABLE]</text>
<text text-anchor="start" x="255.4558" y="-1355.4" font-family="Arial" font-size="14.00" fill="#333333">ユーザー / グループ</text>
<polygon fill="none" stroke="#000000" points="93,-1316 93,-1346 575,-1346 575,-1316 93,-1316"/>
<text text-anchor="start" x="100" y="-1327.4" font-family="Arial" font-size="14.00" fill="#000000">id </text>
<text text-anchor="start" x="114.7798" y="-1327.4" font-family="Arial" font-size="14.00" fill="#666666">[int(11)]</text>
<polygon fill="none" stroke="#000000" points="93,-1286 93,-1316 575,-1316 575,-1286 93,-1286"/>
<text text-anchor="start" x="100" y="-1297.4" font-family="Arial" font-size="14.00" fill="#000000">login </text>
<text text-anchor="start" x="133.4516" y="-1297.4" font-family="Arial" font-size="14.00" fill="#666666">[varchar(255)]</text>
<text text-anchor="start" x="220.5708" y="-1297.4" font-family="Arial" font-size="14.00" fill="#000000"> ログインID</text>
<polygon fill="none" stroke="#000000" points="93,-1256 93,-1286 575,-1286 575,-1256 93,-1256"/>
<text text-anchor="start" x="100" y="-1267.4" font-family="Arial" font-size="14.00" fill="#000000">hashed_password </text>
<text text-anchor="start" x="217.4838" y="-1267.4" font-family="Arial" font-size="14.00" fill="#666666">[varchar(40)]</text>
<text text-anchor="start" x="296.8204" y="-1267.4" font-family="Arial" font-size="14.00" fill="#000000"> パスワード(ハッシュ化済み)</text>
<polygon fill="none" stroke="#000000" points="93,-1226 93,-1256 575,-1256 575,-1226 93,-1226"/>
<text text-anchor="start" x="100" y="-1237.4" font-family="Arial" font-size="14.00" fill="#000000">firstname </text>
<text text-anchor="start" x="161.4474" y="-1237.4" font-family="Arial" font-size="14.00" fill="#666666">[varchar(30)]</text>
<text text-anchor="start" x="240.784" y="-1237.4" font-family="Arial" font-size="14.00" fill="#000000"> 名</text>
<polygon fill="none" stroke="#000000" points="93,-1196 93,-1226 575,-1226 575,-1196 93,-1196"/>
<text text-anchor="start" x="100" y="-1207.4" font-family="Arial" font-size="14.00" fill="#000000">lastname </text>
<text text-anchor="start" x="160.6788" y="-1207.4" font-family="Arial" font-size="14.00" fill="#666666">[varchar(255)]</text>
<text text-anchor="start" x="247.798" y="-1207.4" font-family="Arial" font-size="14.00" fill="#000000"> 姓</text>
<polygon fill="none" stroke="#000000" points="93,-1166 93,-1196 575,-1196 575,-1166 93,-1166"/>
<text text-anchor="start" x="100" y="-1177.4" font-family="Arial" font-size="14.00" fill="#000000">admin </text>
<text text-anchor="start" x="142.0056" y="-1177.4" font-family="Arial" font-size="14.00" fill="#666666">[tinyint(1)]</text>
<text text-anchor="start" x="203.4502" y="-1177.4" font-family="Arial" font-size="14.00" fill="#000000"> システム管理者</text>
<polygon fill="none" stroke="#000000" points="93,-1136 93,-1166 575,-1166 575,-1136 93,-1136"/>
<text text-anchor="start" x="100" y="-1147.4" font-family="Arial" font-size="14.00" fill="#000000">status </text>
<text text-anchor="start" x="141.237" y="-1147.4" font-family="Arial" font-size="14.00" fill="#666666">[int(11)]</text>
<polygon fill="none" stroke="#000000" points="93,-1106 93,-1136 575,-1136 575,-1106 93,-1106"/>
<text text-anchor="start" x="100" y="-1117.4" font-family="Arial" font-size="14.00" fill="#000000">last_login_on </text>
<text text-anchor="start" x="186.3618" y="-1117.4" font-family="Arial" font-size="14.00" fill="#666666">[datetime]</text>
<polygon fill="none" stroke="#000000" points="93,-1076 93,-1106 575,-1106 575,-1076 93,-1076"/>
<text text-anchor="start" x="100" y="-1087.4" font-family="Arial" font-size="14.00" fill="#000000">language </text>
<text text-anchor="start" x="161.4754" y="-1087.4" font-family="Arial" font-size="14.00" fill="#666666">[varchar(5)]</text>
<text text-anchor="start" x="233.0294" y="-1087.4" font-family="Arial" font-size="14.00" fill="#000000"> 言語</text>
<polygon fill="none" stroke="#000000" points="93,-1046 93,-1076 575,-1076 575,-1046 93,-1046"/>
<text text-anchor="start" x="100" y="-1057.4" font-family="Arial" font-size="14.00" fill="#000000">auth_source_id </text>
<text text-anchor="start" x="199.5918" y="-1057.4" font-family="Arial" font-size="14.00" fill="#666666">[int(11)]</text>
<polygon fill="none" stroke="#000000" points="93,-1016 93,-1046 575,-1046 575,-1016 93,-1016"/>
<text text-anchor="start" x="100" y="-1027.4" font-family="Arial" font-size="14.00" fill="#000000">created_on </text>
<text text-anchor="start" x="173.92" y="-1027.4" font-family="Arial" font-size="14.00" fill="#666666">[timestamp]</text>
<polygon fill="none" stroke="#000000" points="93,-986 93,-1016 575,-1016 575,-986 93,-986"/>
<text text-anchor="start" x="100" y="-997.4" font-family="Arial" font-size="14.00" fill="#000000">updated_on </text>
<text text-anchor="start" x="177.8246" y="-997.4" font-family="Arial" font-size="14.00" fill="#666666">[timestamp]</text>
<polygon fill="none" stroke="#000000" points="93,-956 93,-986 575,-986 575,-956 93,-956"/>
<text text-anchor="start" x="100" y="-967.4" font-family="Arial" font-size="14.00" fill="#000000">type </text>
<text text-anchor="start" x="130.3464" y="-967.4" font-family="Arial" font-size="14.00" fill="#666666">[varchar(255)]</text>
<text text-anchor="start" x="217.4656" y="-967.4" font-family="Arial" font-size="14.00" fill="#000000"> User:ユーザー / Group:グループ</text>
<polygon fill="none" stroke="#000000" points="93,-926 93,-956 575,-956 575,-926 93,-926"/>
<text text-anchor="start" x="100" y="-937.4" font-family="Arial" font-size="14.00" fill="#000000">mail_notification </text>
<text text-anchor="start" x="204.2342" y="-937.4" font-family="Arial" font-size="14.00" fill="#666666">[varchar(255)]</text>
<text text-anchor="start" x="291.3534" y="-937.4" font-family="Arial" font-size="14.00" fill="#000000"> メール通知</text>
<polygon fill="none" stroke="#000000" points="93,-896 93,-926 575,-926 575,-896 93,-896"/>
<text text-anchor="start" x="100" y="-907.4" font-family="Arial" font-size="14.00" fill="#000000">salt </text>
<text text-anchor="start" x="125.6704" y="-907.4" font-family="Arial" font-size="14.00" fill="#666666">[varchar(64)]</text>
<polygon fill="none" stroke="#000000" points="93,-866 93,-896 575,-896 575,-866 93,-866"/>
<text text-anchor="start" x="99.7646" y="-877.4" font-family="Arial" font-size="14.00" fill="#000000">must_change_passwd </text>
<text text-anchor="start" x="242.9216" y="-877.4" font-family="Arial" font-size="14.00" fill="#666666">[tinyint(1)]</text>
<text text-anchor="start" x="304.3662" y="-877.4" font-family="Arial" font-size="14.00" fill="#000000"> 次回ログイン時にパスワード変更を強制</text>
<polygon fill="none" stroke="#000000" points="93,-836 93,-866 575,-866 575,-836 93,-836"/>
<text text-anchor="start" x="100" y="-847.4" font-family="Arial" font-size="14.00" fill="#000000">passwd_changed_on </text>
<text text-anchor="start" x="236.171" y="-847.4" font-family="Arial" font-size="14.00" fill="#666666">[datetime]</text>
<polygon fill="none" stroke="#000000" points="93,-806 93,-836 575,-836 575,-806 93,-806"/>
<text text-anchor="start" x="100" y="-817.4" font-family="Arial" font-size="14.00" fill="#000000">twofa_scheme </text>
<text text-anchor="start" x="194.1346" y="-817.4" font-family="Arial" font-size="14.00" fill="#666666">[varchar(255)]</text>
<polygon fill="none" stroke="#000000" points="93,-776 93,-806 575,-806 575,-776 93,-776"/>
<text text-anchor="start" x="100" y="-787.4" font-family="Arial" font-size="14.00" fill="#000000">twofa_totp_key </text>
<text text-anchor="start" x="198.0378" y="-787.4" font-family="Arial" font-size="14.00" fill="#666666">[varchar(255)]</text>
<polygon fill="none" stroke="#000000" points="93,-746 93,-776 575,-776 575,-746 93,-746"/>
<text text-anchor="start" x="100" y="-757.4" font-family="Arial" font-size="14.00" fill="#000000">twofa_totp_last_used_at </text>
<text text-anchor="start" x="255.6212" y="-757.4" font-family="Arial" font-size="14.00" fill="#666666">[int(11)]</text>
<polygon fill="none" stroke="#000000" points="93,-716 93,-746 575,-746 575,-716 93,-716"/>
<text text-anchor="start" x="100" y="-727.4" font-family="Arial" font-size="14.00" fill="#000000">twofa_required </text>
<text text-anchor="start" x="196.467" y="-727.4" font-family="Arial" font-size="14.00" fill="#666666">[tinyint(1)]</text>
</g>
<!-- users&#45;&gt;auth_sources -->
<g id="edge1" class="edge">
<title>users:auth_source_id&#45;&gt;auth_sources:id</title>
<path fill="none" stroke="#000000" stroke-dasharray="5,2" d="M82.9635,-1059.4051C9.1607,-1034.8595 37.5953,-734.3779 93,-673 145.5392,-614.7966 391.4608,-695.2034 444,-637 472.7383,-605.1634 486.8889,-540.5 444,-540.5"/>
<polygon fill="#000000" stroke="#000000" points="83.1239,-1059.4305 92.2937,-1065.4442 88.062,-1060.2153 93,-1061 93,-1061 93,-1061 88.062,-1060.2153 93.7063,-1056.5558 83.1239,-1059.4305 83.1239,-1059.4305"/>
<text text-anchor="start" x="7.268" y="-1071" font-family="Arial" font-size="10.00" fill="#000000">Detected Relation</text>
</g>
</g>
</svg>
