<?xml version="1.0" encoding="UTF-8" standalone="no"?>
<!DOCTYPE svg PUBLIC "-//W3C//DTD SVG 1.1//EN"
 "http://www.w3.org/Graphics/SVG/1.1/DTD/svg11.dtd">
<!-- Generated by graphviz version 2.40.1 (20161225.0304)
 -->
<!-- Title: auth_sources Pages: 1 -->
<svg width="626pt" height="1454pt"
 viewBox="0.00 0.00 626.00 1454.00" xmlns="http://www.w3.org/2000/svg" xmlns:xlink="http://www.w3.org/1999/xlink">
<g id="graph0" class="graph" transform="scale(1 1) rotate(0) translate(4 1450)">
<title>auth_sources</title>
<polygon fill="#ffffff" stroke="transparent" points="-4,4 -4,-1450 622,-1450 622,4 -4,4"/>
<!-- auth_sources -->
<g id="node1" class="node">
<title>auth_sources</title>
<polygon fill="#efefef" stroke="transparent" points="223,-556 223,-602 444,-602 444,-556 223,-556"/>
<polygon fill="none" stroke="#000000" points="223,-556 223,-602 444,-602 444,-556 223,-556"/>
<text text-anchor="start" x="230.8542" y="-579.8" font-family="Arial Bold" font-size="18.00" fill="#000000">auth_sources</text>
<text text-anchor="start" x="338.892" y="-579.8" font-family="Arial" font-size="14.00" fill="#000000"> </text>
<text text-anchor="start" x="342.7826" y="-579.8" font-family="Arial" font-size="14.00" fill="#666666">[BASE TABLE]</text>
<text text-anchor="start" x="292.2693" y="-565.4" font-family="Arial" font-size="14.00" fill="#333333">LDAP認証</text>
<polygon fill="none" stroke="#000000" points="223,-526 223,-556 444,-556 444,-526 223,-526"/>
<text text-anchor="start" x="230" y="-537.4" font-family="Arial" font-size="14.00" fill="#000000">id </text>
<text text-anchor="start" x="244.7798" y="-537.4" font-family="Arial" font-size="14.00" fill="#666666">[int(11)]</text>
<polygon fill="none" stroke="#000000" points="223,-496 223,-526 444,-526 444,-496 223,-496"/>
<text text-anchor="start" x="230" y="-507.4" font-family="Arial" font-size="14.00" fill="#000000">type </text>
<text text-anchor="start" x="260.3464" y="-507.4" font-family="Arial" font-size="14.00" fill="#666666">[varchar(30)]</text>
<polygon fill="none" stroke="#000000" points="223,-466 223,-496 444,-496 444,-466 223,-466"/>
<text text-anchor="start" x="230" y="-477.4" font-family="Arial" font-size="14.00" fill="#000000">name </text>
<text text-anchor="start" x="268.899" y="-477.4" font-family="Arial" font-size="14.00" fill="#666666">[varchar(60)]</text>
<polygon fill="none" stroke="#000000" points="223,-436 223,-466 444,-466 444,-436 223,-436"/>
<text text-anchor="start" x="230" y="-447.4" font-family="Arial" font-size="14.00" fill="#000000">host </text>
<text text-anchor="start" x="260.3464" y="-447.4" font-family="Arial" font-size="14.00" fill="#666666">[varchar(60)]</text>
<polygon fill="none" stroke="#000000" points="223,-406 223,-436 444,-436 444,-406 223,-406"/>
<text text-anchor="start" x="230" y="-417.4" font-family="Arial" font-size="14.00" fill="#000000">port </text>
<text text-anchor="start" x="258.007" y="-417.4" font-family="Arial" font-size="14.00" fill="#666666">[int(11)]</text>
<polygon fill="none" stroke="#000000" points="223,-376 223,-406 444,-406 444,-376 223,-376"/>
<text text-anchor="start" x="230" y="-387.4" font-family="Arial" font-size="14.00" fill="#000000">account </text>
<text text-anchor="start" x="282.9116" y="-387.4" font-family="Arial" font-size="14.00" fill="#666666">[varchar(255)]</text>
<polygon fill="none" stroke="#000000" points="223,-346 223,-376 444,-376 444,-346 223,-346"/>
<text text-anchor="start" x="229.6445" y="-357.4" font-family="Arial" font-size="14.00" fill="#000000">account_password </text>
<text text-anchor="start" x="350.2363" y="-357.4" font-family="Arial" font-size="14.00" fill="#666666">[varchar(255)]</text>
<polygon fill="none" stroke="#000000" points="223,-316 223,-346 444,-346 444,-316 223,-316"/>
<text text-anchor="start" x="230" y="-327.4" font-family="Arial" font-size="14.00" fill="#000000">base_dn </text>
<text text-anchor="start" x="287.5862" y="-327.4" font-family="Arial" font-size="14.00" fill="#666666">[varchar(255)]</text>
<polygon fill="none" stroke="#000000" points="223,-286 223,-316 444,-316 444,-286 223,-286"/>
<text text-anchor="start" x="230" y="-297.4" font-family="Arial" font-size="14.00" fill="#000000">attr_login </text>
<text text-anchor="start" x="291.4586" y="-297.4" font-family="Arial" font-size="14.00" fill="#666666">[varchar(30)]</text>
<polygon fill="none" stroke="#000000" points="223,-256 223,-286 444,-286 444,-256 223,-256"/>
<text text-anchor="start" x="230" y="-267.4" font-family="Arial" font-size="14.00" fill="#000000">attr_firstname </text>
<text text-anchor="start" x="319.4544" y="-267.4" font-family="Arial" font-size="14.00" fill="#666666">[varchar(30)]</text>
<polygon fill="none" stroke="#000000" points="223,-226 223,-256 444,-256 444,-226 223,-226"/>
<text text-anchor="start" x="230" y="-237.4" font-family="Arial" font-size="14.00" fill="#000000">attr_lastname </text>
<text text-anchor="start" x="318.6858" y="-237.4" font-family="Arial" font-size="14.00" fill="#666666">[varchar(30)]</text>
<polygon fill="none" stroke="#000000" points="223,-196 223,-226 444,-226 444,-196 223,-196"/>
<text text-anchor="start" x="230" y="-207.4" font-family="Arial" font-size="14.00" fill="#000000">attr_mail </text>
<text text-anchor="start" x="287.554" y="-207.4" font-family="Arial" font-size="14.00" fill="#666666">[varchar(30)]</text>
<polygon fill="none" stroke="#000000" points="223,-166 223,-196 444,-196 444,-166 223,-166"/>
<text text-anchor="start" x="230" y="-177.4" font-family="Arial" font-size="14.00" fill="#000000">onthefly_register </text>
<text text-anchor="start" x="337.3576" y="-177.4" font-family="Arial" font-size="14.00" fill="#666666">[tinyint(1)]</text>
<polygon fill="none" stroke="#000000" points="223,-136 223,-166 444,-166 444,-136 223,-136"/>
<text text-anchor="start" x="230" y="-147.4" font-family="Arial" font-size="14.00" fill="#000000">tls </text>
<text text-anchor="start" x="247.8878" y="-147.4" font-family="Arial" font-size="14.00" fill="#666666">[tinyint(1)]</text>
<polygon fill="none" stroke="#000000" points="223,-106 223,-136 444,-136 444,-106 223,-106"/>
<text text-anchor="start" x="230" y="-117.4" font-family="Arial" font-size="14.00" fill="#000000">filter </text>
<text text-anchor="start" x="260.3282" y="-117.4" font-family="Arial" font-size="14.00" fill="#666666">[text]</text>
<polygon fill="none" stroke="#000000" points="223,-76 223,-106 444,-106 444,-76 223,-76"/>
<text text-anchor="start" x="230" y="-87.4" font-family="Arial" font-size="14.00" fill="#000000">timeout </text>
<text text-anchor="start" x="279.7868" y="-87.4" font-family="Arial" font-size="14.00" fill="#666666">[int(11)]</text>
<polygon fill="none" stroke="#000000" points="223,-46 223,-76 444,-76 444,-46 223,-46"/>
<text text-anchor="start" x="230" y="-57.4" font-family="Arial" font-size="14.00" fill="#000000">verify_peer </text>
<text text-anchor="start" x="303.122" y="-57.4" font-family="Arial" font-size="14.00" fill="#666666">[tinyint(1)]</text>
<polygon fill="none" stroke="#000000" stroke-width="3" points="221,-44.5 221,-603.5 445,-603.5 445,-44.5 221,-44.5"/>
</g>
<!-- users -->
<g id="node2" class="node">
<title>users</title>
<polygon fill="#efefef" stroke="transparent" points="93,-1357 93,-1403 575,-1403 575,-1357 93,-1357"/>
<polygon fill="none" stroke="#000000" points="93,-1357 93,-1403 575,-1403 575,-1357 93,-1357"/>
<text text-anchor="start" x="263.3708" y="-1380.8" font-family="Arial Bold" font-size="18.00" fill="#000000">users</text>
<text text-anchor="start" x="307.3754" y="-1380.8" font-family="Arial" font-size="14.00" fill="#000000"> </text>
<text text-anchor="start" x="311.266" y="-1380.8" font-family="Arial" font-size="14.00" fill="#666666">[BASE TABLE]</text>
<text text-anchor="start" x="255.4558" y="-1366.4" font-family="Arial" font-size="14.00" fill="#333333">ユーザー / グループ</text>
<polygon fill="none" stroke="#000000" points="93,-1327 93,-1357 575,-1357 575,-1327 93,-1327"/>
<text text-anchor="start" x="100" y="-1338.4" font-family="Arial" font-size="14.00" fill="#000000">id </text>
<text text-anchor="start" x="114.7798" y="-1338.4" font-family="Arial" font-size="14.00" fill="#666666">[int(11)]</text>
<polygon fill="none" stroke="#000000" points="93,-1297 93,-1327 575,-1327 575,-1297 93,-1297"/>
<text text-anchor="start" x="100" y="-1308.4" font-family="Arial" font-size="14.00" fill="#000000">login </text>
<text text-anchor="start" x="133.4516" y="-1308.4" font-family="Arial" font-size="14.00" fill="#666666">[varchar(255)]</text>
<text text-anchor="start" x="220.5708" y="-1308.4" font-family="Arial" font-size="14.00" fill="#000000"> ログインID</text>
<polygon fill="none" stroke="#000000" points="93,-1267 93,-1297 575,-1297 575,-1267 93,-1267"/>
<text text-anchor="start" x="100" y="-1278.4" font-family="Arial" font-size="14.00" fill="#000000">hashed_password </text>
<text text-anchor="start" x="217.4838" y="-1278.4" font-family="Arial" font-size="14.00" fill="#666666">[varchar(40)]</text>
<text text-anchor="start" x="296.8204" y="-1278.4" font-family="Arial" font-size="14.00" fill="#000000"> パスワード(ハッシュ化済み)</text>
<polygon fill="none" stroke="#000000" points="93,-1237 93,-1267 575,-1267 575,-1237 93,-1237"/>
<text text-anchor="start" x="100" y="-1248.4" font-family="Arial" font-size="14.00" fill="#000000">firstname </text>
<text text-anchor="start" x="161.4474" y="-1248.4" font-family="Arial" font-size="14.00" fill="#666666">[varchar(30)]</text>
<text text-anchor="start" x="240.784" y="-1248.4" font-family="Arial" font-size="14.00" fill="#000000"> 名</text>
<polygon fill="none" stroke="#000000" points="93,-1207 93,-1237 575,-1237 575,-1207 93,-1207"/>
<text text-anchor="start" x="100" y="-1218.4" font-family="Arial" font-size="14.00" fill="#000000">lastname </text>
<text text-anchor="start" x="160.6788" y="-1218.4" font-family="Arial" font-size="14.00" fill="#666666">[varchar(255)]</text>
<text text-anchor="start" x="247.798" y="-1218.4" font-family="Arial" font-size="14.00" fill="#000000"> 姓</text>
<polygon fill="none" stroke="#000000" points="93,-1177 93,-1207 575,-1207 575,-1177 93,-1177"/>
<text text-anchor="start" x="100" y="-1188.4" font-family="Arial" font-size="14.00" fill="#000000">admin </text>
<text text-anchor="start" x="142.0056" y="-1188.4" font-family="Arial" font-size="14.00" fill="#666666">[tinyint(1)]</text>
<text text-anchor="start" x="203.4502" y="-1188.4" font-family="Arial" font-size="14.00" fill="#000000"> システム管理者</text>
<polygon fill="none" stroke="#000000" points="93,-1147 93,-1177 575,-1177 575,-1147 93,-1147"/>
<text text-anchor="start" x="100" y="-1158.4" font-family="Arial" font-size="14.00" fill="#000000">status </text>
<text text-anchor="start" x="141.237" y="-1158.4" font-family="Arial" font-size="14.00" fill="#666666">[int(11)]</text>
<polygon fill="none" stroke="#000000" points="93,-1117 93,-1147 575,-1147 575,-1117 93,-1117"/>
<text text-anchor="start" x="100" y="-1128.4" font-family="Arial" font-size="14.00" fill="#000000">last_login_on </text>
<text text-anchor="start" x="186.3618" y="-1128.4" font-family="Arial" font-size="14.00" fill="#666666">[datetime]</text>
<polygon fill="none" stroke="#000000" points="93,-1087 93,-1117 575,-1117 575,-1087 93,-1087"/>
<text text-anchor="start" x="100" y="-1098.4" font-family="Arial" font-size="14.00" fill="#000000">language </text>
<text text-anchor="start" x="161.4754" y="-1098.4" font-family="Arial" font-size="14.00" fill="#666666">[varchar(5)]</text>
<text text-anchor="start" x="233.0294" y="-1098.4" font-family="Arial" font-size="14.00" fill="#000000"> 言語</text>
<polygon fill="none" stroke="#000000" points="93,-1057 93,-1087 575,-1087 575,-1057 93,-1057"/>
<text text-anchor="start" x="100" y="-1068.4" font-family="Arial" font-size="14.00" fill="#000000">auth_source_id </text>
<text text-anchor="start" x="199.5918" y="-1068.4" font-family="Arial" font-size="14.00" fill="#666666">[int(11)]</text>
<polygon fill="none" stroke="#000000" points="93,-1027 93,-1057 575,-1057 575,-1027 93,-1027"/>
<text text-anchor="start" x="100" y="-1038.4" font-family="Arial" font-size="14.00" fill="#000000">created_on </text>
<text text-anchor="start" x="173.92" y="-1038.4" font-family="Arial" font-size="14.00" fill="#666666">[timestamp]</text>
<polygon fill="none" stroke="#000000" points="93,-997 93,-1027 575,-1027 575,-997 93,-997"/>
<text text-anchor="start" x="100" y="-1008.4" font-family="Arial" font-size="14.00" fill="#000000">updated_on </text>
<text text-anchor="start" x="177.8246" y="-1008.4" font-family="Arial" font-size="14.00" fill="#666666">[timestamp]</text>
<polygon fill="none" stroke="#000000" points="93,-967 93,-997 575,-997 575,-967 93,-967"/>
<text text-anchor="start" x="100" y="-978.4" font-family="Arial" font-size="14.00" fill="#000000">type </text>
<text text-anchor="start" x="130.3464" y="-978.4" font-family="Arial" font-size="14.00" fill="#666666">[varchar(255)]</text>
<text text-anchor="start" x="217.4656" y="-978.4" font-family="Arial" font-size="14.00" fill="#000000"> User:ユーザー Group:グループ </text>
<polygon fill="none" stroke="#000000" points="93,-937 93,-967 575,-967 575,-937 93,-937"/>
<text text-anchor="start" x="100" y="-948.4" font-family="Arial" font-size="14.00" fill="#000000">mail_notification </text>
<text text-anchor="start" x="204.2342" y="-948.4" font-family="Arial" font-size="14.00" fill="#666666">[varchar(255)]</text>
<text text-anchor="start" x="291.3534" y="-948.4" font-family="Arial" font-size="14.00" fill="#000000"> メール通知</text>
<polygon fill="none" stroke="#000000" points="93,-907 93,-937 575,-937 575,-907 93,-907"/>
<text text-anchor="start" x="100" y="-918.4" font-family="Arial" font-size="14.00" fill="#000000">salt </text>
<text text-anchor="start" x="125.6704" y="-918.4" font-family="Arial" font-size="14.00" fill="#666666">[varchar(64)]</text>
<polygon fill="none" stroke="#000000" points="93,-877 93,-907 575,-907 575,-877 93,-877"/>
<text text-anchor="start" x="99.7646" y="-888.4" font-family="Arial" font-size="14.00" fill="#000000">must_change_passwd </text>
<text text-anchor="start" x="242.9216" y="-888.4" font-family="Arial" font-size="14.00" fill="#666666">[tinyint(1)]</text>
<text text-anchor="start" x="304.3662" y="-888.4" font-family="Arial" font-size="14.00" fill="#000000"> 次回ログイン時にパスワード変更を強制</text>
<polygon fill="none" stroke="#000000" points="93,-847 93,-877 575,-877 575,-847 93,-847"/>
<text text-anchor="start" x="100" y="-858.4" font-family="Arial" font-size="14.00" fill="#000000">passwd_changed_on </text>
<text text-anchor="start" x="236.171" y="-858.4" font-family="Arial" font-size="14.00" fill="#666666">[datetime]</text>
<polygon fill="none" stroke="#000000" points="93,-817 93,-847 575,-847 575,-817 93,-817"/>
<text text-anchor="start" x="100" y="-828.4" font-family="Arial" font-size="14.00" fill="#000000">twofa_scheme </text>
<text text-anchor="start" x="194.1346" y="-828.4" font-family="Arial" font-size="14.00" fill="#666666">[varchar(255)]</text>
<polygon fill="none" stroke="#000000" points="93,-787 93,-817 575,-817 575,-787 93,-787"/>
<text text-anchor="start" x="100" y="-798.4" font-family="Arial" font-size="14.00" fill="#000000">twofa_totp_key </text>
<text text-anchor="start" x="198.0378" y="-798.4" font-family="Arial" font-size="14.00" fill="#666666">[varchar(255)]</text>
<polygon fill="none" stroke="#000000" points="93,-757 93,-787 575,-787 575,-757 93,-757"/>
<text text-anchor="start" x="100" y="-768.4" font-family="Arial" font-size="14.00" fill="#000000">twofa_totp_last_used_at </text>
<text text-anchor="start" x="255.6212" y="-768.4" font-family="Arial" font-size="14.00" fill="#666666">[int(11)]</text>
<polygon fill="none" stroke="#000000" points="93,-727 93,-757 575,-757 575,-727 93,-727"/>
<text text-anchor="start" x="100" y="-738.4" font-family="Arial" font-size="14.00" fill="#000000">twofa_required </text>
<text text-anchor="start" x="196.467" y="-738.4" font-family="Arial" font-size="14.00" fill="#666666">[tinyint(1)]</text>
</g>
<!-- users&#45;&gt;auth_sources -->
<g id="edge1" class="edge">
<title>users:auth_source_id&#45;&gt;auth_sources:id</title>
<path fill="none" stroke="#000000" stroke-dasharray="5,2" d="M82.9635,-1070.4051C9.1607,-1045.8595 37.5953,-745.3779 93,-684 145.5392,-625.7966 391.4608,-706.2034 444,-648 475.8653,-612.6993 491.5556,-541 444,-541"/>
<polygon fill="#000000" stroke="#000000" points="83.1239,-1070.4305 92.2937,-1076.4442 88.062,-1071.2153 93,-1072 93,-1072 93,-1072 88.062,-1071.2153 93.7063,-1067.5558 83.1239,-1070.4305 83.1239,-1070.4305"/>
<text text-anchor="start" x="7.268" y="-1082" font-family="Arial" font-size="10.00" fill="#000000">Detected Relation</text>
</g>
</g>
</svg>
