<?xml version="1.0" encoding="UTF-8" standalone="no"?>
<!DOCTYPE svg PUBLIC "-//W3C//DTD SVG 1.1//EN"
 "http://www.w3.org/Graphics/SVG/1.1/DTD/svg11.dtd">
<!-- Generated by graphviz version 2.40.1 (20161225.0304)
 -->
<!-- Title: auth_sources Pages: 1 -->
<svg width="321pt" height="645pt"
 viewBox="0.00 0.00 321.00 645.00" xmlns="http://www.w3.org/2000/svg" xmlns:xlink="http://www.w3.org/1999/xlink">
<g id="graph0" class="graph" transform="scale(1 1) rotate(0) translate(4 641)">
<title>auth_sources</title>
<polygon fill="#ffffff" stroke="transparent" points="-4,4 -4,-641 317,-641 317,4 -4,4"/>
<!-- auth_sources -->
<g id="node1" class="node">
<title>auth_sources</title>
<polygon fill="#efefef" stroke="transparent" points="46.5,-555.5 46.5,-590.5 267.5,-590.5 267.5,-555.5 46.5,-555.5"/>
<polygon fill="none" stroke="#000000" points="46.5,-555.5 46.5,-590.5 267.5,-590.5 267.5,-555.5 46.5,-555.5"/>
<text text-anchor="start" x="54.3542" y="-568.3" font-family="Arial Bold" font-size="18.00" fill="#000000">auth_sources</text>
<text text-anchor="start" x="162.392" y="-568.3" font-family="Arial" font-size="14.00" fill="#000000"> </text>
<text text-anchor="start" x="166.2826" y="-568.3" font-family="Arial" font-size="14.00" fill="#666666">[BASE TABLE]</text>
<polygon fill="none" stroke="#000000" points="46.5,-525.5 46.5,-555.5 267.5,-555.5 267.5,-525.5 46.5,-525.5"/>
<text text-anchor="start" x="53.5" y="-536.9" font-family="Arial" font-size="14.00" fill="#000000">id </text>
<text text-anchor="start" x="68.2798" y="-536.9" font-family="Arial" font-size="14.00" fill="#666666">[int(11)]</text>
<polygon fill="none" stroke="#000000" points="46.5,-495.5 46.5,-525.5 267.5,-525.5 267.5,-495.5 46.5,-495.5"/>
<text text-anchor="start" x="53.5" y="-506.9" font-family="Arial" font-size="14.00" fill="#000000">type </text>
<text text-anchor="start" x="83.8464" y="-506.9" font-family="Arial" font-size="14.00" fill="#666666">[varchar(30)]</text>
<polygon fill="none" stroke="#000000" points="46.5,-465.5 46.5,-495.5 267.5,-495.5 267.5,-465.5 46.5,-465.5"/>
<text text-anchor="start" x="53.5" y="-476.9" font-family="Arial" font-size="14.00" fill="#000000">name </text>
<text text-anchor="start" x="92.399" y="-476.9" font-family="Arial" font-size="14.00" fill="#666666">[varchar(60)]</text>
<polygon fill="none" stroke="#000000" points="46.5,-435.5 46.5,-465.5 267.5,-465.5 267.5,-435.5 46.5,-435.5"/>
<text text-anchor="start" x="53.5" y="-446.9" font-family="Arial" font-size="14.00" fill="#000000">host </text>
<text text-anchor="start" x="83.8464" y="-446.9" font-family="Arial" font-size="14.00" fill="#666666">[varchar(60)]</text>
<polygon fill="none" stroke="#000000" points="46.5,-405.5 46.5,-435.5 267.5,-435.5 267.5,-405.5 46.5,-405.5"/>
<text text-anchor="start" x="53.5" y="-416.9" font-family="Arial" font-size="14.00" fill="#000000">port </text>
<text text-anchor="start" x="81.507" y="-416.9" font-family="Arial" font-size="14.00" fill="#666666">[int(11)]</text>
<polygon fill="none" stroke="#000000" points="46.5,-375.5 46.5,-405.5 267.5,-405.5 267.5,-375.5 46.5,-375.5"/>
<text text-anchor="start" x="53.5" y="-386.9" font-family="Arial" font-size="14.00" fill="#000000">account </text>
<text text-anchor="start" x="106.4116" y="-386.9" font-family="Arial" font-size="14.00" fill="#666666">[varchar(255)]</text>
<polygon fill="none" stroke="#000000" points="46.5,-345.5 46.5,-375.5 267.5,-375.5 267.5,-345.5 46.5,-345.5"/>
<text text-anchor="start" x="53.1445" y="-356.9" font-family="Arial" font-size="14.00" fill="#000000">account_password </text>
<text text-anchor="start" x="173.7363" y="-356.9" font-family="Arial" font-size="14.00" fill="#666666">[varchar(255)]</text>
<polygon fill="none" stroke="#000000" points="46.5,-315.5 46.5,-345.5 267.5,-345.5 267.5,-315.5 46.5,-315.5"/>
<text text-anchor="start" x="53.5" y="-326.9" font-family="Arial" font-size="14.00" fill="#000000">base_dn </text>
<text text-anchor="start" x="111.0862" y="-326.9" font-family="Arial" font-size="14.00" fill="#666666">[varchar(255)]</text>
<polygon fill="none" stroke="#000000" points="46.5,-285.5 46.5,-315.5 267.5,-315.5 267.5,-285.5 46.5,-285.5"/>
<text text-anchor="start" x="53.5" y="-296.9" font-family="Arial" font-size="14.00" fill="#000000">attr_login </text>
<text text-anchor="start" x="114.9586" y="-296.9" font-family="Arial" font-size="14.00" fill="#666666">[varchar(30)]</text>
<polygon fill="none" stroke="#000000" points="46.5,-255.5 46.5,-285.5 267.5,-285.5 267.5,-255.5 46.5,-255.5"/>
<text text-anchor="start" x="53.5" y="-266.9" font-family="Arial" font-size="14.00" fill="#000000">attr_firstname </text>
<text text-anchor="start" x="142.9544" y="-266.9" font-family="Arial" font-size="14.00" fill="#666666">[varchar(30)]</text>
<polygon fill="none" stroke="#000000" points="46.5,-225.5 46.5,-255.5 267.5,-255.5 267.5,-225.5 46.5,-225.5"/>
<text text-anchor="start" x="53.5" y="-236.9" font-family="Arial" font-size="14.00" fill="#000000">attr_lastname </text>
<text text-anchor="start" x="142.1858" y="-236.9" font-family="Arial" font-size="14.00" fill="#666666">[varchar(30)]</text>
<polygon fill="none" stroke="#000000" points="46.5,-195.5 46.5,-225.5 267.5,-225.5 267.5,-195.5 46.5,-195.5"/>
<text text-anchor="start" x="53.5" y="-206.9" font-family="Arial" font-size="14.00" fill="#000000">attr_mail </text>
<text text-anchor="start" x="111.054" y="-206.9" font-family="Arial" font-size="14.00" fill="#666666">[varchar(30)]</text>
<polygon fill="none" stroke="#000000" points="46.5,-165.5 46.5,-195.5 267.5,-195.5 267.5,-165.5 46.5,-165.5"/>
<text text-anchor="start" x="53.5" y="-176.9" font-family="Arial" font-size="14.00" fill="#000000">onthefly_register </text>
<text text-anchor="start" x="160.8576" y="-176.9" font-family="Arial" font-size="14.00" fill="#666666">[tinyint(1)]</text>
<polygon fill="none" stroke="#000000" points="46.5,-135.5 46.5,-165.5 267.5,-165.5 267.5,-135.5 46.5,-135.5"/>
<text text-anchor="start" x="53.5" y="-146.9" font-family="Arial" font-size="14.00" fill="#000000">tls </text>
<text text-anchor="start" x="71.3878" y="-146.9" font-family="Arial" font-size="14.00" fill="#666666">[tinyint(1)]</text>
<polygon fill="none" stroke="#000000" points="46.5,-105.5 46.5,-135.5 267.5,-135.5 267.5,-105.5 46.5,-105.5"/>
<text text-anchor="start" x="53.5" y="-116.9" font-family="Arial" font-size="14.00" fill="#000000">filter </text>
<text text-anchor="start" x="83.8282" y="-116.9" font-family="Arial" font-size="14.00" fill="#666666">[text]</text>
<polygon fill="none" stroke="#000000" points="46.5,-75.5 46.5,-105.5 267.5,-105.5 267.5,-75.5 46.5,-75.5"/>
<text text-anchor="start" x="53.5" y="-86.9" font-family="Arial" font-size="14.00" fill="#000000">timeout </text>
<text text-anchor="start" x="103.2868" y="-86.9" font-family="Arial" font-size="14.00" fill="#666666">[int(11)]</text>
<polygon fill="none" stroke="#000000" points="46.5,-45.5 46.5,-75.5 267.5,-75.5 267.5,-45.5 46.5,-45.5"/>
<text text-anchor="start" x="53.5" y="-56.9" font-family="Arial" font-size="14.00" fill="#000000">verify_peer </text>
<text text-anchor="start" x="126.622" y="-56.9" font-family="Arial" font-size="14.00" fill="#666666">[tinyint(1)]</text>
<polygon fill="none" stroke="#000000" stroke-width="3" points="44.5,-44.5 44.5,-592.5 268.5,-592.5 268.5,-44.5 44.5,-44.5"/>
</g>
</g>
</svg>
