<?xml version="1.0" encoding="UTF-8" standalone="no"?>
<!DOCTYPE svg PUBLIC "-//W3C//DTD SVG 1.1//EN"
 "http://www.w3.org/Graphics/SVG/1.1/DTD/svg11.dtd">
<!-- Generated by graphviz version 2.40.1 (20161225.0304)
 -->
<!-- Title: changesets Pages: 1 -->
<svg width="1213pt" height="1622pt"
 viewBox="0.00 0.00 1212.50 1622.00" xmlns="http://www.w3.org/2000/svg" xmlns:xlink="http://www.w3.org/1999/xlink">
<g id="graph0" class="graph" transform="scale(1 1) rotate(0) translate(4 1618)">
<title>changesets</title>
<polygon fill="#ffffff" stroke="transparent" points="-4,4 -4,-1618 1208.5,-1618 1208.5,4 -4,4"/>
<!-- changesets -->
<g id="node1" class="node">
<title>changesets</title>
<polygon fill="#efefef" stroke="transparent" points="266,-1114 266,-1160 469,-1160 469,-1114 266,-1114"/>
<polygon fill="none" stroke="#000000" points="266,-1114 266,-1160 469,-1160 469,-1114 266,-1114"/>
<text text-anchor="start" x="272.8534" y="-1137.8" font-family="Arial Bold" font-size="18.00" fill="#000000">changesets</text>
<text text-anchor="start" x="364.8928" y="-1137.8" font-family="Arial" font-size="14.00" fill="#000000"> </text>
<text text-anchor="start" x="368.7834" y="-1137.8" font-family="Arial" font-size="14.00" fill="#666666">[BASE TABLE]</text>
<text text-anchor="start" x="284.1685" y="-1123.4" font-family="Arial" font-size="14.00" fill="#333333">チェンジセット(コミット)</text>
<polygon fill="none" stroke="#000000" points="266,-1084 266,-1114 469,-1114 469,-1084 266,-1084"/>
<text text-anchor="start" x="273" y="-1095.4" font-family="Arial" font-size="14.00" fill="#000000">id </text>
<text text-anchor="start" x="287.7798" y="-1095.4" font-family="Arial" font-size="14.00" fill="#666666">[int(11)]</text>
<polygon fill="none" stroke="#000000" points="266,-1054 266,-1084 469,-1084 469,-1054 266,-1054"/>
<text text-anchor="start" x="273" y="-1065.4" font-family="Arial" font-size="14.00" fill="#000000">repository_id </text>
<text text-anchor="start" x="357.0112" y="-1065.4" font-family="Arial" font-size="14.00" fill="#666666">[int(11)]</text>
<polygon fill="none" stroke="#000000" points="266,-1024 266,-1054 469,-1054 469,-1024 266,-1024"/>
<text text-anchor="start" x="273" y="-1035.4" font-family="Arial" font-size="14.00" fill="#000000">revision </text>
<text text-anchor="start" x="325.1122" y="-1035.4" font-family="Arial" font-size="14.00" fill="#666666">[varchar(255)]</text>
<polygon fill="none" stroke="#000000" points="266,-994 266,-1024 469,-1024 469,-994 266,-994"/>
<text text-anchor="start" x="273" y="-1005.4" font-family="Arial" font-size="14.00" fill="#000000">committer </text>
<text text-anchor="start" x="338.3254" y="-1005.4" font-family="Arial" font-size="14.00" fill="#666666">[varchar(255)]</text>
<polygon fill="none" stroke="#000000" points="266,-964 266,-994 469,-994 469,-964 266,-964"/>
<text text-anchor="start" x="273" y="-975.4" font-family="Arial" font-size="14.00" fill="#000000">committed_on </text>
<text text-anchor="start" x="364.7952" y="-975.4" font-family="Arial" font-size="14.00" fill="#666666">[datetime]</text>
<polygon fill="none" stroke="#000000" points="266,-934 266,-964 469,-964 469,-934 266,-934"/>
<text text-anchor="start" x="273" y="-945.4" font-family="Arial" font-size="14.00" fill="#000000">comments </text>
<text text-anchor="start" x="341.4502" y="-945.4" font-family="Arial" font-size="14.00" fill="#666666">[longtext]</text>
<polygon fill="none" stroke="#000000" points="266,-904 266,-934 469,-934 469,-904 266,-904"/>
<text text-anchor="start" x="273" y="-915.4" font-family="Arial" font-size="14.00" fill="#000000">commit_date </text>
<text text-anchor="start" x="357.0126" y="-915.4" font-family="Arial" font-size="14.00" fill="#666666">[date]</text>
<polygon fill="none" stroke="#000000" points="266,-874 266,-904 469,-904 469,-874 266,-874"/>
<text text-anchor="start" x="273" y="-885.4" font-family="Arial" font-size="14.00" fill="#000000">scmid </text>
<text text-anchor="start" x="313.4404" y="-885.4" font-family="Arial" font-size="14.00" fill="#666666">[varchar(255)]</text>
<polygon fill="none" stroke="#000000" points="266,-844 266,-874 469,-874 469,-844 266,-844"/>
<text text-anchor="start" x="273" y="-855.4" font-family="Arial" font-size="14.00" fill="#000000">user_id </text>
<text text-anchor="start" x="322.7882" y="-855.4" font-family="Arial" font-size="14.00" fill="#666666">[int(11)]</text>
<polygon fill="none" stroke="#000000" stroke-width="3" points="264,-842.5 264,-1161.5 470,-1161.5 470,-842.5 264,-842.5"/>
</g>
<!-- repositories -->
<g id="node5" class="node">
<title>repositories</title>
<polygon fill="#efefef" stroke="transparent" points="43,-553 43,-599 247,-599 247,-553 43,-553"/>
<polygon fill="none" stroke="#000000" points="43,-553 43,-599 247,-599 247,-553 43,-553"/>
<text text-anchor="start" x="49.8701" y="-576.8" font-family="Arial Bold" font-size="18.00" fill="#000000">repositories</text>
<text text-anchor="start" x="142.8761" y="-576.8" font-family="Arial" font-size="14.00" fill="#000000"> </text>
<text text-anchor="start" x="146.7667" y="-576.8" font-family="Arial" font-size="14.00" fill="#666666">[BASE TABLE]</text>
<text text-anchor="start" x="112.2225" y="-562.4" font-family="Arial" font-size="14.00" fill="#333333">リポジトリ</text>
<polygon fill="none" stroke="#000000" points="43,-523 43,-553 247,-553 247,-523 43,-523"/>
<text text-anchor="start" x="50" y="-534.4" font-family="Arial" font-size="14.00" fill="#000000">id </text>
<text text-anchor="start" x="64.7798" y="-534.4" font-family="Arial" font-size="14.00" fill="#666666">[int(11)]</text>
<polygon fill="none" stroke="#000000" points="43,-493 43,-523 247,-523 247,-493 43,-493"/>
<text text-anchor="start" x="50" y="-504.4" font-family="Arial" font-size="14.00" fill="#000000">project_id </text>
<text text-anchor="start" x="114.568" y="-504.4" font-family="Arial" font-size="14.00" fill="#666666">[int(11)]</text>
<polygon fill="none" stroke="#000000" points="43,-463 43,-493 247,-493 247,-463 43,-463"/>
<text text-anchor="start" x="50" y="-474.4" font-family="Arial" font-size="14.00" fill="#000000">url </text>
<text text-anchor="start" x="69.4404" y="-474.4" font-family="Arial" font-size="14.00" fill="#666666">[varchar(255)]</text>
<polygon fill="none" stroke="#000000" points="43,-433 43,-463 247,-463 247,-433 43,-433"/>
<text text-anchor="start" x="50" y="-444.4" font-family="Arial" font-size="14.00" fill="#000000">login </text>
<text text-anchor="start" x="83.4516" y="-444.4" font-family="Arial" font-size="14.00" fill="#666666">[varchar(60)]</text>
<polygon fill="none" stroke="#000000" points="43,-403 43,-433 247,-433 247,-403 43,-403"/>
<text text-anchor="start" x="50" y="-414.4" font-family="Arial" font-size="14.00" fill="#000000">password </text>
<text text-anchor="start" x="113.7882" y="-414.4" font-family="Arial" font-size="14.00" fill="#666666">[varchar(255)]</text>
<polygon fill="none" stroke="#000000" points="43,-373 43,-403 247,-403 247,-373 43,-373"/>
<text text-anchor="start" x="50" y="-384.4" font-family="Arial" font-size="14.00" fill="#000000">root_url </text>
<text text-anchor="start" x="101.3394" y="-384.4" font-family="Arial" font-size="14.00" fill="#666666">[varchar(255)]</text>
<polygon fill="none" stroke="#000000" points="43,-343 43,-373 247,-373 247,-343 43,-343"/>
<text text-anchor="start" x="50" y="-354.4" font-family="Arial" font-size="14.00" fill="#000000">type </text>
<text text-anchor="start" x="80.3464" y="-354.4" font-family="Arial" font-size="14.00" fill="#666666">[varchar(255)]</text>
<polygon fill="none" stroke="#000000" points="43,-313 43,-343 247,-343 247,-313 43,-313"/>
<text text-anchor="start" x="50" y="-324.4" font-family="Arial" font-size="14.00" fill="#000000">path_encoding </text>
<text text-anchor="start" x="145.7138" y="-324.4" font-family="Arial" font-size="14.00" fill="#666666">[varchar(64)]</text>
<polygon fill="none" stroke="#000000" points="43,-283 43,-313 247,-313 247,-283 43,-283"/>
<text text-anchor="start" x="50" y="-294.4" font-family="Arial" font-size="14.00" fill="#000000">log_encoding </text>
<text text-anchor="start" x="137.1472" y="-294.4" font-family="Arial" font-size="14.00" fill="#666666">[varchar(64)]</text>
<polygon fill="none" stroke="#000000" points="43,-253 43,-283 247,-283 247,-253 43,-253"/>
<text text-anchor="start" x="50" y="-264.4" font-family="Arial" font-size="14.00" fill="#000000">extra_info </text>
<text text-anchor="start" x="115.352" y="-264.4" font-family="Arial" font-size="14.00" fill="#666666">[longtext]</text>
<polygon fill="none" stroke="#000000" points="43,-223 43,-253 247,-253 247,-223 43,-223"/>
<text text-anchor="start" x="50" y="-234.4" font-family="Arial" font-size="14.00" fill="#000000">identifier </text>
<text text-anchor="start" x="106.7826" y="-234.4" font-family="Arial" font-size="14.00" fill="#666666">[varchar(255)]</text>
<polygon fill="none" stroke="#000000" points="43,-193 43,-223 247,-223 247,-193 43,-193"/>
<text text-anchor="start" x="50" y="-204.4" font-family="Arial" font-size="14.00" fill="#000000">is_default </text>
<text text-anchor="start" x="113.798" y="-204.4" font-family="Arial" font-size="14.00" fill="#666666">[tinyint(1)]</text>
<polygon fill="none" stroke="#000000" points="43,-163 43,-193 247,-193 247,-163 43,-163"/>
<text text-anchor="start" x="50" y="-174.4" font-family="Arial" font-size="14.00" fill="#000000">created_on </text>
<text text-anchor="start" x="123.92" y="-174.4" font-family="Arial" font-size="14.00" fill="#666666">[timestamp]</text>
</g>
<!-- changesets&#45;&gt;repositories -->
<g id="edge7" class="edge">
<title>changesets:repository_id&#45;&gt;repositories:id</title>
<path fill="none" stroke="#000000" stroke-dasharray="5,2" d="M255.8921,-1067.4767C161.1691,-1036.3311 361.3857,-538 247,-538"/>
<polygon fill="#000000" stroke="#000000" points="256.1117,-1067.5098 265.3294,-1073.4498 261.0558,-1068.2549 266,-1069 266,-1069 266,-1069 261.0558,-1068.2549 266.6706,-1064.5502 256.1117,-1067.5098 256.1117,-1067.5098"/>
<text text-anchor="start" x="180.268" y="-1079" font-family="Arial" font-size="10.00" fill="#000000">Detected Relation</text>
</g>
<!-- users -->
<g id="node6" class="node">
<title>users</title>
<polygon fill="#efefef" stroke="transparent" points="351,-673 351,-719 833,-719 833,-673 351,-673"/>
<polygon fill="none" stroke="#000000" points="351,-673 351,-719 833,-719 833,-673 351,-673"/>
<text text-anchor="start" x="521.3708" y="-696.8" font-family="Arial Bold" font-size="18.00" fill="#000000">users</text>
<text text-anchor="start" x="565.3754" y="-696.8" font-family="Arial" font-size="14.00" fill="#000000"> </text>
<text text-anchor="start" x="569.266" y="-696.8" font-family="Arial" font-size="14.00" fill="#666666">[BASE TABLE]</text>
<text text-anchor="start" x="513.4558" y="-682.4" font-family="Arial" font-size="14.00" fill="#333333">ユーザー / グループ</text>
<polygon fill="none" stroke="#000000" points="351,-643 351,-673 833,-673 833,-643 351,-643"/>
<text text-anchor="start" x="358" y="-654.4" font-family="Arial" font-size="14.00" fill="#000000">id </text>
<text text-anchor="start" x="372.7798" y="-654.4" font-family="Arial" font-size="14.00" fill="#666666">[int(11)]</text>
<polygon fill="none" stroke="#000000" points="351,-613 351,-643 833,-643 833,-613 351,-613"/>
<text text-anchor="start" x="358" y="-624.4" font-family="Arial" font-size="14.00" fill="#000000">login </text>
<text text-anchor="start" x="391.4516" y="-624.4" font-family="Arial" font-size="14.00" fill="#666666">[varchar(255)]</text>
<text text-anchor="start" x="478.5708" y="-624.4" font-family="Arial" font-size="14.00" fill="#000000"> ログインID</text>
<polygon fill="none" stroke="#000000" points="351,-583 351,-613 833,-613 833,-583 351,-583"/>
<text text-anchor="start" x="358" y="-594.4" font-family="Arial" font-size="14.00" fill="#000000">hashed_password </text>
<text text-anchor="start" x="475.4838" y="-594.4" font-family="Arial" font-size="14.00" fill="#666666">[varchar(40)]</text>
<text text-anchor="start" x="554.8204" y="-594.4" font-family="Arial" font-size="14.00" fill="#000000"> パスワード(ハッシュ化済み)</text>
<polygon fill="none" stroke="#000000" points="351,-553 351,-583 833,-583 833,-553 351,-553"/>
<text text-anchor="start" x="358" y="-564.4" font-family="Arial" font-size="14.00" fill="#000000">firstname </text>
<text text-anchor="start" x="419.4474" y="-564.4" font-family="Arial" font-size="14.00" fill="#666666">[varchar(30)]</text>
<text text-anchor="start" x="498.784" y="-564.4" font-family="Arial" font-size="14.00" fill="#000000"> 名</text>
<polygon fill="none" stroke="#000000" points="351,-523 351,-553 833,-553 833,-523 351,-523"/>
<text text-anchor="start" x="358" y="-534.4" font-family="Arial" font-size="14.00" fill="#000000">lastname </text>
<text text-anchor="start" x="418.6788" y="-534.4" font-family="Arial" font-size="14.00" fill="#666666">[varchar(255)]</text>
<text text-anchor="start" x="505.798" y="-534.4" font-family="Arial" font-size="14.00" fill="#000000"> 姓</text>
<polygon fill="none" stroke="#000000" points="351,-493 351,-523 833,-523 833,-493 351,-493"/>
<text text-anchor="start" x="358" y="-504.4" font-family="Arial" font-size="14.00" fill="#000000">admin </text>
<text text-anchor="start" x="400.0056" y="-504.4" font-family="Arial" font-size="14.00" fill="#666666">[tinyint(1)]</text>
<text text-anchor="start" x="461.4502" y="-504.4" font-family="Arial" font-size="14.00" fill="#000000"> システム管理者</text>
<polygon fill="none" stroke="#000000" points="351,-463 351,-493 833,-493 833,-463 351,-463"/>
<text text-anchor="start" x="358" y="-474.4" font-family="Arial" font-size="14.00" fill="#000000">status </text>
<text text-anchor="start" x="399.237" y="-474.4" font-family="Arial" font-size="14.00" fill="#666666">[int(11)]</text>
<polygon fill="none" stroke="#000000" points="351,-433 351,-463 833,-463 833,-433 351,-433"/>
<text text-anchor="start" x="358" y="-444.4" font-family="Arial" font-size="14.00" fill="#000000">last_login_on </text>
<text text-anchor="start" x="444.3618" y="-444.4" font-family="Arial" font-size="14.00" fill="#666666">[datetime]</text>
<polygon fill="none" stroke="#000000" points="351,-403 351,-433 833,-433 833,-403 351,-403"/>
<text text-anchor="start" x="358" y="-414.4" font-family="Arial" font-size="14.00" fill="#000000">language </text>
<text text-anchor="start" x="419.4754" y="-414.4" font-family="Arial" font-size="14.00" fill="#666666">[varchar(5)]</text>
<text text-anchor="start" x="491.0294" y="-414.4" font-family="Arial" font-size="14.00" fill="#000000"> 言語</text>
<polygon fill="none" stroke="#000000" points="351,-373 351,-403 833,-403 833,-373 351,-373"/>
<text text-anchor="start" x="358" y="-384.4" font-family="Arial" font-size="14.00" fill="#000000">auth_source_id </text>
<text text-anchor="start" x="457.5918" y="-384.4" font-family="Arial" font-size="14.00" fill="#666666">[int(11)]</text>
<polygon fill="none" stroke="#000000" points="351,-343 351,-373 833,-373 833,-343 351,-343"/>
<text text-anchor="start" x="358" y="-354.4" font-family="Arial" font-size="14.00" fill="#000000">created_on </text>
<text text-anchor="start" x="431.92" y="-354.4" font-family="Arial" font-size="14.00" fill="#666666">[timestamp]</text>
<polygon fill="none" stroke="#000000" points="351,-313 351,-343 833,-343 833,-313 351,-313"/>
<text text-anchor="start" x="358" y="-324.4" font-family="Arial" font-size="14.00" fill="#000000">updated_on </text>
<text text-anchor="start" x="435.8246" y="-324.4" font-family="Arial" font-size="14.00" fill="#666666">[timestamp]</text>
<polygon fill="none" stroke="#000000" points="351,-283 351,-313 833,-313 833,-283 351,-283"/>
<text text-anchor="start" x="358" y="-294.4" font-family="Arial" font-size="14.00" fill="#000000">type </text>
<text text-anchor="start" x="388.3464" y="-294.4" font-family="Arial" font-size="14.00" fill="#666666">[varchar(255)]</text>
<text text-anchor="start" x="475.4656" y="-294.4" font-family="Arial" font-size="14.00" fill="#000000"> User:ユーザー Group:グループ </text>
<polygon fill="none" stroke="#000000" points="351,-253 351,-283 833,-283 833,-253 351,-253"/>
<text text-anchor="start" x="358" y="-264.4" font-family="Arial" font-size="14.00" fill="#000000">mail_notification </text>
<text text-anchor="start" x="462.2342" y="-264.4" font-family="Arial" font-size="14.00" fill="#666666">[varchar(255)]</text>
<text text-anchor="start" x="549.3534" y="-264.4" font-family="Arial" font-size="14.00" fill="#000000"> メール通知</text>
<polygon fill="none" stroke="#000000" points="351,-223 351,-253 833,-253 833,-223 351,-223"/>
<text text-anchor="start" x="358" y="-234.4" font-family="Arial" font-size="14.00" fill="#000000">salt </text>
<text text-anchor="start" x="383.6704" y="-234.4" font-family="Arial" font-size="14.00" fill="#666666">[varchar(64)]</text>
<polygon fill="none" stroke="#000000" points="351,-193 351,-223 833,-223 833,-193 351,-193"/>
<text text-anchor="start" x="357.7646" y="-204.4" font-family="Arial" font-size="14.00" fill="#000000">must_change_passwd </text>
<text text-anchor="start" x="500.9216" y="-204.4" font-family="Arial" font-size="14.00" fill="#666666">[tinyint(1)]</text>
<text text-anchor="start" x="562.3662" y="-204.4" font-family="Arial" font-size="14.00" fill="#000000"> 次回ログイン時にパスワード変更を強制</text>
<polygon fill="none" stroke="#000000" points="351,-163 351,-193 833,-193 833,-163 351,-163"/>
<text text-anchor="start" x="358" y="-174.4" font-family="Arial" font-size="14.00" fill="#000000">passwd_changed_on </text>
<text text-anchor="start" x="494.171" y="-174.4" font-family="Arial" font-size="14.00" fill="#666666">[datetime]</text>
<polygon fill="none" stroke="#000000" points="351,-133 351,-163 833,-163 833,-133 351,-133"/>
<text text-anchor="start" x="358" y="-144.4" font-family="Arial" font-size="14.00" fill="#000000">twofa_scheme </text>
<text text-anchor="start" x="452.1346" y="-144.4" font-family="Arial" font-size="14.00" fill="#666666">[varchar(255)]</text>
<polygon fill="none" stroke="#000000" points="351,-103 351,-133 833,-133 833,-103 351,-103"/>
<text text-anchor="start" x="358" y="-114.4" font-family="Arial" font-size="14.00" fill="#000000">twofa_totp_key </text>
<text text-anchor="start" x="456.0378" y="-114.4" font-family="Arial" font-size="14.00" fill="#666666">[varchar(255)]</text>
<polygon fill="none" stroke="#000000" points="351,-73 351,-103 833,-103 833,-73 351,-73"/>
<text text-anchor="start" x="358" y="-84.4" font-family="Arial" font-size="14.00" fill="#000000">twofa_totp_last_used_at </text>
<text text-anchor="start" x="513.6212" y="-84.4" font-family="Arial" font-size="14.00" fill="#666666">[int(11)]</text>
<polygon fill="none" stroke="#000000" points="351,-43 351,-73 833,-73 833,-43 351,-43"/>
<text text-anchor="start" x="358" y="-54.4" font-family="Arial" font-size="14.00" fill="#000000">twofa_required </text>
<text text-anchor="start" x="454.467" y="-54.4" font-family="Arial" font-size="14.00" fill="#666666">[tinyint(1)]</text>
</g>
<!-- changesets&#45;&gt;users -->
<g id="edge8" class="edge">
<title>changesets:user_id&#45;&gt;users:id</title>
<path fill="none" stroke="#000000" stroke-dasharray="5,2" d="M479.0442,-856.3441C492.5545,-847.1718 482.612,-816.3842 469,-798 436.3724,-753.9335 383.6276,-806.0665 351,-762 323.495,-724.8521 304.7778,-658 351,-658"/>
<polygon fill="#000000" stroke="#000000" points="478.6677,-856.4436 467.8496,-854.6495 473.8339,-857.7218 469,-859 469,-859 469,-859 473.8339,-857.7218 470.1504,-863.3505 478.6677,-856.4436 478.6677,-856.4436"/>
<text text-anchor="start" x="476.268" y="-869" font-family="Arial" font-size="10.00" fill="#000000">Detected Relation</text>
</g>
<!-- changeset_parents -->
<g id="node2" class="node">
<title>changeset_parents</title>
<polygon fill="#efefef" stroke="transparent" points="236,-1435 236,-1481 500,-1481 500,-1435 236,-1435"/>
<polygon fill="none" stroke="#000000" points="236,-1435 236,-1481 500,-1481 500,-1435 236,-1435"/>
<text text-anchor="start" x="242.8407" y="-1458.8" font-family="Arial Bold" font-size="18.00" fill="#000000">changeset_parents</text>
<text text-anchor="start" x="395.9055" y="-1458.8" font-family="Arial" font-size="14.00" fill="#000000"> </text>
<text text-anchor="start" x="399.7961" y="-1458.8" font-family="Arial" font-size="14.00" fill="#666666">[BASE TABLE]</text>
<text text-anchor="start" x="260.5535" y="-1444.4" font-family="Arial" font-size="14.00" fill="#333333">チェンジセット⇔チェンジセット</text>
<polygon fill="none" stroke="#000000" points="236,-1405 236,-1435 500,-1435 500,-1405 236,-1405"/>
<text text-anchor="start" x="243" y="-1416.4" font-family="Arial" font-size="14.00" fill="#000000">changeset_id </text>
<text text-anchor="start" x="330.1486" y="-1416.4" font-family="Arial" font-size="14.00" fill="#666666">[int(11)]</text>
<polygon fill="none" stroke="#000000" points="236,-1375 236,-1405 500,-1405 500,-1375 236,-1375"/>
<text text-anchor="start" x="243" y="-1386.4" font-family="Arial" font-size="14.00" fill="#000000">parent_id </text>
<text text-anchor="start" x="305.244" y="-1386.4" font-family="Arial" font-size="14.00" fill="#666666">[int(11)]</text>
</g>
<!-- changeset_parents&#45;&gt;changesets -->
<g id="edge1" class="edge">
<title>changeset_parents:changeset_id&#45;&gt;changesets:id</title>
<path fill="none" stroke="#000000" stroke-dasharray="5,2" d="M225.8242,-1418.3953C200.7753,-1409.1637 218.0083,-1362.1834 236,-1332 296.2786,-1230.8751 408.7214,-1307.1249 469,-1206 493.3493,-1165.151 516.5556,-1099 469,-1099"/>
<polygon fill="#000000" stroke="#000000" points="226.1221,-1418.4421 235.299,-1424.4451 231.061,-1419.2211 236,-1420 236,-1420 236,-1420 231.061,-1419.2211 236.701,-1415.5549 226.1221,-1418.4421 226.1221,-1418.4421"/>
<text text-anchor="start" x="146.3245" y="-1430" font-family="Arial" font-size="10.00" fill="#000000">Additional Relation</text>
</g>
<!-- changeset_parents&#45;&gt;changesets -->
<g id="edge2" class="edge">
<title>changeset_parents:parent_id&#45;&gt;changesets:id</title>
<path fill="none" stroke="#000000" stroke-dasharray="5,2" d="M368.3831,-1364.6768C374.2836,-1287.5846 446.6711,-1286.8882 469,-1206 481.6542,-1160.159 516.5556,-1099 469,-1099"/>
<polygon fill="#000000" stroke="#000000" points="368.3709,-1365.0069 363.5031,-1374.8331 368.1855,-1370.0034 368,-1375 368,-1375 368,-1375 368.1855,-1370.0034 372.4969,-1375.1669 368.3709,-1365.0069 368.3709,-1365.0069"/>
<text text-anchor="start" x="351.0745" y="-1359" font-family="Arial" font-size="10.00" fill="#000000">Additional Relation</text>
</g>
<!-- changeset_parents&#45;&gt;changesets -->
<g id="edge3" class="edge">
<title>changeset_parents:changeset_id&#45;&gt;changesets:id</title>
<path fill="none" stroke="#000000" stroke-dasharray="5,2" d="M225.8242,-1418.3953C200.7753,-1409.1637 218.0083,-1362.1834 236,-1332 296.2786,-1230.8751 408.7214,-1307.1249 469,-1206 493.3493,-1165.151 516.5556,-1099 469,-1099"/>
<polygon fill="#000000" stroke="#000000" points="226.1221,-1418.4421 235.299,-1424.4451 231.061,-1419.2211 236,-1420 236,-1420 236,-1420 231.061,-1419.2211 236.701,-1415.5549 226.1221,-1418.4421 226.1221,-1418.4421"/>
<text text-anchor="start" x="146.3245" y="-1404" font-family="Arial" font-size="10.00" fill="#000000">Additional Relation</text>
</g>
<!-- changeset_parents&#45;&gt;changesets -->
<g id="edge4" class="edge">
<title>changeset_parents:parent_id&#45;&gt;changesets:id</title>
<path fill="none" stroke="#000000" stroke-dasharray="5,2" d="M368.3831,-1364.6768C374.2836,-1287.5846 446.6711,-1286.8882 469,-1206 481.6542,-1160.159 516.5556,-1099 469,-1099"/>
<polygon fill="#000000" stroke="#000000" points="368.3709,-1365.0069 363.5031,-1374.8331 368.1855,-1370.0034 368,-1375 368,-1375 368,-1375 368.1855,-1370.0034 372.4969,-1375.1669 368.3709,-1365.0069 368.3709,-1365.0069"/>
<text text-anchor="start" x="278.3245" y="-1385" font-family="Arial" font-size="10.00" fill="#000000">Additional Relation</text>
</g>
<!-- changesets_issues -->
<g id="node3" class="node">
<title>changesets_issues</title>
<polygon fill="#efefef" stroke="transparent" points="604,-1435 604,-1481 868,-1481 868,-1435 604,-1435"/>
<polygon fill="none" stroke="#000000" points="604,-1435 604,-1481 868,-1481 868,-1435 604,-1435"/>
<text text-anchor="start" x="610.847" y="-1458.8" font-family="Arial Bold" font-size="18.00" fill="#000000">changesets_issues</text>
<text text-anchor="start" x="763.8992" y="-1458.8" font-family="Arial" font-size="14.00" fill="#000000"> </text>
<text text-anchor="start" x="767.7898" y="-1458.8" font-family="Arial" font-size="14.00" fill="#666666">[BASE TABLE]</text>
<text text-anchor="start" x="651.4932" y="-1444.4" font-family="Arial" font-size="14.00" fill="#333333">チェンジセット⇔チケット</text>
<polygon fill="none" stroke="#000000" points="604,-1405 604,-1435 868,-1435 868,-1405 604,-1405"/>
<text text-anchor="start" x="611" y="-1416.4" font-family="Arial" font-size="14.00" fill="#000000">changeset_id </text>
<text text-anchor="start" x="698.1486" y="-1416.4" font-family="Arial" font-size="14.00" fill="#666666">[int(11)]</text>
<polygon fill="none" stroke="#000000" points="604,-1375 604,-1405 868,-1405 868,-1375 604,-1375"/>
<text text-anchor="start" x="611" y="-1386.4" font-family="Arial" font-size="14.00" fill="#000000">issue_id </text>
<text text-anchor="start" x="666.2342" y="-1386.4" font-family="Arial" font-size="14.00" fill="#666666">[int(11)]</text>
</g>
<!-- changesets_issues&#45;&gt;changesets -->
<g id="edge5" class="edge">
<title>changesets_issues:changeset_id&#45;&gt;changesets:id</title>
<path fill="none" stroke="#000000" stroke-dasharray="5,2" d="M593.7508,-1419.3926C527.0406,-1410.8668 583.0198,-1314.3456 552,-1242 523.0412,-1174.4612 542.4854,-1099 469,-1099"/>
<polygon fill="#000000" stroke="#000000" points="594.0175,-1419.4084 603.7338,-1424.4921 599.0088,-1419.7042 604,-1420 604,-1420 604,-1420 599.0088,-1419.7042 604.2662,-1415.5079 594.0175,-1419.4084 594.0175,-1419.4084"/>
<text text-anchor="start" x="514.3245" y="-1430" font-family="Arial" font-size="10.00" fill="#000000">Additional Relation</text>
</g>
<!-- changes -->
<g id="node4" class="node">
<title>changes</title>
<polygon fill="#efefef" stroke="transparent" points="973,-1525 973,-1571 1162,-1571 1162,-1525 973,-1525"/>
<polygon fill="none" stroke="#000000" points="973,-1525 973,-1571 1162,-1571 1162,-1525 973,-1525"/>
<text text-anchor="start" x="984.8576" y="-1548.8" font-family="Arial Bold" font-size="18.00" fill="#000000">changes</text>
<text text-anchor="start" x="1052.8886" y="-1548.8" font-family="Arial" font-size="14.00" fill="#000000"> </text>
<text text-anchor="start" x="1056.7792" y="-1548.8" font-family="Arial" font-size="14.00" fill="#666666">[BASE TABLE]</text>
<text text-anchor="start" x="995.0486" y="-1534.4" font-family="Arial" font-size="14.00" fill="#333333">チェンジセットの内容</text>
<polygon fill="none" stroke="#000000" points="973,-1495 973,-1525 1162,-1525 1162,-1495 973,-1495"/>
<text text-anchor="start" x="980" y="-1506.4" font-family="Arial" font-size="14.00" fill="#000000">id </text>
<text text-anchor="start" x="994.7798" y="-1506.4" font-family="Arial" font-size="14.00" fill="#666666">[int(11)]</text>
<polygon fill="none" stroke="#000000" points="973,-1465 973,-1495 1162,-1495 1162,-1465 973,-1465"/>
<text text-anchor="start" x="980" y="-1476.4" font-family="Arial" font-size="14.00" fill="#000000">changeset_id </text>
<text text-anchor="start" x="1067.1486" y="-1476.4" font-family="Arial" font-size="14.00" fill="#666666">[int(11)]</text>
<polygon fill="none" stroke="#000000" points="973,-1435 973,-1465 1162,-1465 1162,-1435 973,-1435"/>
<text text-anchor="start" x="980" y="-1446.4" font-family="Arial" font-size="14.00" fill="#000000">action </text>
<text text-anchor="start" x="1021.2356" y="-1446.4" font-family="Arial" font-size="14.00" fill="#666666">[varchar(1)]</text>
<polygon fill="none" stroke="#000000" points="973,-1405 973,-1435 1162,-1435 1162,-1405 973,-1405"/>
<text text-anchor="start" x="980" y="-1416.4" font-family="Arial" font-size="14.00" fill="#000000">path </text>
<text text-anchor="start" x="1011.129" y="-1416.4" font-family="Arial" font-size="14.00" fill="#666666">[text]</text>
<polygon fill="none" stroke="#000000" points="973,-1375 973,-1405 1162,-1405 1162,-1375 973,-1375"/>
<text text-anchor="start" x="980" y="-1386.4" font-family="Arial" font-size="14.00" fill="#000000">from_path </text>
<text text-anchor="start" x="1046.906" y="-1386.4" font-family="Arial" font-size="14.00" fill="#666666">[text]</text>
<polygon fill="none" stroke="#000000" points="973,-1345 973,-1375 1162,-1375 1162,-1345 973,-1345"/>
<text text-anchor="start" x="979.9958" y="-1356.4" font-family="Arial" font-size="14.00" fill="#000000">from_revision </text>
<text text-anchor="start" x="1067.885" y="-1356.4" font-family="Arial" font-size="14.00" fill="#666666">[varchar(255)]</text>
<polygon fill="none" stroke="#000000" points="973,-1315 973,-1345 1162,-1345 1162,-1315 973,-1315"/>
<text text-anchor="start" x="980" y="-1326.4" font-family="Arial" font-size="14.00" fill="#000000">revision </text>
<text text-anchor="start" x="1032.1122" y="-1326.4" font-family="Arial" font-size="14.00" fill="#666666">[varchar(255)]</text>
<polygon fill="none" stroke="#000000" points="973,-1285 973,-1315 1162,-1315 1162,-1285 973,-1285"/>
<text text-anchor="start" x="980" y="-1296.4" font-family="Arial" font-size="14.00" fill="#000000">branch </text>
<text text-anchor="start" x="1026.6816" y="-1296.4" font-family="Arial" font-size="14.00" fill="#666666">[varchar(255)]</text>
</g>
<!-- changes&#45;&gt;changesets -->
<g id="edge6" class="edge">
<title>changes:changeset_id&#45;&gt;changesets:id</title>
<path fill="none" stroke="#000000" stroke-dasharray="5,2" d="M962.973,-1479.4858C872.9456,-1469.5888 990.7563,-1319.2686 920,-1242 848.9946,-1164.4594 574.1395,-1099 469,-1099"/>
<polygon fill="#000000" stroke="#000000" points="963.0131,-1479.4878 972.7695,-1484.4941 968.0066,-1479.7439 973,-1480 973,-1480 973,-1480 968.0066,-1479.7439 973.2305,-1475.5059 963.0131,-1479.4878 963.0131,-1479.4878"/>
<text text-anchor="start" x="883.3245" y="-1490" font-family="Arial" font-size="10.00" fill="#000000">Additional Relation</text>
</g>
</g>
</svg>
