<?xml version="1.0" encoding="UTF-8" standalone="no"?>
<!DOCTYPE svg PUBLIC "-//W3C//DTD SVG 1.1//EN"
 "http://www.w3.org/Graphics/SVG/1.1/DTD/svg11.dtd">
<!-- Generated by graphviz version 2.40.1 (20161225.0304)
 -->
<!-- Title: changes Pages: 1 -->
<svg width="344pt" height="824pt"
 viewBox="0.00 0.00 343.50 824.00" xmlns="http://www.w3.org/2000/svg" xmlns:xlink="http://www.w3.org/1999/xlink">
<g id="graph0" class="graph" transform="scale(1 1) rotate(0) translate(4 820)">
<title>changes</title>
<polygon fill="#ffffff" stroke="transparent" points="-4,4 -4,-820 339.5,-820 339.5,4 -4,4"/>
<!-- changes -->
<g id="node1" class="node">
<title>changes</title>
<polygon fill="#efefef" stroke="transparent" points="97,-724 97,-770 286,-770 286,-724 97,-724"/>
<polygon fill="none" stroke="#000000" points="97,-724 97,-770 286,-770 286,-724 97,-724"/>
<text text-anchor="start" x="108.8576" y="-747.8" font-family="Arial Bold" font-size="18.00" fill="#000000">changes</text>
<text text-anchor="start" x="176.8886" y="-747.8" font-family="Arial" font-size="14.00" fill="#000000"> </text>
<text text-anchor="start" x="180.7792" y="-747.8" font-family="Arial" font-size="14.00" fill="#666666">[BASE TABLE]</text>
<text text-anchor="start" x="119.0486" y="-733.4" font-family="Arial" font-size="14.00" fill="#333333">チェンジセットの内容</text>
<polygon fill="none" stroke="#000000" points="97,-694 97,-724 286,-724 286,-694 97,-694"/>
<text text-anchor="start" x="104" y="-705.4" font-family="Arial" font-size="14.00" fill="#000000">id </text>
<text text-anchor="start" x="118.7798" y="-705.4" font-family="Arial" font-size="14.00" fill="#666666">[int(11)]</text>
<polygon fill="none" stroke="#000000" points="97,-664 97,-694 286,-694 286,-664 97,-664"/>
<text text-anchor="start" x="104" y="-675.4" font-family="Arial" font-size="14.00" fill="#000000">changeset_id </text>
<text text-anchor="start" x="191.1486" y="-675.4" font-family="Arial" font-size="14.00" fill="#666666">[int(11)]</text>
<polygon fill="none" stroke="#000000" points="97,-634 97,-664 286,-664 286,-634 97,-634"/>
<text text-anchor="start" x="104" y="-645.4" font-family="Arial" font-size="14.00" fill="#000000">action </text>
<text text-anchor="start" x="145.2356" y="-645.4" font-family="Arial" font-size="14.00" fill="#666666">[varchar(1)]</text>
<polygon fill="none" stroke="#000000" points="97,-604 97,-634 286,-634 286,-604 97,-604"/>
<text text-anchor="start" x="104" y="-615.4" font-family="Arial" font-size="14.00" fill="#000000">path </text>
<text text-anchor="start" x="135.129" y="-615.4" font-family="Arial" font-size="14.00" fill="#666666">[text]</text>
<polygon fill="none" stroke="#000000" points="97,-574 97,-604 286,-604 286,-574 97,-574"/>
<text text-anchor="start" x="104" y="-585.4" font-family="Arial" font-size="14.00" fill="#000000">from_path </text>
<text text-anchor="start" x="170.906" y="-585.4" font-family="Arial" font-size="14.00" fill="#666666">[text]</text>
<polygon fill="none" stroke="#000000" points="97,-544 97,-574 286,-574 286,-544 97,-544"/>
<text text-anchor="start" x="103.9958" y="-555.4" font-family="Arial" font-size="14.00" fill="#000000">from_revision </text>
<text text-anchor="start" x="191.885" y="-555.4" font-family="Arial" font-size="14.00" fill="#666666">[varchar(255)]</text>
<polygon fill="none" stroke="#000000" points="97,-514 97,-544 286,-544 286,-514 97,-514"/>
<text text-anchor="start" x="104" y="-525.4" font-family="Arial" font-size="14.00" fill="#000000">revision </text>
<text text-anchor="start" x="156.1122" y="-525.4" font-family="Arial" font-size="14.00" fill="#666666">[varchar(255)]</text>
<polygon fill="none" stroke="#000000" points="97,-484 97,-514 286,-514 286,-484 97,-484"/>
<text text-anchor="start" x="104" y="-495.4" font-family="Arial" font-size="14.00" fill="#000000">branch </text>
<text text-anchor="start" x="150.6816" y="-495.4" font-family="Arial" font-size="14.00" fill="#666666">[varchar(255)]</text>
<polygon fill="none" stroke="#000000" stroke-width="3" points="95,-482.5 95,-771.5 287,-771.5 287,-482.5 95,-482.5"/>
</g>
<!-- changesets -->
<g id="node2" class="node">
<title>changesets</title>
<polygon fill="#efefef" stroke="transparent" points="90,-313 90,-359 293,-359 293,-313 90,-313"/>
<polygon fill="none" stroke="#000000" points="90,-313 90,-359 293,-359 293,-313 90,-313"/>
<text text-anchor="start" x="96.8534" y="-336.8" font-family="Arial Bold" font-size="18.00" fill="#000000">changesets</text>
<text text-anchor="start" x="188.8928" y="-336.8" font-family="Arial" font-size="14.00" fill="#000000"> </text>
<text text-anchor="start" x="192.7834" y="-336.8" font-family="Arial" font-size="14.00" fill="#666666">[BASE TABLE]</text>
<text text-anchor="start" x="108.1685" y="-322.4" font-family="Arial" font-size="14.00" fill="#333333">チェンジセット(コミット)</text>
<polygon fill="none" stroke="#000000" points="90,-283 90,-313 293,-313 293,-283 90,-283"/>
<text text-anchor="start" x="97" y="-294.4" font-family="Arial" font-size="14.00" fill="#000000">id </text>
<text text-anchor="start" x="111.7798" y="-294.4" font-family="Arial" font-size="14.00" fill="#666666">[int(11)]</text>
<polygon fill="none" stroke="#000000" points="90,-253 90,-283 293,-283 293,-253 90,-253"/>
<text text-anchor="start" x="97" y="-264.4" font-family="Arial" font-size="14.00" fill="#000000">repository_id </text>
<text text-anchor="start" x="181.0112" y="-264.4" font-family="Arial" font-size="14.00" fill="#666666">[int(11)]</text>
<polygon fill="none" stroke="#000000" points="90,-223 90,-253 293,-253 293,-223 90,-223"/>
<text text-anchor="start" x="97" y="-234.4" font-family="Arial" font-size="14.00" fill="#000000">revision </text>
<text text-anchor="start" x="149.1122" y="-234.4" font-family="Arial" font-size="14.00" fill="#666666">[varchar(255)]</text>
<polygon fill="none" stroke="#000000" points="90,-193 90,-223 293,-223 293,-193 90,-193"/>
<text text-anchor="start" x="97" y="-204.4" font-family="Arial" font-size="14.00" fill="#000000">committer </text>
<text text-anchor="start" x="162.3254" y="-204.4" font-family="Arial" font-size="14.00" fill="#666666">[varchar(255)]</text>
<polygon fill="none" stroke="#000000" points="90,-163 90,-193 293,-193 293,-163 90,-163"/>
<text text-anchor="start" x="97" y="-174.4" font-family="Arial" font-size="14.00" fill="#000000">committed_on </text>
<text text-anchor="start" x="188.7952" y="-174.4" font-family="Arial" font-size="14.00" fill="#666666">[datetime]</text>
<polygon fill="none" stroke="#000000" points="90,-133 90,-163 293,-163 293,-133 90,-133"/>
<text text-anchor="start" x="97" y="-144.4" font-family="Arial" font-size="14.00" fill="#000000">comments </text>
<text text-anchor="start" x="165.4502" y="-144.4" font-family="Arial" font-size="14.00" fill="#666666">[longtext]</text>
<polygon fill="none" stroke="#000000" points="90,-103 90,-133 293,-133 293,-103 90,-103"/>
<text text-anchor="start" x="97" y="-114.4" font-family="Arial" font-size="14.00" fill="#000000">commit_date </text>
<text text-anchor="start" x="181.0126" y="-114.4" font-family="Arial" font-size="14.00" fill="#666666">[date]</text>
<polygon fill="none" stroke="#000000" points="90,-73 90,-103 293,-103 293,-73 90,-73"/>
<text text-anchor="start" x="97" y="-84.4" font-family="Arial" font-size="14.00" fill="#000000">scmid </text>
<text text-anchor="start" x="137.4404" y="-84.4" font-family="Arial" font-size="14.00" fill="#666666">[varchar(255)]</text>
<polygon fill="none" stroke="#000000" points="90,-43 90,-73 293,-73 293,-43 90,-43"/>
<text text-anchor="start" x="97" y="-54.4" font-family="Arial" font-size="14.00" fill="#000000">user_id </text>
<text text-anchor="start" x="146.7882" y="-54.4" font-family="Arial" font-size="14.00" fill="#666666">[int(11)]</text>
</g>
<!-- changes&#45;&gt;changesets -->
<g id="edge1" class="edge">
<title>changes:changeset_id&#45;&gt;changesets:id</title>
<path fill="none" stroke="#000000" stroke-dasharray="5,2" d="M86.9733,-677.1297C11.8991,-648.387 8.7923,-298 90,-298"/>
<polygon fill="#000000" stroke="#000000" points="87.1696,-677.1663 96.1748,-683.4237 92.0848,-678.0831 97,-679 97,-679 97,-679 92.0848,-678.0831 97.8252,-674.5763 87.1696,-677.1663 87.1696,-677.1663"/>
<text text-anchor="start" x="7.3245" y="-689" font-family="Arial" font-size="10.00" fill="#000000">Additional Relation</text>
</g>
</g>
</svg>
