<?xml version="1.0" encoding="UTF-8" standalone="no"?>
<!DOCTYPE svg PUBLIC "-//W3C//DTD SVG 1.1//EN"
 "http://www.w3.org/Graphics/SVG/1.1/DTD/svg11.dtd">
<!-- Generated by graphviz version 2.40.1 (20161225.0304)
 -->
<!-- Title: changesets_issues Pages: 1 -->
<svg width="702pt" height="1094pt"
 viewBox="0.00 0.00 702.00 1094.00" xmlns="http://www.w3.org/2000/svg" xmlns:xlink="http://www.w3.org/1999/xlink">
<g id="graph0" class="graph" transform="scale(1 1) rotate(0) translate(4 1090)">
<title>changesets_issues</title>
<polygon fill="#ffffff" stroke="transparent" points="-4,4 -4,-1090 698,-1090 698,4 -4,4"/>
<!-- changesets_issues -->
<g id="node1" class="node">
<title>changesets_issues</title>
<polygon fill="#efefef" stroke="transparent" points="191.5,-994 191.5,-1040 455.5,-1040 455.5,-994 191.5,-994"/>
<polygon fill="none" stroke="#000000" points="191.5,-994 191.5,-1040 455.5,-1040 455.5,-994 191.5,-994"/>
<text text-anchor="start" x="198.347" y="-1017.8" font-family="Arial Bold" font-size="18.00" fill="#000000">changesets_issues</text>
<text text-anchor="start" x="351.3992" y="-1017.8" font-family="Arial" font-size="14.00" fill="#000000"> </text>
<text text-anchor="start" x="355.2898" y="-1017.8" font-family="Arial" font-size="14.00" fill="#666666">[BASE TABLE]</text>
<text text-anchor="start" x="238.9932" y="-1003.4" font-family="Arial" font-size="14.00" fill="#333333">チェンジセット⇔チケット</text>
<polygon fill="none" stroke="#000000" points="191.5,-964 191.5,-994 455.5,-994 455.5,-964 191.5,-964"/>
<text text-anchor="start" x="198.5" y="-975.4" font-family="Arial" font-size="14.00" fill="#000000">changeset_id </text>
<text text-anchor="start" x="285.6486" y="-975.4" font-family="Arial" font-size="14.00" fill="#666666">[int(11)]</text>
<polygon fill="none" stroke="#000000" points="191.5,-934 191.5,-964 455.5,-964 455.5,-934 191.5,-934"/>
<text text-anchor="start" x="198.5" y="-945.4" font-family="Arial" font-size="14.00" fill="#000000">issue_id </text>
<text text-anchor="start" x="253.7342" y="-945.4" font-family="Arial" font-size="14.00" fill="#666666">[int(11)]</text>
<polygon fill="none" stroke="#000000" stroke-width="3" points="190,-932.5 190,-1041.5 457,-1041.5 457,-932.5 190,-932.5"/>
</g>
<!-- changesets -->
<g id="node2" class="node">
<title>changesets</title>
<polygon fill="#efefef" stroke="transparent" points="43.5,-538 43.5,-584 246.5,-584 246.5,-538 43.5,-538"/>
<polygon fill="none" stroke="#000000" points="43.5,-538 43.5,-584 246.5,-584 246.5,-538 43.5,-538"/>
<text text-anchor="start" x="50.3534" y="-561.8" font-family="Arial Bold" font-size="18.00" fill="#000000">changesets</text>
<text text-anchor="start" x="142.3928" y="-561.8" font-family="Arial" font-size="14.00" fill="#000000"> </text>
<text text-anchor="start" x="146.2834" y="-561.8" font-family="Arial" font-size="14.00" fill="#666666">[BASE TABLE]</text>
<text text-anchor="start" x="61.6685" y="-547.4" font-family="Arial" font-size="14.00" fill="#333333">チェンジセット(コミット)</text>
<polygon fill="none" stroke="#000000" points="43.5,-508 43.5,-538 246.5,-538 246.5,-508 43.5,-508"/>
<text text-anchor="start" x="50.5" y="-519.4" font-family="Arial" font-size="14.00" fill="#000000">id </text>
<text text-anchor="start" x="65.2798" y="-519.4" font-family="Arial" font-size="14.00" fill="#666666">[int(11)]</text>
<polygon fill="none" stroke="#000000" points="43.5,-478 43.5,-508 246.5,-508 246.5,-478 43.5,-478"/>
<text text-anchor="start" x="50.5" y="-489.4" font-family="Arial" font-size="14.00" fill="#000000">repository_id </text>
<text text-anchor="start" x="134.5112" y="-489.4" font-family="Arial" font-size="14.00" fill="#666666">[int(11)]</text>
<polygon fill="none" stroke="#000000" points="43.5,-448 43.5,-478 246.5,-478 246.5,-448 43.5,-448"/>
<text text-anchor="start" x="50.5" y="-459.4" font-family="Arial" font-size="14.00" fill="#000000">revision </text>
<text text-anchor="start" x="102.6122" y="-459.4" font-family="Arial" font-size="14.00" fill="#666666">[varchar(255)]</text>
<polygon fill="none" stroke="#000000" points="43.5,-418 43.5,-448 246.5,-448 246.5,-418 43.5,-418"/>
<text text-anchor="start" x="50.5" y="-429.4" font-family="Arial" font-size="14.00" fill="#000000">committer </text>
<text text-anchor="start" x="115.8254" y="-429.4" font-family="Arial" font-size="14.00" fill="#666666">[varchar(255)]</text>
<polygon fill="none" stroke="#000000" points="43.5,-388 43.5,-418 246.5,-418 246.5,-388 43.5,-388"/>
<text text-anchor="start" x="50.5" y="-399.4" font-family="Arial" font-size="14.00" fill="#000000">committed_on </text>
<text text-anchor="start" x="142.2952" y="-399.4" font-family="Arial" font-size="14.00" fill="#666666">[datetime]</text>
<polygon fill="none" stroke="#000000" points="43.5,-358 43.5,-388 246.5,-388 246.5,-358 43.5,-358"/>
<text text-anchor="start" x="50.5" y="-369.4" font-family="Arial" font-size="14.00" fill="#000000">comments </text>
<text text-anchor="start" x="118.9502" y="-369.4" font-family="Arial" font-size="14.00" fill="#666666">[longtext]</text>
<polygon fill="none" stroke="#000000" points="43.5,-328 43.5,-358 246.5,-358 246.5,-328 43.5,-328"/>
<text text-anchor="start" x="50.5" y="-339.4" font-family="Arial" font-size="14.00" fill="#000000">commit_date </text>
<text text-anchor="start" x="134.5126" y="-339.4" font-family="Arial" font-size="14.00" fill="#666666">[date]</text>
<polygon fill="none" stroke="#000000" points="43.5,-298 43.5,-328 246.5,-328 246.5,-298 43.5,-298"/>
<text text-anchor="start" x="50.5" y="-309.4" font-family="Arial" font-size="14.00" fill="#000000">scmid </text>
<text text-anchor="start" x="90.9404" y="-309.4" font-family="Arial" font-size="14.00" fill="#666666">[varchar(255)]</text>
<polygon fill="none" stroke="#000000" points="43.5,-268 43.5,-298 246.5,-298 246.5,-268 43.5,-268"/>
<text text-anchor="start" x="50.5" y="-279.4" font-family="Arial" font-size="14.00" fill="#000000">user_id </text>
<text text-anchor="start" x="100.2882" y="-279.4" font-family="Arial" font-size="14.00" fill="#666666">[int(11)]</text>
</g>
<!-- changesets_issues&#45;&gt;changesets -->
<g id="edge1" class="edge">
<title>changesets_issues:changeset_id&#45;&gt;changesets:id</title>
<path fill="none" stroke="#000000" stroke-dasharray="5,2" d="M181.5923,-977.1627C108.1675,-945.7842 344.7801,-523 246.5,-523"/>
<polygon fill="#000000" stroke="#000000" points="181.6676,-977.1766 190.6795,-983.4246 186.5838,-978.0883 191.5,-979 191.5,-979 191.5,-979 186.5838,-978.0883 192.3205,-974.5754 181.6676,-977.1766 181.6676,-977.1766"/>
<text text-anchor="start" x="101.8245" y="-989" font-family="Arial" font-size="10.00" fill="#000000">Additional Relation</text>
</g>
<!-- issues -->
<g id="node3" class="node">
<title>issues</title>
<polygon fill="#efefef" stroke="transparent" points="350.5,-763 350.5,-809 651.5,-809 651.5,-763 350.5,-763"/>
<polygon fill="none" stroke="#000000" points="350.5,-763 350.5,-809 651.5,-809 651.5,-763 350.5,-763"/>
<text text-anchor="start" x="426.8698" y="-786.8" font-family="Arial Bold" font-size="18.00" fill="#000000">issues</text>
<text text-anchor="start" x="477.8764" y="-786.8" font-family="Arial" font-size="14.00" fill="#000000"> </text>
<text text-anchor="start" x="481.767" y="-786.8" font-family="Arial" font-size="14.00" fill="#666666">[BASE TABLE]</text>
<text text-anchor="start" x="473.1344" y="-772.4" font-family="Arial" font-size="14.00" fill="#333333">チケット</text>
<polygon fill="none" stroke="#000000" points="350.5,-733 350.5,-763 651.5,-763 651.5,-733 350.5,-733"/>
<text text-anchor="start" x="357.5" y="-744.4" font-family="Arial" font-size="14.00" fill="#000000">id </text>
<text text-anchor="start" x="372.2798" y="-744.4" font-family="Arial" font-size="14.00" fill="#666666">[int(11)]</text>
<polygon fill="none" stroke="#000000" points="350.5,-703 350.5,-733 651.5,-733 651.5,-703 350.5,-703"/>
<text text-anchor="start" x="357.5" y="-714.4" font-family="Arial" font-size="14.00" fill="#000000">tracker_id </text>
<text text-anchor="start" x="422.8394" y="-714.4" font-family="Arial" font-size="14.00" fill="#666666">[int(11)]</text>
<text text-anchor="start" x="470.2868" y="-714.4" font-family="Arial" font-size="14.00" fill="#000000"> トラッカーID</text>
<polygon fill="none" stroke="#000000" points="350.5,-673 350.5,-703 651.5,-703 651.5,-673 350.5,-673"/>
<text text-anchor="start" x="357.5" y="-684.4" font-family="Arial" font-size="14.00" fill="#000000">project_id </text>
<text text-anchor="start" x="422.068" y="-684.4" font-family="Arial" font-size="14.00" fill="#666666">[int(11)]</text>
<text text-anchor="start" x="469.5154" y="-684.4" font-family="Arial" font-size="14.00" fill="#000000"> プロジェクトID</text>
<polygon fill="none" stroke="#000000" points="350.5,-643 350.5,-673 651.5,-673 651.5,-643 350.5,-643"/>
<text text-anchor="start" x="357.5" y="-654.4" font-family="Arial" font-size="14.00" fill="#000000">subject </text>
<text text-anchor="start" x="405.7356" y="-654.4" font-family="Arial" font-size="14.00" fill="#666666">[varchar(255)]</text>
<text text-anchor="start" x="492.8548" y="-654.4" font-family="Arial" font-size="14.00" fill="#000000"> 題名</text>
<polygon fill="none" stroke="#000000" points="350.5,-613 350.5,-643 651.5,-643 651.5,-613 350.5,-613"/>
<text text-anchor="start" x="357.5" y="-624.4" font-family="Arial" font-size="14.00" fill="#000000">description </text>
<text text-anchor="start" x="429.068" y="-624.4" font-family="Arial" font-size="14.00" fill="#666666">[longtext]</text>
<text text-anchor="start" x="485.8674" y="-624.4" font-family="Arial" font-size="14.00" fill="#000000"> 説明</text>
<polygon fill="none" stroke="#000000" points="350.5,-583 350.5,-613 651.5,-613 651.5,-583 350.5,-583"/>
<text text-anchor="start" x="357.5" y="-594.4" font-family="Arial" font-size="14.00" fill="#000000">due_date </text>
<text text-anchor="start" x="419.7594" y="-594.4" font-family="Arial" font-size="14.00" fill="#666666">[date]</text>
<text text-anchor="start" x="454.779" y="-594.4" font-family="Arial" font-size="14.00" fill="#000000"> 期日</text>
<polygon fill="none" stroke="#000000" points="350.5,-553 350.5,-583 651.5,-583 651.5,-553 350.5,-553"/>
<text text-anchor="start" x="357.5" y="-564.4" font-family="Arial" font-size="14.00" fill="#000000">category_id </text>
<text text-anchor="start" x="433.744" y="-564.4" font-family="Arial" font-size="14.00" fill="#666666">[int(11)]</text>
<text text-anchor="start" x="481.1914" y="-564.4" font-family="Arial" font-size="14.00" fill="#000000"> カテゴリーID</text>
<polygon fill="none" stroke="#000000" points="350.5,-523 350.5,-553 651.5,-553 651.5,-523 350.5,-523"/>
<text text-anchor="start" x="357.5" y="-534.4" font-family="Arial" font-size="14.00" fill="#000000">status_id </text>
<text text-anchor="start" x="417.4088" y="-534.4" font-family="Arial" font-size="14.00" fill="#666666">[int(11)]</text>
<text text-anchor="start" x="464.8562" y="-534.4" font-family="Arial" font-size="14.00" fill="#000000"> ステータスID</text>
<polygon fill="none" stroke="#000000" points="350.5,-493 350.5,-523 651.5,-523 651.5,-493 350.5,-493"/>
<text text-anchor="start" x="357.5" y="-504.4" font-family="Arial" font-size="14.00" fill="#000000">assigned_to_id </text>
<text text-anchor="start" x="455.5378" y="-504.4" font-family="Arial" font-size="14.00" fill="#666666">[int(11)]</text>
<text text-anchor="start" x="502.9852" y="-504.4" font-family="Arial" font-size="14.00" fill="#000000"> 担当者ID</text>
<polygon fill="none" stroke="#000000" points="350.5,-463 350.5,-493 651.5,-493 651.5,-463 350.5,-463"/>
<text text-anchor="start" x="357.5" y="-474.4" font-family="Arial" font-size="14.00" fill="#000000">priority_id </text>
<text text-anchor="start" x="422.0526" y="-474.4" font-family="Arial" font-size="14.00" fill="#666666">[int(11)]</text>
<text text-anchor="start" x="469.5" y="-474.4" font-family="Arial" font-size="14.00" fill="#000000"> 優先度ID</text>
<polygon fill="none" stroke="#000000" points="350.5,-433 350.5,-463 651.5,-463 651.5,-433 350.5,-433"/>
<text text-anchor="start" x="357.3635" y="-444.4" font-family="Arial" font-size="14.00" fill="#000000">fixed_version_id </text>
<text text-anchor="start" x="462.3859" y="-444.4" font-family="Arial" font-size="14.00" fill="#666666">[int(11)]</text>
<text text-anchor="start" x="509.8333" y="-444.4" font-family="Arial" font-size="14.00" fill="#000000"> 対象バージョンID</text>
<polygon fill="none" stroke="#000000" points="350.5,-403 350.5,-433 651.5,-433 651.5,-403 350.5,-403"/>
<text text-anchor="start" x="357.5" y="-414.4" font-family="Arial" font-size="14.00" fill="#000000">author_id </text>
<text text-anchor="start" x="419.744" y="-414.4" font-family="Arial" font-size="14.00" fill="#666666">[int(11)]</text>
<text text-anchor="start" x="467.1914" y="-414.4" font-family="Arial" font-size="14.00" fill="#000000"> 登録者ID</text>
<polygon fill="none" stroke="#000000" points="350.5,-373 350.5,-403 651.5,-403 651.5,-373 350.5,-373"/>
<text text-anchor="start" x="357.5" y="-384.4" font-family="Arial" font-size="14.00" fill="#000000">lock_version </text>
<text text-anchor="start" x="439.1774" y="-384.4" font-family="Arial" font-size="14.00" fill="#666666">[int(11)]</text>
<text text-anchor="start" x="486.6248" y="-384.4" font-family="Arial" font-size="14.00" fill="#000000"> ロックバージョン</text>
<polygon fill="none" stroke="#000000" points="350.5,-343 350.5,-373 651.5,-373 651.5,-343 350.5,-343"/>
<text text-anchor="start" x="357.5" y="-354.4" font-family="Arial" font-size="14.00" fill="#000000">created_on </text>
<text text-anchor="start" x="431.42" y="-354.4" font-family="Arial" font-size="14.00" fill="#666666">[timestamp]</text>
<polygon fill="none" stroke="#000000" points="350.5,-313 350.5,-343 651.5,-343 651.5,-313 350.5,-313"/>
<text text-anchor="start" x="357.5" y="-324.4" font-family="Arial" font-size="14.00" fill="#000000">updated_on </text>
<text text-anchor="start" x="435.3246" y="-324.4" font-family="Arial" font-size="14.00" fill="#666666">[timestamp]</text>
<polygon fill="none" stroke="#000000" points="350.5,-283 350.5,-313 651.5,-313 651.5,-283 350.5,-283"/>
<text text-anchor="start" x="357.5" y="-294.4" font-family="Arial" font-size="14.00" fill="#000000">start_date </text>
<text text-anchor="start" x="423.636" y="-294.4" font-family="Arial" font-size="14.00" fill="#666666">[date]</text>
<text text-anchor="start" x="458.6556" y="-294.4" font-family="Arial" font-size="14.00" fill="#000000"> 開始日</text>
<polygon fill="none" stroke="#000000" points="350.5,-253 350.5,-283 651.5,-283 651.5,-253 350.5,-253"/>
<text text-anchor="start" x="357.5" y="-264.4" font-family="Arial" font-size="14.00" fill="#000000">done_ratio </text>
<text text-anchor="start" x="427.5266" y="-264.4" font-family="Arial" font-size="14.00" fill="#666666">[int(11)]</text>
<text text-anchor="start" x="474.974" y="-264.4" font-family="Arial" font-size="14.00" fill="#000000"> 進捗率</text>
<polygon fill="none" stroke="#000000" points="350.5,-223 350.5,-253 651.5,-253 651.5,-223 350.5,-223"/>
<text text-anchor="start" x="357.5" y="-234.4" font-family="Arial" font-size="14.00" fill="#000000">estimated_hours </text>
<text text-anchor="start" x="464.8604" y="-234.4" font-family="Arial" font-size="14.00" fill="#666666">[float]</text>
<text text-anchor="start" x="499.0946" y="-234.4" font-family="Arial" font-size="14.00" fill="#000000"> 予定工数</text>
<polygon fill="none" stroke="#000000" points="350.5,-193 350.5,-223 651.5,-223 651.5,-193 350.5,-193"/>
<text text-anchor="start" x="357.5" y="-204.4" font-family="Arial" font-size="14.00" fill="#000000">parent_id </text>
<text text-anchor="start" x="419.744" y="-204.4" font-family="Arial" font-size="14.00" fill="#666666">[int(11)]</text>
<text text-anchor="start" x="467.1914" y="-204.4" font-family="Arial" font-size="14.00" fill="#000000"> 親チケット</text>
<polygon fill="none" stroke="#000000" points="350.5,-163 350.5,-193 651.5,-193 651.5,-163 350.5,-163"/>
<text text-anchor="start" x="357.5" y="-174.4" font-family="Arial" font-size="14.00" fill="#000000">root_id </text>
<text text-anchor="start" x="404.1788" y="-174.4" font-family="Arial" font-size="14.00" fill="#666666">[int(11)]</text>
<text text-anchor="start" x="451.6262" y="-174.4" font-family="Arial" font-size="14.00" fill="#000000"> ルートID</text>
<polygon fill="none" stroke="#000000" points="350.5,-133 350.5,-163 651.5,-163 651.5,-133 350.5,-133"/>
<text text-anchor="start" x="357.5" y="-144.4" font-family="Arial" font-size="14.00" fill="#000000">lft </text>
<text text-anchor="start" x="372.2784" y="-144.4" font-family="Arial" font-size="14.00" fill="#666666">[int(11)]</text>
<text text-anchor="start" x="419.7258" y="-144.4" font-family="Arial" font-size="14.00" fill="#000000"> 左ノードポインタ</text>
<polygon fill="none" stroke="#000000" points="350.5,-103 350.5,-133 651.5,-133 651.5,-103 350.5,-103"/>
<text text-anchor="start" x="357.5" y="-114.4" font-family="Arial" font-size="14.00" fill="#000000">rgt </text>
<text text-anchor="start" x="377.7244" y="-114.4" font-family="Arial" font-size="14.00" fill="#666666">[int(11)]</text>
<text text-anchor="start" x="425.1718" y="-114.4" font-family="Arial" font-size="14.00" fill="#000000"> 右ノードポインタ</text>
<polygon fill="none" stroke="#000000" points="350.5,-73 350.5,-103 651.5,-103 651.5,-73 350.5,-73"/>
<text text-anchor="start" x="357.5" y="-84.4" font-family="Arial" font-size="14.00" fill="#000000">is_private </text>
<text text-anchor="start" x="421.2854" y="-84.4" font-family="Arial" font-size="14.00" fill="#666666">[tinyint(1)]</text>
<text text-anchor="start" x="482.73" y="-84.4" font-family="Arial" font-size="14.00" fill="#000000"> プライベート</text>
<polygon fill="none" stroke="#000000" points="350.5,-43 350.5,-73 651.5,-73 651.5,-43 350.5,-43"/>
<text text-anchor="start" x="357.5" y="-54.4" font-family="Arial" font-size="14.00" fill="#000000">closed_on </text>
<text text-anchor="start" x="425.1928" y="-54.4" font-family="Arial" font-size="14.00" fill="#666666">[datetime]</text>
<text text-anchor="start" x="486.6528" y="-54.4" font-family="Arial" font-size="14.00" fill="#000000"> 完了日時</text>
</g>
<!-- changesets_issues&#45;&gt;issues -->
<g id="edge2" class="edge">
<title>changesets_issues:issue_id&#45;&gt;issues:id</title>
<path fill="none" stroke="#000000" stroke-dasharray="5,2" d="M465.5211,-946.361C478.9557,-937.2437 468.7958,-906.6142 455.5,-888 426.8256,-847.8558 379.1744,-892.1442 350.5,-852 323.6339,-814.3874 304.2778,-748 350.5,-748"/>
<polygon fill="#000000" stroke="#000000" points="465.1703,-946.4533 454.354,-944.6484 460.3351,-947.7266 455.5,-949 455.5,-949 455.5,-949 460.3351,-947.7266 456.646,-953.3516 465.1703,-946.4533 465.1703,-946.4533"/>
<text text-anchor="start" x="462.8245" y="-959" font-family="Arial" font-size="10.00" fill="#000000">Additional Relation</text>
</g>
</g>
</svg>
