<?xml version="1.0" encoding="UTF-8" standalone="no"?>
<!DOCTYPE svg PUBLIC "-//W3C//DTD SVG 1.1//EN"
 "http://www.w3.org/Graphics/SVG/1.1/DTD/svg11.dtd">
<!-- Generated by graphviz version 2.40.1 (20161225.0304)
 -->
<!-- Title: changeset_parents Pages: 1 -->
<svg width="415pt" height="644pt"
 viewBox="0.00 0.00 415.37 644.00" xmlns="http://www.w3.org/2000/svg" xmlns:xlink="http://www.w3.org/1999/xlink">
<g id="graph0" class="graph" transform="scale(1 1) rotate(0) translate(4 640)">
<title>changeset_parents</title>
<polygon fill="#ffffff" stroke="transparent" points="-4,4 -4,-640 411.3664,-640 411.3664,4 -4,4"/>
<!-- changeset_parents -->
<g id="node1" class="node">
<title>changeset_parents</title>
<polygon fill="#efefef" stroke="transparent" points="97.3664,-544 97.3664,-590 361.3664,-590 361.3664,-544 97.3664,-544"/>
<polygon fill="none" stroke="#000000" points="97.3664,-544 97.3664,-590 361.3664,-590 361.3664,-544 97.3664,-544"/>
<text text-anchor="start" x="104.2071" y="-567.8" font-family="Arial Bold" font-size="18.00" fill="#000000">changeset_parents</text>
<text text-anchor="start" x="257.2719" y="-567.8" font-family="Arial" font-size="14.00" fill="#000000"> </text>
<text text-anchor="start" x="261.1625" y="-567.8" font-family="Arial" font-size="14.00" fill="#666666">[BASE TABLE]</text>
<text text-anchor="start" x="121.9199" y="-553.4" font-family="Arial" font-size="14.00" fill="#333333">チェンジセット⇔チェンジセット</text>
<polygon fill="none" stroke="#000000" points="97.3664,-514 97.3664,-544 361.3664,-544 361.3664,-514 97.3664,-514"/>
<text text-anchor="start" x="104.3664" y="-525.4" font-family="Arial" font-size="14.00" fill="#000000">changeset_id </text>
<text text-anchor="start" x="191.515" y="-525.4" font-family="Arial" font-size="14.00" fill="#666666">[int(11)]</text>
<polygon fill="none" stroke="#000000" points="97.3664,-484 97.3664,-514 361.3664,-514 361.3664,-484 97.3664,-484"/>
<text text-anchor="start" x="104.3664" y="-495.4" font-family="Arial" font-size="14.00" fill="#000000">parent_id </text>
<text text-anchor="start" x="166.6104" y="-495.4" font-family="Arial" font-size="14.00" fill="#666666">[int(11)]</text>
<polygon fill="none" stroke="#000000" stroke-width="3" points="95.8664,-482.5 95.8664,-591.5 362.8664,-591.5 362.8664,-482.5 95.8664,-482.5"/>
</g>
<!-- changesets -->
<g id="node2" class="node">
<title>changesets</title>
<polygon fill="#efefef" stroke="transparent" points="127.3664,-313 127.3664,-359 330.3664,-359 330.3664,-313 127.3664,-313"/>
<polygon fill="none" stroke="#000000" points="127.3664,-313 127.3664,-359 330.3664,-359 330.3664,-313 127.3664,-313"/>
<text text-anchor="start" x="134.2198" y="-336.8" font-family="Arial Bold" font-size="18.00" fill="#000000">changesets</text>
<text text-anchor="start" x="226.2592" y="-336.8" font-family="Arial" font-size="14.00" fill="#000000"> </text>
<text text-anchor="start" x="230.1498" y="-336.8" font-family="Arial" font-size="14.00" fill="#666666">[BASE TABLE]</text>
<text text-anchor="start" x="145.5349" y="-322.4" font-family="Arial" font-size="14.00" fill="#333333">チェンジセット(コミット)</text>
<polygon fill="none" stroke="#000000" points="127.3664,-283 127.3664,-313 330.3664,-313 330.3664,-283 127.3664,-283"/>
<text text-anchor="start" x="134.3664" y="-294.4" font-family="Arial" font-size="14.00" fill="#000000">id </text>
<text text-anchor="start" x="149.1462" y="-294.4" font-family="Arial" font-size="14.00" fill="#666666">[int(11)]</text>
<polygon fill="none" stroke="#000000" points="127.3664,-253 127.3664,-283 330.3664,-283 330.3664,-253 127.3664,-253"/>
<text text-anchor="start" x="134.3664" y="-264.4" font-family="Arial" font-size="14.00" fill="#000000">repository_id </text>
<text text-anchor="start" x="218.3776" y="-264.4" font-family="Arial" font-size="14.00" fill="#666666">[int(11)]</text>
<polygon fill="none" stroke="#000000" points="127.3664,-223 127.3664,-253 330.3664,-253 330.3664,-223 127.3664,-223"/>
<text text-anchor="start" x="134.3664" y="-234.4" font-family="Arial" font-size="14.00" fill="#000000">revision </text>
<text text-anchor="start" x="186.4786" y="-234.4" font-family="Arial" font-size="14.00" fill="#666666">[varchar(255)]</text>
<polygon fill="none" stroke="#000000" points="127.3664,-193 127.3664,-223 330.3664,-223 330.3664,-193 127.3664,-193"/>
<text text-anchor="start" x="134.3664" y="-204.4" font-family="Arial" font-size="14.00" fill="#000000">committer </text>
<text text-anchor="start" x="199.6918" y="-204.4" font-family="Arial" font-size="14.00" fill="#666666">[varchar(255)]</text>
<polygon fill="none" stroke="#000000" points="127.3664,-163 127.3664,-193 330.3664,-193 330.3664,-163 127.3664,-163"/>
<text text-anchor="start" x="134.3664" y="-174.4" font-family="Arial" font-size="14.00" fill="#000000">committed_on </text>
<text text-anchor="start" x="226.1616" y="-174.4" font-family="Arial" font-size="14.00" fill="#666666">[datetime]</text>
<polygon fill="none" stroke="#000000" points="127.3664,-133 127.3664,-163 330.3664,-163 330.3664,-133 127.3664,-133"/>
<text text-anchor="start" x="134.3664" y="-144.4" font-family="Arial" font-size="14.00" fill="#000000">comments </text>
<text text-anchor="start" x="202.8166" y="-144.4" font-family="Arial" font-size="14.00" fill="#666666">[longtext]</text>
<polygon fill="none" stroke="#000000" points="127.3664,-103 127.3664,-133 330.3664,-133 330.3664,-103 127.3664,-103"/>
<text text-anchor="start" x="134.3664" y="-114.4" font-family="Arial" font-size="14.00" fill="#000000">commit_date </text>
<text text-anchor="start" x="218.379" y="-114.4" font-family="Arial" font-size="14.00" fill="#666666">[date]</text>
<polygon fill="none" stroke="#000000" points="127.3664,-73 127.3664,-103 330.3664,-103 330.3664,-73 127.3664,-73"/>
<text text-anchor="start" x="134.3664" y="-84.4" font-family="Arial" font-size="14.00" fill="#000000">scmid </text>
<text text-anchor="start" x="174.8068" y="-84.4" font-family="Arial" font-size="14.00" fill="#666666">[varchar(255)]</text>
<polygon fill="none" stroke="#000000" points="127.3664,-43 127.3664,-73 330.3664,-73 330.3664,-43 127.3664,-43"/>
<text text-anchor="start" x="134.3664" y="-54.4" font-family="Arial" font-size="14.00" fill="#000000">user_id </text>
<text text-anchor="start" x="184.1546" y="-54.4" font-family="Arial" font-size="14.00" fill="#666666">[int(11)]</text>
</g>
<!-- changeset_parents&#45;&gt;changesets -->
<g id="edge1" class="edge">
<title>changeset_parents:changeset_id&#45;&gt;changesets:id</title>
<path fill="none" stroke="#000000" stroke-dasharray="5,2" d="M87.3867,-528.0403C50.0851,-520.2129 63.9955,-466.4256 88.3664,-438 156.5691,-358.4503 253.1638,-481.5497 321.3664,-402 351.4518,-366.9092 367.5886,-298 330.3664,-298"/>
<polygon fill="#000000" stroke="#000000" points="87.4123,-528.0427 96.9356,-533.4793 92.3894,-528.5214 97.3664,-529 97.3664,-529 97.3664,-529 92.3894,-528.5214 97.7972,-524.5207 87.4123,-528.0427 87.4123,-528.0427"/>
<text text-anchor="start" x="7.6909" y="-539" font-family="Arial" font-size="10.00" fill="#000000">Additional Relation</text>
</g>
<!-- changeset_parents&#45;&gt;changesets -->
<g id="edge2" class="edge">
<title>changeset_parents:changeset_id&#45;&gt;changesets:id</title>
<path fill="none" stroke="#000000" stroke-dasharray="5,2" d="M86.9696,-525.8716C69.9946,-513.1244 83.6271,-464.5225 106.3664,-438 174.5691,-358.4503 271.1638,-481.5497 339.3664,-402 369.393,-366.9778 385.5255,-298.269 330.6892,-298.0008"/>
<polygon fill="#000000" stroke="#000000" points="87.4528,-526.0221 95.6612,-533.2935 92.2264,-527.5097 97,-528.9972 97,-528.9972 97,-528.9972 92.2264,-527.5097 98.3388,-524.701 87.4528,-526.0221 87.4528,-526.0221"/>
<text text-anchor="start" x="7.3245" y="-512.9972" font-family="Arial" font-size="10.00" fill="#000000">Additional Relation</text>
</g>
<!-- changeset_parents&#45;&gt;changesets -->
<g id="edge3" class="edge">
<title>changeset_parents:parent_id&#45;&gt;changesets:id</title>
<path fill="none" stroke="#000000" stroke-dasharray="5,2" d="M228.6507,-473.8452C229.9684,-429.4587 298.1093,-450.839 321.3664,-402 341.2392,-360.2679 367.5886,-298 330.3664,-298"/>
<polygon fill="#000000" stroke="#000000" points="228.6633,-474.0247 224.8775,-484.3164 229.0148,-479.0124 229.3664,-484 229.3664,-484 229.3664,-484 229.0148,-479.0124 233.8553,-483.6836 228.6633,-474.0247 228.6633,-474.0247"/>
<text text-anchor="start" x="212.4409" y="-468" font-family="Arial" font-size="10.00" fill="#000000">Additional Relation</text>
</g>
<!-- changeset_parents&#45;&gt;changesets -->
<g id="edge4" class="edge">
<title>changeset_parents:parent_id&#45;&gt;changesets:id</title>
<path fill="none" stroke="#000000" stroke-dasharray="5,2" d="M231.9054,-473.8626C247.9506,-429.4531 316.1063,-450.8454 339.3664,-402 359.2004,-360.3494 385.4857,-298.2432 330.689,-298.0007"/>
<polygon fill="#000000" stroke="#000000" points="231.8785,-473.9691 225.058,-482.5558 230.6492,-478.8156 229.4199,-483.6622 229.4199,-483.6622 229.4199,-483.6622 230.6492,-478.8156 233.7818,-484.7685 231.8785,-473.9691 231.8785,-473.9691"/>
<text text-anchor="start" x="139.7444" y="-493.6622" font-family="Arial" font-size="10.00" fill="#000000">Additional Relation</text>
</g>
</g>
</svg>
