<?xml version="1.0" encoding="UTF-8" standalone="no"?>
<!DOCTYPE svg PUBLIC "-//W3C//DTD SVG 1.1//EN"
 "http://www.w3.org/Graphics/SVG/1.1/DTD/svg11.dtd">
<!-- Generated by graphviz version 2.40.1 (20161225.0304)
 -->
<!-- Title: changesets_issues Pages: 1 -->
<svg width="702pt" height="1083pt"
 viewBox="0.00 0.00 702.00 1083.00" xmlns="http://www.w3.org/2000/svg" xmlns:xlink="http://www.w3.org/1999/xlink">
<g id="graph0" class="graph" transform="scale(1 1) rotate(0) translate(4 1079)">
<title>changesets_issues</title>
<polygon fill="#ffffff" stroke="transparent" points="-4,4 -4,-1079 698,-1079 698,4 -4,4"/>
<!-- changesets_issues -->
<g id="node1" class="node">
<title>changesets_issues</title>
<polygon fill="#efefef" stroke="transparent" points="191.5,-993.5 191.5,-1028.5 455.5,-1028.5 455.5,-993.5 191.5,-993.5"/>
<polygon fill="none" stroke="#000000" points="191.5,-993.5 191.5,-1028.5 455.5,-1028.5 455.5,-993.5 191.5,-993.5"/>
<text text-anchor="start" x="198.347" y="-1006.3" font-family="Arial Bold" font-size="18.00" fill="#000000">changesets_issues</text>
<text text-anchor="start" x="351.3992" y="-1006.3" font-family="Arial" font-size="14.00" fill="#000000"> </text>
<text text-anchor="start" x="355.2898" y="-1006.3" font-family="Arial" font-size="14.00" fill="#666666">[BASE TABLE]</text>
<polygon fill="none" stroke="#000000" points="191.5,-963.5 191.5,-993.5 455.5,-993.5 455.5,-963.5 191.5,-963.5"/>
<text text-anchor="start" x="198.5" y="-974.9" font-family="Arial" font-size="14.00" fill="#000000">changeset_id </text>
<text text-anchor="start" x="285.6486" y="-974.9" font-family="Arial" font-size="14.00" fill="#666666">[int(11)]</text>
<polygon fill="none" stroke="#000000" points="191.5,-933.5 191.5,-963.5 455.5,-963.5 455.5,-933.5 191.5,-933.5"/>
<text text-anchor="start" x="198.5" y="-944.9" font-family="Arial" font-size="14.00" fill="#000000">issue_id </text>
<text text-anchor="start" x="253.7342" y="-944.9" font-family="Arial" font-size="14.00" fill="#666666">[int(11)]</text>
<polygon fill="none" stroke="#000000" stroke-width="3" points="190,-932.5 190,-1030.5 457,-1030.5 457,-932.5 190,-932.5"/>
</g>
<!-- changesets -->
<g id="node2" class="node">
<title>changesets</title>
<polygon fill="#efefef" stroke="transparent" points="43.5,-543 43.5,-578 246.5,-578 246.5,-543 43.5,-543"/>
<polygon fill="none" stroke="#000000" points="43.5,-543 43.5,-578 246.5,-578 246.5,-543 43.5,-543"/>
<text text-anchor="start" x="50.3534" y="-555.8" font-family="Arial Bold" font-size="18.00" fill="#000000">changesets</text>
<text text-anchor="start" x="142.3928" y="-555.8" font-family="Arial" font-size="14.00" fill="#000000"> </text>
<text text-anchor="start" x="146.2834" y="-555.8" font-family="Arial" font-size="14.00" fill="#666666">[BASE TABLE]</text>
<polygon fill="none" stroke="#000000" points="43.5,-513 43.5,-543 246.5,-543 246.5,-513 43.5,-513"/>
<text text-anchor="start" x="50.5" y="-524.4" font-family="Arial" font-size="14.00" fill="#000000">id </text>
<text text-anchor="start" x="65.2798" y="-524.4" font-family="Arial" font-size="14.00" fill="#666666">[int(11)]</text>
<polygon fill="none" stroke="#000000" points="43.5,-483 43.5,-513 246.5,-513 246.5,-483 43.5,-483"/>
<text text-anchor="start" x="50.5" y="-494.4" font-family="Arial" font-size="14.00" fill="#000000">repository_id </text>
<text text-anchor="start" x="134.5112" y="-494.4" font-family="Arial" font-size="14.00" fill="#666666">[int(11)]</text>
<polygon fill="none" stroke="#000000" points="43.5,-453 43.5,-483 246.5,-483 246.5,-453 43.5,-453"/>
<text text-anchor="start" x="50.5" y="-464.4" font-family="Arial" font-size="14.00" fill="#000000">revision </text>
<text text-anchor="start" x="102.6122" y="-464.4" font-family="Arial" font-size="14.00" fill="#666666">[varchar(255)]</text>
<polygon fill="none" stroke="#000000" points="43.5,-423 43.5,-453 246.5,-453 246.5,-423 43.5,-423"/>
<text text-anchor="start" x="50.5" y="-434.4" font-family="Arial" font-size="14.00" fill="#000000">committer </text>
<text text-anchor="start" x="115.8254" y="-434.4" font-family="Arial" font-size="14.00" fill="#666666">[varchar(255)]</text>
<polygon fill="none" stroke="#000000" points="43.5,-393 43.5,-423 246.5,-423 246.5,-393 43.5,-393"/>
<text text-anchor="start" x="50.5" y="-404.4" font-family="Arial" font-size="14.00" fill="#000000">committed_on </text>
<text text-anchor="start" x="142.2952" y="-404.4" font-family="Arial" font-size="14.00" fill="#666666">[datetime]</text>
<polygon fill="none" stroke="#000000" points="43.5,-363 43.5,-393 246.5,-393 246.5,-363 43.5,-363"/>
<text text-anchor="start" x="50.5" y="-374.4" font-family="Arial" font-size="14.00" fill="#000000">comments </text>
<text text-anchor="start" x="118.9502" y="-374.4" font-family="Arial" font-size="14.00" fill="#666666">[longtext]</text>
<polygon fill="none" stroke="#000000" points="43.5,-333 43.5,-363 246.5,-363 246.5,-333 43.5,-333"/>
<text text-anchor="start" x="50.5" y="-344.4" font-family="Arial" font-size="14.00" fill="#000000">commit_date </text>
<text text-anchor="start" x="134.5126" y="-344.4" font-family="Arial" font-size="14.00" fill="#666666">[date]</text>
<polygon fill="none" stroke="#000000" points="43.5,-303 43.5,-333 246.5,-333 246.5,-303 43.5,-303"/>
<text text-anchor="start" x="50.5" y="-314.4" font-family="Arial" font-size="14.00" fill="#000000">scmid </text>
<text text-anchor="start" x="90.9404" y="-314.4" font-family="Arial" font-size="14.00" fill="#666666">[varchar(255)]</text>
<polygon fill="none" stroke="#000000" points="43.5,-273 43.5,-303 246.5,-303 246.5,-273 43.5,-273"/>
<text text-anchor="start" x="50.5" y="-284.4" font-family="Arial" font-size="14.00" fill="#000000">user_id </text>
<text text-anchor="start" x="100.2882" y="-284.4" font-family="Arial" font-size="14.00" fill="#666666">[int(11)]</text>
</g>
<!-- changesets_issues&#45;&gt;changesets -->
<g id="edge1" class="edge">
<title>changesets_issues:changeset_id&#45;&gt;changesets:id</title>
<path fill="none" stroke="#000000" stroke-dasharray="5,2" d="M181.2753,-976.4915C110.1553,-943.9921 343.4148,-528 246.5,-528"/>
<polygon fill="#000000" stroke="#000000" points="181.6875,-976.5724 190.6326,-982.9156 186.5938,-977.5362 191.5,-978.5 191.5,-978.5 191.5,-978.5 186.5938,-977.5362 192.3674,-974.0844 181.6875,-976.5724 181.6875,-976.5724"/>
<text text-anchor="start" x="105.768" y="-988.5" font-family="Arial" font-size="10.00" fill="#000000">Detected Relation</text>
</g>
<!-- issues -->
<g id="node3" class="node">
<title>issues</title>
<polygon fill="#efefef" stroke="transparent" points="350.5,-763 350.5,-809 651.5,-809 651.5,-763 350.5,-763"/>
<polygon fill="none" stroke="#000000" points="350.5,-763 350.5,-809 651.5,-809 651.5,-763 350.5,-763"/>
<text text-anchor="start" x="426.8698" y="-786.8" font-family="Arial Bold" font-size="18.00" fill="#000000">issues</text>
<text text-anchor="start" x="477.8764" y="-786.8" font-family="Arial" font-size="14.00" fill="#000000"> </text>
<text text-anchor="start" x="481.767" y="-786.8" font-family="Arial" font-size="14.00" fill="#666666">[BASE TABLE]</text>
<text text-anchor="start" x="473.1344" y="-772.4" font-family="Arial" font-size="14.00" fill="#333333">チケット</text>
<polygon fill="none" stroke="#000000" points="350.5,-733 350.5,-763 651.5,-763 651.5,-733 350.5,-733"/>
<text text-anchor="start" x="357.5" y="-744.4" font-family="Arial" font-size="14.00" fill="#000000">id </text>
<text text-anchor="start" x="372.2798" y="-744.4" font-family="Arial" font-size="14.00" fill="#666666">[int(11)]</text>
<polygon fill="none" stroke="#000000" points="350.5,-703 350.5,-733 651.5,-733 651.5,-703 350.5,-703"/>
<text text-anchor="start" x="357.5" y="-714.4" font-family="Arial" font-size="14.00" fill="#000000">tracker_id </text>
<text text-anchor="start" x="422.8394" y="-714.4" font-family="Arial" font-size="14.00" fill="#666666">[int(11)]</text>
<text text-anchor="start" x="470.2868" y="-714.4" font-family="Arial" font-size="14.00" fill="#000000"> トラッカーID</text>
<polygon fill="none" stroke="#000000" points="350.5,-673 350.5,-703 651.5,-703 651.5,-673 350.5,-673"/>
<text text-anchor="start" x="357.5" y="-684.4" font-family="Arial" font-size="14.00" fill="#000000">project_id </text>
<text text-anchor="start" x="422.068" y="-684.4" font-family="Arial" font-size="14.00" fill="#666666">[int(11)]</text>
<text text-anchor="start" x="469.5154" y="-684.4" font-family="Arial" font-size="14.00" fill="#000000"> プロジェクトID</text>
<polygon fill="none" stroke="#000000" points="350.5,-643 350.5,-673 651.5,-673 651.5,-643 350.5,-643"/>
<text text-anchor="start" x="357.5" y="-654.4" font-family="Arial" font-size="14.00" fill="#000000">subject </text>
<text text-anchor="start" x="405.7356" y="-654.4" font-family="Arial" font-size="14.00" fill="#666666">[varchar(255)]</text>
<text text-anchor="start" x="492.8548" y="-654.4" font-family="Arial" font-size="14.00" fill="#000000"> 題名</text>
<polygon fill="none" stroke="#000000" points="350.5,-613 350.5,-643 651.5,-643 651.5,-613 350.5,-613"/>
<text text-anchor="start" x="357.5" y="-624.4" font-family="Arial" font-size="14.00" fill="#000000">description </text>
<text text-anchor="start" x="429.068" y="-624.4" font-family="Arial" font-size="14.00" fill="#666666">[longtext]</text>
<text text-anchor="start" x="485.8674" y="-624.4" font-family="Arial" font-size="14.00" fill="#000000"> 説明</text>
<polygon fill="none" stroke="#000000" points="350.5,-583 350.5,-613 651.5,-613 651.5,-583 350.5,-583"/>
<text text-anchor="start" x="357.5" y="-594.4" font-family="Arial" font-size="14.00" fill="#000000">due_date </text>
<text text-anchor="start" x="419.7594" y="-594.4" font-family="Arial" font-size="14.00" fill="#666666">[date]</text>
<text text-anchor="start" x="454.779" y="-594.4" font-family="Arial" font-size="14.00" fill="#000000"> 期日</text>
<polygon fill="none" stroke="#000000" points="350.5,-553 350.5,-583 651.5,-583 651.5,-553 350.5,-553"/>
<text text-anchor="start" x="357.5" y="-564.4" font-family="Arial" font-size="14.00" fill="#000000">category_id </text>
<text text-anchor="start" x="433.744" y="-564.4" font-family="Arial" font-size="14.00" fill="#666666">[int(11)]</text>
<text text-anchor="start" x="481.1914" y="-564.4" font-family="Arial" font-size="14.00" fill="#000000"> カテゴリーID</text>
<polygon fill="none" stroke="#000000" points="350.5,-523 350.5,-553 651.5,-553 651.5,-523 350.5,-523"/>
<text text-anchor="start" x="357.5" y="-534.4" font-family="Arial" font-size="14.00" fill="#000000">status_id </text>
<text text-anchor="start" x="417.4088" y="-534.4" font-family="Arial" font-size="14.00" fill="#666666">[int(11)]</text>
<text text-anchor="start" x="464.8562" y="-534.4" font-family="Arial" font-size="14.00" fill="#000000"> ステータスID</text>
<polygon fill="none" stroke="#000000" points="350.5,-493 350.5,-523 651.5,-523 651.5,-493 350.5,-493"/>
<text text-anchor="start" x="357.5" y="-504.4" font-family="Arial" font-size="14.00" fill="#000000">assigned_to_id </text>
<text text-anchor="start" x="455.5378" y="-504.4" font-family="Arial" font-size="14.00" fill="#666666">[int(11)]</text>
<text text-anchor="start" x="502.9852" y="-504.4" font-family="Arial" font-size="14.00" fill="#000000"> 担当者ID</text>
<polygon fill="none" stroke="#000000" points="350.5,-463 350.5,-493 651.5,-493 651.5,-463 350.5,-463"/>
<text text-anchor="start" x="357.5" y="-474.4" font-family="Arial" font-size="14.00" fill="#000000">priority_id </text>
<text text-anchor="start" x="422.0526" y="-474.4" font-family="Arial" font-size="14.00" fill="#666666">[int(11)]</text>
<text text-anchor="start" x="469.5" y="-474.4" font-family="Arial" font-size="14.00" fill="#000000"> 優先度ID</text>
<polygon fill="none" stroke="#000000" points="350.5,-433 350.5,-463 651.5,-463 651.5,-433 350.5,-433"/>
<text text-anchor="start" x="357.3635" y="-444.4" font-family="Arial" font-size="14.00" fill="#000000">fixed_version_id </text>
<text text-anchor="start" x="462.3859" y="-444.4" font-family="Arial" font-size="14.00" fill="#666666">[int(11)]</text>
<text text-anchor="start" x="509.8333" y="-444.4" font-family="Arial" font-size="14.00" fill="#000000"> 対象バージョンID</text>
<polygon fill="none" stroke="#000000" points="350.5,-403 350.5,-433 651.5,-433 651.5,-403 350.5,-403"/>
<text text-anchor="start" x="357.5" y="-414.4" font-family="Arial" font-size="14.00" fill="#000000">author_id </text>
<text text-anchor="start" x="419.744" y="-414.4" font-family="Arial" font-size="14.00" fill="#666666">[int(11)]</text>
<text text-anchor="start" x="467.1914" y="-414.4" font-family="Arial" font-size="14.00" fill="#000000"> 登録者ID</text>
<polygon fill="none" stroke="#000000" points="350.5,-373 350.5,-403 651.5,-403 651.5,-373 350.5,-373"/>
<text text-anchor="start" x="357.5" y="-384.4" font-family="Arial" font-size="14.00" fill="#000000">lock_version </text>
<text text-anchor="start" x="439.1774" y="-384.4" font-family="Arial" font-size="14.00" fill="#666666">[int(11)]</text>
<text text-anchor="start" x="486.6248" y="-384.4" font-family="Arial" font-size="14.00" fill="#000000"> ロックバージョン</text>
<polygon fill="none" stroke="#000000" points="350.5,-343 350.5,-373 651.5,-373 651.5,-343 350.5,-343"/>
<text text-anchor="start" x="357.5" y="-354.4" font-family="Arial" font-size="14.00" fill="#000000">created_on </text>
<text text-anchor="start" x="431.42" y="-354.4" font-family="Arial" font-size="14.00" fill="#666666">[timestamp]</text>
<polygon fill="none" stroke="#000000" points="350.5,-313 350.5,-343 651.5,-343 651.5,-313 350.5,-313"/>
<text text-anchor="start" x="357.5" y="-324.4" font-family="Arial" font-size="14.00" fill="#000000">updated_on </text>
<text text-anchor="start" x="435.3246" y="-324.4" font-family="Arial" font-size="14.00" fill="#666666">[timestamp]</text>
<polygon fill="none" stroke="#000000" points="350.5,-283 350.5,-313 651.5,-313 651.5,-283 350.5,-283"/>
<text text-anchor="start" x="357.5" y="-294.4" font-family="Arial" font-size="14.00" fill="#000000">start_date </text>
<text text-anchor="start" x="423.636" y="-294.4" font-family="Arial" font-size="14.00" fill="#666666">[date]</text>
<text text-anchor="start" x="458.6556" y="-294.4" font-family="Arial" font-size="14.00" fill="#000000"> 開始日</text>
<polygon fill="none" stroke="#000000" points="350.5,-253 350.5,-283 651.5,-283 651.5,-253 350.5,-253"/>
<text text-anchor="start" x="357.5" y="-264.4" font-family="Arial" font-size="14.00" fill="#000000">done_ratio </text>
<text text-anchor="start" x="427.5266" y="-264.4" font-family="Arial" font-size="14.00" fill="#666666">[int(11)]</text>
<text text-anchor="start" x="474.974" y="-264.4" font-family="Arial" font-size="14.00" fill="#000000"> 進捗率</text>
<polygon fill="none" stroke="#000000" points="350.5,-223 350.5,-253 651.5,-253 651.5,-223 350.5,-223"/>
<text text-anchor="start" x="357.5" y="-234.4" font-family="Arial" font-size="14.00" fill="#000000">estimated_hours </text>
<text text-anchor="start" x="464.8604" y="-234.4" font-family="Arial" font-size="14.00" fill="#666666">[float]</text>
<text text-anchor="start" x="499.0946" y="-234.4" font-family="Arial" font-size="14.00" fill="#000000"> 予定工数</text>
<polygon fill="none" stroke="#000000" points="350.5,-193 350.5,-223 651.5,-223 651.5,-193 350.5,-193"/>
<text text-anchor="start" x="357.5" y="-204.4" font-family="Arial" font-size="14.00" fill="#000000">parent_id </text>
<text text-anchor="start" x="419.744" y="-204.4" font-family="Arial" font-size="14.00" fill="#666666">[int(11)]</text>
<text text-anchor="start" x="467.1914" y="-204.4" font-family="Arial" font-size="14.00" fill="#000000"> 親チケット</text>
<polygon fill="none" stroke="#000000" points="350.5,-163 350.5,-193 651.5,-193 651.5,-163 350.5,-163"/>
<text text-anchor="start" x="357.5" y="-174.4" font-family="Arial" font-size="14.00" fill="#000000">root_id </text>
<text text-anchor="start" x="404.1788" y="-174.4" font-family="Arial" font-size="14.00" fill="#666666">[int(11)]</text>
<text text-anchor="start" x="451.6262" y="-174.4" font-family="Arial" font-size="14.00" fill="#000000"> ルートID</text>
<polygon fill="none" stroke="#000000" points="350.5,-133 350.5,-163 651.5,-163 651.5,-133 350.5,-133"/>
<text text-anchor="start" x="357.5" y="-144.4" font-family="Arial" font-size="14.00" fill="#000000">lft </text>
<text text-anchor="start" x="372.2784" y="-144.4" font-family="Arial" font-size="14.00" fill="#666666">[int(11)]</text>
<text text-anchor="start" x="419.7258" y="-144.4" font-family="Arial" font-size="14.00" fill="#000000"> 左ノードポインタ</text>
<polygon fill="none" stroke="#000000" points="350.5,-103 350.5,-133 651.5,-133 651.5,-103 350.5,-103"/>
<text text-anchor="start" x="357.5" y="-114.4" font-family="Arial" font-size="14.00" fill="#000000">rgt </text>
<text text-anchor="start" x="377.7244" y="-114.4" font-family="Arial" font-size="14.00" fill="#666666">[int(11)]</text>
<text text-anchor="start" x="425.1718" y="-114.4" font-family="Arial" font-size="14.00" fill="#000000"> 右ノードポインタ</text>
<polygon fill="none" stroke="#000000" points="350.5,-73 350.5,-103 651.5,-103 651.5,-73 350.5,-73"/>
<text text-anchor="start" x="357.5" y="-84.4" font-family="Arial" font-size="14.00" fill="#000000">is_private </text>
<text text-anchor="start" x="421.2854" y="-84.4" font-family="Arial" font-size="14.00" fill="#666666">[tinyint(1)]</text>
<text text-anchor="start" x="482.73" y="-84.4" font-family="Arial" font-size="14.00" fill="#000000"> プライベート</text>
<polygon fill="none" stroke="#000000" points="350.5,-43 350.5,-73 651.5,-73 651.5,-43 350.5,-43"/>
<text text-anchor="start" x="357.5" y="-54.4" font-family="Arial" font-size="14.00" fill="#000000">closed_on </text>
<text text-anchor="start" x="425.1928" y="-54.4" font-family="Arial" font-size="14.00" fill="#666666">[datetime]</text>
<text text-anchor="start" x="486.6528" y="-54.4" font-family="Arial" font-size="14.00" fill="#000000"> 完了日時</text>
</g>
<!-- changesets_issues&#45;&gt;issues -->
<g id="edge2" class="edge">
<title>changesets_issues:issue_id&#45;&gt;issues:id</title>
<path fill="none" stroke="#000000" stroke-dasharray="5,2" d="M465.4389,-945.8826C478.7635,-936.84 468.6868,-906.4616 455.5,-888 426.8256,-847.8558 379.1744,-892.1442 350.5,-852 323.6339,-814.3874 304.2778,-748 350.5,-748"/>
<polygon fill="#000000" stroke="#000000" points="465.1703,-945.9533 454.354,-944.1484 460.3351,-947.2266 455.5,-948.5 455.5,-948.5 455.5,-948.5 460.3351,-947.2266 456.646,-952.8516 465.1703,-945.9533 465.1703,-945.9533"/>
<text text-anchor="start" x="462.768" y="-958.5" font-family="Arial" font-size="10.00" fill="#000000">Detected Relation</text>
</g>
</g>
</svg>
