<?xml version="1.0" encoding="UTF-8" standalone="no"?>
<!DOCTYPE svg PUBLIC "-//W3C//DTD SVG 1.1//EN"
 "http://www.w3.org/Graphics/SVG/1.1/DTD/svg11.dtd">
<!-- Generated by graphviz version 2.40.1 (20161225.0304)
 -->
<!-- Title: changes Pages: 1 -->
<svg width="340pt" height="802pt"
 viewBox="0.00 0.00 339.50 802.00" xmlns="http://www.w3.org/2000/svg" xmlns:xlink="http://www.w3.org/1999/xlink">
<g id="graph0" class="graph" transform="scale(1 1) rotate(0) translate(4 798)">
<title>changes</title>
<polygon fill="#ffffff" stroke="transparent" points="-4,4 -4,-798 335.5,-798 335.5,4 -4,4"/>
<!-- changes -->
<g id="node1" class="node">
<title>changes</title>
<polygon fill="#efefef" stroke="transparent" points="93,-712.5 93,-747.5 282,-747.5 282,-712.5 93,-712.5"/>
<polygon fill="none" stroke="#000000" points="93,-712.5 93,-747.5 282,-747.5 282,-712.5 93,-712.5"/>
<text text-anchor="start" x="104.8576" y="-725.3" font-family="Arial Bold" font-size="18.00" fill="#000000">changes</text>
<text text-anchor="start" x="172.8886" y="-725.3" font-family="Arial" font-size="14.00" fill="#000000"> </text>
<text text-anchor="start" x="176.7792" y="-725.3" font-family="Arial" font-size="14.00" fill="#666666">[BASE TABLE]</text>
<polygon fill="none" stroke="#000000" points="93,-682.5 93,-712.5 282,-712.5 282,-682.5 93,-682.5"/>
<text text-anchor="start" x="100" y="-693.9" font-family="Arial" font-size="14.00" fill="#000000">id </text>
<text text-anchor="start" x="114.7798" y="-693.9" font-family="Arial" font-size="14.00" fill="#666666">[int(11)]</text>
<polygon fill="none" stroke="#000000" points="93,-652.5 93,-682.5 282,-682.5 282,-652.5 93,-652.5"/>
<text text-anchor="start" x="100" y="-663.9" font-family="Arial" font-size="14.00" fill="#000000">changeset_id </text>
<text text-anchor="start" x="187.1486" y="-663.9" font-family="Arial" font-size="14.00" fill="#666666">[int(11)]</text>
<polygon fill="none" stroke="#000000" points="93,-622.5 93,-652.5 282,-652.5 282,-622.5 93,-622.5"/>
<text text-anchor="start" x="100" y="-633.9" font-family="Arial" font-size="14.00" fill="#000000">action </text>
<text text-anchor="start" x="141.2356" y="-633.9" font-family="Arial" font-size="14.00" fill="#666666">[varchar(1)]</text>
<polygon fill="none" stroke="#000000" points="93,-592.5 93,-622.5 282,-622.5 282,-592.5 93,-592.5"/>
<text text-anchor="start" x="100" y="-603.9" font-family="Arial" font-size="14.00" fill="#000000">path </text>
<text text-anchor="start" x="131.129" y="-603.9" font-family="Arial" font-size="14.00" fill="#666666">[text]</text>
<polygon fill="none" stroke="#000000" points="93,-562.5 93,-592.5 282,-592.5 282,-562.5 93,-562.5"/>
<text text-anchor="start" x="100" y="-573.9" font-family="Arial" font-size="14.00" fill="#000000">from_path </text>
<text text-anchor="start" x="166.906" y="-573.9" font-family="Arial" font-size="14.00" fill="#666666">[text]</text>
<polygon fill="none" stroke="#000000" points="93,-532.5 93,-562.5 282,-562.5 282,-532.5 93,-532.5"/>
<text text-anchor="start" x="99.9958" y="-543.9" font-family="Arial" font-size="14.00" fill="#000000">from_revision </text>
<text text-anchor="start" x="187.885" y="-543.9" font-family="Arial" font-size="14.00" fill="#666666">[varchar(255)]</text>
<polygon fill="none" stroke="#000000" points="93,-502.5 93,-532.5 282,-532.5 282,-502.5 93,-502.5"/>
<text text-anchor="start" x="100" y="-513.9" font-family="Arial" font-size="14.00" fill="#000000">revision </text>
<text text-anchor="start" x="152.1122" y="-513.9" font-family="Arial" font-size="14.00" fill="#666666">[varchar(255)]</text>
<polygon fill="none" stroke="#000000" points="93,-472.5 93,-502.5 282,-502.5 282,-472.5 93,-472.5"/>
<text text-anchor="start" x="100" y="-483.9" font-family="Arial" font-size="14.00" fill="#000000">branch </text>
<text text-anchor="start" x="146.6816" y="-483.9" font-family="Arial" font-size="14.00" fill="#666666">[varchar(255)]</text>
<polygon fill="none" stroke="#000000" stroke-width="3" points="91,-471.5 91,-749.5 283,-749.5 283,-471.5 91,-471.5"/>
</g>
<!-- changesets -->
<g id="node2" class="node">
<title>changesets</title>
<polygon fill="#efefef" stroke="transparent" points="86,-312.5 86,-347.5 289,-347.5 289,-312.5 86,-312.5"/>
<polygon fill="none" stroke="#000000" points="86,-312.5 86,-347.5 289,-347.5 289,-312.5 86,-312.5"/>
<text text-anchor="start" x="92.8534" y="-325.3" font-family="Arial Bold" font-size="18.00" fill="#000000">changesets</text>
<text text-anchor="start" x="184.8928" y="-325.3" font-family="Arial" font-size="14.00" fill="#000000"> </text>
<text text-anchor="start" x="188.7834" y="-325.3" font-family="Arial" font-size="14.00" fill="#666666">[BASE TABLE]</text>
<polygon fill="none" stroke="#000000" points="86,-282.5 86,-312.5 289,-312.5 289,-282.5 86,-282.5"/>
<text text-anchor="start" x="93" y="-293.9" font-family="Arial" font-size="14.00" fill="#000000">id </text>
<text text-anchor="start" x="107.7798" y="-293.9" font-family="Arial" font-size="14.00" fill="#666666">[int(11)]</text>
<polygon fill="none" stroke="#000000" points="86,-252.5 86,-282.5 289,-282.5 289,-252.5 86,-252.5"/>
<text text-anchor="start" x="93" y="-263.9" font-family="Arial" font-size="14.00" fill="#000000">repository_id </text>
<text text-anchor="start" x="177.0112" y="-263.9" font-family="Arial" font-size="14.00" fill="#666666">[int(11)]</text>
<polygon fill="none" stroke="#000000" points="86,-222.5 86,-252.5 289,-252.5 289,-222.5 86,-222.5"/>
<text text-anchor="start" x="93" y="-233.9" font-family="Arial" font-size="14.00" fill="#000000">revision </text>
<text text-anchor="start" x="145.1122" y="-233.9" font-family="Arial" font-size="14.00" fill="#666666">[varchar(255)]</text>
<polygon fill="none" stroke="#000000" points="86,-192.5 86,-222.5 289,-222.5 289,-192.5 86,-192.5"/>
<text text-anchor="start" x="93" y="-203.9" font-family="Arial" font-size="14.00" fill="#000000">committer </text>
<text text-anchor="start" x="158.3254" y="-203.9" font-family="Arial" font-size="14.00" fill="#666666">[varchar(255)]</text>
<polygon fill="none" stroke="#000000" points="86,-162.5 86,-192.5 289,-192.5 289,-162.5 86,-162.5"/>
<text text-anchor="start" x="93" y="-173.9" font-family="Arial" font-size="14.00" fill="#000000">committed_on </text>
<text text-anchor="start" x="184.7952" y="-173.9" font-family="Arial" font-size="14.00" fill="#666666">[datetime]</text>
<polygon fill="none" stroke="#000000" points="86,-132.5 86,-162.5 289,-162.5 289,-132.5 86,-132.5"/>
<text text-anchor="start" x="93" y="-143.9" font-family="Arial" font-size="14.00" fill="#000000">comments </text>
<text text-anchor="start" x="161.4502" y="-143.9" font-family="Arial" font-size="14.00" fill="#666666">[longtext]</text>
<polygon fill="none" stroke="#000000" points="86,-102.5 86,-132.5 289,-132.5 289,-102.5 86,-102.5"/>
<text text-anchor="start" x="93" y="-113.9" font-family="Arial" font-size="14.00" fill="#000000">commit_date </text>
<text text-anchor="start" x="177.0126" y="-113.9" font-family="Arial" font-size="14.00" fill="#666666">[date]</text>
<polygon fill="none" stroke="#000000" points="86,-72.5 86,-102.5 289,-102.5 289,-72.5 86,-72.5"/>
<text text-anchor="start" x="93" y="-83.9" font-family="Arial" font-size="14.00" fill="#000000">scmid </text>
<text text-anchor="start" x="133.4404" y="-83.9" font-family="Arial" font-size="14.00" fill="#666666">[varchar(255)]</text>
<polygon fill="none" stroke="#000000" points="86,-42.5 86,-72.5 289,-72.5 289,-42.5 86,-42.5"/>
<text text-anchor="start" x="93" y="-53.9" font-family="Arial" font-size="14.00" fill="#000000">user_id </text>
<text text-anchor="start" x="142.7882" y="-53.9" font-family="Arial" font-size="14.00" fill="#666666">[int(11)]</text>
</g>
<!-- changes&#45;&gt;changesets -->
<g id="edge1" class="edge">
<title>changes:changeset_id&#45;&gt;changesets:id</title>
<path fill="none" stroke="#000000" stroke-dasharray="5,2" d="M82.817,-665.5093C10.3263,-636.3863 7.2967,-297.5 86,-297.5"/>
<polygon fill="#000000" stroke="#000000" points="83.1858,-665.5813 92.1366,-671.9164 88.0929,-666.5407 93,-667.5 93,-667.5 93,-667.5 88.0929,-666.5407 93.8634,-663.0836 83.1858,-665.5813 83.1858,-665.5813"/>
<text text-anchor="start" x="7.268" y="-677.5" font-family="Arial" font-size="10.00" fill="#000000">Detected Relation</text>
</g>
</g>
</svg>
