<?xml version="1.0" encoding="UTF-8" standalone="no"?>
<!DOCTYPE svg PUBLIC "-//W3C//DTD SVG 1.1//EN"
 "http://www.w3.org/Graphics/SVG/1.1/DTD/svg11.dtd">
<!-- Generated by graphviz version 2.40.1 (20161225.0304)
 -->
<!-- Title: changesets Pages: 1 -->
<svg width="1020pt" height="1600pt"
 viewBox="0.00 0.00 1019.50 1600.00" xmlns="http://www.w3.org/2000/svg" xmlns:xlink="http://www.w3.org/1999/xlink">
<g id="graph0" class="graph" transform="scale(1 1) rotate(0) translate(4 1596)">
<title>changesets</title>
<polygon fill="#ffffff" stroke="transparent" points="-4,4 -4,-1596 1015.5,-1596 1015.5,4 -4,4"/>
<!-- changesets -->
<g id="node1" class="node">
<title>changesets</title>
<polygon fill="#efefef" stroke="transparent" points="366.5,-1113.5 366.5,-1148.5 569.5,-1148.5 569.5,-1113.5 366.5,-1113.5"/>
<polygon fill="none" stroke="#000000" points="366.5,-1113.5 366.5,-1148.5 569.5,-1148.5 569.5,-1113.5 366.5,-1113.5"/>
<text text-anchor="start" x="373.3534" y="-1126.3" font-family="Arial Bold" font-size="18.00" fill="#000000">changesets</text>
<text text-anchor="start" x="465.3928" y="-1126.3" font-family="Arial" font-size="14.00" fill="#000000"> </text>
<text text-anchor="start" x="469.2834" y="-1126.3" font-family="Arial" font-size="14.00" fill="#666666">[BASE TABLE]</text>
<polygon fill="none" stroke="#000000" points="366.5,-1083.5 366.5,-1113.5 569.5,-1113.5 569.5,-1083.5 366.5,-1083.5"/>
<text text-anchor="start" x="373.5" y="-1094.9" font-family="Arial" font-size="14.00" fill="#000000">id </text>
<text text-anchor="start" x="388.2798" y="-1094.9" font-family="Arial" font-size="14.00" fill="#666666">[int(11)]</text>
<polygon fill="none" stroke="#000000" points="366.5,-1053.5 366.5,-1083.5 569.5,-1083.5 569.5,-1053.5 366.5,-1053.5"/>
<text text-anchor="start" x="373.5" y="-1064.9" font-family="Arial" font-size="14.00" fill="#000000">repository_id </text>
<text text-anchor="start" x="457.5112" y="-1064.9" font-family="Arial" font-size="14.00" fill="#666666">[int(11)]</text>
<polygon fill="none" stroke="#000000" points="366.5,-1023.5 366.5,-1053.5 569.5,-1053.5 569.5,-1023.5 366.5,-1023.5"/>
<text text-anchor="start" x="373.5" y="-1034.9" font-family="Arial" font-size="14.00" fill="#000000">revision </text>
<text text-anchor="start" x="425.6122" y="-1034.9" font-family="Arial" font-size="14.00" fill="#666666">[varchar(255)]</text>
<polygon fill="none" stroke="#000000" points="366.5,-993.5 366.5,-1023.5 569.5,-1023.5 569.5,-993.5 366.5,-993.5"/>
<text text-anchor="start" x="373.5" y="-1004.9" font-family="Arial" font-size="14.00" fill="#000000">committer </text>
<text text-anchor="start" x="438.8254" y="-1004.9" font-family="Arial" font-size="14.00" fill="#666666">[varchar(255)]</text>
<polygon fill="none" stroke="#000000" points="366.5,-963.5 366.5,-993.5 569.5,-993.5 569.5,-963.5 366.5,-963.5"/>
<text text-anchor="start" x="373.5" y="-974.9" font-family="Arial" font-size="14.00" fill="#000000">committed_on </text>
<text text-anchor="start" x="465.2952" y="-974.9" font-family="Arial" font-size="14.00" fill="#666666">[datetime]</text>
<polygon fill="none" stroke="#000000" points="366.5,-933.5 366.5,-963.5 569.5,-963.5 569.5,-933.5 366.5,-933.5"/>
<text text-anchor="start" x="373.5" y="-944.9" font-family="Arial" font-size="14.00" fill="#000000">comments </text>
<text text-anchor="start" x="441.9502" y="-944.9" font-family="Arial" font-size="14.00" fill="#666666">[longtext]</text>
<polygon fill="none" stroke="#000000" points="366.5,-903.5 366.5,-933.5 569.5,-933.5 569.5,-903.5 366.5,-903.5"/>
<text text-anchor="start" x="373.5" y="-914.9" font-family="Arial" font-size="14.00" fill="#000000">commit_date </text>
<text text-anchor="start" x="457.5126" y="-914.9" font-family="Arial" font-size="14.00" fill="#666666">[date]</text>
<polygon fill="none" stroke="#000000" points="366.5,-873.5 366.5,-903.5 569.5,-903.5 569.5,-873.5 366.5,-873.5"/>
<text text-anchor="start" x="373.5" y="-884.9" font-family="Arial" font-size="14.00" fill="#000000">scmid </text>
<text text-anchor="start" x="413.9404" y="-884.9" font-family="Arial" font-size="14.00" fill="#666666">[varchar(255)]</text>
<polygon fill="none" stroke="#000000" points="366.5,-843.5 366.5,-873.5 569.5,-873.5 569.5,-843.5 366.5,-843.5"/>
<text text-anchor="start" x="373.5" y="-854.9" font-family="Arial" font-size="14.00" fill="#000000">user_id </text>
<text text-anchor="start" x="423.2882" y="-854.9" font-family="Arial" font-size="14.00" fill="#666666">[int(11)]</text>
<polygon fill="none" stroke="#000000" stroke-width="3" points="364.5,-842.5 364.5,-1150.5 570.5,-1150.5 570.5,-842.5 364.5,-842.5"/>
</g>
<!-- repositories -->
<g id="node5" class="node">
<title>repositories</title>
<polygon fill="#efefef" stroke="transparent" points="143.5,-553 143.5,-599 347.5,-599 347.5,-553 143.5,-553"/>
<polygon fill="none" stroke="#000000" points="143.5,-553 143.5,-599 347.5,-599 347.5,-553 143.5,-553"/>
<text text-anchor="start" x="150.3701" y="-576.8" font-family="Arial Bold" font-size="18.00" fill="#000000">repositories</text>
<text text-anchor="start" x="243.3761" y="-576.8" font-family="Arial" font-size="14.00" fill="#000000"> </text>
<text text-anchor="start" x="247.2667" y="-576.8" font-family="Arial" font-size="14.00" fill="#666666">[BASE TABLE]</text>
<text text-anchor="start" x="212.7225" y="-562.4" font-family="Arial" font-size="14.00" fill="#333333">リポジトリ</text>
<polygon fill="none" stroke="#000000" points="143.5,-523 143.5,-553 347.5,-553 347.5,-523 143.5,-523"/>
<text text-anchor="start" x="150.5" y="-534.4" font-family="Arial" font-size="14.00" fill="#000000">id </text>
<text text-anchor="start" x="165.2798" y="-534.4" font-family="Arial" font-size="14.00" fill="#666666">[int(11)]</text>
<polygon fill="none" stroke="#000000" points="143.5,-493 143.5,-523 347.5,-523 347.5,-493 143.5,-493"/>
<text text-anchor="start" x="150.5" y="-504.4" font-family="Arial" font-size="14.00" fill="#000000">project_id </text>
<text text-anchor="start" x="215.068" y="-504.4" font-family="Arial" font-size="14.00" fill="#666666">[int(11)]</text>
<polygon fill="none" stroke="#000000" points="143.5,-463 143.5,-493 347.5,-493 347.5,-463 143.5,-463"/>
<text text-anchor="start" x="150.5" y="-474.4" font-family="Arial" font-size="14.00" fill="#000000">url </text>
<text text-anchor="start" x="169.9404" y="-474.4" font-family="Arial" font-size="14.00" fill="#666666">[varchar(255)]</text>
<polygon fill="none" stroke="#000000" points="143.5,-433 143.5,-463 347.5,-463 347.5,-433 143.5,-433"/>
<text text-anchor="start" x="150.5" y="-444.4" font-family="Arial" font-size="14.00" fill="#000000">login </text>
<text text-anchor="start" x="183.9516" y="-444.4" font-family="Arial" font-size="14.00" fill="#666666">[varchar(60)]</text>
<polygon fill="none" stroke="#000000" points="143.5,-403 143.5,-433 347.5,-433 347.5,-403 143.5,-403"/>
<text text-anchor="start" x="150.5" y="-414.4" font-family="Arial" font-size="14.00" fill="#000000">password </text>
<text text-anchor="start" x="214.2882" y="-414.4" font-family="Arial" font-size="14.00" fill="#666666">[varchar(255)]</text>
<polygon fill="none" stroke="#000000" points="143.5,-373 143.5,-403 347.5,-403 347.5,-373 143.5,-373"/>
<text text-anchor="start" x="150.5" y="-384.4" font-family="Arial" font-size="14.00" fill="#000000">root_url </text>
<text text-anchor="start" x="201.8394" y="-384.4" font-family="Arial" font-size="14.00" fill="#666666">[varchar(255)]</text>
<polygon fill="none" stroke="#000000" points="143.5,-343 143.5,-373 347.5,-373 347.5,-343 143.5,-343"/>
<text text-anchor="start" x="150.5" y="-354.4" font-family="Arial" font-size="14.00" fill="#000000">type </text>
<text text-anchor="start" x="180.8464" y="-354.4" font-family="Arial" font-size="14.00" fill="#666666">[varchar(255)]</text>
<polygon fill="none" stroke="#000000" points="143.5,-313 143.5,-343 347.5,-343 347.5,-313 143.5,-313"/>
<text text-anchor="start" x="150.5" y="-324.4" font-family="Arial" font-size="14.00" fill="#000000">path_encoding </text>
<text text-anchor="start" x="246.2138" y="-324.4" font-family="Arial" font-size="14.00" fill="#666666">[varchar(64)]</text>
<polygon fill="none" stroke="#000000" points="143.5,-283 143.5,-313 347.5,-313 347.5,-283 143.5,-283"/>
<text text-anchor="start" x="150.5" y="-294.4" font-family="Arial" font-size="14.00" fill="#000000">log_encoding </text>
<text text-anchor="start" x="237.6472" y="-294.4" font-family="Arial" font-size="14.00" fill="#666666">[varchar(64)]</text>
<polygon fill="none" stroke="#000000" points="143.5,-253 143.5,-283 347.5,-283 347.5,-253 143.5,-253"/>
<text text-anchor="start" x="150.5" y="-264.4" font-family="Arial" font-size="14.00" fill="#000000">extra_info </text>
<text text-anchor="start" x="215.852" y="-264.4" font-family="Arial" font-size="14.00" fill="#666666">[longtext]</text>
<polygon fill="none" stroke="#000000" points="143.5,-223 143.5,-253 347.5,-253 347.5,-223 143.5,-223"/>
<text text-anchor="start" x="150.5" y="-234.4" font-family="Arial" font-size="14.00" fill="#000000">identifier </text>
<text text-anchor="start" x="207.2826" y="-234.4" font-family="Arial" font-size="14.00" fill="#666666">[varchar(255)]</text>
<polygon fill="none" stroke="#000000" points="143.5,-193 143.5,-223 347.5,-223 347.5,-193 143.5,-193"/>
<text text-anchor="start" x="150.5" y="-204.4" font-family="Arial" font-size="14.00" fill="#000000">is_default </text>
<text text-anchor="start" x="214.298" y="-204.4" font-family="Arial" font-size="14.00" fill="#666666">[tinyint(1)]</text>
<polygon fill="none" stroke="#000000" points="143.5,-163 143.5,-193 347.5,-193 347.5,-163 143.5,-163"/>
<text text-anchor="start" x="150.5" y="-174.4" font-family="Arial" font-size="14.00" fill="#000000">created_on </text>
<text text-anchor="start" x="224.42" y="-174.4" font-family="Arial" font-size="14.00" fill="#666666">[timestamp]</text>
</g>
<!-- changesets&#45;&gt;repositories -->
<g id="edge4" class="edge">
<title>changesets:repository_id&#45;&gt;repositories:id</title>
<path fill="none" stroke="#000000" stroke-dasharray="5,2" d="M356.4015,-1066.9782C261.7665,-1035.8618 461.7781,-538 347.5,-538"/>
<polygon fill="#000000" stroke="#000000" points="356.6117,-1067.0098 365.8294,-1072.9498 361.5558,-1067.7549 366.5,-1068.5 366.5,-1068.5 366.5,-1068.5 361.5558,-1067.7549 367.1706,-1064.0502 356.6117,-1067.0098 356.6117,-1067.0098"/>
<text text-anchor="start" x="280.768" y="-1078.5" font-family="Arial" font-size="10.00" fill="#000000">Detected Relation</text>
</g>
<!-- users -->
<g id="node6" class="node">
<title>users</title>
<polygon fill="#efefef" stroke="transparent" points="451.5,-673 451.5,-719 933.5,-719 933.5,-673 451.5,-673"/>
<polygon fill="none" stroke="#000000" points="451.5,-673 451.5,-719 933.5,-719 933.5,-673 451.5,-673"/>
<text text-anchor="start" x="621.8708" y="-696.8" font-family="Arial Bold" font-size="18.00" fill="#000000">users</text>
<text text-anchor="start" x="665.8754" y="-696.8" font-family="Arial" font-size="14.00" fill="#000000"> </text>
<text text-anchor="start" x="669.766" y="-696.8" font-family="Arial" font-size="14.00" fill="#666666">[BASE TABLE]</text>
<text text-anchor="start" x="613.9558" y="-682.4" font-family="Arial" font-size="14.00" fill="#333333">ユーザー / グループ</text>
<polygon fill="none" stroke="#000000" points="451.5,-643 451.5,-673 933.5,-673 933.5,-643 451.5,-643"/>
<text text-anchor="start" x="458.5" y="-654.4" font-family="Arial" font-size="14.00" fill="#000000">id </text>
<text text-anchor="start" x="473.2798" y="-654.4" font-family="Arial" font-size="14.00" fill="#666666">[int(11)]</text>
<polygon fill="none" stroke="#000000" points="451.5,-613 451.5,-643 933.5,-643 933.5,-613 451.5,-613"/>
<text text-anchor="start" x="458.5" y="-624.4" font-family="Arial" font-size="14.00" fill="#000000">login </text>
<text text-anchor="start" x="491.9516" y="-624.4" font-family="Arial" font-size="14.00" fill="#666666">[varchar(255)]</text>
<text text-anchor="start" x="579.0708" y="-624.4" font-family="Arial" font-size="14.00" fill="#000000"> ログインID</text>
<polygon fill="none" stroke="#000000" points="451.5,-583 451.5,-613 933.5,-613 933.5,-583 451.5,-583"/>
<text text-anchor="start" x="458.5" y="-594.4" font-family="Arial" font-size="14.00" fill="#000000">hashed_password </text>
<text text-anchor="start" x="575.9838" y="-594.4" font-family="Arial" font-size="14.00" fill="#666666">[varchar(40)]</text>
<text text-anchor="start" x="655.3204" y="-594.4" font-family="Arial" font-size="14.00" fill="#000000"> パスワード(ハッシュ化済み)</text>
<polygon fill="none" stroke="#000000" points="451.5,-553 451.5,-583 933.5,-583 933.5,-553 451.5,-553"/>
<text text-anchor="start" x="458.5" y="-564.4" font-family="Arial" font-size="14.00" fill="#000000">firstname </text>
<text text-anchor="start" x="519.9474" y="-564.4" font-family="Arial" font-size="14.00" fill="#666666">[varchar(30)]</text>
<text text-anchor="start" x="599.284" y="-564.4" font-family="Arial" font-size="14.00" fill="#000000"> 名</text>
<polygon fill="none" stroke="#000000" points="451.5,-523 451.5,-553 933.5,-553 933.5,-523 451.5,-523"/>
<text text-anchor="start" x="458.5" y="-534.4" font-family="Arial" font-size="14.00" fill="#000000">lastname </text>
<text text-anchor="start" x="519.1788" y="-534.4" font-family="Arial" font-size="14.00" fill="#666666">[varchar(255)]</text>
<text text-anchor="start" x="606.298" y="-534.4" font-family="Arial" font-size="14.00" fill="#000000"> 姓</text>
<polygon fill="none" stroke="#000000" points="451.5,-493 451.5,-523 933.5,-523 933.5,-493 451.5,-493"/>
<text text-anchor="start" x="458.5" y="-504.4" font-family="Arial" font-size="14.00" fill="#000000">admin </text>
<text text-anchor="start" x="500.5056" y="-504.4" font-family="Arial" font-size="14.00" fill="#666666">[tinyint(1)]</text>
<text text-anchor="start" x="561.9502" y="-504.4" font-family="Arial" font-size="14.00" fill="#000000"> システム管理者</text>
<polygon fill="none" stroke="#000000" points="451.5,-463 451.5,-493 933.5,-493 933.5,-463 451.5,-463"/>
<text text-anchor="start" x="458.5" y="-474.4" font-family="Arial" font-size="14.00" fill="#000000">status </text>
<text text-anchor="start" x="499.737" y="-474.4" font-family="Arial" font-size="14.00" fill="#666666">[int(11)]</text>
<polygon fill="none" stroke="#000000" points="451.5,-433 451.5,-463 933.5,-463 933.5,-433 451.5,-433"/>
<text text-anchor="start" x="458.5" y="-444.4" font-family="Arial" font-size="14.00" fill="#000000">last_login_on </text>
<text text-anchor="start" x="544.8618" y="-444.4" font-family="Arial" font-size="14.00" fill="#666666">[datetime]</text>
<polygon fill="none" stroke="#000000" points="451.5,-403 451.5,-433 933.5,-433 933.5,-403 451.5,-403"/>
<text text-anchor="start" x="458.5" y="-414.4" font-family="Arial" font-size="14.00" fill="#000000">language </text>
<text text-anchor="start" x="519.9754" y="-414.4" font-family="Arial" font-size="14.00" fill="#666666">[varchar(5)]</text>
<text text-anchor="start" x="591.5294" y="-414.4" font-family="Arial" font-size="14.00" fill="#000000"> 言語</text>
<polygon fill="none" stroke="#000000" points="451.5,-373 451.5,-403 933.5,-403 933.5,-373 451.5,-373"/>
<text text-anchor="start" x="458.5" y="-384.4" font-family="Arial" font-size="14.00" fill="#000000">auth_source_id </text>
<text text-anchor="start" x="558.0918" y="-384.4" font-family="Arial" font-size="14.00" fill="#666666">[int(11)]</text>
<polygon fill="none" stroke="#000000" points="451.5,-343 451.5,-373 933.5,-373 933.5,-343 451.5,-343"/>
<text text-anchor="start" x="458.5" y="-354.4" font-family="Arial" font-size="14.00" fill="#000000">created_on </text>
<text text-anchor="start" x="532.42" y="-354.4" font-family="Arial" font-size="14.00" fill="#666666">[timestamp]</text>
<polygon fill="none" stroke="#000000" points="451.5,-313 451.5,-343 933.5,-343 933.5,-313 451.5,-313"/>
<text text-anchor="start" x="458.5" y="-324.4" font-family="Arial" font-size="14.00" fill="#000000">updated_on </text>
<text text-anchor="start" x="536.3246" y="-324.4" font-family="Arial" font-size="14.00" fill="#666666">[timestamp]</text>
<polygon fill="none" stroke="#000000" points="451.5,-283 451.5,-313 933.5,-313 933.5,-283 451.5,-283"/>
<text text-anchor="start" x="458.5" y="-294.4" font-family="Arial" font-size="14.00" fill="#000000">type </text>
<text text-anchor="start" x="488.8464" y="-294.4" font-family="Arial" font-size="14.00" fill="#666666">[varchar(255)]</text>
<text text-anchor="start" x="575.9656" y="-294.4" font-family="Arial" font-size="14.00" fill="#000000"> User:ユーザー / Group:グループ</text>
<polygon fill="none" stroke="#000000" points="451.5,-253 451.5,-283 933.5,-283 933.5,-253 451.5,-253"/>
<text text-anchor="start" x="458.5" y="-264.4" font-family="Arial" font-size="14.00" fill="#000000">identity_url </text>
<text text-anchor="start" x="530.0652" y="-264.4" font-family="Arial" font-size="14.00" fill="#666666">[varchar(255)]</text>
<polygon fill="none" stroke="#000000" points="451.5,-223 451.5,-253 933.5,-253 933.5,-223 451.5,-223"/>
<text text-anchor="start" x="458.5" y="-234.4" font-family="Arial" font-size="14.00" fill="#000000">mail_notification </text>
<text text-anchor="start" x="562.7342" y="-234.4" font-family="Arial" font-size="14.00" fill="#666666">[varchar(255)]</text>
<text text-anchor="start" x="649.8534" y="-234.4" font-family="Arial" font-size="14.00" fill="#000000"> メール通知</text>
<polygon fill="none" stroke="#000000" points="451.5,-193 451.5,-223 933.5,-223 933.5,-193 451.5,-193"/>
<text text-anchor="start" x="458.5" y="-204.4" font-family="Arial" font-size="14.00" fill="#000000">salt </text>
<text text-anchor="start" x="484.1704" y="-204.4" font-family="Arial" font-size="14.00" fill="#666666">[varchar(64)]</text>
<polygon fill="none" stroke="#000000" points="451.5,-163 451.5,-193 933.5,-193 933.5,-163 451.5,-163"/>
<text text-anchor="start" x="458.2646" y="-174.4" font-family="Arial" font-size="14.00" fill="#000000">must_change_passwd </text>
<text text-anchor="start" x="601.4216" y="-174.4" font-family="Arial" font-size="14.00" fill="#666666">[tinyint(1)]</text>
<text text-anchor="start" x="662.8662" y="-174.4" font-family="Arial" font-size="14.00" fill="#000000"> 次回ログイン時にパスワード変更を強制</text>
<polygon fill="none" stroke="#000000" points="451.5,-133 451.5,-163 933.5,-163 933.5,-133 451.5,-133"/>
<text text-anchor="start" x="458.5" y="-144.4" font-family="Arial" font-size="14.00" fill="#000000">passwd_changed_on </text>
<text text-anchor="start" x="594.671" y="-144.4" font-family="Arial" font-size="14.00" fill="#666666">[datetime]</text>
<polygon fill="none" stroke="#000000" points="451.5,-103 451.5,-133 933.5,-133 933.5,-103 451.5,-103"/>
<text text-anchor="start" x="458.5" y="-114.4" font-family="Arial" font-size="14.00" fill="#000000">twofa_scheme </text>
<text text-anchor="start" x="552.6346" y="-114.4" font-family="Arial" font-size="14.00" fill="#666666">[varchar(255)]</text>
<polygon fill="none" stroke="#000000" points="451.5,-73 451.5,-103 933.5,-103 933.5,-73 451.5,-73"/>
<text text-anchor="start" x="458.5" y="-84.4" font-family="Arial" font-size="14.00" fill="#000000">twofa_totp_key </text>
<text text-anchor="start" x="556.5378" y="-84.4" font-family="Arial" font-size="14.00" fill="#666666">[varchar(255)]</text>
<polygon fill="none" stroke="#000000" points="451.5,-43 451.5,-73 933.5,-73 933.5,-43 451.5,-43"/>
<text text-anchor="start" x="458.5" y="-54.4" font-family="Arial" font-size="14.00" fill="#000000">twofa_totp_last_used_at </text>
<text text-anchor="start" x="614.1212" y="-54.4" font-family="Arial" font-size="14.00" fill="#666666">[int(11)]</text>
</g>
<!-- changesets&#45;&gt;users -->
<g id="edge5" class="edge">
<title>changesets:user_id&#45;&gt;users:id</title>
<path fill="none" stroke="#000000" stroke-dasharray="5,2" d="M579.4619,-855.8659C592.8615,-846.7688 583.0004,-816.2335 569.5,-798 536.8724,-753.9335 484.1276,-806.0665 451.5,-762 423.995,-724.8521 405.2778,-658 451.5,-658"/>
<polygon fill="#000000" stroke="#000000" points="579.1677,-855.9436 568.3496,-854.1495 574.3339,-857.2218 569.5,-858.5 569.5,-858.5 569.5,-858.5 574.3339,-857.2218 570.6504,-862.8505 579.1677,-855.9436 579.1677,-855.9436"/>
<text text-anchor="start" x="576.768" y="-868.5" font-family="Arial" font-size="10.00" fill="#000000">Detected Relation</text>
</g>
<!-- changes -->
<g id="node2" class="node">
<title>changes</title>
<polygon fill="#efefef" stroke="transparent" points="43.5,-1513.5 43.5,-1548.5 232.5,-1548.5 232.5,-1513.5 43.5,-1513.5"/>
<polygon fill="none" stroke="#000000" points="43.5,-1513.5 43.5,-1548.5 232.5,-1548.5 232.5,-1513.5 43.5,-1513.5"/>
<text text-anchor="start" x="55.3576" y="-1526.3" font-family="Arial Bold" font-size="18.00" fill="#000000">changes</text>
<text text-anchor="start" x="123.3886" y="-1526.3" font-family="Arial" font-size="14.00" fill="#000000"> </text>
<text text-anchor="start" x="127.2792" y="-1526.3" font-family="Arial" font-size="14.00" fill="#666666">[BASE TABLE]</text>
<polygon fill="none" stroke="#000000" points="43.5,-1483.5 43.5,-1513.5 232.5,-1513.5 232.5,-1483.5 43.5,-1483.5"/>
<text text-anchor="start" x="50.5" y="-1494.9" font-family="Arial" font-size="14.00" fill="#000000">id </text>
<text text-anchor="start" x="65.2798" y="-1494.9" font-family="Arial" font-size="14.00" fill="#666666">[int(11)]</text>
<polygon fill="none" stroke="#000000" points="43.5,-1453.5 43.5,-1483.5 232.5,-1483.5 232.5,-1453.5 43.5,-1453.5"/>
<text text-anchor="start" x="50.5" y="-1464.9" font-family="Arial" font-size="14.00" fill="#000000">changeset_id </text>
<text text-anchor="start" x="137.6486" y="-1464.9" font-family="Arial" font-size="14.00" fill="#666666">[int(11)]</text>
<polygon fill="none" stroke="#000000" points="43.5,-1423.5 43.5,-1453.5 232.5,-1453.5 232.5,-1423.5 43.5,-1423.5"/>
<text text-anchor="start" x="50.5" y="-1434.9" font-family="Arial" font-size="14.00" fill="#000000">action </text>
<text text-anchor="start" x="91.7356" y="-1434.9" font-family="Arial" font-size="14.00" fill="#666666">[varchar(1)]</text>
<polygon fill="none" stroke="#000000" points="43.5,-1393.5 43.5,-1423.5 232.5,-1423.5 232.5,-1393.5 43.5,-1393.5"/>
<text text-anchor="start" x="50.5" y="-1404.9" font-family="Arial" font-size="14.00" fill="#000000">path </text>
<text text-anchor="start" x="81.629" y="-1404.9" font-family="Arial" font-size="14.00" fill="#666666">[text]</text>
<polygon fill="none" stroke="#000000" points="43.5,-1363.5 43.5,-1393.5 232.5,-1393.5 232.5,-1363.5 43.5,-1363.5"/>
<text text-anchor="start" x="50.5" y="-1374.9" font-family="Arial" font-size="14.00" fill="#000000">from_path </text>
<text text-anchor="start" x="117.406" y="-1374.9" font-family="Arial" font-size="14.00" fill="#666666">[text]</text>
<polygon fill="none" stroke="#000000" points="43.5,-1333.5 43.5,-1363.5 232.5,-1363.5 232.5,-1333.5 43.5,-1333.5"/>
<text text-anchor="start" x="50.4958" y="-1344.9" font-family="Arial" font-size="14.00" fill="#000000">from_revision </text>
<text text-anchor="start" x="138.385" y="-1344.9" font-family="Arial" font-size="14.00" fill="#666666">[varchar(255)]</text>
<polygon fill="none" stroke="#000000" points="43.5,-1303.5 43.5,-1333.5 232.5,-1333.5 232.5,-1303.5 43.5,-1303.5"/>
<text text-anchor="start" x="50.5" y="-1314.9" font-family="Arial" font-size="14.00" fill="#000000">revision </text>
<text text-anchor="start" x="102.6122" y="-1314.9" font-family="Arial" font-size="14.00" fill="#666666">[varchar(255)]</text>
<polygon fill="none" stroke="#000000" points="43.5,-1273.5 43.5,-1303.5 232.5,-1303.5 232.5,-1273.5 43.5,-1273.5"/>
<text text-anchor="start" x="50.5" y="-1284.9" font-family="Arial" font-size="14.00" fill="#000000">branch </text>
<text text-anchor="start" x="97.1816" y="-1284.9" font-family="Arial" font-size="14.00" fill="#666666">[varchar(255)]</text>
</g>
<!-- changes&#45;&gt;changesets -->
<g id="edge1" class="edge">
<title>changes:changeset_id&#45;&gt;changesets:id</title>
<path fill="none" stroke="#000000" stroke-dasharray="5,2" d="M242.2883,-1466.1156C283.7526,-1444.2134 265.5632,-1277.7505 284.5,-1231 310.5001,-1166.812 297.2461,-1098.5 366.5,-1098.5"/>
<polygon fill="#000000" stroke="#000000" points="242.2159,-1466.1332 231.4349,-1464.1278 237.3579,-1467.3166 232.5,-1468.5 232.5,-1468.5 232.5,-1468.5 237.3579,-1467.3166 233.5651,-1472.8722 242.2159,-1466.1332 242.2159,-1466.1332"/>
<text text-anchor="start" x="239.768" y="-1478.5" font-family="Arial" font-size="10.00" fill="#000000">Detected Relation</text>
</g>
<!-- changesets_issues -->
<g id="node3" class="node">
<title>changesets_issues</title>
<polygon fill="#efefef" stroke="transparent" points="336.5,-1423.5 336.5,-1458.5 600.5,-1458.5 600.5,-1423.5 336.5,-1423.5"/>
<polygon fill="none" stroke="#000000" points="336.5,-1423.5 336.5,-1458.5 600.5,-1458.5 600.5,-1423.5 336.5,-1423.5"/>
<text text-anchor="start" x="343.347" y="-1436.3" font-family="Arial Bold" font-size="18.00" fill="#000000">changesets_issues</text>
<text text-anchor="start" x="496.3992" y="-1436.3" font-family="Arial" font-size="14.00" fill="#000000"> </text>
<text text-anchor="start" x="500.2898" y="-1436.3" font-family="Arial" font-size="14.00" fill="#666666">[BASE TABLE]</text>
<polygon fill="none" stroke="#000000" points="336.5,-1393.5 336.5,-1423.5 600.5,-1423.5 600.5,-1393.5 336.5,-1393.5"/>
<text text-anchor="start" x="343.5" y="-1404.9" font-family="Arial" font-size="14.00" fill="#000000">changeset_id </text>
<text text-anchor="start" x="430.6486" y="-1404.9" font-family="Arial" font-size="14.00" fill="#666666">[int(11)]</text>
<polygon fill="none" stroke="#000000" points="336.5,-1363.5 336.5,-1393.5 600.5,-1393.5 600.5,-1363.5 336.5,-1363.5"/>
<text text-anchor="start" x="343.5" y="-1374.9" font-family="Arial" font-size="14.00" fill="#000000">issue_id </text>
<text text-anchor="start" x="398.7342" y="-1374.9" font-family="Arial" font-size="14.00" fill="#666666">[int(11)]</text>
</g>
<!-- changesets_issues&#45;&gt;changesets -->
<g id="edge2" class="edge">
<title>changesets_issues:changeset_id&#45;&gt;changesets:id</title>
<path fill="none" stroke="#000000" stroke-dasharray="5,2" d="M326.3821,-1406.9044C301.4755,-1397.7253 318.6105,-1351.0119 336.5,-1321 396.7786,-1219.8751 509.2214,-1296.1249 569.5,-1195 591.4599,-1158.1595 612.3889,-1098.5 569.5,-1098.5"/>
<polygon fill="#000000" stroke="#000000" points="326.6221,-1406.9421 335.799,-1412.9451 331.561,-1407.7211 336.5,-1408.5 336.5,-1408.5 336.5,-1408.5 331.561,-1407.7211 337.201,-1404.0549 326.6221,-1406.9421 326.6221,-1406.9421"/>
<text text-anchor="start" x="250.768" y="-1418.5" font-family="Arial" font-size="10.00" fill="#000000">Detected Relation</text>
</g>
<!-- changeset_parents -->
<g id="node4" class="node">
<title>changeset_parents</title>
<polygon fill="#efefef" stroke="transparent" points="704.5,-1423.5 704.5,-1458.5 968.5,-1458.5 968.5,-1423.5 704.5,-1423.5"/>
<polygon fill="none" stroke="#000000" points="704.5,-1423.5 704.5,-1458.5 968.5,-1458.5 968.5,-1423.5 704.5,-1423.5"/>
<text text-anchor="start" x="711.3407" y="-1436.3" font-family="Arial Bold" font-size="18.00" fill="#000000">changeset_parents</text>
<text text-anchor="start" x="864.4055" y="-1436.3" font-family="Arial" font-size="14.00" fill="#000000"> </text>
<text text-anchor="start" x="868.2961" y="-1436.3" font-family="Arial" font-size="14.00" fill="#666666">[BASE TABLE]</text>
<polygon fill="none" stroke="#000000" points="704.5,-1393.5 704.5,-1423.5 968.5,-1423.5 968.5,-1393.5 704.5,-1393.5"/>
<text text-anchor="start" x="711.5" y="-1404.9" font-family="Arial" font-size="14.00" fill="#000000">changeset_id </text>
<text text-anchor="start" x="798.6486" y="-1404.9" font-family="Arial" font-size="14.00" fill="#666666">[int(11)]</text>
<polygon fill="none" stroke="#000000" points="704.5,-1363.5 704.5,-1393.5 968.5,-1393.5 968.5,-1363.5 704.5,-1363.5"/>
<text text-anchor="start" x="711.5" y="-1374.9" font-family="Arial" font-size="14.00" fill="#000000">parent_id </text>
<text text-anchor="start" x="773.744" y="-1374.9" font-family="Arial" font-size="14.00" fill="#666666">[int(11)]</text>
</g>
<!-- changeset_parents&#45;&gt;changesets -->
<g id="edge3" class="edge">
<title>changeset_parents:changeset_id&#45;&gt;changesets:id</title>
<path fill="none" stroke="#000000" stroke-dasharray="5,2" d="M694.2841,-1407.8912C627.8393,-1399.345 684.6788,-1302.6144 652.5,-1231 624.0194,-1167.6159 638.9888,-1098.5 569.5,-1098.5"/>
<polygon fill="#000000" stroke="#000000" points="694.5177,-1407.905 704.2322,-1412.992 699.5089,-1408.2025 704.5,-1408.5 704.5,-1408.5 704.5,-1408.5 699.5089,-1408.2025 704.7678,-1404.008 694.5177,-1407.905 694.5177,-1407.905"/>
<text text-anchor="start" x="618.768" y="-1418.5" font-family="Arial" font-size="10.00" fill="#000000">Detected Relation</text>
</g>
</g>
</svg>
