<?xml version="1.0" encoding="UTF-8" standalone="no"?>
<!DOCTYPE svg PUBLIC "-//W3C//DTD SVG 1.1//EN"
 "http://www.w3.org/Graphics/SVG/1.1/DTD/svg11.dtd">
<!-- Generated by graphviz version 2.40.1 (20161225.0304)
 -->
<!-- Title: changeset_parents Pages: 1 -->
<svg width="411pt" height="622pt"
 viewBox="0.00 0.00 411.00 622.00" xmlns="http://www.w3.org/2000/svg" xmlns:xlink="http://www.w3.org/1999/xlink">
<g id="graph0" class="graph" transform="scale(1 1) rotate(0) translate(4 618)">
<title>changeset_parents</title>
<polygon fill="#ffffff" stroke="transparent" points="-4,4 -4,-618 407,-618 407,4 -4,4"/>
<!-- changeset_parents -->
<g id="node1" class="node">
<title>changeset_parents</title>
<polygon fill="#efefef" stroke="transparent" points="93,-532.5 93,-567.5 357,-567.5 357,-532.5 93,-532.5"/>
<polygon fill="none" stroke="#000000" points="93,-532.5 93,-567.5 357,-567.5 357,-532.5 93,-532.5"/>
<text text-anchor="start" x="99.8407" y="-545.3" font-family="Arial Bold" font-size="18.00" fill="#000000">changeset_parents</text>
<text text-anchor="start" x="252.9055" y="-545.3" font-family="Arial" font-size="14.00" fill="#000000"> </text>
<text text-anchor="start" x="256.7961" y="-545.3" font-family="Arial" font-size="14.00" fill="#666666">[BASE TABLE]</text>
<polygon fill="none" stroke="#000000" points="93,-502.5 93,-532.5 357,-532.5 357,-502.5 93,-502.5"/>
<text text-anchor="start" x="100" y="-513.9" font-family="Arial" font-size="14.00" fill="#000000">changeset_id </text>
<text text-anchor="start" x="187.1486" y="-513.9" font-family="Arial" font-size="14.00" fill="#666666">[int(11)]</text>
<polygon fill="none" stroke="#000000" points="93,-472.5 93,-502.5 357,-502.5 357,-472.5 93,-472.5"/>
<text text-anchor="start" x="100" y="-483.9" font-family="Arial" font-size="14.00" fill="#000000">parent_id </text>
<text text-anchor="start" x="162.244" y="-483.9" font-family="Arial" font-size="14.00" fill="#666666">[int(11)]</text>
<polygon fill="none" stroke="#000000" stroke-width="3" points="91.5,-471.5 91.5,-569.5 358.5,-569.5 358.5,-471.5 91.5,-471.5"/>
</g>
<!-- changesets -->
<g id="node2" class="node">
<title>changesets</title>
<polygon fill="#efefef" stroke="transparent" points="123,-312.5 123,-347.5 326,-347.5 326,-312.5 123,-312.5"/>
<polygon fill="none" stroke="#000000" points="123,-312.5 123,-347.5 326,-347.5 326,-312.5 123,-312.5"/>
<text text-anchor="start" x="129.8534" y="-325.3" font-family="Arial Bold" font-size="18.00" fill="#000000">changesets</text>
<text text-anchor="start" x="221.8928" y="-325.3" font-family="Arial" font-size="14.00" fill="#000000"> </text>
<text text-anchor="start" x="225.7834" y="-325.3" font-family="Arial" font-size="14.00" fill="#666666">[BASE TABLE]</text>
<polygon fill="none" stroke="#000000" points="123,-282.5 123,-312.5 326,-312.5 326,-282.5 123,-282.5"/>
<text text-anchor="start" x="130" y="-293.9" font-family="Arial" font-size="14.00" fill="#000000">id </text>
<text text-anchor="start" x="144.7798" y="-293.9" font-family="Arial" font-size="14.00" fill="#666666">[int(11)]</text>
<polygon fill="none" stroke="#000000" points="123,-252.5 123,-282.5 326,-282.5 326,-252.5 123,-252.5"/>
<text text-anchor="start" x="130" y="-263.9" font-family="Arial" font-size="14.00" fill="#000000">repository_id </text>
<text text-anchor="start" x="214.0112" y="-263.9" font-family="Arial" font-size="14.00" fill="#666666">[int(11)]</text>
<polygon fill="none" stroke="#000000" points="123,-222.5 123,-252.5 326,-252.5 326,-222.5 123,-222.5"/>
<text text-anchor="start" x="130" y="-233.9" font-family="Arial" font-size="14.00" fill="#000000">revision </text>
<text text-anchor="start" x="182.1122" y="-233.9" font-family="Arial" font-size="14.00" fill="#666666">[varchar(255)]</text>
<polygon fill="none" stroke="#000000" points="123,-192.5 123,-222.5 326,-222.5 326,-192.5 123,-192.5"/>
<text text-anchor="start" x="130" y="-203.9" font-family="Arial" font-size="14.00" fill="#000000">committer </text>
<text text-anchor="start" x="195.3254" y="-203.9" font-family="Arial" font-size="14.00" fill="#666666">[varchar(255)]</text>
<polygon fill="none" stroke="#000000" points="123,-162.5 123,-192.5 326,-192.5 326,-162.5 123,-162.5"/>
<text text-anchor="start" x="130" y="-173.9" font-family="Arial" font-size="14.00" fill="#000000">committed_on </text>
<text text-anchor="start" x="221.7952" y="-173.9" font-family="Arial" font-size="14.00" fill="#666666">[datetime]</text>
<polygon fill="none" stroke="#000000" points="123,-132.5 123,-162.5 326,-162.5 326,-132.5 123,-132.5"/>
<text text-anchor="start" x="130" y="-143.9" font-family="Arial" font-size="14.00" fill="#000000">comments </text>
<text text-anchor="start" x="198.4502" y="-143.9" font-family="Arial" font-size="14.00" fill="#666666">[longtext]</text>
<polygon fill="none" stroke="#000000" points="123,-102.5 123,-132.5 326,-132.5 326,-102.5 123,-102.5"/>
<text text-anchor="start" x="130" y="-113.9" font-family="Arial" font-size="14.00" fill="#000000">commit_date </text>
<text text-anchor="start" x="214.0126" y="-113.9" font-family="Arial" font-size="14.00" fill="#666666">[date]</text>
<polygon fill="none" stroke="#000000" points="123,-72.5 123,-102.5 326,-102.5 326,-72.5 123,-72.5"/>
<text text-anchor="start" x="130" y="-83.9" font-family="Arial" font-size="14.00" fill="#000000">scmid </text>
<text text-anchor="start" x="170.4404" y="-83.9" font-family="Arial" font-size="14.00" fill="#666666">[varchar(255)]</text>
<polygon fill="none" stroke="#000000" points="123,-42.5 123,-72.5 326,-72.5 326,-42.5 123,-42.5"/>
<text text-anchor="start" x="130" y="-53.9" font-family="Arial" font-size="14.00" fill="#000000">user_id </text>
<text text-anchor="start" x="179.7882" y="-53.9" font-family="Arial" font-size="14.00" fill="#666666">[int(11)]</text>
</g>
<!-- changeset_parents&#45;&gt;changesets -->
<g id="edge1" class="edge">
<title>changeset_parents:changeset_id&#45;&gt;changesets:id</title>
<path fill="none" stroke="#000000" stroke-dasharray="5,2" d="M83.0836,-515.9926C55.5174,-506.5153 69.2743,-454.673 93,-427 161.2027,-347.4503 257.7973,-470.5497 326,-391 353.0479,-359.452 367.5556,-297.5 326,-297.5"/>
<polygon fill="#000000" stroke="#000000" points="83.1136,-515.997 92.3237,-521.9489 88.0568,-516.7485 93,-517.5 93,-517.5 93,-517.5 88.0568,-516.7485 93.6763,-513.0511 83.1136,-515.997 83.1136,-515.997"/>
<text text-anchor="start" x="7.268" y="-527.5" font-family="Arial" font-size="10.00" fill="#000000">Detected Relation</text>
</g>
</g>
</svg>
