<?xml version="1.0" encoding="UTF-8" standalone="no"?>
<!DOCTYPE svg PUBLIC "-//W3C//DTD SVG 1.1//EN"
 "http://www.w3.org/Graphics/SVG/1.1/DTD/svg11.dtd">
<!-- Generated by graphviz version 2.40.1 (20161225.0304)
 -->
<!-- Title: custom_fields_roles Pages: 1 -->
<svg width="3122pt" height="944pt"
 viewBox="0.00 0.00 3122.00 944.00" xmlns="http://www.w3.org/2000/svg" xmlns:xlink="http://www.w3.org/1999/xlink">
<g id="graph0" class="graph" transform="scale(1 1) rotate(0) translate(4 940)">
<title>custom_fields_roles</title>
<polygon fill="#ffffff" stroke="transparent" points="-4,4 -4,-940 3118,-940 3118,4 -4,4"/>
<!-- custom_fields_roles -->
<g id="node1" class="node">
<title>custom_fields_roles</title>
<polygon fill="#efefef" stroke="transparent" points="1893.5,-844 1893.5,-890 2163.5,-890 2163.5,-844 1893.5,-844"/>
<polygon fill="none" stroke="#000000" points="1893.5,-844 1893.5,-890 2163.5,-890 2163.5,-844 1893.5,-844"/>
<text text-anchor="start" x="1900.3626" y="-867.8" font-family="Arial Bold" font-size="18.00" fill="#000000">custom_fields_roles</text>
<text text-anchor="start" x="2059.3836" y="-867.8" font-family="Arial" font-size="14.00" fill="#000000"> </text>
<text text-anchor="start" x="2063.2742" y="-867.8" font-family="Arial" font-size="14.00" fill="#666666">[BASE TABLE]</text>
<text text-anchor="start" x="1923.9109" y="-853.4" font-family="Arial" font-size="14.00" fill="#333333">カスタムフィールド⇔ロール</text>
<polygon fill="none" stroke="#000000" points="1893.5,-814 1893.5,-844 2163.5,-844 2163.5,-814 1893.5,-814"/>
<text text-anchor="start" x="1900.5" y="-825.4" font-family="Arial" font-size="14.00" fill="#000000">custom_field_id </text>
<text text-anchor="start" x="2001.6304" y="-825.4" font-family="Arial" font-size="14.00" fill="#666666">[int(11)]</text>
<polygon fill="none" stroke="#000000" points="1893.5,-784 1893.5,-814 2163.5,-814 2163.5,-784 1893.5,-784"/>
<text text-anchor="start" x="1900.5" y="-795.4" font-family="Arial" font-size="14.00" fill="#000000">role_id </text>
<text text-anchor="start" x="1946.3948" y="-795.4" font-family="Arial" font-size="14.00" fill="#666666">[int(11)]</text>
<polygon fill="none" stroke="#000000" stroke-width="3" points="1892,-782.5 1892,-891.5 2165,-891.5 2165,-782.5 1892,-782.5"/>
</g>
<!-- custom_fields -->
<g id="node2" class="node">
<title>custom_fields</title>
<polygon fill="#efefef" stroke="transparent" points="43.5,-613 43.5,-659 2446.5,-659 2446.5,-613 43.5,-613"/>
<polygon fill="none" stroke="#000000" points="43.5,-613 43.5,-659 2446.5,-659 2446.5,-613 43.5,-613"/>
<text text-anchor="start" x="1141.3651" y="-636.8" font-family="Arial Bold" font-size="18.00" fill="#000000">custom_fields</text>
<text text-anchor="start" x="1251.3811" y="-636.8" font-family="Arial" font-size="14.00" fill="#000000"> </text>
<text text-anchor="start" x="1255.2717" y="-636.8" font-family="Arial" font-size="14.00" fill="#666666">[BASE TABLE]</text>
<text text-anchor="start" x="1173.0722" y="-622.4" font-family="Arial" font-size="14.00" fill="#333333">カスタムフィールド</text>
<polygon fill="none" stroke="#000000" points="43.5,-583 43.5,-613 2446.5,-613 2446.5,-583 43.5,-583"/>
<text text-anchor="start" x="50.5" y="-594.4" font-family="Arial" font-size="14.00" fill="#000000">id </text>
<text text-anchor="start" x="65.2798" y="-594.4" font-family="Arial" font-size="14.00" fill="#666666">[int(11)]</text>
<polygon fill="none" stroke="#000000" points="43.5,-553 43.5,-583 2446.5,-583 2446.5,-553 43.5,-553"/>
<text text-anchor="start" x="50.3359" y="-564.4" font-family="Arial" font-size="14.00" fill="#000000">type </text>
<text text-anchor="start" x="80.6823" y="-564.4" font-family="Arial" font-size="14.00" fill="#666666">[varchar(30)]</text>
<text text-anchor="start" x="160.0189" y="-564.4" font-family="Arial" font-size="14.00" fill="#000000"> IssueCustomField:チケット TimeEntryCustomField:作業時間 ProjectCustomField:プロジェクト VersionCustomField:バージョン DocumentCustomField:文書 UserCustomField:ユーザー GroupCustomField:グループ TimeEntryActivityCustomField:作業分類(時間管理) IssuePriorityCustomField:チケットの優先度 DocumentCategoryCustomField:文書カテゴリ </text>
<polygon fill="none" stroke="#000000" points="43.5,-523 43.5,-553 2446.5,-553 2446.5,-523 43.5,-523"/>
<text text-anchor="start" x="50.5" y="-534.4" font-family="Arial" font-size="14.00" fill="#000000">name </text>
<text text-anchor="start" x="89.399" y="-534.4" font-family="Arial" font-size="14.00" fill="#666666">[varchar(30)]</text>
<polygon fill="none" stroke="#000000" points="43.5,-493 43.5,-523 2446.5,-523 2446.5,-493 43.5,-493"/>
<text text-anchor="start" x="50.5" y="-504.4" font-family="Arial" font-size="14.00" fill="#000000">field_format </text>
<text text-anchor="start" x="127.5098" y="-504.4" font-family="Arial" font-size="14.00" fill="#666666">[varchar(30)]</text>
<text text-anchor="start" x="206.8464" y="-504.4" font-family="Arial" font-size="14.00" fill="#000000"> string:テキスト version:バージョン attachment:ファイル user:ユーザー list:リスト link:リンク float:小数 int:整数 整数:日付 bool:真偽値 text:長いテキスト </text>
<polygon fill="none" stroke="#000000" points="43.5,-463 43.5,-493 2446.5,-493 2446.5,-463 43.5,-463"/>
<text text-anchor="start" x="50.5" y="-474.4" font-family="Arial" font-size="14.00" fill="#000000">possible_values </text>
<text text-anchor="start" x="153.9712" y="-474.4" font-family="Arial" font-size="14.00" fill="#666666">[text]</text>
<polygon fill="none" stroke="#000000" points="43.5,-433 43.5,-463 2446.5,-463 2446.5,-433 43.5,-433"/>
<text text-anchor="start" x="50.5" y="-444.4" font-family="Arial" font-size="14.00" fill="#000000">regexp </text>
<text text-anchor="start" x="97.1816" y="-444.4" font-family="Arial" font-size="14.00" fill="#666666">[varchar(255)]</text>
<polygon fill="none" stroke="#000000" points="43.5,-403 43.5,-433 2446.5,-433 2446.5,-403 43.5,-403"/>
<text text-anchor="start" x="50.5" y="-414.4" font-family="Arial" font-size="14.00" fill="#000000">min_length </text>
<text text-anchor="start" x="122.8506" y="-414.4" font-family="Arial" font-size="14.00" fill="#666666">[int(11)]</text>
<polygon fill="none" stroke="#000000" points="43.5,-373 43.5,-403 2446.5,-403 2446.5,-373 43.5,-373"/>
<text text-anchor="start" x="50.5" y="-384.4" font-family="Arial" font-size="14.00" fill="#000000">max_length </text>
<text text-anchor="start" x="126.744" y="-384.4" font-family="Arial" font-size="14.00" fill="#666666">[int(11)]</text>
<polygon fill="none" stroke="#000000" points="43.5,-343 43.5,-373 2446.5,-373 2446.5,-343 43.5,-343"/>
<text text-anchor="start" x="50.5" y="-354.4" font-family="Arial" font-size="14.00" fill="#000000">is_required </text>
<text text-anchor="start" x="123.6206" y="-354.4" font-family="Arial" font-size="14.00" fill="#666666">[tinyint(1)]</text>
<polygon fill="none" stroke="#000000" points="43.5,-313 43.5,-343 2446.5,-343 2446.5,-313 43.5,-313"/>
<text text-anchor="start" x="50.5" y="-324.4" font-family="Arial" font-size="14.00" fill="#000000">is_for_all </text>
<text text-anchor="start" x="110.392" y="-324.4" font-family="Arial" font-size="14.00" fill="#666666">[tinyint(1)]</text>
<polygon fill="none" stroke="#000000" points="43.5,-283 43.5,-313 2446.5,-313 2446.5,-283 43.5,-283"/>
<text text-anchor="start" x="50.5" y="-294.4" font-family="Arial" font-size="14.00" fill="#000000">is_filter </text>
<text text-anchor="start" x="98.7174" y="-294.4" font-family="Arial" font-size="14.00" fill="#666666">[tinyint(1)]</text>
<polygon fill="none" stroke="#000000" points="43.5,-253 43.5,-283 2446.5,-283 2446.5,-253 43.5,-253"/>
<text text-anchor="start" x="50.5" y="-264.4" font-family="Arial" font-size="14.00" fill="#000000">position </text>
<text text-anchor="start" x="102.6248" y="-264.4" font-family="Arial" font-size="14.00" fill="#666666">[int(11)]</text>
<polygon fill="none" stroke="#000000" points="43.5,-223 43.5,-253 2446.5,-253 2446.5,-223 43.5,-223"/>
<text text-anchor="start" x="50.5" y="-234.4" font-family="Arial" font-size="14.00" fill="#000000">searchable </text>
<text text-anchor="start" x="122.8534" y="-234.4" font-family="Arial" font-size="14.00" fill="#666666">[tinyint(1)]</text>
<polygon fill="none" stroke="#000000" points="43.5,-193 43.5,-223 2446.5,-223 2446.5,-193 43.5,-193"/>
<text text-anchor="start" x="50.5" y="-204.4" font-family="Arial" font-size="14.00" fill="#000000">default_value </text>
<text text-anchor="start" x="137.6458" y="-204.4" font-family="Arial" font-size="14.00" fill="#666666">[text]</text>
<polygon fill="none" stroke="#000000" points="43.5,-163 43.5,-193 2446.5,-193 2446.5,-163 43.5,-163"/>
<text text-anchor="start" x="50.5" y="-174.4" font-family="Arial" font-size="14.00" fill="#000000">editable </text>
<text text-anchor="start" x="103.4074" y="-174.4" font-family="Arial" font-size="14.00" fill="#666666">[tinyint(1)]</text>
<polygon fill="none" stroke="#000000" points="43.5,-133 43.5,-163 2446.5,-163 2446.5,-133 43.5,-133"/>
<text text-anchor="start" x="50.5" y="-144.4" font-family="Arial" font-size="14.00" fill="#000000">visible </text>
<text text-anchor="start" x="93.2756" y="-144.4" font-family="Arial" font-size="14.00" fill="#666666">[tinyint(1)]</text>
<polygon fill="none" stroke="#000000" points="43.5,-103 43.5,-133 2446.5,-133 2446.5,-103 43.5,-103"/>
<text text-anchor="start" x="50.5" y="-114.4" font-family="Arial" font-size="14.00" fill="#000000">multiple </text>
<text text-anchor="start" x="102.6094" y="-114.4" font-family="Arial" font-size="14.00" fill="#666666">[tinyint(1)]</text>
<polygon fill="none" stroke="#000000" points="43.5,-73 43.5,-103 2446.5,-103 2446.5,-73 43.5,-73"/>
<text text-anchor="start" x="50.5" y="-84.4" font-family="Arial" font-size="14.00" fill="#000000">format_store </text>
<text text-anchor="start" x="132.9572" y="-84.4" font-family="Arial" font-size="14.00" fill="#666666">[text]</text>
<polygon fill="none" stroke="#000000" points="43.5,-43 43.5,-73 2446.5,-73 2446.5,-43 43.5,-43"/>
<text text-anchor="start" x="50.5" y="-54.4" font-family="Arial" font-size="14.00" fill="#000000">description </text>
<text text-anchor="start" x="122.068" y="-54.4" font-family="Arial" font-size="14.00" fill="#666666">[text]</text>
</g>
<!-- custom_fields_roles&#45;&gt;custom_fields -->
<g id="edge1" class="edge">
<title>custom_fields_roles:custom_field_id&#45;&gt;custom_fields:id</title>
<path fill="none" stroke="#000000" stroke-dasharray="5,2" d="M1883.497,-827.4558C1855.5844,-817.7522 1868.4385,-764.746 1893.5,-738 1977.7036,-648.1366 2362.2964,-791.8634 2446.5,-702 2478.1046,-668.271 2492.7222,-598 2446.5,-598"/>
<polygon fill="#000000" stroke="#000000" points="1883.6171,-827.4742 1892.8134,-833.4473 1888.5585,-828.2371 1893.5,-829 1893.5,-829 1893.5,-829 1888.5585,-828.2371 1894.1866,-824.5527 1883.6171,-827.4742 1883.6171,-827.4742"/>
<text text-anchor="start" x="1803.8245" y="-839" font-family="Arial" font-size="10.00" fill="#000000">Additional Relation</text>
</g>
<!-- roles -->
<g id="node3" class="node">
<title>roles</title>
<polygon fill="#efefef" stroke="transparent" points="2550.5,-493 2550.5,-539 3071.5,-539 3071.5,-493 2550.5,-493"/>
<polygon fill="none" stroke="#000000" points="2550.5,-493 2550.5,-539 3071.5,-539 3071.5,-493 2550.5,-493"/>
<text text-anchor="start" x="2742.8737" y="-516.8" font-family="Arial Bold" font-size="18.00" fill="#000000">roles</text>
<text text-anchor="start" x="2781.8725" y="-516.8" font-family="Arial" font-size="14.00" fill="#000000"> </text>
<text text-anchor="start" x="2785.7631" y="-516.8" font-family="Arial" font-size="14.00" fill="#666666">[BASE TABLE]</text>
<text text-anchor="start" x="2784.1746" y="-502.4" font-family="Arial" font-size="14.00" fill="#333333">ロール</text>
<polygon fill="none" stroke="#000000" points="2550.5,-463 2550.5,-493 3071.5,-493 3071.5,-463 2550.5,-463"/>
<text text-anchor="start" x="2557.5" y="-474.4" font-family="Arial" font-size="14.00" fill="#000000">id </text>
<text text-anchor="start" x="2572.2798" y="-474.4" font-family="Arial" font-size="14.00" fill="#666666">[int(11)]</text>
<polygon fill="none" stroke="#000000" points="2550.5,-433 2550.5,-463 3071.5,-463 3071.5,-433 2550.5,-433"/>
<text text-anchor="start" x="2557.5" y="-444.4" font-family="Arial" font-size="14.00" fill="#000000">name </text>
<text text-anchor="start" x="2596.399" y="-444.4" font-family="Arial" font-size="14.00" fill="#666666">[varchar(255)]</text>
<text text-anchor="start" x="2683.5182" y="-444.4" font-family="Arial" font-size="14.00" fill="#000000"> 名称</text>
<polygon fill="none" stroke="#000000" points="2550.5,-403 2550.5,-433 3071.5,-433 3071.5,-403 2550.5,-403"/>
<text text-anchor="start" x="2557.5" y="-414.4" font-family="Arial" font-size="14.00" fill="#000000">position </text>
<text text-anchor="start" x="2609.6248" y="-414.4" font-family="Arial" font-size="14.00" fill="#666666">[int(11)]</text>
<text text-anchor="start" x="2657.0722" y="-414.4" font-family="Arial" font-size="14.00" fill="#000000"> 並び順</text>
<polygon fill="none" stroke="#000000" points="2550.5,-373 2550.5,-403 3071.5,-403 3071.5,-373 2550.5,-373"/>
<text text-anchor="start" x="2557.1933" y="-384.4" font-family="Arial" font-size="14.00" fill="#000000">assignable </text>
<text text-anchor="start" x="2627.9927" y="-384.4" font-family="Arial" font-size="14.00" fill="#666666">[tinyint(1)]</text>
<text text-anchor="start" x="2689.4373" y="-384.4" font-family="Arial" font-size="14.00" fill="#000000"> このロールのユーザーにチケットを割り当て可能</text>
<polygon fill="none" stroke="#000000" points="2550.5,-343 2550.5,-373 3071.5,-373 3071.5,-343 2550.5,-343"/>
<text text-anchor="start" x="2557.5" y="-354.4" font-family="Arial" font-size="14.00" fill="#000000">builtin </text>
<text text-anchor="start" x="2597.9488" y="-354.4" font-family="Arial" font-size="14.00" fill="#666666">[int(11)]</text>
<text text-anchor="start" x="2645.3962" y="-354.4" font-family="Arial" font-size="14.00" fill="#000000"> 1: 非メンバー 2: 匿名ユーザー 0: それ以外 </text>
<polygon fill="none" stroke="#000000" points="2550.5,-313 2550.5,-343 3071.5,-343 3071.5,-313 2550.5,-313"/>
<text text-anchor="start" x="2557.5" y="-324.4" font-family="Arial" font-size="14.00" fill="#000000">permissions </text>
<text text-anchor="start" x="2636.0554" y="-324.4" font-family="Arial" font-size="14.00" fill="#666666">[text]</text>
<text text-anchor="start" x="2666.4004" y="-324.4" font-family="Arial" font-size="14.00" fill="#000000"> 権限</text>
<polygon fill="none" stroke="#000000" points="2550.5,-283 2550.5,-313 3071.5,-313 3071.5,-283 2550.5,-283"/>
<text text-anchor="start" x="2557.5" y="-294.4" font-family="Arial" font-size="14.00" fill="#000000">issues_visibility </text>
<text text-anchor="start" x="2657.0512" y="-294.4" font-family="Arial" font-size="14.00" fill="#666666">[varchar(30)]</text>
<text text-anchor="start" x="2736.3878" y="-294.4" font-family="Arial" font-size="14.00" fill="#000000"> 表示できるチケット</text>
<polygon fill="none" stroke="#000000" points="2550.5,-253 2550.5,-283 3071.5,-283 3071.5,-253 2550.5,-253"/>
<text text-anchor="start" x="2557.5" y="-264.4" font-family="Arial" font-size="14.00" fill="#000000">users_visibility </text>
<text text-anchor="start" x="2651.6052" y="-264.4" font-family="Arial" font-size="14.00" fill="#666666">[varchar(30)]</text>
<text text-anchor="start" x="2730.9418" y="-264.4" font-family="Arial" font-size="14.00" fill="#000000"> 表示できるユーザー</text>
<polygon fill="none" stroke="#000000" points="2550.5,-223 2550.5,-253 3071.5,-253 3071.5,-223 2550.5,-223"/>
<text text-anchor="start" x="2557.5" y="-234.4" font-family="Arial" font-size="14.00" fill="#000000">time_entries_visibility </text>
<text text-anchor="start" x="2693.608" y="-234.4" font-family="Arial" font-size="14.00" fill="#666666">[varchar(30)]</text>
<text text-anchor="start" x="2772.9446" y="-234.4" font-family="Arial" font-size="14.00" fill="#000000"> 表示できる作業時間</text>
<polygon fill="none" stroke="#000000" points="2550.5,-193 2550.5,-223 3071.5,-223 3071.5,-193 2550.5,-193"/>
<text text-anchor="start" x="2557.5" y="-204.4" font-family="Arial" font-size="14.00" fill="#000000">all_roles_managed </text>
<text text-anchor="start" x="2679.6402" y="-204.4" font-family="Arial" font-size="14.00" fill="#666666">[tinyint(1)]</text>
<text text-anchor="start" x="2741.0848" y="-204.4" font-family="Arial" font-size="14.00" fill="#000000"> メンバーの管理(すべてのロール)</text>
<polygon fill="none" stroke="#000000" points="2550.5,-163 2550.5,-193 3071.5,-193 3071.5,-163 2550.5,-163"/>
<text text-anchor="start" x="2557.5" y="-174.4" font-family="Arial" font-size="14.00" fill="#000000">settings </text>
<text text-anchor="start" x="2609.6262" y="-174.4" font-family="Arial" font-size="14.00" fill="#666666">[text]</text>
</g>
<!-- custom_fields_roles&#45;&gt;roles -->
<g id="edge2" class="edge">
<title>custom_fields_roles:role_id&#45;&gt;roles:id</title>
<path fill="none" stroke="#000000" stroke-dasharray="5,2" d="M2173.6566,-798.7961C2257.4983,-795.6316 2447.3763,-755.9477 2498.5,-702 2568.8006,-627.816 2448.2971,-478 2550.5,-478"/>
<polygon fill="#000000" stroke="#000000" points="2173.498,-798.7992 2163.4096,-794.5009 2168.499,-798.8996 2163.5,-799 2163.5,-799 2163.5,-799 2168.499,-798.8996 2163.5904,-803.4991 2173.498,-798.7992 2173.498,-798.7992"/>
<text text-anchor="start" x="2170.8245" y="-809" font-family="Arial" font-size="10.00" fill="#000000">Additional Relation</text>
</g>
</g>
</svg>
