<?xml version="1.0" encoding="UTF-8" standalone="no"?>
<!DOCTYPE svg PUBLIC "-//W3C//DTD SVG 1.1//EN"
 "http://www.w3.org/Graphics/SVG/1.1/DTD/svg11.dtd">
<!-- Generated by graphviz version 2.40.1 (20161225.0304)
 -->
<!-- Title: custom_values Pages: 1 -->
<svg width="382pt" height="1034pt"
 viewBox="0.00 0.00 381.50 1034.00" xmlns="http://www.w3.org/2000/svg" xmlns:xlink="http://www.w3.org/1999/xlink">
<g id="graph0" class="graph" transform="scale(1 1) rotate(0) translate(4 1030)">
<title>custom_values</title>
<polygon fill="#ffffff" stroke="transparent" points="-4,4 -4,-1030 377.5,-1030 377.5,4 -4,4"/>
<!-- custom_values -->
<g id="node1" class="node">
<title>custom_values</title>
<polygon fill="#efefef" stroke="transparent" points="97,-934 97,-980 328,-980 328,-934 97,-934"/>
<polygon fill="none" stroke="#000000" points="97,-934 97,-980 328,-980 328,-934 97,-934"/>
<text text-anchor="start" x="103.8602" y="-957.8" font-family="Arial Bold" font-size="18.00" fill="#000000">custom_values</text>
<text text-anchor="start" x="223.886" y="-957.8" font-family="Arial" font-size="14.00" fill="#000000"> </text>
<text text-anchor="start" x="227.7766" y="-957.8" font-family="Arial" font-size="14.00" fill="#666666">[BASE TABLE]</text>
<text text-anchor="start" x="127.4787" y="-943.4" font-family="Arial" font-size="14.00" fill="#333333">カスタムフィールドの値</text>
<polygon fill="none" stroke="#000000" points="97,-904 97,-934 328,-934 328,-904 97,-904"/>
<text text-anchor="start" x="104" y="-915.4" font-family="Arial" font-size="14.00" fill="#000000">id </text>
<text text-anchor="start" x="118.7798" y="-915.4" font-family="Arial" font-size="14.00" fill="#666666">[int(11)]</text>
<polygon fill="none" stroke="#000000" points="97,-874 97,-904 328,-904 328,-874 97,-874"/>
<text text-anchor="start" x="104" y="-885.4" font-family="Arial" font-size="14.00" fill="#000000">customized_type </text>
<text text-anchor="start" x="212.9172" y="-885.4" font-family="Arial" font-size="14.00" fill="#666666">[varchar(30)]</text>
<polygon fill="none" stroke="#000000" points="97,-844 97,-874 328,-874 328,-844 97,-844"/>
<text text-anchor="start" x="104" y="-855.4" font-family="Arial" font-size="14.00" fill="#000000">customized_id </text>
<text text-anchor="start" x="197.3506" y="-855.4" font-family="Arial" font-size="14.00" fill="#666666">[int(11)]</text>
<polygon fill="none" stroke="#000000" points="97,-814 97,-844 328,-844 328,-814 97,-814"/>
<text text-anchor="start" x="104" y="-825.4" font-family="Arial" font-size="14.00" fill="#000000">custom_field_id </text>
<text text-anchor="start" x="205.1304" y="-825.4" font-family="Arial" font-size="14.00" fill="#666666">[int(11)]</text>
<polygon fill="none" stroke="#000000" points="97,-784 97,-814 328,-814 328,-784 97,-784"/>
<text text-anchor="start" x="104" y="-795.4" font-family="Arial" font-size="14.00" fill="#000000">value </text>
<text text-anchor="start" x="141.345" y="-795.4" font-family="Arial" font-size="14.00" fill="#666666">[longtext]</text>
<polygon fill="none" stroke="#000000" stroke-width="3" points="95,-782.5 95,-981.5 329,-981.5 329,-782.5 95,-782.5"/>
</g>
<!-- custom_fields -->
<g id="node2" class="node">
<title>custom_fields</title>
<polygon fill="#efefef" stroke="transparent" points="102,-613 102,-659 323,-659 323,-613 102,-613"/>
<polygon fill="none" stroke="#000000" points="102,-613 102,-659 323,-659 323,-613 102,-613"/>
<text text-anchor="start" x="108.8651" y="-636.8" font-family="Arial Bold" font-size="18.00" fill="#000000">custom_fields</text>
<text text-anchor="start" x="218.8811" y="-636.8" font-family="Arial" font-size="14.00" fill="#000000"> </text>
<text text-anchor="start" x="222.7717" y="-636.8" font-family="Arial" font-size="14.00" fill="#666666">[BASE TABLE]</text>
<text text-anchor="start" x="140.5722" y="-622.4" font-family="Arial" font-size="14.00" fill="#333333">カスタムフィールド</text>
<polygon fill="none" stroke="#000000" points="102,-583 102,-613 323,-613 323,-583 102,-583"/>
<text text-anchor="start" x="109" y="-594.4" font-family="Arial" font-size="14.00" fill="#000000">id </text>
<text text-anchor="start" x="123.7798" y="-594.4" font-family="Arial" font-size="14.00" fill="#666666">[int(11)]</text>
<polygon fill="none" stroke="#000000" points="102,-553 102,-583 323,-583 323,-553 102,-553"/>
<text text-anchor="start" x="109" y="-564.4" font-family="Arial" font-size="14.00" fill="#000000">type </text>
<text text-anchor="start" x="139.3464" y="-564.4" font-family="Arial" font-size="14.00" fill="#666666">[varchar(30)]</text>
<polygon fill="none" stroke="#000000" points="102,-523 102,-553 323,-553 323,-523 102,-523"/>
<text text-anchor="start" x="109" y="-534.4" font-family="Arial" font-size="14.00" fill="#000000">name </text>
<text text-anchor="start" x="147.899" y="-534.4" font-family="Arial" font-size="14.00" fill="#666666">[varchar(30)]</text>
<polygon fill="none" stroke="#000000" points="102,-493 102,-523 323,-523 323,-493 102,-493"/>
<text text-anchor="start" x="109" y="-504.4" font-family="Arial" font-size="14.00" fill="#000000">field_format </text>
<text text-anchor="start" x="186.0098" y="-504.4" font-family="Arial" font-size="14.00" fill="#666666">[varchar(30)]</text>
<polygon fill="none" stroke="#000000" points="102,-463 102,-493 323,-493 323,-463 102,-463"/>
<text text-anchor="start" x="109" y="-474.4" font-family="Arial" font-size="14.00" fill="#000000">possible_values </text>
<text text-anchor="start" x="212.4712" y="-474.4" font-family="Arial" font-size="14.00" fill="#666666">[text]</text>
<polygon fill="none" stroke="#000000" points="102,-433 102,-463 323,-463 323,-433 102,-433"/>
<text text-anchor="start" x="109" y="-444.4" font-family="Arial" font-size="14.00" fill="#000000">regexp </text>
<text text-anchor="start" x="155.6816" y="-444.4" font-family="Arial" font-size="14.00" fill="#666666">[varchar(255)]</text>
<polygon fill="none" stroke="#000000" points="102,-403 102,-433 323,-433 323,-403 102,-403"/>
<text text-anchor="start" x="109" y="-414.4" font-family="Arial" font-size="14.00" fill="#000000">min_length </text>
<text text-anchor="start" x="181.3506" y="-414.4" font-family="Arial" font-size="14.00" fill="#666666">[int(11)]</text>
<polygon fill="none" stroke="#000000" points="102,-373 102,-403 323,-403 323,-373 102,-373"/>
<text text-anchor="start" x="109" y="-384.4" font-family="Arial" font-size="14.00" fill="#000000">max_length </text>
<text text-anchor="start" x="185.244" y="-384.4" font-family="Arial" font-size="14.00" fill="#666666">[int(11)]</text>
<polygon fill="none" stroke="#000000" points="102,-343 102,-373 323,-373 323,-343 102,-343"/>
<text text-anchor="start" x="109" y="-354.4" font-family="Arial" font-size="14.00" fill="#000000">is_required </text>
<text text-anchor="start" x="182.1206" y="-354.4" font-family="Arial" font-size="14.00" fill="#666666">[tinyint(1)]</text>
<polygon fill="none" stroke="#000000" points="102,-313 102,-343 323,-343 323,-313 102,-313"/>
<text text-anchor="start" x="109" y="-324.4" font-family="Arial" font-size="14.00" fill="#000000">is_for_all </text>
<text text-anchor="start" x="168.892" y="-324.4" font-family="Arial" font-size="14.00" fill="#666666">[tinyint(1)]</text>
<polygon fill="none" stroke="#000000" points="102,-283 102,-313 323,-313 323,-283 102,-283"/>
<text text-anchor="start" x="109" y="-294.4" font-family="Arial" font-size="14.00" fill="#000000">is_filter </text>
<text text-anchor="start" x="157.2174" y="-294.4" font-family="Arial" font-size="14.00" fill="#666666">[tinyint(1)]</text>
<polygon fill="none" stroke="#000000" points="102,-253 102,-283 323,-283 323,-253 102,-253"/>
<text text-anchor="start" x="109" y="-264.4" font-family="Arial" font-size="14.00" fill="#000000">position </text>
<text text-anchor="start" x="161.1248" y="-264.4" font-family="Arial" font-size="14.00" fill="#666666">[int(11)]</text>
<polygon fill="none" stroke="#000000" points="102,-223 102,-253 323,-253 323,-223 102,-223"/>
<text text-anchor="start" x="109" y="-234.4" font-family="Arial" font-size="14.00" fill="#000000">searchable </text>
<text text-anchor="start" x="181.3534" y="-234.4" font-family="Arial" font-size="14.00" fill="#666666">[tinyint(1)]</text>
<polygon fill="none" stroke="#000000" points="102,-193 102,-223 323,-223 323,-193 102,-193"/>
<text text-anchor="start" x="109" y="-204.4" font-family="Arial" font-size="14.00" fill="#000000">default_value </text>
<text text-anchor="start" x="196.1458" y="-204.4" font-family="Arial" font-size="14.00" fill="#666666">[text]</text>
<polygon fill="none" stroke="#000000" points="102,-163 102,-193 323,-193 323,-163 102,-163"/>
<text text-anchor="start" x="109" y="-174.4" font-family="Arial" font-size="14.00" fill="#000000">editable </text>
<text text-anchor="start" x="161.9074" y="-174.4" font-family="Arial" font-size="14.00" fill="#666666">[tinyint(1)]</text>
<polygon fill="none" stroke="#000000" points="102,-133 102,-163 323,-163 323,-133 102,-133"/>
<text text-anchor="start" x="109" y="-144.4" font-family="Arial" font-size="14.00" fill="#000000">visible </text>
<text text-anchor="start" x="151.7756" y="-144.4" font-family="Arial" font-size="14.00" fill="#666666">[tinyint(1)]</text>
<polygon fill="none" stroke="#000000" points="102,-103 102,-133 323,-133 323,-103 102,-103"/>
<text text-anchor="start" x="109" y="-114.4" font-family="Arial" font-size="14.00" fill="#000000">multiple </text>
<text text-anchor="start" x="161.1094" y="-114.4" font-family="Arial" font-size="14.00" fill="#666666">[tinyint(1)]</text>
<polygon fill="none" stroke="#000000" points="102,-73 102,-103 323,-103 323,-73 102,-73"/>
<text text-anchor="start" x="109" y="-84.4" font-family="Arial" font-size="14.00" fill="#000000">format_store </text>
<text text-anchor="start" x="191.4572" y="-84.4" font-family="Arial" font-size="14.00" fill="#666666">[text]</text>
<polygon fill="none" stroke="#000000" points="102,-43 102,-73 323,-73 323,-43 102,-43"/>
<text text-anchor="start" x="109" y="-54.4" font-family="Arial" font-size="14.00" fill="#000000">description </text>
<text text-anchor="start" x="180.568" y="-54.4" font-family="Arial" font-size="14.00" fill="#666666">[text]</text>
</g>
<!-- custom_values&#45;&gt;custom_fields -->
<g id="edge1" class="edge">
<title>custom_values:custom_field_id&#45;&gt;custom_fields:id</title>
<path fill="none" stroke="#000000" stroke-dasharray="5,2" d="M86.8472,-828.2088C-5.2348,-813.4789 2.8192,-598 102,-598"/>
<polygon fill="#000000" stroke="#000000" points="87.0302,-828.223 96.6504,-833.4864 92.0151,-828.6115 97,-829 97,-829 97,-829 92.0151,-828.6115 97.3496,-824.5136 87.0302,-828.223 87.0302,-828.223"/>
<text text-anchor="start" x="7.3245" y="-839" font-family="Arial" font-size="10.00" fill="#000000">Additional Relation</text>
</g>
</g>
</svg>
