<?xml version="1.0" encoding="UTF-8" standalone="no"?>
<!DOCTYPE svg PUBLIC "-//W3C//DTD SVG 1.1//EN"
 "http://www.w3.org/Graphics/SVG/1.1/DTD/svg11.dtd">
<!-- Generated by graphviz version 2.40.1 (20161225.0304)
 -->
<!-- Title: custom_fields Pages: 1 -->
<svg width="1932pt" height="1034pt"
 viewBox="0.00 0.00 1931.50 1034.00" xmlns="http://www.w3.org/2000/svg" xmlns:xlink="http://www.w3.org/1999/xlink">
<g id="graph0" class="graph" transform="scale(1 1) rotate(0) translate(4 1030)">
<title>custom_fields</title>
<polygon fill="#ffffff" stroke="transparent" points="-4,4 -4,-1030 1927.5,-1030 1927.5,4 -4,4"/>
<!-- custom_fields -->
<g id="node1" class="node">
<title>custom_fields</title>
<polygon fill="#efefef" stroke="transparent" points="853,-616 853,-662 1074,-662 1074,-616 853,-616"/>
<polygon fill="none" stroke="#000000" points="853,-616 853,-662 1074,-662 1074,-616 853,-616"/>
<text text-anchor="start" x="859.8651" y="-639.8" font-family="Arial Bold" font-size="18.00" fill="#000000">custom_fields</text>
<text text-anchor="start" x="969.8811" y="-639.8" font-family="Arial" font-size="14.00" fill="#000000"> </text>
<text text-anchor="start" x="973.7717" y="-639.8" font-family="Arial" font-size="14.00" fill="#666666">[BASE TABLE]</text>
<text text-anchor="start" x="891.5722" y="-625.4" font-family="Arial" font-size="14.00" fill="#333333">カスタムフィールド</text>
<polygon fill="none" stroke="#000000" points="853,-586 853,-616 1074,-616 1074,-586 853,-586"/>
<text text-anchor="start" x="860" y="-597.4" font-family="Arial" font-size="14.00" fill="#000000">id </text>
<text text-anchor="start" x="874.7798" y="-597.4" font-family="Arial" font-size="14.00" fill="#666666">[int(11)]</text>
<polygon fill="none" stroke="#000000" points="853,-556 853,-586 1074,-586 1074,-556 853,-556"/>
<text text-anchor="start" x="860" y="-567.4" font-family="Arial" font-size="14.00" fill="#000000">type </text>
<text text-anchor="start" x="890.3464" y="-567.4" font-family="Arial" font-size="14.00" fill="#666666">[varchar(30)]</text>
<polygon fill="none" stroke="#000000" points="853,-526 853,-556 1074,-556 1074,-526 853,-526"/>
<text text-anchor="start" x="860" y="-537.4" font-family="Arial" font-size="14.00" fill="#000000">name </text>
<text text-anchor="start" x="898.899" y="-537.4" font-family="Arial" font-size="14.00" fill="#666666">[varchar(30)]</text>
<polygon fill="none" stroke="#000000" points="853,-496 853,-526 1074,-526 1074,-496 853,-496"/>
<text text-anchor="start" x="860" y="-507.4" font-family="Arial" font-size="14.00" fill="#000000">field_format </text>
<text text-anchor="start" x="937.0098" y="-507.4" font-family="Arial" font-size="14.00" fill="#666666">[varchar(30)]</text>
<polygon fill="none" stroke="#000000" points="853,-466 853,-496 1074,-496 1074,-466 853,-466"/>
<text text-anchor="start" x="860" y="-477.4" font-family="Arial" font-size="14.00" fill="#000000">possible_values </text>
<text text-anchor="start" x="963.4712" y="-477.4" font-family="Arial" font-size="14.00" fill="#666666">[text]</text>
<polygon fill="none" stroke="#000000" points="853,-436 853,-466 1074,-466 1074,-436 853,-436"/>
<text text-anchor="start" x="860" y="-447.4" font-family="Arial" font-size="14.00" fill="#000000">regexp </text>
<text text-anchor="start" x="906.6816" y="-447.4" font-family="Arial" font-size="14.00" fill="#666666">[varchar(255)]</text>
<polygon fill="none" stroke="#000000" points="853,-406 853,-436 1074,-436 1074,-406 853,-406"/>
<text text-anchor="start" x="860" y="-417.4" font-family="Arial" font-size="14.00" fill="#000000">min_length </text>
<text text-anchor="start" x="932.3506" y="-417.4" font-family="Arial" font-size="14.00" fill="#666666">[int(11)]</text>
<polygon fill="none" stroke="#000000" points="853,-376 853,-406 1074,-406 1074,-376 853,-376"/>
<text text-anchor="start" x="860" y="-387.4" font-family="Arial" font-size="14.00" fill="#000000">max_length </text>
<text text-anchor="start" x="936.244" y="-387.4" font-family="Arial" font-size="14.00" fill="#666666">[int(11)]</text>
<polygon fill="none" stroke="#000000" points="853,-346 853,-376 1074,-376 1074,-346 853,-346"/>
<text text-anchor="start" x="860" y="-357.4" font-family="Arial" font-size="14.00" fill="#000000">is_required </text>
<text text-anchor="start" x="933.1206" y="-357.4" font-family="Arial" font-size="14.00" fill="#666666">[tinyint(1)]</text>
<polygon fill="none" stroke="#000000" points="853,-316 853,-346 1074,-346 1074,-316 853,-316"/>
<text text-anchor="start" x="860" y="-327.4" font-family="Arial" font-size="14.00" fill="#000000">is_for_all </text>
<text text-anchor="start" x="919.892" y="-327.4" font-family="Arial" font-size="14.00" fill="#666666">[tinyint(1)]</text>
<polygon fill="none" stroke="#000000" points="853,-286 853,-316 1074,-316 1074,-286 853,-286"/>
<text text-anchor="start" x="860" y="-297.4" font-family="Arial" font-size="14.00" fill="#000000">is_filter </text>
<text text-anchor="start" x="908.2174" y="-297.4" font-family="Arial" font-size="14.00" fill="#666666">[tinyint(1)]</text>
<polygon fill="none" stroke="#000000" points="853,-256 853,-286 1074,-286 1074,-256 853,-256"/>
<text text-anchor="start" x="860" y="-267.4" font-family="Arial" font-size="14.00" fill="#000000">position </text>
<text text-anchor="start" x="912.1248" y="-267.4" font-family="Arial" font-size="14.00" fill="#666666">[int(11)]</text>
<polygon fill="none" stroke="#000000" points="853,-226 853,-256 1074,-256 1074,-226 853,-226"/>
<text text-anchor="start" x="860" y="-237.4" font-family="Arial" font-size="14.00" fill="#000000">searchable </text>
<text text-anchor="start" x="932.3534" y="-237.4" font-family="Arial" font-size="14.00" fill="#666666">[tinyint(1)]</text>
<polygon fill="none" stroke="#000000" points="853,-196 853,-226 1074,-226 1074,-196 853,-196"/>
<text text-anchor="start" x="860" y="-207.4" font-family="Arial" font-size="14.00" fill="#000000">default_value </text>
<text text-anchor="start" x="947.1458" y="-207.4" font-family="Arial" font-size="14.00" fill="#666666">[text]</text>
<polygon fill="none" stroke="#000000" points="853,-166 853,-196 1074,-196 1074,-166 853,-166"/>
<text text-anchor="start" x="860" y="-177.4" font-family="Arial" font-size="14.00" fill="#000000">editable </text>
<text text-anchor="start" x="912.9074" y="-177.4" font-family="Arial" font-size="14.00" fill="#666666">[tinyint(1)]</text>
<polygon fill="none" stroke="#000000" points="853,-136 853,-166 1074,-166 1074,-136 853,-136"/>
<text text-anchor="start" x="860" y="-147.4" font-family="Arial" font-size="14.00" fill="#000000">visible </text>
<text text-anchor="start" x="902.7756" y="-147.4" font-family="Arial" font-size="14.00" fill="#666666">[tinyint(1)]</text>
<polygon fill="none" stroke="#000000" points="853,-106 853,-136 1074,-136 1074,-106 853,-106"/>
<text text-anchor="start" x="860" y="-117.4" font-family="Arial" font-size="14.00" fill="#000000">multiple </text>
<text text-anchor="start" x="912.1094" y="-117.4" font-family="Arial" font-size="14.00" fill="#666666">[tinyint(1)]</text>
<polygon fill="none" stroke="#000000" points="853,-76 853,-106 1074,-106 1074,-76 853,-76"/>
<text text-anchor="start" x="860" y="-87.4" font-family="Arial" font-size="14.00" fill="#000000">format_store </text>
<text text-anchor="start" x="942.4572" y="-87.4" font-family="Arial" font-size="14.00" fill="#666666">[text]</text>
<polygon fill="none" stroke="#000000" points="853,-46 853,-76 1074,-76 1074,-46 853,-46"/>
<text text-anchor="start" x="860" y="-57.4" font-family="Arial" font-size="14.00" fill="#000000">description </text>
<text text-anchor="start" x="931.568" y="-57.4" font-family="Arial" font-size="14.00" fill="#666666">[text]</text>
<polygon fill="none" stroke="#000000" stroke-width="3" points="851,-44.5 851,-663.5 1075,-663.5 1075,-44.5 851,-44.5"/>
</g>
<!-- custom_fields_roles -->
<g id="node2" class="node">
<title>custom_fields_roles</title>
<polygon fill="#efefef" stroke="transparent" points="43,-892 43,-938 313,-938 313,-892 43,-892"/>
<polygon fill="none" stroke="#000000" points="43,-892 43,-938 313,-938 313,-892 43,-892"/>
<text text-anchor="start" x="49.8626" y="-915.8" font-family="Arial Bold" font-size="18.00" fill="#000000">custom_fields_roles</text>
<text text-anchor="start" x="208.8836" y="-915.8" font-family="Arial" font-size="14.00" fill="#000000"> </text>
<text text-anchor="start" x="212.7742" y="-915.8" font-family="Arial" font-size="14.00" fill="#666666">[BASE TABLE]</text>
<text text-anchor="start" x="73.4109" y="-901.4" font-family="Arial" font-size="14.00" fill="#333333">カスタムフィールド⇔ロール</text>
<polygon fill="none" stroke="#000000" points="43,-862 43,-892 313,-892 313,-862 43,-862"/>
<text text-anchor="start" x="50" y="-873.4" font-family="Arial" font-size="14.00" fill="#000000">custom_field_id </text>
<text text-anchor="start" x="151.1304" y="-873.4" font-family="Arial" font-size="14.00" fill="#666666">[int(11)]</text>
<polygon fill="none" stroke="#000000" points="43,-832 43,-862 313,-862 313,-832 43,-832"/>
<text text-anchor="start" x="50" y="-843.4" font-family="Arial" font-size="14.00" fill="#000000">role_id </text>
<text text-anchor="start" x="95.8948" y="-843.4" font-family="Arial" font-size="14.00" fill="#666666">[int(11)]</text>
</g>
<!-- custom_fields_roles&#45;&gt;custom_fields -->
<g id="edge1" class="edge">
<title>custom_fields_roles:custom_field_id&#45;&gt;custom_fields:id</title>
<path fill="none" stroke="#000000" stroke-dasharray="5,2" d="M323.2399,-876.0393C369.7975,-866.259 321.0316,-784.274 365,-744 448.3304,-667.6713 739.9955,-601 853,-601"/>
<polygon fill="#000000" stroke="#000000" points="322.9563,-876.0658 312.5796,-872.5197 317.9781,-876.5329 313,-877 313,-877 313,-877 317.9781,-876.5329 313.4204,-881.4803 322.9563,-876.0658 322.9563,-876.0658"/>
<text text-anchor="start" x="320.3245" y="-887" font-family="Arial" font-size="10.00" fill="#000000">Additional Relation</text>
</g>
<!-- custom_fields_projects -->
<g id="node3" class="node">
<title>custom_fields_projects</title>
<polygon fill="#efefef" stroke="transparent" points="417,-892 417,-938 711,-938 711,-892 417,-892"/>
<polygon fill="none" stroke="#000000" points="417,-892 417,-938 711,-938 711,-892 417,-892"/>
<text text-anchor="start" x="423.8584" y="-915.8" font-family="Arial Bold" font-size="18.00" fill="#000000">custom_fields_projects</text>
<text text-anchor="start" x="606.8878" y="-915.8" font-family="Arial" font-size="14.00" fill="#000000"> </text>
<text text-anchor="start" x="610.7784" y="-915.8" font-family="Arial" font-size="14.00" fill="#666666">[BASE TABLE]</text>
<text text-anchor="start" x="443.8632" y="-901.4" font-family="Arial" font-size="14.00" fill="#333333">カスタムフィールド⇔プロジェクト</text>
<polygon fill="none" stroke="#000000" points="417,-862 417,-892 711,-892 711,-862 417,-862"/>
<text text-anchor="start" x="424" y="-873.4" font-family="Arial" font-size="14.00" fill="#000000">custom_field_id </text>
<text text-anchor="start" x="525.1304" y="-873.4" font-family="Arial" font-size="14.00" fill="#666666">[int(11)]</text>
<polygon fill="none" stroke="#000000" points="417,-832 417,-862 711,-862 711,-832 417,-832"/>
<text text-anchor="start" x="424" y="-843.4" font-family="Arial" font-size="14.00" fill="#000000">project_id </text>
<text text-anchor="start" x="488.568" y="-843.4" font-family="Arial" font-size="14.00" fill="#666666">[int(11)]</text>
</g>
<!-- custom_fields_projects&#45;&gt;custom_fields -->
<g id="edge2" class="edge">
<title>custom_fields_projects:custom_field_id&#45;&gt;custom_fields:id</title>
<path fill="none" stroke="#000000" stroke-dasharray="5,2" d="M721.1249,-876.2331C770.0102,-868.1222 736.0884,-797.3459 763,-744 796.8234,-676.9531 777.9047,-601 853,-601"/>
<polygon fill="#000000" stroke="#000000" points="720.9714,-876.2446 710.6601,-872.5129 715.9857,-876.6223 711,-877 711,-877 711,-877 715.9857,-876.6223 711.3399,-881.4871 720.9714,-876.2446 720.9714,-876.2446"/>
<text text-anchor="start" x="718.3245" y="-887" font-family="Arial" font-size="10.00" fill="#000000">Additional Relation</text>
</g>
<!-- custom_fields_trackers -->
<g id="node4" class="node">
<title>custom_fields_trackers</title>
<polygon fill="#efefef" stroke="transparent" points="816,-892 816,-938 1111,-938 1111,-892 816,-892"/>
<polygon fill="none" stroke="#000000" points="816,-892 816,-938 1111,-938 1111,-892 816,-892"/>
<text text-anchor="start" x="822.8625" y="-915.8" font-family="Arial Bold" font-size="18.00" fill="#000000">custom_fields_trackers</text>
<text text-anchor="start" x="1006.8837" y="-915.8" font-family="Arial" font-size="14.00" fill="#000000"> </text>
<text text-anchor="start" x="1010.7743" y="-915.8" font-family="Arial" font-size="14.00" fill="#666666">[BASE TABLE]</text>
<text text-anchor="start" x="846.9451" y="-901.4" font-family="Arial" font-size="14.00" fill="#333333">カスタムフィールド⇔トラッカー</text>
<polygon fill="none" stroke="#000000" points="816,-862 816,-892 1111,-892 1111,-862 816,-862"/>
<text text-anchor="start" x="823" y="-873.4" font-family="Arial" font-size="14.00" fill="#000000">custom_field_id </text>
<text text-anchor="start" x="924.1304" y="-873.4" font-family="Arial" font-size="14.00" fill="#666666">[int(11)]</text>
<polygon fill="none" stroke="#000000" points="816,-832 816,-862 1111,-862 1111,-832 816,-832"/>
<text text-anchor="start" x="823" y="-843.4" font-family="Arial" font-size="14.00" fill="#000000">tracker_id </text>
<text text-anchor="start" x="888.3394" y="-843.4" font-family="Arial" font-size="14.00" fill="#666666">[int(11)]</text>
</g>
<!-- custom_fields_trackers&#45;&gt;custom_fields -->
<g id="edge3" class="edge">
<title>custom_fields_trackers:custom_field_id&#45;&gt;custom_fields:id</title>
<path fill="none" stroke="#000000" stroke-dasharray="5,2" d="M806.1259,-874.2683C758.5394,-845.6038 794.7439,-601 853,-601"/>
<polygon fill="#000000" stroke="#000000" points="806.362,-874.3336 814.8001,-881.3371 811.181,-875.6668 816,-877 816,-877 816,-877 811.181,-875.6668 817.1999,-872.6629 806.362,-874.3336 806.362,-874.3336"/>
<text text-anchor="start" x="726.3245" y="-861" font-family="Arial" font-size="10.00" fill="#000000">Additional Relation</text>
</g>
<!-- custom_field_enumerations -->
<g id="node5" class="node">
<title>custom_field_enumerations</title>
<polygon fill="#efefef" stroke="transparent" points="1215,-942 1215,-977 1546,-977 1546,-942 1215,-942"/>
<polygon fill="none" stroke="#000000" points="1215,-942 1215,-977 1546,-977 1546,-942 1215,-942"/>
<text text-anchor="start" x="1221.8499" y="-954.8" font-family="Arial Bold" font-size="18.00" fill="#000000">custom_field_enumerations</text>
<text text-anchor="start" x="1441.8963" y="-954.8" font-family="Arial" font-size="14.00" fill="#000000"> </text>
<text text-anchor="start" x="1445.7869" y="-954.8" font-family="Arial" font-size="14.00" fill="#666666">[BASE TABLE]</text>
<polygon fill="none" stroke="#000000" points="1215,-912 1215,-942 1546,-942 1546,-912 1215,-912"/>
<text text-anchor="start" x="1222" y="-923.4" font-family="Arial" font-size="14.00" fill="#000000">id </text>
<text text-anchor="start" x="1236.7798" y="-923.4" font-family="Arial" font-size="14.00" fill="#666666">[int(11)]</text>
<polygon fill="none" stroke="#000000" points="1215,-882 1215,-912 1546,-912 1546,-882 1215,-882"/>
<text text-anchor="start" x="1222" y="-893.4" font-family="Arial" font-size="14.00" fill="#000000">custom_field_id </text>
<text text-anchor="start" x="1323.1304" y="-893.4" font-family="Arial" font-size="14.00" fill="#666666">[int(11)]</text>
<polygon fill="none" stroke="#000000" points="1215,-852 1215,-882 1546,-882 1546,-852 1215,-852"/>
<text text-anchor="start" x="1222" y="-863.4" font-family="Arial" font-size="14.00" fill="#000000">name </text>
<text text-anchor="start" x="1260.899" y="-863.4" font-family="Arial" font-size="14.00" fill="#666666">[varchar(255)]</text>
<polygon fill="none" stroke="#000000" points="1215,-822 1215,-852 1546,-852 1546,-822 1215,-822"/>
<text text-anchor="start" x="1222" y="-833.4" font-family="Arial" font-size="14.00" fill="#000000">active </text>
<text text-anchor="start" x="1262.453" y="-833.4" font-family="Arial" font-size="14.00" fill="#666666">[tinyint(1)]</text>
<polygon fill="none" stroke="#000000" points="1215,-792 1215,-822 1546,-822 1546,-792 1215,-792"/>
<text text-anchor="start" x="1222" y="-803.4" font-family="Arial" font-size="14.00" fill="#000000">position </text>
<text text-anchor="start" x="1274.1248" y="-803.4" font-family="Arial" font-size="14.00" fill="#666666">[int(11)]</text>
</g>
<!-- custom_field_enumerations&#45;&gt;custom_fields -->
<g id="edge4" class="edge">
<title>custom_field_enumerations:custom_field_id&#45;&gt;custom_fields:id</title>
<path fill="none" stroke="#000000" stroke-dasharray="5,2" d="M1204.9787,-896.3331C1148.1045,-888.1134 1192.1711,-805.6166 1163,-744 1130.9677,-676.3399 1148.8595,-601 1074,-601"/>
<polygon fill="#000000" stroke="#000000" points="1205.0221,-896.3359 1214.7012,-901.4901 1210.011,-896.668 1215,-897 1215,-897 1215,-897 1210.011,-896.668 1215.2988,-892.5099 1205.0221,-896.3359 1205.0221,-896.3359"/>
<text text-anchor="start" x="1125.3245" y="-907" font-family="Arial" font-size="10.00" fill="#000000">Additional Relation</text>
</g>
<!-- custom_values -->
<g id="node6" class="node">
<title>custom_values</title>
<polygon fill="#efefef" stroke="transparent" points="1650,-937 1650,-983 1881,-983 1881,-937 1650,-937"/>
<polygon fill="none" stroke="#000000" points="1650,-937 1650,-983 1881,-983 1881,-937 1650,-937"/>
<text text-anchor="start" x="1656.8602" y="-960.8" font-family="Arial Bold" font-size="18.00" fill="#000000">custom_values</text>
<text text-anchor="start" x="1776.886" y="-960.8" font-family="Arial" font-size="14.00" fill="#000000"> </text>
<text text-anchor="start" x="1780.7766" y="-960.8" font-family="Arial" font-size="14.00" fill="#666666">[BASE TABLE]</text>
<text text-anchor="start" x="1680.4787" y="-946.4" font-family="Arial" font-size="14.00" fill="#333333">カスタムフィールドの値</text>
<polygon fill="none" stroke="#000000" points="1650,-907 1650,-937 1881,-937 1881,-907 1650,-907"/>
<text text-anchor="start" x="1657" y="-918.4" font-family="Arial" font-size="14.00" fill="#000000">id </text>
<text text-anchor="start" x="1671.7798" y="-918.4" font-family="Arial" font-size="14.00" fill="#666666">[int(11)]</text>
<polygon fill="none" stroke="#000000" points="1650,-877 1650,-907 1881,-907 1881,-877 1650,-877"/>
<text text-anchor="start" x="1657" y="-888.4" font-family="Arial" font-size="14.00" fill="#000000">customized_type </text>
<text text-anchor="start" x="1765.9172" y="-888.4" font-family="Arial" font-size="14.00" fill="#666666">[varchar(30)]</text>
<polygon fill="none" stroke="#000000" points="1650,-847 1650,-877 1881,-877 1881,-847 1650,-847"/>
<text text-anchor="start" x="1657" y="-858.4" font-family="Arial" font-size="14.00" fill="#000000">customized_id </text>
<text text-anchor="start" x="1750.3506" y="-858.4" font-family="Arial" font-size="14.00" fill="#666666">[int(11)]</text>
<polygon fill="none" stroke="#000000" points="1650,-817 1650,-847 1881,-847 1881,-817 1650,-817"/>
<text text-anchor="start" x="1657" y="-828.4" font-family="Arial" font-size="14.00" fill="#000000">custom_field_id </text>
<text text-anchor="start" x="1758.1304" y="-828.4" font-family="Arial" font-size="14.00" fill="#666666">[int(11)]</text>
<polygon fill="none" stroke="#000000" points="1650,-787 1650,-817 1881,-817 1881,-787 1650,-787"/>
<text text-anchor="start" x="1657" y="-798.4" font-family="Arial" font-size="14.00" fill="#000000">value </text>
<text text-anchor="start" x="1694.345" y="-798.4" font-family="Arial" font-size="14.00" fill="#666666">[longtext]</text>
</g>
<!-- custom_values&#45;&gt;custom_fields -->
<g id="edge5" class="edge">
<title>custom_values:custom_field_id&#45;&gt;custom_fields:id</title>
<path fill="none" stroke="#000000" stroke-dasharray="5,2" d="M1639.8597,-830.7201C1609.1642,-821.8541 1631.0134,-769.1882 1598,-744 1502.0386,-670.7843 1194.7027,-601 1074,-601"/>
<polygon fill="#000000" stroke="#000000" points="1640.0787,-830.7476 1649.4364,-836.4646 1645.0394,-831.3738 1650,-832 1650,-832 1650,-832 1645.0394,-831.3738 1650.5636,-827.5354 1640.0787,-830.7476 1640.0787,-830.7476"/>
<text text-anchor="start" x="1560.3245" y="-842" font-family="Arial" font-size="10.00" fill="#000000">Additional Relation</text>
</g>
</g>
</svg>
