<?xml version="1.0" encoding="UTF-8" standalone="no"?>
<!DOCTYPE svg PUBLIC "-//W3C//DTD SVG 1.1//EN"
 "http://www.w3.org/Graphics/SVG/1.1/DTD/svg11.dtd">
<!-- Generated by graphviz version 2.40.1 (20161225.0304)
 -->
<!-- Title: custom_fields_projects Pages: 1 -->
<svg width="628pt" height="944pt"
 viewBox="0.00 0.00 628.00 944.00" xmlns="http://www.w3.org/2000/svg" xmlns:xlink="http://www.w3.org/1999/xlink">
<g id="graph0" class="graph" transform="scale(1 1) rotate(0) translate(4 940)">
<title>custom_fields_projects</title>
<polygon fill="#ffffff" stroke="transparent" points="-4,4 -4,-940 624,-940 624,4 -4,4"/>
<!-- custom_fields_projects -->
<g id="node1" class="node">
<title>custom_fields_projects</title>
<polygon fill="#efefef" stroke="transparent" points="166.5,-844 166.5,-890 460.5,-890 460.5,-844 166.5,-844"/>
<polygon fill="none" stroke="#000000" points="166.5,-844 166.5,-890 460.5,-890 460.5,-844 166.5,-844"/>
<text text-anchor="start" x="173.3584" y="-867.8" font-family="Arial Bold" font-size="18.00" fill="#000000">custom_fields_projects</text>
<text text-anchor="start" x="356.3878" y="-867.8" font-family="Arial" font-size="14.00" fill="#000000"> </text>
<text text-anchor="start" x="360.2784" y="-867.8" font-family="Arial" font-size="14.00" fill="#666666">[BASE TABLE]</text>
<text text-anchor="start" x="193.3632" y="-853.4" font-family="Arial" font-size="14.00" fill="#333333">カスタムフィールド⇔プロジェクト</text>
<polygon fill="none" stroke="#000000" points="166.5,-814 166.5,-844 460.5,-844 460.5,-814 166.5,-814"/>
<text text-anchor="start" x="173.5" y="-825.4" font-family="Arial" font-size="14.00" fill="#000000">custom_field_id </text>
<text text-anchor="start" x="274.6304" y="-825.4" font-family="Arial" font-size="14.00" fill="#666666">[int(11)]</text>
<polygon fill="none" stroke="#000000" points="166.5,-784 166.5,-814 460.5,-814 460.5,-784 166.5,-784"/>
<text text-anchor="start" x="173.5" y="-795.4" font-family="Arial" font-size="14.00" fill="#000000">project_id </text>
<text text-anchor="start" x="238.068" y="-795.4" font-family="Arial" font-size="14.00" fill="#666666">[int(11)]</text>
<polygon fill="none" stroke="#000000" stroke-width="3" points="165,-782.5 165,-891.5 462,-891.5 462,-782.5 165,-782.5"/>
</g>
<!-- custom_fields -->
<g id="node2" class="node">
<title>custom_fields</title>
<polygon fill="#efefef" stroke="transparent" points="43.5,-613 43.5,-659 264.5,-659 264.5,-613 43.5,-613"/>
<polygon fill="none" stroke="#000000" points="43.5,-613 43.5,-659 264.5,-659 264.5,-613 43.5,-613"/>
<text text-anchor="start" x="50.3651" y="-636.8" font-family="Arial Bold" font-size="18.00" fill="#000000">custom_fields</text>
<text text-anchor="start" x="160.3811" y="-636.8" font-family="Arial" font-size="14.00" fill="#000000"> </text>
<text text-anchor="start" x="164.2717" y="-636.8" font-family="Arial" font-size="14.00" fill="#666666">[BASE TABLE]</text>
<text text-anchor="start" x="82.0722" y="-622.4" font-family="Arial" font-size="14.00" fill="#333333">カスタムフィールド</text>
<polygon fill="none" stroke="#000000" points="43.5,-583 43.5,-613 264.5,-613 264.5,-583 43.5,-583"/>
<text text-anchor="start" x="50.5" y="-594.4" font-family="Arial" font-size="14.00" fill="#000000">id </text>
<text text-anchor="start" x="65.2798" y="-594.4" font-family="Arial" font-size="14.00" fill="#666666">[int(11)]</text>
<polygon fill="none" stroke="#000000" points="43.5,-553 43.5,-583 264.5,-583 264.5,-553 43.5,-553"/>
<text text-anchor="start" x="50.5" y="-564.4" font-family="Arial" font-size="14.00" fill="#000000">type </text>
<text text-anchor="start" x="80.8464" y="-564.4" font-family="Arial" font-size="14.00" fill="#666666">[varchar(30)]</text>
<polygon fill="none" stroke="#000000" points="43.5,-523 43.5,-553 264.5,-553 264.5,-523 43.5,-523"/>
<text text-anchor="start" x="50.5" y="-534.4" font-family="Arial" font-size="14.00" fill="#000000">name </text>
<text text-anchor="start" x="89.399" y="-534.4" font-family="Arial" font-size="14.00" fill="#666666">[varchar(30)]</text>
<polygon fill="none" stroke="#000000" points="43.5,-493 43.5,-523 264.5,-523 264.5,-493 43.5,-493"/>
<text text-anchor="start" x="50.5" y="-504.4" font-family="Arial" font-size="14.00" fill="#000000">field_format </text>
<text text-anchor="start" x="127.5098" y="-504.4" font-family="Arial" font-size="14.00" fill="#666666">[varchar(30)]</text>
<polygon fill="none" stroke="#000000" points="43.5,-463 43.5,-493 264.5,-493 264.5,-463 43.5,-463"/>
<text text-anchor="start" x="50.5" y="-474.4" font-family="Arial" font-size="14.00" fill="#000000">possible_values </text>
<text text-anchor="start" x="153.9712" y="-474.4" font-family="Arial" font-size="14.00" fill="#666666">[text]</text>
<polygon fill="none" stroke="#000000" points="43.5,-433 43.5,-463 264.5,-463 264.5,-433 43.5,-433"/>
<text text-anchor="start" x="50.5" y="-444.4" font-family="Arial" font-size="14.00" fill="#000000">regexp </text>
<text text-anchor="start" x="97.1816" y="-444.4" font-family="Arial" font-size="14.00" fill="#666666">[varchar(255)]</text>
<polygon fill="none" stroke="#000000" points="43.5,-403 43.5,-433 264.5,-433 264.5,-403 43.5,-403"/>
<text text-anchor="start" x="50.5" y="-414.4" font-family="Arial" font-size="14.00" fill="#000000">min_length </text>
<text text-anchor="start" x="122.8506" y="-414.4" font-family="Arial" font-size="14.00" fill="#666666">[int(11)]</text>
<polygon fill="none" stroke="#000000" points="43.5,-373 43.5,-403 264.5,-403 264.5,-373 43.5,-373"/>
<text text-anchor="start" x="50.5" y="-384.4" font-family="Arial" font-size="14.00" fill="#000000">max_length </text>
<text text-anchor="start" x="126.744" y="-384.4" font-family="Arial" font-size="14.00" fill="#666666">[int(11)]</text>
<polygon fill="none" stroke="#000000" points="43.5,-343 43.5,-373 264.5,-373 264.5,-343 43.5,-343"/>
<text text-anchor="start" x="50.5" y="-354.4" font-family="Arial" font-size="14.00" fill="#000000">is_required </text>
<text text-anchor="start" x="123.6206" y="-354.4" font-family="Arial" font-size="14.00" fill="#666666">[tinyint(1)]</text>
<polygon fill="none" stroke="#000000" points="43.5,-313 43.5,-343 264.5,-343 264.5,-313 43.5,-313"/>
<text text-anchor="start" x="50.5" y="-324.4" font-family="Arial" font-size="14.00" fill="#000000">is_for_all </text>
<text text-anchor="start" x="110.392" y="-324.4" font-family="Arial" font-size="14.00" fill="#666666">[tinyint(1)]</text>
<polygon fill="none" stroke="#000000" points="43.5,-283 43.5,-313 264.5,-313 264.5,-283 43.5,-283"/>
<text text-anchor="start" x="50.5" y="-294.4" font-family="Arial" font-size="14.00" fill="#000000">is_filter </text>
<text text-anchor="start" x="98.7174" y="-294.4" font-family="Arial" font-size="14.00" fill="#666666">[tinyint(1)]</text>
<polygon fill="none" stroke="#000000" points="43.5,-253 43.5,-283 264.5,-283 264.5,-253 43.5,-253"/>
<text text-anchor="start" x="50.5" y="-264.4" font-family="Arial" font-size="14.00" fill="#000000">position </text>
<text text-anchor="start" x="102.6248" y="-264.4" font-family="Arial" font-size="14.00" fill="#666666">[int(11)]</text>
<polygon fill="none" stroke="#000000" points="43.5,-223 43.5,-253 264.5,-253 264.5,-223 43.5,-223"/>
<text text-anchor="start" x="50.5" y="-234.4" font-family="Arial" font-size="14.00" fill="#000000">searchable </text>
<text text-anchor="start" x="122.8534" y="-234.4" font-family="Arial" font-size="14.00" fill="#666666">[tinyint(1)]</text>
<polygon fill="none" stroke="#000000" points="43.5,-193 43.5,-223 264.5,-223 264.5,-193 43.5,-193"/>
<text text-anchor="start" x="50.5" y="-204.4" font-family="Arial" font-size="14.00" fill="#000000">default_value </text>
<text text-anchor="start" x="137.6458" y="-204.4" font-family="Arial" font-size="14.00" fill="#666666">[text]</text>
<polygon fill="none" stroke="#000000" points="43.5,-163 43.5,-193 264.5,-193 264.5,-163 43.5,-163"/>
<text text-anchor="start" x="50.5" y="-174.4" font-family="Arial" font-size="14.00" fill="#000000">editable </text>
<text text-anchor="start" x="103.4074" y="-174.4" font-family="Arial" font-size="14.00" fill="#666666">[tinyint(1)]</text>
<polygon fill="none" stroke="#000000" points="43.5,-133 43.5,-163 264.5,-163 264.5,-133 43.5,-133"/>
<text text-anchor="start" x="50.5" y="-144.4" font-family="Arial" font-size="14.00" fill="#000000">visible </text>
<text text-anchor="start" x="93.2756" y="-144.4" font-family="Arial" font-size="14.00" fill="#666666">[tinyint(1)]</text>
<polygon fill="none" stroke="#000000" points="43.5,-103 43.5,-133 264.5,-133 264.5,-103 43.5,-103"/>
<text text-anchor="start" x="50.5" y="-114.4" font-family="Arial" font-size="14.00" fill="#000000">multiple </text>
<text text-anchor="start" x="102.6094" y="-114.4" font-family="Arial" font-size="14.00" fill="#666666">[tinyint(1)]</text>
<polygon fill="none" stroke="#000000" points="43.5,-73 43.5,-103 264.5,-103 264.5,-73 43.5,-73"/>
<text text-anchor="start" x="50.5" y="-84.4" font-family="Arial" font-size="14.00" fill="#000000">format_store </text>
<text text-anchor="start" x="132.9572" y="-84.4" font-family="Arial" font-size="14.00" fill="#666666">[text]</text>
<polygon fill="none" stroke="#000000" points="43.5,-43 43.5,-73 264.5,-73 264.5,-43 43.5,-43"/>
<text text-anchor="start" x="50.5" y="-54.4" font-family="Arial" font-size="14.00" fill="#000000">description </text>
<text text-anchor="start" x="122.068" y="-54.4" font-family="Arial" font-size="14.00" fill="#666666">[text]</text>
</g>
<!-- custom_fields_projects&#45;&gt;custom_fields -->
<g id="edge1" class="edge">
<title>custom_fields_projects:custom_field_id&#45;&gt;custom_fields:id</title>
<path fill="none" stroke="#000000" stroke-dasharray="5,2" d="M156.6047,-827.543C129.35,-818.3727 145.5216,-768.0555 166.5,-738 193.0581,-699.9506 237.9419,-740.0494 264.5,-702 290.9556,-664.0975 310.7222,-598 264.5,-598"/>
<polygon fill="#000000" stroke="#000000" points="156.6067,-827.5432 165.8445,-833.452 161.5533,-828.2716 166.5,-829 166.5,-829 166.5,-829 161.5533,-828.2716 167.1555,-824.548 156.6067,-827.5432 156.6067,-827.5432"/>
<text text-anchor="start" x="76.8245" y="-839" font-family="Arial" font-size="10.00" fill="#000000">Additional Relation</text>
</g>
<!-- projects -->
<g id="node3" class="node">
<title>projects</title>
<polygon fill="#efefef" stroke="transparent" points="368.5,-568 368.5,-614 577.5,-614 577.5,-568 368.5,-568"/>
<polygon fill="none" stroke="#000000" points="368.5,-568 368.5,-614 577.5,-614 577.5,-568 368.5,-568"/>
<text text-anchor="start" x="392.8695" y="-591.8" font-family="Arial Bold" font-size="18.00" fill="#000000">projects</text>
<text text-anchor="start" x="455.8767" y="-591.8" font-family="Arial" font-size="14.00" fill="#000000"> </text>
<text text-anchor="start" x="459.7673" y="-591.8" font-family="Arial" font-size="14.00" fill="#666666">[BASE TABLE]</text>
<text text-anchor="start" x="430.6269" y="-577.4" font-family="Arial" font-size="14.00" fill="#333333">プロジェクト</text>
<polygon fill="none" stroke="#000000" points="368.5,-538 368.5,-568 577.5,-568 577.5,-538 368.5,-538"/>
<text text-anchor="start" x="375.5" y="-549.4" font-family="Arial" font-size="14.00" fill="#000000">id </text>
<text text-anchor="start" x="390.2798" y="-549.4" font-family="Arial" font-size="14.00" fill="#666666">[int(11)]</text>
<polygon fill="none" stroke="#000000" points="368.5,-508 368.5,-538 577.5,-538 577.5,-508 368.5,-508"/>
<text text-anchor="start" x="375.5" y="-519.4" font-family="Arial" font-size="14.00" fill="#000000">name </text>
<text text-anchor="start" x="414.399" y="-519.4" font-family="Arial" font-size="14.00" fill="#666666">[varchar(255)]</text>
<polygon fill="none" stroke="#000000" points="368.5,-478 368.5,-508 577.5,-508 577.5,-478 368.5,-478"/>
<text text-anchor="start" x="375.5" y="-489.4" font-family="Arial" font-size="14.00" fill="#000000">description </text>
<text text-anchor="start" x="447.068" y="-489.4" font-family="Arial" font-size="14.00" fill="#666666">[text]</text>
<polygon fill="none" stroke="#000000" points="368.5,-448 368.5,-478 577.5,-478 577.5,-448 368.5,-448"/>
<text text-anchor="start" x="375.5" y="-459.4" font-family="Arial" font-size="14.00" fill="#000000">homepage </text>
<text text-anchor="start" x="445.5294" y="-459.4" font-family="Arial" font-size="14.00" fill="#666666">[varchar(255)]</text>
<polygon fill="none" stroke="#000000" points="368.5,-418 368.5,-448 577.5,-448 577.5,-418 368.5,-418"/>
<text text-anchor="start" x="375.5" y="-429.4" font-family="Arial" font-size="14.00" fill="#000000">is_public </text>
<text text-anchor="start" x="433.8408" y="-429.4" font-family="Arial" font-size="14.00" fill="#666666">[tinyint(1)]</text>
<polygon fill="none" stroke="#000000" points="368.5,-388 368.5,-418 577.5,-418 577.5,-388 368.5,-388"/>
<text text-anchor="start" x="375.5" y="-399.4" font-family="Arial" font-size="14.00" fill="#000000">parent_id </text>
<text text-anchor="start" x="437.744" y="-399.4" font-family="Arial" font-size="14.00" fill="#666666">[int(11)]</text>
<polygon fill="none" stroke="#000000" points="368.5,-358 368.5,-388 577.5,-388 577.5,-358 368.5,-358"/>
<text text-anchor="start" x="375.5" y="-369.4" font-family="Arial" font-size="14.00" fill="#000000">created_on </text>
<text text-anchor="start" x="449.42" y="-369.4" font-family="Arial" font-size="14.00" fill="#666666">[timestamp]</text>
<polygon fill="none" stroke="#000000" points="368.5,-328 368.5,-358 577.5,-358 577.5,-328 368.5,-328"/>
<text text-anchor="start" x="375.5" y="-339.4" font-family="Arial" font-size="14.00" fill="#000000">updated_on </text>
<text text-anchor="start" x="453.3246" y="-339.4" font-family="Arial" font-size="14.00" fill="#666666">[timestamp]</text>
<polygon fill="none" stroke="#000000" points="368.5,-298 368.5,-328 577.5,-328 577.5,-298 368.5,-298"/>
<text text-anchor="start" x="375.5" y="-309.4" font-family="Arial" font-size="14.00" fill="#000000">identifier </text>
<text text-anchor="start" x="432.2826" y="-309.4" font-family="Arial" font-size="14.00" fill="#666666">[varchar(255)]</text>
<polygon fill="none" stroke="#000000" points="368.5,-268 368.5,-298 577.5,-298 577.5,-268 368.5,-268"/>
<text text-anchor="start" x="375.5" y="-279.4" font-family="Arial" font-size="14.00" fill="#000000">status </text>
<text text-anchor="start" x="416.737" y="-279.4" font-family="Arial" font-size="14.00" fill="#666666">[int(11)]</text>
<polygon fill="none" stroke="#000000" points="368.5,-238 368.5,-268 577.5,-268 577.5,-238 368.5,-238"/>
<text text-anchor="start" x="375.5" y="-249.4" font-family="Arial" font-size="14.00" fill="#000000">lft </text>
<text text-anchor="start" x="390.2784" y="-249.4" font-family="Arial" font-size="14.00" fill="#666666">[int(11)]</text>
<polygon fill="none" stroke="#000000" points="368.5,-208 368.5,-238 577.5,-238 577.5,-208 368.5,-208"/>
<text text-anchor="start" x="375.5" y="-219.4" font-family="Arial" font-size="14.00" fill="#000000">rgt </text>
<text text-anchor="start" x="395.7244" y="-219.4" font-family="Arial" font-size="14.00" fill="#666666">[int(11)]</text>
<polygon fill="none" stroke="#000000" points="368.5,-178 368.5,-208 577.5,-208 577.5,-178 368.5,-178"/>
<text text-anchor="start" x="375.5" y="-189.4" font-family="Arial" font-size="14.00" fill="#000000">inherit_members </text>
<text text-anchor="start" x="483.615" y="-189.4" font-family="Arial" font-size="14.00" fill="#666666">[tinyint(1)]</text>
<polygon fill="none" stroke="#000000" points="368.5,-148 368.5,-178 577.5,-178 577.5,-148 368.5,-148"/>
<text text-anchor="start" x="375.5" y="-159.4" font-family="Arial" font-size="14.00" fill="#000000">default_version_id </text>
<text text-anchor="start" x="492.9782" y="-159.4" font-family="Arial" font-size="14.00" fill="#666666">[int(11)]</text>
<polygon fill="none" stroke="#000000" points="368.5,-118 368.5,-148 577.5,-148 577.5,-118 368.5,-118"/>
<text text-anchor="start" x="375.357" y="-129.4" font-family="Arial" font-size="14.00" fill="#000000">default_assigned_to_id </text>
<text text-anchor="start" x="523.1956" y="-129.4" font-family="Arial" font-size="14.00" fill="#666666">[int(11)]</text>
<polygon fill="none" stroke="#000000" points="368.5,-88 368.5,-118 577.5,-118 577.5,-88 368.5,-88"/>
<text text-anchor="start" x="375.3633" y="-99.4" font-family="Arial" font-size="14.00" fill="#000000">default_issue_query_id </text>
<text text-anchor="start" x="523.1893" y="-99.4" font-family="Arial" font-size="14.00" fill="#666666">[int(11)]</text>
</g>
<!-- custom_fields_projects&#45;&gt;projects -->
<g id="edge2" class="edge">
<title>custom_fields_projects:project_id&#45;&gt;projects:id</title>
<path fill="none" stroke="#000000" stroke-dasharray="5,2" d="M470.2372,-796.5244C482.7446,-787.9409 469.9203,-758.8452 460.5,-738 438.0648,-688.3556 390.9352,-706.6444 368.5,-657 349.4649,-614.8793 322.2778,-553 368.5,-553"/>
<polygon fill="#000000" stroke="#000000" points="470.1917,-796.5359 459.3911,-794.6387 465.3458,-797.7679 460.5,-799 460.5,-799 460.5,-799 465.3458,-797.7679 461.6089,-803.3613 470.1917,-796.5359 470.1917,-796.5359"/>
<text text-anchor="start" x="467.8245" y="-809" font-family="Arial" font-size="10.00" fill="#000000">Additional Relation</text>
</g>
</g>
</svg>
