<?xml version="1.0" encoding="UTF-8" standalone="no"?>
<!DOCTYPE svg PUBLIC "-//W3C//DTD SVG 1.1//EN"
 "http://www.w3.org/Graphics/SVG/1.1/DTD/svg11.dtd">
<!-- Generated by graphviz version 2.40.1 (20161225.0304)
 -->
<!-- Title: custom_fields_roles Pages: 1 -->
<svg width="2830pt" height="944pt"
 viewBox="0.00 0.00 2830.00 944.00" xmlns="http://www.w3.org/2000/svg" xmlns:xlink="http://www.w3.org/1999/xlink">
<g id="graph0" class="graph" transform="scale(1 1) rotate(0) translate(4 940)">
<title>custom_fields_roles</title>
<polygon fill="#ffffff" stroke="transparent" points="-4,4 -4,-940 2826,-940 2826,4 -4,4"/>
<!-- custom_fields_roles -->
<g id="node1" class="node">
<title>custom_fields_roles</title>
<polygon fill="#efefef" stroke="transparent" points="1820.5,-844 1820.5,-890 2090.5,-890 2090.5,-844 1820.5,-844"/>
<polygon fill="none" stroke="#000000" points="1820.5,-844 1820.5,-890 2090.5,-890 2090.5,-844 1820.5,-844"/>
<text text-anchor="start" x="1827.3626" y="-867.8" font-family="Arial Bold" font-size="18.00" fill="#000000">custom_fields_roles</text>
<text text-anchor="start" x="1986.3836" y="-867.8" font-family="Arial" font-size="14.00" fill="#000000"> </text>
<text text-anchor="start" x="1990.2742" y="-867.8" font-family="Arial" font-size="14.00" fill="#666666">[BASE TABLE]</text>
<text text-anchor="start" x="1850.9109" y="-853.4" font-family="Arial" font-size="14.00" fill="#333333">カスタムフィールド⇔ロール</text>
<polygon fill="none" stroke="#000000" points="1820.5,-814 1820.5,-844 2090.5,-844 2090.5,-814 1820.5,-814"/>
<text text-anchor="start" x="1827.5" y="-825.4" font-family="Arial" font-size="14.00" fill="#000000">custom_field_id </text>
<text text-anchor="start" x="1928.6304" y="-825.4" font-family="Arial" font-size="14.00" fill="#666666">[int(11)]</text>
<polygon fill="none" stroke="#000000" points="1820.5,-784 1820.5,-814 2090.5,-814 2090.5,-784 1820.5,-784"/>
<text text-anchor="start" x="1827.5" y="-795.4" font-family="Arial" font-size="14.00" fill="#000000">role_id </text>
<text text-anchor="start" x="1873.3948" y="-795.4" font-family="Arial" font-size="14.00" fill="#666666">[int(11)]</text>
<polygon fill="none" stroke="#000000" stroke-width="3" points="1819,-782.5 1819,-891.5 2092,-891.5 2092,-782.5 1819,-782.5"/>
</g>
<!-- custom_fields -->
<g id="node2" class="node">
<title>custom_fields</title>
<polygon fill="#efefef" stroke="transparent" points="43.5,-613 43.5,-659 2446.5,-659 2446.5,-613 43.5,-613"/>
<polygon fill="none" stroke="#000000" points="43.5,-613 43.5,-659 2446.5,-659 2446.5,-613 43.5,-613"/>
<text text-anchor="start" x="1141.3651" y="-636.8" font-family="Arial Bold" font-size="18.00" fill="#000000">custom_fields</text>
<text text-anchor="start" x="1251.3811" y="-636.8" font-family="Arial" font-size="14.00" fill="#000000"> </text>
<text text-anchor="start" x="1255.2717" y="-636.8" font-family="Arial" font-size="14.00" fill="#666666">[BASE TABLE]</text>
<text text-anchor="start" x="1173.0722" y="-622.4" font-family="Arial" font-size="14.00" fill="#333333">カスタムフィールド</text>
<polygon fill="none" stroke="#000000" points="43.5,-583 43.5,-613 2446.5,-613 2446.5,-583 43.5,-583"/>
<text text-anchor="start" x="50.5" y="-594.4" font-family="Arial" font-size="14.00" fill="#000000">id </text>
<text text-anchor="start" x="65.2798" y="-594.4" font-family="Arial" font-size="14.00" fill="#666666">[int(11)]</text>
<polygon fill="none" stroke="#000000" points="43.5,-553 43.5,-583 2446.5,-583 2446.5,-553 43.5,-553"/>
<text text-anchor="start" x="50.3359" y="-564.4" font-family="Arial" font-size="14.00" fill="#000000">type </text>
<text text-anchor="start" x="80.6823" y="-564.4" font-family="Arial" font-size="14.00" fill="#666666">[varchar(30)]</text>
<text text-anchor="start" x="160.0189" y="-564.4" font-family="Arial" font-size="14.00" fill="#000000"> IssueCustomField:チケット TimeEntryCustomField:作業時間 ProjectCustomField:プロジェクト VersionCustomField:バージョン DocumentCustomField:文書 UserCustomField:ユーザー GroupCustomField:グループ TimeEntryActivityCustomField:作業分類(時間管理) IssuePriorityCustomField:チケットの優先度 DocumentCategoryCustomField:文書カテゴリ </text>
<polygon fill="none" stroke="#000000" points="43.5,-523 43.5,-553 2446.5,-553 2446.5,-523 43.5,-523"/>
<text text-anchor="start" x="50.5" y="-534.4" font-family="Arial" font-size="14.00" fill="#000000">name </text>
<text text-anchor="start" x="89.399" y="-534.4" font-family="Arial" font-size="14.00" fill="#666666">[varchar(30)]</text>
<polygon fill="none" stroke="#000000" points="43.5,-493 43.5,-523 2446.5,-523 2446.5,-493 43.5,-493"/>
<text text-anchor="start" x="50.5" y="-504.4" font-family="Arial" font-size="14.00" fill="#000000">field_format </text>
<text text-anchor="start" x="127.5098" y="-504.4" font-family="Arial" font-size="14.00" fill="#666666">[varchar(30)]</text>
<text text-anchor="start" x="206.8464" y="-504.4" font-family="Arial" font-size="14.00" fill="#000000"> string:テキスト version:バージョン attachment:ファイル user:ユーザー list:リスト link:リンク float:小数 int:整数 整数:日付 bool:真偽値 text:長いテキスト </text>
<polygon fill="none" stroke="#000000" points="43.5,-463 43.5,-493 2446.5,-493 2446.5,-463 43.5,-463"/>
<text text-anchor="start" x="50.5" y="-474.4" font-family="Arial" font-size="14.00" fill="#000000">possible_values </text>
<text text-anchor="start" x="153.9712" y="-474.4" font-family="Arial" font-size="14.00" fill="#666666">[text]</text>
<polygon fill="none" stroke="#000000" points="43.5,-433 43.5,-463 2446.5,-463 2446.5,-433 43.5,-433"/>
<text text-anchor="start" x="50.5" y="-444.4" font-family="Arial" font-size="14.00" fill="#000000">regexp </text>
<text text-anchor="start" x="97.1816" y="-444.4" font-family="Arial" font-size="14.00" fill="#666666">[varchar(255)]</text>
<polygon fill="none" stroke="#000000" points="43.5,-403 43.5,-433 2446.5,-433 2446.5,-403 43.5,-403"/>
<text text-anchor="start" x="50.5" y="-414.4" font-family="Arial" font-size="14.00" fill="#000000">min_length </text>
<text text-anchor="start" x="122.8506" y="-414.4" font-family="Arial" font-size="14.00" fill="#666666">[int(11)]</text>
<polygon fill="none" stroke="#000000" points="43.5,-373 43.5,-403 2446.5,-403 2446.5,-373 43.5,-373"/>
<text text-anchor="start" x="50.5" y="-384.4" font-family="Arial" font-size="14.00" fill="#000000">max_length </text>
<text text-anchor="start" x="126.744" y="-384.4" font-family="Arial" font-size="14.00" fill="#666666">[int(11)]</text>
<polygon fill="none" stroke="#000000" points="43.5,-343 43.5,-373 2446.5,-373 2446.5,-343 43.5,-343"/>
<text text-anchor="start" x="50.5" y="-354.4" font-family="Arial" font-size="14.00" fill="#000000">is_required </text>
<text text-anchor="start" x="123.6206" y="-354.4" font-family="Arial" font-size="14.00" fill="#666666">[tinyint(1)]</text>
<polygon fill="none" stroke="#000000" points="43.5,-313 43.5,-343 2446.5,-343 2446.5,-313 43.5,-313"/>
<text text-anchor="start" x="50.5" y="-324.4" font-family="Arial" font-size="14.00" fill="#000000">is_for_all </text>
<text text-anchor="start" x="110.392" y="-324.4" font-family="Arial" font-size="14.00" fill="#666666">[tinyint(1)]</text>
<polygon fill="none" stroke="#000000" points="43.5,-283 43.5,-313 2446.5,-313 2446.5,-283 43.5,-283"/>
<text text-anchor="start" x="50.5" y="-294.4" font-family="Arial" font-size="14.00" fill="#000000">is_filter </text>
<text text-anchor="start" x="98.7174" y="-294.4" font-family="Arial" font-size="14.00" fill="#666666">[tinyint(1)]</text>
<polygon fill="none" stroke="#000000" points="43.5,-253 43.5,-283 2446.5,-283 2446.5,-253 43.5,-253"/>
<text text-anchor="start" x="50.5" y="-264.4" font-family="Arial" font-size="14.00" fill="#000000">position </text>
<text text-anchor="start" x="102.6248" y="-264.4" font-family="Arial" font-size="14.00" fill="#666666">[int(11)]</text>
<polygon fill="none" stroke="#000000" points="43.5,-223 43.5,-253 2446.5,-253 2446.5,-223 43.5,-223"/>
<text text-anchor="start" x="50.5" y="-234.4" font-family="Arial" font-size="14.00" fill="#000000">searchable </text>
<text text-anchor="start" x="122.8534" y="-234.4" font-family="Arial" font-size="14.00" fill="#666666">[tinyint(1)]</text>
<polygon fill="none" stroke="#000000" points="43.5,-193 43.5,-223 2446.5,-223 2446.5,-193 43.5,-193"/>
<text text-anchor="start" x="50.5" y="-204.4" font-family="Arial" font-size="14.00" fill="#000000">default_value </text>
<text text-anchor="start" x="137.6458" y="-204.4" font-family="Arial" font-size="14.00" fill="#666666">[text]</text>
<polygon fill="none" stroke="#000000" points="43.5,-163 43.5,-193 2446.5,-193 2446.5,-163 43.5,-163"/>
<text text-anchor="start" x="50.5" y="-174.4" font-family="Arial" font-size="14.00" fill="#000000">editable </text>
<text text-anchor="start" x="103.4074" y="-174.4" font-family="Arial" font-size="14.00" fill="#666666">[tinyint(1)]</text>
<polygon fill="none" stroke="#000000" points="43.5,-133 43.5,-163 2446.5,-163 2446.5,-133 43.5,-133"/>
<text text-anchor="start" x="50.5" y="-144.4" font-family="Arial" font-size="14.00" fill="#000000">visible </text>
<text text-anchor="start" x="93.2756" y="-144.4" font-family="Arial" font-size="14.00" fill="#666666">[tinyint(1)]</text>
<polygon fill="none" stroke="#000000" points="43.5,-103 43.5,-133 2446.5,-133 2446.5,-103 43.5,-103"/>
<text text-anchor="start" x="50.5" y="-114.4" font-family="Arial" font-size="14.00" fill="#000000">multiple </text>
<text text-anchor="start" x="102.6094" y="-114.4" font-family="Arial" font-size="14.00" fill="#666666">[tinyint(1)]</text>
<polygon fill="none" stroke="#000000" points="43.5,-73 43.5,-103 2446.5,-103 2446.5,-73 43.5,-73"/>
<text text-anchor="start" x="50.5" y="-84.4" font-family="Arial" font-size="14.00" fill="#000000">format_store </text>
<text text-anchor="start" x="132.9572" y="-84.4" font-family="Arial" font-size="14.00" fill="#666666">[text]</text>
<polygon fill="none" stroke="#000000" points="43.5,-43 43.5,-73 2446.5,-73 2446.5,-43 43.5,-43"/>
<text text-anchor="start" x="50.5" y="-54.4" font-family="Arial" font-size="14.00" fill="#000000">description </text>
<text text-anchor="start" x="122.068" y="-54.4" font-family="Arial" font-size="14.00" fill="#666666">[text]</text>
</g>
<!-- custom_fields_roles&#45;&gt;custom_fields -->
<g id="edge1" class="edge">
<title>custom_fields_roles:custom_field_id&#45;&gt;custom_fields:id</title>
<path fill="none" stroke="#000000" stroke-dasharray="5,2" d="M1810.4944,-827.4533C1782.5655,-817.7344 1795.3376,-764.651 1820.5,-738 1916.1587,-636.6821 2350.8413,-803.3179 2446.5,-702 2478.2319,-668.3908 2492.7222,-598 2446.5,-598"/>
<polygon fill="#000000" stroke="#000000" points="1810.6174,-827.4722 1819.8125,-833.4472 1815.5587,-828.2361 1820.5,-829 1820.5,-829 1820.5,-829 1815.5587,-828.2361 1821.1875,-824.5528 1810.6174,-827.4722 1810.6174,-827.4722"/>
<text text-anchor="start" x="1730.8245" y="-839" font-family="Arial" font-size="10.00" fill="#000000">Additional Relation</text>
</g>
<!-- roles -->
<g id="node3" class="node">
<title>roles</title>
<polygon fill="#efefef" stroke="transparent" points="2550.5,-493 2550.5,-539 2779.5,-539 2779.5,-493 2550.5,-493"/>
<polygon fill="none" stroke="#000000" points="2550.5,-493 2550.5,-539 2779.5,-539 2779.5,-493 2550.5,-493"/>
<text text-anchor="start" x="2596.8737" y="-516.8" font-family="Arial Bold" font-size="18.00" fill="#000000">roles</text>
<text text-anchor="start" x="2635.8725" y="-516.8" font-family="Arial" font-size="14.00" fill="#000000"> </text>
<text text-anchor="start" x="2639.7631" y="-516.8" font-family="Arial" font-size="14.00" fill="#666666">[BASE TABLE]</text>
<text text-anchor="start" x="2638.1746" y="-502.4" font-family="Arial" font-size="14.00" fill="#333333">ロール</text>
<polygon fill="none" stroke="#000000" points="2550.5,-463 2550.5,-493 2779.5,-493 2779.5,-463 2550.5,-463"/>
<text text-anchor="start" x="2557.5" y="-474.4" font-family="Arial" font-size="14.00" fill="#000000">id </text>
<text text-anchor="start" x="2572.2798" y="-474.4" font-family="Arial" font-size="14.00" fill="#666666">[int(11)]</text>
<polygon fill="none" stroke="#000000" points="2550.5,-433 2550.5,-463 2779.5,-463 2779.5,-433 2550.5,-433"/>
<text text-anchor="start" x="2557.5" y="-444.4" font-family="Arial" font-size="14.00" fill="#000000">name </text>
<text text-anchor="start" x="2596.399" y="-444.4" font-family="Arial" font-size="14.00" fill="#666666">[varchar(255)]</text>
<polygon fill="none" stroke="#000000" points="2550.5,-403 2550.5,-433 2779.5,-433 2779.5,-403 2550.5,-403"/>
<text text-anchor="start" x="2557.5" y="-414.4" font-family="Arial" font-size="14.00" fill="#000000">position </text>
<text text-anchor="start" x="2609.6248" y="-414.4" font-family="Arial" font-size="14.00" fill="#666666">[int(11)]</text>
<polygon fill="none" stroke="#000000" points="2550.5,-373 2550.5,-403 2779.5,-403 2779.5,-373 2550.5,-373"/>
<text text-anchor="start" x="2557.5" y="-384.4" font-family="Arial" font-size="14.00" fill="#000000">assignable </text>
<text text-anchor="start" x="2628.2994" y="-384.4" font-family="Arial" font-size="14.00" fill="#666666">[tinyint(1)]</text>
<polygon fill="none" stroke="#000000" points="2550.5,-343 2550.5,-373 2779.5,-373 2779.5,-343 2550.5,-343"/>
<text text-anchor="start" x="2557.5" y="-354.4" font-family="Arial" font-size="14.00" fill="#000000">builtin </text>
<text text-anchor="start" x="2597.9488" y="-354.4" font-family="Arial" font-size="14.00" fill="#666666">[int(11)]</text>
<polygon fill="none" stroke="#000000" points="2550.5,-313 2550.5,-343 2779.5,-343 2779.5,-313 2550.5,-313"/>
<text text-anchor="start" x="2557.5" y="-324.4" font-family="Arial" font-size="14.00" fill="#000000">permissions </text>
<text text-anchor="start" x="2636.0554" y="-324.4" font-family="Arial" font-size="14.00" fill="#666666">[text]</text>
<polygon fill="none" stroke="#000000" points="2550.5,-283 2550.5,-313 2779.5,-313 2779.5,-283 2550.5,-283"/>
<text text-anchor="start" x="2557.5" y="-294.4" font-family="Arial" font-size="14.00" fill="#000000">issues_visibility </text>
<text text-anchor="start" x="2657.0512" y="-294.4" font-family="Arial" font-size="14.00" fill="#666666">[varchar(30)]</text>
<polygon fill="none" stroke="#000000" points="2550.5,-253 2550.5,-283 2779.5,-283 2779.5,-253 2550.5,-253"/>
<text text-anchor="start" x="2557.5" y="-264.4" font-family="Arial" font-size="14.00" fill="#000000">users_visibility </text>
<text text-anchor="start" x="2651.6052" y="-264.4" font-family="Arial" font-size="14.00" fill="#666666">[varchar(30)]</text>
<polygon fill="none" stroke="#000000" points="2550.5,-223 2550.5,-253 2779.5,-253 2779.5,-223 2550.5,-223"/>
<text text-anchor="start" x="2557.2777" y="-234.4" font-family="Arial" font-size="14.00" fill="#000000">time_entries_visibility </text>
<text text-anchor="start" x="2693.3857" y="-234.4" font-family="Arial" font-size="14.00" fill="#666666">[varchar(30)]</text>
<polygon fill="none" stroke="#000000" points="2550.5,-193 2550.5,-223 2779.5,-223 2779.5,-193 2550.5,-193"/>
<text text-anchor="start" x="2557.5" y="-204.4" font-family="Arial" font-size="14.00" fill="#000000">all_roles_managed </text>
<text text-anchor="start" x="2679.6402" y="-204.4" font-family="Arial" font-size="14.00" fill="#666666">[tinyint(1)]</text>
<polygon fill="none" stroke="#000000" points="2550.5,-163 2550.5,-193 2779.5,-193 2779.5,-163 2550.5,-163"/>
<text text-anchor="start" x="2557.5" y="-174.4" font-family="Arial" font-size="14.00" fill="#000000">settings </text>
<text text-anchor="start" x="2609.6262" y="-174.4" font-family="Arial" font-size="14.00" fill="#666666">[text]</text>
</g>
<!-- custom_fields_roles&#45;&gt;roles -->
<g id="edge2" class="edge">
<title>custom_fields_roles:role_id&#45;&gt;roles:id</title>
<path fill="none" stroke="#000000" stroke-dasharray="5,2" d="M2100.5888,-798.8914C2200.5068,-796.8448 2435.0236,-765.8143 2498.5,-702 2570.5763,-629.5401 2448.2971,-478 2550.5,-478"/>
<polygon fill="#000000" stroke="#000000" points="2100.4994,-798.8923 2090.4515,-794.5003 2095.4997,-798.9462 2090.5,-799 2090.5,-799 2090.5,-799 2095.4997,-798.9462 2090.5485,-803.4997 2100.4994,-798.8923 2100.4994,-798.8923"/>
<text text-anchor="start" x="2097.8245" y="-809" font-family="Arial" font-size="10.00" fill="#000000">Additional Relation</text>
</g>
</g>
</svg>
