<?xml version="1.0" encoding="UTF-8" standalone="no"?>
<!DOCTYPE svg PUBLIC "-//W3C//DTD SVG 1.1//EN"
 "http://www.w3.org/Graphics/SVG/1.1/DTD/svg11.dtd">
<!-- Generated by graphviz version 2.40.1 (20161225.0304)
 -->
<!-- Title: custom_values Pages: 1 -->
<svg width="2497pt" height="1034pt"
 viewBox="0.00 0.00 2497.00 1034.00" xmlns="http://www.w3.org/2000/svg" xmlns:xlink="http://www.w3.org/1999/xlink">
<g id="graph0" class="graph" transform="scale(1 1) rotate(0) translate(4 1030)">
<title>custom_values</title>
<polygon fill="#ffffff" stroke="transparent" points="-4,4 -4,-1030 2493,-1030 2493,4 -4,4"/>
<!-- custom_values -->
<g id="node1" class="node">
<title>custom_values</title>
<polygon fill="#efefef" stroke="transparent" points="1129.5,-934 1129.5,-980 1360.5,-980 1360.5,-934 1129.5,-934"/>
<polygon fill="none" stroke="#000000" points="1129.5,-934 1129.5,-980 1360.5,-980 1360.5,-934 1129.5,-934"/>
<text text-anchor="start" x="1136.3602" y="-957.8" font-family="Arial Bold" font-size="18.00" fill="#000000">custom_values</text>
<text text-anchor="start" x="1256.386" y="-957.8" font-family="Arial" font-size="14.00" fill="#000000"> </text>
<text text-anchor="start" x="1260.2766" y="-957.8" font-family="Arial" font-size="14.00" fill="#666666">[BASE TABLE]</text>
<text text-anchor="start" x="1159.9787" y="-943.4" font-family="Arial" font-size="14.00" fill="#333333">カスタムフィールドの値</text>
<polygon fill="none" stroke="#000000" points="1129.5,-904 1129.5,-934 1360.5,-934 1360.5,-904 1129.5,-904"/>
<text text-anchor="start" x="1136.5" y="-915.4" font-family="Arial" font-size="14.00" fill="#000000">id </text>
<text text-anchor="start" x="1151.2798" y="-915.4" font-family="Arial" font-size="14.00" fill="#666666">[int(11)]</text>
<polygon fill="none" stroke="#000000" points="1129.5,-874 1129.5,-904 1360.5,-904 1360.5,-874 1129.5,-874"/>
<text text-anchor="start" x="1136.5" y="-885.4" font-family="Arial" font-size="14.00" fill="#000000">customized_type </text>
<text text-anchor="start" x="1245.4172" y="-885.4" font-family="Arial" font-size="14.00" fill="#666666">[varchar(30)]</text>
<polygon fill="none" stroke="#000000" points="1129.5,-844 1129.5,-874 1360.5,-874 1360.5,-844 1129.5,-844"/>
<text text-anchor="start" x="1136.5" y="-855.4" font-family="Arial" font-size="14.00" fill="#000000">customized_id </text>
<text text-anchor="start" x="1229.8506" y="-855.4" font-family="Arial" font-size="14.00" fill="#666666">[int(11)]</text>
<polygon fill="none" stroke="#000000" points="1129.5,-814 1129.5,-844 1360.5,-844 1360.5,-814 1129.5,-814"/>
<text text-anchor="start" x="1136.5" y="-825.4" font-family="Arial" font-size="14.00" fill="#000000">custom_field_id </text>
<text text-anchor="start" x="1237.6304" y="-825.4" font-family="Arial" font-size="14.00" fill="#666666">[int(11)]</text>
<polygon fill="none" stroke="#000000" points="1129.5,-784 1129.5,-814 1360.5,-814 1360.5,-784 1129.5,-784"/>
<text text-anchor="start" x="1136.5" y="-795.4" font-family="Arial" font-size="14.00" fill="#000000">value </text>
<text text-anchor="start" x="1173.845" y="-795.4" font-family="Arial" font-size="14.00" fill="#666666">[longtext]</text>
<polygon fill="none" stroke="#000000" stroke-width="3" points="1127.5,-782.5 1127.5,-981.5 1361.5,-981.5 1361.5,-782.5 1127.5,-782.5"/>
</g>
<!-- custom_fields -->
<g id="node2" class="node">
<title>custom_fields</title>
<polygon fill="#efefef" stroke="transparent" points="43.5,-613 43.5,-659 2446.5,-659 2446.5,-613 43.5,-613"/>
<polygon fill="none" stroke="#000000" points="43.5,-613 43.5,-659 2446.5,-659 2446.5,-613 43.5,-613"/>
<text text-anchor="start" x="1141.3651" y="-636.8" font-family="Arial Bold" font-size="18.00" fill="#000000">custom_fields</text>
<text text-anchor="start" x="1251.3811" y="-636.8" font-family="Arial" font-size="14.00" fill="#000000"> </text>
<text text-anchor="start" x="1255.2717" y="-636.8" font-family="Arial" font-size="14.00" fill="#666666">[BASE TABLE]</text>
<text text-anchor="start" x="1173.0722" y="-622.4" font-family="Arial" font-size="14.00" fill="#333333">カスタムフィールド</text>
<polygon fill="none" stroke="#000000" points="43.5,-583 43.5,-613 2446.5,-613 2446.5,-583 43.5,-583"/>
<text text-anchor="start" x="50.5" y="-594.4" font-family="Arial" font-size="14.00" fill="#000000">id </text>
<text text-anchor="start" x="65.2798" y="-594.4" font-family="Arial" font-size="14.00" fill="#666666">[int(11)]</text>
<polygon fill="none" stroke="#000000" points="43.5,-553 43.5,-583 2446.5,-583 2446.5,-553 43.5,-553"/>
<text text-anchor="start" x="50.3359" y="-564.4" font-family="Arial" font-size="14.00" fill="#000000">type </text>
<text text-anchor="start" x="80.6823" y="-564.4" font-family="Arial" font-size="14.00" fill="#666666">[varchar(30)]</text>
<text text-anchor="start" x="160.0189" y="-564.4" font-family="Arial" font-size="14.00" fill="#000000"> IssueCustomField:チケット TimeEntryCustomField:作業時間 ProjectCustomField:プロジェクト VersionCustomField:バージョン DocumentCustomField:文書 UserCustomField:ユーザー GroupCustomField:グループ TimeEntryActivityCustomField:作業分類(時間管理) IssuePriorityCustomField:チケットの優先度 DocumentCategoryCustomField:文書カテゴリ </text>
<polygon fill="none" stroke="#000000" points="43.5,-523 43.5,-553 2446.5,-553 2446.5,-523 43.5,-523"/>
<text text-anchor="start" x="50.5" y="-534.4" font-family="Arial" font-size="14.00" fill="#000000">name </text>
<text text-anchor="start" x="89.399" y="-534.4" font-family="Arial" font-size="14.00" fill="#666666">[varchar(30)]</text>
<polygon fill="none" stroke="#000000" points="43.5,-493 43.5,-523 2446.5,-523 2446.5,-493 43.5,-493"/>
<text text-anchor="start" x="50.5" y="-504.4" font-family="Arial" font-size="14.00" fill="#000000">field_format </text>
<text text-anchor="start" x="127.5098" y="-504.4" font-family="Arial" font-size="14.00" fill="#666666">[varchar(30)]</text>
<text text-anchor="start" x="206.8464" y="-504.4" font-family="Arial" font-size="14.00" fill="#000000"> string:テキスト version:バージョン attachment:ファイル user:ユーザー list:リスト link:リンク float:小数 int:整数 整数:日付 bool:真偽値 text:長いテキスト </text>
<polygon fill="none" stroke="#000000" points="43.5,-463 43.5,-493 2446.5,-493 2446.5,-463 43.5,-463"/>
<text text-anchor="start" x="50.5" y="-474.4" font-family="Arial" font-size="14.00" fill="#000000">possible_values </text>
<text text-anchor="start" x="153.9712" y="-474.4" font-family="Arial" font-size="14.00" fill="#666666">[text]</text>
<polygon fill="none" stroke="#000000" points="43.5,-433 43.5,-463 2446.5,-463 2446.5,-433 43.5,-433"/>
<text text-anchor="start" x="50.5" y="-444.4" font-family="Arial" font-size="14.00" fill="#000000">regexp </text>
<text text-anchor="start" x="97.1816" y="-444.4" font-family="Arial" font-size="14.00" fill="#666666">[varchar(255)]</text>
<polygon fill="none" stroke="#000000" points="43.5,-403 43.5,-433 2446.5,-433 2446.5,-403 43.5,-403"/>
<text text-anchor="start" x="50.5" y="-414.4" font-family="Arial" font-size="14.00" fill="#000000">min_length </text>
<text text-anchor="start" x="122.8506" y="-414.4" font-family="Arial" font-size="14.00" fill="#666666">[int(11)]</text>
<polygon fill="none" stroke="#000000" points="43.5,-373 43.5,-403 2446.5,-403 2446.5,-373 43.5,-373"/>
<text text-anchor="start" x="50.5" y="-384.4" font-family="Arial" font-size="14.00" fill="#000000">max_length </text>
<text text-anchor="start" x="126.744" y="-384.4" font-family="Arial" font-size="14.00" fill="#666666">[int(11)]</text>
<polygon fill="none" stroke="#000000" points="43.5,-343 43.5,-373 2446.5,-373 2446.5,-343 43.5,-343"/>
<text text-anchor="start" x="50.5" y="-354.4" font-family="Arial" font-size="14.00" fill="#000000">is_required </text>
<text text-anchor="start" x="123.6206" y="-354.4" font-family="Arial" font-size="14.00" fill="#666666">[tinyint(1)]</text>
<polygon fill="none" stroke="#000000" points="43.5,-313 43.5,-343 2446.5,-343 2446.5,-313 43.5,-313"/>
<text text-anchor="start" x="50.5" y="-324.4" font-family="Arial" font-size="14.00" fill="#000000">is_for_all </text>
<text text-anchor="start" x="110.392" y="-324.4" font-family="Arial" font-size="14.00" fill="#666666">[tinyint(1)]</text>
<polygon fill="none" stroke="#000000" points="43.5,-283 43.5,-313 2446.5,-313 2446.5,-283 43.5,-283"/>
<text text-anchor="start" x="50.5" y="-294.4" font-family="Arial" font-size="14.00" fill="#000000">is_filter </text>
<text text-anchor="start" x="98.7174" y="-294.4" font-family="Arial" font-size="14.00" fill="#666666">[tinyint(1)]</text>
<polygon fill="none" stroke="#000000" points="43.5,-253 43.5,-283 2446.5,-283 2446.5,-253 43.5,-253"/>
<text text-anchor="start" x="50.5" y="-264.4" font-family="Arial" font-size="14.00" fill="#000000">position </text>
<text text-anchor="start" x="102.6248" y="-264.4" font-family="Arial" font-size="14.00" fill="#666666">[int(11)]</text>
<polygon fill="none" stroke="#000000" points="43.5,-223 43.5,-253 2446.5,-253 2446.5,-223 43.5,-223"/>
<text text-anchor="start" x="50.5" y="-234.4" font-family="Arial" font-size="14.00" fill="#000000">searchable </text>
<text text-anchor="start" x="122.8534" y="-234.4" font-family="Arial" font-size="14.00" fill="#666666">[tinyint(1)]</text>
<polygon fill="none" stroke="#000000" points="43.5,-193 43.5,-223 2446.5,-223 2446.5,-193 43.5,-193"/>
<text text-anchor="start" x="50.5" y="-204.4" font-family="Arial" font-size="14.00" fill="#000000">default_value </text>
<text text-anchor="start" x="137.6458" y="-204.4" font-family="Arial" font-size="14.00" fill="#666666">[text]</text>
<polygon fill="none" stroke="#000000" points="43.5,-163 43.5,-193 2446.5,-193 2446.5,-163 43.5,-163"/>
<text text-anchor="start" x="50.5" y="-174.4" font-family="Arial" font-size="14.00" fill="#000000">editable </text>
<text text-anchor="start" x="103.4074" y="-174.4" font-family="Arial" font-size="14.00" fill="#666666">[tinyint(1)]</text>
<polygon fill="none" stroke="#000000" points="43.5,-133 43.5,-163 2446.5,-163 2446.5,-133 43.5,-133"/>
<text text-anchor="start" x="50.5" y="-144.4" font-family="Arial" font-size="14.00" fill="#000000">visible </text>
<text text-anchor="start" x="93.2756" y="-144.4" font-family="Arial" font-size="14.00" fill="#666666">[tinyint(1)]</text>
<polygon fill="none" stroke="#000000" points="43.5,-103 43.5,-133 2446.5,-133 2446.5,-103 43.5,-103"/>
<text text-anchor="start" x="50.5" y="-114.4" font-family="Arial" font-size="14.00" fill="#000000">multiple </text>
<text text-anchor="start" x="102.6094" y="-114.4" font-family="Arial" font-size="14.00" fill="#666666">[tinyint(1)]</text>
<polygon fill="none" stroke="#000000" points="43.5,-73 43.5,-103 2446.5,-103 2446.5,-73 43.5,-73"/>
<text text-anchor="start" x="50.5" y="-84.4" font-family="Arial" font-size="14.00" fill="#000000">format_store </text>
<text text-anchor="start" x="132.9572" y="-84.4" font-family="Arial" font-size="14.00" fill="#666666">[text]</text>
<polygon fill="none" stroke="#000000" points="43.5,-43 43.5,-73 2446.5,-73 2446.5,-43 43.5,-43"/>
<text text-anchor="start" x="50.5" y="-54.4" font-family="Arial" font-size="14.00" fill="#000000">description </text>
<text text-anchor="start" x="122.068" y="-54.4" font-family="Arial" font-size="14.00" fill="#666666">[text]</text>
</g>
<!-- custom_values&#45;&gt;custom_fields -->
<g id="edge1" class="edge">
<title>custom_values:custom_field_id&#45;&gt;custom_fields:id</title>
<path fill="none" stroke="#000000" stroke-dasharray="5,2" d="M1119.2616,-828.9349C965.3379,-827.1979 122.2909,-790.5419 43.5,-702 12.7727,-667.4699 -2.7222,-598 43.5,-598"/>
<polygon fill="#000000" stroke="#000000" points="1119.5002,-828.9363 1129.4714,-833.4999 1124.5001,-828.9682 1129.5,-829 1129.5,-829 1129.5,-829 1124.5001,-828.9682 1129.5286,-824.5001 1119.5002,-828.9363 1119.5002,-828.9363"/>
<text text-anchor="start" x="1039.8245" y="-839" font-family="Arial" font-size="10.00" fill="#000000">Additional Relation</text>
</g>
</g>
</svg>
