<?xml version="1.0" encoding="UTF-8" standalone="no"?>
<!DOCTYPE svg PUBLIC "-//W3C//DTD SVG 1.1//EN"
 "http://www.w3.org/Graphics/SVG/1.1/DTD/svg11.dtd">
<!-- Generated by graphviz version 2.40.1 (20161225.0304)
 -->
<!-- Title: custom_fields Pages: 1 -->
<svg width="2503pt" height="1034pt"
 viewBox="0.00 0.00 2503.00 1034.00" xmlns="http://www.w3.org/2000/svg" xmlns:xlink="http://www.w3.org/1999/xlink">
<g id="graph0" class="graph" transform="scale(1 1) rotate(0) translate(4 1030)">
<title>custom_fields</title>
<polygon fill="#ffffff" stroke="transparent" points="-4,4 -4,-1030 2499,-1030 2499,4 -4,4"/>
<!-- custom_fields -->
<g id="node1" class="node">
<title>custom_fields</title>
<polygon fill="#efefef" stroke="transparent" points="46.5,-616 46.5,-662 2449.5,-662 2449.5,-616 46.5,-616"/>
<polygon fill="none" stroke="#000000" points="46.5,-616 46.5,-662 2449.5,-662 2449.5,-616 46.5,-616"/>
<text text-anchor="start" x="1144.3651" y="-639.8" font-family="Arial Bold" font-size="18.00" fill="#000000">custom_fields</text>
<text text-anchor="start" x="1254.3811" y="-639.8" font-family="Arial" font-size="14.00" fill="#000000"> </text>
<text text-anchor="start" x="1258.2717" y="-639.8" font-family="Arial" font-size="14.00" fill="#666666">[BASE TABLE]</text>
<text text-anchor="start" x="1176.0722" y="-625.4" font-family="Arial" font-size="14.00" fill="#333333">カスタムフィールド</text>
<polygon fill="none" stroke="#000000" points="46.5,-586 46.5,-616 2449.5,-616 2449.5,-586 46.5,-586"/>
<text text-anchor="start" x="53.5" y="-597.4" font-family="Arial" font-size="14.00" fill="#000000">id </text>
<text text-anchor="start" x="68.2798" y="-597.4" font-family="Arial" font-size="14.00" fill="#666666">[int(11)]</text>
<polygon fill="none" stroke="#000000" points="46.5,-556 46.5,-586 2449.5,-586 2449.5,-556 46.5,-556"/>
<text text-anchor="start" x="53.3359" y="-567.4" font-family="Arial" font-size="14.00" fill="#000000">type </text>
<text text-anchor="start" x="83.6823" y="-567.4" font-family="Arial" font-size="14.00" fill="#666666">[varchar(30)]</text>
<text text-anchor="start" x="163.0189" y="-567.4" font-family="Arial" font-size="14.00" fill="#000000"> IssueCustomField:チケット TimeEntryCustomField:作業時間 ProjectCustomField:プロジェクト VersionCustomField:バージョン DocumentCustomField:文書 UserCustomField:ユーザー GroupCustomField:グループ TimeEntryActivityCustomField:作業分類(時間管理) IssuePriorityCustomField:チケットの優先度 DocumentCategoryCustomField:文書カテゴリ </text>
<polygon fill="none" stroke="#000000" points="46.5,-526 46.5,-556 2449.5,-556 2449.5,-526 46.5,-526"/>
<text text-anchor="start" x="53.5" y="-537.4" font-family="Arial" font-size="14.00" fill="#000000">name </text>
<text text-anchor="start" x="92.399" y="-537.4" font-family="Arial" font-size="14.00" fill="#666666">[varchar(30)]</text>
<polygon fill="none" stroke="#000000" points="46.5,-496 46.5,-526 2449.5,-526 2449.5,-496 46.5,-496"/>
<text text-anchor="start" x="53.5" y="-507.4" font-family="Arial" font-size="14.00" fill="#000000">field_format </text>
<text text-anchor="start" x="130.5098" y="-507.4" font-family="Arial" font-size="14.00" fill="#666666">[varchar(30)]</text>
<text text-anchor="start" x="209.8464" y="-507.4" font-family="Arial" font-size="14.00" fill="#000000"> string:テキスト version:バージョン attachment:ファイル user:ユーザー list:リスト link:リンク float 小数 int:整数 整数:日付 bool:真偽値 text:長いテキスト </text>
<polygon fill="none" stroke="#000000" points="46.5,-466 46.5,-496 2449.5,-496 2449.5,-466 46.5,-466"/>
<text text-anchor="start" x="53.5" y="-477.4" font-family="Arial" font-size="14.00" fill="#000000">possible_values </text>
<text text-anchor="start" x="156.9712" y="-477.4" font-family="Arial" font-size="14.00" fill="#666666">[text]</text>
<polygon fill="none" stroke="#000000" points="46.5,-436 46.5,-466 2449.5,-466 2449.5,-436 46.5,-436"/>
<text text-anchor="start" x="53.5" y="-447.4" font-family="Arial" font-size="14.00" fill="#000000">regexp </text>
<text text-anchor="start" x="100.1816" y="-447.4" font-family="Arial" font-size="14.00" fill="#666666">[varchar(255)]</text>
<polygon fill="none" stroke="#000000" points="46.5,-406 46.5,-436 2449.5,-436 2449.5,-406 46.5,-406"/>
<text text-anchor="start" x="53.5" y="-417.4" font-family="Arial" font-size="14.00" fill="#000000">min_length </text>
<text text-anchor="start" x="125.8506" y="-417.4" font-family="Arial" font-size="14.00" fill="#666666">[int(11)]</text>
<polygon fill="none" stroke="#000000" points="46.5,-376 46.5,-406 2449.5,-406 2449.5,-376 46.5,-376"/>
<text text-anchor="start" x="53.5" y="-387.4" font-family="Arial" font-size="14.00" fill="#000000">max_length </text>
<text text-anchor="start" x="129.744" y="-387.4" font-family="Arial" font-size="14.00" fill="#666666">[int(11)]</text>
<polygon fill="none" stroke="#000000" points="46.5,-346 46.5,-376 2449.5,-376 2449.5,-346 46.5,-346"/>
<text text-anchor="start" x="53.5" y="-357.4" font-family="Arial" font-size="14.00" fill="#000000">is_required </text>
<text text-anchor="start" x="126.6206" y="-357.4" font-family="Arial" font-size="14.00" fill="#666666">[tinyint(1)]</text>
<polygon fill="none" stroke="#000000" points="46.5,-316 46.5,-346 2449.5,-346 2449.5,-316 46.5,-316"/>
<text text-anchor="start" x="53.5" y="-327.4" font-family="Arial" font-size="14.00" fill="#000000">is_for_all </text>
<text text-anchor="start" x="113.392" y="-327.4" font-family="Arial" font-size="14.00" fill="#666666">[tinyint(1)]</text>
<polygon fill="none" stroke="#000000" points="46.5,-286 46.5,-316 2449.5,-316 2449.5,-286 46.5,-286"/>
<text text-anchor="start" x="53.5" y="-297.4" font-family="Arial" font-size="14.00" fill="#000000">is_filter </text>
<text text-anchor="start" x="101.7174" y="-297.4" font-family="Arial" font-size="14.00" fill="#666666">[tinyint(1)]</text>
<polygon fill="none" stroke="#000000" points="46.5,-256 46.5,-286 2449.5,-286 2449.5,-256 46.5,-256"/>
<text text-anchor="start" x="53.5" y="-267.4" font-family="Arial" font-size="14.00" fill="#000000">position </text>
<text text-anchor="start" x="105.6248" y="-267.4" font-family="Arial" font-size="14.00" fill="#666666">[int(11)]</text>
<polygon fill="none" stroke="#000000" points="46.5,-226 46.5,-256 2449.5,-256 2449.5,-226 46.5,-226"/>
<text text-anchor="start" x="53.5" y="-237.4" font-family="Arial" font-size="14.00" fill="#000000">searchable </text>
<text text-anchor="start" x="125.8534" y="-237.4" font-family="Arial" font-size="14.00" fill="#666666">[tinyint(1)]</text>
<polygon fill="none" stroke="#000000" points="46.5,-196 46.5,-226 2449.5,-226 2449.5,-196 46.5,-196"/>
<text text-anchor="start" x="53.5" y="-207.4" font-family="Arial" font-size="14.00" fill="#000000">default_value </text>
<text text-anchor="start" x="140.6458" y="-207.4" font-family="Arial" font-size="14.00" fill="#666666">[text]</text>
<polygon fill="none" stroke="#000000" points="46.5,-166 46.5,-196 2449.5,-196 2449.5,-166 46.5,-166"/>
<text text-anchor="start" x="53.5" y="-177.4" font-family="Arial" font-size="14.00" fill="#000000">editable </text>
<text text-anchor="start" x="106.4074" y="-177.4" font-family="Arial" font-size="14.00" fill="#666666">[tinyint(1)]</text>
<polygon fill="none" stroke="#000000" points="46.5,-136 46.5,-166 2449.5,-166 2449.5,-136 46.5,-136"/>
<text text-anchor="start" x="53.5" y="-147.4" font-family="Arial" font-size="14.00" fill="#000000">visible </text>
<text text-anchor="start" x="96.2756" y="-147.4" font-family="Arial" font-size="14.00" fill="#666666">[tinyint(1)]</text>
<polygon fill="none" stroke="#000000" points="46.5,-106 46.5,-136 2449.5,-136 2449.5,-106 46.5,-106"/>
<text text-anchor="start" x="53.5" y="-117.4" font-family="Arial" font-size="14.00" fill="#000000">multiple </text>
<text text-anchor="start" x="105.6094" y="-117.4" font-family="Arial" font-size="14.00" fill="#666666">[tinyint(1)]</text>
<polygon fill="none" stroke="#000000" points="46.5,-76 46.5,-106 2449.5,-106 2449.5,-76 46.5,-76"/>
<text text-anchor="start" x="53.5" y="-87.4" font-family="Arial" font-size="14.00" fill="#000000">format_store </text>
<text text-anchor="start" x="135.9572" y="-87.4" font-family="Arial" font-size="14.00" fill="#666666">[text]</text>
<polygon fill="none" stroke="#000000" points="46.5,-46 46.5,-76 2449.5,-76 2449.5,-46 46.5,-46"/>
<text text-anchor="start" x="53.5" y="-57.4" font-family="Arial" font-size="14.00" fill="#000000">description </text>
<text text-anchor="start" x="125.068" y="-57.4" font-family="Arial" font-size="14.00" fill="#666666">[text]</text>
<polygon fill="none" stroke="#000000" stroke-width="3" points="44.5,-44.5 44.5,-663.5 2450.5,-663.5 2450.5,-44.5 44.5,-44.5"/>
</g>
<!-- custom_fields_roles -->
<g id="node2" class="node">
<title>custom_fields_roles</title>
<polygon fill="#efefef" stroke="transparent" points="327.5,-892 327.5,-938 597.5,-938 597.5,-892 327.5,-892"/>
<polygon fill="none" stroke="#000000" points="327.5,-892 327.5,-938 597.5,-938 597.5,-892 327.5,-892"/>
<text text-anchor="start" x="334.3626" y="-915.8" font-family="Arial Bold" font-size="18.00" fill="#000000">custom_fields_roles</text>
<text text-anchor="start" x="493.3836" y="-915.8" font-family="Arial" font-size="14.00" fill="#000000"> </text>
<text text-anchor="start" x="497.2742" y="-915.8" font-family="Arial" font-size="14.00" fill="#666666">[BASE TABLE]</text>
<text text-anchor="start" x="357.9109" y="-901.4" font-family="Arial" font-size="14.00" fill="#333333">カスタムフィールド⇔ロール</text>
<polygon fill="none" stroke="#000000" points="327.5,-862 327.5,-892 597.5,-892 597.5,-862 327.5,-862"/>
<text text-anchor="start" x="334.5" y="-873.4" font-family="Arial" font-size="14.00" fill="#000000">custom_field_id </text>
<text text-anchor="start" x="435.6304" y="-873.4" font-family="Arial" font-size="14.00" fill="#666666">[int(11)]</text>
<polygon fill="none" stroke="#000000" points="327.5,-832 327.5,-862 597.5,-862 597.5,-832 327.5,-832"/>
<text text-anchor="start" x="334.5" y="-843.4" font-family="Arial" font-size="14.00" fill="#000000">role_id </text>
<text text-anchor="start" x="380.3948" y="-843.4" font-family="Arial" font-size="14.00" fill="#666666">[int(11)]</text>
</g>
<!-- custom_fields_roles&#45;&gt;custom_fields -->
<g id="edge1" class="edge">
<title>custom_fields_roles:custom_field_id&#45;&gt;custom_fields:id</title>
<path fill="none" stroke="#000000" stroke-dasharray="5,2" d="M607.4897,-875.4103C633.8509,-865.8682 620.569,-815.7081 597.5,-789 435.7041,-601.6803 208.2959,-895.3197 46.5,-708 15.4146,-672.0107 -1.0556,-601 46.5,-601"/>
<polygon fill="#000000" stroke="#000000" points="607.3757,-875.4284 596.7928,-872.5559 602.4379,-876.2142 597.5,-877 597.5,-877 597.5,-877 602.4379,-876.2142 598.2072,-881.4441 607.3757,-875.4284 607.3757,-875.4284"/>
<text text-anchor="start" x="604.8245" y="-887" font-family="Arial" font-size="10.00" fill="#000000">Additional Relation</text>
</g>
<!-- custom_fields_projects -->
<g id="node3" class="node">
<title>custom_fields_projects</title>
<polygon fill="#efefef" stroke="transparent" points="701.5,-892 701.5,-938 995.5,-938 995.5,-892 701.5,-892"/>
<polygon fill="none" stroke="#000000" points="701.5,-892 701.5,-938 995.5,-938 995.5,-892 701.5,-892"/>
<text text-anchor="start" x="708.3584" y="-915.8" font-family="Arial Bold" font-size="18.00" fill="#000000">custom_fields_projects</text>
<text text-anchor="start" x="891.3878" y="-915.8" font-family="Arial" font-size="14.00" fill="#000000"> </text>
<text text-anchor="start" x="895.2784" y="-915.8" font-family="Arial" font-size="14.00" fill="#666666">[BASE TABLE]</text>
<text text-anchor="start" x="728.3632" y="-901.4" font-family="Arial" font-size="14.00" fill="#333333">カスタムフィールド⇔プロジェクト</text>
<polygon fill="none" stroke="#000000" points="701.5,-862 701.5,-892 995.5,-892 995.5,-862 701.5,-862"/>
<text text-anchor="start" x="708.5" y="-873.4" font-family="Arial" font-size="14.00" fill="#000000">custom_field_id </text>
<text text-anchor="start" x="809.6304" y="-873.4" font-family="Arial" font-size="14.00" fill="#666666">[int(11)]</text>
<polygon fill="none" stroke="#000000" points="701.5,-832 701.5,-862 995.5,-862 995.5,-832 701.5,-832"/>
<text text-anchor="start" x="708.5" y="-843.4" font-family="Arial" font-size="14.00" fill="#000000">project_id </text>
<text text-anchor="start" x="773.068" y="-843.4" font-family="Arial" font-size="14.00" fill="#666666">[int(11)]</text>
</g>
<!-- custom_fields_projects&#45;&gt;custom_fields -->
<g id="edge2" class="edge">
<title>custom_fields_projects:custom_field_id&#45;&gt;custom_fields:id</title>
<path fill="none" stroke="#000000" stroke-dasharray="5,2" d="M1005.496,-875.4048C1031.8941,-865.8305 1018.7902,-815.5154 995.5,-789 893.162,-672.4902 803.8813,-758.6297 649.5,-744 582.6801,-737.6679 92.5246,-756.8543 46.5,-708 13.8905,-673.3856 -1.0556,-601 46.5,-601"/>
<polygon fill="#000000" stroke="#000000" points="1005.3751,-875.424 994.7908,-872.5562 1000.4375,-876.212 995.5,-877 995.5,-877 995.5,-877 1000.4375,-876.212 996.2092,-881.4438 1005.3751,-875.424 1005.3751,-875.424"/>
<text text-anchor="start" x="1002.8245" y="-887" font-family="Arial" font-size="10.00" fill="#000000">Additional Relation</text>
</g>
<!-- custom_fields_trackers -->
<g id="node4" class="node">
<title>custom_fields_trackers</title>
<polygon fill="#efefef" stroke="transparent" points="1100.5,-892 1100.5,-938 1395.5,-938 1395.5,-892 1100.5,-892"/>
<polygon fill="none" stroke="#000000" points="1100.5,-892 1100.5,-938 1395.5,-938 1395.5,-892 1100.5,-892"/>
<text text-anchor="start" x="1107.3625" y="-915.8" font-family="Arial Bold" font-size="18.00" fill="#000000">custom_fields_trackers</text>
<text text-anchor="start" x="1291.3837" y="-915.8" font-family="Arial" font-size="14.00" fill="#000000"> </text>
<text text-anchor="start" x="1295.2743" y="-915.8" font-family="Arial" font-size="14.00" fill="#666666">[BASE TABLE]</text>
<text text-anchor="start" x="1131.4451" y="-901.4" font-family="Arial" font-size="14.00" fill="#333333">カスタムフィールド⇔トラッカー</text>
<polygon fill="none" stroke="#000000" points="1100.5,-862 1100.5,-892 1395.5,-892 1395.5,-862 1100.5,-862"/>
<text text-anchor="start" x="1107.5" y="-873.4" font-family="Arial" font-size="14.00" fill="#000000">custom_field_id </text>
<text text-anchor="start" x="1208.6304" y="-873.4" font-family="Arial" font-size="14.00" fill="#666666">[int(11)]</text>
<polygon fill="none" stroke="#000000" points="1100.5,-832 1100.5,-862 1395.5,-862 1395.5,-832 1100.5,-832"/>
<text text-anchor="start" x="1107.5" y="-843.4" font-family="Arial" font-size="14.00" fill="#000000">tracker_id </text>
<text text-anchor="start" x="1172.8394" y="-843.4" font-family="Arial" font-size="14.00" fill="#666666">[int(11)]</text>
</g>
<!-- custom_fields_trackers&#45;&gt;custom_fields -->
<g id="edge3" class="edge">
<title>custom_fields_trackers:custom_field_id&#45;&gt;custom_fields:id</title>
<path fill="none" stroke="#000000" stroke-dasharray="5,2" d="M1090.2772,-875.975C1044.0344,-865.5513 1096.3683,-778.4298 1047.5,-744 956.5189,-679.9 123.7697,-788.0986 46.5,-708 13.483,-673.7742 -1.0556,-601 46.5,-601"/>
<polygon fill="#000000" stroke="#000000" points="1090.5499,-876.0022 1100.051,-881.4775 1095.5249,-876.5011 1100.5,-877 1100.5,-877 1100.5,-877 1095.5249,-876.5011 1100.949,-872.5225 1090.5499,-876.0022 1090.5499,-876.0022"/>
<text text-anchor="start" x="1010.8245" y="-861" font-family="Arial" font-size="10.00" fill="#000000">Additional Relation</text>
</g>
<!-- custom_field_enumerations -->
<g id="node5" class="node">
<title>custom_field_enumerations</title>
<polygon fill="#efefef" stroke="transparent" points="1499.5,-942 1499.5,-977 1830.5,-977 1830.5,-942 1499.5,-942"/>
<polygon fill="none" stroke="#000000" points="1499.5,-942 1499.5,-977 1830.5,-977 1830.5,-942 1499.5,-942"/>
<text text-anchor="start" x="1506.3499" y="-954.8" font-family="Arial Bold" font-size="18.00" fill="#000000">custom_field_enumerations</text>
<text text-anchor="start" x="1726.3963" y="-954.8" font-family="Arial" font-size="14.00" fill="#000000"> </text>
<text text-anchor="start" x="1730.2869" y="-954.8" font-family="Arial" font-size="14.00" fill="#666666">[BASE TABLE]</text>
<polygon fill="none" stroke="#000000" points="1499.5,-912 1499.5,-942 1830.5,-942 1830.5,-912 1499.5,-912"/>
<text text-anchor="start" x="1506.5" y="-923.4" font-family="Arial" font-size="14.00" fill="#000000">id </text>
<text text-anchor="start" x="1521.2798" y="-923.4" font-family="Arial" font-size="14.00" fill="#666666">[int(11)]</text>
<polygon fill="none" stroke="#000000" points="1499.5,-882 1499.5,-912 1830.5,-912 1830.5,-882 1499.5,-882"/>
<text text-anchor="start" x="1506.5" y="-893.4" font-family="Arial" font-size="14.00" fill="#000000">custom_field_id </text>
<text text-anchor="start" x="1607.6304" y="-893.4" font-family="Arial" font-size="14.00" fill="#666666">[int(11)]</text>
<polygon fill="none" stroke="#000000" points="1499.5,-852 1499.5,-882 1830.5,-882 1830.5,-852 1499.5,-852"/>
<text text-anchor="start" x="1506.5" y="-863.4" font-family="Arial" font-size="14.00" fill="#000000">name </text>
<text text-anchor="start" x="1545.399" y="-863.4" font-family="Arial" font-size="14.00" fill="#666666">[varchar(255)]</text>
<polygon fill="none" stroke="#000000" points="1499.5,-822 1499.5,-852 1830.5,-852 1830.5,-822 1499.5,-822"/>
<text text-anchor="start" x="1506.5" y="-833.4" font-family="Arial" font-size="14.00" fill="#000000">active </text>
<text text-anchor="start" x="1546.953" y="-833.4" font-family="Arial" font-size="14.00" fill="#666666">[tinyint(1)]</text>
<polygon fill="none" stroke="#000000" points="1499.5,-792 1499.5,-822 1830.5,-822 1830.5,-792 1499.5,-792"/>
<text text-anchor="start" x="1506.5" y="-803.4" font-family="Arial" font-size="14.00" fill="#000000">position </text>
<text text-anchor="start" x="1558.6248" y="-803.4" font-family="Arial" font-size="14.00" fill="#666666">[int(11)]</text>
</g>
<!-- custom_field_enumerations&#45;&gt;custom_fields -->
<g id="edge4" class="edge">
<title>custom_field_enumerations:custom_field_id&#45;&gt;custom_fields:id</title>
<path fill="none" stroke="#000000" stroke-dasharray="5,2" d="M1489.5045,-896.1265C1436.2315,-886.2046 1456.6471,-794.2657 1499.5,-749.5 1572.5618,-673.1769 2376.4382,-784.3231 2449.5,-708 2482.3849,-673.6472 2497.0556,-601 2449.5,-601"/>
<polygon fill="#000000" stroke="#000000" points="1489.538,-896.1293 1499.1082,-901.4829 1494.519,-896.5647 1499.5,-897 1499.5,-897 1499.5,-897 1494.519,-896.5647 1499.8918,-892.5171 1489.538,-896.1293 1489.538,-896.1293"/>
<text text-anchor="start" x="1409.8245" y="-907" font-family="Arial" font-size="10.00" fill="#000000">Additional Relation</text>
</g>
<!-- custom_values -->
<g id="node6" class="node">
<title>custom_values</title>
<polygon fill="#efefef" stroke="transparent" points="1934.5,-937 1934.5,-983 2165.5,-983 2165.5,-937 1934.5,-937"/>
<polygon fill="none" stroke="#000000" points="1934.5,-937 1934.5,-983 2165.5,-983 2165.5,-937 1934.5,-937"/>
<text text-anchor="start" x="1941.3602" y="-960.8" font-family="Arial Bold" font-size="18.00" fill="#000000">custom_values</text>
<text text-anchor="start" x="2061.386" y="-960.8" font-family="Arial" font-size="14.00" fill="#000000"> </text>
<text text-anchor="start" x="2065.2766" y="-960.8" font-family="Arial" font-size="14.00" fill="#666666">[BASE TABLE]</text>
<text text-anchor="start" x="1964.9787" y="-946.4" font-family="Arial" font-size="14.00" fill="#333333">カスタムフィールドの値</text>
<polygon fill="none" stroke="#000000" points="1934.5,-907 1934.5,-937 2165.5,-937 2165.5,-907 1934.5,-907"/>
<text text-anchor="start" x="1941.5" y="-918.4" font-family="Arial" font-size="14.00" fill="#000000">id </text>
<text text-anchor="start" x="1956.2798" y="-918.4" font-family="Arial" font-size="14.00" fill="#666666">[int(11)]</text>
<polygon fill="none" stroke="#000000" points="1934.5,-877 1934.5,-907 2165.5,-907 2165.5,-877 1934.5,-877"/>
<text text-anchor="start" x="1941.5" y="-888.4" font-family="Arial" font-size="14.00" fill="#000000">customized_type </text>
<text text-anchor="start" x="2050.4172" y="-888.4" font-family="Arial" font-size="14.00" fill="#666666">[varchar(30)]</text>
<polygon fill="none" stroke="#000000" points="1934.5,-847 1934.5,-877 2165.5,-877 2165.5,-847 1934.5,-847"/>
<text text-anchor="start" x="1941.5" y="-858.4" font-family="Arial" font-size="14.00" fill="#000000">customized_id </text>
<text text-anchor="start" x="2034.8506" y="-858.4" font-family="Arial" font-size="14.00" fill="#666666">[int(11)]</text>
<polygon fill="none" stroke="#000000" points="1934.5,-817 1934.5,-847 2165.5,-847 2165.5,-817 1934.5,-817"/>
<text text-anchor="start" x="1941.5" y="-828.4" font-family="Arial" font-size="14.00" fill="#000000">custom_field_id </text>
<text text-anchor="start" x="2042.6304" y="-828.4" font-family="Arial" font-size="14.00" fill="#666666">[int(11)]</text>
<polygon fill="none" stroke="#000000" points="1934.5,-787 1934.5,-817 2165.5,-817 2165.5,-787 1934.5,-787"/>
<text text-anchor="start" x="1941.5" y="-798.4" font-family="Arial" font-size="14.00" fill="#000000">value </text>
<text text-anchor="start" x="1978.845" y="-798.4" font-family="Arial" font-size="14.00" fill="#666666">[longtext]</text>
</g>
<!-- custom_values&#45;&gt;custom_fields -->
<g id="edge5" class="edge">
<title>custom_values:custom_field_id&#45;&gt;custom_fields:id</title>
<path fill="none" stroke="#000000" stroke-dasharray="5,2" d="M1924.4817,-830.3847C1897.9538,-820.6928 1910.4308,-769.8104 1934.5,-744 2012.7424,-660.0973 2371.2576,-791.9027 2449.5,-708 2481.9332,-673.2205 2497.0556,-601 2449.5,-601"/>
<polygon fill="#000000" stroke="#000000" points="1924.6275,-830.4081 1933.7836,-836.4426 1929.5638,-831.204 1934.5,-832 1934.5,-832 1934.5,-832 1929.5638,-831.204 1935.2164,-827.5574 1924.6275,-830.4081 1924.6275,-830.4081"/>
<text text-anchor="start" x="1844.8245" y="-842" font-family="Arial" font-size="10.00" fill="#000000">Additional Relation</text>
</g>
</g>
</svg>
