<?xml version="1.0" encoding="UTF-8" standalone="no"?>
<!DOCTYPE svg PUBLIC "-//W3C//DTD SVG 1.1//EN"
 "http://www.w3.org/Graphics/SVG/1.1/DTD/svg11.dtd">
<!-- Generated by graphviz version 2.40.1 (20161225.0304)
 -->
<!-- Title: documents Pages: 1 -->
<svg width="1202pt" height="974pt"
 viewBox="0.00 0.00 1202.00 974.00" xmlns="http://www.w3.org/2000/svg" xmlns:xlink="http://www.w3.org/1999/xlink">
<g id="graph0" class="graph" transform="scale(1 1) rotate(0) translate(4 970)">
<title>documents</title>
<polygon fill="#ffffff" stroke="transparent" points="-4,4 -4,-970 1198,-970 1198,4 -4,4"/>
<!-- documents -->
<g id="node1" class="node">
<title>documents</title>
<polygon fill="#efefef" stroke="transparent" points="351.5,-874 351.5,-920 550.5,-920 550.5,-874 351.5,-874"/>
<polygon fill="none" stroke="#000000" points="351.5,-874 351.5,-920 550.5,-920 550.5,-874 351.5,-874"/>
<text text-anchor="start" x="358.3604" y="-897.8" font-family="Arial Bold" font-size="18.00" fill="#000000">documents</text>
<text text-anchor="start" x="446.3858" y="-897.8" font-family="Arial" font-size="14.00" fill="#000000"> </text>
<text text-anchor="start" x="450.2764" y="-897.8" font-family="Arial" font-size="14.00" fill="#666666">[BASE TABLE]</text>
<text text-anchor="start" x="439.7202" y="-883.4" font-family="Arial" font-size="14.00" fill="#333333">文書</text>
<polygon fill="none" stroke="#000000" points="351.5,-844 351.5,-874 550.5,-874 550.5,-844 351.5,-844"/>
<text text-anchor="start" x="358.5" y="-855.4" font-family="Arial" font-size="14.00" fill="#000000">id </text>
<text text-anchor="start" x="373.2798" y="-855.4" font-family="Arial" font-size="14.00" fill="#666666">[int(11)]</text>
<polygon fill="none" stroke="#000000" points="351.5,-814 351.5,-844 550.5,-844 550.5,-814 351.5,-814"/>
<text text-anchor="start" x="358.5" y="-825.4" font-family="Arial" font-size="14.00" fill="#000000">project_id </text>
<text text-anchor="start" x="423.068" y="-825.4" font-family="Arial" font-size="14.00" fill="#666666">[int(11)]</text>
<polygon fill="none" stroke="#000000" points="351.5,-784 351.5,-814 550.5,-814 550.5,-784 351.5,-784"/>
<text text-anchor="start" x="358.5" y="-795.4" font-family="Arial" font-size="14.00" fill="#000000">category_id </text>
<text text-anchor="start" x="434.744" y="-795.4" font-family="Arial" font-size="14.00" fill="#666666">[int(11)]</text>
<polygon fill="none" stroke="#000000" points="351.5,-754 351.5,-784 550.5,-784 550.5,-754 351.5,-754"/>
<text text-anchor="start" x="358.5" y="-765.4" font-family="Arial" font-size="14.00" fill="#000000">title </text>
<text text-anchor="start" x="384.1676" y="-765.4" font-family="Arial" font-size="14.00" fill="#666666">[varchar(255)]</text>
<polygon fill="none" stroke="#000000" points="351.5,-724 351.5,-754 550.5,-754 550.5,-724 351.5,-724"/>
<text text-anchor="start" x="358.5" y="-735.4" font-family="Arial" font-size="14.00" fill="#000000">description </text>
<text text-anchor="start" x="430.068" y="-735.4" font-family="Arial" font-size="14.00" fill="#666666">[text]</text>
<polygon fill="none" stroke="#000000" points="351.5,-694 351.5,-724 550.5,-724 550.5,-694 351.5,-694"/>
<text text-anchor="start" x="358.5" y="-705.4" font-family="Arial" font-size="14.00" fill="#000000">created_on </text>
<text text-anchor="start" x="432.42" y="-705.4" font-family="Arial" font-size="14.00" fill="#666666">[timestamp]</text>
<polygon fill="none" stroke="#000000" stroke-width="3" points="349.5,-692.5 349.5,-921.5 551.5,-921.5 551.5,-692.5 349.5,-692.5"/>
</g>
<!-- projects -->
<g id="node2" class="node">
<title>projects</title>
<polygon fill="#efefef" stroke="transparent" points="43.5,-523 43.5,-569 252.5,-569 252.5,-523 43.5,-523"/>
<polygon fill="none" stroke="#000000" points="43.5,-523 43.5,-569 252.5,-569 252.5,-523 43.5,-523"/>
<text text-anchor="start" x="67.8695" y="-546.8" font-family="Arial Bold" font-size="18.00" fill="#000000">projects</text>
<text text-anchor="start" x="130.8767" y="-546.8" font-family="Arial" font-size="14.00" fill="#000000"> </text>
<text text-anchor="start" x="134.7673" y="-546.8" font-family="Arial" font-size="14.00" fill="#666666">[BASE TABLE]</text>
<text text-anchor="start" x="105.6269" y="-532.4" font-family="Arial" font-size="14.00" fill="#333333">プロジェクト</text>
<polygon fill="none" stroke="#000000" points="43.5,-493 43.5,-523 252.5,-523 252.5,-493 43.5,-493"/>
<text text-anchor="start" x="50.5" y="-504.4" font-family="Arial" font-size="14.00" fill="#000000">id </text>
<text text-anchor="start" x="65.2798" y="-504.4" font-family="Arial" font-size="14.00" fill="#666666">[int(11)]</text>
<polygon fill="none" stroke="#000000" points="43.5,-463 43.5,-493 252.5,-493 252.5,-463 43.5,-463"/>
<text text-anchor="start" x="50.5" y="-474.4" font-family="Arial" font-size="14.00" fill="#000000">name </text>
<text text-anchor="start" x="89.399" y="-474.4" font-family="Arial" font-size="14.00" fill="#666666">[varchar(255)]</text>
<polygon fill="none" stroke="#000000" points="43.5,-433 43.5,-463 252.5,-463 252.5,-433 43.5,-433"/>
<text text-anchor="start" x="50.5" y="-444.4" font-family="Arial" font-size="14.00" fill="#000000">description </text>
<text text-anchor="start" x="122.068" y="-444.4" font-family="Arial" font-size="14.00" fill="#666666">[text]</text>
<polygon fill="none" stroke="#000000" points="43.5,-403 43.5,-433 252.5,-433 252.5,-403 43.5,-403"/>
<text text-anchor="start" x="50.5" y="-414.4" font-family="Arial" font-size="14.00" fill="#000000">homepage </text>
<text text-anchor="start" x="120.5294" y="-414.4" font-family="Arial" font-size="14.00" fill="#666666">[varchar(255)]</text>
<polygon fill="none" stroke="#000000" points="43.5,-373 43.5,-403 252.5,-403 252.5,-373 43.5,-373"/>
<text text-anchor="start" x="50.5" y="-384.4" font-family="Arial" font-size="14.00" fill="#000000">is_public </text>
<text text-anchor="start" x="108.8408" y="-384.4" font-family="Arial" font-size="14.00" fill="#666666">[tinyint(1)]</text>
<polygon fill="none" stroke="#000000" points="43.5,-343 43.5,-373 252.5,-373 252.5,-343 43.5,-343"/>
<text text-anchor="start" x="50.5" y="-354.4" font-family="Arial" font-size="14.00" fill="#000000">parent_id </text>
<text text-anchor="start" x="112.744" y="-354.4" font-family="Arial" font-size="14.00" fill="#666666">[int(11)]</text>
<polygon fill="none" stroke="#000000" points="43.5,-313 43.5,-343 252.5,-343 252.5,-313 43.5,-313"/>
<text text-anchor="start" x="50.5" y="-324.4" font-family="Arial" font-size="14.00" fill="#000000">created_on </text>
<text text-anchor="start" x="124.42" y="-324.4" font-family="Arial" font-size="14.00" fill="#666666">[timestamp]</text>
<polygon fill="none" stroke="#000000" points="43.5,-283 43.5,-313 252.5,-313 252.5,-283 43.5,-283"/>
<text text-anchor="start" x="50.5" y="-294.4" font-family="Arial" font-size="14.00" fill="#000000">updated_on </text>
<text text-anchor="start" x="128.3246" y="-294.4" font-family="Arial" font-size="14.00" fill="#666666">[timestamp]</text>
<polygon fill="none" stroke="#000000" points="43.5,-253 43.5,-283 252.5,-283 252.5,-253 43.5,-253"/>
<text text-anchor="start" x="50.5" y="-264.4" font-family="Arial" font-size="14.00" fill="#000000">identifier </text>
<text text-anchor="start" x="107.2826" y="-264.4" font-family="Arial" font-size="14.00" fill="#666666">[varchar(255)]</text>
<polygon fill="none" stroke="#000000" points="43.5,-223 43.5,-253 252.5,-253 252.5,-223 43.5,-223"/>
<text text-anchor="start" x="50.5" y="-234.4" font-family="Arial" font-size="14.00" fill="#000000">status </text>
<text text-anchor="start" x="91.737" y="-234.4" font-family="Arial" font-size="14.00" fill="#666666">[int(11)]</text>
<polygon fill="none" stroke="#000000" points="43.5,-193 43.5,-223 252.5,-223 252.5,-193 43.5,-193"/>
<text text-anchor="start" x="50.5" y="-204.4" font-family="Arial" font-size="14.00" fill="#000000">lft </text>
<text text-anchor="start" x="65.2784" y="-204.4" font-family="Arial" font-size="14.00" fill="#666666">[int(11)]</text>
<polygon fill="none" stroke="#000000" points="43.5,-163 43.5,-193 252.5,-193 252.5,-163 43.5,-163"/>
<text text-anchor="start" x="50.5" y="-174.4" font-family="Arial" font-size="14.00" fill="#000000">rgt </text>
<text text-anchor="start" x="70.7244" y="-174.4" font-family="Arial" font-size="14.00" fill="#666666">[int(11)]</text>
<polygon fill="none" stroke="#000000" points="43.5,-133 43.5,-163 252.5,-163 252.5,-133 43.5,-133"/>
<text text-anchor="start" x="50.5" y="-144.4" font-family="Arial" font-size="14.00" fill="#000000">inherit_members </text>
<text text-anchor="start" x="158.615" y="-144.4" font-family="Arial" font-size="14.00" fill="#666666">[tinyint(1)]</text>
<polygon fill="none" stroke="#000000" points="43.5,-103 43.5,-133 252.5,-133 252.5,-103 43.5,-103"/>
<text text-anchor="start" x="50.5" y="-114.4" font-family="Arial" font-size="14.00" fill="#000000">default_version_id </text>
<text text-anchor="start" x="167.9782" y="-114.4" font-family="Arial" font-size="14.00" fill="#666666">[int(11)]</text>
<polygon fill="none" stroke="#000000" points="43.5,-73 43.5,-103 252.5,-103 252.5,-73 43.5,-73"/>
<text text-anchor="start" x="50.357" y="-84.4" font-family="Arial" font-size="14.00" fill="#000000">default_assigned_to_id </text>
<text text-anchor="start" x="198.1956" y="-84.4" font-family="Arial" font-size="14.00" fill="#666666">[int(11)]</text>
<polygon fill="none" stroke="#000000" points="43.5,-43 43.5,-73 252.5,-73 252.5,-43 43.5,-43"/>
<text text-anchor="start" x="50.3633" y="-54.4" font-family="Arial" font-size="14.00" fill="#000000">default_issue_query_id </text>
<text text-anchor="start" x="198.1893" y="-54.4" font-family="Arial" font-size="14.00" fill="#666666">[int(11)]</text>
</g>
<!-- documents&#45;&gt;projects -->
<g id="edge1" class="edge">
<title>documents:project_id&#45;&gt;projects:id</title>
<path fill="none" stroke="#000000" stroke-dasharray="5,2" d="M341.4297,-826.7788C281.4652,-798.4177 323.5038,-508 252.5,-508"/>
<polygon fill="#000000" stroke="#000000" points="341.7347,-826.846 350.5307,-833.3944 346.6174,-827.923 351.5,-829 351.5,-829 351.5,-829 346.6174,-827.923 352.4693,-824.6056 341.7347,-826.846 341.7347,-826.846"/>
<text text-anchor="start" x="261.8245" y="-839" font-family="Arial" font-size="10.00" fill="#000000">Additional Relation</text>
</g>
<!-- enumerations -->
<g id="node3" class="node">
<title>enumerations</title>
<polygon fill="#efefef" stroke="transparent" points="356.5,-418 356.5,-464 1151.5,-464 1151.5,-418 356.5,-418"/>
<polygon fill="none" stroke="#000000" points="356.5,-418 356.5,-464 1151.5,-464 1151.5,-418 356.5,-418"/>
<text text-anchor="start" x="650.861" y="-441.8" font-family="Arial Bold" font-size="18.00" fill="#000000">enumerations</text>
<text text-anchor="start" x="759.8852" y="-441.8" font-family="Arial" font-size="14.00" fill="#000000"> </text>
<text text-anchor="start" x="763.7758" y="-441.8" font-family="Arial" font-size="14.00" fill="#666666">[BASE TABLE]</text>
<text text-anchor="start" x="577.579" y="-427.4" font-family="Arial" font-size="14.00" fill="#333333">選択肢の値(作業分類/チケットの優先度/文書カテゴリ)</text>
<polygon fill="none" stroke="#000000" points="356.5,-388 356.5,-418 1151.5,-418 1151.5,-388 356.5,-388"/>
<text text-anchor="start" x="363.5" y="-399.4" font-family="Arial" font-size="14.00" fill="#000000">id </text>
<text text-anchor="start" x="378.2798" y="-399.4" font-family="Arial" font-size="14.00" fill="#666666">[int(11)]</text>
<polygon fill="none" stroke="#000000" points="356.5,-358 356.5,-388 1151.5,-388 1151.5,-358 356.5,-358"/>
<text text-anchor="start" x="363.5" y="-369.4" font-family="Arial" font-size="14.00" fill="#000000">name </text>
<text text-anchor="start" x="402.399" y="-369.4" font-family="Arial" font-size="14.00" fill="#666666">[varchar(30)]</text>
<polygon fill="none" stroke="#000000" points="356.5,-328 356.5,-358 1151.5,-358 1151.5,-328 356.5,-328"/>
<text text-anchor="start" x="363.5" y="-339.4" font-family="Arial" font-size="14.00" fill="#000000">position </text>
<text text-anchor="start" x="415.6248" y="-339.4" font-family="Arial" font-size="14.00" fill="#666666">[int(11)]</text>
<polygon fill="none" stroke="#000000" points="356.5,-298 356.5,-328 1151.5,-328 1151.5,-298 356.5,-298"/>
<text text-anchor="start" x="363.5" y="-309.4" font-family="Arial" font-size="14.00" fill="#000000">is_default </text>
<text text-anchor="start" x="427.298" y="-309.4" font-family="Arial" font-size="14.00" fill="#666666">[tinyint(1)]</text>
<polygon fill="none" stroke="#000000" points="356.5,-268 356.5,-298 1151.5,-298 1151.5,-268 356.5,-268"/>
<text text-anchor="start" x="363.1522" y="-279.4" font-family="Arial" font-size="14.00" fill="#000000">type </text>
<text text-anchor="start" x="393.4986" y="-279.4" font-family="Arial" font-size="14.00" fill="#666666">[varchar(255)]</text>
<text text-anchor="start" x="480.6178" y="-279.4" font-family="Arial" font-size="14.00" fill="#000000"> IssuePriority:チケットの優先度 DocumentCategory:文書カテゴリ TimeEntryActivity:作業分類 (時間管理) </text>
<polygon fill="none" stroke="#000000" points="356.5,-238 356.5,-268 1151.5,-268 1151.5,-238 356.5,-238"/>
<text text-anchor="start" x="363.5" y="-249.4" font-family="Arial" font-size="14.00" fill="#000000">active </text>
<text text-anchor="start" x="403.953" y="-249.4" font-family="Arial" font-size="14.00" fill="#666666">[tinyint(1)]</text>
<polygon fill="none" stroke="#000000" points="356.5,-208 356.5,-238 1151.5,-238 1151.5,-208 356.5,-208"/>
<text text-anchor="start" x="363.5" y="-219.4" font-family="Arial" font-size="14.00" fill="#000000">project_id </text>
<text text-anchor="start" x="428.068" y="-219.4" font-family="Arial" font-size="14.00" fill="#666666">[int(11)]</text>
<polygon fill="none" stroke="#000000" points="356.5,-178 356.5,-208 1151.5,-208 1151.5,-178 356.5,-178"/>
<text text-anchor="start" x="363.5" y="-189.4" font-family="Arial" font-size="14.00" fill="#000000">parent_id </text>
<text text-anchor="start" x="425.744" y="-189.4" font-family="Arial" font-size="14.00" fill="#666666">[int(11)]</text>
<polygon fill="none" stroke="#000000" points="356.5,-148 356.5,-178 1151.5,-178 1151.5,-148 356.5,-148"/>
<text text-anchor="start" x="363.5" y="-159.4" font-family="Arial" font-size="14.00" fill="#000000">position_name </text>
<text text-anchor="start" x="458.4158" y="-159.4" font-family="Arial" font-size="14.00" fill="#666666">[varchar(30)]</text>
</g>
<!-- documents&#45;&gt;enumerations -->
<g id="edge2" class="edge">
<title>documents:category_id&#45;&gt;enumerations:id</title>
<path fill="none" stroke="#000000" stroke-dasharray="5,2" d="M560.5975,-798.2018C613.6212,-789.1188 579.2968,-704.5288 550.5,-648 502.1174,-553.0237 404.8826,-601.9763 356.5,-507 335.5191,-465.8139 310.2778,-403 356.5,-403"/>
<polygon fill="#000000" stroke="#000000" points="560.4689,-798.2119 550.1453,-794.514 555.4845,-798.6059 550.5,-799 550.5,-799 550.5,-799 555.4845,-798.6059 550.8547,-803.486 560.4689,-798.2119 560.4689,-798.2119"/>
<text text-anchor="start" x="557.8245" y="-809" font-family="Arial" font-size="10.00" fill="#000000">Additional Relation</text>
</g>
</g>
</svg>
