<?xml version="1.0" encoding="UTF-8" standalone="no"?>
<!DOCTYPE svg PUBLIC "-//W3C//DTD SVG 1.1//EN"
 "http://www.w3.org/Graphics/SVG/1.1/DTD/svg11.dtd">
<!-- Generated by graphviz version 2.40.1 (20161225.0304)
 -->
<!-- Title: enabled_modules Pages: 1 -->
<svg width="404pt" height="884pt"
 viewBox="0.00 0.00 403.50 884.00" xmlns="http://www.w3.org/2000/svg" xmlns:xlink="http://www.w3.org/1999/xlink">
<g id="graph0" class="graph" transform="scale(1 1) rotate(0) translate(4 880)">
<title>enabled_modules</title>
<polygon fill="#ffffff" stroke="transparent" points="-4,4 -4,-880 399.5,-880 399.5,4 -4,4"/>
<!-- enabled_modules -->
<g id="node1" class="node">
<title>enabled_modules</title>
<polygon fill="#efefef" stroke="transparent" points="97,-784 97,-830 350,-830 350,-784 97,-784"/>
<polygon fill="none" stroke="#000000" points="97,-784 97,-830 350,-830 350,-784 97,-784"/>
<text text-anchor="start" x="103.8487" y="-807.8" font-family="Arial Bold" font-size="18.00" fill="#000000">enabled_modules</text>
<text text-anchor="start" x="245.8975" y="-807.8" font-family="Arial" font-size="14.00" fill="#000000"> </text>
<text text-anchor="start" x="249.7881" y="-807.8" font-family="Arial" font-size="14.00" fill="#666666">[BASE TABLE]</text>
<text text-anchor="start" x="154.6725" y="-793.4" font-family="Arial" font-size="14.00" fill="#333333">モジュールの有効化</text>
<polygon fill="none" stroke="#000000" points="97,-754 97,-784 350,-784 350,-754 97,-754"/>
<text text-anchor="start" x="104" y="-765.4" font-family="Arial" font-size="14.00" fill="#000000">id </text>
<text text-anchor="start" x="118.7798" y="-765.4" font-family="Arial" font-size="14.00" fill="#666666">[int(11)]</text>
<polygon fill="none" stroke="#000000" points="97,-724 97,-754 350,-754 350,-724 97,-724"/>
<text text-anchor="start" x="104" y="-735.4" font-family="Arial" font-size="14.00" fill="#000000">project_id </text>
<text text-anchor="start" x="168.568" y="-735.4" font-family="Arial" font-size="14.00" fill="#666666">[int(11)]</text>
<polygon fill="none" stroke="#000000" points="97,-694 97,-724 350,-724 350,-694 97,-694"/>
<text text-anchor="start" x="104" y="-705.4" font-family="Arial" font-size="14.00" fill="#000000">name </text>
<text text-anchor="start" x="142.899" y="-705.4" font-family="Arial" font-size="14.00" fill="#666666">[varchar(255)]</text>
<text text-anchor="start" x="230.0182" y="-705.4" font-family="Arial" font-size="14.00" fill="#000000"> モジュール名</text>
<polygon fill="none" stroke="#000000" stroke-width="3" points="95,-692.5 95,-831.5 351,-831.5 351,-692.5 95,-692.5"/>
</g>
<!-- projects -->
<g id="node2" class="node">
<title>projects</title>
<polygon fill="#efefef" stroke="transparent" points="119,-523 119,-569 328,-569 328,-523 119,-523"/>
<polygon fill="none" stroke="#000000" points="119,-523 119,-569 328,-569 328,-523 119,-523"/>
<text text-anchor="start" x="143.3695" y="-546.8" font-family="Arial Bold" font-size="18.00" fill="#000000">projects</text>
<text text-anchor="start" x="206.3767" y="-546.8" font-family="Arial" font-size="14.00" fill="#000000"> </text>
<text text-anchor="start" x="210.2673" y="-546.8" font-family="Arial" font-size="14.00" fill="#666666">[BASE TABLE]</text>
<text text-anchor="start" x="181.1269" y="-532.4" font-family="Arial" font-size="14.00" fill="#333333">プロジェクト</text>
<polygon fill="none" stroke="#000000" points="119,-493 119,-523 328,-523 328,-493 119,-493"/>
<text text-anchor="start" x="126" y="-504.4" font-family="Arial" font-size="14.00" fill="#000000">id </text>
<text text-anchor="start" x="140.7798" y="-504.4" font-family="Arial" font-size="14.00" fill="#666666">[int(11)]</text>
<polygon fill="none" stroke="#000000" points="119,-463 119,-493 328,-493 328,-463 119,-463"/>
<text text-anchor="start" x="126" y="-474.4" font-family="Arial" font-size="14.00" fill="#000000">name </text>
<text text-anchor="start" x="164.899" y="-474.4" font-family="Arial" font-size="14.00" fill="#666666">[varchar(255)]</text>
<polygon fill="none" stroke="#000000" points="119,-433 119,-463 328,-463 328,-433 119,-433"/>
<text text-anchor="start" x="126" y="-444.4" font-family="Arial" font-size="14.00" fill="#000000">description </text>
<text text-anchor="start" x="197.568" y="-444.4" font-family="Arial" font-size="14.00" fill="#666666">[text]</text>
<polygon fill="none" stroke="#000000" points="119,-403 119,-433 328,-433 328,-403 119,-403"/>
<text text-anchor="start" x="126" y="-414.4" font-family="Arial" font-size="14.00" fill="#000000">homepage </text>
<text text-anchor="start" x="196.0294" y="-414.4" font-family="Arial" font-size="14.00" fill="#666666">[varchar(255)]</text>
<polygon fill="none" stroke="#000000" points="119,-373 119,-403 328,-403 328,-373 119,-373"/>
<text text-anchor="start" x="126" y="-384.4" font-family="Arial" font-size="14.00" fill="#000000">is_public </text>
<text text-anchor="start" x="184.3408" y="-384.4" font-family="Arial" font-size="14.00" fill="#666666">[tinyint(1)]</text>
<polygon fill="none" stroke="#000000" points="119,-343 119,-373 328,-373 328,-343 119,-343"/>
<text text-anchor="start" x="126" y="-354.4" font-family="Arial" font-size="14.00" fill="#000000">parent_id </text>
<text text-anchor="start" x="188.244" y="-354.4" font-family="Arial" font-size="14.00" fill="#666666">[int(11)]</text>
<polygon fill="none" stroke="#000000" points="119,-313 119,-343 328,-343 328,-313 119,-313"/>
<text text-anchor="start" x="126" y="-324.4" font-family="Arial" font-size="14.00" fill="#000000">created_on </text>
<text text-anchor="start" x="199.92" y="-324.4" font-family="Arial" font-size="14.00" fill="#666666">[timestamp]</text>
<polygon fill="none" stroke="#000000" points="119,-283 119,-313 328,-313 328,-283 119,-283"/>
<text text-anchor="start" x="126" y="-294.4" font-family="Arial" font-size="14.00" fill="#000000">updated_on </text>
<text text-anchor="start" x="203.8246" y="-294.4" font-family="Arial" font-size="14.00" fill="#666666">[timestamp]</text>
<polygon fill="none" stroke="#000000" points="119,-253 119,-283 328,-283 328,-253 119,-253"/>
<text text-anchor="start" x="126" y="-264.4" font-family="Arial" font-size="14.00" fill="#000000">identifier </text>
<text text-anchor="start" x="182.7826" y="-264.4" font-family="Arial" font-size="14.00" fill="#666666">[varchar(255)]</text>
<polygon fill="none" stroke="#000000" points="119,-223 119,-253 328,-253 328,-223 119,-223"/>
<text text-anchor="start" x="126" y="-234.4" font-family="Arial" font-size="14.00" fill="#000000">status </text>
<text text-anchor="start" x="167.237" y="-234.4" font-family="Arial" font-size="14.00" fill="#666666">[int(11)]</text>
<polygon fill="none" stroke="#000000" points="119,-193 119,-223 328,-223 328,-193 119,-193"/>
<text text-anchor="start" x="126" y="-204.4" font-family="Arial" font-size="14.00" fill="#000000">lft </text>
<text text-anchor="start" x="140.7784" y="-204.4" font-family="Arial" font-size="14.00" fill="#666666">[int(11)]</text>
<polygon fill="none" stroke="#000000" points="119,-163 119,-193 328,-193 328,-163 119,-163"/>
<text text-anchor="start" x="126" y="-174.4" font-family="Arial" font-size="14.00" fill="#000000">rgt </text>
<text text-anchor="start" x="146.2244" y="-174.4" font-family="Arial" font-size="14.00" fill="#666666">[int(11)]</text>
<polygon fill="none" stroke="#000000" points="119,-133 119,-163 328,-163 328,-133 119,-133"/>
<text text-anchor="start" x="126" y="-144.4" font-family="Arial" font-size="14.00" fill="#000000">inherit_members </text>
<text text-anchor="start" x="234.115" y="-144.4" font-family="Arial" font-size="14.00" fill="#666666">[tinyint(1)]</text>
<polygon fill="none" stroke="#000000" points="119,-103 119,-133 328,-133 328,-103 119,-103"/>
<text text-anchor="start" x="126" y="-114.4" font-family="Arial" font-size="14.00" fill="#000000">default_version_id </text>
<text text-anchor="start" x="243.4782" y="-114.4" font-family="Arial" font-size="14.00" fill="#666666">[int(11)]</text>
<polygon fill="none" stroke="#000000" points="119,-73 119,-103 328,-103 328,-73 119,-73"/>
<text text-anchor="start" x="125.857" y="-84.4" font-family="Arial" font-size="14.00" fill="#000000">default_assigned_to_id </text>
<text text-anchor="start" x="273.6956" y="-84.4" font-family="Arial" font-size="14.00" fill="#666666">[int(11)]</text>
<polygon fill="none" stroke="#000000" points="119,-43 119,-73 328,-73 328,-43 119,-43"/>
<text text-anchor="start" x="125.8633" y="-54.4" font-family="Arial" font-size="14.00" fill="#000000">default_issue_query_id </text>
<text text-anchor="start" x="273.6893" y="-54.4" font-family="Arial" font-size="14.00" fill="#666666">[int(11)]</text>
</g>
<!-- enabled_modules&#45;&gt;projects -->
<g id="edge1" class="edge">
<title>enabled_modules:project_id&#45;&gt;projects:id</title>
<path fill="none" stroke="#000000" stroke-dasharray="5,2" d="M86.8618,-738.2088C-4.5325,-723.4789 19.3938,-508 119,-508"/>
<polygon fill="#000000" stroke="#000000" points="87.0303,-738.2219 96.6499,-743.4864 92.0152,-738.611 97,-739 97,-739 97,-739 92.0152,-738.611 97.3501,-734.5136 87.0303,-738.2219 87.0303,-738.2219"/>
<text text-anchor="start" x="7.3245" y="-749" font-family="Arial" font-size="10.00" fill="#000000">Additional Relation</text>
</g>
</g>
</svg>
