<?xml version="1.0" encoding="UTF-8" standalone="no"?>
<!DOCTYPE svg PUBLIC "-//W3C//DTD SVG 1.1//EN"
 "http://www.w3.org/Graphics/SVG/1.1/DTD/svg11.dtd">
<!-- Generated by graphviz version 2.40.1 (20161225.0304)
 -->
<!-- Title: enabled_modules Pages: 1 -->
<svg width="404pt" height="843pt"
 viewBox="0.00 0.00 403.50 843.00" xmlns="http://www.w3.org/2000/svg" xmlns:xlink="http://www.w3.org/1999/xlink">
<g id="graph0" class="graph" transform="scale(1 1) rotate(0) translate(4 839)">
<title>enabled_modules</title>
<polygon fill="#ffffff" stroke="transparent" points="-4,4 -4,-839 399.5,-839 399.5,4 -4,4"/>
<!-- enabled_modules -->
<g id="node1" class="node">
<title>enabled_modules</title>
<polygon fill="#efefef" stroke="transparent" points="97,-753.5 97,-788.5 350,-788.5 350,-753.5 97,-753.5"/>
<polygon fill="none" stroke="#000000" points="97,-753.5 97,-788.5 350,-788.5 350,-753.5 97,-753.5"/>
<text text-anchor="start" x="103.8487" y="-766.3" font-family="Arial Bold" font-size="18.00" fill="#000000">enabled_modules</text>
<text text-anchor="start" x="245.8975" y="-766.3" font-family="Arial" font-size="14.00" fill="#000000"> </text>
<text text-anchor="start" x="249.7881" y="-766.3" font-family="Arial" font-size="14.00" fill="#666666">[BASE TABLE]</text>
<polygon fill="none" stroke="#000000" points="97,-723.5 97,-753.5 350,-753.5 350,-723.5 97,-723.5"/>
<text text-anchor="start" x="104" y="-734.9" font-family="Arial" font-size="14.00" fill="#000000">id </text>
<text text-anchor="start" x="118.7798" y="-734.9" font-family="Arial" font-size="14.00" fill="#666666">[int(11)]</text>
<polygon fill="none" stroke="#000000" points="97,-693.5 97,-723.5 350,-723.5 350,-693.5 97,-693.5"/>
<text text-anchor="start" x="104" y="-704.9" font-family="Arial" font-size="14.00" fill="#000000">project_id </text>
<text text-anchor="start" x="168.568" y="-704.9" font-family="Arial" font-size="14.00" fill="#666666">[int(11)]</text>
<polygon fill="none" stroke="#000000" points="97,-663.5 97,-693.5 350,-693.5 350,-663.5 97,-663.5"/>
<text text-anchor="start" x="104" y="-674.9" font-family="Arial" font-size="14.00" fill="#000000">name </text>
<text text-anchor="start" x="142.899" y="-674.9" font-family="Arial" font-size="14.00" fill="#666666">[varchar(255)]</text>
<polygon fill="none" stroke="#000000" stroke-width="3" points="95,-662.5 95,-790.5 351,-790.5 351,-662.5 95,-662.5"/>
</g>
<!-- projects -->
<g id="node2" class="node">
<title>projects</title>
<polygon fill="#efefef" stroke="transparent" points="119,-493 119,-539 328,-539 328,-493 119,-493"/>
<polygon fill="none" stroke="#000000" points="119,-493 119,-539 328,-539 328,-493 119,-493"/>
<text text-anchor="start" x="143.3695" y="-516.8" font-family="Arial Bold" font-size="18.00" fill="#000000">projects</text>
<text text-anchor="start" x="206.3767" y="-516.8" font-family="Arial" font-size="14.00" fill="#000000"> </text>
<text text-anchor="start" x="210.2673" y="-516.8" font-family="Arial" font-size="14.00" fill="#666666">[BASE TABLE]</text>
<text text-anchor="start" x="181.1269" y="-502.4" font-family="Arial" font-size="14.00" fill="#333333">プロジェクト</text>
<polygon fill="none" stroke="#000000" points="119,-463 119,-493 328,-493 328,-463 119,-463"/>
<text text-anchor="start" x="126" y="-474.4" font-family="Arial" font-size="14.00" fill="#000000">id </text>
<text text-anchor="start" x="140.7798" y="-474.4" font-family="Arial" font-size="14.00" fill="#666666">[int(11)]</text>
<polygon fill="none" stroke="#000000" points="119,-433 119,-463 328,-463 328,-433 119,-433"/>
<text text-anchor="start" x="126" y="-444.4" font-family="Arial" font-size="14.00" fill="#000000">name </text>
<text text-anchor="start" x="164.899" y="-444.4" font-family="Arial" font-size="14.00" fill="#666666">[varchar(255)]</text>
<polygon fill="none" stroke="#000000" points="119,-403 119,-433 328,-433 328,-403 119,-403"/>
<text text-anchor="start" x="126" y="-414.4" font-family="Arial" font-size="14.00" fill="#000000">description </text>
<text text-anchor="start" x="197.568" y="-414.4" font-family="Arial" font-size="14.00" fill="#666666">[text]</text>
<polygon fill="none" stroke="#000000" points="119,-373 119,-403 328,-403 328,-373 119,-373"/>
<text text-anchor="start" x="126" y="-384.4" font-family="Arial" font-size="14.00" fill="#000000">homepage </text>
<text text-anchor="start" x="196.0294" y="-384.4" font-family="Arial" font-size="14.00" fill="#666666">[varchar(255)]</text>
<polygon fill="none" stroke="#000000" points="119,-343 119,-373 328,-373 328,-343 119,-343"/>
<text text-anchor="start" x="126" y="-354.4" font-family="Arial" font-size="14.00" fill="#000000">is_public </text>
<text text-anchor="start" x="184.3408" y="-354.4" font-family="Arial" font-size="14.00" fill="#666666">[tinyint(1)]</text>
<polygon fill="none" stroke="#000000" points="119,-313 119,-343 328,-343 328,-313 119,-313"/>
<text text-anchor="start" x="126" y="-324.4" font-family="Arial" font-size="14.00" fill="#000000">parent_id </text>
<text text-anchor="start" x="188.244" y="-324.4" font-family="Arial" font-size="14.00" fill="#666666">[int(11)]</text>
<polygon fill="none" stroke="#000000" points="119,-283 119,-313 328,-313 328,-283 119,-283"/>
<text text-anchor="start" x="126" y="-294.4" font-family="Arial" font-size="14.00" fill="#000000">created_on </text>
<text text-anchor="start" x="199.92" y="-294.4" font-family="Arial" font-size="14.00" fill="#666666">[timestamp]</text>
<polygon fill="none" stroke="#000000" points="119,-253 119,-283 328,-283 328,-253 119,-253"/>
<text text-anchor="start" x="126" y="-264.4" font-family="Arial" font-size="14.00" fill="#000000">updated_on </text>
<text text-anchor="start" x="203.8246" y="-264.4" font-family="Arial" font-size="14.00" fill="#666666">[timestamp]</text>
<polygon fill="none" stroke="#000000" points="119,-223 119,-253 328,-253 328,-223 119,-223"/>
<text text-anchor="start" x="126" y="-234.4" font-family="Arial" font-size="14.00" fill="#000000">identifier </text>
<text text-anchor="start" x="182.7826" y="-234.4" font-family="Arial" font-size="14.00" fill="#666666">[varchar(255)]</text>
<polygon fill="none" stroke="#000000" points="119,-193 119,-223 328,-223 328,-193 119,-193"/>
<text text-anchor="start" x="126" y="-204.4" font-family="Arial" font-size="14.00" fill="#000000">status </text>
<text text-anchor="start" x="167.237" y="-204.4" font-family="Arial" font-size="14.00" fill="#666666">[int(11)]</text>
<polygon fill="none" stroke="#000000" points="119,-163 119,-193 328,-193 328,-163 119,-163"/>
<text text-anchor="start" x="126" y="-174.4" font-family="Arial" font-size="14.00" fill="#000000">lft </text>
<text text-anchor="start" x="140.7784" y="-174.4" font-family="Arial" font-size="14.00" fill="#666666">[int(11)]</text>
<polygon fill="none" stroke="#000000" points="119,-133 119,-163 328,-163 328,-133 119,-133"/>
<text text-anchor="start" x="126" y="-144.4" font-family="Arial" font-size="14.00" fill="#000000">rgt </text>
<text text-anchor="start" x="146.2244" y="-144.4" font-family="Arial" font-size="14.00" fill="#666666">[int(11)]</text>
<polygon fill="none" stroke="#000000" points="119,-103 119,-133 328,-133 328,-103 119,-103"/>
<text text-anchor="start" x="126" y="-114.4" font-family="Arial" font-size="14.00" fill="#000000">inherit_members </text>
<text text-anchor="start" x="234.115" y="-114.4" font-family="Arial" font-size="14.00" fill="#666666">[tinyint(1)]</text>
<polygon fill="none" stroke="#000000" points="119,-73 119,-103 328,-103 328,-73 119,-73"/>
<text text-anchor="start" x="126" y="-84.4" font-family="Arial" font-size="14.00" fill="#000000">default_version_id </text>
<text text-anchor="start" x="243.4782" y="-84.4" font-family="Arial" font-size="14.00" fill="#666666">[int(11)]</text>
<polygon fill="none" stroke="#000000" points="119,-43 119,-73 328,-73 328,-43 119,-43"/>
<text text-anchor="start" x="125.857" y="-54.4" font-family="Arial" font-size="14.00" fill="#000000">default_assigned_to_id </text>
<text text-anchor="start" x="273.6956" y="-54.4" font-family="Arial" font-size="14.00" fill="#666666">[int(11)]</text>
</g>
<!-- enabled_modules&#45;&gt;projects -->
<g id="edge1" class="edge">
<title>enabled_modules:project_id&#45;&gt;projects:id</title>
<path fill="none" stroke="#000000" stroke-dasharray="5,2" d="M86.8837,-707.7106C-4.3116,-693.0124 19.6074,-478 119,-478"/>
<polygon fill="#000000" stroke="#000000" points="87.0303,-707.7219 96.6499,-712.9864 92.0152,-708.111 97,-708.5 97,-708.5 97,-708.5 92.0152,-708.111 97.3501,-704.0136 87.0303,-707.7219 87.0303,-707.7219"/>
<text text-anchor="start" x="7.3245" y="-718.5" font-family="Arial" font-size="10.00" fill="#000000">Additional Relation</text>
</g>
</g>
</svg>
