<?xml version="1.0" encoding="UTF-8" standalone="no"?>
<!DOCTYPE svg PUBLIC "-//W3C//DTD SVG 1.1//EN"
 "http://www.w3.org/Graphics/SVG/1.1/DTD/svg11.dtd">
<!-- Generated by graphviz version 2.40.1 (20161225.0304)
 -->
<!-- Title: enumerations Pages: 1 -->
<svg width="946pt" height="1952pt"
 viewBox="0.00 0.00 945.50 1952.00" xmlns="http://www.w3.org/2000/svg" xmlns:xlink="http://www.w3.org/1999/xlink">
<g id="graph0" class="graph" transform="scale(1 1) rotate(0) translate(4 1948)">
<title>enumerations</title>
<polygon fill="#ffffff" stroke="transparent" points="-4,4 -4,-1948 941.5,-1948 941.5,4 -4,4"/>
<!-- enumerations -->
<g id="node1" class="node">
<title>enumerations</title>
<polygon fill="#efefef" stroke="transparent" points="97,-964 97,-1010 892,-1010 892,-964 97,-964"/>
<polygon fill="none" stroke="#000000" points="97,-964 97,-1010 892,-1010 892,-964 97,-964"/>
<text text-anchor="start" x="391.361" y="-987.8" font-family="Arial Bold" font-size="18.00" fill="#000000">enumerations</text>
<text text-anchor="start" x="500.3852" y="-987.8" font-family="Arial" font-size="14.00" fill="#000000"> </text>
<text text-anchor="start" x="504.2758" y="-987.8" font-family="Arial" font-size="14.00" fill="#666666">[BASE TABLE]</text>
<text text-anchor="start" x="318.079" y="-973.4" font-family="Arial" font-size="14.00" fill="#333333">選択肢の値(作業分類/チケットの優先度/文書カテゴリ)</text>
<polygon fill="none" stroke="#000000" points="97,-934 97,-964 892,-964 892,-934 97,-934"/>
<text text-anchor="start" x="104" y="-945.4" font-family="Arial" font-size="14.00" fill="#000000">id </text>
<text text-anchor="start" x="118.7798" y="-945.4" font-family="Arial" font-size="14.00" fill="#666666">[int(11)]</text>
<polygon fill="none" stroke="#000000" points="97,-904 97,-934 892,-934 892,-904 97,-904"/>
<text text-anchor="start" x="104" y="-915.4" font-family="Arial" font-size="14.00" fill="#000000">name </text>
<text text-anchor="start" x="142.899" y="-915.4" font-family="Arial" font-size="14.00" fill="#666666">[varchar(30)]</text>
<polygon fill="none" stroke="#000000" points="97,-874 97,-904 892,-904 892,-874 97,-874"/>
<text text-anchor="start" x="104" y="-885.4" font-family="Arial" font-size="14.00" fill="#000000">position </text>
<text text-anchor="start" x="156.1248" y="-885.4" font-family="Arial" font-size="14.00" fill="#666666">[int(11)]</text>
<polygon fill="none" stroke="#000000" points="97,-844 97,-874 892,-874 892,-844 97,-844"/>
<text text-anchor="start" x="104" y="-855.4" font-family="Arial" font-size="14.00" fill="#000000">is_default </text>
<text text-anchor="start" x="167.798" y="-855.4" font-family="Arial" font-size="14.00" fill="#666666">[tinyint(1)]</text>
<polygon fill="none" stroke="#000000" points="97,-814 97,-844 892,-844 892,-814 97,-814"/>
<text text-anchor="start" x="103.6522" y="-825.4" font-family="Arial" font-size="14.00" fill="#000000">type </text>
<text text-anchor="start" x="133.9986" y="-825.4" font-family="Arial" font-size="14.00" fill="#666666">[varchar(255)]</text>
<text text-anchor="start" x="221.1178" y="-825.4" font-family="Arial" font-size="14.00" fill="#000000"> IssuePriority:チケットの優先度 DocumentCategory:文書カテゴリ TimeEntryActivity:作業分類 (時間管理) </text>
<polygon fill="none" stroke="#000000" points="97,-784 97,-814 892,-814 892,-784 97,-784"/>
<text text-anchor="start" x="104" y="-795.4" font-family="Arial" font-size="14.00" fill="#000000">active </text>
<text text-anchor="start" x="144.453" y="-795.4" font-family="Arial" font-size="14.00" fill="#666666">[tinyint(1)]</text>
<polygon fill="none" stroke="#000000" points="97,-754 97,-784 892,-784 892,-754 97,-754"/>
<text text-anchor="start" x="104" y="-765.4" font-family="Arial" font-size="14.00" fill="#000000">project_id </text>
<text text-anchor="start" x="168.568" y="-765.4" font-family="Arial" font-size="14.00" fill="#666666">[int(11)]</text>
<polygon fill="none" stroke="#000000" points="97,-724 97,-754 892,-754 892,-724 97,-724"/>
<text text-anchor="start" x="104" y="-735.4" font-family="Arial" font-size="14.00" fill="#000000">parent_id </text>
<text text-anchor="start" x="166.244" y="-735.4" font-family="Arial" font-size="14.00" fill="#666666">[int(11)]</text>
<polygon fill="none" stroke="#000000" points="97,-694 97,-724 892,-724 892,-694 97,-694"/>
<text text-anchor="start" x="104" y="-705.4" font-family="Arial" font-size="14.00" fill="#000000">position_name </text>
<text text-anchor="start" x="198.9158" y="-705.4" font-family="Arial" font-size="14.00" fill="#666666">[varchar(30)]</text>
<polygon fill="none" stroke="#000000" stroke-width="3" points="95,-692.5 95,-1011.5 893,-1011.5 893,-692.5 95,-692.5"/>
</g>
<!-- projects -->
<g id="node4" class="node">
<title>projects</title>
<polygon fill="#efefef" stroke="transparent" points="390,-523 390,-569 599,-569 599,-523 390,-523"/>
<polygon fill="none" stroke="#000000" points="390,-523 390,-569 599,-569 599,-523 390,-523"/>
<text text-anchor="start" x="414.3695" y="-546.8" font-family="Arial Bold" font-size="18.00" fill="#000000">projects</text>
<text text-anchor="start" x="477.3767" y="-546.8" font-family="Arial" font-size="14.00" fill="#000000"> </text>
<text text-anchor="start" x="481.2673" y="-546.8" font-family="Arial" font-size="14.00" fill="#666666">[BASE TABLE]</text>
<text text-anchor="start" x="452.1269" y="-532.4" font-family="Arial" font-size="14.00" fill="#333333">プロジェクト</text>
<polygon fill="none" stroke="#000000" points="390,-493 390,-523 599,-523 599,-493 390,-493"/>
<text text-anchor="start" x="397" y="-504.4" font-family="Arial" font-size="14.00" fill="#000000">id </text>
<text text-anchor="start" x="411.7798" y="-504.4" font-family="Arial" font-size="14.00" fill="#666666">[int(11)]</text>
<polygon fill="none" stroke="#000000" points="390,-463 390,-493 599,-493 599,-463 390,-463"/>
<text text-anchor="start" x="397" y="-474.4" font-family="Arial" font-size="14.00" fill="#000000">name </text>
<text text-anchor="start" x="435.899" y="-474.4" font-family="Arial" font-size="14.00" fill="#666666">[varchar(255)]</text>
<polygon fill="none" stroke="#000000" points="390,-433 390,-463 599,-463 599,-433 390,-433"/>
<text text-anchor="start" x="397" y="-444.4" font-family="Arial" font-size="14.00" fill="#000000">description </text>
<text text-anchor="start" x="468.568" y="-444.4" font-family="Arial" font-size="14.00" fill="#666666">[text]</text>
<polygon fill="none" stroke="#000000" points="390,-403 390,-433 599,-433 599,-403 390,-403"/>
<text text-anchor="start" x="397" y="-414.4" font-family="Arial" font-size="14.00" fill="#000000">homepage </text>
<text text-anchor="start" x="467.0294" y="-414.4" font-family="Arial" font-size="14.00" fill="#666666">[varchar(255)]</text>
<polygon fill="none" stroke="#000000" points="390,-373 390,-403 599,-403 599,-373 390,-373"/>
<text text-anchor="start" x="397" y="-384.4" font-family="Arial" font-size="14.00" fill="#000000">is_public </text>
<text text-anchor="start" x="455.3408" y="-384.4" font-family="Arial" font-size="14.00" fill="#666666">[tinyint(1)]</text>
<polygon fill="none" stroke="#000000" points="390,-343 390,-373 599,-373 599,-343 390,-343"/>
<text text-anchor="start" x="397" y="-354.4" font-family="Arial" font-size="14.00" fill="#000000">parent_id </text>
<text text-anchor="start" x="459.244" y="-354.4" font-family="Arial" font-size="14.00" fill="#666666">[int(11)]</text>
<polygon fill="none" stroke="#000000" points="390,-313 390,-343 599,-343 599,-313 390,-313"/>
<text text-anchor="start" x="397" y="-324.4" font-family="Arial" font-size="14.00" fill="#000000">created_on </text>
<text text-anchor="start" x="470.92" y="-324.4" font-family="Arial" font-size="14.00" fill="#666666">[timestamp]</text>
<polygon fill="none" stroke="#000000" points="390,-283 390,-313 599,-313 599,-283 390,-283"/>
<text text-anchor="start" x="397" y="-294.4" font-family="Arial" font-size="14.00" fill="#000000">updated_on </text>
<text text-anchor="start" x="474.8246" y="-294.4" font-family="Arial" font-size="14.00" fill="#666666">[timestamp]</text>
<polygon fill="none" stroke="#000000" points="390,-253 390,-283 599,-283 599,-253 390,-253"/>
<text text-anchor="start" x="397" y="-264.4" font-family="Arial" font-size="14.00" fill="#000000">identifier </text>
<text text-anchor="start" x="453.7826" y="-264.4" font-family="Arial" font-size="14.00" fill="#666666">[varchar(255)]</text>
<polygon fill="none" stroke="#000000" points="390,-223 390,-253 599,-253 599,-223 390,-223"/>
<text text-anchor="start" x="397" y="-234.4" font-family="Arial" font-size="14.00" fill="#000000">status </text>
<text text-anchor="start" x="438.237" y="-234.4" font-family="Arial" font-size="14.00" fill="#666666">[int(11)]</text>
<polygon fill="none" stroke="#000000" points="390,-193 390,-223 599,-223 599,-193 390,-193"/>
<text text-anchor="start" x="397" y="-204.4" font-family="Arial" font-size="14.00" fill="#000000">lft </text>
<text text-anchor="start" x="411.7784" y="-204.4" font-family="Arial" font-size="14.00" fill="#666666">[int(11)]</text>
<polygon fill="none" stroke="#000000" points="390,-163 390,-193 599,-193 599,-163 390,-163"/>
<text text-anchor="start" x="397" y="-174.4" font-family="Arial" font-size="14.00" fill="#000000">rgt </text>
<text text-anchor="start" x="417.2244" y="-174.4" font-family="Arial" font-size="14.00" fill="#666666">[int(11)]</text>
<polygon fill="none" stroke="#000000" points="390,-133 390,-163 599,-163 599,-133 390,-133"/>
<text text-anchor="start" x="397" y="-144.4" font-family="Arial" font-size="14.00" fill="#000000">inherit_members </text>
<text text-anchor="start" x="505.115" y="-144.4" font-family="Arial" font-size="14.00" fill="#666666">[tinyint(1)]</text>
<polygon fill="none" stroke="#000000" points="390,-103 390,-133 599,-133 599,-103 390,-103"/>
<text text-anchor="start" x="397" y="-114.4" font-family="Arial" font-size="14.00" fill="#000000">default_version_id </text>
<text text-anchor="start" x="514.4782" y="-114.4" font-family="Arial" font-size="14.00" fill="#666666">[int(11)]</text>
<polygon fill="none" stroke="#000000" points="390,-73 390,-103 599,-103 599,-73 390,-73"/>
<text text-anchor="start" x="396.857" y="-84.4" font-family="Arial" font-size="14.00" fill="#000000">default_assigned_to_id </text>
<text text-anchor="start" x="544.6956" y="-84.4" font-family="Arial" font-size="14.00" fill="#666666">[int(11)]</text>
<polygon fill="none" stroke="#000000" points="390,-43 390,-73 599,-73 599,-43 390,-43"/>
<text text-anchor="start" x="396.8633" y="-54.4" font-family="Arial" font-size="14.00" fill="#000000">default_issue_query_id </text>
<text text-anchor="start" x="544.6893" y="-54.4" font-family="Arial" font-size="14.00" fill="#666666">[int(11)]</text>
</g>
<!-- enumerations&#45;&gt;projects -->
<g id="edge3" class="edge">
<title>enumerations:project_id&#45;&gt;projects:id</title>
<path fill="none" stroke="#000000" stroke-dasharray="5,2" d="M86.7999,-767.9168C46.7692,-758.53 70.3356,-690.2926 97,-648 173.9716,-525.9148 245.6759,-508 390,-508"/>
<polygon fill="#000000" stroke="#000000" points="87.0559,-767.9439 96.5247,-773.4748 92.028,-768.4719 97,-769 97,-769 97,-769 92.028,-768.4719 97.4753,-764.5252 87.0559,-767.9439 87.0559,-767.9439"/>
<text text-anchor="start" x="7.3245" y="-779" font-family="Arial" font-size="10.00" fill="#000000">Additional Relation</text>
</g>
<!-- issues -->
<g id="node2" class="node">
<title>issues</title>
<polygon fill="#efefef" stroke="transparent" points="167,-1855 167,-1901 468,-1901 468,-1855 167,-1855"/>
<polygon fill="none" stroke="#000000" points="167,-1855 167,-1901 468,-1901 468,-1855 167,-1855"/>
<text text-anchor="start" x="243.3698" y="-1878.8" font-family="Arial Bold" font-size="18.00" fill="#000000">issues</text>
<text text-anchor="start" x="294.3764" y="-1878.8" font-family="Arial" font-size="14.00" fill="#000000"> </text>
<text text-anchor="start" x="298.267" y="-1878.8" font-family="Arial" font-size="14.00" fill="#666666">[BASE TABLE]</text>
<text text-anchor="start" x="289.6344" y="-1864.4" font-family="Arial" font-size="14.00" fill="#333333">チケット</text>
<polygon fill="none" stroke="#000000" points="167,-1825 167,-1855 468,-1855 468,-1825 167,-1825"/>
<text text-anchor="start" x="174" y="-1836.4" font-family="Arial" font-size="14.00" fill="#000000">id </text>
<text text-anchor="start" x="188.7798" y="-1836.4" font-family="Arial" font-size="14.00" fill="#666666">[int(11)]</text>
<polygon fill="none" stroke="#000000" points="167,-1795 167,-1825 468,-1825 468,-1795 167,-1795"/>
<text text-anchor="start" x="174" y="-1806.4" font-family="Arial" font-size="14.00" fill="#000000">tracker_id </text>
<text text-anchor="start" x="239.3394" y="-1806.4" font-family="Arial" font-size="14.00" fill="#666666">[int(11)]</text>
<text text-anchor="start" x="286.7868" y="-1806.4" font-family="Arial" font-size="14.00" fill="#000000"> トラッカーID</text>
<polygon fill="none" stroke="#000000" points="167,-1765 167,-1795 468,-1795 468,-1765 167,-1765"/>
<text text-anchor="start" x="174" y="-1776.4" font-family="Arial" font-size="14.00" fill="#000000">project_id </text>
<text text-anchor="start" x="238.568" y="-1776.4" font-family="Arial" font-size="14.00" fill="#666666">[int(11)]</text>
<text text-anchor="start" x="286.0154" y="-1776.4" font-family="Arial" font-size="14.00" fill="#000000"> プロジェクトID</text>
<polygon fill="none" stroke="#000000" points="167,-1735 167,-1765 468,-1765 468,-1735 167,-1735"/>
<text text-anchor="start" x="174" y="-1746.4" font-family="Arial" font-size="14.00" fill="#000000">subject </text>
<text text-anchor="start" x="222.2356" y="-1746.4" font-family="Arial" font-size="14.00" fill="#666666">[varchar(255)]</text>
<text text-anchor="start" x="309.3548" y="-1746.4" font-family="Arial" font-size="14.00" fill="#000000"> 題名</text>
<polygon fill="none" stroke="#000000" points="167,-1705 167,-1735 468,-1735 468,-1705 167,-1705"/>
<text text-anchor="start" x="174" y="-1716.4" font-family="Arial" font-size="14.00" fill="#000000">description </text>
<text text-anchor="start" x="245.568" y="-1716.4" font-family="Arial" font-size="14.00" fill="#666666">[longtext]</text>
<text text-anchor="start" x="302.3674" y="-1716.4" font-family="Arial" font-size="14.00" fill="#000000"> 説明</text>
<polygon fill="none" stroke="#000000" points="167,-1675 167,-1705 468,-1705 468,-1675 167,-1675"/>
<text text-anchor="start" x="174" y="-1686.4" font-family="Arial" font-size="14.00" fill="#000000">due_date </text>
<text text-anchor="start" x="236.2594" y="-1686.4" font-family="Arial" font-size="14.00" fill="#666666">[date]</text>
<text text-anchor="start" x="271.279" y="-1686.4" font-family="Arial" font-size="14.00" fill="#000000"> 期日</text>
<polygon fill="none" stroke="#000000" points="167,-1645 167,-1675 468,-1675 468,-1645 167,-1645"/>
<text text-anchor="start" x="174" y="-1656.4" font-family="Arial" font-size="14.00" fill="#000000">category_id </text>
<text text-anchor="start" x="250.244" y="-1656.4" font-family="Arial" font-size="14.00" fill="#666666">[int(11)]</text>
<text text-anchor="start" x="297.6914" y="-1656.4" font-family="Arial" font-size="14.00" fill="#000000"> カテゴリーID</text>
<polygon fill="none" stroke="#000000" points="167,-1615 167,-1645 468,-1645 468,-1615 167,-1615"/>
<text text-anchor="start" x="174" y="-1626.4" font-family="Arial" font-size="14.00" fill="#000000">status_id </text>
<text text-anchor="start" x="233.9088" y="-1626.4" font-family="Arial" font-size="14.00" fill="#666666">[int(11)]</text>
<text text-anchor="start" x="281.3562" y="-1626.4" font-family="Arial" font-size="14.00" fill="#000000"> ステータスID</text>
<polygon fill="none" stroke="#000000" points="167,-1585 167,-1615 468,-1615 468,-1585 167,-1585"/>
<text text-anchor="start" x="174" y="-1596.4" font-family="Arial" font-size="14.00" fill="#000000">assigned_to_id </text>
<text text-anchor="start" x="272.0378" y="-1596.4" font-family="Arial" font-size="14.00" fill="#666666">[int(11)]</text>
<text text-anchor="start" x="319.4852" y="-1596.4" font-family="Arial" font-size="14.00" fill="#000000"> 担当者ID</text>
<polygon fill="none" stroke="#000000" points="167,-1555 167,-1585 468,-1585 468,-1555 167,-1555"/>
<text text-anchor="start" x="174" y="-1566.4" font-family="Arial" font-size="14.00" fill="#000000">priority_id </text>
<text text-anchor="start" x="238.5526" y="-1566.4" font-family="Arial" font-size="14.00" fill="#666666">[int(11)]</text>
<text text-anchor="start" x="286" y="-1566.4" font-family="Arial" font-size="14.00" fill="#000000"> 優先度ID</text>
<polygon fill="none" stroke="#000000" points="167,-1525 167,-1555 468,-1555 468,-1525 167,-1525"/>
<text text-anchor="start" x="173.8635" y="-1536.4" font-family="Arial" font-size="14.00" fill="#000000">fixed_version_id </text>
<text text-anchor="start" x="278.8859" y="-1536.4" font-family="Arial" font-size="14.00" fill="#666666">[int(11)]</text>
<text text-anchor="start" x="326.3333" y="-1536.4" font-family="Arial" font-size="14.00" fill="#000000"> 対象バージョンID</text>
<polygon fill="none" stroke="#000000" points="167,-1495 167,-1525 468,-1525 468,-1495 167,-1495"/>
<text text-anchor="start" x="174" y="-1506.4" font-family="Arial" font-size="14.00" fill="#000000">author_id </text>
<text text-anchor="start" x="236.244" y="-1506.4" font-family="Arial" font-size="14.00" fill="#666666">[int(11)]</text>
<text text-anchor="start" x="283.6914" y="-1506.4" font-family="Arial" font-size="14.00" fill="#000000"> 登録者ID</text>
<polygon fill="none" stroke="#000000" points="167,-1465 167,-1495 468,-1495 468,-1465 167,-1465"/>
<text text-anchor="start" x="174" y="-1476.4" font-family="Arial" font-size="14.00" fill="#000000">lock_version </text>
<text text-anchor="start" x="255.6774" y="-1476.4" font-family="Arial" font-size="14.00" fill="#666666">[int(11)]</text>
<text text-anchor="start" x="303.1248" y="-1476.4" font-family="Arial" font-size="14.00" fill="#000000"> ロックバージョン</text>
<polygon fill="none" stroke="#000000" points="167,-1435 167,-1465 468,-1465 468,-1435 167,-1435"/>
<text text-anchor="start" x="174" y="-1446.4" font-family="Arial" font-size="14.00" fill="#000000">created_on </text>
<text text-anchor="start" x="247.92" y="-1446.4" font-family="Arial" font-size="14.00" fill="#666666">[timestamp]</text>
<polygon fill="none" stroke="#000000" points="167,-1405 167,-1435 468,-1435 468,-1405 167,-1405"/>
<text text-anchor="start" x="174" y="-1416.4" font-family="Arial" font-size="14.00" fill="#000000">updated_on </text>
<text text-anchor="start" x="251.8246" y="-1416.4" font-family="Arial" font-size="14.00" fill="#666666">[timestamp]</text>
<polygon fill="none" stroke="#000000" points="167,-1375 167,-1405 468,-1405 468,-1375 167,-1375"/>
<text text-anchor="start" x="174" y="-1386.4" font-family="Arial" font-size="14.00" fill="#000000">start_date </text>
<text text-anchor="start" x="240.136" y="-1386.4" font-family="Arial" font-size="14.00" fill="#666666">[date]</text>
<text text-anchor="start" x="275.1556" y="-1386.4" font-family="Arial" font-size="14.00" fill="#000000"> 開始日</text>
<polygon fill="none" stroke="#000000" points="167,-1345 167,-1375 468,-1375 468,-1345 167,-1345"/>
<text text-anchor="start" x="174" y="-1356.4" font-family="Arial" font-size="14.00" fill="#000000">done_ratio </text>
<text text-anchor="start" x="244.0266" y="-1356.4" font-family="Arial" font-size="14.00" fill="#666666">[int(11)]</text>
<text text-anchor="start" x="291.474" y="-1356.4" font-family="Arial" font-size="14.00" fill="#000000"> 進捗率</text>
<polygon fill="none" stroke="#000000" points="167,-1315 167,-1345 468,-1345 468,-1315 167,-1315"/>
<text text-anchor="start" x="174" y="-1326.4" font-family="Arial" font-size="14.00" fill="#000000">estimated_hours </text>
<text text-anchor="start" x="281.3604" y="-1326.4" font-family="Arial" font-size="14.00" fill="#666666">[float]</text>
<text text-anchor="start" x="315.5946" y="-1326.4" font-family="Arial" font-size="14.00" fill="#000000"> 予定工数</text>
<polygon fill="none" stroke="#000000" points="167,-1285 167,-1315 468,-1315 468,-1285 167,-1285"/>
<text text-anchor="start" x="174" y="-1296.4" font-family="Arial" font-size="14.00" fill="#000000">parent_id </text>
<text text-anchor="start" x="236.244" y="-1296.4" font-family="Arial" font-size="14.00" fill="#666666">[int(11)]</text>
<text text-anchor="start" x="283.6914" y="-1296.4" font-family="Arial" font-size="14.00" fill="#000000"> 親チケット</text>
<polygon fill="none" stroke="#000000" points="167,-1255 167,-1285 468,-1285 468,-1255 167,-1255"/>
<text text-anchor="start" x="174" y="-1266.4" font-family="Arial" font-size="14.00" fill="#000000">root_id </text>
<text text-anchor="start" x="220.6788" y="-1266.4" font-family="Arial" font-size="14.00" fill="#666666">[int(11)]</text>
<text text-anchor="start" x="268.1262" y="-1266.4" font-family="Arial" font-size="14.00" fill="#000000"> ルートID</text>
<polygon fill="none" stroke="#000000" points="167,-1225 167,-1255 468,-1255 468,-1225 167,-1225"/>
<text text-anchor="start" x="174" y="-1236.4" font-family="Arial" font-size="14.00" fill="#000000">lft </text>
<text text-anchor="start" x="188.7784" y="-1236.4" font-family="Arial" font-size="14.00" fill="#666666">[int(11)]</text>
<text text-anchor="start" x="236.2258" y="-1236.4" font-family="Arial" font-size="14.00" fill="#000000"> 左ノードポインタ</text>
<polygon fill="none" stroke="#000000" points="167,-1195 167,-1225 468,-1225 468,-1195 167,-1195"/>
<text text-anchor="start" x="174" y="-1206.4" font-family="Arial" font-size="14.00" fill="#000000">rgt </text>
<text text-anchor="start" x="194.2244" y="-1206.4" font-family="Arial" font-size="14.00" fill="#666666">[int(11)]</text>
<text text-anchor="start" x="241.6718" y="-1206.4" font-family="Arial" font-size="14.00" fill="#000000"> 右ノードポインタ</text>
<polygon fill="none" stroke="#000000" points="167,-1165 167,-1195 468,-1195 468,-1165 167,-1165"/>
<text text-anchor="start" x="174" y="-1176.4" font-family="Arial" font-size="14.00" fill="#000000">is_private </text>
<text text-anchor="start" x="237.7854" y="-1176.4" font-family="Arial" font-size="14.00" fill="#666666">[tinyint(1)]</text>
<text text-anchor="start" x="299.23" y="-1176.4" font-family="Arial" font-size="14.00" fill="#000000"> プライベート</text>
<polygon fill="none" stroke="#000000" points="167,-1135 167,-1165 468,-1165 468,-1135 167,-1135"/>
<text text-anchor="start" x="174" y="-1146.4" font-family="Arial" font-size="14.00" fill="#000000">closed_on </text>
<text text-anchor="start" x="241.6928" y="-1146.4" font-family="Arial" font-size="14.00" fill="#666666">[datetime]</text>
<text text-anchor="start" x="303.1528" y="-1146.4" font-family="Arial" font-size="14.00" fill="#000000"> 完了日時</text>
</g>
<!-- issues&#45;&gt;enumerations -->
<g id="edge1" class="edge">
<title>issues:priority_id&#45;&gt;enumerations:id</title>
<path fill="none" stroke="#000000" stroke-dasharray="5,2" d="M476.8831,-1565.3616C518.9352,-1518.3434 501.5344,-1128.9459 468,-1092 412.3294,-1030.6659 152.6706,-1117.3341 97,-1056 65.0382,-1020.7867 49.4444,-949 97,-949"/>
<polygon fill="#000000" stroke="#000000" points="476.8643,-1565.3713 465.9171,-1566.0111 472.4322,-1567.6857 468,-1570 468,-1570 468,-1570 472.4322,-1567.6857 470.0829,-1573.9889 476.8643,-1565.3713 476.8643,-1565.3713"/>
<text text-anchor="start" x="475.3245" y="-1580" font-family="Arial" font-size="10.00" fill="#000000">Additional Relation</text>
</g>
<!-- documents -->
<g id="node3" class="node">
<title>documents</title>
<polygon fill="#efefef" stroke="transparent" points="572,-1585 572,-1631 771,-1631 771,-1585 572,-1585"/>
<polygon fill="none" stroke="#000000" points="572,-1585 572,-1631 771,-1631 771,-1585 572,-1585"/>
<text text-anchor="start" x="578.8604" y="-1608.8" font-family="Arial Bold" font-size="18.00" fill="#000000">documents</text>
<text text-anchor="start" x="666.8858" y="-1608.8" font-family="Arial" font-size="14.00" fill="#000000"> </text>
<text text-anchor="start" x="670.7764" y="-1608.8" font-family="Arial" font-size="14.00" fill="#666666">[BASE TABLE]</text>
<text text-anchor="start" x="660.2202" y="-1594.4" font-family="Arial" font-size="14.00" fill="#333333">文書</text>
<polygon fill="none" stroke="#000000" points="572,-1555 572,-1585 771,-1585 771,-1555 572,-1555"/>
<text text-anchor="start" x="579" y="-1566.4" font-family="Arial" font-size="14.00" fill="#000000">id </text>
<text text-anchor="start" x="593.7798" y="-1566.4" font-family="Arial" font-size="14.00" fill="#666666">[int(11)]</text>
<polygon fill="none" stroke="#000000" points="572,-1525 572,-1555 771,-1555 771,-1525 572,-1525"/>
<text text-anchor="start" x="579" y="-1536.4" font-family="Arial" font-size="14.00" fill="#000000">project_id </text>
<text text-anchor="start" x="643.568" y="-1536.4" font-family="Arial" font-size="14.00" fill="#666666">[int(11)]</text>
<polygon fill="none" stroke="#000000" points="572,-1495 572,-1525 771,-1525 771,-1495 572,-1495"/>
<text text-anchor="start" x="579" y="-1506.4" font-family="Arial" font-size="14.00" fill="#000000">category_id </text>
<text text-anchor="start" x="655.244" y="-1506.4" font-family="Arial" font-size="14.00" fill="#666666">[int(11)]</text>
<polygon fill="none" stroke="#000000" points="572,-1465 572,-1495 771,-1495 771,-1465 572,-1465"/>
<text text-anchor="start" x="579" y="-1476.4" font-family="Arial" font-size="14.00" fill="#000000">title </text>
<text text-anchor="start" x="604.6676" y="-1476.4" font-family="Arial" font-size="14.00" fill="#666666">[varchar(255)]</text>
<polygon fill="none" stroke="#000000" points="572,-1435 572,-1465 771,-1465 771,-1435 572,-1435"/>
<text text-anchor="start" x="579" y="-1446.4" font-family="Arial" font-size="14.00" fill="#000000">description </text>
<text text-anchor="start" x="650.568" y="-1446.4" font-family="Arial" font-size="14.00" fill="#666666">[text]</text>
<polygon fill="none" stroke="#000000" points="572,-1405 572,-1435 771,-1435 771,-1405 572,-1405"/>
<text text-anchor="start" x="579" y="-1416.4" font-family="Arial" font-size="14.00" fill="#000000">created_on </text>
<text text-anchor="start" x="652.92" y="-1416.4" font-family="Arial" font-size="14.00" fill="#666666">[timestamp]</text>
</g>
<!-- documents&#45;&gt;enumerations -->
<g id="edge2" class="edge">
<title>documents:category_id&#45;&gt;enumerations:id</title>
<path fill="none" stroke="#000000" stroke-dasharray="5,2" d="M561.8185,-1509.1785C510.7001,-1500.173 547.6142,-1419.0596 572,-1362 649.3331,-1181.0504 814.6669,-1236.9496 892,-1056 910.6888,-1012.2706 939.5556,-949 892,-949"/>
<polygon fill="#000000" stroke="#000000" points="562.0324,-1509.1957 571.6381,-1514.4854 567.0162,-1509.5978 572,-1510 572,-1510 572,-1510 567.0162,-1509.5978 572.3619,-1505.5146 562.0324,-1509.1957 562.0324,-1509.1957"/>
<text text-anchor="start" x="482.3245" y="-1520" font-family="Arial" font-size="10.00" fill="#000000">Additional Relation</text>
</g>
</g>
</svg>
