<?xml version="1.0" encoding="UTF-8" standalone="no"?>
<!DOCTYPE svg PUBLIC "-//W3C//DTD SVG 1.1//EN"
 "http://www.w3.org/Graphics/SVG/1.1/DTD/svg11.dtd">
<!-- Generated by graphviz version 2.40.1 (20161225.0304)
 -->
<!-- Title: enumerations Pages: 1 -->
<svg width="958pt" height="1922pt"
 viewBox="0.00 0.00 957.50 1922.00" xmlns="http://www.w3.org/2000/svg" xmlns:xlink="http://www.w3.org/1999/xlink">
<g id="graph0" class="graph" transform="scale(1 1) rotate(0) translate(4 1918)">
<title>enumerations</title>
<polygon fill="#ffffff" stroke="transparent" points="-4,4 -4,-1918 953.5,-1918 953.5,4 -4,4"/>
<!-- enumerations -->
<g id="node1" class="node">
<title>enumerations</title>
<polygon fill="#efefef" stroke="transparent" points="97,-934 97,-980 904,-980 904,-934 97,-934"/>
<polygon fill="none" stroke="#000000" points="97,-934 97,-980 904,-980 904,-934 97,-934"/>
<text text-anchor="start" x="397.361" y="-957.8" font-family="Arial Bold" font-size="18.00" fill="#000000">enumerations</text>
<text text-anchor="start" x="506.3852" y="-957.8" font-family="Arial" font-size="14.00" fill="#000000"> </text>
<text text-anchor="start" x="510.2758" y="-957.8" font-family="Arial" font-size="14.00" fill="#666666">[BASE TABLE]</text>
<text text-anchor="start" x="462.8988" y="-943.4" font-family="Arial" font-size="14.00" fill="#333333">選択肢の値</text>
<polygon fill="none" stroke="#000000" points="97,-904 97,-934 904,-934 904,-904 97,-904"/>
<text text-anchor="start" x="104" y="-915.4" font-family="Arial" font-size="14.00" fill="#000000">id </text>
<text text-anchor="start" x="118.7798" y="-915.4" font-family="Arial" font-size="14.00" fill="#666666">[int(11)]</text>
<polygon fill="none" stroke="#000000" points="97,-874 97,-904 904,-904 904,-874 97,-874"/>
<text text-anchor="start" x="104" y="-885.4" font-family="Arial" font-size="14.00" fill="#000000">name </text>
<text text-anchor="start" x="142.899" y="-885.4" font-family="Arial" font-size="14.00" fill="#666666">[varchar(30)]</text>
<polygon fill="none" stroke="#000000" points="97,-844 97,-874 904,-874 904,-844 97,-844"/>
<text text-anchor="start" x="104" y="-855.4" font-family="Arial" font-size="14.00" fill="#000000">position </text>
<text text-anchor="start" x="156.1248" y="-855.4" font-family="Arial" font-size="14.00" fill="#666666">[int(11)]</text>
<polygon fill="none" stroke="#000000" points="97,-814 97,-844 904,-844 904,-814 97,-814"/>
<text text-anchor="start" x="104" y="-825.4" font-family="Arial" font-size="14.00" fill="#000000">is_default </text>
<text text-anchor="start" x="167.798" y="-825.4" font-family="Arial" font-size="14.00" fill="#666666">[tinyint(1)]</text>
<polygon fill="none" stroke="#000000" points="97,-784 97,-814 904,-814 904,-784 97,-784"/>
<text text-anchor="start" x="103.8163" y="-795.4" font-family="Arial" font-size="14.00" fill="#000000">type </text>
<text text-anchor="start" x="134.1627" y="-795.4" font-family="Arial" font-size="14.00" fill="#666666">[varchar(255)]</text>
<text text-anchor="start" x="221.2819" y="-795.4" font-family="Arial" font-size="14.00" fill="#000000"> IssuePriority:チケットの優先度 / DocumentCategory:文書カテゴリ / TimeEntryActivity:作業分類 (時間管理)</text>
<polygon fill="none" stroke="#000000" points="97,-754 97,-784 904,-784 904,-754 97,-754"/>
<text text-anchor="start" x="104" y="-765.4" font-family="Arial" font-size="14.00" fill="#000000">active </text>
<text text-anchor="start" x="144.453" y="-765.4" font-family="Arial" font-size="14.00" fill="#666666">[tinyint(1)]</text>
<polygon fill="none" stroke="#000000" points="97,-724 97,-754 904,-754 904,-724 97,-724"/>
<text text-anchor="start" x="104" y="-735.4" font-family="Arial" font-size="14.00" fill="#000000">project_id </text>
<text text-anchor="start" x="168.568" y="-735.4" font-family="Arial" font-size="14.00" fill="#666666">[int(11)]</text>
<polygon fill="none" stroke="#000000" points="97,-694 97,-724 904,-724 904,-694 97,-694"/>
<text text-anchor="start" x="104" y="-705.4" font-family="Arial" font-size="14.00" fill="#000000">parent_id </text>
<text text-anchor="start" x="166.244" y="-705.4" font-family="Arial" font-size="14.00" fill="#666666">[int(11)]</text>
<polygon fill="none" stroke="#000000" points="97,-664 97,-694 904,-694 904,-664 97,-664"/>
<text text-anchor="start" x="104" y="-675.4" font-family="Arial" font-size="14.00" fill="#000000">position_name </text>
<text text-anchor="start" x="198.9158" y="-675.4" font-family="Arial" font-size="14.00" fill="#666666">[varchar(30)]</text>
<polygon fill="none" stroke="#000000" stroke-width="3" points="95,-662.5 95,-981.5 905,-981.5 905,-662.5 95,-662.5"/>
</g>
<!-- projects -->
<g id="node4" class="node">
<title>projects</title>
<polygon fill="#efefef" stroke="transparent" points="396,-493 396,-539 605,-539 605,-493 396,-493"/>
<polygon fill="none" stroke="#000000" points="396,-493 396,-539 605,-539 605,-493 396,-493"/>
<text text-anchor="start" x="420.3695" y="-516.8" font-family="Arial Bold" font-size="18.00" fill="#000000">projects</text>
<text text-anchor="start" x="483.3767" y="-516.8" font-family="Arial" font-size="14.00" fill="#000000"> </text>
<text text-anchor="start" x="487.2673" y="-516.8" font-family="Arial" font-size="14.00" fill="#666666">[BASE TABLE]</text>
<text text-anchor="start" x="458.1269" y="-502.4" font-family="Arial" font-size="14.00" fill="#333333">プロジェクト</text>
<polygon fill="none" stroke="#000000" points="396,-463 396,-493 605,-493 605,-463 396,-463"/>
<text text-anchor="start" x="403" y="-474.4" font-family="Arial" font-size="14.00" fill="#000000">id </text>
<text text-anchor="start" x="417.7798" y="-474.4" font-family="Arial" font-size="14.00" fill="#666666">[int(11)]</text>
<polygon fill="none" stroke="#000000" points="396,-433 396,-463 605,-463 605,-433 396,-433"/>
<text text-anchor="start" x="403" y="-444.4" font-family="Arial" font-size="14.00" fill="#000000">name </text>
<text text-anchor="start" x="441.899" y="-444.4" font-family="Arial" font-size="14.00" fill="#666666">[varchar(255)]</text>
<polygon fill="none" stroke="#000000" points="396,-403 396,-433 605,-433 605,-403 396,-403"/>
<text text-anchor="start" x="403" y="-414.4" font-family="Arial" font-size="14.00" fill="#000000">description </text>
<text text-anchor="start" x="474.568" y="-414.4" font-family="Arial" font-size="14.00" fill="#666666">[text]</text>
<polygon fill="none" stroke="#000000" points="396,-373 396,-403 605,-403 605,-373 396,-373"/>
<text text-anchor="start" x="403" y="-384.4" font-family="Arial" font-size="14.00" fill="#000000">homepage </text>
<text text-anchor="start" x="473.0294" y="-384.4" font-family="Arial" font-size="14.00" fill="#666666">[varchar(255)]</text>
<polygon fill="none" stroke="#000000" points="396,-343 396,-373 605,-373 605,-343 396,-343"/>
<text text-anchor="start" x="403" y="-354.4" font-family="Arial" font-size="14.00" fill="#000000">is_public </text>
<text text-anchor="start" x="461.3408" y="-354.4" font-family="Arial" font-size="14.00" fill="#666666">[tinyint(1)]</text>
<polygon fill="none" stroke="#000000" points="396,-313 396,-343 605,-343 605,-313 396,-313"/>
<text text-anchor="start" x="403" y="-324.4" font-family="Arial" font-size="14.00" fill="#000000">parent_id </text>
<text text-anchor="start" x="465.244" y="-324.4" font-family="Arial" font-size="14.00" fill="#666666">[int(11)]</text>
<polygon fill="none" stroke="#000000" points="396,-283 396,-313 605,-313 605,-283 396,-283"/>
<text text-anchor="start" x="403" y="-294.4" font-family="Arial" font-size="14.00" fill="#000000">created_on </text>
<text text-anchor="start" x="476.92" y="-294.4" font-family="Arial" font-size="14.00" fill="#666666">[timestamp]</text>
<polygon fill="none" stroke="#000000" points="396,-253 396,-283 605,-283 605,-253 396,-253"/>
<text text-anchor="start" x="403" y="-264.4" font-family="Arial" font-size="14.00" fill="#000000">updated_on </text>
<text text-anchor="start" x="480.8246" y="-264.4" font-family="Arial" font-size="14.00" fill="#666666">[timestamp]</text>
<polygon fill="none" stroke="#000000" points="396,-223 396,-253 605,-253 605,-223 396,-223"/>
<text text-anchor="start" x="403" y="-234.4" font-family="Arial" font-size="14.00" fill="#000000">identifier </text>
<text text-anchor="start" x="459.7826" y="-234.4" font-family="Arial" font-size="14.00" fill="#666666">[varchar(255)]</text>
<polygon fill="none" stroke="#000000" points="396,-193 396,-223 605,-223 605,-193 396,-193"/>
<text text-anchor="start" x="403" y="-204.4" font-family="Arial" font-size="14.00" fill="#000000">status </text>
<text text-anchor="start" x="444.237" y="-204.4" font-family="Arial" font-size="14.00" fill="#666666">[int(11)]</text>
<polygon fill="none" stroke="#000000" points="396,-163 396,-193 605,-193 605,-163 396,-163"/>
<text text-anchor="start" x="403" y="-174.4" font-family="Arial" font-size="14.00" fill="#000000">lft </text>
<text text-anchor="start" x="417.7784" y="-174.4" font-family="Arial" font-size="14.00" fill="#666666">[int(11)]</text>
<polygon fill="none" stroke="#000000" points="396,-133 396,-163 605,-163 605,-133 396,-133"/>
<text text-anchor="start" x="403" y="-144.4" font-family="Arial" font-size="14.00" fill="#000000">rgt </text>
<text text-anchor="start" x="423.2244" y="-144.4" font-family="Arial" font-size="14.00" fill="#666666">[int(11)]</text>
<polygon fill="none" stroke="#000000" points="396,-103 396,-133 605,-133 605,-103 396,-103"/>
<text text-anchor="start" x="403" y="-114.4" font-family="Arial" font-size="14.00" fill="#000000">inherit_members </text>
<text text-anchor="start" x="511.115" y="-114.4" font-family="Arial" font-size="14.00" fill="#666666">[tinyint(1)]</text>
<polygon fill="none" stroke="#000000" points="396,-73 396,-103 605,-103 605,-73 396,-73"/>
<text text-anchor="start" x="403" y="-84.4" font-family="Arial" font-size="14.00" fill="#000000">default_version_id </text>
<text text-anchor="start" x="520.4782" y="-84.4" font-family="Arial" font-size="14.00" fill="#666666">[int(11)]</text>
<polygon fill="none" stroke="#000000" points="396,-43 396,-73 605,-73 605,-43 396,-43"/>
<text text-anchor="start" x="402.857" y="-54.4" font-family="Arial" font-size="14.00" fill="#000000">default_assigned_to_id </text>
<text text-anchor="start" x="550.6956" y="-54.4" font-family="Arial" font-size="14.00" fill="#666666">[int(11)]</text>
</g>
<!-- enumerations&#45;&gt;projects -->
<g id="edge3" class="edge">
<title>enumerations:project_id&#45;&gt;projects:id</title>
<path fill="none" stroke="#000000" stroke-dasharray="5,2" d="M87.0507,-737.9737C46.6475,-728.8024 70.1137,-660.2764 97,-618 175.743,-494.1832 249.2653,-478 396,-478"/>
<polygon fill="#000000" stroke="#000000" points="87.0528,-737.9738 96.5382,-743.4762 92.0264,-738.4869 97,-739 97,-739 97,-739 92.0264,-738.4869 97.4618,-734.5238 87.0528,-737.9738 87.0528,-737.9738"/>
<text text-anchor="start" x="7.3245" y="-749" font-family="Arial" font-size="10.00" fill="#000000">Additional Relation</text>
</g>
<!-- issues -->
<g id="node2" class="node">
<title>issues</title>
<polygon fill="#efefef" stroke="transparent" points="173,-1825 173,-1871 474,-1871 474,-1825 173,-1825"/>
<polygon fill="none" stroke="#000000" points="173,-1825 173,-1871 474,-1871 474,-1825 173,-1825"/>
<text text-anchor="start" x="249.3698" y="-1848.8" font-family="Arial Bold" font-size="18.00" fill="#000000">issues</text>
<text text-anchor="start" x="300.3764" y="-1848.8" font-family="Arial" font-size="14.00" fill="#000000"> </text>
<text text-anchor="start" x="304.267" y="-1848.8" font-family="Arial" font-size="14.00" fill="#666666">[BASE TABLE]</text>
<text text-anchor="start" x="295.6344" y="-1834.4" font-family="Arial" font-size="14.00" fill="#333333">チケット</text>
<polygon fill="none" stroke="#000000" points="173,-1795 173,-1825 474,-1825 474,-1795 173,-1795"/>
<text text-anchor="start" x="180" y="-1806.4" font-family="Arial" font-size="14.00" fill="#000000">id </text>
<text text-anchor="start" x="194.7798" y="-1806.4" font-family="Arial" font-size="14.00" fill="#666666">[int(11)]</text>
<polygon fill="none" stroke="#000000" points="173,-1765 173,-1795 474,-1795 474,-1765 173,-1765"/>
<text text-anchor="start" x="180" y="-1776.4" font-family="Arial" font-size="14.00" fill="#000000">tracker_id </text>
<text text-anchor="start" x="245.3394" y="-1776.4" font-family="Arial" font-size="14.00" fill="#666666">[int(11)]</text>
<text text-anchor="start" x="292.7868" y="-1776.4" font-family="Arial" font-size="14.00" fill="#000000"> トラッカーID</text>
<polygon fill="none" stroke="#000000" points="173,-1735 173,-1765 474,-1765 474,-1735 173,-1735"/>
<text text-anchor="start" x="180" y="-1746.4" font-family="Arial" font-size="14.00" fill="#000000">project_id </text>
<text text-anchor="start" x="244.568" y="-1746.4" font-family="Arial" font-size="14.00" fill="#666666">[int(11)]</text>
<text text-anchor="start" x="292.0154" y="-1746.4" font-family="Arial" font-size="14.00" fill="#000000"> プロジェクトID</text>
<polygon fill="none" stroke="#000000" points="173,-1705 173,-1735 474,-1735 474,-1705 173,-1705"/>
<text text-anchor="start" x="180" y="-1716.4" font-family="Arial" font-size="14.00" fill="#000000">subject </text>
<text text-anchor="start" x="228.2356" y="-1716.4" font-family="Arial" font-size="14.00" fill="#666666">[varchar(255)]</text>
<text text-anchor="start" x="315.3548" y="-1716.4" font-family="Arial" font-size="14.00" fill="#000000"> 題名</text>
<polygon fill="none" stroke="#000000" points="173,-1675 173,-1705 474,-1705 474,-1675 173,-1675"/>
<text text-anchor="start" x="180" y="-1686.4" font-family="Arial" font-size="14.00" fill="#000000">description </text>
<text text-anchor="start" x="251.568" y="-1686.4" font-family="Arial" font-size="14.00" fill="#666666">[longtext]</text>
<text text-anchor="start" x="308.3674" y="-1686.4" font-family="Arial" font-size="14.00" fill="#000000"> 説明</text>
<polygon fill="none" stroke="#000000" points="173,-1645 173,-1675 474,-1675 474,-1645 173,-1645"/>
<text text-anchor="start" x="180" y="-1656.4" font-family="Arial" font-size="14.00" fill="#000000">due_date </text>
<text text-anchor="start" x="242.2594" y="-1656.4" font-family="Arial" font-size="14.00" fill="#666666">[date]</text>
<text text-anchor="start" x="277.279" y="-1656.4" font-family="Arial" font-size="14.00" fill="#000000"> 期日</text>
<polygon fill="none" stroke="#000000" points="173,-1615 173,-1645 474,-1645 474,-1615 173,-1615"/>
<text text-anchor="start" x="180" y="-1626.4" font-family="Arial" font-size="14.00" fill="#000000">category_id </text>
<text text-anchor="start" x="256.244" y="-1626.4" font-family="Arial" font-size="14.00" fill="#666666">[int(11)]</text>
<text text-anchor="start" x="303.6914" y="-1626.4" font-family="Arial" font-size="14.00" fill="#000000"> カテゴリーID</text>
<polygon fill="none" stroke="#000000" points="173,-1585 173,-1615 474,-1615 474,-1585 173,-1585"/>
<text text-anchor="start" x="180" y="-1596.4" font-family="Arial" font-size="14.00" fill="#000000">status_id </text>
<text text-anchor="start" x="239.9088" y="-1596.4" font-family="Arial" font-size="14.00" fill="#666666">[int(11)]</text>
<text text-anchor="start" x="287.3562" y="-1596.4" font-family="Arial" font-size="14.00" fill="#000000"> ステータスID</text>
<polygon fill="none" stroke="#000000" points="173,-1555 173,-1585 474,-1585 474,-1555 173,-1555"/>
<text text-anchor="start" x="180" y="-1566.4" font-family="Arial" font-size="14.00" fill="#000000">assigned_to_id </text>
<text text-anchor="start" x="278.0378" y="-1566.4" font-family="Arial" font-size="14.00" fill="#666666">[int(11)]</text>
<text text-anchor="start" x="325.4852" y="-1566.4" font-family="Arial" font-size="14.00" fill="#000000"> 担当者ID</text>
<polygon fill="none" stroke="#000000" points="173,-1525 173,-1555 474,-1555 474,-1525 173,-1525"/>
<text text-anchor="start" x="180" y="-1536.4" font-family="Arial" font-size="14.00" fill="#000000">priority_id </text>
<text text-anchor="start" x="244.5526" y="-1536.4" font-family="Arial" font-size="14.00" fill="#666666">[int(11)]</text>
<text text-anchor="start" x="292" y="-1536.4" font-family="Arial" font-size="14.00" fill="#000000"> 優先度ID</text>
<polygon fill="none" stroke="#000000" points="173,-1495 173,-1525 474,-1525 474,-1495 173,-1495"/>
<text text-anchor="start" x="179.8635" y="-1506.4" font-family="Arial" font-size="14.00" fill="#000000">fixed_version_id </text>
<text text-anchor="start" x="284.8859" y="-1506.4" font-family="Arial" font-size="14.00" fill="#666666">[int(11)]</text>
<text text-anchor="start" x="332.3333" y="-1506.4" font-family="Arial" font-size="14.00" fill="#000000"> 対象バージョンID</text>
<polygon fill="none" stroke="#000000" points="173,-1465 173,-1495 474,-1495 474,-1465 173,-1465"/>
<text text-anchor="start" x="180" y="-1476.4" font-family="Arial" font-size="14.00" fill="#000000">author_id </text>
<text text-anchor="start" x="242.244" y="-1476.4" font-family="Arial" font-size="14.00" fill="#666666">[int(11)]</text>
<text text-anchor="start" x="289.6914" y="-1476.4" font-family="Arial" font-size="14.00" fill="#000000"> 登録者ID</text>
<polygon fill="none" stroke="#000000" points="173,-1435 173,-1465 474,-1465 474,-1435 173,-1435"/>
<text text-anchor="start" x="180" y="-1446.4" font-family="Arial" font-size="14.00" fill="#000000">lock_version </text>
<text text-anchor="start" x="261.6774" y="-1446.4" font-family="Arial" font-size="14.00" fill="#666666">[int(11)]</text>
<text text-anchor="start" x="309.1248" y="-1446.4" font-family="Arial" font-size="14.00" fill="#000000"> ロックバージョン</text>
<polygon fill="none" stroke="#000000" points="173,-1405 173,-1435 474,-1435 474,-1405 173,-1405"/>
<text text-anchor="start" x="180" y="-1416.4" font-family="Arial" font-size="14.00" fill="#000000">created_on </text>
<text text-anchor="start" x="253.92" y="-1416.4" font-family="Arial" font-size="14.00" fill="#666666">[timestamp]</text>
<polygon fill="none" stroke="#000000" points="173,-1375 173,-1405 474,-1405 474,-1375 173,-1375"/>
<text text-anchor="start" x="180" y="-1386.4" font-family="Arial" font-size="14.00" fill="#000000">updated_on </text>
<text text-anchor="start" x="257.8246" y="-1386.4" font-family="Arial" font-size="14.00" fill="#666666">[timestamp]</text>
<polygon fill="none" stroke="#000000" points="173,-1345 173,-1375 474,-1375 474,-1345 173,-1345"/>
<text text-anchor="start" x="180" y="-1356.4" font-family="Arial" font-size="14.00" fill="#000000">start_date </text>
<text text-anchor="start" x="246.136" y="-1356.4" font-family="Arial" font-size="14.00" fill="#666666">[date]</text>
<text text-anchor="start" x="281.1556" y="-1356.4" font-family="Arial" font-size="14.00" fill="#000000"> 開始日</text>
<polygon fill="none" stroke="#000000" points="173,-1315 173,-1345 474,-1345 474,-1315 173,-1315"/>
<text text-anchor="start" x="180" y="-1326.4" font-family="Arial" font-size="14.00" fill="#000000">done_ratio </text>
<text text-anchor="start" x="250.0266" y="-1326.4" font-family="Arial" font-size="14.00" fill="#666666">[int(11)]</text>
<text text-anchor="start" x="297.474" y="-1326.4" font-family="Arial" font-size="14.00" fill="#000000"> 進捗率</text>
<polygon fill="none" stroke="#000000" points="173,-1285 173,-1315 474,-1315 474,-1285 173,-1285"/>
<text text-anchor="start" x="180" y="-1296.4" font-family="Arial" font-size="14.00" fill="#000000">estimated_hours </text>
<text text-anchor="start" x="287.3604" y="-1296.4" font-family="Arial" font-size="14.00" fill="#666666">[float]</text>
<text text-anchor="start" x="321.5946" y="-1296.4" font-family="Arial" font-size="14.00" fill="#000000"> 予定工数</text>
<polygon fill="none" stroke="#000000" points="173,-1255 173,-1285 474,-1285 474,-1255 173,-1255"/>
<text text-anchor="start" x="180" y="-1266.4" font-family="Arial" font-size="14.00" fill="#000000">parent_id </text>
<text text-anchor="start" x="242.244" y="-1266.4" font-family="Arial" font-size="14.00" fill="#666666">[int(11)]</text>
<text text-anchor="start" x="289.6914" y="-1266.4" font-family="Arial" font-size="14.00" fill="#000000"> 親チケット</text>
<polygon fill="none" stroke="#000000" points="173,-1225 173,-1255 474,-1255 474,-1225 173,-1225"/>
<text text-anchor="start" x="180" y="-1236.4" font-family="Arial" font-size="14.00" fill="#000000">root_id </text>
<text text-anchor="start" x="226.6788" y="-1236.4" font-family="Arial" font-size="14.00" fill="#666666">[int(11)]</text>
<text text-anchor="start" x="274.1262" y="-1236.4" font-family="Arial" font-size="14.00" fill="#000000"> ルートID</text>
<polygon fill="none" stroke="#000000" points="173,-1195 173,-1225 474,-1225 474,-1195 173,-1195"/>
<text text-anchor="start" x="180" y="-1206.4" font-family="Arial" font-size="14.00" fill="#000000">lft </text>
<text text-anchor="start" x="194.7784" y="-1206.4" font-family="Arial" font-size="14.00" fill="#666666">[int(11)]</text>
<text text-anchor="start" x="242.2258" y="-1206.4" font-family="Arial" font-size="14.00" fill="#000000"> 左ノードポインタ</text>
<polygon fill="none" stroke="#000000" points="173,-1165 173,-1195 474,-1195 474,-1165 173,-1165"/>
<text text-anchor="start" x="180" y="-1176.4" font-family="Arial" font-size="14.00" fill="#000000">rgt </text>
<text text-anchor="start" x="200.2244" y="-1176.4" font-family="Arial" font-size="14.00" fill="#666666">[int(11)]</text>
<text text-anchor="start" x="247.6718" y="-1176.4" font-family="Arial" font-size="14.00" fill="#000000"> 右ノードポインタ</text>
<polygon fill="none" stroke="#000000" points="173,-1135 173,-1165 474,-1165 474,-1135 173,-1135"/>
<text text-anchor="start" x="180" y="-1146.4" font-family="Arial" font-size="14.00" fill="#000000">is_private </text>
<text text-anchor="start" x="243.7854" y="-1146.4" font-family="Arial" font-size="14.00" fill="#666666">[tinyint(1)]</text>
<text text-anchor="start" x="305.23" y="-1146.4" font-family="Arial" font-size="14.00" fill="#000000"> プライベート</text>
<polygon fill="none" stroke="#000000" points="173,-1105 173,-1135 474,-1135 474,-1105 173,-1105"/>
<text text-anchor="start" x="180" y="-1116.4" font-family="Arial" font-size="14.00" fill="#000000">closed_on </text>
<text text-anchor="start" x="247.6928" y="-1116.4" font-family="Arial" font-size="14.00" fill="#666666">[datetime]</text>
<text text-anchor="start" x="309.1528" y="-1116.4" font-family="Arial" font-size="14.00" fill="#000000"> 完了日時</text>
</g>
<!-- issues&#45;&gt;enumerations -->
<g id="edge1" class="edge">
<title>issues:priority_id&#45;&gt;enumerations:id</title>
<path fill="none" stroke="#000000" stroke-dasharray="5,2" d="M482.8834,-1535.3613C524.9386,-1488.3403 507.5626,-1098.9202 474,-1062 417.3897,-999.7265 153.6103,-1088.2735 97,-1026 65.0113,-990.8112 49.4444,-919 97,-919"/>
<polygon fill="#000000" stroke="#000000" points="482.8643,-1535.3712 471.9171,-1536.0111 478.4321,-1537.6856 474,-1540 474,-1540 474,-1540 478.4321,-1537.6856 476.0829,-1543.9889 482.8643,-1535.3712 482.8643,-1535.3712"/>
<text text-anchor="start" x="481.3245" y="-1550" font-family="Arial" font-size="10.00" fill="#000000">Additional Relation</text>
</g>
<!-- documents -->
<g id="node3" class="node">
<title>documents</title>
<polygon fill="#efefef" stroke="transparent" points="578,-1555 578,-1601 777,-1601 777,-1555 578,-1555"/>
<polygon fill="none" stroke="#000000" points="578,-1555 578,-1601 777,-1601 777,-1555 578,-1555"/>
<text text-anchor="start" x="584.8604" y="-1578.8" font-family="Arial Bold" font-size="18.00" fill="#000000">documents</text>
<text text-anchor="start" x="672.8858" y="-1578.8" font-family="Arial" font-size="14.00" fill="#000000"> </text>
<text text-anchor="start" x="676.7764" y="-1578.8" font-family="Arial" font-size="14.00" fill="#666666">[BASE TABLE]</text>
<text text-anchor="start" x="666.2202" y="-1564.4" font-family="Arial" font-size="14.00" fill="#333333">文書</text>
<polygon fill="none" stroke="#000000" points="578,-1525 578,-1555 777,-1555 777,-1525 578,-1525"/>
<text text-anchor="start" x="585" y="-1536.4" font-family="Arial" font-size="14.00" fill="#000000">id </text>
<text text-anchor="start" x="599.7798" y="-1536.4" font-family="Arial" font-size="14.00" fill="#666666">[int(11)]</text>
<polygon fill="none" stroke="#000000" points="578,-1495 578,-1525 777,-1525 777,-1495 578,-1495"/>
<text text-anchor="start" x="585" y="-1506.4" font-family="Arial" font-size="14.00" fill="#000000">project_id </text>
<text text-anchor="start" x="649.568" y="-1506.4" font-family="Arial" font-size="14.00" fill="#666666">[int(11)]</text>
<polygon fill="none" stroke="#000000" points="578,-1465 578,-1495 777,-1495 777,-1465 578,-1465"/>
<text text-anchor="start" x="585" y="-1476.4" font-family="Arial" font-size="14.00" fill="#000000">category_id </text>
<text text-anchor="start" x="661.244" y="-1476.4" font-family="Arial" font-size="14.00" fill="#666666">[int(11)]</text>
<polygon fill="none" stroke="#000000" points="578,-1435 578,-1465 777,-1465 777,-1435 578,-1435"/>
<text text-anchor="start" x="585" y="-1446.4" font-family="Arial" font-size="14.00" fill="#000000">title </text>
<text text-anchor="start" x="610.6676" y="-1446.4" font-family="Arial" font-size="14.00" fill="#666666">[varchar(255)]</text>
<polygon fill="none" stroke="#000000" points="578,-1405 578,-1435 777,-1435 777,-1405 578,-1405"/>
<text text-anchor="start" x="585" y="-1416.4" font-family="Arial" font-size="14.00" fill="#000000">description </text>
<text text-anchor="start" x="656.568" y="-1416.4" font-family="Arial" font-size="14.00" fill="#666666">[text]</text>
<polygon fill="none" stroke="#000000" points="578,-1375 578,-1405 777,-1405 777,-1375 578,-1375"/>
<text text-anchor="start" x="585" y="-1386.4" font-family="Arial" font-size="14.00" fill="#000000">created_on </text>
<text text-anchor="start" x="658.92" y="-1386.4" font-family="Arial" font-size="14.00" fill="#666666">[timestamp]</text>
</g>
<!-- documents&#45;&gt;enumerations -->
<g id="edge2" class="edge">
<title>documents:category_id&#45;&gt;enumerations:id</title>
<path fill="none" stroke="#000000" stroke-dasharray="5,2" d="M567.816,-1479.1774C516.6702,-1470.1601 553.3499,-1388.9459 578,-1332 656.9404,-1149.6344 825.0596,-1208.3656 904,-1026 922.8914,-982.3577 951.5556,-919 904,-919"/>
<polygon fill="#000000" stroke="#000000" points="568.0325,-1479.1948 577.6377,-1484.4854 573.0162,-1479.5974 578,-1480 578,-1480 578,-1480 573.0162,-1479.5974 578.3623,-1475.5146 568.0325,-1479.1948 568.0325,-1479.1948"/>
<text text-anchor="start" x="488.3245" y="-1490" font-family="Arial" font-size="10.00" fill="#000000">Additional Relation</text>
</g>
</g>
</svg>
