<?xml version="1.0" encoding="UTF-8" standalone="no"?>
<!DOCTYPE svg PUBLIC "-//W3C//DTD SVG 1.1//EN"
 "http://www.w3.org/Graphics/SVG/1.1/DTD/svg11.dtd">
<!-- Generated by graphviz version 2.40.1 (20161225.0304)
 -->
<!-- Title: imports Pages: 1 -->
<svg width="576pt" height="1562pt"
 viewBox="0.00 0.00 576.00 1562.00" xmlns="http://www.w3.org/2000/svg" xmlns:xlink="http://www.w3.org/1999/xlink">
<g id="graph0" class="graph" transform="scale(1 1) rotate(0) translate(4 1558)">
<title>imports</title>
<polygon fill="#ffffff" stroke="transparent" points="-4,4 -4,-1558 572,-1558 572,4 -4,4"/>
<!-- imports -->
<g id="node1" class="node">
<title>imports</title>
<polygon fill="#efefef" stroke="transparent" points="199,-1114 199,-1160 369,-1160 369,-1114 199,-1114"/>
<polygon fill="none" stroke="#000000" points="199,-1114 199,-1160 369,-1160 369,-1114 199,-1114"/>
<text text-anchor="start" x="205.8765" y="-1137.8" font-family="Arial Bold" font-size="18.00" fill="#000000">imports</text>
<text text-anchor="start" x="264.8697" y="-1137.8" font-family="Arial" font-size="14.00" fill="#000000"> </text>
<text text-anchor="start" x="268.7603" y="-1137.8" font-family="Arial" font-size="14.00" fill="#666666">[BASE TABLE]</text>
<text text-anchor="start" x="245.3768" y="-1123.4" font-family="Arial" font-size="14.00" fill="#333333">インポート</text>
<polygon fill="none" stroke="#000000" points="199,-1084 199,-1114 369,-1114 369,-1084 199,-1084"/>
<text text-anchor="start" x="206" y="-1095.4" font-family="Arial" font-size="14.00" fill="#000000">id </text>
<text text-anchor="start" x="220.7798" y="-1095.4" font-family="Arial" font-size="14.00" fill="#666666">[int(11)]</text>
<polygon fill="none" stroke="#000000" points="199,-1054 199,-1084 369,-1084 369,-1054 199,-1054"/>
<text text-anchor="start" x="206" y="-1065.4" font-family="Arial" font-size="14.00" fill="#000000">type </text>
<text text-anchor="start" x="236.3464" y="-1065.4" font-family="Arial" font-size="14.00" fill="#666666">[varchar(255)]</text>
<polygon fill="none" stroke="#000000" points="199,-1024 199,-1054 369,-1054 369,-1024 199,-1024"/>
<text text-anchor="start" x="206" y="-1035.4" font-family="Arial" font-size="14.00" fill="#000000">user_id </text>
<text text-anchor="start" x="255.7882" y="-1035.4" font-family="Arial" font-size="14.00" fill="#666666">[int(11)]</text>
<polygon fill="none" stroke="#000000" points="199,-994 199,-1024 369,-1024 369,-994 199,-994"/>
<text text-anchor="start" x="206" y="-1005.4" font-family="Arial" font-size="14.00" fill="#000000">filename </text>
<text text-anchor="start" x="262.7854" y="-1005.4" font-family="Arial" font-size="14.00" fill="#666666">[varchar(255)]</text>
<polygon fill="none" stroke="#000000" points="199,-964 199,-994 369,-994 369,-964 199,-964"/>
<text text-anchor="start" x="206" y="-975.4" font-family="Arial" font-size="14.00" fill="#000000">settings </text>
<text text-anchor="start" x="258.1262" y="-975.4" font-family="Arial" font-size="14.00" fill="#666666">[text]</text>
<polygon fill="none" stroke="#000000" points="199,-934 199,-964 369,-964 369,-934 199,-934"/>
<text text-anchor="start" x="206" y="-945.4" font-family="Arial" font-size="14.00" fill="#000000">total_items </text>
<text text-anchor="start" x="277.5666" y="-945.4" font-family="Arial" font-size="14.00" fill="#666666">[int(11)]</text>
<polygon fill="none" stroke="#000000" points="199,-904 199,-934 369,-934 369,-904 199,-904"/>
<text text-anchor="start" x="206" y="-915.4" font-family="Arial" font-size="14.00" fill="#000000">finished </text>
<text text-anchor="start" x="258.1248" y="-915.4" font-family="Arial" font-size="14.00" fill="#666666">[tinyint(1)]</text>
<polygon fill="none" stroke="#000000" points="199,-874 199,-904 369,-904 369,-874 199,-874"/>
<text text-anchor="start" x="206" y="-885.4" font-family="Arial" font-size="14.00" fill="#000000">created_at </text>
<text text-anchor="start" x="276.028" y="-885.4" font-family="Arial" font-size="14.00" fill="#666666">[datetime]</text>
<polygon fill="none" stroke="#000000" points="199,-844 199,-874 369,-874 369,-844 199,-844"/>
<text text-anchor="start" x="206" y="-855.4" font-family="Arial" font-size="14.00" fill="#000000">updated_at </text>
<text text-anchor="start" x="279.9326" y="-855.4" font-family="Arial" font-size="14.00" fill="#666666">[datetime]</text>
<polygon fill="none" stroke="#000000" stroke-width="3" points="197.5,-842.5 197.5,-1161.5 370.5,-1161.5 370.5,-842.5 197.5,-842.5"/>
</g>
<!-- users -->
<g id="node3" class="node">
<title>users</title>
<polygon fill="#efefef" stroke="transparent" points="43,-673 43,-719 525,-719 525,-673 43,-673"/>
<polygon fill="none" stroke="#000000" points="43,-673 43,-719 525,-719 525,-673 43,-673"/>
<text text-anchor="start" x="213.3708" y="-696.8" font-family="Arial Bold" font-size="18.00" fill="#000000">users</text>
<text text-anchor="start" x="257.3754" y="-696.8" font-family="Arial" font-size="14.00" fill="#000000"> </text>
<text text-anchor="start" x="261.266" y="-696.8" font-family="Arial" font-size="14.00" fill="#666666">[BASE TABLE]</text>
<text text-anchor="start" x="205.4558" y="-682.4" font-family="Arial" font-size="14.00" fill="#333333">ユーザー / グループ</text>
<polygon fill="none" stroke="#000000" points="43,-643 43,-673 525,-673 525,-643 43,-643"/>
<text text-anchor="start" x="50" y="-654.4" font-family="Arial" font-size="14.00" fill="#000000">id </text>
<text text-anchor="start" x="64.7798" y="-654.4" font-family="Arial" font-size="14.00" fill="#666666">[int(11)]</text>
<polygon fill="none" stroke="#000000" points="43,-613 43,-643 525,-643 525,-613 43,-613"/>
<text text-anchor="start" x="50" y="-624.4" font-family="Arial" font-size="14.00" fill="#000000">login </text>
<text text-anchor="start" x="83.4516" y="-624.4" font-family="Arial" font-size="14.00" fill="#666666">[varchar(255)]</text>
<text text-anchor="start" x="170.5708" y="-624.4" font-family="Arial" font-size="14.00" fill="#000000"> ログインID</text>
<polygon fill="none" stroke="#000000" points="43,-583 43,-613 525,-613 525,-583 43,-583"/>
<text text-anchor="start" x="50" y="-594.4" font-family="Arial" font-size="14.00" fill="#000000">hashed_password </text>
<text text-anchor="start" x="167.4838" y="-594.4" font-family="Arial" font-size="14.00" fill="#666666">[varchar(40)]</text>
<text text-anchor="start" x="246.8204" y="-594.4" font-family="Arial" font-size="14.00" fill="#000000"> パスワード(ハッシュ化済み)</text>
<polygon fill="none" stroke="#000000" points="43,-553 43,-583 525,-583 525,-553 43,-553"/>
<text text-anchor="start" x="50" y="-564.4" font-family="Arial" font-size="14.00" fill="#000000">firstname </text>
<text text-anchor="start" x="111.4474" y="-564.4" font-family="Arial" font-size="14.00" fill="#666666">[varchar(30)]</text>
<text text-anchor="start" x="190.784" y="-564.4" font-family="Arial" font-size="14.00" fill="#000000"> 名</text>
<polygon fill="none" stroke="#000000" points="43,-523 43,-553 525,-553 525,-523 43,-523"/>
<text text-anchor="start" x="50" y="-534.4" font-family="Arial" font-size="14.00" fill="#000000">lastname </text>
<text text-anchor="start" x="110.6788" y="-534.4" font-family="Arial" font-size="14.00" fill="#666666">[varchar(255)]</text>
<text text-anchor="start" x="197.798" y="-534.4" font-family="Arial" font-size="14.00" fill="#000000"> 姓</text>
<polygon fill="none" stroke="#000000" points="43,-493 43,-523 525,-523 525,-493 43,-493"/>
<text text-anchor="start" x="50" y="-504.4" font-family="Arial" font-size="14.00" fill="#000000">admin </text>
<text text-anchor="start" x="92.0056" y="-504.4" font-family="Arial" font-size="14.00" fill="#666666">[tinyint(1)]</text>
<text text-anchor="start" x="153.4502" y="-504.4" font-family="Arial" font-size="14.00" fill="#000000"> システム管理者</text>
<polygon fill="none" stroke="#000000" points="43,-463 43,-493 525,-493 525,-463 43,-463"/>
<text text-anchor="start" x="50" y="-474.4" font-family="Arial" font-size="14.00" fill="#000000">status </text>
<text text-anchor="start" x="91.237" y="-474.4" font-family="Arial" font-size="14.00" fill="#666666">[int(11)]</text>
<polygon fill="none" stroke="#000000" points="43,-433 43,-463 525,-463 525,-433 43,-433"/>
<text text-anchor="start" x="50" y="-444.4" font-family="Arial" font-size="14.00" fill="#000000">last_login_on </text>
<text text-anchor="start" x="136.3618" y="-444.4" font-family="Arial" font-size="14.00" fill="#666666">[datetime]</text>
<polygon fill="none" stroke="#000000" points="43,-403 43,-433 525,-433 525,-403 43,-403"/>
<text text-anchor="start" x="50" y="-414.4" font-family="Arial" font-size="14.00" fill="#000000">language </text>
<text text-anchor="start" x="111.4754" y="-414.4" font-family="Arial" font-size="14.00" fill="#666666">[varchar(5)]</text>
<text text-anchor="start" x="183.0294" y="-414.4" font-family="Arial" font-size="14.00" fill="#000000"> 言語</text>
<polygon fill="none" stroke="#000000" points="43,-373 43,-403 525,-403 525,-373 43,-373"/>
<text text-anchor="start" x="50" y="-384.4" font-family="Arial" font-size="14.00" fill="#000000">auth_source_id </text>
<text text-anchor="start" x="149.5918" y="-384.4" font-family="Arial" font-size="14.00" fill="#666666">[int(11)]</text>
<polygon fill="none" stroke="#000000" points="43,-343 43,-373 525,-373 525,-343 43,-343"/>
<text text-anchor="start" x="50" y="-354.4" font-family="Arial" font-size="14.00" fill="#000000">created_on </text>
<text text-anchor="start" x="123.92" y="-354.4" font-family="Arial" font-size="14.00" fill="#666666">[timestamp]</text>
<polygon fill="none" stroke="#000000" points="43,-313 43,-343 525,-343 525,-313 43,-313"/>
<text text-anchor="start" x="50" y="-324.4" font-family="Arial" font-size="14.00" fill="#000000">updated_on </text>
<text text-anchor="start" x="127.8246" y="-324.4" font-family="Arial" font-size="14.00" fill="#666666">[timestamp]</text>
<polygon fill="none" stroke="#000000" points="43,-283 43,-313 525,-313 525,-283 43,-283"/>
<text text-anchor="start" x="50" y="-294.4" font-family="Arial" font-size="14.00" fill="#000000">type </text>
<text text-anchor="start" x="80.3464" y="-294.4" font-family="Arial" font-size="14.00" fill="#666666">[varchar(255)]</text>
<text text-anchor="start" x="167.4656" y="-294.4" font-family="Arial" font-size="14.00" fill="#000000"> User:ユーザー Group:グループ </text>
<polygon fill="none" stroke="#000000" points="43,-253 43,-283 525,-283 525,-253 43,-253"/>
<text text-anchor="start" x="50" y="-264.4" font-family="Arial" font-size="14.00" fill="#000000">mail_notification </text>
<text text-anchor="start" x="154.2342" y="-264.4" font-family="Arial" font-size="14.00" fill="#666666">[varchar(255)]</text>
<text text-anchor="start" x="241.3534" y="-264.4" font-family="Arial" font-size="14.00" fill="#000000"> メール通知</text>
<polygon fill="none" stroke="#000000" points="43,-223 43,-253 525,-253 525,-223 43,-223"/>
<text text-anchor="start" x="50" y="-234.4" font-family="Arial" font-size="14.00" fill="#000000">salt </text>
<text text-anchor="start" x="75.6704" y="-234.4" font-family="Arial" font-size="14.00" fill="#666666">[varchar(64)]</text>
<polygon fill="none" stroke="#000000" points="43,-193 43,-223 525,-223 525,-193 43,-193"/>
<text text-anchor="start" x="49.7646" y="-204.4" font-family="Arial" font-size="14.00" fill="#000000">must_change_passwd </text>
<text text-anchor="start" x="192.9216" y="-204.4" font-family="Arial" font-size="14.00" fill="#666666">[tinyint(1)]</text>
<text text-anchor="start" x="254.3662" y="-204.4" font-family="Arial" font-size="14.00" fill="#000000"> 次回ログイン時にパスワード変更を強制</text>
<polygon fill="none" stroke="#000000" points="43,-163 43,-193 525,-193 525,-163 43,-163"/>
<text text-anchor="start" x="50" y="-174.4" font-family="Arial" font-size="14.00" fill="#000000">passwd_changed_on </text>
<text text-anchor="start" x="186.171" y="-174.4" font-family="Arial" font-size="14.00" fill="#666666">[datetime]</text>
<polygon fill="none" stroke="#000000" points="43,-133 43,-163 525,-163 525,-133 43,-133"/>
<text text-anchor="start" x="50" y="-144.4" font-family="Arial" font-size="14.00" fill="#000000">twofa_scheme </text>
<text text-anchor="start" x="144.1346" y="-144.4" font-family="Arial" font-size="14.00" fill="#666666">[varchar(255)]</text>
<polygon fill="none" stroke="#000000" points="43,-103 43,-133 525,-133 525,-103 43,-103"/>
<text text-anchor="start" x="50" y="-114.4" font-family="Arial" font-size="14.00" fill="#000000">twofa_totp_key </text>
<text text-anchor="start" x="148.0378" y="-114.4" font-family="Arial" font-size="14.00" fill="#666666">[varchar(255)]</text>
<polygon fill="none" stroke="#000000" points="43,-73 43,-103 525,-103 525,-73 43,-73"/>
<text text-anchor="start" x="50" y="-84.4" font-family="Arial" font-size="14.00" fill="#000000">twofa_totp_last_used_at </text>
<text text-anchor="start" x="205.6212" y="-84.4" font-family="Arial" font-size="14.00" fill="#666666">[int(11)]</text>
<polygon fill="none" stroke="#000000" points="43,-43 43,-73 525,-73 525,-43 43,-43"/>
<text text-anchor="start" x="50" y="-54.4" font-family="Arial" font-size="14.00" fill="#000000">twofa_required </text>
<text text-anchor="start" x="146.467" y="-54.4" font-family="Arial" font-size="14.00" fill="#666666">[tinyint(1)]</text>
</g>
<!-- imports&#45;&gt;users -->
<g id="edge2" class="edge">
<title>imports:user_id&#45;&gt;users:id</title>
<path fill="none" stroke="#000000" stroke-dasharray="5,2" d="M379.1552,-1037.5437C471.4392,-1011.9642 613.1832,-658 525,-658"/>
<polygon fill="#000000" stroke="#000000" points="378.8987,-1037.5804 368.3612,-1034.5456 373.9494,-1038.2902 369,-1039 369,-1039 369,-1039 373.9494,-1038.2902 369.6388,-1043.4544 378.8987,-1037.5804 378.8987,-1037.5804"/>
<text text-anchor="start" x="376.268" y="-1049" font-family="Arial" font-size="10.00" fill="#000000">Detected Relation</text>
</g>
<!-- import_items -->
<g id="node2" class="node">
<title>import_items</title>
<polygon fill="#efefef" stroke="transparent" points="177,-1465 177,-1511 391,-1511 391,-1465 177,-1465"/>
<polygon fill="none" stroke="#000000" points="177,-1465 177,-1511 391,-1511 391,-1465 177,-1465"/>
<text text-anchor="start" x="183.876" y="-1488.8" font-family="Arial Bold" font-size="18.00" fill="#000000">import_items</text>
<text text-anchor="start" x="286.8702" y="-1488.8" font-family="Arial" font-size="14.00" fill="#000000"> </text>
<text text-anchor="start" x="290.7608" y="-1488.8" font-family="Arial" font-size="14.00" fill="#666666">[BASE TABLE]</text>
<text text-anchor="start" x="228.6503" y="-1474.4" font-family="Arial" font-size="14.00" fill="#333333">インポート項目</text>
<polygon fill="none" stroke="#000000" points="177,-1435 177,-1465 391,-1465 391,-1435 177,-1435"/>
<text text-anchor="start" x="184" y="-1446.4" font-family="Arial" font-size="14.00" fill="#000000">id </text>
<text text-anchor="start" x="198.7798" y="-1446.4" font-family="Arial" font-size="14.00" fill="#666666">[int(11)]</text>
<polygon fill="none" stroke="#000000" points="177,-1405 177,-1435 391,-1435 391,-1405 177,-1405"/>
<text text-anchor="start" x="184" y="-1416.4" font-family="Arial" font-size="14.00" fill="#000000">import_id </text>
<text text-anchor="start" x="245.446" y="-1416.4" font-family="Arial" font-size="14.00" fill="#666666">[int(11)]</text>
<polygon fill="none" stroke="#000000" points="177,-1375 177,-1405 391,-1405 391,-1375 177,-1375"/>
<text text-anchor="start" x="184" y="-1386.4" font-family="Arial" font-size="14.00" fill="#000000">position </text>
<text text-anchor="start" x="236.1248" y="-1386.4" font-family="Arial" font-size="14.00" fill="#666666">[int(11)]</text>
<polygon fill="none" stroke="#000000" points="177,-1345 177,-1375 391,-1375 391,-1345 177,-1345"/>
<text text-anchor="start" x="184" y="-1356.4" font-family="Arial" font-size="14.00" fill="#000000">obj_id </text>
<text text-anchor="start" x="225.2342" y="-1356.4" font-family="Arial" font-size="14.00" fill="#666666">[int(11)]</text>
<polygon fill="none" stroke="#000000" points="177,-1315 177,-1345 391,-1345 391,-1315 177,-1315"/>
<text text-anchor="start" x="184" y="-1326.4" font-family="Arial" font-size="14.00" fill="#000000">message </text>
<text text-anchor="start" x="244.6816" y="-1326.4" font-family="Arial" font-size="14.00" fill="#666666">[text]</text>
<polygon fill="none" stroke="#000000" points="177,-1285 177,-1315 391,-1315 391,-1285 177,-1285"/>
<text text-anchor="start" x="184" y="-1296.4" font-family="Arial" font-size="14.00" fill="#000000">unique_id </text>
<text text-anchor="start" x="248.582" y="-1296.4" font-family="Arial" font-size="14.00" fill="#666666">[varchar(255)]</text>
</g>
<!-- import_items&#45;&gt;imports -->
<g id="edge1" class="edge">
<title>import_items:import_id&#45;&gt;imports:id</title>
<path fill="none" stroke="#000000" stroke-dasharray="5,2" d="M401.1793,-1419.4353C532.855,-1404.5175 508.5101,-1099 369,-1099"/>
<polygon fill="#000000" stroke="#000000" points="400.9847,-1419.4461 390.7507,-1415.5069 395.9923,-1419.723 391,-1420 391,-1420 391,-1420 395.9923,-1419.723 391.2493,-1424.4931 400.9847,-1419.4461 400.9847,-1419.4461"/>
<text text-anchor="start" x="398.3245" y="-1430" font-family="Arial" font-size="10.00" fill="#000000">Additional Relation</text>
</g>
</g>
</svg>
