<?xml version="1.0" encoding="UTF-8" standalone="no"?>
<!DOCTYPE svg PUBLIC "-//W3C//DTD SVG 1.1//EN"
 "http://www.w3.org/Graphics/SVG/1.1/DTD/svg11.dtd">
<!-- Generated by graphviz version 2.40.1 (20161225.0304)
 -->
<!-- Title: import_items Pages: 1 -->
<svg width="365pt" height="764pt"
 viewBox="0.00 0.00 365.00 764.00" xmlns="http://www.w3.org/2000/svg" xmlns:xlink="http://www.w3.org/1999/xlink">
<g id="graph0" class="graph" transform="scale(1 1) rotate(0) translate(4 760)">
<title>import_items</title>
<polygon fill="#ffffff" stroke="transparent" points="-4,4 -4,-760 361,-760 361,4 -4,4"/>
<!-- import_items -->
<g id="node1" class="node">
<title>import_items</title>
<polygon fill="#efefef" stroke="transparent" points="46,-664 46,-710 260,-710 260,-664 46,-664"/>
<polygon fill="none" stroke="#000000" points="46,-664 46,-710 260,-710 260,-664 46,-664"/>
<text text-anchor="start" x="52.876" y="-687.8" font-family="Arial Bold" font-size="18.00" fill="#000000">import_items</text>
<text text-anchor="start" x="155.8702" y="-687.8" font-family="Arial" font-size="14.00" fill="#000000"> </text>
<text text-anchor="start" x="159.7608" y="-687.8" font-family="Arial" font-size="14.00" fill="#666666">[BASE TABLE]</text>
<text text-anchor="start" x="97.6503" y="-673.4" font-family="Arial" font-size="14.00" fill="#333333">インポート項目</text>
<polygon fill="none" stroke="#000000" points="46,-634 46,-664 260,-664 260,-634 46,-634"/>
<text text-anchor="start" x="53" y="-645.4" font-family="Arial" font-size="14.00" fill="#000000">id </text>
<text text-anchor="start" x="67.7798" y="-645.4" font-family="Arial" font-size="14.00" fill="#666666">[int(11)]</text>
<polygon fill="none" stroke="#000000" points="46,-604 46,-634 260,-634 260,-604 46,-604"/>
<text text-anchor="start" x="53" y="-615.4" font-family="Arial" font-size="14.00" fill="#000000">import_id </text>
<text text-anchor="start" x="114.446" y="-615.4" font-family="Arial" font-size="14.00" fill="#666666">[int(11)]</text>
<polygon fill="none" stroke="#000000" points="46,-574 46,-604 260,-604 260,-574 46,-574"/>
<text text-anchor="start" x="53" y="-585.4" font-family="Arial" font-size="14.00" fill="#000000">position </text>
<text text-anchor="start" x="105.1248" y="-585.4" font-family="Arial" font-size="14.00" fill="#666666">[int(11)]</text>
<polygon fill="none" stroke="#000000" points="46,-544 46,-574 260,-574 260,-544 46,-544"/>
<text text-anchor="start" x="53" y="-555.4" font-family="Arial" font-size="14.00" fill="#000000">obj_id </text>
<text text-anchor="start" x="94.2342" y="-555.4" font-family="Arial" font-size="14.00" fill="#666666">[int(11)]</text>
<polygon fill="none" stroke="#000000" points="46,-514 46,-544 260,-544 260,-514 46,-514"/>
<text text-anchor="start" x="53" y="-525.4" font-family="Arial" font-size="14.00" fill="#000000">message </text>
<text text-anchor="start" x="113.6816" y="-525.4" font-family="Arial" font-size="14.00" fill="#666666">[text]</text>
<polygon fill="none" stroke="#000000" points="46,-484 46,-514 260,-514 260,-484 46,-484"/>
<text text-anchor="start" x="53" y="-495.4" font-family="Arial" font-size="14.00" fill="#000000">unique_id </text>
<text text-anchor="start" x="117.582" y="-495.4" font-family="Arial" font-size="14.00" fill="#666666">[varchar(255)]</text>
<polygon fill="none" stroke="#000000" stroke-width="3" points="44.5,-482.5 44.5,-711.5 261.5,-711.5 261.5,-482.5 44.5,-482.5"/>
</g>
<!-- imports -->
<g id="node2" class="node">
<title>imports</title>
<polygon fill="#efefef" stroke="transparent" points="68,-313 68,-359 238,-359 238,-313 68,-313"/>
<polygon fill="none" stroke="#000000" points="68,-313 68,-359 238,-359 238,-313 68,-313"/>
<text text-anchor="start" x="74.8765" y="-336.8" font-family="Arial Bold" font-size="18.00" fill="#000000">imports</text>
<text text-anchor="start" x="133.8697" y="-336.8" font-family="Arial" font-size="14.00" fill="#000000"> </text>
<text text-anchor="start" x="137.7603" y="-336.8" font-family="Arial" font-size="14.00" fill="#666666">[BASE TABLE]</text>
<text text-anchor="start" x="114.3768" y="-322.4" font-family="Arial" font-size="14.00" fill="#333333">インポート</text>
<polygon fill="none" stroke="#000000" points="68,-283 68,-313 238,-313 238,-283 68,-283"/>
<text text-anchor="start" x="75" y="-294.4" font-family="Arial" font-size="14.00" fill="#000000">id </text>
<text text-anchor="start" x="89.7798" y="-294.4" font-family="Arial" font-size="14.00" fill="#666666">[int(11)]</text>
<polygon fill="none" stroke="#000000" points="68,-253 68,-283 238,-283 238,-253 68,-253"/>
<text text-anchor="start" x="75" y="-264.4" font-family="Arial" font-size="14.00" fill="#000000">type </text>
<text text-anchor="start" x="105.3464" y="-264.4" font-family="Arial" font-size="14.00" fill="#666666">[varchar(255)]</text>
<polygon fill="none" stroke="#000000" points="68,-223 68,-253 238,-253 238,-223 68,-223"/>
<text text-anchor="start" x="75" y="-234.4" font-family="Arial" font-size="14.00" fill="#000000">user_id </text>
<text text-anchor="start" x="124.7882" y="-234.4" font-family="Arial" font-size="14.00" fill="#666666">[int(11)]</text>
<polygon fill="none" stroke="#000000" points="68,-193 68,-223 238,-223 238,-193 68,-193"/>
<text text-anchor="start" x="75" y="-204.4" font-family="Arial" font-size="14.00" fill="#000000">filename </text>
<text text-anchor="start" x="131.7854" y="-204.4" font-family="Arial" font-size="14.00" fill="#666666">[varchar(255)]</text>
<polygon fill="none" stroke="#000000" points="68,-163 68,-193 238,-193 238,-163 68,-163"/>
<text text-anchor="start" x="75" y="-174.4" font-family="Arial" font-size="14.00" fill="#000000">settings </text>
<text text-anchor="start" x="127.1262" y="-174.4" font-family="Arial" font-size="14.00" fill="#666666">[text]</text>
<polygon fill="none" stroke="#000000" points="68,-133 68,-163 238,-163 238,-133 68,-133"/>
<text text-anchor="start" x="75" y="-144.4" font-family="Arial" font-size="14.00" fill="#000000">total_items </text>
<text text-anchor="start" x="146.5666" y="-144.4" font-family="Arial" font-size="14.00" fill="#666666">[int(11)]</text>
<polygon fill="none" stroke="#000000" points="68,-103 68,-133 238,-133 238,-103 68,-103"/>
<text text-anchor="start" x="75" y="-114.4" font-family="Arial" font-size="14.00" fill="#000000">finished </text>
<text text-anchor="start" x="127.1248" y="-114.4" font-family="Arial" font-size="14.00" fill="#666666">[tinyint(1)]</text>
<polygon fill="none" stroke="#000000" points="68,-73 68,-103 238,-103 238,-73 68,-73"/>
<text text-anchor="start" x="75" y="-84.4" font-family="Arial" font-size="14.00" fill="#000000">created_at </text>
<text text-anchor="start" x="145.028" y="-84.4" font-family="Arial" font-size="14.00" fill="#666666">[datetime]</text>
<polygon fill="none" stroke="#000000" points="68,-43 68,-73 238,-73 238,-43 68,-43"/>
<text text-anchor="start" x="75" y="-54.4" font-family="Arial" font-size="14.00" fill="#000000">updated_at </text>
<text text-anchor="start" x="148.9326" y="-54.4" font-family="Arial" font-size="14.00" fill="#666666">[datetime]</text>
</g>
<!-- import_items&#45;&gt;imports -->
<g id="edge1" class="edge">
<title>import_items:import_id&#45;&gt;imports:id</title>
<path fill="none" stroke="#000000" stroke-dasharray="5,2" d="M269.8101,-616.7788C329.2342,-588.4177 306.0094,-298 238,-298"/>
<polygon fill="#000000" stroke="#000000" points="269.7531,-616.7916 259.0062,-614.6111 264.8766,-617.8958 260,-619 260,-619 260,-619 264.8766,-617.8958 260.9938,-623.3889 269.7531,-616.7916 269.7531,-616.7916"/>
<text text-anchor="start" x="267.3245" y="-629" font-family="Arial" font-size="10.00" fill="#000000">Additional Relation</text>
</g>
</g>
</svg>
