<?xml version="1.0" encoding="UTF-8" standalone="no"?>
<!DOCTYPE svg PUBLIC "-//W3C//DTD SVG 1.1//EN"
 "http://www.w3.org/Graphics/SVG/1.1/DTD/svg11.dtd">
<!-- Generated by graphviz version 2.40.1 (20161225.0304)
 -->
<!-- Title: issue_statuses Pages: 1 -->
<svg width="1481pt" height="1184pt"
 viewBox="0.00 0.00 1481.00 1184.00" xmlns="http://www.w3.org/2000/svg" xmlns:xlink="http://www.w3.org/1999/xlink">
<g id="graph0" class="graph" transform="scale(1 1) rotate(0) translate(4 1180)">
<title>issue_statuses</title>
<polygon fill="#ffffff" stroke="transparent" points="-4,4 -4,-1180 1477,-1180 1477,4 -4,4"/>
<!-- issue_statuses -->
<g id="node1" class="node">
<title>issue_statuses</title>
<polygon fill="#efefef" stroke="transparent" points="558.5,-196 558.5,-242 788.5,-242 788.5,-196 558.5,-196"/>
<polygon fill="none" stroke="#000000" points="558.5,-196 558.5,-242 788.5,-242 788.5,-196 558.5,-196"/>
<text text-anchor="start" x="565.3552" y="-219.8" font-family="Arial Bold" font-size="18.00" fill="#000000">issue_statuses</text>
<text text-anchor="start" x="684.391" y="-219.8" font-family="Arial" font-size="14.00" fill="#000000"> </text>
<text text-anchor="start" x="688.2816" y="-219.8" font-family="Arial" font-size="14.00" fill="#666666">[BASE TABLE]</text>
<text text-anchor="start" x="632.9448" y="-205.4" font-family="Arial" font-size="14.00" fill="#333333">ステータス</text>
<polygon fill="none" stroke="#000000" points="558.5,-166 558.5,-196 788.5,-196 788.5,-166 558.5,-166"/>
<text text-anchor="start" x="565.5" y="-177.4" font-family="Arial" font-size="14.00" fill="#000000">id </text>
<text text-anchor="start" x="580.2798" y="-177.4" font-family="Arial" font-size="14.00" fill="#666666">[int(11)]</text>
<polygon fill="none" stroke="#000000" points="558.5,-136 558.5,-166 788.5,-166 788.5,-136 558.5,-136"/>
<text text-anchor="start" x="565.5" y="-147.4" font-family="Arial" font-size="14.00" fill="#000000">name </text>
<text text-anchor="start" x="604.399" y="-147.4" font-family="Arial" font-size="14.00" fill="#666666">[varchar(30)]</text>
<polygon fill="none" stroke="#000000" points="558.5,-106 558.5,-136 788.5,-136 788.5,-106 558.5,-106"/>
<text text-anchor="start" x="565.5" y="-117.4" font-family="Arial" font-size="14.00" fill="#000000">is_closed </text>
<text text-anchor="start" x="627.7342" y="-117.4" font-family="Arial" font-size="14.00" fill="#666666">[tinyint(1)]</text>
<polygon fill="none" stroke="#000000" points="558.5,-76 558.5,-106 788.5,-106 788.5,-76 558.5,-76"/>
<text text-anchor="start" x="565.5" y="-87.4" font-family="Arial" font-size="14.00" fill="#000000">position </text>
<text text-anchor="start" x="617.6248" y="-87.4" font-family="Arial" font-size="14.00" fill="#666666">[int(11)]</text>
<polygon fill="none" stroke="#000000" points="558.5,-46 558.5,-76 788.5,-76 788.5,-46 558.5,-46"/>
<text text-anchor="start" x="565.5" y="-57.4" font-family="Arial" font-size="14.00" fill="#000000">default_done_ratio </text>
<text text-anchor="start" x="685.3274" y="-57.4" font-family="Arial" font-size="14.00" fill="#666666">[int(11)]</text>
<polygon fill="none" stroke="#000000" stroke-width="3" points="557,-44.5 557,-243.5 790,-243.5 790,-44.5 557,-44.5"/>
</g>
<!-- trackers -->
<g id="node2" class="node">
<title>trackers</title>
<polygon fill="#efefef" stroke="transparent" points="43.5,-832 43.5,-878 218.5,-878 218.5,-832 43.5,-832"/>
<polygon fill="none" stroke="#000000" points="43.5,-832 43.5,-878 218.5,-878 218.5,-832 43.5,-832"/>
<text text-anchor="start" x="50.3736" y="-855.8" font-family="Arial Bold" font-size="18.00" fill="#000000">trackers</text>
<text text-anchor="start" x="114.3726" y="-855.8" font-family="Arial" font-size="14.00" fill="#000000"> </text>
<text text-anchor="start" x="118.2632" y="-855.8" font-family="Arial" font-size="14.00" fill="#666666">[BASE TABLE]</text>
<text text-anchor="start" x="92.2088" y="-841.4" font-family="Arial" font-size="14.00" fill="#333333">トラッカー</text>
<polygon fill="none" stroke="#000000" points="43.5,-802 43.5,-832 218.5,-832 218.5,-802 43.5,-802"/>
<text text-anchor="start" x="50.5" y="-813.4" font-family="Arial" font-size="14.00" fill="#000000">id </text>
<text text-anchor="start" x="65.2798" y="-813.4" font-family="Arial" font-size="14.00" fill="#666666">[int(11)]</text>
<polygon fill="none" stroke="#000000" points="43.5,-772 43.5,-802 218.5,-802 218.5,-772 43.5,-772"/>
<text text-anchor="start" x="50.5" y="-783.4" font-family="Arial" font-size="14.00" fill="#000000">name </text>
<text text-anchor="start" x="89.399" y="-783.4" font-family="Arial" font-size="14.00" fill="#666666">[varchar(30)]</text>
<polygon fill="none" stroke="#000000" points="43.5,-742 43.5,-772 218.5,-772 218.5,-742 43.5,-742"/>
<text text-anchor="start" x="50.5" y="-753.4" font-family="Arial" font-size="14.00" fill="#000000">description </text>
<text text-anchor="start" x="122.068" y="-753.4" font-family="Arial" font-size="14.00" fill="#666666">[varchar(255)]</text>
<polygon fill="none" stroke="#000000" points="43.5,-712 43.5,-742 218.5,-742 218.5,-712 43.5,-712"/>
<text text-anchor="start" x="50.5" y="-723.4" font-family="Arial" font-size="14.00" fill="#000000">position </text>
<text text-anchor="start" x="102.6248" y="-723.4" font-family="Arial" font-size="14.00" fill="#666666">[int(11)]</text>
<polygon fill="none" stroke="#000000" points="43.5,-682 43.5,-712 218.5,-712 218.5,-682 43.5,-682"/>
<text text-anchor="start" x="50.5" y="-693.4" font-family="Arial" font-size="14.00" fill="#000000">is_in_roadmap </text>
<text text-anchor="start" x="146.1858" y="-693.4" font-family="Arial" font-size="14.00" fill="#666666">[tinyint(1)]</text>
<polygon fill="none" stroke="#000000" points="43.5,-652 43.5,-682 218.5,-682 218.5,-652 43.5,-652"/>
<text text-anchor="start" x="50.5" y="-663.4" font-family="Arial" font-size="14.00" fill="#000000">fields_bits </text>
<text text-anchor="start" x="116.622" y="-663.4" font-family="Arial" font-size="14.00" fill="#666666">[int(11)]</text>
<polygon fill="none" stroke="#000000" points="43.5,-622 43.5,-652 218.5,-652 218.5,-622 43.5,-622"/>
<text text-anchor="start" x="50.5" y="-633.4" font-family="Arial" font-size="14.00" fill="#000000">default_status_id </text>
<text text-anchor="start" x="160.2096" y="-633.4" font-family="Arial" font-size="14.00" fill="#666666">[int(11)]</text>
</g>
<!-- trackers&#45;&gt;issue_statuses -->
<g id="edge1" class="edge">
<title>trackers:default_status_id&#45;&gt;issue_statuses:id</title>
<path fill="none" stroke="#000000" stroke-dasharray="5,2" d="M228.5963,-634.9284C282.9168,-610.5204 230.7588,-377.6808 270.5,-324 355.5332,-209.1407 415.5899,-181 558.5,-181"/>
<polygon fill="#000000" stroke="#000000" points="228.2959,-634.9899 217.5955,-632.5918 223.398,-635.995 218.5,-637 218.5,-637 218.5,-637 223.398,-635.995 219.4045,-641.4082 228.2959,-634.9899 228.2959,-634.9899"/>
<text text-anchor="start" x="225.8245" y="-647" font-family="Arial" font-size="10.00" fill="#000000">Additional Relation</text>
</g>
<!-- workflows -->
<g id="node3" class="node">
<title>workflows</title>
<polygon fill="#efefef" stroke="transparent" points="322.5,-877 322.5,-923 1024.5,-923 1024.5,-877 322.5,-877"/>
<polygon fill="none" stroke="#000000" points="322.5,-877 322.5,-923 1024.5,-923 1024.5,-877 322.5,-877"/>
<text text-anchor="start" x="585.3784" y="-900.8" font-family="Arial Bold" font-size="18.00" fill="#000000">workflows</text>
<text text-anchor="start" x="664.3678" y="-900.8" font-family="Arial" font-size="14.00" fill="#000000"> </text>
<text text-anchor="start" x="668.2584" y="-900.8" font-family="Arial" font-size="14.00" fill="#666666">[BASE TABLE]</text>
<text text-anchor="start" x="553.1819" y="-886.4" font-family="Arial" font-size="14.00" fill="#333333">ワークフロー/フィールドの権限</text>
<polygon fill="none" stroke="#000000" points="322.5,-847 322.5,-877 1024.5,-877 1024.5,-847 322.5,-847"/>
<text text-anchor="start" x="329.5" y="-858.4" font-family="Arial" font-size="14.00" fill="#000000">id </text>
<text text-anchor="start" x="344.2798" y="-858.4" font-family="Arial" font-size="14.00" fill="#666666">[int(11)]</text>
<polygon fill="none" stroke="#000000" points="322.5,-817 322.5,-847 1024.5,-847 1024.5,-817 322.5,-817"/>
<text text-anchor="start" x="329.5" y="-828.4" font-family="Arial" font-size="14.00" fill="#000000">tracker_id </text>
<text text-anchor="start" x="394.8394" y="-828.4" font-family="Arial" font-size="14.00" fill="#666666">[int(11)]</text>
<polygon fill="none" stroke="#000000" points="322.5,-787 322.5,-817 1024.5,-817 1024.5,-787 322.5,-787"/>
<text text-anchor="start" x="329.5" y="-798.4" font-family="Arial" font-size="14.00" fill="#000000">old_status_id </text>
<text text-anchor="start" x="415.8632" y="-798.4" font-family="Arial" font-size="14.00" fill="#666666">[int(11)]</text>
<polygon fill="none" stroke="#000000" points="322.5,-757 322.5,-787 1024.5,-787 1024.5,-757 322.5,-757"/>
<text text-anchor="start" x="329.5" y="-768.4" font-family="Arial" font-size="14.00" fill="#000000">new_status_id </text>
<text text-anchor="start" x="422.8632" y="-768.4" font-family="Arial" font-size="14.00" fill="#666666">[int(11)]</text>
<polygon fill="none" stroke="#000000" points="322.5,-727 322.5,-757 1024.5,-757 1024.5,-727 322.5,-727"/>
<text text-anchor="start" x="329.5" y="-738.4" font-family="Arial" font-size="14.00" fill="#000000">role_id </text>
<text text-anchor="start" x="375.3948" y="-738.4" font-family="Arial" font-size="14.00" fill="#666666">[int(11)]</text>
<polygon fill="none" stroke="#000000" points="322.5,-697 322.5,-727 1024.5,-727 1024.5,-697 322.5,-697"/>
<text text-anchor="start" x="329.5" y="-708.4" font-family="Arial" font-size="14.00" fill="#000000">assignee </text>
<text text-anchor="start" x="389.4102" y="-708.4" font-family="Arial" font-size="14.00" fill="#666666">[tinyint(1)]</text>
<polygon fill="none" stroke="#000000" points="322.5,-667 322.5,-697 1024.5,-697 1024.5,-667 322.5,-667"/>
<text text-anchor="start" x="329.5" y="-678.4" font-family="Arial" font-size="14.00" fill="#000000">author </text>
<text text-anchor="start" x="373.0722" y="-678.4" font-family="Arial" font-size="14.00" fill="#666666">[tinyint(1)]</text>
<polygon fill="none" stroke="#000000" points="322.5,-637 322.5,-667 1024.5,-667 1024.5,-637 322.5,-637"/>
<text text-anchor="start" x="329.3205" y="-648.4" font-family="Arial" font-size="14.00" fill="#000000">type </text>
<text text-anchor="start" x="359.6669" y="-648.4" font-family="Arial" font-size="14.00" fill="#666666">[varchar(30)]</text>
<text text-anchor="start" x="439.0035" y="-648.4" font-family="Arial" font-size="14.00" fill="#000000"> WorkflowTransition:ステータスの遷移 WorkflowPermission:フィールドに対する権限 &#160;</text>
<polygon fill="none" stroke="#000000" points="322.5,-607 322.5,-637 1024.5,-637 1024.5,-607 322.5,-607"/>
<text text-anchor="start" x="329.5" y="-618.4" font-family="Arial" font-size="14.00" fill="#000000">field_name </text>
<text text-anchor="start" x="401.8506" y="-618.4" font-family="Arial" font-size="14.00" fill="#666666">[varchar(30)]</text>
<polygon fill="none" stroke="#000000" points="322.5,-577 322.5,-607 1024.5,-607 1024.5,-577 322.5,-577"/>
<text text-anchor="start" x="329.5" y="-588.4" font-family="Arial" font-size="14.00" fill="#000000">rule </text>
<text text-anchor="start" x="356.723" y="-588.4" font-family="Arial" font-size="14.00" fill="#666666">[varchar(30)]</text>
</g>
<!-- workflows&#45;&gt;issue_statuses -->
<g id="edge2" class="edge">
<title>workflows:old_status_id&#45;&gt;issue_statuses:id</title>
<path fill="none" stroke="#000000" stroke-dasharray="5,2" d="M1034.6336,-800.9076C1160.6586,-772.0479 932.5251,-181 788.5,-181"/>
<polygon fill="#000000" stroke="#000000" points="1034.4424,-800.9282 1024.0177,-797.5259 1029.4712,-801.4641 1024.5,-802 1024.5,-802 1024.5,-802 1029.4712,-801.4641 1024.9823,-806.4741 1034.4424,-800.9282 1034.4424,-800.9282"/>
<text text-anchor="start" x="1031.8245" y="-812" font-family="Arial" font-size="10.00" fill="#000000">Additional Relation</text>
</g>
<!-- workflows&#45;&gt;issue_statuses -->
<g id="edge3" class="edge">
<title>workflows:new_status_id&#45;&gt;issue_statuses:id</title>
<path fill="none" stroke="#000000" stroke-dasharray="5,2" d="M1034.5498,-770.8763C1153.9939,-742.3693 926.3267,-181 788.5,-181"/>
<polygon fill="#000000" stroke="#000000" points="1034.4381,-770.8887 1023.9999,-767.5279 1029.469,-771.4444 1024.5,-772 1024.5,-772 1024.5,-772 1029.469,-771.4444 1025.0001,-776.4721 1034.4381,-770.8887 1034.4381,-770.8887"/>
<text text-anchor="start" x="1031.8245" y="-782" font-family="Arial" font-size="10.00" fill="#000000">Additional Relation</text>
</g>
<!-- issues -->
<g id="node4" class="node">
<title>issues</title>
<polygon fill="#efefef" stroke="transparent" points="1129.5,-1087 1129.5,-1133 1430.5,-1133 1430.5,-1087 1129.5,-1087"/>
<polygon fill="none" stroke="#000000" points="1129.5,-1087 1129.5,-1133 1430.5,-1133 1430.5,-1087 1129.5,-1087"/>
<text text-anchor="start" x="1205.8698" y="-1110.8" font-family="Arial Bold" font-size="18.00" fill="#000000">issues</text>
<text text-anchor="start" x="1256.8764" y="-1110.8" font-family="Arial" font-size="14.00" fill="#000000"> </text>
<text text-anchor="start" x="1260.767" y="-1110.8" font-family="Arial" font-size="14.00" fill="#666666">[BASE TABLE]</text>
<text text-anchor="start" x="1252.1344" y="-1096.4" font-family="Arial" font-size="14.00" fill="#333333">チケット</text>
<polygon fill="none" stroke="#000000" points="1129.5,-1057 1129.5,-1087 1430.5,-1087 1430.5,-1057 1129.5,-1057"/>
<text text-anchor="start" x="1136.5" y="-1068.4" font-family="Arial" font-size="14.00" fill="#000000">id </text>
<text text-anchor="start" x="1151.2798" y="-1068.4" font-family="Arial" font-size="14.00" fill="#666666">[int(11)]</text>
<polygon fill="none" stroke="#000000" points="1129.5,-1027 1129.5,-1057 1430.5,-1057 1430.5,-1027 1129.5,-1027"/>
<text text-anchor="start" x="1136.5" y="-1038.4" font-family="Arial" font-size="14.00" fill="#000000">tracker_id </text>
<text text-anchor="start" x="1201.8394" y="-1038.4" font-family="Arial" font-size="14.00" fill="#666666">[int(11)]</text>
<text text-anchor="start" x="1249.2868" y="-1038.4" font-family="Arial" font-size="14.00" fill="#000000"> トラッカーID</text>
<polygon fill="none" stroke="#000000" points="1129.5,-997 1129.5,-1027 1430.5,-1027 1430.5,-997 1129.5,-997"/>
<text text-anchor="start" x="1136.5" y="-1008.4" font-family="Arial" font-size="14.00" fill="#000000">project_id </text>
<text text-anchor="start" x="1201.068" y="-1008.4" font-family="Arial" font-size="14.00" fill="#666666">[int(11)]</text>
<text text-anchor="start" x="1248.5154" y="-1008.4" font-family="Arial" font-size="14.00" fill="#000000"> プロジェクトID</text>
<polygon fill="none" stroke="#000000" points="1129.5,-967 1129.5,-997 1430.5,-997 1430.5,-967 1129.5,-967"/>
<text text-anchor="start" x="1136.5" y="-978.4" font-family="Arial" font-size="14.00" fill="#000000">subject </text>
<text text-anchor="start" x="1184.7356" y="-978.4" font-family="Arial" font-size="14.00" fill="#666666">[varchar(255)]</text>
<text text-anchor="start" x="1271.8548" y="-978.4" font-family="Arial" font-size="14.00" fill="#000000"> 題名</text>
<polygon fill="none" stroke="#000000" points="1129.5,-937 1129.5,-967 1430.5,-967 1430.5,-937 1129.5,-937"/>
<text text-anchor="start" x="1136.5" y="-948.4" font-family="Arial" font-size="14.00" fill="#000000">description </text>
<text text-anchor="start" x="1208.068" y="-948.4" font-family="Arial" font-size="14.00" fill="#666666">[longtext]</text>
<text text-anchor="start" x="1264.8674" y="-948.4" font-family="Arial" font-size="14.00" fill="#000000"> 説明</text>
<polygon fill="none" stroke="#000000" points="1129.5,-907 1129.5,-937 1430.5,-937 1430.5,-907 1129.5,-907"/>
<text text-anchor="start" x="1136.5" y="-918.4" font-family="Arial" font-size="14.00" fill="#000000">due_date </text>
<text text-anchor="start" x="1198.7594" y="-918.4" font-family="Arial" font-size="14.00" fill="#666666">[date]</text>
<text text-anchor="start" x="1233.779" y="-918.4" font-family="Arial" font-size="14.00" fill="#000000"> 期日</text>
<polygon fill="none" stroke="#000000" points="1129.5,-877 1129.5,-907 1430.5,-907 1430.5,-877 1129.5,-877"/>
<text text-anchor="start" x="1136.5" y="-888.4" font-family="Arial" font-size="14.00" fill="#000000">category_id </text>
<text text-anchor="start" x="1212.744" y="-888.4" font-family="Arial" font-size="14.00" fill="#666666">[int(11)]</text>
<text text-anchor="start" x="1260.1914" y="-888.4" font-family="Arial" font-size="14.00" fill="#000000"> カテゴリーID</text>
<polygon fill="none" stroke="#000000" points="1129.5,-847 1129.5,-877 1430.5,-877 1430.5,-847 1129.5,-847"/>
<text text-anchor="start" x="1136.5" y="-858.4" font-family="Arial" font-size="14.00" fill="#000000">status_id </text>
<text text-anchor="start" x="1196.4088" y="-858.4" font-family="Arial" font-size="14.00" fill="#666666">[int(11)]</text>
<text text-anchor="start" x="1243.8562" y="-858.4" font-family="Arial" font-size="14.00" fill="#000000"> ステータスID</text>
<polygon fill="none" stroke="#000000" points="1129.5,-817 1129.5,-847 1430.5,-847 1430.5,-817 1129.5,-817"/>
<text text-anchor="start" x="1136.5" y="-828.4" font-family="Arial" font-size="14.00" fill="#000000">assigned_to_id </text>
<text text-anchor="start" x="1234.5378" y="-828.4" font-family="Arial" font-size="14.00" fill="#666666">[int(11)]</text>
<text text-anchor="start" x="1281.9852" y="-828.4" font-family="Arial" font-size="14.00" fill="#000000"> 担当者ID</text>
<polygon fill="none" stroke="#000000" points="1129.5,-787 1129.5,-817 1430.5,-817 1430.5,-787 1129.5,-787"/>
<text text-anchor="start" x="1136.5" y="-798.4" font-family="Arial" font-size="14.00" fill="#000000">priority_id </text>
<text text-anchor="start" x="1201.0526" y="-798.4" font-family="Arial" font-size="14.00" fill="#666666">[int(11)]</text>
<text text-anchor="start" x="1248.5" y="-798.4" font-family="Arial" font-size="14.00" fill="#000000"> 優先度ID</text>
<polygon fill="none" stroke="#000000" points="1129.5,-757 1129.5,-787 1430.5,-787 1430.5,-757 1129.5,-757"/>
<text text-anchor="start" x="1136.3635" y="-768.4" font-family="Arial" font-size="14.00" fill="#000000">fixed_version_id </text>
<text text-anchor="start" x="1241.3859" y="-768.4" font-family="Arial" font-size="14.00" fill="#666666">[int(11)]</text>
<text text-anchor="start" x="1288.8333" y="-768.4" font-family="Arial" font-size="14.00" fill="#000000"> 対象バージョンID</text>
<polygon fill="none" stroke="#000000" points="1129.5,-727 1129.5,-757 1430.5,-757 1430.5,-727 1129.5,-727"/>
<text text-anchor="start" x="1136.5" y="-738.4" font-family="Arial" font-size="14.00" fill="#000000">author_id </text>
<text text-anchor="start" x="1198.744" y="-738.4" font-family="Arial" font-size="14.00" fill="#666666">[int(11)]</text>
<text text-anchor="start" x="1246.1914" y="-738.4" font-family="Arial" font-size="14.00" fill="#000000"> 登録者ID</text>
<polygon fill="none" stroke="#000000" points="1129.5,-697 1129.5,-727 1430.5,-727 1430.5,-697 1129.5,-697"/>
<text text-anchor="start" x="1136.5" y="-708.4" font-family="Arial" font-size="14.00" fill="#000000">lock_version </text>
<text text-anchor="start" x="1218.1774" y="-708.4" font-family="Arial" font-size="14.00" fill="#666666">[int(11)]</text>
<text text-anchor="start" x="1265.6248" y="-708.4" font-family="Arial" font-size="14.00" fill="#000000"> ロックバージョン</text>
<polygon fill="none" stroke="#000000" points="1129.5,-667 1129.5,-697 1430.5,-697 1430.5,-667 1129.5,-667"/>
<text text-anchor="start" x="1136.5" y="-678.4" font-family="Arial" font-size="14.00" fill="#000000">created_on </text>
<text text-anchor="start" x="1210.42" y="-678.4" font-family="Arial" font-size="14.00" fill="#666666">[timestamp]</text>
<polygon fill="none" stroke="#000000" points="1129.5,-637 1129.5,-667 1430.5,-667 1430.5,-637 1129.5,-637"/>
<text text-anchor="start" x="1136.5" y="-648.4" font-family="Arial" font-size="14.00" fill="#000000">updated_on </text>
<text text-anchor="start" x="1214.3246" y="-648.4" font-family="Arial" font-size="14.00" fill="#666666">[timestamp]</text>
<polygon fill="none" stroke="#000000" points="1129.5,-607 1129.5,-637 1430.5,-637 1430.5,-607 1129.5,-607"/>
<text text-anchor="start" x="1136.5" y="-618.4" font-family="Arial" font-size="14.00" fill="#000000">start_date </text>
<text text-anchor="start" x="1202.636" y="-618.4" font-family="Arial" font-size="14.00" fill="#666666">[date]</text>
<text text-anchor="start" x="1237.6556" y="-618.4" font-family="Arial" font-size="14.00" fill="#000000"> 開始日</text>
<polygon fill="none" stroke="#000000" points="1129.5,-577 1129.5,-607 1430.5,-607 1430.5,-577 1129.5,-577"/>
<text text-anchor="start" x="1136.5" y="-588.4" font-family="Arial" font-size="14.00" fill="#000000">done_ratio </text>
<text text-anchor="start" x="1206.5266" y="-588.4" font-family="Arial" font-size="14.00" fill="#666666">[int(11)]</text>
<text text-anchor="start" x="1253.974" y="-588.4" font-family="Arial" font-size="14.00" fill="#000000"> 進捗率</text>
<polygon fill="none" stroke="#000000" points="1129.5,-547 1129.5,-577 1430.5,-577 1430.5,-547 1129.5,-547"/>
<text text-anchor="start" x="1136.5" y="-558.4" font-family="Arial" font-size="14.00" fill="#000000">estimated_hours </text>
<text text-anchor="start" x="1243.8604" y="-558.4" font-family="Arial" font-size="14.00" fill="#666666">[float]</text>
<text text-anchor="start" x="1278.0946" y="-558.4" font-family="Arial" font-size="14.00" fill="#000000"> 予定工数</text>
<polygon fill="none" stroke="#000000" points="1129.5,-517 1129.5,-547 1430.5,-547 1430.5,-517 1129.5,-517"/>
<text text-anchor="start" x="1136.5" y="-528.4" font-family="Arial" font-size="14.00" fill="#000000">parent_id </text>
<text text-anchor="start" x="1198.744" y="-528.4" font-family="Arial" font-size="14.00" fill="#666666">[int(11)]</text>
<text text-anchor="start" x="1246.1914" y="-528.4" font-family="Arial" font-size="14.00" fill="#000000"> 親チケット</text>
<polygon fill="none" stroke="#000000" points="1129.5,-487 1129.5,-517 1430.5,-517 1430.5,-487 1129.5,-487"/>
<text text-anchor="start" x="1136.5" y="-498.4" font-family="Arial" font-size="14.00" fill="#000000">root_id </text>
<text text-anchor="start" x="1183.1788" y="-498.4" font-family="Arial" font-size="14.00" fill="#666666">[int(11)]</text>
<text text-anchor="start" x="1230.6262" y="-498.4" font-family="Arial" font-size="14.00" fill="#000000"> ルートID</text>
<polygon fill="none" stroke="#000000" points="1129.5,-457 1129.5,-487 1430.5,-487 1430.5,-457 1129.5,-457"/>
<text text-anchor="start" x="1136.5" y="-468.4" font-family="Arial" font-size="14.00" fill="#000000">lft </text>
<text text-anchor="start" x="1151.2784" y="-468.4" font-family="Arial" font-size="14.00" fill="#666666">[int(11)]</text>
<text text-anchor="start" x="1198.7258" y="-468.4" font-family="Arial" font-size="14.00" fill="#000000"> 左ノードポインタ</text>
<polygon fill="none" stroke="#000000" points="1129.5,-427 1129.5,-457 1430.5,-457 1430.5,-427 1129.5,-427"/>
<text text-anchor="start" x="1136.5" y="-438.4" font-family="Arial" font-size="14.00" fill="#000000">rgt </text>
<text text-anchor="start" x="1156.7244" y="-438.4" font-family="Arial" font-size="14.00" fill="#666666">[int(11)]</text>
<text text-anchor="start" x="1204.1718" y="-438.4" font-family="Arial" font-size="14.00" fill="#000000"> 右ノードポインタ</text>
<polygon fill="none" stroke="#000000" points="1129.5,-397 1129.5,-427 1430.5,-427 1430.5,-397 1129.5,-397"/>
<text text-anchor="start" x="1136.5" y="-408.4" font-family="Arial" font-size="14.00" fill="#000000">is_private </text>
<text text-anchor="start" x="1200.2854" y="-408.4" font-family="Arial" font-size="14.00" fill="#666666">[tinyint(1)]</text>
<text text-anchor="start" x="1261.73" y="-408.4" font-family="Arial" font-size="14.00" fill="#000000"> プライベート</text>
<polygon fill="none" stroke="#000000" points="1129.5,-367 1129.5,-397 1430.5,-397 1430.5,-367 1129.5,-367"/>
<text text-anchor="start" x="1136.5" y="-378.4" font-family="Arial" font-size="14.00" fill="#000000">closed_on </text>
<text text-anchor="start" x="1204.1928" y="-378.4" font-family="Arial" font-size="14.00" fill="#666666">[datetime]</text>
<text text-anchor="start" x="1265.6528" y="-378.4" font-family="Arial" font-size="14.00" fill="#000000"> 完了日時</text>
</g>
<!-- issues&#45;&gt;issue_statuses -->
<g id="edge4" class="edge">
<title>issues:status_id&#45;&gt;issue_statuses:id</title>
<path fill="none" stroke="#000000" stroke-dasharray="5,2" d="M1119.2791,-860.8143C1017.3753,-835.7242 1142.6695,-419.8814 1076.5,-324 995.3283,-206.38 931.4101,-181 788.5,-181"/>
<polygon fill="#000000" stroke="#000000" points="1119.5666,-860.8475 1128.9814,-866.47 1124.5333,-861.4238 1129.5,-862 1129.5,-862 1129.5,-862 1124.5333,-861.4238 1130.0186,-857.53 1119.5666,-860.8475 1119.5666,-860.8475"/>
<text text-anchor="start" x="1039.8245" y="-872" font-family="Arial" font-size="10.00" fill="#000000">Additional Relation</text>
</g>
</g>
</svg>
