<?xml version="1.0" encoding="UTF-8" standalone="no"?>
<!DOCTYPE svg PUBLIC "-//W3C//DTD SVG 1.1//EN"
 "http://www.w3.org/Graphics/SVG/1.1/DTD/svg11.dtd">
<!-- Generated by graphviz version 2.40.1 (20161225.0304)
 -->
<!-- Title: issues Pages: 1 -->
<svg width="2764pt" height="1982pt"
 viewBox="0.00 0.00 2764.00 1982.00" xmlns="http://www.w3.org/2000/svg" xmlns:xlink="http://www.w3.org/1999/xlink">
<g id="graph0" class="graph" transform="scale(1 1) rotate(0) translate(4 1978)">
<title>issues</title>
<polygon fill="#ffffff" stroke="transparent" points="-4,4 -4,-1978 2760,-1978 2760,4 -4,4"/>
<!-- issues -->
<g id="node1" class="node">
<title>issues</title>
<polygon fill="#efefef" stroke="transparent" points="949.5,-1564 949.5,-1610 1250.5,-1610 1250.5,-1564 949.5,-1564"/>
<polygon fill="none" stroke="#000000" points="949.5,-1564 949.5,-1610 1250.5,-1610 1250.5,-1564 949.5,-1564"/>
<text text-anchor="start" x="1025.8698" y="-1587.8" font-family="Arial Bold" font-size="18.00" fill="#000000">issues</text>
<text text-anchor="start" x="1076.8764" y="-1587.8" font-family="Arial" font-size="14.00" fill="#000000"> </text>
<text text-anchor="start" x="1080.767" y="-1587.8" font-family="Arial" font-size="14.00" fill="#666666">[BASE TABLE]</text>
<text text-anchor="start" x="1072.1344" y="-1573.4" font-family="Arial" font-size="14.00" fill="#333333">チケット</text>
<polygon fill="none" stroke="#000000" points="949.5,-1534 949.5,-1564 1250.5,-1564 1250.5,-1534 949.5,-1534"/>
<text text-anchor="start" x="956.5" y="-1545.4" font-family="Arial" font-size="14.00" fill="#000000">id </text>
<text text-anchor="start" x="971.2798" y="-1545.4" font-family="Arial" font-size="14.00" fill="#666666">[int(11)]</text>
<polygon fill="none" stroke="#000000" points="949.5,-1504 949.5,-1534 1250.5,-1534 1250.5,-1504 949.5,-1504"/>
<text text-anchor="start" x="956.5" y="-1515.4" font-family="Arial" font-size="14.00" fill="#000000">tracker_id </text>
<text text-anchor="start" x="1021.8394" y="-1515.4" font-family="Arial" font-size="14.00" fill="#666666">[int(11)]</text>
<text text-anchor="start" x="1069.2868" y="-1515.4" font-family="Arial" font-size="14.00" fill="#000000"> トラッカーID</text>
<polygon fill="none" stroke="#000000" points="949.5,-1474 949.5,-1504 1250.5,-1504 1250.5,-1474 949.5,-1474"/>
<text text-anchor="start" x="956.5" y="-1485.4" font-family="Arial" font-size="14.00" fill="#000000">project_id </text>
<text text-anchor="start" x="1021.068" y="-1485.4" font-family="Arial" font-size="14.00" fill="#666666">[int(11)]</text>
<text text-anchor="start" x="1068.5154" y="-1485.4" font-family="Arial" font-size="14.00" fill="#000000"> プロジェクトID</text>
<polygon fill="none" stroke="#000000" points="949.5,-1444 949.5,-1474 1250.5,-1474 1250.5,-1444 949.5,-1444"/>
<text text-anchor="start" x="956.5" y="-1455.4" font-family="Arial" font-size="14.00" fill="#000000">subject </text>
<text text-anchor="start" x="1004.7356" y="-1455.4" font-family="Arial" font-size="14.00" fill="#666666">[varchar(255)]</text>
<text text-anchor="start" x="1091.8548" y="-1455.4" font-family="Arial" font-size="14.00" fill="#000000"> 題名</text>
<polygon fill="none" stroke="#000000" points="949.5,-1414 949.5,-1444 1250.5,-1444 1250.5,-1414 949.5,-1414"/>
<text text-anchor="start" x="956.5" y="-1425.4" font-family="Arial" font-size="14.00" fill="#000000">description </text>
<text text-anchor="start" x="1028.068" y="-1425.4" font-family="Arial" font-size="14.00" fill="#666666">[longtext]</text>
<text text-anchor="start" x="1084.8674" y="-1425.4" font-family="Arial" font-size="14.00" fill="#000000"> 説明</text>
<polygon fill="none" stroke="#000000" points="949.5,-1384 949.5,-1414 1250.5,-1414 1250.5,-1384 949.5,-1384"/>
<text text-anchor="start" x="956.5" y="-1395.4" font-family="Arial" font-size="14.00" fill="#000000">due_date </text>
<text text-anchor="start" x="1018.7594" y="-1395.4" font-family="Arial" font-size="14.00" fill="#666666">[date]</text>
<text text-anchor="start" x="1053.779" y="-1395.4" font-family="Arial" font-size="14.00" fill="#000000"> 期日</text>
<polygon fill="none" stroke="#000000" points="949.5,-1354 949.5,-1384 1250.5,-1384 1250.5,-1354 949.5,-1354"/>
<text text-anchor="start" x="956.5" y="-1365.4" font-family="Arial" font-size="14.00" fill="#000000">category_id </text>
<text text-anchor="start" x="1032.744" y="-1365.4" font-family="Arial" font-size="14.00" fill="#666666">[int(11)]</text>
<text text-anchor="start" x="1080.1914" y="-1365.4" font-family="Arial" font-size="14.00" fill="#000000"> カテゴリーID</text>
<polygon fill="none" stroke="#000000" points="949.5,-1324 949.5,-1354 1250.5,-1354 1250.5,-1324 949.5,-1324"/>
<text text-anchor="start" x="956.5" y="-1335.4" font-family="Arial" font-size="14.00" fill="#000000">status_id </text>
<text text-anchor="start" x="1016.4088" y="-1335.4" font-family="Arial" font-size="14.00" fill="#666666">[int(11)]</text>
<text text-anchor="start" x="1063.8562" y="-1335.4" font-family="Arial" font-size="14.00" fill="#000000"> ステータスID</text>
<polygon fill="none" stroke="#000000" points="949.5,-1294 949.5,-1324 1250.5,-1324 1250.5,-1294 949.5,-1294"/>
<text text-anchor="start" x="956.5" y="-1305.4" font-family="Arial" font-size="14.00" fill="#000000">assigned_to_id </text>
<text text-anchor="start" x="1054.5378" y="-1305.4" font-family="Arial" font-size="14.00" fill="#666666">[int(11)]</text>
<text text-anchor="start" x="1101.9852" y="-1305.4" font-family="Arial" font-size="14.00" fill="#000000"> 担当者ID</text>
<polygon fill="none" stroke="#000000" points="949.5,-1264 949.5,-1294 1250.5,-1294 1250.5,-1264 949.5,-1264"/>
<text text-anchor="start" x="956.5" y="-1275.4" font-family="Arial" font-size="14.00" fill="#000000">priority_id </text>
<text text-anchor="start" x="1021.0526" y="-1275.4" font-family="Arial" font-size="14.00" fill="#666666">[int(11)]</text>
<text text-anchor="start" x="1068.5" y="-1275.4" font-family="Arial" font-size="14.00" fill="#000000"> 優先度ID</text>
<polygon fill="none" stroke="#000000" points="949.5,-1234 949.5,-1264 1250.5,-1264 1250.5,-1234 949.5,-1234"/>
<text text-anchor="start" x="956.3635" y="-1245.4" font-family="Arial" font-size="14.00" fill="#000000">fixed_version_id </text>
<text text-anchor="start" x="1061.3859" y="-1245.4" font-family="Arial" font-size="14.00" fill="#666666">[int(11)]</text>
<text text-anchor="start" x="1108.8333" y="-1245.4" font-family="Arial" font-size="14.00" fill="#000000"> 対象バージョンID</text>
<polygon fill="none" stroke="#000000" points="949.5,-1204 949.5,-1234 1250.5,-1234 1250.5,-1204 949.5,-1204"/>
<text text-anchor="start" x="956.5" y="-1215.4" font-family="Arial" font-size="14.00" fill="#000000">author_id </text>
<text text-anchor="start" x="1018.744" y="-1215.4" font-family="Arial" font-size="14.00" fill="#666666">[int(11)]</text>
<text text-anchor="start" x="1066.1914" y="-1215.4" font-family="Arial" font-size="14.00" fill="#000000"> 登録者ID</text>
<polygon fill="none" stroke="#000000" points="949.5,-1174 949.5,-1204 1250.5,-1204 1250.5,-1174 949.5,-1174"/>
<text text-anchor="start" x="956.5" y="-1185.4" font-family="Arial" font-size="14.00" fill="#000000">lock_version </text>
<text text-anchor="start" x="1038.1774" y="-1185.4" font-family="Arial" font-size="14.00" fill="#666666">[int(11)]</text>
<text text-anchor="start" x="1085.6248" y="-1185.4" font-family="Arial" font-size="14.00" fill="#000000"> ロックバージョン</text>
<polygon fill="none" stroke="#000000" points="949.5,-1144 949.5,-1174 1250.5,-1174 1250.5,-1144 949.5,-1144"/>
<text text-anchor="start" x="956.5" y="-1155.4" font-family="Arial" font-size="14.00" fill="#000000">created_on </text>
<text text-anchor="start" x="1030.42" y="-1155.4" font-family="Arial" font-size="14.00" fill="#666666">[timestamp]</text>
<polygon fill="none" stroke="#000000" points="949.5,-1114 949.5,-1144 1250.5,-1144 1250.5,-1114 949.5,-1114"/>
<text text-anchor="start" x="956.5" y="-1125.4" font-family="Arial" font-size="14.00" fill="#000000">updated_on </text>
<text text-anchor="start" x="1034.3246" y="-1125.4" font-family="Arial" font-size="14.00" fill="#666666">[timestamp]</text>
<polygon fill="none" stroke="#000000" points="949.5,-1084 949.5,-1114 1250.5,-1114 1250.5,-1084 949.5,-1084"/>
<text text-anchor="start" x="956.5" y="-1095.4" font-family="Arial" font-size="14.00" fill="#000000">start_date </text>
<text text-anchor="start" x="1022.636" y="-1095.4" font-family="Arial" font-size="14.00" fill="#666666">[date]</text>
<text text-anchor="start" x="1057.6556" y="-1095.4" font-family="Arial" font-size="14.00" fill="#000000"> 開始日</text>
<polygon fill="none" stroke="#000000" points="949.5,-1054 949.5,-1084 1250.5,-1084 1250.5,-1054 949.5,-1054"/>
<text text-anchor="start" x="956.5" y="-1065.4" font-family="Arial" font-size="14.00" fill="#000000">done_ratio </text>
<text text-anchor="start" x="1026.5266" y="-1065.4" font-family="Arial" font-size="14.00" fill="#666666">[int(11)]</text>
<text text-anchor="start" x="1073.974" y="-1065.4" font-family="Arial" font-size="14.00" fill="#000000"> 進捗率</text>
<polygon fill="none" stroke="#000000" points="949.5,-1024 949.5,-1054 1250.5,-1054 1250.5,-1024 949.5,-1024"/>
<text text-anchor="start" x="956.5" y="-1035.4" font-family="Arial" font-size="14.00" fill="#000000">estimated_hours </text>
<text text-anchor="start" x="1063.8604" y="-1035.4" font-family="Arial" font-size="14.00" fill="#666666">[float]</text>
<text text-anchor="start" x="1098.0946" y="-1035.4" font-family="Arial" font-size="14.00" fill="#000000"> 予定工数</text>
<polygon fill="none" stroke="#000000" points="949.5,-994 949.5,-1024 1250.5,-1024 1250.5,-994 949.5,-994"/>
<text text-anchor="start" x="956.5" y="-1005.4" font-family="Arial" font-size="14.00" fill="#000000">parent_id </text>
<text text-anchor="start" x="1018.744" y="-1005.4" font-family="Arial" font-size="14.00" fill="#666666">[int(11)]</text>
<text text-anchor="start" x="1066.1914" y="-1005.4" font-family="Arial" font-size="14.00" fill="#000000"> 親チケット</text>
<polygon fill="none" stroke="#000000" points="949.5,-964 949.5,-994 1250.5,-994 1250.5,-964 949.5,-964"/>
<text text-anchor="start" x="956.5" y="-975.4" font-family="Arial" font-size="14.00" fill="#000000">root_id </text>
<text text-anchor="start" x="1003.1788" y="-975.4" font-family="Arial" font-size="14.00" fill="#666666">[int(11)]</text>
<text text-anchor="start" x="1050.6262" y="-975.4" font-family="Arial" font-size="14.00" fill="#000000"> ルートID</text>
<polygon fill="none" stroke="#000000" points="949.5,-934 949.5,-964 1250.5,-964 1250.5,-934 949.5,-934"/>
<text text-anchor="start" x="956.5" y="-945.4" font-family="Arial" font-size="14.00" fill="#000000">lft </text>
<text text-anchor="start" x="971.2784" y="-945.4" font-family="Arial" font-size="14.00" fill="#666666">[int(11)]</text>
<text text-anchor="start" x="1018.7258" y="-945.4" font-family="Arial" font-size="14.00" fill="#000000"> 左ノードポインタ</text>
<polygon fill="none" stroke="#000000" points="949.5,-904 949.5,-934 1250.5,-934 1250.5,-904 949.5,-904"/>
<text text-anchor="start" x="956.5" y="-915.4" font-family="Arial" font-size="14.00" fill="#000000">rgt </text>
<text text-anchor="start" x="976.7244" y="-915.4" font-family="Arial" font-size="14.00" fill="#666666">[int(11)]</text>
<text text-anchor="start" x="1024.1718" y="-915.4" font-family="Arial" font-size="14.00" fill="#000000"> 右ノードポインタ</text>
<polygon fill="none" stroke="#000000" points="949.5,-874 949.5,-904 1250.5,-904 1250.5,-874 949.5,-874"/>
<text text-anchor="start" x="956.5" y="-885.4" font-family="Arial" font-size="14.00" fill="#000000">is_private </text>
<text text-anchor="start" x="1020.2854" y="-885.4" font-family="Arial" font-size="14.00" fill="#666666">[tinyint(1)]</text>
<text text-anchor="start" x="1081.73" y="-885.4" font-family="Arial" font-size="14.00" fill="#000000"> プライベート</text>
<polygon fill="none" stroke="#000000" points="949.5,-844 949.5,-874 1250.5,-874 1250.5,-844 949.5,-844"/>
<text text-anchor="start" x="956.5" y="-855.4" font-family="Arial" font-size="14.00" fill="#000000">closed_on </text>
<text text-anchor="start" x="1024.1928" y="-855.4" font-family="Arial" font-size="14.00" fill="#666666">[datetime]</text>
<text text-anchor="start" x="1085.6528" y="-855.4" font-family="Arial" font-size="14.00" fill="#000000"> 完了日時</text>
<polygon fill="none" stroke="#000000" stroke-width="3" points="947.5,-842.5 947.5,-1611.5 1251.5,-1611.5 1251.5,-842.5 947.5,-842.5"/>
</g>
<!-- issues&#45;&gt;issues -->
<g id="edge1" class="edge">
<title>issues:parent_id&#45;&gt;issues:id</title>
<path fill="none" stroke="#000000" stroke-dasharray="5,2" d="M1101.3601,-1034.5735C1109.4902,-1298.7441 1109.2035,-1959 1100.5,-1959 1091.7197,-1959 1091.5054,-1766.7429 1099.8569,-1564.2208"/>
<polygon fill="#000000" stroke="#000000" points="1101.3481,-1034.1953 1105.5274,-1024.0571 1101.1889,-1029.1979 1101.0297,-1024.2004 1101.0297,-1024.2004 1101.0297,-1024.2004 1101.1889,-1029.1979 1096.532,-1024.3437 1101.3481,-1034.1953 1101.3481,-1034.1953"/>
<text text-anchor="start" x="1011.3542" y="-1034.2004" font-family="Arial" font-size="10.00" fill="#000000">Additional Relation</text>
</g>
<!-- issues&#45;&gt;issues -->
<g id="edge2" class="edge">
<title>issues:root_id&#45;&gt;issues:id</title>
<path fill="none" stroke="#000000" stroke-dasharray="5,2" d="M1101.348,-1004.2745C1109.4905,-1270.0066 1109.2079,-1959 1100.5,-1959 1091.7197,-1959 1091.5054,-1766.7429 1099.8569,-1564.2208"/>
<polygon fill="#000000" stroke="#000000" points="1101.3467,-1004.231 1105.5274,-994.0933 1101.1882,-999.2335 1101.0297,-994.236 1101.0297,-994.236 1101.0297,-994.236 1101.1882,-999.2335 1096.532,-994.3786 1101.3467,-1004.231 1101.3467,-1004.231"/>
<text text-anchor="start" x="1011.3542" y="-1004.236" font-family="Arial" font-size="10.00" fill="#000000">Additional Relation</text>
</g>
<!-- trackers -->
<g id="node3" class="node">
<title>trackers</title>
<polygon fill="#efefef" stroke="transparent" points="43.5,-478 43.5,-524 218.5,-524 218.5,-478 43.5,-478"/>
<polygon fill="none" stroke="#000000" points="43.5,-478 43.5,-524 218.5,-524 218.5,-478 43.5,-478"/>
<text text-anchor="start" x="50.3736" y="-501.8" font-family="Arial Bold" font-size="18.00" fill="#000000">trackers</text>
<text text-anchor="start" x="114.3726" y="-501.8" font-family="Arial" font-size="14.00" fill="#000000"> </text>
<text text-anchor="start" x="118.2632" y="-501.8" font-family="Arial" font-size="14.00" fill="#666666">[BASE TABLE]</text>
<text text-anchor="start" x="92.2088" y="-487.4" font-family="Arial" font-size="14.00" fill="#333333">トラッカー</text>
<polygon fill="none" stroke="#000000" points="43.5,-448 43.5,-478 218.5,-478 218.5,-448 43.5,-448"/>
<text text-anchor="start" x="50.5" y="-459.4" font-family="Arial" font-size="14.00" fill="#000000">id </text>
<text text-anchor="start" x="65.2798" y="-459.4" font-family="Arial" font-size="14.00" fill="#666666">[int(11)]</text>
<polygon fill="none" stroke="#000000" points="43.5,-418 43.5,-448 218.5,-448 218.5,-418 43.5,-418"/>
<text text-anchor="start" x="50.5" y="-429.4" font-family="Arial" font-size="14.00" fill="#000000">name </text>
<text text-anchor="start" x="89.399" y="-429.4" font-family="Arial" font-size="14.00" fill="#666666">[varchar(30)]</text>
<polygon fill="none" stroke="#000000" points="43.5,-388 43.5,-418 218.5,-418 218.5,-388 43.5,-388"/>
<text text-anchor="start" x="50.5" y="-399.4" font-family="Arial" font-size="14.00" fill="#000000">description </text>
<text text-anchor="start" x="122.068" y="-399.4" font-family="Arial" font-size="14.00" fill="#666666">[varchar(255)]</text>
<polygon fill="none" stroke="#000000" points="43.5,-358 43.5,-388 218.5,-388 218.5,-358 43.5,-358"/>
<text text-anchor="start" x="50.5" y="-369.4" font-family="Arial" font-size="14.00" fill="#000000">is_in_chlog </text>
<text text-anchor="start" x="124.406" y="-369.4" font-family="Arial" font-size="14.00" fill="#666666">[tinyint(1)]</text>
<polygon fill="none" stroke="#000000" points="43.5,-328 43.5,-358 218.5,-358 218.5,-328 43.5,-328"/>
<text text-anchor="start" x="50.5" y="-339.4" font-family="Arial" font-size="14.00" fill="#000000">position </text>
<text text-anchor="start" x="102.6248" y="-339.4" font-family="Arial" font-size="14.00" fill="#666666">[int(11)]</text>
<polygon fill="none" stroke="#000000" points="43.5,-298 43.5,-328 218.5,-328 218.5,-298 43.5,-298"/>
<text text-anchor="start" x="50.5" y="-309.4" font-family="Arial" font-size="14.00" fill="#000000">is_in_roadmap </text>
<text text-anchor="start" x="146.1858" y="-309.4" font-family="Arial" font-size="14.00" fill="#666666">[tinyint(1)]</text>
<polygon fill="none" stroke="#000000" points="43.5,-268 43.5,-298 218.5,-298 218.5,-268 43.5,-268"/>
<text text-anchor="start" x="50.5" y="-279.4" font-family="Arial" font-size="14.00" fill="#000000">fields_bits </text>
<text text-anchor="start" x="116.622" y="-279.4" font-family="Arial" font-size="14.00" fill="#666666">[int(11)]</text>
<polygon fill="none" stroke="#000000" points="43.5,-238 43.5,-268 218.5,-268 218.5,-238 43.5,-238"/>
<text text-anchor="start" x="50.5" y="-249.4" font-family="Arial" font-size="14.00" fill="#000000">default_status_id </text>
<text text-anchor="start" x="160.2096" y="-249.4" font-family="Arial" font-size="14.00" fill="#666666">[int(11)]</text>
</g>
<!-- issues&#45;&gt;trackers -->
<g id="edge5" class="edge">
<title>issues:tracker_id&#45;&gt;trackers:id</title>
<path fill="none" stroke="#000000" stroke-dasharray="5,2" d="M939.3037,-1518.94C496.7699,-1513.7011 464.8891,-1166.0693 269.5,-762 240.157,-701.3181 285.9041,-463 218.5,-463"/>
<polygon fill="#000000" stroke="#000000" points="939.5002,-1518.9411 949.4735,-1523.4999 944.5001,-1518.9705 949.5,-1519 949.5,-1519 949.5,-1519 944.5001,-1518.9705 949.5265,-1514.5001 939.5002,-1518.9411 939.5002,-1518.9411"/>
<text text-anchor="start" x="859.8245" y="-1529" font-family="Arial" font-size="10.00" fill="#000000">Additional Relation</text>
</g>
<!-- projects -->
<g id="node4" class="node">
<title>projects</title>
<polygon fill="#efefef" stroke="transparent" points="322.5,-583 322.5,-629 531.5,-629 531.5,-583 322.5,-583"/>
<polygon fill="none" stroke="#000000" points="322.5,-583 322.5,-629 531.5,-629 531.5,-583 322.5,-583"/>
<text text-anchor="start" x="346.8695" y="-606.8" font-family="Arial Bold" font-size="18.00" fill="#000000">projects</text>
<text text-anchor="start" x="409.8767" y="-606.8" font-family="Arial" font-size="14.00" fill="#000000"> </text>
<text text-anchor="start" x="413.7673" y="-606.8" font-family="Arial" font-size="14.00" fill="#666666">[BASE TABLE]</text>
<text text-anchor="start" x="384.6269" y="-592.4" font-family="Arial" font-size="14.00" fill="#333333">プロジェクト</text>
<polygon fill="none" stroke="#000000" points="322.5,-553 322.5,-583 531.5,-583 531.5,-553 322.5,-553"/>
<text text-anchor="start" x="329.5" y="-564.4" font-family="Arial" font-size="14.00" fill="#000000">id </text>
<text text-anchor="start" x="344.2798" y="-564.4" font-family="Arial" font-size="14.00" fill="#666666">[int(11)]</text>
<polygon fill="none" stroke="#000000" points="322.5,-523 322.5,-553 531.5,-553 531.5,-523 322.5,-523"/>
<text text-anchor="start" x="329.5" y="-534.4" font-family="Arial" font-size="14.00" fill="#000000">name </text>
<text text-anchor="start" x="368.399" y="-534.4" font-family="Arial" font-size="14.00" fill="#666666">[varchar(255)]</text>
<polygon fill="none" stroke="#000000" points="322.5,-493 322.5,-523 531.5,-523 531.5,-493 322.5,-493"/>
<text text-anchor="start" x="329.5" y="-504.4" font-family="Arial" font-size="14.00" fill="#000000">description </text>
<text text-anchor="start" x="401.068" y="-504.4" font-family="Arial" font-size="14.00" fill="#666666">[text]</text>
<polygon fill="none" stroke="#000000" points="322.5,-463 322.5,-493 531.5,-493 531.5,-463 322.5,-463"/>
<text text-anchor="start" x="329.5" y="-474.4" font-family="Arial" font-size="14.00" fill="#000000">homepage </text>
<text text-anchor="start" x="399.5294" y="-474.4" font-family="Arial" font-size="14.00" fill="#666666">[varchar(255)]</text>
<polygon fill="none" stroke="#000000" points="322.5,-433 322.5,-463 531.5,-463 531.5,-433 322.5,-433"/>
<text text-anchor="start" x="329.5" y="-444.4" font-family="Arial" font-size="14.00" fill="#000000">is_public </text>
<text text-anchor="start" x="387.8408" y="-444.4" font-family="Arial" font-size="14.00" fill="#666666">[tinyint(1)]</text>
<polygon fill="none" stroke="#000000" points="322.5,-403 322.5,-433 531.5,-433 531.5,-403 322.5,-403"/>
<text text-anchor="start" x="329.5" y="-414.4" font-family="Arial" font-size="14.00" fill="#000000">parent_id </text>
<text text-anchor="start" x="391.744" y="-414.4" font-family="Arial" font-size="14.00" fill="#666666">[int(11)]</text>
<polygon fill="none" stroke="#000000" points="322.5,-373 322.5,-403 531.5,-403 531.5,-373 322.5,-373"/>
<text text-anchor="start" x="329.5" y="-384.4" font-family="Arial" font-size="14.00" fill="#000000">created_on </text>
<text text-anchor="start" x="403.42" y="-384.4" font-family="Arial" font-size="14.00" fill="#666666">[timestamp]</text>
<polygon fill="none" stroke="#000000" points="322.5,-343 322.5,-373 531.5,-373 531.5,-343 322.5,-343"/>
<text text-anchor="start" x="329.5" y="-354.4" font-family="Arial" font-size="14.00" fill="#000000">updated_on </text>
<text text-anchor="start" x="407.3246" y="-354.4" font-family="Arial" font-size="14.00" fill="#666666">[timestamp]</text>
<polygon fill="none" stroke="#000000" points="322.5,-313 322.5,-343 531.5,-343 531.5,-313 322.5,-313"/>
<text text-anchor="start" x="329.5" y="-324.4" font-family="Arial" font-size="14.00" fill="#000000">identifier </text>
<text text-anchor="start" x="386.2826" y="-324.4" font-family="Arial" font-size="14.00" fill="#666666">[varchar(255)]</text>
<polygon fill="none" stroke="#000000" points="322.5,-283 322.5,-313 531.5,-313 531.5,-283 322.5,-283"/>
<text text-anchor="start" x="329.5" y="-294.4" font-family="Arial" font-size="14.00" fill="#000000">status </text>
<text text-anchor="start" x="370.737" y="-294.4" font-family="Arial" font-size="14.00" fill="#666666">[int(11)]</text>
<polygon fill="none" stroke="#000000" points="322.5,-253 322.5,-283 531.5,-283 531.5,-253 322.5,-253"/>
<text text-anchor="start" x="329.5" y="-264.4" font-family="Arial" font-size="14.00" fill="#000000">lft </text>
<text text-anchor="start" x="344.2784" y="-264.4" font-family="Arial" font-size="14.00" fill="#666666">[int(11)]</text>
<polygon fill="none" stroke="#000000" points="322.5,-223 322.5,-253 531.5,-253 531.5,-223 322.5,-223"/>
<text text-anchor="start" x="329.5" y="-234.4" font-family="Arial" font-size="14.00" fill="#000000">rgt </text>
<text text-anchor="start" x="349.7244" y="-234.4" font-family="Arial" font-size="14.00" fill="#666666">[int(11)]</text>
<polygon fill="none" stroke="#000000" points="322.5,-193 322.5,-223 531.5,-223 531.5,-193 322.5,-193"/>
<text text-anchor="start" x="329.5" y="-204.4" font-family="Arial" font-size="14.00" fill="#000000">inherit_members </text>
<text text-anchor="start" x="437.615" y="-204.4" font-family="Arial" font-size="14.00" fill="#666666">[tinyint(1)]</text>
<polygon fill="none" stroke="#000000" points="322.5,-163 322.5,-193 531.5,-193 531.5,-163 322.5,-163"/>
<text text-anchor="start" x="329.5" y="-174.4" font-family="Arial" font-size="14.00" fill="#000000">default_version_id </text>
<text text-anchor="start" x="446.9782" y="-174.4" font-family="Arial" font-size="14.00" fill="#666666">[int(11)]</text>
<polygon fill="none" stroke="#000000" points="322.5,-133 322.5,-163 531.5,-163 531.5,-133 322.5,-133"/>
<text text-anchor="start" x="329.357" y="-144.4" font-family="Arial" font-size="14.00" fill="#000000">default_assigned_to_id </text>
<text text-anchor="start" x="477.1956" y="-144.4" font-family="Arial" font-size="14.00" fill="#666666">[int(11)]</text>
</g>
<!-- issues&#45;&gt;projects -->
<g id="edge6" class="edge">
<title>issues:project_id&#45;&gt;projects:id</title>
<path fill="none" stroke="#000000" stroke-dasharray="5,2" d="M939.2985,-1488.8946C590.102,-1481.5974 711.1082,-1096.8093 583.5,-762 551.7083,-678.5873 620.7659,-568 531.5,-568"/>
<polygon fill="#000000" stroke="#000000" points="939.5005,-1488.8966 949.4535,-1493.4998 944.5003,-1488.9483 949.5,-1489 949.5,-1489 949.5,-1489 944.5003,-1488.9483 949.5465,-1484.5002 939.5005,-1488.8966 939.5005,-1488.8966"/>
<text text-anchor="start" x="859.8245" y="-1499" font-family="Arial" font-size="10.00" fill="#000000">Additional Relation</text>
</g>
<!-- issue_categories -->
<g id="node5" class="node">
<title>issue_categories</title>
<polygon fill="#efefef" stroke="transparent" points="635.5,-418 635.5,-464 881.5,-464 881.5,-418 635.5,-418"/>
<polygon fill="none" stroke="#000000" points="635.5,-418 635.5,-464 881.5,-464 881.5,-418 635.5,-418"/>
<text text-anchor="start" x="642.3569" y="-441.8" font-family="Arial Bold" font-size="18.00" fill="#000000">issue_categories</text>
<text text-anchor="start" x="777.3893" y="-441.8" font-family="Arial" font-size="14.00" fill="#000000"> </text>
<text text-anchor="start" x="781.2799" y="-441.8" font-family="Arial" font-size="14.00" fill="#666666">[BASE TABLE]</text>
<text text-anchor="start" x="718.7148" y="-427.4" font-family="Arial" font-size="14.00" fill="#333333">カテゴリー</text>
<polygon fill="none" stroke="#000000" points="635.5,-388 635.5,-418 881.5,-418 881.5,-388 635.5,-388"/>
<text text-anchor="start" x="642.5" y="-399.4" font-family="Arial" font-size="14.00" fill="#000000">id </text>
<text text-anchor="start" x="657.2798" y="-399.4" font-family="Arial" font-size="14.00" fill="#666666">[int(11)]</text>
<polygon fill="none" stroke="#000000" points="635.5,-358 635.5,-388 881.5,-388 881.5,-358 635.5,-358"/>
<text text-anchor="start" x="642.5" y="-369.4" font-family="Arial" font-size="14.00" fill="#000000">project_id </text>
<text text-anchor="start" x="707.068" y="-369.4" font-family="Arial" font-size="14.00" fill="#666666">[int(11)]</text>
<polygon fill="none" stroke="#000000" points="635.5,-328 635.5,-358 881.5,-358 881.5,-328 635.5,-328"/>
<text text-anchor="start" x="642.5" y="-339.4" font-family="Arial" font-size="14.00" fill="#000000">name </text>
<text text-anchor="start" x="681.399" y="-339.4" font-family="Arial" font-size="14.00" fill="#666666">[varchar(60)]</text>
<polygon fill="none" stroke="#000000" points="635.5,-298 635.5,-328 881.5,-328 881.5,-298 635.5,-298"/>
<text text-anchor="start" x="642.5" y="-309.4" font-family="Arial" font-size="14.00" fill="#000000">assigned_to_id </text>
<text text-anchor="start" x="740.5378" y="-309.4" font-family="Arial" font-size="14.00" fill="#666666">[int(11)]</text>
</g>
<!-- issues&#45;&gt;issue_categories -->
<g id="edge7" class="edge">
<title>issues:category_id&#45;&gt;issue_categories:id</title>
<path fill="none" stroke="#000000" stroke-dasharray="5,2" d="M939.8742,-1366.0549C851.1238,-1307.7415 985.6314,-403 881.5,-403"/>
<polygon fill="#000000" stroke="#000000" points="939.9375,-1366.0743 948.1834,-1373.3031 944.7188,-1367.5371 949.5,-1369 949.5,-1369 949.5,-1369 944.7188,-1367.5371 950.8166,-1364.6969 939.9375,-1366.0743 939.9375,-1366.0743"/>
<text text-anchor="start" x="859.8245" y="-1379" font-family="Arial" font-size="10.00" fill="#000000">Additional Relation</text>
</g>
<!-- issue_statuses -->
<g id="node6" class="node">
<title>issue_statuses</title>
<polygon fill="#efefef" stroke="transparent" points="985.5,-433 985.5,-479 1215.5,-479 1215.5,-433 985.5,-433"/>
<polygon fill="none" stroke="#000000" points="985.5,-433 985.5,-479 1215.5,-479 1215.5,-433 985.5,-433"/>
<text text-anchor="start" x="992.3552" y="-456.8" font-family="Arial Bold" font-size="18.00" fill="#000000">issue_statuses</text>
<text text-anchor="start" x="1111.391" y="-456.8" font-family="Arial" font-size="14.00" fill="#000000"> </text>
<text text-anchor="start" x="1115.2816" y="-456.8" font-family="Arial" font-size="14.00" fill="#666666">[BASE TABLE]</text>
<text text-anchor="start" x="1059.9448" y="-442.4" font-family="Arial" font-size="14.00" fill="#333333">ステータス</text>
<polygon fill="none" stroke="#000000" points="985.5,-403 985.5,-433 1215.5,-433 1215.5,-403 985.5,-403"/>
<text text-anchor="start" x="992.5" y="-414.4" font-family="Arial" font-size="14.00" fill="#000000">id </text>
<text text-anchor="start" x="1007.2798" y="-414.4" font-family="Arial" font-size="14.00" fill="#666666">[int(11)]</text>
<polygon fill="none" stroke="#000000" points="985.5,-373 985.5,-403 1215.5,-403 1215.5,-373 985.5,-373"/>
<text text-anchor="start" x="992.5" y="-384.4" font-family="Arial" font-size="14.00" fill="#000000">name </text>
<text text-anchor="start" x="1031.399" y="-384.4" font-family="Arial" font-size="14.00" fill="#666666">[varchar(30)]</text>
<polygon fill="none" stroke="#000000" points="985.5,-343 985.5,-373 1215.5,-373 1215.5,-343 985.5,-343"/>
<text text-anchor="start" x="992.5" y="-354.4" font-family="Arial" font-size="14.00" fill="#000000">is_closed </text>
<text text-anchor="start" x="1054.7342" y="-354.4" font-family="Arial" font-size="14.00" fill="#666666">[tinyint(1)]</text>
<polygon fill="none" stroke="#000000" points="985.5,-313 985.5,-343 1215.5,-343 1215.5,-313 985.5,-313"/>
<text text-anchor="start" x="992.5" y="-324.4" font-family="Arial" font-size="14.00" fill="#000000">position </text>
<text text-anchor="start" x="1044.6248" y="-324.4" font-family="Arial" font-size="14.00" fill="#666666">[int(11)]</text>
<polygon fill="none" stroke="#000000" points="985.5,-283 985.5,-313 1215.5,-313 1215.5,-283 985.5,-283"/>
<text text-anchor="start" x="992.5" y="-294.4" font-family="Arial" font-size="14.00" fill="#000000">default_done_ratio </text>
<text text-anchor="start" x="1112.3274" y="-294.4" font-family="Arial" font-size="14.00" fill="#666666">[int(11)]</text>
</g>
<!-- issues&#45;&gt;issue_statuses -->
<g id="edge8" class="edge">
<title>issues:status_id&#45;&gt;issue_statuses:id</title>
<path fill="none" stroke="#000000" stroke-dasharray="5,2" d="M1260.816,-1338.7966C1486.5427,-1329.7059 1338.9366,-1017.798 1250.5,-798 1187.0231,-640.2363 1048.9769,-679.7637 985.5,-522 968.2465,-479.1186 939.2778,-418 985.5,-418"/>
<polygon fill="#000000" stroke="#000000" points="1260.4981,-1338.8028 1250.4113,-1334.5009 1255.499,-1338.9014 1250.5,-1339 1250.5,-1339 1250.5,-1339 1255.499,-1338.9014 1250.5887,-1343.4991 1260.4981,-1338.8028 1260.4981,-1338.8028"/>
<text text-anchor="start" x="1257.8245" y="-1349" font-family="Arial" font-size="10.00" fill="#000000">Additional Relation</text>
</g>
<!-- users -->
<g id="node7" class="node">
<title>users</title>
<polygon fill="#efefef" stroke="transparent" points="1319.5,-673 1319.5,-719 1801.5,-719 1801.5,-673 1319.5,-673"/>
<polygon fill="none" stroke="#000000" points="1319.5,-673 1319.5,-719 1801.5,-719 1801.5,-673 1319.5,-673"/>
<text text-anchor="start" x="1489.8708" y="-696.8" font-family="Arial Bold" font-size="18.00" fill="#000000">users</text>
<text text-anchor="start" x="1533.8754" y="-696.8" font-family="Arial" font-size="14.00" fill="#000000"> </text>
<text text-anchor="start" x="1537.766" y="-696.8" font-family="Arial" font-size="14.00" fill="#666666">[BASE TABLE]</text>
<text text-anchor="start" x="1481.9558" y="-682.4" font-family="Arial" font-size="14.00" fill="#333333">ユーザー / グループ</text>
<polygon fill="none" stroke="#000000" points="1319.5,-643 1319.5,-673 1801.5,-673 1801.5,-643 1319.5,-643"/>
<text text-anchor="start" x="1326.5" y="-654.4" font-family="Arial" font-size="14.00" fill="#000000">id </text>
<text text-anchor="start" x="1341.2798" y="-654.4" font-family="Arial" font-size="14.00" fill="#666666">[int(11)]</text>
<polygon fill="none" stroke="#000000" points="1319.5,-613 1319.5,-643 1801.5,-643 1801.5,-613 1319.5,-613"/>
<text text-anchor="start" x="1326.5" y="-624.4" font-family="Arial" font-size="14.00" fill="#000000">login </text>
<text text-anchor="start" x="1359.9516" y="-624.4" font-family="Arial" font-size="14.00" fill="#666666">[varchar(255)]</text>
<text text-anchor="start" x="1447.0708" y="-624.4" font-family="Arial" font-size="14.00" fill="#000000"> ログインID</text>
<polygon fill="none" stroke="#000000" points="1319.5,-583 1319.5,-613 1801.5,-613 1801.5,-583 1319.5,-583"/>
<text text-anchor="start" x="1326.5" y="-594.4" font-family="Arial" font-size="14.00" fill="#000000">hashed_password </text>
<text text-anchor="start" x="1443.9838" y="-594.4" font-family="Arial" font-size="14.00" fill="#666666">[varchar(40)]</text>
<text text-anchor="start" x="1523.3204" y="-594.4" font-family="Arial" font-size="14.00" fill="#000000"> パスワード(ハッシュ化済み)</text>
<polygon fill="none" stroke="#000000" points="1319.5,-553 1319.5,-583 1801.5,-583 1801.5,-553 1319.5,-553"/>
<text text-anchor="start" x="1326.5" y="-564.4" font-family="Arial" font-size="14.00" fill="#000000">firstname </text>
<text text-anchor="start" x="1387.9474" y="-564.4" font-family="Arial" font-size="14.00" fill="#666666">[varchar(30)]</text>
<text text-anchor="start" x="1467.284" y="-564.4" font-family="Arial" font-size="14.00" fill="#000000"> 名</text>
<polygon fill="none" stroke="#000000" points="1319.5,-523 1319.5,-553 1801.5,-553 1801.5,-523 1319.5,-523"/>
<text text-anchor="start" x="1326.5" y="-534.4" font-family="Arial" font-size="14.00" fill="#000000">lastname </text>
<text text-anchor="start" x="1387.1788" y="-534.4" font-family="Arial" font-size="14.00" fill="#666666">[varchar(255)]</text>
<text text-anchor="start" x="1474.298" y="-534.4" font-family="Arial" font-size="14.00" fill="#000000"> 姓</text>
<polygon fill="none" stroke="#000000" points="1319.5,-493 1319.5,-523 1801.5,-523 1801.5,-493 1319.5,-493"/>
<text text-anchor="start" x="1326.5" y="-504.4" font-family="Arial" font-size="14.00" fill="#000000">admin </text>
<text text-anchor="start" x="1368.5056" y="-504.4" font-family="Arial" font-size="14.00" fill="#666666">[tinyint(1)]</text>
<text text-anchor="start" x="1429.9502" y="-504.4" font-family="Arial" font-size="14.00" fill="#000000"> システム管理者</text>
<polygon fill="none" stroke="#000000" points="1319.5,-463 1319.5,-493 1801.5,-493 1801.5,-463 1319.5,-463"/>
<text text-anchor="start" x="1326.5" y="-474.4" font-family="Arial" font-size="14.00" fill="#000000">status </text>
<text text-anchor="start" x="1367.737" y="-474.4" font-family="Arial" font-size="14.00" fill="#666666">[int(11)]</text>
<polygon fill="none" stroke="#000000" points="1319.5,-433 1319.5,-463 1801.5,-463 1801.5,-433 1319.5,-433"/>
<text text-anchor="start" x="1326.5" y="-444.4" font-family="Arial" font-size="14.00" fill="#000000">last_login_on </text>
<text text-anchor="start" x="1412.8618" y="-444.4" font-family="Arial" font-size="14.00" fill="#666666">[datetime]</text>
<polygon fill="none" stroke="#000000" points="1319.5,-403 1319.5,-433 1801.5,-433 1801.5,-403 1319.5,-403"/>
<text text-anchor="start" x="1326.5" y="-414.4" font-family="Arial" font-size="14.00" fill="#000000">language </text>
<text text-anchor="start" x="1387.9754" y="-414.4" font-family="Arial" font-size="14.00" fill="#666666">[varchar(5)]</text>
<text text-anchor="start" x="1459.5294" y="-414.4" font-family="Arial" font-size="14.00" fill="#000000"> 言語</text>
<polygon fill="none" stroke="#000000" points="1319.5,-373 1319.5,-403 1801.5,-403 1801.5,-373 1319.5,-373"/>
<text text-anchor="start" x="1326.5" y="-384.4" font-family="Arial" font-size="14.00" fill="#000000">auth_source_id </text>
<text text-anchor="start" x="1426.0918" y="-384.4" font-family="Arial" font-size="14.00" fill="#666666">[int(11)]</text>
<polygon fill="none" stroke="#000000" points="1319.5,-343 1319.5,-373 1801.5,-373 1801.5,-343 1319.5,-343"/>
<text text-anchor="start" x="1326.5" y="-354.4" font-family="Arial" font-size="14.00" fill="#000000">created_on </text>
<text text-anchor="start" x="1400.42" y="-354.4" font-family="Arial" font-size="14.00" fill="#666666">[timestamp]</text>
<polygon fill="none" stroke="#000000" points="1319.5,-313 1319.5,-343 1801.5,-343 1801.5,-313 1319.5,-313"/>
<text text-anchor="start" x="1326.5" y="-324.4" font-family="Arial" font-size="14.00" fill="#000000">updated_on </text>
<text text-anchor="start" x="1404.3246" y="-324.4" font-family="Arial" font-size="14.00" fill="#666666">[timestamp]</text>
<polygon fill="none" stroke="#000000" points="1319.5,-283 1319.5,-313 1801.5,-313 1801.5,-283 1319.5,-283"/>
<text text-anchor="start" x="1326.5" y="-294.4" font-family="Arial" font-size="14.00" fill="#000000">type </text>
<text text-anchor="start" x="1356.8464" y="-294.4" font-family="Arial" font-size="14.00" fill="#666666">[varchar(255)]</text>
<text text-anchor="start" x="1443.9656" y="-294.4" font-family="Arial" font-size="14.00" fill="#000000"> User:ユーザー / Group:グループ</text>
<polygon fill="none" stroke="#000000" points="1319.5,-253 1319.5,-283 1801.5,-283 1801.5,-253 1319.5,-253"/>
<text text-anchor="start" x="1326.5" y="-264.4" font-family="Arial" font-size="14.00" fill="#000000">identity_url </text>
<text text-anchor="start" x="1398.0652" y="-264.4" font-family="Arial" font-size="14.00" fill="#666666">[varchar(255)]</text>
<polygon fill="none" stroke="#000000" points="1319.5,-223 1319.5,-253 1801.5,-253 1801.5,-223 1319.5,-223"/>
<text text-anchor="start" x="1326.5" y="-234.4" font-family="Arial" font-size="14.00" fill="#000000">mail_notification </text>
<text text-anchor="start" x="1430.7342" y="-234.4" font-family="Arial" font-size="14.00" fill="#666666">[varchar(255)]</text>
<text text-anchor="start" x="1517.8534" y="-234.4" font-family="Arial" font-size="14.00" fill="#000000"> メール通知</text>
<polygon fill="none" stroke="#000000" points="1319.5,-193 1319.5,-223 1801.5,-223 1801.5,-193 1319.5,-193"/>
<text text-anchor="start" x="1326.5" y="-204.4" font-family="Arial" font-size="14.00" fill="#000000">salt </text>
<text text-anchor="start" x="1352.1704" y="-204.4" font-family="Arial" font-size="14.00" fill="#666666">[varchar(64)]</text>
<polygon fill="none" stroke="#000000" points="1319.5,-163 1319.5,-193 1801.5,-193 1801.5,-163 1319.5,-163"/>
<text text-anchor="start" x="1326.2646" y="-174.4" font-family="Arial" font-size="14.00" fill="#000000">must_change_passwd </text>
<text text-anchor="start" x="1469.4216" y="-174.4" font-family="Arial" font-size="14.00" fill="#666666">[tinyint(1)]</text>
<text text-anchor="start" x="1530.8662" y="-174.4" font-family="Arial" font-size="14.00" fill="#000000"> 次回ログイン時にパスワード変更を強制</text>
<polygon fill="none" stroke="#000000" points="1319.5,-133 1319.5,-163 1801.5,-163 1801.5,-133 1319.5,-133"/>
<text text-anchor="start" x="1326.5" y="-144.4" font-family="Arial" font-size="14.00" fill="#000000">passwd_changed_on </text>
<text text-anchor="start" x="1462.671" y="-144.4" font-family="Arial" font-size="14.00" fill="#666666">[datetime]</text>
<polygon fill="none" stroke="#000000" points="1319.5,-103 1319.5,-133 1801.5,-133 1801.5,-103 1319.5,-103"/>
<text text-anchor="start" x="1326.5" y="-114.4" font-family="Arial" font-size="14.00" fill="#000000">twofa_scheme </text>
<text text-anchor="start" x="1420.6346" y="-114.4" font-family="Arial" font-size="14.00" fill="#666666">[varchar(255)]</text>
<polygon fill="none" stroke="#000000" points="1319.5,-73 1319.5,-103 1801.5,-103 1801.5,-73 1319.5,-73"/>
<text text-anchor="start" x="1326.5" y="-84.4" font-family="Arial" font-size="14.00" fill="#000000">twofa_totp_key </text>
<text text-anchor="start" x="1424.5378" y="-84.4" font-family="Arial" font-size="14.00" fill="#666666">[varchar(255)]</text>
<polygon fill="none" stroke="#000000" points="1319.5,-43 1319.5,-73 1801.5,-73 1801.5,-43 1319.5,-43"/>
<text text-anchor="start" x="1326.5" y="-54.4" font-family="Arial" font-size="14.00" fill="#000000">twofa_totp_last_used_at </text>
<text text-anchor="start" x="1482.1212" y="-54.4" font-family="Arial" font-size="14.00" fill="#666666">[int(11)]</text>
</g>
<!-- issues&#45;&gt;users -->
<g id="edge9" class="edge">
<title>issues:assigned_to_id&#45;&gt;users:id</title>
<path fill="none" stroke="#000000" stroke-dasharray="5,2" d="M1260.5087,-1307.8549C1385.3584,-1277.6009 1177.5747,-658 1319.5,-658"/>
<polygon fill="#000000" stroke="#000000" points="1260.4352,-1307.8632 1249.9884,-1304.5292 1255.4676,-1308.4316 1250.5,-1309 1250.5,-1309 1250.5,-1309 1255.4676,-1308.4316 1251.0116,-1313.4708 1260.4352,-1307.8632 1260.4352,-1307.8632"/>
<text text-anchor="start" x="1257.8245" y="-1319" font-family="Arial" font-size="10.00" fill="#000000">Additional Relation</text>
</g>
<!-- issues&#45;&gt;users -->
<g id="edge11" class="edge">
<title>issues:author_id&#45;&gt;users:id</title>
<path fill="none" stroke="#000000" stroke-dasharray="5,2" d="M1260.4449,-1217.6757C1366.0324,-1187.6746 1197.4511,-658 1319.5,-658"/>
<polygon fill="#000000" stroke="#000000" points="1260.4125,-1217.6799 1249.9059,-1214.5394 1255.4562,-1218.3399 1250.5,-1219 1250.5,-1219 1250.5,-1219 1255.4562,-1218.3399 1251.0941,-1223.4606 1260.4125,-1217.6799 1260.4125,-1217.6799"/>
<text text-anchor="start" x="1257.8245" y="-1229" font-family="Arial" font-size="10.00" fill="#000000">Additional Relation</text>
</g>
<!-- enumerations -->
<g id="node8" class="node">
<title>enumerations</title>
<polygon fill="#efefef" stroke="transparent" points="1906.5,-493 1906.5,-539 2713.5,-539 2713.5,-493 1906.5,-493"/>
<polygon fill="none" stroke="#000000" points="1906.5,-493 1906.5,-539 2713.5,-539 2713.5,-493 1906.5,-493"/>
<text text-anchor="start" x="2206.861" y="-516.8" font-family="Arial Bold" font-size="18.00" fill="#000000">enumerations</text>
<text text-anchor="start" x="2315.8852" y="-516.8" font-family="Arial" font-size="14.00" fill="#000000"> </text>
<text text-anchor="start" x="2319.7758" y="-516.8" font-family="Arial" font-size="14.00" fill="#666666">[BASE TABLE]</text>
<text text-anchor="start" x="2272.3988" y="-502.4" font-family="Arial" font-size="14.00" fill="#333333">選択肢の値</text>
<polygon fill="none" stroke="#000000" points="1906.5,-463 1906.5,-493 2713.5,-493 2713.5,-463 1906.5,-463"/>
<text text-anchor="start" x="1913.5" y="-474.4" font-family="Arial" font-size="14.00" fill="#000000">id </text>
<text text-anchor="start" x="1928.2798" y="-474.4" font-family="Arial" font-size="14.00" fill="#666666">[int(11)]</text>
<polygon fill="none" stroke="#000000" points="1906.5,-433 1906.5,-463 2713.5,-463 2713.5,-433 1906.5,-433"/>
<text text-anchor="start" x="1913.5" y="-444.4" font-family="Arial" font-size="14.00" fill="#000000">name </text>
<text text-anchor="start" x="1952.399" y="-444.4" font-family="Arial" font-size="14.00" fill="#666666">[varchar(30)]</text>
<polygon fill="none" stroke="#000000" points="1906.5,-403 1906.5,-433 2713.5,-433 2713.5,-403 1906.5,-403"/>
<text text-anchor="start" x="1913.5" y="-414.4" font-family="Arial" font-size="14.00" fill="#000000">position </text>
<text text-anchor="start" x="1965.6248" y="-414.4" font-family="Arial" font-size="14.00" fill="#666666">[int(11)]</text>
<polygon fill="none" stroke="#000000" points="1906.5,-373 1906.5,-403 2713.5,-403 2713.5,-373 1906.5,-373"/>
<text text-anchor="start" x="1913.5" y="-384.4" font-family="Arial" font-size="14.00" fill="#000000">is_default </text>
<text text-anchor="start" x="1977.298" y="-384.4" font-family="Arial" font-size="14.00" fill="#666666">[tinyint(1)]</text>
<polygon fill="none" stroke="#000000" points="1906.5,-343 1906.5,-373 2713.5,-373 2713.5,-343 1906.5,-343"/>
<text text-anchor="start" x="1913.3163" y="-354.4" font-family="Arial" font-size="14.00" fill="#000000">type </text>
<text text-anchor="start" x="1943.6627" y="-354.4" font-family="Arial" font-size="14.00" fill="#666666">[varchar(255)]</text>
<text text-anchor="start" x="2030.7819" y="-354.4" font-family="Arial" font-size="14.00" fill="#000000"> IssuePriority:チケットの優先度 / DocumentCategory:文書カテゴリ / TimeEntryActivity:作業分類 (時間管理)</text>
<polygon fill="none" stroke="#000000" points="1906.5,-313 1906.5,-343 2713.5,-343 2713.5,-313 1906.5,-313"/>
<text text-anchor="start" x="1913.5" y="-324.4" font-family="Arial" font-size="14.00" fill="#000000">active </text>
<text text-anchor="start" x="1953.953" y="-324.4" font-family="Arial" font-size="14.00" fill="#666666">[tinyint(1)]</text>
<polygon fill="none" stroke="#000000" points="1906.5,-283 1906.5,-313 2713.5,-313 2713.5,-283 1906.5,-283"/>
<text text-anchor="start" x="1913.5" y="-294.4" font-family="Arial" font-size="14.00" fill="#000000">project_id </text>
<text text-anchor="start" x="1978.068" y="-294.4" font-family="Arial" font-size="14.00" fill="#666666">[int(11)]</text>
<polygon fill="none" stroke="#000000" points="1906.5,-253 1906.5,-283 2713.5,-283 2713.5,-253 1906.5,-253"/>
<text text-anchor="start" x="1913.5" y="-264.4" font-family="Arial" font-size="14.00" fill="#000000">parent_id </text>
<text text-anchor="start" x="1975.744" y="-264.4" font-family="Arial" font-size="14.00" fill="#666666">[int(11)]</text>
<polygon fill="none" stroke="#000000" points="1906.5,-223 1906.5,-253 2713.5,-253 2713.5,-223 1906.5,-223"/>
<text text-anchor="start" x="1913.5" y="-234.4" font-family="Arial" font-size="14.00" fill="#000000">position_name </text>
<text text-anchor="start" x="2008.4158" y="-234.4" font-family="Arial" font-size="14.00" fill="#666666">[varchar(30)]</text>
</g>
<!-- issues&#45;&gt;enumerations -->
<g id="edge10" class="edge">
<title>issues:priority_id&#45;&gt;enumerations:id</title>
<path fill="none" stroke="#000000" stroke-dasharray="5,2" d="M1260.5081,-1278.9427C1604.9286,-1274.9692 1678.7725,-1064.87 1853.5,-762 1885.5818,-706.3899 1842.2993,-478 1906.5,-478"/>
<polygon fill="#000000" stroke="#000000" points="1260.4998,-1278.9426 1250.4742,-1274.5001 1255.4999,-1278.9713 1250.5,-1279 1250.5,-1279 1250.5,-1279 1255.4999,-1278.9713 1250.5258,-1283.4999 1260.4998,-1278.9426 1260.4998,-1278.9426"/>
<text text-anchor="start" x="1257.8245" y="-1289" font-family="Arial" font-size="10.00" fill="#000000">Additional Relation</text>
</g>
<!-- issue_relations -->
<g id="node2" class="node">
<title>issue_relations</title>
<polygon fill="#efefef" stroke="transparent" points="984.5,-1885 984.5,-1931 1215.5,-1931 1215.5,-1885 984.5,-1885"/>
<polygon fill="none" stroke="#000000" points="984.5,-1885 984.5,-1931 1215.5,-1931 1215.5,-1885 984.5,-1885"/>
<text text-anchor="start" x="991.3629" y="-1908.8" font-family="Arial Bold" font-size="18.00" fill="#000000">issue_relations</text>
<text text-anchor="start" x="1111.3833" y="-1908.8" font-family="Arial" font-size="14.00" fill="#000000"> </text>
<text text-anchor="start" x="1115.2739" y="-1908.8" font-family="Arial" font-size="14.00" fill="#666666">[BASE TABLE]</text>
<text text-anchor="start" x="1049.5706" y="-1894.4" font-family="Arial" font-size="14.00" fill="#333333">関連チケット</text>
<polygon fill="none" stroke="#000000" points="984.5,-1855 984.5,-1885 1215.5,-1885 1215.5,-1855 984.5,-1855"/>
<text text-anchor="start" x="991.5" y="-1866.4" font-family="Arial" font-size="14.00" fill="#000000">id </text>
<text text-anchor="start" x="1006.2798" y="-1866.4" font-family="Arial" font-size="14.00" fill="#666666">[int(11)]</text>
<polygon fill="none" stroke="#000000" points="984.5,-1825 984.5,-1855 1215.5,-1855 1215.5,-1825 984.5,-1825"/>
<text text-anchor="start" x="991.5" y="-1836.4" font-family="Arial" font-size="14.00" fill="#000000">issue_from_id </text>
<text text-anchor="start" x="1082.5112" y="-1836.4" font-family="Arial" font-size="14.00" fill="#666666">[int(11)]</text>
<polygon fill="none" stroke="#000000" points="984.5,-1795 984.5,-1825 1215.5,-1825 1215.5,-1795 984.5,-1795"/>
<text text-anchor="start" x="991.5" y="-1806.4" font-family="Arial" font-size="14.00" fill="#000000">issue_to_id </text>
<text text-anchor="start" x="1066.19" y="-1806.4" font-family="Arial" font-size="14.00" fill="#666666">[int(11)]</text>
<polygon fill="none" stroke="#000000" points="984.5,-1765 984.5,-1795 1215.5,-1795 1215.5,-1765 984.5,-1765"/>
<text text-anchor="start" x="991.5" y="-1776.4" font-family="Arial" font-size="14.00" fill="#000000">relation_type </text>
<text text-anchor="start" x="1075.5238" y="-1776.4" font-family="Arial" font-size="14.00" fill="#666666">[varchar(255)]</text>
<polygon fill="none" stroke="#000000" points="984.5,-1735 984.5,-1765 1215.5,-1765 1215.5,-1735 984.5,-1735"/>
<text text-anchor="start" x="991.5" y="-1746.4" font-family="Arial" font-size="14.00" fill="#000000">delay </text>
<text text-anchor="start" x="1028.845" y="-1746.4" font-family="Arial" font-size="14.00" fill="#666666">[int(11)]</text>
</g>
<!-- issue_relations&#45;&gt;issues -->
<g id="edge3" class="edge">
<title>issue_relations:issue_from_id&#45;&gt;issues:id</title>
<path fill="none" stroke="#000000" stroke-dasharray="5,2" d="M974.3958,-1839.4037C852.5037,-1824.8566 822.6693,-1549 949.5,-1549"/>
<polygon fill="#000000" stroke="#000000" points="974.5174,-1839.4108 984.2349,-1844.4922 979.5087,-1839.7054 984.5,-1840 984.5,-1840 984.5,-1840 979.5087,-1839.7054 984.7651,-1835.5078 974.5174,-1839.4108 974.5174,-1839.4108"/>
<text text-anchor="start" x="894.8245" y="-1850" font-family="Arial" font-size="10.00" fill="#000000">Additional Relation</text>
</g>
<!-- issue_relations&#45;&gt;issues -->
<g id="edge4" class="edge">
<title>issue_relations:issue_to_id&#45;&gt;issues:id</title>
<path fill="none" stroke="#000000" stroke-dasharray="5,2" d="M974.4264,-1809.3411C865.5414,-1794.931 835.8905,-1549 949.5,-1549"/>
<polygon fill="#000000" stroke="#000000" points="974.5213,-1809.3472 984.2062,-1814.4904 979.5107,-1809.6736 984.5,-1810 984.5,-1810 984.5,-1810 979.5107,-1809.6736 984.7938,-1805.5096 974.5213,-1809.3472 974.5213,-1809.3472"/>
<text text-anchor="start" x="894.8245" y="-1820" font-family="Arial" font-size="10.00" fill="#000000">Additional Relation</text>
</g>
</g>
</svg>
