<?xml version="1.0" encoding="UTF-8" standalone="no"?>
<!DOCTYPE svg PUBLIC "-//W3C//DTD SVG 1.1//EN"
 "http://www.w3.org/Graphics/SVG/1.1/DTD/svg11.dtd">
<!-- Generated by graphviz version 2.40.1 (20161225.0304)
 -->
<!-- Title: issue_statuses Pages: 1 -->
<svg width="969pt" height="1184pt"
 viewBox="0.00 0.00 969.00 1184.00" xmlns="http://www.w3.org/2000/svg" xmlns:xlink="http://www.w3.org/1999/xlink">
<g id="graph0" class="graph" transform="scale(1 1) rotate(0) translate(4 1180)">
<title>issue_statuses</title>
<polygon fill="#ffffff" stroke="transparent" points="-4,4 -4,-1180 965,-1180 965,4 -4,4"/>
<!-- issue_statuses -->
<g id="node1" class="node">
<title>issue_statuses</title>
<polygon fill="#efefef" stroke="transparent" points="302.5,-196 302.5,-242 532.5,-242 532.5,-196 302.5,-196"/>
<polygon fill="none" stroke="#000000" points="302.5,-196 302.5,-242 532.5,-242 532.5,-196 302.5,-196"/>
<text text-anchor="start" x="309.3552" y="-219.8" font-family="Arial Bold" font-size="18.00" fill="#000000">issue_statuses</text>
<text text-anchor="start" x="428.391" y="-219.8" font-family="Arial" font-size="14.00" fill="#000000"> </text>
<text text-anchor="start" x="432.2816" y="-219.8" font-family="Arial" font-size="14.00" fill="#666666">[BASE TABLE]</text>
<text text-anchor="start" x="376.9448" y="-205.4" font-family="Arial" font-size="14.00" fill="#333333">ステータス</text>
<polygon fill="none" stroke="#000000" points="302.5,-166 302.5,-196 532.5,-196 532.5,-166 302.5,-166"/>
<text text-anchor="start" x="309.5" y="-177.4" font-family="Arial" font-size="14.00" fill="#000000">id </text>
<text text-anchor="start" x="324.2798" y="-177.4" font-family="Arial" font-size="14.00" fill="#666666">[int(11)]</text>
<polygon fill="none" stroke="#000000" points="302.5,-136 302.5,-166 532.5,-166 532.5,-136 302.5,-136"/>
<text text-anchor="start" x="309.5" y="-147.4" font-family="Arial" font-size="14.00" fill="#000000">name </text>
<text text-anchor="start" x="348.399" y="-147.4" font-family="Arial" font-size="14.00" fill="#666666">[varchar(30)]</text>
<polygon fill="none" stroke="#000000" points="302.5,-106 302.5,-136 532.5,-136 532.5,-106 302.5,-106"/>
<text text-anchor="start" x="309.5" y="-117.4" font-family="Arial" font-size="14.00" fill="#000000">is_closed </text>
<text text-anchor="start" x="371.7342" y="-117.4" font-family="Arial" font-size="14.00" fill="#666666">[tinyint(1)]</text>
<polygon fill="none" stroke="#000000" points="302.5,-76 302.5,-106 532.5,-106 532.5,-76 302.5,-76"/>
<text text-anchor="start" x="309.5" y="-87.4" font-family="Arial" font-size="14.00" fill="#000000">position </text>
<text text-anchor="start" x="361.6248" y="-87.4" font-family="Arial" font-size="14.00" fill="#666666">[int(11)]</text>
<polygon fill="none" stroke="#000000" points="302.5,-46 302.5,-76 532.5,-76 532.5,-46 302.5,-46"/>
<text text-anchor="start" x="309.5" y="-57.4" font-family="Arial" font-size="14.00" fill="#000000">default_done_ratio </text>
<text text-anchor="start" x="429.3274" y="-57.4" font-family="Arial" font-size="14.00" fill="#666666">[int(11)]</text>
<polygon fill="none" stroke="#000000" stroke-width="3" points="301,-44.5 301,-243.5 534,-243.5 534,-44.5 301,-44.5"/>
</g>
<!-- trackers -->
<g id="node2" class="node">
<title>trackers</title>
<polygon fill="#efefef" stroke="transparent" points="43.5,-832 43.5,-878 218.5,-878 218.5,-832 43.5,-832"/>
<polygon fill="none" stroke="#000000" points="43.5,-832 43.5,-878 218.5,-878 218.5,-832 43.5,-832"/>
<text text-anchor="start" x="50.3736" y="-855.8" font-family="Arial Bold" font-size="18.00" fill="#000000">trackers</text>
<text text-anchor="start" x="114.3726" y="-855.8" font-family="Arial" font-size="14.00" fill="#000000"> </text>
<text text-anchor="start" x="118.2632" y="-855.8" font-family="Arial" font-size="14.00" fill="#666666">[BASE TABLE]</text>
<text text-anchor="start" x="92.2088" y="-841.4" font-family="Arial" font-size="14.00" fill="#333333">トラッカー</text>
<polygon fill="none" stroke="#000000" points="43.5,-802 43.5,-832 218.5,-832 218.5,-802 43.5,-802"/>
<text text-anchor="start" x="50.5" y="-813.4" font-family="Arial" font-size="14.00" fill="#000000">id </text>
<text text-anchor="start" x="65.2798" y="-813.4" font-family="Arial" font-size="14.00" fill="#666666">[int(11)]</text>
<polygon fill="none" stroke="#000000" points="43.5,-772 43.5,-802 218.5,-802 218.5,-772 43.5,-772"/>
<text text-anchor="start" x="50.5" y="-783.4" font-family="Arial" font-size="14.00" fill="#000000">name </text>
<text text-anchor="start" x="89.399" y="-783.4" font-family="Arial" font-size="14.00" fill="#666666">[varchar(30)]</text>
<polygon fill="none" stroke="#000000" points="43.5,-742 43.5,-772 218.5,-772 218.5,-742 43.5,-742"/>
<text text-anchor="start" x="50.5" y="-753.4" font-family="Arial" font-size="14.00" fill="#000000">description </text>
<text text-anchor="start" x="122.068" y="-753.4" font-family="Arial" font-size="14.00" fill="#666666">[varchar(255)]</text>
<polygon fill="none" stroke="#000000" points="43.5,-712 43.5,-742 218.5,-742 218.5,-712 43.5,-712"/>
<text text-anchor="start" x="50.5" y="-723.4" font-family="Arial" font-size="14.00" fill="#000000">position </text>
<text text-anchor="start" x="102.6248" y="-723.4" font-family="Arial" font-size="14.00" fill="#666666">[int(11)]</text>
<polygon fill="none" stroke="#000000" points="43.5,-682 43.5,-712 218.5,-712 218.5,-682 43.5,-682"/>
<text text-anchor="start" x="50.5" y="-693.4" font-family="Arial" font-size="14.00" fill="#000000">is_in_roadmap </text>
<text text-anchor="start" x="146.1858" y="-693.4" font-family="Arial" font-size="14.00" fill="#666666">[tinyint(1)]</text>
<polygon fill="none" stroke="#000000" points="43.5,-652 43.5,-682 218.5,-682 218.5,-652 43.5,-652"/>
<text text-anchor="start" x="50.5" y="-663.4" font-family="Arial" font-size="14.00" fill="#000000">fields_bits </text>
<text text-anchor="start" x="116.622" y="-663.4" font-family="Arial" font-size="14.00" fill="#666666">[int(11)]</text>
<polygon fill="none" stroke="#000000" points="43.5,-622 43.5,-652 218.5,-652 218.5,-622 43.5,-622"/>
<text text-anchor="start" x="50.5" y="-633.4" font-family="Arial" font-size="14.00" fill="#000000">default_status_id </text>
<text text-anchor="start" x="160.2096" y="-633.4" font-family="Arial" font-size="14.00" fill="#666666">[int(11)]</text>
</g>
<!-- trackers&#45;&gt;issue_statuses -->
<g id="edge1" class="edge">
<title>trackers:default_status_id&#45;&gt;issue_statuses:id</title>
<path fill="none" stroke="#000000" stroke-dasharray="5,2" d="M228.5522,-635.3488C313.233,-605.5011 203.0842,-181 302.5,-181"/>
<polygon fill="#000000" stroke="#000000" points="228.3678,-635.379 217.7706,-632.5595 223.4339,-636.1895 218.5,-637 218.5,-637 218.5,-637 223.4339,-636.1895 219.2294,-641.4405 228.3678,-635.379 228.3678,-635.379"/>
<text text-anchor="start" x="225.8245" y="-647" font-family="Arial" font-size="10.00" fill="#000000">Additional Relation</text>
</g>
<!-- workflows -->
<g id="node3" class="node">
<title>workflows</title>
<polygon fill="#efefef" stroke="transparent" points="322.5,-877 322.5,-923 512.5,-923 512.5,-877 322.5,-877"/>
<polygon fill="none" stroke="#000000" points="322.5,-877 322.5,-923 512.5,-923 512.5,-877 322.5,-877"/>
<text text-anchor="start" x="329.3784" y="-900.8" font-family="Arial Bold" font-size="18.00" fill="#000000">workflows</text>
<text text-anchor="start" x="408.3678" y="-900.8" font-family="Arial" font-size="14.00" fill="#000000"> </text>
<text text-anchor="start" x="412.2584" y="-900.8" font-family="Arial" font-size="14.00" fill="#666666">[BASE TABLE]</text>
<text text-anchor="start" x="365.0168" y="-886.4" font-family="Arial" font-size="14.00" fill="#333333">ワークフロー</text>
<polygon fill="none" stroke="#000000" points="322.5,-847 322.5,-877 512.5,-877 512.5,-847 322.5,-847"/>
<text text-anchor="start" x="329.5" y="-858.4" font-family="Arial" font-size="14.00" fill="#000000">id </text>
<text text-anchor="start" x="344.2798" y="-858.4" font-family="Arial" font-size="14.00" fill="#666666">[int(11)]</text>
<polygon fill="none" stroke="#000000" points="322.5,-817 322.5,-847 512.5,-847 512.5,-817 322.5,-817"/>
<text text-anchor="start" x="329.5" y="-828.4" font-family="Arial" font-size="14.00" fill="#000000">tracker_id </text>
<text text-anchor="start" x="394.8394" y="-828.4" font-family="Arial" font-size="14.00" fill="#666666">[int(11)]</text>
<polygon fill="none" stroke="#000000" points="322.5,-787 322.5,-817 512.5,-817 512.5,-787 322.5,-787"/>
<text text-anchor="start" x="329.5" y="-798.4" font-family="Arial" font-size="14.00" fill="#000000">old_status_id </text>
<text text-anchor="start" x="415.8632" y="-798.4" font-family="Arial" font-size="14.00" fill="#666666">[int(11)]</text>
<polygon fill="none" stroke="#000000" points="322.5,-757 322.5,-787 512.5,-787 512.5,-757 322.5,-757"/>
<text text-anchor="start" x="329.5" y="-768.4" font-family="Arial" font-size="14.00" fill="#000000">new_status_id </text>
<text text-anchor="start" x="422.8632" y="-768.4" font-family="Arial" font-size="14.00" fill="#666666">[int(11)]</text>
<polygon fill="none" stroke="#000000" points="322.5,-727 322.5,-757 512.5,-757 512.5,-727 322.5,-727"/>
<text text-anchor="start" x="329.5" y="-738.4" font-family="Arial" font-size="14.00" fill="#000000">role_id </text>
<text text-anchor="start" x="375.3948" y="-738.4" font-family="Arial" font-size="14.00" fill="#666666">[int(11)]</text>
<polygon fill="none" stroke="#000000" points="322.5,-697 322.5,-727 512.5,-727 512.5,-697 322.5,-697"/>
<text text-anchor="start" x="329.5" y="-708.4" font-family="Arial" font-size="14.00" fill="#000000">assignee </text>
<text text-anchor="start" x="389.4102" y="-708.4" font-family="Arial" font-size="14.00" fill="#666666">[tinyint(1)]</text>
<polygon fill="none" stroke="#000000" points="322.5,-667 322.5,-697 512.5,-697 512.5,-667 322.5,-667"/>
<text text-anchor="start" x="329.5" y="-678.4" font-family="Arial" font-size="14.00" fill="#000000">author </text>
<text text-anchor="start" x="373.0722" y="-678.4" font-family="Arial" font-size="14.00" fill="#666666">[tinyint(1)]</text>
<polygon fill="none" stroke="#000000" points="322.5,-637 322.5,-667 512.5,-667 512.5,-637 322.5,-637"/>
<text text-anchor="start" x="329.5" y="-648.4" font-family="Arial" font-size="14.00" fill="#000000">type </text>
<text text-anchor="start" x="359.8464" y="-648.4" font-family="Arial" font-size="14.00" fill="#666666">[varchar(30)]</text>
<polygon fill="none" stroke="#000000" points="322.5,-607 322.5,-637 512.5,-637 512.5,-607 322.5,-607"/>
<text text-anchor="start" x="329.5" y="-618.4" font-family="Arial" font-size="14.00" fill="#000000">field_name </text>
<text text-anchor="start" x="401.8506" y="-618.4" font-family="Arial" font-size="14.00" fill="#666666">[varchar(30)]</text>
<polygon fill="none" stroke="#000000" points="322.5,-577 322.5,-607 512.5,-607 512.5,-577 322.5,-577"/>
<text text-anchor="start" x="329.5" y="-588.4" font-family="Arial" font-size="14.00" fill="#000000">rule </text>
<text text-anchor="start" x="356.723" y="-588.4" font-family="Arial" font-size="14.00" fill="#666666">[varchar(30)]</text>
</g>
<!-- workflows&#45;&gt;issue_statuses -->
<g id="edge2" class="edge">
<title>workflows:old_status_id&#45;&gt;issue_statuses:id</title>
<path fill="none" stroke="#000000" stroke-dasharray="5,2" d="M519.1728,-794.1483C549.4337,-722.2619 564.7257,-181 532.5,-181"/>
<polygon fill="#000000" stroke="#000000" points="518.9759,-794.38 509.071,-799.0859 515.7379,-798.19 512.5,-802 512.5,-802 512.5,-802 515.7379,-798.19 515.929,-804.9141 518.9759,-794.38 518.9759,-794.38"/>
<text text-anchor="start" x="519.8245" y="-812" font-family="Arial" font-size="10.00" fill="#000000">Additional Relation</text>
</g>
<!-- workflows&#45;&gt;issue_statuses -->
<g id="edge3" class="edge">
<title>workflows:new_status_id&#45;&gt;issue_statuses:id</title>
<path fill="none" stroke="#000000" stroke-dasharray="5,2" d="M519.0443,-764.0923C547.8395,-693.961 563.1064,-181 532.5,-181"/>
<polygon fill="#000000" stroke="#000000" points="518.8757,-764.2961 509.0332,-769.1309 515.6879,-768.148 512.5,-772 512.5,-772 512.5,-772 515.6879,-768.148 515.9668,-774.8691 518.8757,-764.2961 518.8757,-764.2961"/>
<text text-anchor="start" x="519.8245" y="-782" font-family="Arial" font-size="10.00" fill="#000000">Additional Relation</text>
</g>
<!-- issues -->
<g id="node4" class="node">
<title>issues</title>
<polygon fill="#efefef" stroke="transparent" points="617.5,-1087 617.5,-1133 918.5,-1133 918.5,-1087 617.5,-1087"/>
<polygon fill="none" stroke="#000000" points="617.5,-1087 617.5,-1133 918.5,-1133 918.5,-1087 617.5,-1087"/>
<text text-anchor="start" x="693.8698" y="-1110.8" font-family="Arial Bold" font-size="18.00" fill="#000000">issues</text>
<text text-anchor="start" x="744.8764" y="-1110.8" font-family="Arial" font-size="14.00" fill="#000000"> </text>
<text text-anchor="start" x="748.767" y="-1110.8" font-family="Arial" font-size="14.00" fill="#666666">[BASE TABLE]</text>
<text text-anchor="start" x="740.1344" y="-1096.4" font-family="Arial" font-size="14.00" fill="#333333">チケット</text>
<polygon fill="none" stroke="#000000" points="617.5,-1057 617.5,-1087 918.5,-1087 918.5,-1057 617.5,-1057"/>
<text text-anchor="start" x="624.5" y="-1068.4" font-family="Arial" font-size="14.00" fill="#000000">id </text>
<text text-anchor="start" x="639.2798" y="-1068.4" font-family="Arial" font-size="14.00" fill="#666666">[int(11)]</text>
<polygon fill="none" stroke="#000000" points="617.5,-1027 617.5,-1057 918.5,-1057 918.5,-1027 617.5,-1027"/>
<text text-anchor="start" x="624.5" y="-1038.4" font-family="Arial" font-size="14.00" fill="#000000">tracker_id </text>
<text text-anchor="start" x="689.8394" y="-1038.4" font-family="Arial" font-size="14.00" fill="#666666">[int(11)]</text>
<text text-anchor="start" x="737.2868" y="-1038.4" font-family="Arial" font-size="14.00" fill="#000000"> トラッカーID</text>
<polygon fill="none" stroke="#000000" points="617.5,-997 617.5,-1027 918.5,-1027 918.5,-997 617.5,-997"/>
<text text-anchor="start" x="624.5" y="-1008.4" font-family="Arial" font-size="14.00" fill="#000000">project_id </text>
<text text-anchor="start" x="689.068" y="-1008.4" font-family="Arial" font-size="14.00" fill="#666666">[int(11)]</text>
<text text-anchor="start" x="736.5154" y="-1008.4" font-family="Arial" font-size="14.00" fill="#000000"> プロジェクトID</text>
<polygon fill="none" stroke="#000000" points="617.5,-967 617.5,-997 918.5,-997 918.5,-967 617.5,-967"/>
<text text-anchor="start" x="624.5" y="-978.4" font-family="Arial" font-size="14.00" fill="#000000">subject </text>
<text text-anchor="start" x="672.7356" y="-978.4" font-family="Arial" font-size="14.00" fill="#666666">[varchar(255)]</text>
<text text-anchor="start" x="759.8548" y="-978.4" font-family="Arial" font-size="14.00" fill="#000000"> 題名</text>
<polygon fill="none" stroke="#000000" points="617.5,-937 617.5,-967 918.5,-967 918.5,-937 617.5,-937"/>
<text text-anchor="start" x="624.5" y="-948.4" font-family="Arial" font-size="14.00" fill="#000000">description </text>
<text text-anchor="start" x="696.068" y="-948.4" font-family="Arial" font-size="14.00" fill="#666666">[longtext]</text>
<text text-anchor="start" x="752.8674" y="-948.4" font-family="Arial" font-size="14.00" fill="#000000"> 説明</text>
<polygon fill="none" stroke="#000000" points="617.5,-907 617.5,-937 918.5,-937 918.5,-907 617.5,-907"/>
<text text-anchor="start" x="624.5" y="-918.4" font-family="Arial" font-size="14.00" fill="#000000">due_date </text>
<text text-anchor="start" x="686.7594" y="-918.4" font-family="Arial" font-size="14.00" fill="#666666">[date]</text>
<text text-anchor="start" x="721.779" y="-918.4" font-family="Arial" font-size="14.00" fill="#000000"> 期日</text>
<polygon fill="none" stroke="#000000" points="617.5,-877 617.5,-907 918.5,-907 918.5,-877 617.5,-877"/>
<text text-anchor="start" x="624.5" y="-888.4" font-family="Arial" font-size="14.00" fill="#000000">category_id </text>
<text text-anchor="start" x="700.744" y="-888.4" font-family="Arial" font-size="14.00" fill="#666666">[int(11)]</text>
<text text-anchor="start" x="748.1914" y="-888.4" font-family="Arial" font-size="14.00" fill="#000000"> カテゴリーID</text>
<polygon fill="none" stroke="#000000" points="617.5,-847 617.5,-877 918.5,-877 918.5,-847 617.5,-847"/>
<text text-anchor="start" x="624.5" y="-858.4" font-family="Arial" font-size="14.00" fill="#000000">status_id </text>
<text text-anchor="start" x="684.4088" y="-858.4" font-family="Arial" font-size="14.00" fill="#666666">[int(11)]</text>
<text text-anchor="start" x="731.8562" y="-858.4" font-family="Arial" font-size="14.00" fill="#000000"> ステータスID</text>
<polygon fill="none" stroke="#000000" points="617.5,-817 617.5,-847 918.5,-847 918.5,-817 617.5,-817"/>
<text text-anchor="start" x="624.5" y="-828.4" font-family="Arial" font-size="14.00" fill="#000000">assigned_to_id </text>
<text text-anchor="start" x="722.5378" y="-828.4" font-family="Arial" font-size="14.00" fill="#666666">[int(11)]</text>
<text text-anchor="start" x="769.9852" y="-828.4" font-family="Arial" font-size="14.00" fill="#000000"> 担当者ID</text>
<polygon fill="none" stroke="#000000" points="617.5,-787 617.5,-817 918.5,-817 918.5,-787 617.5,-787"/>
<text text-anchor="start" x="624.5" y="-798.4" font-family="Arial" font-size="14.00" fill="#000000">priority_id </text>
<text text-anchor="start" x="689.0526" y="-798.4" font-family="Arial" font-size="14.00" fill="#666666">[int(11)]</text>
<text text-anchor="start" x="736.5" y="-798.4" font-family="Arial" font-size="14.00" fill="#000000"> 優先度ID</text>
<polygon fill="none" stroke="#000000" points="617.5,-757 617.5,-787 918.5,-787 918.5,-757 617.5,-757"/>
<text text-anchor="start" x="624.3635" y="-768.4" font-family="Arial" font-size="14.00" fill="#000000">fixed_version_id </text>
<text text-anchor="start" x="729.3859" y="-768.4" font-family="Arial" font-size="14.00" fill="#666666">[int(11)]</text>
<text text-anchor="start" x="776.8333" y="-768.4" font-family="Arial" font-size="14.00" fill="#000000"> 対象バージョンID</text>
<polygon fill="none" stroke="#000000" points="617.5,-727 617.5,-757 918.5,-757 918.5,-727 617.5,-727"/>
<text text-anchor="start" x="624.5" y="-738.4" font-family="Arial" font-size="14.00" fill="#000000">author_id </text>
<text text-anchor="start" x="686.744" y="-738.4" font-family="Arial" font-size="14.00" fill="#666666">[int(11)]</text>
<text text-anchor="start" x="734.1914" y="-738.4" font-family="Arial" font-size="14.00" fill="#000000"> 登録者ID</text>
<polygon fill="none" stroke="#000000" points="617.5,-697 617.5,-727 918.5,-727 918.5,-697 617.5,-697"/>
<text text-anchor="start" x="624.5" y="-708.4" font-family="Arial" font-size="14.00" fill="#000000">lock_version </text>
<text text-anchor="start" x="706.1774" y="-708.4" font-family="Arial" font-size="14.00" fill="#666666">[int(11)]</text>
<text text-anchor="start" x="753.6248" y="-708.4" font-family="Arial" font-size="14.00" fill="#000000"> ロックバージョン</text>
<polygon fill="none" stroke="#000000" points="617.5,-667 617.5,-697 918.5,-697 918.5,-667 617.5,-667"/>
<text text-anchor="start" x="624.5" y="-678.4" font-family="Arial" font-size="14.00" fill="#000000">created_on </text>
<text text-anchor="start" x="698.42" y="-678.4" font-family="Arial" font-size="14.00" fill="#666666">[timestamp]</text>
<polygon fill="none" stroke="#000000" points="617.5,-637 617.5,-667 918.5,-667 918.5,-637 617.5,-637"/>
<text text-anchor="start" x="624.5" y="-648.4" font-family="Arial" font-size="14.00" fill="#000000">updated_on </text>
<text text-anchor="start" x="702.3246" y="-648.4" font-family="Arial" font-size="14.00" fill="#666666">[timestamp]</text>
<polygon fill="none" stroke="#000000" points="617.5,-607 617.5,-637 918.5,-637 918.5,-607 617.5,-607"/>
<text text-anchor="start" x="624.5" y="-618.4" font-family="Arial" font-size="14.00" fill="#000000">start_date </text>
<text text-anchor="start" x="690.636" y="-618.4" font-family="Arial" font-size="14.00" fill="#666666">[date]</text>
<text text-anchor="start" x="725.6556" y="-618.4" font-family="Arial" font-size="14.00" fill="#000000"> 開始日</text>
<polygon fill="none" stroke="#000000" points="617.5,-577 617.5,-607 918.5,-607 918.5,-577 617.5,-577"/>
<text text-anchor="start" x="624.5" y="-588.4" font-family="Arial" font-size="14.00" fill="#000000">done_ratio </text>
<text text-anchor="start" x="694.5266" y="-588.4" font-family="Arial" font-size="14.00" fill="#666666">[int(11)]</text>
<text text-anchor="start" x="741.974" y="-588.4" font-family="Arial" font-size="14.00" fill="#000000"> 進捗率</text>
<polygon fill="none" stroke="#000000" points="617.5,-547 617.5,-577 918.5,-577 918.5,-547 617.5,-547"/>
<text text-anchor="start" x="624.5" y="-558.4" font-family="Arial" font-size="14.00" fill="#000000">estimated_hours </text>
<text text-anchor="start" x="731.8604" y="-558.4" font-family="Arial" font-size="14.00" fill="#666666">[float]</text>
<text text-anchor="start" x="766.0946" y="-558.4" font-family="Arial" font-size="14.00" fill="#000000"> 予定工数</text>
<polygon fill="none" stroke="#000000" points="617.5,-517 617.5,-547 918.5,-547 918.5,-517 617.5,-517"/>
<text text-anchor="start" x="624.5" y="-528.4" font-family="Arial" font-size="14.00" fill="#000000">parent_id </text>
<text text-anchor="start" x="686.744" y="-528.4" font-family="Arial" font-size="14.00" fill="#666666">[int(11)]</text>
<text text-anchor="start" x="734.1914" y="-528.4" font-family="Arial" font-size="14.00" fill="#000000"> 親チケット</text>
<polygon fill="none" stroke="#000000" points="617.5,-487 617.5,-517 918.5,-517 918.5,-487 617.5,-487"/>
<text text-anchor="start" x="624.5" y="-498.4" font-family="Arial" font-size="14.00" fill="#000000">root_id </text>
<text text-anchor="start" x="671.1788" y="-498.4" font-family="Arial" font-size="14.00" fill="#666666">[int(11)]</text>
<text text-anchor="start" x="718.6262" y="-498.4" font-family="Arial" font-size="14.00" fill="#000000"> ルートID</text>
<polygon fill="none" stroke="#000000" points="617.5,-457 617.5,-487 918.5,-487 918.5,-457 617.5,-457"/>
<text text-anchor="start" x="624.5" y="-468.4" font-family="Arial" font-size="14.00" fill="#000000">lft </text>
<text text-anchor="start" x="639.2784" y="-468.4" font-family="Arial" font-size="14.00" fill="#666666">[int(11)]</text>
<text text-anchor="start" x="686.7258" y="-468.4" font-family="Arial" font-size="14.00" fill="#000000"> 左ノードポインタ</text>
<polygon fill="none" stroke="#000000" points="617.5,-427 617.5,-457 918.5,-457 918.5,-427 617.5,-427"/>
<text text-anchor="start" x="624.5" y="-438.4" font-family="Arial" font-size="14.00" fill="#000000">rgt </text>
<text text-anchor="start" x="644.7244" y="-438.4" font-family="Arial" font-size="14.00" fill="#666666">[int(11)]</text>
<text text-anchor="start" x="692.1718" y="-438.4" font-family="Arial" font-size="14.00" fill="#000000"> 右ノードポインタ</text>
<polygon fill="none" stroke="#000000" points="617.5,-397 617.5,-427 918.5,-427 918.5,-397 617.5,-397"/>
<text text-anchor="start" x="624.5" y="-408.4" font-family="Arial" font-size="14.00" fill="#000000">is_private </text>
<text text-anchor="start" x="688.2854" y="-408.4" font-family="Arial" font-size="14.00" fill="#666666">[tinyint(1)]</text>
<text text-anchor="start" x="749.73" y="-408.4" font-family="Arial" font-size="14.00" fill="#000000"> プライベート</text>
<polygon fill="none" stroke="#000000" points="617.5,-367 617.5,-397 918.5,-397 918.5,-367 617.5,-367"/>
<text text-anchor="start" x="624.5" y="-378.4" font-family="Arial" font-size="14.00" fill="#000000">closed_on </text>
<text text-anchor="start" x="692.1928" y="-378.4" font-family="Arial" font-size="14.00" fill="#666666">[datetime]</text>
<text text-anchor="start" x="753.6528" y="-378.4" font-family="Arial" font-size="14.00" fill="#000000"> 完了日時</text>
</g>
<!-- issues&#45;&gt;issue_statuses -->
<g id="edge4" class="edge">
<title>issues:status_id&#45;&gt;issue_statuses:id</title>
<path fill="none" stroke="#000000" stroke-dasharray="5,2" d="M608.0679,-858.0007C547.0212,-802.1906 605.3283,-181 532.5,-181"/>
<polygon fill="#000000" stroke="#000000" points="608.2934,-858.0963 615.7433,-866.143 612.8967,-860.0482 617.5,-862 617.5,-862 617.5,-862 612.8967,-860.0482 619.2567,-857.857 608.2934,-858.0963 608.2934,-858.0963"/>
<text text-anchor="start" x="527.8245" y="-872" font-family="Arial" font-size="10.00" fill="#000000">Additional Relation</text>
</g>
</g>
</svg>
