<?xml version="1.0" encoding="UTF-8" standalone="no"?>
<!DOCTYPE svg PUBLIC "-//W3C//DTD SVG 1.1//EN"
 "http://www.w3.org/Graphics/SVG/1.1/DTD/svg11.dtd">
<!-- Generated by graphviz version 2.40.1 (20161225.0304)
 -->
<!-- Title: issue_relations Pages: 1 -->
<svg width="1793pt" height="1184pt"
 viewBox="0.00 0.00 1793.00 1184.00" xmlns="http://www.w3.org/2000/svg" xmlns:xlink="http://www.w3.org/1999/xlink">
<g id="graph0" class="graph" transform="scale(1 1) rotate(0) translate(4 1180)">
<title>issue_relations</title>
<polygon fill="#ffffff" stroke="transparent" points="-4,4 -4,-1180 1789,-1180 1789,4 -4,4"/>
<!-- issue_relations -->
<g id="node1" class="node">
<title>issue_relations</title>
<polygon fill="#efefef" stroke="transparent" points="97,-1084 97,-1130 1739,-1130 1739,-1084 97,-1084"/>
<polygon fill="none" stroke="#000000" points="97,-1084 97,-1130 1739,-1130 1739,-1084 97,-1084"/>
<text text-anchor="start" x="809.3629" y="-1107.8" font-family="Arial Bold" font-size="18.00" fill="#000000">issue_relations</text>
<text text-anchor="start" x="929.3833" y="-1107.8" font-family="Arial" font-size="14.00" fill="#000000"> </text>
<text text-anchor="start" x="933.2739" y="-1107.8" font-family="Arial" font-size="14.00" fill="#666666">[BASE TABLE]</text>
<text text-anchor="start" x="867.5706" y="-1093.4" font-family="Arial" font-size="14.00" fill="#333333">関連チケット</text>
<polygon fill="none" stroke="#000000" points="97,-1054 97,-1084 1739,-1084 1739,-1054 97,-1054"/>
<text text-anchor="start" x="104" y="-1065.4" font-family="Arial" font-size="14.00" fill="#000000">id </text>
<text text-anchor="start" x="118.7798" y="-1065.4" font-family="Arial" font-size="14.00" fill="#666666">[int(11)]</text>
<polygon fill="none" stroke="#000000" points="97,-1024 97,-1054 1739,-1054 1739,-1024 97,-1024"/>
<text text-anchor="start" x="104" y="-1035.4" font-family="Arial" font-size="14.00" fill="#000000">issue_from_id </text>
<text text-anchor="start" x="195.0112" y="-1035.4" font-family="Arial" font-size="14.00" fill="#666666">[int(11)]</text>
<text text-anchor="start" x="242.4586" y="-1035.4" font-family="Arial" font-size="14.00" fill="#000000"> 関連元チケットID</text>
<polygon fill="none" stroke="#000000" points="97,-994 97,-1024 1739,-1024 1739,-994 97,-994"/>
<text text-anchor="start" x="104" y="-1005.4" font-family="Arial" font-size="14.00" fill="#000000">issue_to_id </text>
<text text-anchor="start" x="178.69" y="-1005.4" font-family="Arial" font-size="14.00" fill="#666666">[int(11)]</text>
<text text-anchor="start" x="226.1374" y="-1005.4" font-family="Arial" font-size="14.00" fill="#000000"> 関連先チケットID</text>
<polygon fill="none" stroke="#000000" points="97,-964 97,-994 1739,-994 1739,-964 97,-964"/>
<text text-anchor="start" x="103.7509" y="-975.4" font-family="Arial" font-size="14.00" fill="#000000">relation_type </text>
<text text-anchor="start" x="187.7747" y="-975.4" font-family="Arial" font-size="14.00" fill="#666666">[varchar(255)]</text>
<text text-anchor="start" x="274.8939" y="-975.4" font-family="Arial" font-size="14.00" fill="#000000"> relates:関連している duplicates:次のチケットと重複 duplicated:次のチケットが重複 blocks:ブロック先 blocked:ブロック元 precedes:次のチケットに先行 follows:次のチケットに後続 copied_to:コピー先 copied_from:コピー元 </text>
<polygon fill="none" stroke="#000000" points="97,-934 97,-964 1739,-964 1739,-934 97,-934"/>
<text text-anchor="start" x="104" y="-945.4" font-family="Arial" font-size="14.00" fill="#000000">delay </text>
<text text-anchor="start" x="141.345" y="-945.4" font-family="Arial" font-size="14.00" fill="#666666">[int(11)]</text>
<text text-anchor="start" x="188.7924" y="-945.4" font-family="Arial" font-size="14.00" fill="#000000"> 遅延日数</text>
<polygon fill="none" stroke="#000000" stroke-width="3" points="95.5,-932.5 95.5,-1131.5 1740.5,-1131.5 1740.5,-932.5 95.5,-932.5"/>
</g>
<!-- issues -->
<g id="node2" class="node">
<title>issues</title>
<polygon fill="#efefef" stroke="transparent" points="767,-763 767,-809 1068,-809 1068,-763 767,-763"/>
<polygon fill="none" stroke="#000000" points="767,-763 767,-809 1068,-809 1068,-763 767,-763"/>
<text text-anchor="start" x="843.3698" y="-786.8" font-family="Arial Bold" font-size="18.00" fill="#000000">issues</text>
<text text-anchor="start" x="894.3764" y="-786.8" font-family="Arial" font-size="14.00" fill="#000000"> </text>
<text text-anchor="start" x="898.267" y="-786.8" font-family="Arial" font-size="14.00" fill="#666666">[BASE TABLE]</text>
<text text-anchor="start" x="889.6344" y="-772.4" font-family="Arial" font-size="14.00" fill="#333333">チケット</text>
<polygon fill="none" stroke="#000000" points="767,-733 767,-763 1068,-763 1068,-733 767,-733"/>
<text text-anchor="start" x="774" y="-744.4" font-family="Arial" font-size="14.00" fill="#000000">id </text>
<text text-anchor="start" x="788.7798" y="-744.4" font-family="Arial" font-size="14.00" fill="#666666">[int(11)]</text>
<polygon fill="none" stroke="#000000" points="767,-703 767,-733 1068,-733 1068,-703 767,-703"/>
<text text-anchor="start" x="774" y="-714.4" font-family="Arial" font-size="14.00" fill="#000000">tracker_id </text>
<text text-anchor="start" x="839.3394" y="-714.4" font-family="Arial" font-size="14.00" fill="#666666">[int(11)]</text>
<text text-anchor="start" x="886.7868" y="-714.4" font-family="Arial" font-size="14.00" fill="#000000"> トラッカーID</text>
<polygon fill="none" stroke="#000000" points="767,-673 767,-703 1068,-703 1068,-673 767,-673"/>
<text text-anchor="start" x="774" y="-684.4" font-family="Arial" font-size="14.00" fill="#000000">project_id </text>
<text text-anchor="start" x="838.568" y="-684.4" font-family="Arial" font-size="14.00" fill="#666666">[int(11)]</text>
<text text-anchor="start" x="886.0154" y="-684.4" font-family="Arial" font-size="14.00" fill="#000000"> プロジェクトID</text>
<polygon fill="none" stroke="#000000" points="767,-643 767,-673 1068,-673 1068,-643 767,-643"/>
<text text-anchor="start" x="774" y="-654.4" font-family="Arial" font-size="14.00" fill="#000000">subject </text>
<text text-anchor="start" x="822.2356" y="-654.4" font-family="Arial" font-size="14.00" fill="#666666">[varchar(255)]</text>
<text text-anchor="start" x="909.3548" y="-654.4" font-family="Arial" font-size="14.00" fill="#000000"> 題名</text>
<polygon fill="none" stroke="#000000" points="767,-613 767,-643 1068,-643 1068,-613 767,-613"/>
<text text-anchor="start" x="774" y="-624.4" font-family="Arial" font-size="14.00" fill="#000000">description </text>
<text text-anchor="start" x="845.568" y="-624.4" font-family="Arial" font-size="14.00" fill="#666666">[longtext]</text>
<text text-anchor="start" x="902.3674" y="-624.4" font-family="Arial" font-size="14.00" fill="#000000"> 説明</text>
<polygon fill="none" stroke="#000000" points="767,-583 767,-613 1068,-613 1068,-583 767,-583"/>
<text text-anchor="start" x="774" y="-594.4" font-family="Arial" font-size="14.00" fill="#000000">due_date </text>
<text text-anchor="start" x="836.2594" y="-594.4" font-family="Arial" font-size="14.00" fill="#666666">[date]</text>
<text text-anchor="start" x="871.279" y="-594.4" font-family="Arial" font-size="14.00" fill="#000000"> 期日</text>
<polygon fill="none" stroke="#000000" points="767,-553 767,-583 1068,-583 1068,-553 767,-553"/>
<text text-anchor="start" x="774" y="-564.4" font-family="Arial" font-size="14.00" fill="#000000">category_id </text>
<text text-anchor="start" x="850.244" y="-564.4" font-family="Arial" font-size="14.00" fill="#666666">[int(11)]</text>
<text text-anchor="start" x="897.6914" y="-564.4" font-family="Arial" font-size="14.00" fill="#000000"> カテゴリーID</text>
<polygon fill="none" stroke="#000000" points="767,-523 767,-553 1068,-553 1068,-523 767,-523"/>
<text text-anchor="start" x="774" y="-534.4" font-family="Arial" font-size="14.00" fill="#000000">status_id </text>
<text text-anchor="start" x="833.9088" y="-534.4" font-family="Arial" font-size="14.00" fill="#666666">[int(11)]</text>
<text text-anchor="start" x="881.3562" y="-534.4" font-family="Arial" font-size="14.00" fill="#000000"> ステータスID</text>
<polygon fill="none" stroke="#000000" points="767,-493 767,-523 1068,-523 1068,-493 767,-493"/>
<text text-anchor="start" x="774" y="-504.4" font-family="Arial" font-size="14.00" fill="#000000">assigned_to_id </text>
<text text-anchor="start" x="872.0378" y="-504.4" font-family="Arial" font-size="14.00" fill="#666666">[int(11)]</text>
<text text-anchor="start" x="919.4852" y="-504.4" font-family="Arial" font-size="14.00" fill="#000000"> 担当者ID</text>
<polygon fill="none" stroke="#000000" points="767,-463 767,-493 1068,-493 1068,-463 767,-463"/>
<text text-anchor="start" x="774" y="-474.4" font-family="Arial" font-size="14.00" fill="#000000">priority_id </text>
<text text-anchor="start" x="838.5526" y="-474.4" font-family="Arial" font-size="14.00" fill="#666666">[int(11)]</text>
<text text-anchor="start" x="886" y="-474.4" font-family="Arial" font-size="14.00" fill="#000000"> 優先度ID</text>
<polygon fill="none" stroke="#000000" points="767,-433 767,-463 1068,-463 1068,-433 767,-433"/>
<text text-anchor="start" x="773.8635" y="-444.4" font-family="Arial" font-size="14.00" fill="#000000">fixed_version_id </text>
<text text-anchor="start" x="878.8859" y="-444.4" font-family="Arial" font-size="14.00" fill="#666666">[int(11)]</text>
<text text-anchor="start" x="926.3333" y="-444.4" font-family="Arial" font-size="14.00" fill="#000000"> 対象バージョンID</text>
<polygon fill="none" stroke="#000000" points="767,-403 767,-433 1068,-433 1068,-403 767,-403"/>
<text text-anchor="start" x="774" y="-414.4" font-family="Arial" font-size="14.00" fill="#000000">author_id </text>
<text text-anchor="start" x="836.244" y="-414.4" font-family="Arial" font-size="14.00" fill="#666666">[int(11)]</text>
<text text-anchor="start" x="883.6914" y="-414.4" font-family="Arial" font-size="14.00" fill="#000000"> 登録者ID</text>
<polygon fill="none" stroke="#000000" points="767,-373 767,-403 1068,-403 1068,-373 767,-373"/>
<text text-anchor="start" x="774" y="-384.4" font-family="Arial" font-size="14.00" fill="#000000">lock_version </text>
<text text-anchor="start" x="855.6774" y="-384.4" font-family="Arial" font-size="14.00" fill="#666666">[int(11)]</text>
<text text-anchor="start" x="903.1248" y="-384.4" font-family="Arial" font-size="14.00" fill="#000000"> ロックバージョン</text>
<polygon fill="none" stroke="#000000" points="767,-343 767,-373 1068,-373 1068,-343 767,-343"/>
<text text-anchor="start" x="774" y="-354.4" font-family="Arial" font-size="14.00" fill="#000000">created_on </text>
<text text-anchor="start" x="847.92" y="-354.4" font-family="Arial" font-size="14.00" fill="#666666">[timestamp]</text>
<polygon fill="none" stroke="#000000" points="767,-313 767,-343 1068,-343 1068,-313 767,-313"/>
<text text-anchor="start" x="774" y="-324.4" font-family="Arial" font-size="14.00" fill="#000000">updated_on </text>
<text text-anchor="start" x="851.8246" y="-324.4" font-family="Arial" font-size="14.00" fill="#666666">[timestamp]</text>
<polygon fill="none" stroke="#000000" points="767,-283 767,-313 1068,-313 1068,-283 767,-283"/>
<text text-anchor="start" x="774" y="-294.4" font-family="Arial" font-size="14.00" fill="#000000">start_date </text>
<text text-anchor="start" x="840.136" y="-294.4" font-family="Arial" font-size="14.00" fill="#666666">[date]</text>
<text text-anchor="start" x="875.1556" y="-294.4" font-family="Arial" font-size="14.00" fill="#000000"> 開始日</text>
<polygon fill="none" stroke="#000000" points="767,-253 767,-283 1068,-283 1068,-253 767,-253"/>
<text text-anchor="start" x="774" y="-264.4" font-family="Arial" font-size="14.00" fill="#000000">done_ratio </text>
<text text-anchor="start" x="844.0266" y="-264.4" font-family="Arial" font-size="14.00" fill="#666666">[int(11)]</text>
<text text-anchor="start" x="891.474" y="-264.4" font-family="Arial" font-size="14.00" fill="#000000"> 進捗率</text>
<polygon fill="none" stroke="#000000" points="767,-223 767,-253 1068,-253 1068,-223 767,-223"/>
<text text-anchor="start" x="774" y="-234.4" font-family="Arial" font-size="14.00" fill="#000000">estimated_hours </text>
<text text-anchor="start" x="881.3604" y="-234.4" font-family="Arial" font-size="14.00" fill="#666666">[float]</text>
<text text-anchor="start" x="915.5946" y="-234.4" font-family="Arial" font-size="14.00" fill="#000000"> 予定工数</text>
<polygon fill="none" stroke="#000000" points="767,-193 767,-223 1068,-223 1068,-193 767,-193"/>
<text text-anchor="start" x="774" y="-204.4" font-family="Arial" font-size="14.00" fill="#000000">parent_id </text>
<text text-anchor="start" x="836.244" y="-204.4" font-family="Arial" font-size="14.00" fill="#666666">[int(11)]</text>
<text text-anchor="start" x="883.6914" y="-204.4" font-family="Arial" font-size="14.00" fill="#000000"> 親チケット</text>
<polygon fill="none" stroke="#000000" points="767,-163 767,-193 1068,-193 1068,-163 767,-163"/>
<text text-anchor="start" x="774" y="-174.4" font-family="Arial" font-size="14.00" fill="#000000">root_id </text>
<text text-anchor="start" x="820.6788" y="-174.4" font-family="Arial" font-size="14.00" fill="#666666">[int(11)]</text>
<text text-anchor="start" x="868.1262" y="-174.4" font-family="Arial" font-size="14.00" fill="#000000"> ルートID</text>
<polygon fill="none" stroke="#000000" points="767,-133 767,-163 1068,-163 1068,-133 767,-133"/>
<text text-anchor="start" x="774" y="-144.4" font-family="Arial" font-size="14.00" fill="#000000">lft </text>
<text text-anchor="start" x="788.7784" y="-144.4" font-family="Arial" font-size="14.00" fill="#666666">[int(11)]</text>
<text text-anchor="start" x="836.2258" y="-144.4" font-family="Arial" font-size="14.00" fill="#000000"> 左ノードポインタ</text>
<polygon fill="none" stroke="#000000" points="767,-103 767,-133 1068,-133 1068,-103 767,-103"/>
<text text-anchor="start" x="774" y="-114.4" font-family="Arial" font-size="14.00" fill="#000000">rgt </text>
<text text-anchor="start" x="794.2244" y="-114.4" font-family="Arial" font-size="14.00" fill="#666666">[int(11)]</text>
<text text-anchor="start" x="841.6718" y="-114.4" font-family="Arial" font-size="14.00" fill="#000000"> 右ノードポインタ</text>
<polygon fill="none" stroke="#000000" points="767,-73 767,-103 1068,-103 1068,-73 767,-73"/>
<text text-anchor="start" x="774" y="-84.4" font-family="Arial" font-size="14.00" fill="#000000">is_private </text>
<text text-anchor="start" x="837.7854" y="-84.4" font-family="Arial" font-size="14.00" fill="#666666">[tinyint(1)]</text>
<text text-anchor="start" x="899.23" y="-84.4" font-family="Arial" font-size="14.00" fill="#000000"> プライベート</text>
<polygon fill="none" stroke="#000000" points="767,-43 767,-73 1068,-73 1068,-43 767,-43"/>
<text text-anchor="start" x="774" y="-54.4" font-family="Arial" font-size="14.00" fill="#000000">closed_on </text>
<text text-anchor="start" x="841.6928" y="-54.4" font-family="Arial" font-size="14.00" fill="#666666">[datetime]</text>
<text text-anchor="start" x="903.1528" y="-54.4" font-family="Arial" font-size="14.00" fill="#000000"> 完了日時</text>
</g>
<!-- issue_relations&#45;&gt;issues -->
<g id="edge1" class="edge">
<title>issue_relations:issue_from_id&#45;&gt;issues:id</title>
<path fill="none" stroke="#000000" stroke-dasharray="5,2" d="M86.766,-1038.1045C32.2137,-1027.9326 52.9793,-933.683 97,-888 171.9138,-810.2573 993.0862,-929.7427 1068,-852 1100.0729,-818.716 1114.2222,-748 1068,-748"/>
<polygon fill="#000000" stroke="#000000" points="87.0381,-1038.1282 96.6077,-1043.4829 92.019,-1038.5641 97,-1039 97,-1039 97,-1039 92.019,-1038.5641 97.3923,-1034.5171 87.0381,-1038.1282 87.0381,-1038.1282"/>
<text text-anchor="start" x="7.3245" y="-1049" font-family="Arial" font-size="10.00" fill="#000000">Additional Relation</text>
</g>
<!-- issue_relations&#45;&gt;issues -->
<g id="edge2" class="edge">
<title>issue_relations:issue_to_id&#45;&gt;issues:id</title>
<path fill="none" stroke="#000000" stroke-dasharray="5,2" d="M86.9403,-1007.8868C45.5704,-997.9549 62.2353,-924.0775 97,-888 171.9138,-810.2573 993.0862,-929.7427 1068,-852 1100.0729,-818.716 1114.2222,-748 1068,-748"/>
<polygon fill="#000000" stroke="#000000" points="87.0607,-1007.9 96.505,-1013.4727 92.0303,-1008.45 97,-1009 97,-1009 97,-1009 92.0303,-1008.45 97.495,-1004.5273 87.0607,-1007.9 87.0607,-1007.9"/>
<text text-anchor="start" x="7.3245" y="-1019" font-family="Arial" font-size="10.00" fill="#000000">Additional Relation</text>
</g>
</g>
</svg>
