<?xml version="1.0" encoding="UTF-8" standalone="no"?>
<!DOCTYPE svg PUBLIC "-//W3C//DTD SVG 1.1//EN"
 "http://www.w3.org/Graphics/SVG/1.1/DTD/svg11.dtd">
<!-- Generated by graphviz version 2.40.1 (20161225.0304)
 -->
<!-- Title: journal_details Pages: 1 -->
<svg width="571pt" height="704pt"
 viewBox="0.00 0.00 571.00 704.00" xmlns="http://www.w3.org/2000/svg" xmlns:xlink="http://www.w3.org/1999/xlink">
<g id="graph0" class="graph" transform="scale(1 1) rotate(0) translate(4 700)">
<title>journal_details</title>
<polygon fill="#ffffff" stroke="transparent" points="-4,4 -4,-700 567,-700 567,4 -4,4"/>
<!-- journal_details -->
<g id="node1" class="node">
<title>journal_details</title>
<polygon fill="#efefef" stroke="transparent" points="95.5,-604 95.5,-650 469.5,-650 469.5,-604 95.5,-604"/>
<polygon fill="none" stroke="#000000" points="95.5,-604 95.5,-650 469.5,-650 469.5,-604 95.5,-604"/>
<text text-anchor="start" x="175.8627" y="-627.8" font-family="Arial Bold" font-size="18.00" fill="#000000">journal_details</text>
<text text-anchor="start" x="291.8835" y="-627.8" font-family="Arial" font-size="14.00" fill="#000000"> </text>
<text text-anchor="start" x="295.7741" y="-627.8" font-family="Arial" font-size="14.00" fill="#666666">[BASE TABLE]</text>
<text text-anchor="start" x="226.591" y="-613.4" font-family="Arial" font-size="14.00" fill="#333333">ジャーナル詳細</text>
<polygon fill="none" stroke="#000000" points="95.5,-574 95.5,-604 469.5,-604 469.5,-574 95.5,-574"/>
<text text-anchor="start" x="102.5" y="-585.4" font-family="Arial" font-size="14.00" fill="#000000">id </text>
<text text-anchor="start" x="117.2798" y="-585.4" font-family="Arial" font-size="14.00" fill="#666666">[int(11)]</text>
<polygon fill="none" stroke="#000000" points="95.5,-544 95.5,-574 469.5,-574 469.5,-544 95.5,-544"/>
<text text-anchor="start" x="102.5" y="-555.4" font-family="Arial" font-size="14.00" fill="#000000">journal_id </text>
<text text-anchor="start" x="167.0666" y="-555.4" font-family="Arial" font-size="14.00" fill="#666666">[int(11)]</text>
<text text-anchor="start" x="214.514" y="-555.4" font-family="Arial" font-size="14.00" fill="#000000"> ジャーナルID</text>
<polygon fill="none" stroke="#000000" points="95.5,-514 95.5,-544 469.5,-544 469.5,-514 95.5,-514"/>
<text text-anchor="start" x="102.4397" y="-525.4" font-family="Arial" font-size="14.00" fill="#000000">property </text>
<text text-anchor="start" x="157.6725" y="-525.4" font-family="Arial" font-size="14.00" fill="#666666">[varchar(30)]</text>
<text text-anchor="start" x="237.0091" y="-525.4" font-family="Arial" font-size="14.00" fill="#000000"> attr:属性 cf:カスタムフィールド </text>
<polygon fill="none" stroke="#000000" points="95.5,-484 95.5,-514 469.5,-514 469.5,-484 95.5,-484"/>
<text text-anchor="start" x="102.5" y="-495.4" font-family="Arial" font-size="14.00" fill="#000000">prop_key </text>
<text text-anchor="start" x="163.9642" y="-495.4" font-family="Arial" font-size="14.00" fill="#666666">[varchar(30)]</text>
<text text-anchor="start" x="243.3008" y="-495.4" font-family="Arial" font-size="14.00" fill="#000000"> 項目</text>
<polygon fill="none" stroke="#000000" points="95.5,-454 95.5,-484 469.5,-484 469.5,-454 95.5,-454"/>
<text text-anchor="start" x="102.5" y="-465.4" font-family="Arial" font-size="14.00" fill="#000000">old_value </text>
<text text-anchor="start" x="166.2994" y="-465.4" font-family="Arial" font-size="14.00" fill="#666666">[longtext]</text>
<text text-anchor="start" x="223.0988" y="-465.4" font-family="Arial" font-size="14.00" fill="#000000"> 変更前の値</text>
<polygon fill="none" stroke="#000000" points="95.5,-424 95.5,-454 469.5,-454 469.5,-424 95.5,-424"/>
<text text-anchor="start" x="102.5" y="-435.4" font-family="Arial" font-size="14.00" fill="#000000">value </text>
<text text-anchor="start" x="139.845" y="-435.4" font-family="Arial" font-size="14.00" fill="#666666">[longtext]</text>
<text text-anchor="start" x="196.6444" y="-435.4" font-family="Arial" font-size="14.00" fill="#000000"> 変更後の値</text>
<polygon fill="none" stroke="#000000" stroke-width="3" points="94,-422.5 94,-651.5 471,-651.5 471,-422.5 94,-422.5"/>
</g>
<!-- journals -->
<g id="node2" class="node">
<title>journals</title>
<polygon fill="#efefef" stroke="transparent" points="43.5,-253 43.5,-299 520.5,-299 520.5,-253 43.5,-253"/>
<polygon fill="none" stroke="#000000" points="43.5,-253 43.5,-299 520.5,-299 520.5,-253 43.5,-253"/>
<text text-anchor="start" x="201.8704" y="-276.8" font-family="Arial Bold" font-size="18.00" fill="#000000">journals</text>
<text text-anchor="start" x="264.8758" y="-276.8" font-family="Arial" font-size="14.00" fill="#000000"> </text>
<text text-anchor="start" x="268.7664" y="-276.8" font-family="Arial" font-size="14.00" fill="#666666">[BASE TABLE]</text>
<text text-anchor="start" x="241.0458" y="-262.4" font-family="Arial" font-size="14.00" fill="#333333">ジャーナル</text>
<polygon fill="none" stroke="#000000" points="43.5,-223 43.5,-253 520.5,-253 520.5,-223 43.5,-223"/>
<text text-anchor="start" x="50.5" y="-234.4" font-family="Arial" font-size="14.00" fill="#000000">id </text>
<text text-anchor="start" x="65.2798" y="-234.4" font-family="Arial" font-size="14.00" fill="#666666">[int(11)]</text>
<polygon fill="none" stroke="#000000" points="43.5,-193 43.5,-223 520.5,-223 520.5,-193 43.5,-193"/>
<text text-anchor="start" x="50.5" y="-204.4" font-family="Arial" font-size="14.00" fill="#000000">journalized_id </text>
<text text-anchor="start" x="140.7384" y="-204.4" font-family="Arial" font-size="14.00" fill="#666666">[int(11)]</text>
<polygon fill="none" stroke="#000000" points="43.5,-163 43.5,-193 520.5,-193 520.5,-163 43.5,-163"/>
<text text-anchor="start" x="50.4575" y="-174.4" font-family="Arial" font-size="14.00" fill="#000000">journalized_type </text>
<text text-anchor="start" x="156.2625" y="-174.4" font-family="Arial" font-size="14.00" fill="#666666">[varchar(30)]</text>
<text text-anchor="start" x="235.5991" y="-174.4" font-family="Arial" font-size="14.00" fill="#000000"> Issue:チケット Changeset:チェンジセット </text>
<polygon fill="none" stroke="#000000" points="43.5,-133 43.5,-163 520.5,-163 520.5,-133 43.5,-133"/>
<text text-anchor="start" x="50.5" y="-144.4" font-family="Arial" font-size="14.00" fill="#000000">user_id </text>
<text text-anchor="start" x="100.2882" y="-144.4" font-family="Arial" font-size="14.00" fill="#666666">[int(11)]</text>
<polygon fill="none" stroke="#000000" points="43.5,-103 43.5,-133 520.5,-133 520.5,-103 43.5,-103"/>
<text text-anchor="start" x="50.5" y="-114.4" font-family="Arial" font-size="14.00" fill="#000000">notes </text>
<text text-anchor="start" x="88.629" y="-114.4" font-family="Arial" font-size="14.00" fill="#666666">[longtext]</text>
<polygon fill="none" stroke="#000000" points="43.5,-73 43.5,-103 520.5,-103 520.5,-73 43.5,-73"/>
<text text-anchor="start" x="50.5" y="-84.4" font-family="Arial" font-size="14.00" fill="#000000">created_on </text>
<text text-anchor="start" x="124.42" y="-84.4" font-family="Arial" font-size="14.00" fill="#666666">[datetime]</text>
<polygon fill="none" stroke="#000000" points="43.5,-43 43.5,-73 520.5,-73 520.5,-43 43.5,-43"/>
<text text-anchor="start" x="50.5" y="-54.4" font-family="Arial" font-size="14.00" fill="#000000">private_notes </text>
<text text-anchor="start" x="138.4172" y="-54.4" font-family="Arial" font-size="14.00" fill="#666666">[tinyint(1)]</text>
</g>
<!-- journal_details&#45;&gt;journals -->
<g id="edge1" class="edge">
<title>journal_details:journal_id&#45;&gt;journals:id</title>
<path fill="none" stroke="#000000" stroke-dasharray="5,2" d="M85.2963,-558.2795C17.4502,-548.1863 43.5157,-434.5738 95.5,-378 159.6307,-308.2074 456.3693,-411.7926 520.5,-342 551.7743,-307.9646 566.7222,-238 520.5,-238"/>
<polygon fill="#000000" stroke="#000000" points="85.5248,-558.2956 95.183,-563.4888 90.5124,-558.6478 95.5,-559 95.5,-559 95.5,-559 90.5124,-558.6478 95.817,-554.5112 85.5248,-558.2956 85.5248,-558.2956"/>
<text text-anchor="start" x="9.768" y="-569" font-family="Arial" font-size="10.00" fill="#000000">Detected Relation</text>
</g>
</g>
</svg>
