<?xml version="1.0" encoding="UTF-8" standalone="no"?>
<!DOCTYPE svg PUBLIC "-//W3C//DTD SVG 1.1//EN"
 "http://www.w3.org/Graphics/SVG/1.1/DTD/svg11.dtd">
<!-- Generated by graphviz version 2.40.1 (20161225.0304)
 -->
<!-- Title: journals Pages: 1 -->
<svg width="648pt" height="1491pt"
 viewBox="0.00 0.00 647.84 1491.00" xmlns="http://www.w3.org/2000/svg" xmlns:xlink="http://www.w3.org/1999/xlink">
<g id="graph0" class="graph" transform="scale(1 1) rotate(0) translate(4 1487)">
<title>journals</title>
<polygon fill="#ffffff" stroke="transparent" points="-4,4 -4,-1487 643.8414,-1487 643.8414,4 -4,4"/>
<!-- journals -->
<g id="node1" class="node">
<title>journals</title>
<polygon fill="#efefef" stroke="transparent" points="69.8414,-1054 69.8414,-1100 546.8414,-1100 546.8414,-1054 69.8414,-1054"/>
<polygon fill="none" stroke="#000000" points="69.8414,-1054 69.8414,-1100 546.8414,-1100 546.8414,-1054 69.8414,-1054"/>
<text text-anchor="start" x="228.2118" y="-1077.8" font-family="Arial Bold" font-size="18.00" fill="#000000">journals</text>
<text text-anchor="start" x="291.2172" y="-1077.8" font-family="Arial" font-size="14.00" fill="#000000"> </text>
<text text-anchor="start" x="295.1078" y="-1077.8" font-family="Arial" font-size="14.00" fill="#666666">[BASE TABLE]</text>
<text text-anchor="start" x="267.3872" y="-1063.4" font-family="Arial" font-size="14.00" fill="#333333">ジャーナル</text>
<polygon fill="none" stroke="#000000" points="69.8414,-1024 69.8414,-1054 546.8414,-1054 546.8414,-1024 69.8414,-1024"/>
<text text-anchor="start" x="76.8414" y="-1035.4" font-family="Arial" font-size="14.00" fill="#000000">id </text>
<text text-anchor="start" x="91.6212" y="-1035.4" font-family="Arial" font-size="14.00" fill="#666666">[int(11)]</text>
<polygon fill="none" stroke="#000000" points="69.8414,-994 69.8414,-1024 546.8414,-1024 546.8414,-994 69.8414,-994"/>
<text text-anchor="start" x="76.8414" y="-1005.4" font-family="Arial" font-size="14.00" fill="#000000">journalized_id </text>
<text text-anchor="start" x="167.0798" y="-1005.4" font-family="Arial" font-size="14.00" fill="#666666">[int(11)]</text>
<polygon fill="none" stroke="#000000" points="69.8414,-964 69.8414,-994 546.8414,-994 546.8414,-964 69.8414,-964"/>
<text text-anchor="start" x="76.7989" y="-975.4" font-family="Arial" font-size="14.00" fill="#000000">journalized_type </text>
<text text-anchor="start" x="182.6039" y="-975.4" font-family="Arial" font-size="14.00" fill="#666666">[varchar(30)]</text>
<text text-anchor="start" x="261.9405" y="-975.4" font-family="Arial" font-size="14.00" fill="#000000"> Issue:チケット Changeset:チェンジセット </text>
<polygon fill="none" stroke="#000000" points="69.8414,-934 69.8414,-964 546.8414,-964 546.8414,-934 69.8414,-934"/>
<text text-anchor="start" x="76.8414" y="-945.4" font-family="Arial" font-size="14.00" fill="#000000">user_id </text>
<text text-anchor="start" x="126.6296" y="-945.4" font-family="Arial" font-size="14.00" fill="#666666">[int(11)]</text>
<polygon fill="none" stroke="#000000" points="69.8414,-904 69.8414,-934 546.8414,-934 546.8414,-904 69.8414,-904"/>
<text text-anchor="start" x="76.8414" y="-915.4" font-family="Arial" font-size="14.00" fill="#000000">notes </text>
<text text-anchor="start" x="114.9704" y="-915.4" font-family="Arial" font-size="14.00" fill="#666666">[longtext]</text>
<polygon fill="none" stroke="#000000" points="69.8414,-874 69.8414,-904 546.8414,-904 546.8414,-874 69.8414,-874"/>
<text text-anchor="start" x="76.8414" y="-885.4" font-family="Arial" font-size="14.00" fill="#000000">created_on </text>
<text text-anchor="start" x="150.7614" y="-885.4" font-family="Arial" font-size="14.00" fill="#666666">[datetime]</text>
<polygon fill="none" stroke="#000000" points="69.8414,-844 69.8414,-874 546.8414,-874 546.8414,-844 69.8414,-844"/>
<text text-anchor="start" x="76.8414" y="-855.4" font-family="Arial" font-size="14.00" fill="#000000">private_notes </text>
<text text-anchor="start" x="164.7586" y="-855.4" font-family="Arial" font-size="14.00" fill="#666666">[tinyint(1)]</text>
<polygon fill="none" stroke="#000000" stroke-width="3" points="67.8414,-842.5 67.8414,-1101.5 547.8414,-1101.5 547.8414,-842.5 67.8414,-842.5"/>
</g>
<!-- users -->
<g id="node3" class="node">
<title>users</title>
<polygon fill="#efefef" stroke="transparent" points="67.8414,-673 67.8414,-719 549.8414,-719 549.8414,-673 67.8414,-673"/>
<polygon fill="none" stroke="#000000" points="67.8414,-673 67.8414,-719 549.8414,-719 549.8414,-673 67.8414,-673"/>
<text text-anchor="start" x="238.2122" y="-696.8" font-family="Arial Bold" font-size="18.00" fill="#000000">users</text>
<text text-anchor="start" x="282.2168" y="-696.8" font-family="Arial" font-size="14.00" fill="#000000"> </text>
<text text-anchor="start" x="286.1074" y="-696.8" font-family="Arial" font-size="14.00" fill="#666666">[BASE TABLE]</text>
<text text-anchor="start" x="230.2972" y="-682.4" font-family="Arial" font-size="14.00" fill="#333333">ユーザー / グループ</text>
<polygon fill="none" stroke="#000000" points="67.8414,-643 67.8414,-673 549.8414,-673 549.8414,-643 67.8414,-643"/>
<text text-anchor="start" x="74.8414" y="-654.4" font-family="Arial" font-size="14.00" fill="#000000">id </text>
<text text-anchor="start" x="89.6212" y="-654.4" font-family="Arial" font-size="14.00" fill="#666666">[int(11)]</text>
<polygon fill="none" stroke="#000000" points="67.8414,-613 67.8414,-643 549.8414,-643 549.8414,-613 67.8414,-613"/>
<text text-anchor="start" x="74.8414" y="-624.4" font-family="Arial" font-size="14.00" fill="#000000">login </text>
<text text-anchor="start" x="108.293" y="-624.4" font-family="Arial" font-size="14.00" fill="#666666">[varchar(255)]</text>
<text text-anchor="start" x="195.4122" y="-624.4" font-family="Arial" font-size="14.00" fill="#000000"> ログインID</text>
<polygon fill="none" stroke="#000000" points="67.8414,-583 67.8414,-613 549.8414,-613 549.8414,-583 67.8414,-583"/>
<text text-anchor="start" x="74.8414" y="-594.4" font-family="Arial" font-size="14.00" fill="#000000">hashed_password </text>
<text text-anchor="start" x="192.3252" y="-594.4" font-family="Arial" font-size="14.00" fill="#666666">[varchar(40)]</text>
<text text-anchor="start" x="271.6618" y="-594.4" font-family="Arial" font-size="14.00" fill="#000000"> パスワード(ハッシュ化済み)</text>
<polygon fill="none" stroke="#000000" points="67.8414,-553 67.8414,-583 549.8414,-583 549.8414,-553 67.8414,-553"/>
<text text-anchor="start" x="74.8414" y="-564.4" font-family="Arial" font-size="14.00" fill="#000000">firstname </text>
<text text-anchor="start" x="136.2888" y="-564.4" font-family="Arial" font-size="14.00" fill="#666666">[varchar(30)]</text>
<text text-anchor="start" x="215.6254" y="-564.4" font-family="Arial" font-size="14.00" fill="#000000"> 名</text>
<polygon fill="none" stroke="#000000" points="67.8414,-523 67.8414,-553 549.8414,-553 549.8414,-523 67.8414,-523"/>
<text text-anchor="start" x="74.8414" y="-534.4" font-family="Arial" font-size="14.00" fill="#000000">lastname </text>
<text text-anchor="start" x="135.5202" y="-534.4" font-family="Arial" font-size="14.00" fill="#666666">[varchar(255)]</text>
<text text-anchor="start" x="222.6394" y="-534.4" font-family="Arial" font-size="14.00" fill="#000000"> 姓</text>
<polygon fill="none" stroke="#000000" points="67.8414,-493 67.8414,-523 549.8414,-523 549.8414,-493 67.8414,-493"/>
<text text-anchor="start" x="74.8414" y="-504.4" font-family="Arial" font-size="14.00" fill="#000000">admin </text>
<text text-anchor="start" x="116.847" y="-504.4" font-family="Arial" font-size="14.00" fill="#666666">[tinyint(1)]</text>
<text text-anchor="start" x="178.2916" y="-504.4" font-family="Arial" font-size="14.00" fill="#000000"> システム管理者</text>
<polygon fill="none" stroke="#000000" points="67.8414,-463 67.8414,-493 549.8414,-493 549.8414,-463 67.8414,-463"/>
<text text-anchor="start" x="74.8414" y="-474.4" font-family="Arial" font-size="14.00" fill="#000000">status </text>
<text text-anchor="start" x="116.0784" y="-474.4" font-family="Arial" font-size="14.00" fill="#666666">[int(11)]</text>
<polygon fill="none" stroke="#000000" points="67.8414,-433 67.8414,-463 549.8414,-463 549.8414,-433 67.8414,-433"/>
<text text-anchor="start" x="74.8414" y="-444.4" font-family="Arial" font-size="14.00" fill="#000000">last_login_on </text>
<text text-anchor="start" x="161.2032" y="-444.4" font-family="Arial" font-size="14.00" fill="#666666">[datetime]</text>
<polygon fill="none" stroke="#000000" points="67.8414,-403 67.8414,-433 549.8414,-433 549.8414,-403 67.8414,-403"/>
<text text-anchor="start" x="74.8414" y="-414.4" font-family="Arial" font-size="14.00" fill="#000000">language </text>
<text text-anchor="start" x="136.3168" y="-414.4" font-family="Arial" font-size="14.00" fill="#666666">[varchar(5)]</text>
<text text-anchor="start" x="207.8708" y="-414.4" font-family="Arial" font-size="14.00" fill="#000000"> 言語</text>
<polygon fill="none" stroke="#000000" points="67.8414,-373 67.8414,-403 549.8414,-403 549.8414,-373 67.8414,-373"/>
<text text-anchor="start" x="74.8414" y="-384.4" font-family="Arial" font-size="14.00" fill="#000000">auth_source_id </text>
<text text-anchor="start" x="174.4332" y="-384.4" font-family="Arial" font-size="14.00" fill="#666666">[int(11)]</text>
<polygon fill="none" stroke="#000000" points="67.8414,-343 67.8414,-373 549.8414,-373 549.8414,-343 67.8414,-343"/>
<text text-anchor="start" x="74.8414" y="-354.4" font-family="Arial" font-size="14.00" fill="#000000">created_on </text>
<text text-anchor="start" x="148.7614" y="-354.4" font-family="Arial" font-size="14.00" fill="#666666">[timestamp]</text>
<polygon fill="none" stroke="#000000" points="67.8414,-313 67.8414,-343 549.8414,-343 549.8414,-313 67.8414,-313"/>
<text text-anchor="start" x="74.8414" y="-324.4" font-family="Arial" font-size="14.00" fill="#000000">updated_on </text>
<text text-anchor="start" x="152.666" y="-324.4" font-family="Arial" font-size="14.00" fill="#666666">[timestamp]</text>
<polygon fill="none" stroke="#000000" points="67.8414,-283 67.8414,-313 549.8414,-313 549.8414,-283 67.8414,-283"/>
<text text-anchor="start" x="74.8414" y="-294.4" font-family="Arial" font-size="14.00" fill="#000000">type </text>
<text text-anchor="start" x="105.1878" y="-294.4" font-family="Arial" font-size="14.00" fill="#666666">[varchar(255)]</text>
<text text-anchor="start" x="192.307" y="-294.4" font-family="Arial" font-size="14.00" fill="#000000"> User:ユーザー Group:グループ </text>
<polygon fill="none" stroke="#000000" points="67.8414,-253 67.8414,-283 549.8414,-283 549.8414,-253 67.8414,-253"/>
<text text-anchor="start" x="74.8414" y="-264.4" font-family="Arial" font-size="14.00" fill="#000000">mail_notification </text>
<text text-anchor="start" x="179.0756" y="-264.4" font-family="Arial" font-size="14.00" fill="#666666">[varchar(255)]</text>
<text text-anchor="start" x="266.1948" y="-264.4" font-family="Arial" font-size="14.00" fill="#000000"> メール通知</text>
<polygon fill="none" stroke="#000000" points="67.8414,-223 67.8414,-253 549.8414,-253 549.8414,-223 67.8414,-223"/>
<text text-anchor="start" x="74.8414" y="-234.4" font-family="Arial" font-size="14.00" fill="#000000">salt </text>
<text text-anchor="start" x="100.5118" y="-234.4" font-family="Arial" font-size="14.00" fill="#666666">[varchar(64)]</text>
<polygon fill="none" stroke="#000000" points="67.8414,-193 67.8414,-223 549.8414,-223 549.8414,-193 67.8414,-193"/>
<text text-anchor="start" x="74.606" y="-204.4" font-family="Arial" font-size="14.00" fill="#000000">must_change_passwd </text>
<text text-anchor="start" x="217.763" y="-204.4" font-family="Arial" font-size="14.00" fill="#666666">[tinyint(1)]</text>
<text text-anchor="start" x="279.2076" y="-204.4" font-family="Arial" font-size="14.00" fill="#000000"> 次回ログイン時にパスワード変更を強制</text>
<polygon fill="none" stroke="#000000" points="67.8414,-163 67.8414,-193 549.8414,-193 549.8414,-163 67.8414,-163"/>
<text text-anchor="start" x="74.8414" y="-174.4" font-family="Arial" font-size="14.00" fill="#000000">passwd_changed_on </text>
<text text-anchor="start" x="211.0124" y="-174.4" font-family="Arial" font-size="14.00" fill="#666666">[datetime]</text>
<polygon fill="none" stroke="#000000" points="67.8414,-133 67.8414,-163 549.8414,-163 549.8414,-133 67.8414,-133"/>
<text text-anchor="start" x="74.8414" y="-144.4" font-family="Arial" font-size="14.00" fill="#000000">twofa_scheme </text>
<text text-anchor="start" x="168.976" y="-144.4" font-family="Arial" font-size="14.00" fill="#666666">[varchar(255)]</text>
<polygon fill="none" stroke="#000000" points="67.8414,-103 67.8414,-133 549.8414,-133 549.8414,-103 67.8414,-103"/>
<text text-anchor="start" x="74.8414" y="-114.4" font-family="Arial" font-size="14.00" fill="#000000">twofa_totp_key </text>
<text text-anchor="start" x="172.8792" y="-114.4" font-family="Arial" font-size="14.00" fill="#666666">[varchar(255)]</text>
<polygon fill="none" stroke="#000000" points="67.8414,-73 67.8414,-103 549.8414,-103 549.8414,-73 67.8414,-73"/>
<text text-anchor="start" x="74.8414" y="-84.4" font-family="Arial" font-size="14.00" fill="#000000">twofa_totp_last_used_at </text>
<text text-anchor="start" x="230.4626" y="-84.4" font-family="Arial" font-size="14.00" fill="#666666">[int(11)]</text>
<polygon fill="none" stroke="#000000" points="67.8414,-43 67.8414,-73 549.8414,-73 549.8414,-43 67.8414,-43"/>
<text text-anchor="start" x="74.8414" y="-54.4" font-family="Arial" font-size="14.00" fill="#000000">twofa_required </text>
<text text-anchor="start" x="171.3084" y="-54.4" font-family="Arial" font-size="14.00" fill="#666666">[tinyint(1)]</text>
</g>
<!-- journals&#45;&gt;users -->
<g id="edge2" class="edge">
<title>journals:user_id&#45;&gt;users:id</title>
<path fill="none" stroke="#000000" stroke-dasharray="5,2" d="M557.0676,-948.1119C611.532,-938.023 589.9872,-844.5102 546.8414,-798 474.2451,-719.7428 140.4378,-840.2572 67.8414,-762 36.406,-728.1133 21.6192,-658 67.8414,-658"/>
<polygon fill="#000000" stroke="#000000" points="556.8039,-948.1347 546.452,-944.5169 551.8227,-948.5674 546.8414,-949 546.8414,-949 546.8414,-949 551.8227,-948.5674 547.2308,-953.4831 556.8039,-948.1347 556.8039,-948.1347"/>
<text text-anchor="start" x="554.1094" y="-959" font-family="Arial" font-size="10.00" fill="#000000">Detected Relation</text>
</g>
<!-- journal_details -->
<g id="node2" class="node">
<title>journal_details</title>
<polygon fill="#efefef" stroke="transparent" points="194.8414,-1404.5 194.8414,-1439.5 421.8414,-1439.5 421.8414,-1404.5 194.8414,-1404.5"/>
<polygon fill="none" stroke="#000000" points="194.8414,-1404.5 194.8414,-1439.5 421.8414,-1439.5 421.8414,-1404.5 194.8414,-1404.5"/>
<text text-anchor="start" x="201.7041" y="-1417.3" font-family="Arial Bold" font-size="18.00" fill="#000000">journal_details</text>
<text text-anchor="start" x="317.7249" y="-1417.3" font-family="Arial" font-size="14.00" fill="#000000"> </text>
<text text-anchor="start" x="321.6155" y="-1417.3" font-family="Arial" font-size="14.00" fill="#666666">[BASE TABLE]</text>
<polygon fill="none" stroke="#000000" points="194.8414,-1374.5 194.8414,-1404.5 421.8414,-1404.5 421.8414,-1374.5 194.8414,-1374.5"/>
<text text-anchor="start" x="201.8414" y="-1385.9" font-family="Arial" font-size="14.00" fill="#000000">id </text>
<text text-anchor="start" x="216.6212" y="-1385.9" font-family="Arial" font-size="14.00" fill="#666666">[int(11)]</text>
<polygon fill="none" stroke="#000000" points="194.8414,-1344.5 194.8414,-1374.5 421.8414,-1374.5 421.8414,-1344.5 194.8414,-1344.5"/>
<text text-anchor="start" x="201.8414" y="-1355.9" font-family="Arial" font-size="14.00" fill="#000000">journal_id </text>
<text text-anchor="start" x="266.408" y="-1355.9" font-family="Arial" font-size="14.00" fill="#666666">[int(11)]</text>
<polygon fill="none" stroke="#000000" points="194.8414,-1314.5 194.8414,-1344.5 421.8414,-1344.5 421.8414,-1314.5 194.8414,-1314.5"/>
<text text-anchor="start" x="201.8414" y="-1325.9" font-family="Arial" font-size="14.00" fill="#000000">property </text>
<text text-anchor="start" x="257.0742" y="-1325.9" font-family="Arial" font-size="14.00" fill="#666666">[varchar(30)]</text>
<polygon fill="none" stroke="#000000" points="194.8414,-1284.5 194.8414,-1314.5 421.8414,-1314.5 421.8414,-1284.5 194.8414,-1284.5"/>
<text text-anchor="start" x="201.8414" y="-1295.9" font-family="Arial" font-size="14.00" fill="#000000">prop_key </text>
<text text-anchor="start" x="263.3056" y="-1295.9" font-family="Arial" font-size="14.00" fill="#666666">[varchar(30)]</text>
<polygon fill="none" stroke="#000000" points="194.8414,-1254.5 194.8414,-1284.5 421.8414,-1284.5 421.8414,-1254.5 194.8414,-1254.5"/>
<text text-anchor="start" x="201.8414" y="-1265.9" font-family="Arial" font-size="14.00" fill="#000000">old_value </text>
<text text-anchor="start" x="265.6408" y="-1265.9" font-family="Arial" font-size="14.00" fill="#666666">[longtext]</text>
<polygon fill="none" stroke="#000000" points="194.8414,-1224.5 194.8414,-1254.5 421.8414,-1254.5 421.8414,-1224.5 194.8414,-1224.5"/>
<text text-anchor="start" x="201.8414" y="-1235.9" font-family="Arial" font-size="14.00" fill="#000000">value </text>
<text text-anchor="start" x="239.1864" y="-1235.9" font-family="Arial" font-size="14.00" fill="#666666">[longtext]</text>
</g>
<!-- journal_details&#45;&gt;journals -->
<g id="edge1" class="edge">
<title>journal_details:journal_id&#45;&gt;journals:id</title>
<path fill="none" stroke="#000000" stroke-dasharray="5,2" d="M184.584,-1359.0222C36.4715,-1345.2642 -79.6193,-1039 69.8414,-1039"/>
<polygon fill="#000000" stroke="#000000" points="184.8523,-1359.0346 194.632,-1363.9951 189.8468,-1359.2673 194.8414,-1359.5 194.8414,-1359.5 194.8414,-1359.5 189.8468,-1359.2673 195.0509,-1355.0049 184.8523,-1359.0346 184.8523,-1359.0346"/>
<text text-anchor="start" x="109.1094" y="-1369.5" font-family="Arial" font-size="10.00" fill="#000000">Detected Relation</text>
</g>
</g>
</svg>
