<?xml version="1.0" encoding="UTF-8" standalone="no"?>
<!DOCTYPE svg PUBLIC "-//W3C//DTD SVG 1.1//EN"
 "http://www.w3.org/Graphics/SVG/1.1/DTD/svg11.dtd">
<!-- Generated by graphviz version 2.40.1 (20161225.0304)
 -->
<!-- Title: journal_details Pages: 1 -->
<svg width="571pt" height="682pt"
 viewBox="0.00 0.00 571.00 682.00" xmlns="http://www.w3.org/2000/svg" xmlns:xlink="http://www.w3.org/1999/xlink">
<g id="graph0" class="graph" transform="scale(1 1) rotate(0) translate(4 678)">
<title>journal_details</title>
<polygon fill="#ffffff" stroke="transparent" points="-4,4 -4,-678 567,-678 567,4 -4,4"/>
<!-- journal_details -->
<g id="node1" class="node">
<title>journal_details</title>
<polygon fill="#efefef" stroke="transparent" points="168.5,-592.5 168.5,-627.5 395.5,-627.5 395.5,-592.5 168.5,-592.5"/>
<polygon fill="none" stroke="#000000" points="168.5,-592.5 168.5,-627.5 395.5,-627.5 395.5,-592.5 168.5,-592.5"/>
<text text-anchor="start" x="175.3627" y="-605.3" font-family="Arial Bold" font-size="18.00" fill="#000000">journal_details</text>
<text text-anchor="start" x="291.3835" y="-605.3" font-family="Arial" font-size="14.00" fill="#000000"> </text>
<text text-anchor="start" x="295.2741" y="-605.3" font-family="Arial" font-size="14.00" fill="#666666">[BASE TABLE]</text>
<polygon fill="none" stroke="#000000" points="168.5,-562.5 168.5,-592.5 395.5,-592.5 395.5,-562.5 168.5,-562.5"/>
<text text-anchor="start" x="175.5" y="-573.9" font-family="Arial" font-size="14.00" fill="#000000">id </text>
<text text-anchor="start" x="190.2798" y="-573.9" font-family="Arial" font-size="14.00" fill="#666666">[int(11)]</text>
<polygon fill="none" stroke="#000000" points="168.5,-532.5 168.5,-562.5 395.5,-562.5 395.5,-532.5 168.5,-532.5"/>
<text text-anchor="start" x="175.5" y="-543.9" font-family="Arial" font-size="14.00" fill="#000000">journal_id </text>
<text text-anchor="start" x="240.0666" y="-543.9" font-family="Arial" font-size="14.00" fill="#666666">[int(11)]</text>
<polygon fill="none" stroke="#000000" points="168.5,-502.5 168.5,-532.5 395.5,-532.5 395.5,-502.5 168.5,-502.5"/>
<text text-anchor="start" x="175.5" y="-513.9" font-family="Arial" font-size="14.00" fill="#000000">property </text>
<text text-anchor="start" x="230.7328" y="-513.9" font-family="Arial" font-size="14.00" fill="#666666">[varchar(30)]</text>
<polygon fill="none" stroke="#000000" points="168.5,-472.5 168.5,-502.5 395.5,-502.5 395.5,-472.5 168.5,-472.5"/>
<text text-anchor="start" x="175.5" y="-483.9" font-family="Arial" font-size="14.00" fill="#000000">prop_key </text>
<text text-anchor="start" x="236.9642" y="-483.9" font-family="Arial" font-size="14.00" fill="#666666">[varchar(30)]</text>
<polygon fill="none" stroke="#000000" points="168.5,-442.5 168.5,-472.5 395.5,-472.5 395.5,-442.5 168.5,-442.5"/>
<text text-anchor="start" x="175.5" y="-453.9" font-family="Arial" font-size="14.00" fill="#000000">old_value </text>
<text text-anchor="start" x="239.2994" y="-453.9" font-family="Arial" font-size="14.00" fill="#666666">[longtext]</text>
<polygon fill="none" stroke="#000000" points="168.5,-412.5 168.5,-442.5 395.5,-442.5 395.5,-412.5 168.5,-412.5"/>
<text text-anchor="start" x="175.5" y="-423.9" font-family="Arial" font-size="14.00" fill="#000000">value </text>
<text text-anchor="start" x="212.845" y="-423.9" font-family="Arial" font-size="14.00" fill="#666666">[longtext]</text>
<polygon fill="none" stroke="#000000" stroke-width="3" points="166.5,-411.5 166.5,-629.5 396.5,-629.5 396.5,-411.5 166.5,-411.5"/>
</g>
<!-- journals -->
<g id="node2" class="node">
<title>journals</title>
<polygon fill="#efefef" stroke="transparent" points="43.5,-252.5 43.5,-287.5 520.5,-287.5 520.5,-252.5 43.5,-252.5"/>
<polygon fill="none" stroke="#000000" points="43.5,-252.5 43.5,-287.5 520.5,-287.5 520.5,-252.5 43.5,-252.5"/>
<text text-anchor="start" x="201.8704" y="-265.3" font-family="Arial Bold" font-size="18.00" fill="#000000">journals</text>
<text text-anchor="start" x="264.8758" y="-265.3" font-family="Arial" font-size="14.00" fill="#000000"> </text>
<text text-anchor="start" x="268.7664" y="-265.3" font-family="Arial" font-size="14.00" fill="#666666">[BASE TABLE]</text>
<polygon fill="none" stroke="#000000" points="43.5,-222.5 43.5,-252.5 520.5,-252.5 520.5,-222.5 43.5,-222.5"/>
<text text-anchor="start" x="50.5" y="-233.9" font-family="Arial" font-size="14.00" fill="#000000">id </text>
<text text-anchor="start" x="65.2798" y="-233.9" font-family="Arial" font-size="14.00" fill="#666666">[int(11)]</text>
<polygon fill="none" stroke="#000000" points="43.5,-192.5 43.5,-222.5 520.5,-222.5 520.5,-192.5 43.5,-192.5"/>
<text text-anchor="start" x="50.5" y="-203.9" font-family="Arial" font-size="14.00" fill="#000000">journalized_id </text>
<text text-anchor="start" x="140.7384" y="-203.9" font-family="Arial" font-size="14.00" fill="#666666">[int(11)]</text>
<polygon fill="none" stroke="#000000" points="43.5,-162.5 43.5,-192.5 520.5,-192.5 520.5,-162.5 43.5,-162.5"/>
<text text-anchor="start" x="50.4575" y="-173.9" font-family="Arial" font-size="14.00" fill="#000000">journalized_type </text>
<text text-anchor="start" x="156.2625" y="-173.9" font-family="Arial" font-size="14.00" fill="#666666">[varchar(30)]</text>
<text text-anchor="start" x="235.5991" y="-173.9" font-family="Arial" font-size="14.00" fill="#000000"> Issue:チケット Changeset:チェンジセット </text>
<polygon fill="none" stroke="#000000" points="43.5,-132.5 43.5,-162.5 520.5,-162.5 520.5,-132.5 43.5,-132.5"/>
<text text-anchor="start" x="50.5" y="-143.9" font-family="Arial" font-size="14.00" fill="#000000">user_id </text>
<text text-anchor="start" x="100.2882" y="-143.9" font-family="Arial" font-size="14.00" fill="#666666">[int(11)]</text>
<polygon fill="none" stroke="#000000" points="43.5,-102.5 43.5,-132.5 520.5,-132.5 520.5,-102.5 43.5,-102.5"/>
<text text-anchor="start" x="50.5" y="-113.9" font-family="Arial" font-size="14.00" fill="#000000">notes </text>
<text text-anchor="start" x="88.629" y="-113.9" font-family="Arial" font-size="14.00" fill="#666666">[longtext]</text>
<polygon fill="none" stroke="#000000" points="43.5,-72.5 43.5,-102.5 520.5,-102.5 520.5,-72.5 43.5,-72.5"/>
<text text-anchor="start" x="50.5" y="-83.9" font-family="Arial" font-size="14.00" fill="#000000">created_on </text>
<text text-anchor="start" x="124.42" y="-83.9" font-family="Arial" font-size="14.00" fill="#666666">[datetime]</text>
<polygon fill="none" stroke="#000000" points="43.5,-42.5 43.5,-72.5 520.5,-72.5 520.5,-42.5 43.5,-42.5"/>
<text text-anchor="start" x="50.5" y="-53.9" font-family="Arial" font-size="14.00" fill="#000000">private_notes </text>
<text text-anchor="start" x="138.4172" y="-53.9" font-family="Arial" font-size="14.00" fill="#666666">[tinyint(1)]</text>
</g>
<!-- journal_details&#45;&gt;journals -->
<g id="edge1" class="edge">
<title>journal_details:journal_id&#45;&gt;journals:id</title>
<path fill="none" stroke="#000000" stroke-dasharray="5,2" d="M158.2054,-545.6795C83.3932,-520.274 -27.4417,-237.5 43.5,-237.5"/>
<polygon fill="#000000" stroke="#000000" points="158.6528,-545.7585 167.7163,-551.9312 163.5764,-546.6293 168.5,-547.5 168.5,-547.5 168.5,-547.5 163.5764,-546.6293 169.2837,-543.0688 158.6528,-545.7585 158.6528,-545.7585"/>
<text text-anchor="start" x="82.768" y="-557.5" font-family="Arial" font-size="10.00" fill="#000000">Detected Relation</text>
</g>
</g>
</svg>
