<?xml version="1.0" encoding="UTF-8" standalone="no"?>
<!DOCTYPE svg PUBLIC "-//W3C//DTD SVG 1.1//EN"
 "http://www.w3.org/Graphics/SVG/1.1/DTD/svg11.dtd">
<!-- Generated by graphviz version 2.40.1 (20161225.0304)
 -->
<!-- Title: journals Pages: 1 -->
<svg width="645pt" height="1480pt"
 viewBox="0.00 0.00 644.98 1480.00" xmlns="http://www.w3.org/2000/svg" xmlns:xlink="http://www.w3.org/1999/xlink">
<g id="graph0" class="graph" transform="scale(1 1) rotate(0) translate(4 1476)">
<title>journals</title>
<polygon fill="#ffffff" stroke="transparent" points="-4,4 -4,-1476 640.9799,-1476 640.9799,4 -4,4"/>
<!-- journals -->
<g id="node1" class="node">
<title>journals</title>
<polygon fill="#efefef" stroke="transparent" points="66.9799,-1053.5 66.9799,-1088.5 543.9799,-1088.5 543.9799,-1053.5 66.9799,-1053.5"/>
<polygon fill="none" stroke="#000000" points="66.9799,-1053.5 66.9799,-1088.5 543.9799,-1088.5 543.9799,-1053.5 66.9799,-1053.5"/>
<text text-anchor="start" x="225.3503" y="-1066.3" font-family="Arial Bold" font-size="18.00" fill="#000000">journals</text>
<text text-anchor="start" x="288.3557" y="-1066.3" font-family="Arial" font-size="14.00" fill="#000000"> </text>
<text text-anchor="start" x="292.2463" y="-1066.3" font-family="Arial" font-size="14.00" fill="#666666">[BASE TABLE]</text>
<polygon fill="none" stroke="#000000" points="66.9799,-1023.5 66.9799,-1053.5 543.9799,-1053.5 543.9799,-1023.5 66.9799,-1023.5"/>
<text text-anchor="start" x="73.9799" y="-1034.9" font-family="Arial" font-size="14.00" fill="#000000">id </text>
<text text-anchor="start" x="88.7597" y="-1034.9" font-family="Arial" font-size="14.00" fill="#666666">[int(11)]</text>
<polygon fill="none" stroke="#000000" points="66.9799,-993.5 66.9799,-1023.5 543.9799,-1023.5 543.9799,-993.5 66.9799,-993.5"/>
<text text-anchor="start" x="73.9799" y="-1004.9" font-family="Arial" font-size="14.00" fill="#000000">journalized_id </text>
<text text-anchor="start" x="164.2183" y="-1004.9" font-family="Arial" font-size="14.00" fill="#666666">[int(11)]</text>
<polygon fill="none" stroke="#000000" points="66.9799,-963.5 66.9799,-993.5 543.9799,-993.5 543.9799,-963.5 66.9799,-963.5"/>
<text text-anchor="start" x="73.9374" y="-974.9" font-family="Arial" font-size="14.00" fill="#000000">journalized_type </text>
<text text-anchor="start" x="179.7424" y="-974.9" font-family="Arial" font-size="14.00" fill="#666666">[varchar(30)]</text>
<text text-anchor="start" x="259.079" y="-974.9" font-family="Arial" font-size="14.00" fill="#000000"> Issue:チケット Changeset:チェンジセット </text>
<polygon fill="none" stroke="#000000" points="66.9799,-933.5 66.9799,-963.5 543.9799,-963.5 543.9799,-933.5 66.9799,-933.5"/>
<text text-anchor="start" x="73.9799" y="-944.9" font-family="Arial" font-size="14.00" fill="#000000">user_id </text>
<text text-anchor="start" x="123.7681" y="-944.9" font-family="Arial" font-size="14.00" fill="#666666">[int(11)]</text>
<polygon fill="none" stroke="#000000" points="66.9799,-903.5 66.9799,-933.5 543.9799,-933.5 543.9799,-903.5 66.9799,-903.5"/>
<text text-anchor="start" x="73.9799" y="-914.9" font-family="Arial" font-size="14.00" fill="#000000">notes </text>
<text text-anchor="start" x="112.1089" y="-914.9" font-family="Arial" font-size="14.00" fill="#666666">[longtext]</text>
<polygon fill="none" stroke="#000000" points="66.9799,-873.5 66.9799,-903.5 543.9799,-903.5 543.9799,-873.5 66.9799,-873.5"/>
<text text-anchor="start" x="73.9799" y="-884.9" font-family="Arial" font-size="14.00" fill="#000000">created_on </text>
<text text-anchor="start" x="147.8999" y="-884.9" font-family="Arial" font-size="14.00" fill="#666666">[datetime]</text>
<polygon fill="none" stroke="#000000" points="66.9799,-843.5 66.9799,-873.5 543.9799,-873.5 543.9799,-843.5 66.9799,-843.5"/>
<text text-anchor="start" x="73.9799" y="-854.9" font-family="Arial" font-size="14.00" fill="#000000">private_notes </text>
<text text-anchor="start" x="161.8971" y="-854.9" font-family="Arial" font-size="14.00" fill="#666666">[tinyint(1)]</text>
<polygon fill="none" stroke="#000000" stroke-width="3" points="64.9799,-842.5 64.9799,-1090.5 544.9799,-1090.5 544.9799,-842.5 64.9799,-842.5"/>
</g>
<!-- users -->
<g id="node3" class="node">
<title>users</title>
<polygon fill="#efefef" stroke="transparent" points="64.9799,-673 64.9799,-719 546.9799,-719 546.9799,-673 64.9799,-673"/>
<polygon fill="none" stroke="#000000" points="64.9799,-673 64.9799,-719 546.9799,-719 546.9799,-673 64.9799,-673"/>
<text text-anchor="start" x="235.3507" y="-696.8" font-family="Arial Bold" font-size="18.00" fill="#000000">users</text>
<text text-anchor="start" x="279.3553" y="-696.8" font-family="Arial" font-size="14.00" fill="#000000"> </text>
<text text-anchor="start" x="283.2459" y="-696.8" font-family="Arial" font-size="14.00" fill="#666666">[BASE TABLE]</text>
<text text-anchor="start" x="227.4357" y="-682.4" font-family="Arial" font-size="14.00" fill="#333333">ユーザー / グループ</text>
<polygon fill="none" stroke="#000000" points="64.9799,-643 64.9799,-673 546.9799,-673 546.9799,-643 64.9799,-643"/>
<text text-anchor="start" x="71.9799" y="-654.4" font-family="Arial" font-size="14.00" fill="#000000">id </text>
<text text-anchor="start" x="86.7597" y="-654.4" font-family="Arial" font-size="14.00" fill="#666666">[int(11)]</text>
<polygon fill="none" stroke="#000000" points="64.9799,-613 64.9799,-643 546.9799,-643 546.9799,-613 64.9799,-613"/>
<text text-anchor="start" x="71.9799" y="-624.4" font-family="Arial" font-size="14.00" fill="#000000">login </text>
<text text-anchor="start" x="105.4315" y="-624.4" font-family="Arial" font-size="14.00" fill="#666666">[varchar(255)]</text>
<text text-anchor="start" x="192.5507" y="-624.4" font-family="Arial" font-size="14.00" fill="#000000"> ログインID</text>
<polygon fill="none" stroke="#000000" points="64.9799,-583 64.9799,-613 546.9799,-613 546.9799,-583 64.9799,-583"/>
<text text-anchor="start" x="71.9799" y="-594.4" font-family="Arial" font-size="14.00" fill="#000000">hashed_password </text>
<text text-anchor="start" x="189.4637" y="-594.4" font-family="Arial" font-size="14.00" fill="#666666">[varchar(40)]</text>
<text text-anchor="start" x="268.8003" y="-594.4" font-family="Arial" font-size="14.00" fill="#000000"> パスワード(ハッシュ化済み)</text>
<polygon fill="none" stroke="#000000" points="64.9799,-553 64.9799,-583 546.9799,-583 546.9799,-553 64.9799,-553"/>
<text text-anchor="start" x="71.9799" y="-564.4" font-family="Arial" font-size="14.00" fill="#000000">firstname </text>
<text text-anchor="start" x="133.4273" y="-564.4" font-family="Arial" font-size="14.00" fill="#666666">[varchar(30)]</text>
<text text-anchor="start" x="212.7639" y="-564.4" font-family="Arial" font-size="14.00" fill="#000000"> 名</text>
<polygon fill="none" stroke="#000000" points="64.9799,-523 64.9799,-553 546.9799,-553 546.9799,-523 64.9799,-523"/>
<text text-anchor="start" x="71.9799" y="-534.4" font-family="Arial" font-size="14.00" fill="#000000">lastname </text>
<text text-anchor="start" x="132.6587" y="-534.4" font-family="Arial" font-size="14.00" fill="#666666">[varchar(255)]</text>
<text text-anchor="start" x="219.7779" y="-534.4" font-family="Arial" font-size="14.00" fill="#000000"> 姓</text>
<polygon fill="none" stroke="#000000" points="64.9799,-493 64.9799,-523 546.9799,-523 546.9799,-493 64.9799,-493"/>
<text text-anchor="start" x="71.9799" y="-504.4" font-family="Arial" font-size="14.00" fill="#000000">admin </text>
<text text-anchor="start" x="113.9855" y="-504.4" font-family="Arial" font-size="14.00" fill="#666666">[tinyint(1)]</text>
<text text-anchor="start" x="175.4301" y="-504.4" font-family="Arial" font-size="14.00" fill="#000000"> システム管理者</text>
<polygon fill="none" stroke="#000000" points="64.9799,-463 64.9799,-493 546.9799,-493 546.9799,-463 64.9799,-463"/>
<text text-anchor="start" x="71.9799" y="-474.4" font-family="Arial" font-size="14.00" fill="#000000">status </text>
<text text-anchor="start" x="113.2169" y="-474.4" font-family="Arial" font-size="14.00" fill="#666666">[int(11)]</text>
<polygon fill="none" stroke="#000000" points="64.9799,-433 64.9799,-463 546.9799,-463 546.9799,-433 64.9799,-433"/>
<text text-anchor="start" x="71.9799" y="-444.4" font-family="Arial" font-size="14.00" fill="#000000">last_login_on </text>
<text text-anchor="start" x="158.3417" y="-444.4" font-family="Arial" font-size="14.00" fill="#666666">[datetime]</text>
<polygon fill="none" stroke="#000000" points="64.9799,-403 64.9799,-433 546.9799,-433 546.9799,-403 64.9799,-403"/>
<text text-anchor="start" x="71.9799" y="-414.4" font-family="Arial" font-size="14.00" fill="#000000">language </text>
<text text-anchor="start" x="133.4553" y="-414.4" font-family="Arial" font-size="14.00" fill="#666666">[varchar(5)]</text>
<text text-anchor="start" x="205.0093" y="-414.4" font-family="Arial" font-size="14.00" fill="#000000"> 言語</text>
<polygon fill="none" stroke="#000000" points="64.9799,-373 64.9799,-403 546.9799,-403 546.9799,-373 64.9799,-373"/>
<text text-anchor="start" x="71.9799" y="-384.4" font-family="Arial" font-size="14.00" fill="#000000">auth_source_id </text>
<text text-anchor="start" x="171.5717" y="-384.4" font-family="Arial" font-size="14.00" fill="#666666">[int(11)]</text>
<polygon fill="none" stroke="#000000" points="64.9799,-343 64.9799,-373 546.9799,-373 546.9799,-343 64.9799,-343"/>
<text text-anchor="start" x="71.9799" y="-354.4" font-family="Arial" font-size="14.00" fill="#000000">created_on </text>
<text text-anchor="start" x="145.8999" y="-354.4" font-family="Arial" font-size="14.00" fill="#666666">[timestamp]</text>
<polygon fill="none" stroke="#000000" points="64.9799,-313 64.9799,-343 546.9799,-343 546.9799,-313 64.9799,-313"/>
<text text-anchor="start" x="71.9799" y="-324.4" font-family="Arial" font-size="14.00" fill="#000000">updated_on </text>
<text text-anchor="start" x="149.8045" y="-324.4" font-family="Arial" font-size="14.00" fill="#666666">[timestamp]</text>
<polygon fill="none" stroke="#000000" points="64.9799,-283 64.9799,-313 546.9799,-313 546.9799,-283 64.9799,-283"/>
<text text-anchor="start" x="71.9799" y="-294.4" font-family="Arial" font-size="14.00" fill="#000000">type </text>
<text text-anchor="start" x="102.3263" y="-294.4" font-family="Arial" font-size="14.00" fill="#666666">[varchar(255)]</text>
<text text-anchor="start" x="189.4455" y="-294.4" font-family="Arial" font-size="14.00" fill="#000000"> User:ユーザー Group:グループ </text>
<polygon fill="none" stroke="#000000" points="64.9799,-253 64.9799,-283 546.9799,-283 546.9799,-253 64.9799,-253"/>
<text text-anchor="start" x="71.9799" y="-264.4" font-family="Arial" font-size="14.00" fill="#000000">mail_notification </text>
<text text-anchor="start" x="176.2141" y="-264.4" font-family="Arial" font-size="14.00" fill="#666666">[varchar(255)]</text>
<text text-anchor="start" x="263.3333" y="-264.4" font-family="Arial" font-size="14.00" fill="#000000"> メール通知</text>
<polygon fill="none" stroke="#000000" points="64.9799,-223 64.9799,-253 546.9799,-253 546.9799,-223 64.9799,-223"/>
<text text-anchor="start" x="71.9799" y="-234.4" font-family="Arial" font-size="14.00" fill="#000000">salt </text>
<text text-anchor="start" x="97.6503" y="-234.4" font-family="Arial" font-size="14.00" fill="#666666">[varchar(64)]</text>
<polygon fill="none" stroke="#000000" points="64.9799,-193 64.9799,-223 546.9799,-223 546.9799,-193 64.9799,-193"/>
<text text-anchor="start" x="71.7445" y="-204.4" font-family="Arial" font-size="14.00" fill="#000000">must_change_passwd </text>
<text text-anchor="start" x="214.9015" y="-204.4" font-family="Arial" font-size="14.00" fill="#666666">[tinyint(1)]</text>
<text text-anchor="start" x="276.3461" y="-204.4" font-family="Arial" font-size="14.00" fill="#000000"> 次回ログイン時にパスワード変更を強制</text>
<polygon fill="none" stroke="#000000" points="64.9799,-163 64.9799,-193 546.9799,-193 546.9799,-163 64.9799,-163"/>
<text text-anchor="start" x="71.9799" y="-174.4" font-family="Arial" font-size="14.00" fill="#000000">passwd_changed_on </text>
<text text-anchor="start" x="208.1509" y="-174.4" font-family="Arial" font-size="14.00" fill="#666666">[datetime]</text>
<polygon fill="none" stroke="#000000" points="64.9799,-133 64.9799,-163 546.9799,-163 546.9799,-133 64.9799,-133"/>
<text text-anchor="start" x="71.9799" y="-144.4" font-family="Arial" font-size="14.00" fill="#000000">twofa_scheme </text>
<text text-anchor="start" x="166.1145" y="-144.4" font-family="Arial" font-size="14.00" fill="#666666">[varchar(255)]</text>
<polygon fill="none" stroke="#000000" points="64.9799,-103 64.9799,-133 546.9799,-133 546.9799,-103 64.9799,-103"/>
<text text-anchor="start" x="71.9799" y="-114.4" font-family="Arial" font-size="14.00" fill="#000000">twofa_totp_key </text>
<text text-anchor="start" x="170.0177" y="-114.4" font-family="Arial" font-size="14.00" fill="#666666">[varchar(255)]</text>
<polygon fill="none" stroke="#000000" points="64.9799,-73 64.9799,-103 546.9799,-103 546.9799,-73 64.9799,-73"/>
<text text-anchor="start" x="71.9799" y="-84.4" font-family="Arial" font-size="14.00" fill="#000000">twofa_totp_last_used_at </text>
<text text-anchor="start" x="227.6011" y="-84.4" font-family="Arial" font-size="14.00" fill="#666666">[int(11)]</text>
<polygon fill="none" stroke="#000000" points="64.9799,-43 64.9799,-73 546.9799,-73 546.9799,-43 64.9799,-43"/>
<text text-anchor="start" x="71.9799" y="-54.4" font-family="Arial" font-size="14.00" fill="#000000">twofa_required </text>
<text text-anchor="start" x="168.4469" y="-54.4" font-family="Arial" font-size="14.00" fill="#666666">[tinyint(1)]</text>
</g>
<!-- journals&#45;&gt;users -->
<g id="edge2" class="edge">
<title>journals:user_id&#45;&gt;users:id</title>
<path fill="none" stroke="#000000" stroke-dasharray="5,2" d="M554.1722,-947.6148C608.4563,-937.5594 586.9828,-844.3562 543.9799,-798 471.3835,-719.7428 137.5762,-840.2572 64.9799,-762 33.5444,-728.1133 18.7576,-658 64.9799,-658"/>
<polygon fill="#000000" stroke="#000000" points="553.9424,-947.6347 543.5905,-944.0169 548.9611,-948.0674 543.9799,-948.5 543.9799,-948.5 543.9799,-948.5 548.9611,-948.0674 544.3693,-952.9831 553.9424,-947.6347 553.9424,-947.6347"/>
<text text-anchor="start" x="551.2479" y="-958.5" font-family="Arial" font-size="10.00" fill="#000000">Detected Relation</text>
</g>
<!-- journal_details -->
<g id="node2" class="node">
<title>journal_details</title>
<polygon fill="#efefef" stroke="transparent" points="191.9799,-1393.5 191.9799,-1428.5 418.9799,-1428.5 418.9799,-1393.5 191.9799,-1393.5"/>
<polygon fill="none" stroke="#000000" points="191.9799,-1393.5 191.9799,-1428.5 418.9799,-1428.5 418.9799,-1393.5 191.9799,-1393.5"/>
<text text-anchor="start" x="198.8426" y="-1406.3" font-family="Arial Bold" font-size="18.00" fill="#000000">journal_details</text>
<text text-anchor="start" x="314.8634" y="-1406.3" font-family="Arial" font-size="14.00" fill="#000000"> </text>
<text text-anchor="start" x="318.754" y="-1406.3" font-family="Arial" font-size="14.00" fill="#666666">[BASE TABLE]</text>
<polygon fill="none" stroke="#000000" points="191.9799,-1363.5 191.9799,-1393.5 418.9799,-1393.5 418.9799,-1363.5 191.9799,-1363.5"/>
<text text-anchor="start" x="198.9799" y="-1374.9" font-family="Arial" font-size="14.00" fill="#000000">id </text>
<text text-anchor="start" x="213.7597" y="-1374.9" font-family="Arial" font-size="14.00" fill="#666666">[int(11)]</text>
<polygon fill="none" stroke="#000000" points="191.9799,-1333.5 191.9799,-1363.5 418.9799,-1363.5 418.9799,-1333.5 191.9799,-1333.5"/>
<text text-anchor="start" x="198.9799" y="-1344.9" font-family="Arial" font-size="14.00" fill="#000000">journal_id </text>
<text text-anchor="start" x="263.5465" y="-1344.9" font-family="Arial" font-size="14.00" fill="#666666">[int(11)]</text>
<polygon fill="none" stroke="#000000" points="191.9799,-1303.5 191.9799,-1333.5 418.9799,-1333.5 418.9799,-1303.5 191.9799,-1303.5"/>
<text text-anchor="start" x="198.9799" y="-1314.9" font-family="Arial" font-size="14.00" fill="#000000">property </text>
<text text-anchor="start" x="254.2127" y="-1314.9" font-family="Arial" font-size="14.00" fill="#666666">[varchar(30)]</text>
<polygon fill="none" stroke="#000000" points="191.9799,-1273.5 191.9799,-1303.5 418.9799,-1303.5 418.9799,-1273.5 191.9799,-1273.5"/>
<text text-anchor="start" x="198.9799" y="-1284.9" font-family="Arial" font-size="14.00" fill="#000000">prop_key </text>
<text text-anchor="start" x="260.4441" y="-1284.9" font-family="Arial" font-size="14.00" fill="#666666">[varchar(30)]</text>
<polygon fill="none" stroke="#000000" points="191.9799,-1243.5 191.9799,-1273.5 418.9799,-1273.5 418.9799,-1243.5 191.9799,-1243.5"/>
<text text-anchor="start" x="198.9799" y="-1254.9" font-family="Arial" font-size="14.00" fill="#000000">old_value </text>
<text text-anchor="start" x="262.7793" y="-1254.9" font-family="Arial" font-size="14.00" fill="#666666">[longtext]</text>
<polygon fill="none" stroke="#000000" points="191.9799,-1213.5 191.9799,-1243.5 418.9799,-1243.5 418.9799,-1213.5 191.9799,-1213.5"/>
<text text-anchor="start" x="198.9799" y="-1224.9" font-family="Arial" font-size="14.00" fill="#000000">value </text>
<text text-anchor="start" x="236.3249" y="-1224.9" font-family="Arial" font-size="14.00" fill="#666666">[longtext]</text>
</g>
<!-- journal_details&#45;&gt;journals -->
<g id="edge1" class="edge">
<title>journal_details:journal_id&#45;&gt;journals:id</title>
<path fill="none" stroke="#000000" stroke-dasharray="5,2" d="M181.5765,-1347.9971C37.7139,-1334.139 -78.0952,-1038.5 66.9799,-1038.5"/>
<polygon fill="#000000" stroke="#000000" points="181.9915,-1348.0171 191.7626,-1352.9948 186.9857,-1348.2585 191.9799,-1348.5 191.9799,-1348.5 191.9799,-1348.5 186.9857,-1348.2585 192.1972,-1344.0052 181.9915,-1348.0171 181.9915,-1348.0171"/>
<text text-anchor="start" x="106.2479" y="-1358.5" font-family="Arial" font-size="10.00" fill="#000000">Detected Relation</text>
</g>
</g>
</svg>
