<?xml version="1.0" encoding="UTF-8" standalone="no"?>
<!DOCTYPE svg PUBLIC "-//W3C//DTD SVG 1.1//EN"
 "http://www.w3.org/Graphics/SVG/1.1/DTD/svg11.dtd">
<!-- Generated by graphviz version 2.40.1 (20161225.0304)
 -->
<!-- Title: journal_details Pages: 1 -->
<svg width="571pt" height="693pt"
 viewBox="0.00 0.00 571.00 693.00" xmlns="http://www.w3.org/2000/svg" xmlns:xlink="http://www.w3.org/1999/xlink">
<g id="graph0" class="graph" transform="scale(1 1) rotate(0) translate(4 689)">
<title>journal_details</title>
<polygon fill="#ffffff" stroke="transparent" points="-4,4 -4,-689 567,-689 567,4 -4,4"/>
<!-- journal_details -->
<g id="node1" class="node">
<title>journal_details</title>
<polygon fill="#efefef" stroke="transparent" points="168.5,-603.5 168.5,-638.5 395.5,-638.5 395.5,-603.5 168.5,-603.5"/>
<polygon fill="none" stroke="#000000" points="168.5,-603.5 168.5,-638.5 395.5,-638.5 395.5,-603.5 168.5,-603.5"/>
<text text-anchor="start" x="175.3627" y="-616.3" font-family="Arial Bold" font-size="18.00" fill="#000000">journal_details</text>
<text text-anchor="start" x="291.3835" y="-616.3" font-family="Arial" font-size="14.00" fill="#000000"> </text>
<text text-anchor="start" x="295.2741" y="-616.3" font-family="Arial" font-size="14.00" fill="#666666">[BASE TABLE]</text>
<polygon fill="none" stroke="#000000" points="168.5,-573.5 168.5,-603.5 395.5,-603.5 395.5,-573.5 168.5,-573.5"/>
<text text-anchor="start" x="175.5" y="-584.9" font-family="Arial" font-size="14.00" fill="#000000">id </text>
<text text-anchor="start" x="190.2798" y="-584.9" font-family="Arial" font-size="14.00" fill="#666666">[int(11)]</text>
<polygon fill="none" stroke="#000000" points="168.5,-543.5 168.5,-573.5 395.5,-573.5 395.5,-543.5 168.5,-543.5"/>
<text text-anchor="start" x="175.5" y="-554.9" font-family="Arial" font-size="14.00" fill="#000000">journal_id </text>
<text text-anchor="start" x="240.0666" y="-554.9" font-family="Arial" font-size="14.00" fill="#666666">[int(11)]</text>
<polygon fill="none" stroke="#000000" points="168.5,-513.5 168.5,-543.5 395.5,-543.5 395.5,-513.5 168.5,-513.5"/>
<text text-anchor="start" x="175.5" y="-524.9" font-family="Arial" font-size="14.00" fill="#000000">property </text>
<text text-anchor="start" x="230.7328" y="-524.9" font-family="Arial" font-size="14.00" fill="#666666">[varchar(30)]</text>
<polygon fill="none" stroke="#000000" points="168.5,-483.5 168.5,-513.5 395.5,-513.5 395.5,-483.5 168.5,-483.5"/>
<text text-anchor="start" x="175.5" y="-494.9" font-family="Arial" font-size="14.00" fill="#000000">prop_key </text>
<text text-anchor="start" x="236.9642" y="-494.9" font-family="Arial" font-size="14.00" fill="#666666">[varchar(30)]</text>
<polygon fill="none" stroke="#000000" points="168.5,-453.5 168.5,-483.5 395.5,-483.5 395.5,-453.5 168.5,-453.5"/>
<text text-anchor="start" x="175.5" y="-464.9" font-family="Arial" font-size="14.00" fill="#000000">old_value </text>
<text text-anchor="start" x="239.2994" y="-464.9" font-family="Arial" font-size="14.00" fill="#666666">[longtext]</text>
<polygon fill="none" stroke="#000000" points="168.5,-423.5 168.5,-453.5 395.5,-453.5 395.5,-423.5 168.5,-423.5"/>
<text text-anchor="start" x="175.5" y="-434.9" font-family="Arial" font-size="14.00" fill="#000000">value </text>
<text text-anchor="start" x="212.845" y="-434.9" font-family="Arial" font-size="14.00" fill="#666666">[longtext]</text>
<polygon fill="none" stroke="#000000" stroke-width="3" points="166.5,-422.5 166.5,-640.5 396.5,-640.5 396.5,-422.5 166.5,-422.5"/>
</g>
<!-- journals -->
<g id="node2" class="node">
<title>journals</title>
<polygon fill="#efefef" stroke="transparent" points="43.5,-253 43.5,-299 520.5,-299 520.5,-253 43.5,-253"/>
<polygon fill="none" stroke="#000000" points="43.5,-253 43.5,-299 520.5,-299 520.5,-253 43.5,-253"/>
<text text-anchor="start" x="201.8704" y="-276.8" font-family="Arial Bold" font-size="18.00" fill="#000000">journals</text>
<text text-anchor="start" x="264.8758" y="-276.8" font-family="Arial" font-size="14.00" fill="#000000"> </text>
<text text-anchor="start" x="268.7664" y="-276.8" font-family="Arial" font-size="14.00" fill="#666666">[BASE TABLE]</text>
<text text-anchor="start" x="241.0458" y="-262.4" font-family="Arial" font-size="14.00" fill="#333333">ジャーナル</text>
<polygon fill="none" stroke="#000000" points="43.5,-223 43.5,-253 520.5,-253 520.5,-223 43.5,-223"/>
<text text-anchor="start" x="50.5" y="-234.4" font-family="Arial" font-size="14.00" fill="#000000">id </text>
<text text-anchor="start" x="65.2798" y="-234.4" font-family="Arial" font-size="14.00" fill="#666666">[int(11)]</text>
<polygon fill="none" stroke="#000000" points="43.5,-193 43.5,-223 520.5,-223 520.5,-193 43.5,-193"/>
<text text-anchor="start" x="50.5" y="-204.4" font-family="Arial" font-size="14.00" fill="#000000">journalized_id </text>
<text text-anchor="start" x="140.7384" y="-204.4" font-family="Arial" font-size="14.00" fill="#666666">[int(11)]</text>
<polygon fill="none" stroke="#000000" points="43.5,-163 43.5,-193 520.5,-193 520.5,-163 43.5,-163"/>
<text text-anchor="start" x="50.4575" y="-174.4" font-family="Arial" font-size="14.00" fill="#000000">journalized_type </text>
<text text-anchor="start" x="156.2625" y="-174.4" font-family="Arial" font-size="14.00" fill="#666666">[varchar(30)]</text>
<text text-anchor="start" x="235.5991" y="-174.4" font-family="Arial" font-size="14.00" fill="#000000"> Issue:チケット Changeset:チェンジセット </text>
<polygon fill="none" stroke="#000000" points="43.5,-133 43.5,-163 520.5,-163 520.5,-133 43.5,-133"/>
<text text-anchor="start" x="50.5" y="-144.4" font-family="Arial" font-size="14.00" fill="#000000">user_id </text>
<text text-anchor="start" x="100.2882" y="-144.4" font-family="Arial" font-size="14.00" fill="#666666">[int(11)]</text>
<polygon fill="none" stroke="#000000" points="43.5,-103 43.5,-133 520.5,-133 520.5,-103 43.5,-103"/>
<text text-anchor="start" x="50.5" y="-114.4" font-family="Arial" font-size="14.00" fill="#000000">notes </text>
<text text-anchor="start" x="88.629" y="-114.4" font-family="Arial" font-size="14.00" fill="#666666">[longtext]</text>
<polygon fill="none" stroke="#000000" points="43.5,-73 43.5,-103 520.5,-103 520.5,-73 43.5,-73"/>
<text text-anchor="start" x="50.5" y="-84.4" font-family="Arial" font-size="14.00" fill="#000000">created_on </text>
<text text-anchor="start" x="124.42" y="-84.4" font-family="Arial" font-size="14.00" fill="#666666">[datetime]</text>
<polygon fill="none" stroke="#000000" points="43.5,-43 43.5,-73 520.5,-73 520.5,-43 43.5,-43"/>
<text text-anchor="start" x="50.5" y="-54.4" font-family="Arial" font-size="14.00" fill="#000000">private_notes </text>
<text text-anchor="start" x="138.4172" y="-54.4" font-family="Arial" font-size="14.00" fill="#666666">[tinyint(1)]</text>
</g>
<!-- journal_details&#45;&gt;journals -->
<g id="edge1" class="edge">
<title>journal_details:journal_id&#45;&gt;journals:id</title>
<path fill="none" stroke="#000000" stroke-dasharray="5,2" d="M158.3964,-556.7756C81.6823,-531.5488 -29.6626,-238 43.5,-238"/>
<polygon fill="#000000" stroke="#000000" points="158.6425,-556.8176 167.7429,-562.9359 163.5713,-557.6588 168.5,-558.5 168.5,-558.5 168.5,-558.5 163.5713,-557.6588 169.2571,-554.0641 158.6425,-556.8176 158.6425,-556.8176"/>
<text text-anchor="start" x="82.768" y="-568.5" font-family="Arial" font-size="10.00" fill="#000000">Detected Relation</text>
</g>
</g>
</svg>
