<?xml version="1.0" encoding="UTF-8" standalone="no"?>
<!DOCTYPE svg PUBLIC "-//W3C//DTD SVG 1.1//EN"
 "http://www.w3.org/Graphics/SVG/1.1/DTD/svg11.dtd">
<!-- Generated by graphviz version 2.40.1 (20161225.0304)
 -->
<!-- Title: journal_details Pages: 1 -->
<svg width="374pt" height="682pt"
 viewBox="0.00 0.00 373.50 682.00" xmlns="http://www.w3.org/2000/svg" xmlns:xlink="http://www.w3.org/1999/xlink">
<g id="graph0" class="graph" transform="scale(1 1) rotate(0) translate(4 678)">
<title>journal_details</title>
<polygon fill="#ffffff" stroke="transparent" points="-4,4 -4,-678 369.5,-678 369.5,4 -4,4"/>
<!-- journal_details -->
<g id="node1" class="node">
<title>journal_details</title>
<polygon fill="#efefef" stroke="transparent" points="93,-592.5 93,-627.5 320,-627.5 320,-592.5 93,-592.5"/>
<polygon fill="none" stroke="#000000" points="93,-592.5 93,-627.5 320,-627.5 320,-592.5 93,-592.5"/>
<text text-anchor="start" x="99.8627" y="-605.3" font-family="Arial Bold" font-size="18.00" fill="#000000">journal_details</text>
<text text-anchor="start" x="215.8835" y="-605.3" font-family="Arial" font-size="14.00" fill="#000000"> </text>
<text text-anchor="start" x="219.7741" y="-605.3" font-family="Arial" font-size="14.00" fill="#666666">[BASE TABLE]</text>
<polygon fill="none" stroke="#000000" points="93,-562.5 93,-592.5 320,-592.5 320,-562.5 93,-562.5"/>
<text text-anchor="start" x="100" y="-573.9" font-family="Arial" font-size="14.00" fill="#000000">id </text>
<text text-anchor="start" x="114.7798" y="-573.9" font-family="Arial" font-size="14.00" fill="#666666">[int(11)]</text>
<polygon fill="none" stroke="#000000" points="93,-532.5 93,-562.5 320,-562.5 320,-532.5 93,-532.5"/>
<text text-anchor="start" x="100" y="-543.9" font-family="Arial" font-size="14.00" fill="#000000">journal_id </text>
<text text-anchor="start" x="164.5666" y="-543.9" font-family="Arial" font-size="14.00" fill="#666666">[int(11)]</text>
<polygon fill="none" stroke="#000000" points="93,-502.5 93,-532.5 320,-532.5 320,-502.5 93,-502.5"/>
<text text-anchor="start" x="100" y="-513.9" font-family="Arial" font-size="14.00" fill="#000000">property </text>
<text text-anchor="start" x="155.2328" y="-513.9" font-family="Arial" font-size="14.00" fill="#666666">[varchar(30)]</text>
<polygon fill="none" stroke="#000000" points="93,-472.5 93,-502.5 320,-502.5 320,-472.5 93,-472.5"/>
<text text-anchor="start" x="100" y="-483.9" font-family="Arial" font-size="14.00" fill="#000000">prop_key </text>
<text text-anchor="start" x="161.4642" y="-483.9" font-family="Arial" font-size="14.00" fill="#666666">[varchar(30)]</text>
<polygon fill="none" stroke="#000000" points="93,-442.5 93,-472.5 320,-472.5 320,-442.5 93,-442.5"/>
<text text-anchor="start" x="100" y="-453.9" font-family="Arial" font-size="14.00" fill="#000000">old_value </text>
<text text-anchor="start" x="163.7994" y="-453.9" font-family="Arial" font-size="14.00" fill="#666666">[longtext]</text>
<polygon fill="none" stroke="#000000" points="93,-412.5 93,-442.5 320,-442.5 320,-412.5 93,-412.5"/>
<text text-anchor="start" x="100" y="-423.9" font-family="Arial" font-size="14.00" fill="#000000">value </text>
<text text-anchor="start" x="137.345" y="-423.9" font-family="Arial" font-size="14.00" fill="#666666">[longtext]</text>
<polygon fill="none" stroke="#000000" stroke-width="3" points="91,-411.5 91,-629.5 321,-629.5 321,-411.5 91,-411.5"/>
</g>
<!-- journals -->
<g id="node2" class="node">
<title>journals</title>
<polygon fill="#efefef" stroke="transparent" points="107,-252.5 107,-287.5 306,-287.5 306,-252.5 107,-252.5"/>
<polygon fill="none" stroke="#000000" points="107,-252.5 107,-287.5 306,-287.5 306,-252.5 107,-252.5"/>
<text text-anchor="start" x="126.3704" y="-265.3" font-family="Arial Bold" font-size="18.00" fill="#000000">journals</text>
<text text-anchor="start" x="189.3758" y="-265.3" font-family="Arial" font-size="14.00" fill="#000000"> </text>
<text text-anchor="start" x="193.2664" y="-265.3" font-family="Arial" font-size="14.00" fill="#666666">[BASE TABLE]</text>
<polygon fill="none" stroke="#000000" points="107,-222.5 107,-252.5 306,-252.5 306,-222.5 107,-222.5"/>
<text text-anchor="start" x="114" y="-233.9" font-family="Arial" font-size="14.00" fill="#000000">id </text>
<text text-anchor="start" x="128.7798" y="-233.9" font-family="Arial" font-size="14.00" fill="#666666">[int(11)]</text>
<polygon fill="none" stroke="#000000" points="107,-192.5 107,-222.5 306,-222.5 306,-192.5 107,-192.5"/>
<text text-anchor="start" x="114" y="-203.9" font-family="Arial" font-size="14.00" fill="#000000">journalized_id </text>
<text text-anchor="start" x="204.2384" y="-203.9" font-family="Arial" font-size="14.00" fill="#666666">[int(11)]</text>
<polygon fill="none" stroke="#000000" points="107,-162.5 107,-192.5 306,-192.5 306,-162.5 107,-162.5"/>
<text text-anchor="start" x="113.9292" y="-173.9" font-family="Arial" font-size="14.00" fill="#000000">journalized_type </text>
<text text-anchor="start" x="219.7342" y="-173.9" font-family="Arial" font-size="14.00" fill="#666666">[varchar(30)]</text>
<polygon fill="none" stroke="#000000" points="107,-132.5 107,-162.5 306,-162.5 306,-132.5 107,-132.5"/>
<text text-anchor="start" x="114" y="-143.9" font-family="Arial" font-size="14.00" fill="#000000">user_id </text>
<text text-anchor="start" x="163.7882" y="-143.9" font-family="Arial" font-size="14.00" fill="#666666">[int(11)]</text>
<polygon fill="none" stroke="#000000" points="107,-102.5 107,-132.5 306,-132.5 306,-102.5 107,-102.5"/>
<text text-anchor="start" x="114" y="-113.9" font-family="Arial" font-size="14.00" fill="#000000">notes </text>
<text text-anchor="start" x="152.129" y="-113.9" font-family="Arial" font-size="14.00" fill="#666666">[longtext]</text>
<polygon fill="none" stroke="#000000" points="107,-72.5 107,-102.5 306,-102.5 306,-72.5 107,-72.5"/>
<text text-anchor="start" x="114" y="-83.9" font-family="Arial" font-size="14.00" fill="#000000">created_on </text>
<text text-anchor="start" x="187.92" y="-83.9" font-family="Arial" font-size="14.00" fill="#666666">[datetime]</text>
<polygon fill="none" stroke="#000000" points="107,-42.5 107,-72.5 306,-72.5 306,-42.5 107,-42.5"/>
<text text-anchor="start" x="114" y="-53.9" font-family="Arial" font-size="14.00" fill="#000000">private_notes </text>
<text text-anchor="start" x="201.9172" y="-53.9" font-family="Arial" font-size="14.00" fill="#666666">[tinyint(1)]</text>
</g>
<!-- journal_details&#45;&gt;journals -->
<g id="edge1" class="edge">
<title>journal_details:journal_id&#45;&gt;journals:id</title>
<path fill="none" stroke="#000000" stroke-dasharray="5,2" d="M83.1326,-545.183C25.6045,-516.815 41.5427,-237.5 107,-237.5"/>
<polygon fill="#000000" stroke="#000000" points="83.2648,-545.2139 91.9713,-551.8808 88.1324,-546.357 93,-547.5 93,-547.5 93,-547.5 88.1324,-546.357 94.0287,-543.1192 83.2648,-545.2139 83.2648,-545.2139"/>
<text text-anchor="start" x="7.268" y="-557.5" font-family="Arial" font-size="10.00" fill="#000000">Detected Relation</text>
</g>
</g>
</svg>
