<?xml version="1.0" encoding="UTF-8" standalone="no"?>
<!DOCTYPE svg PUBLIC "-//W3C//DTD SVG 1.1//EN"
 "http://www.w3.org/Graphics/SVG/1.1/DTD/svg11.dtd">
<!-- Generated by graphviz version 2.40.1 (20161225.0304)
 -->
<!-- Title: journals Pages: 1 -->
<svg width="576pt" height="1480pt"
 viewBox="0.00 0.00 576.00 1480.00" xmlns="http://www.w3.org/2000/svg" xmlns:xlink="http://www.w3.org/1999/xlink">
<g id="graph0" class="graph" transform="scale(1 1) rotate(0) translate(4 1476)">
<title>journals</title>
<polygon fill="#ffffff" stroke="transparent" points="-4,4 -4,-1476 572,-1476 572,4 -4,4"/>
<!-- journals -->
<g id="node1" class="node">
<title>journals</title>
<polygon fill="#efefef" stroke="transparent" points="184,-1053.5 184,-1088.5 383,-1088.5 383,-1053.5 184,-1053.5"/>
<polygon fill="none" stroke="#000000" points="184,-1053.5 184,-1088.5 383,-1088.5 383,-1053.5 184,-1053.5"/>
<text text-anchor="start" x="203.3704" y="-1066.3" font-family="Arial Bold" font-size="18.00" fill="#000000">journals</text>
<text text-anchor="start" x="266.3758" y="-1066.3" font-family="Arial" font-size="14.00" fill="#000000"> </text>
<text text-anchor="start" x="270.2664" y="-1066.3" font-family="Arial" font-size="14.00" fill="#666666">[BASE TABLE]</text>
<polygon fill="none" stroke="#000000" points="184,-1023.5 184,-1053.5 383,-1053.5 383,-1023.5 184,-1023.5"/>
<text text-anchor="start" x="191" y="-1034.9" font-family="Arial" font-size="14.00" fill="#000000">id </text>
<text text-anchor="start" x="205.7798" y="-1034.9" font-family="Arial" font-size="14.00" fill="#666666">[int(11)]</text>
<polygon fill="none" stroke="#000000" points="184,-993.5 184,-1023.5 383,-1023.5 383,-993.5 184,-993.5"/>
<text text-anchor="start" x="191" y="-1004.9" font-family="Arial" font-size="14.00" fill="#000000">journalized_id </text>
<text text-anchor="start" x="281.2384" y="-1004.9" font-family="Arial" font-size="14.00" fill="#666666">[int(11)]</text>
<polygon fill="none" stroke="#000000" points="184,-963.5 184,-993.5 383,-993.5 383,-963.5 184,-963.5"/>
<text text-anchor="start" x="190.9292" y="-974.9" font-family="Arial" font-size="14.00" fill="#000000">journalized_type </text>
<text text-anchor="start" x="296.7342" y="-974.9" font-family="Arial" font-size="14.00" fill="#666666">[varchar(30)]</text>
<polygon fill="none" stroke="#000000" points="184,-933.5 184,-963.5 383,-963.5 383,-933.5 184,-933.5"/>
<text text-anchor="start" x="191" y="-944.9" font-family="Arial" font-size="14.00" fill="#000000">user_id </text>
<text text-anchor="start" x="240.7882" y="-944.9" font-family="Arial" font-size="14.00" fill="#666666">[int(11)]</text>
<polygon fill="none" stroke="#000000" points="184,-903.5 184,-933.5 383,-933.5 383,-903.5 184,-903.5"/>
<text text-anchor="start" x="191" y="-914.9" font-family="Arial" font-size="14.00" fill="#000000">notes </text>
<text text-anchor="start" x="229.129" y="-914.9" font-family="Arial" font-size="14.00" fill="#666666">[longtext]</text>
<polygon fill="none" stroke="#000000" points="184,-873.5 184,-903.5 383,-903.5 383,-873.5 184,-873.5"/>
<text text-anchor="start" x="191" y="-884.9" font-family="Arial" font-size="14.00" fill="#000000">created_on </text>
<text text-anchor="start" x="264.92" y="-884.9" font-family="Arial" font-size="14.00" fill="#666666">[datetime]</text>
<polygon fill="none" stroke="#000000" points="184,-843.5 184,-873.5 383,-873.5 383,-843.5 184,-843.5"/>
<text text-anchor="start" x="191" y="-854.9" font-family="Arial" font-size="14.00" fill="#000000">private_notes </text>
<text text-anchor="start" x="278.9172" y="-854.9" font-family="Arial" font-size="14.00" fill="#666666">[tinyint(1)]</text>
<polygon fill="none" stroke="#000000" stroke-width="3" points="182,-842.5 182,-1090.5 384,-1090.5 384,-842.5 182,-842.5"/>
</g>
<!-- users -->
<g id="node3" class="node">
<title>users</title>
<polygon fill="#efefef" stroke="transparent" points="43,-673 43,-719 525,-719 525,-673 43,-673"/>
<polygon fill="none" stroke="#000000" points="43,-673 43,-719 525,-719 525,-673 43,-673"/>
<text text-anchor="start" x="213.3708" y="-696.8" font-family="Arial Bold" font-size="18.00" fill="#000000">users</text>
<text text-anchor="start" x="257.3754" y="-696.8" font-family="Arial" font-size="14.00" fill="#000000"> </text>
<text text-anchor="start" x="261.266" y="-696.8" font-family="Arial" font-size="14.00" fill="#666666">[BASE TABLE]</text>
<text text-anchor="start" x="205.4558" y="-682.4" font-family="Arial" font-size="14.00" fill="#333333">ユーザー / グループ</text>
<polygon fill="none" stroke="#000000" points="43,-643 43,-673 525,-673 525,-643 43,-643"/>
<text text-anchor="start" x="50" y="-654.4" font-family="Arial" font-size="14.00" fill="#000000">id </text>
<text text-anchor="start" x="64.7798" y="-654.4" font-family="Arial" font-size="14.00" fill="#666666">[int(11)]</text>
<polygon fill="none" stroke="#000000" points="43,-613 43,-643 525,-643 525,-613 43,-613"/>
<text text-anchor="start" x="50" y="-624.4" font-family="Arial" font-size="14.00" fill="#000000">login </text>
<text text-anchor="start" x="83.4516" y="-624.4" font-family="Arial" font-size="14.00" fill="#666666">[varchar(255)]</text>
<text text-anchor="start" x="170.5708" y="-624.4" font-family="Arial" font-size="14.00" fill="#000000"> ログインID</text>
<polygon fill="none" stroke="#000000" points="43,-583 43,-613 525,-613 525,-583 43,-583"/>
<text text-anchor="start" x="50" y="-594.4" font-family="Arial" font-size="14.00" fill="#000000">hashed_password </text>
<text text-anchor="start" x="167.4838" y="-594.4" font-family="Arial" font-size="14.00" fill="#666666">[varchar(40)]</text>
<text text-anchor="start" x="246.8204" y="-594.4" font-family="Arial" font-size="14.00" fill="#000000"> パスワード(ハッシュ化済み)</text>
<polygon fill="none" stroke="#000000" points="43,-553 43,-583 525,-583 525,-553 43,-553"/>
<text text-anchor="start" x="50" y="-564.4" font-family="Arial" font-size="14.00" fill="#000000">firstname </text>
<text text-anchor="start" x="111.4474" y="-564.4" font-family="Arial" font-size="14.00" fill="#666666">[varchar(30)]</text>
<text text-anchor="start" x="190.784" y="-564.4" font-family="Arial" font-size="14.00" fill="#000000"> 名</text>
<polygon fill="none" stroke="#000000" points="43,-523 43,-553 525,-553 525,-523 43,-523"/>
<text text-anchor="start" x="50" y="-534.4" font-family="Arial" font-size="14.00" fill="#000000">lastname </text>
<text text-anchor="start" x="110.6788" y="-534.4" font-family="Arial" font-size="14.00" fill="#666666">[varchar(255)]</text>
<text text-anchor="start" x="197.798" y="-534.4" font-family="Arial" font-size="14.00" fill="#000000"> 姓</text>
<polygon fill="none" stroke="#000000" points="43,-493 43,-523 525,-523 525,-493 43,-493"/>
<text text-anchor="start" x="50" y="-504.4" font-family="Arial" font-size="14.00" fill="#000000">admin </text>
<text text-anchor="start" x="92.0056" y="-504.4" font-family="Arial" font-size="14.00" fill="#666666">[tinyint(1)]</text>
<text text-anchor="start" x="153.4502" y="-504.4" font-family="Arial" font-size="14.00" fill="#000000"> システム管理者</text>
<polygon fill="none" stroke="#000000" points="43,-463 43,-493 525,-493 525,-463 43,-463"/>
<text text-anchor="start" x="50" y="-474.4" font-family="Arial" font-size="14.00" fill="#000000">status </text>
<text text-anchor="start" x="91.237" y="-474.4" font-family="Arial" font-size="14.00" fill="#666666">[int(11)]</text>
<polygon fill="none" stroke="#000000" points="43,-433 43,-463 525,-463 525,-433 43,-433"/>
<text text-anchor="start" x="50" y="-444.4" font-family="Arial" font-size="14.00" fill="#000000">last_login_on </text>
<text text-anchor="start" x="136.3618" y="-444.4" font-family="Arial" font-size="14.00" fill="#666666">[datetime]</text>
<polygon fill="none" stroke="#000000" points="43,-403 43,-433 525,-433 525,-403 43,-403"/>
<text text-anchor="start" x="50" y="-414.4" font-family="Arial" font-size="14.00" fill="#000000">language </text>
<text text-anchor="start" x="111.4754" y="-414.4" font-family="Arial" font-size="14.00" fill="#666666">[varchar(5)]</text>
<text text-anchor="start" x="183.0294" y="-414.4" font-family="Arial" font-size="14.00" fill="#000000"> 言語</text>
<polygon fill="none" stroke="#000000" points="43,-373 43,-403 525,-403 525,-373 43,-373"/>
<text text-anchor="start" x="50" y="-384.4" font-family="Arial" font-size="14.00" fill="#000000">auth_source_id </text>
<text text-anchor="start" x="149.5918" y="-384.4" font-family="Arial" font-size="14.00" fill="#666666">[int(11)]</text>
<polygon fill="none" stroke="#000000" points="43,-343 43,-373 525,-373 525,-343 43,-343"/>
<text text-anchor="start" x="50" y="-354.4" font-family="Arial" font-size="14.00" fill="#000000">created_on </text>
<text text-anchor="start" x="123.92" y="-354.4" font-family="Arial" font-size="14.00" fill="#666666">[timestamp]</text>
<polygon fill="none" stroke="#000000" points="43,-313 43,-343 525,-343 525,-313 43,-313"/>
<text text-anchor="start" x="50" y="-324.4" font-family="Arial" font-size="14.00" fill="#000000">updated_on </text>
<text text-anchor="start" x="127.8246" y="-324.4" font-family="Arial" font-size="14.00" fill="#666666">[timestamp]</text>
<polygon fill="none" stroke="#000000" points="43,-283 43,-313 525,-313 525,-283 43,-283"/>
<text text-anchor="start" x="50" y="-294.4" font-family="Arial" font-size="14.00" fill="#000000">type </text>
<text text-anchor="start" x="80.3464" y="-294.4" font-family="Arial" font-size="14.00" fill="#666666">[varchar(255)]</text>
<text text-anchor="start" x="167.4656" y="-294.4" font-family="Arial" font-size="14.00" fill="#000000"> User:ユーザー Group:グループ </text>
<polygon fill="none" stroke="#000000" points="43,-253 43,-283 525,-283 525,-253 43,-253"/>
<text text-anchor="start" x="50" y="-264.4" font-family="Arial" font-size="14.00" fill="#000000">mail_notification </text>
<text text-anchor="start" x="154.2342" y="-264.4" font-family="Arial" font-size="14.00" fill="#666666">[varchar(255)]</text>
<text text-anchor="start" x="241.3534" y="-264.4" font-family="Arial" font-size="14.00" fill="#000000"> メール通知</text>
<polygon fill="none" stroke="#000000" points="43,-223 43,-253 525,-253 525,-223 43,-223"/>
<text text-anchor="start" x="50" y="-234.4" font-family="Arial" font-size="14.00" fill="#000000">salt </text>
<text text-anchor="start" x="75.6704" y="-234.4" font-family="Arial" font-size="14.00" fill="#666666">[varchar(64)]</text>
<polygon fill="none" stroke="#000000" points="43,-193 43,-223 525,-223 525,-193 43,-193"/>
<text text-anchor="start" x="49.7646" y="-204.4" font-family="Arial" font-size="14.00" fill="#000000">must_change_passwd </text>
<text text-anchor="start" x="192.9216" y="-204.4" font-family="Arial" font-size="14.00" fill="#666666">[tinyint(1)]</text>
<text text-anchor="start" x="254.3662" y="-204.4" font-family="Arial" font-size="14.00" fill="#000000"> 次回ログイン時にパスワード変更を強制</text>
<polygon fill="none" stroke="#000000" points="43,-163 43,-193 525,-193 525,-163 43,-163"/>
<text text-anchor="start" x="50" y="-174.4" font-family="Arial" font-size="14.00" fill="#000000">passwd_changed_on </text>
<text text-anchor="start" x="186.171" y="-174.4" font-family="Arial" font-size="14.00" fill="#666666">[datetime]</text>
<polygon fill="none" stroke="#000000" points="43,-133 43,-163 525,-163 525,-133 43,-133"/>
<text text-anchor="start" x="50" y="-144.4" font-family="Arial" font-size="14.00" fill="#000000">twofa_scheme </text>
<text text-anchor="start" x="144.1346" y="-144.4" font-family="Arial" font-size="14.00" fill="#666666">[varchar(255)]</text>
<polygon fill="none" stroke="#000000" points="43,-103 43,-133 525,-133 525,-103 43,-103"/>
<text text-anchor="start" x="50" y="-114.4" font-family="Arial" font-size="14.00" fill="#000000">twofa_totp_key </text>
<text text-anchor="start" x="148.0378" y="-114.4" font-family="Arial" font-size="14.00" fill="#666666">[varchar(255)]</text>
<polygon fill="none" stroke="#000000" points="43,-73 43,-103 525,-103 525,-73 43,-73"/>
<text text-anchor="start" x="50" y="-84.4" font-family="Arial" font-size="14.00" fill="#000000">twofa_totp_last_used_at </text>
<text text-anchor="start" x="205.6212" y="-84.4" font-family="Arial" font-size="14.00" fill="#666666">[int(11)]</text>
<polygon fill="none" stroke="#000000" points="43,-43 43,-73 525,-73 525,-43 43,-43"/>
<text text-anchor="start" x="50" y="-54.4" font-family="Arial" font-size="14.00" fill="#000000">twofa_required </text>
<text text-anchor="start" x="146.467" y="-54.4" font-family="Arial" font-size="14.00" fill="#666666">[tinyint(1)]</text>
</g>
<!-- journals&#45;&gt;users -->
<g id="edge2" class="edge">
<title>journals:user_id&#45;&gt;users:id</title>
<path fill="none" stroke="#000000" stroke-dasharray="5,2" d="M393.1859,-947.6207C447.3986,-937.6304 425.2916,-845.006 383,-798 332.1826,-741.5179 93.8174,-818.4821 43,-762 12.0845,-727.6383 -3.2222,-658 43,-658"/>
<polygon fill="#000000" stroke="#000000" points="392.9629,-947.6398 382.6129,-944.0167 387.9815,-948.0699 383,-948.5 383,-948.5 383,-948.5 387.9815,-948.0699 383.3871,-952.9833 392.9629,-947.6398 392.9629,-947.6398"/>
<text text-anchor="start" x="390.268" y="-958.5" font-family="Arial" font-size="10.00" fill="#000000">Detected Relation</text>
</g>
<!-- journal_details -->
<g id="node2" class="node">
<title>journal_details</title>
<polygon fill="#efefef" stroke="transparent" points="170,-1393.5 170,-1428.5 397,-1428.5 397,-1393.5 170,-1393.5"/>
<polygon fill="none" stroke="#000000" points="170,-1393.5 170,-1428.5 397,-1428.5 397,-1393.5 170,-1393.5"/>
<text text-anchor="start" x="176.8627" y="-1406.3" font-family="Arial Bold" font-size="18.00" fill="#000000">journal_details</text>
<text text-anchor="start" x="292.8835" y="-1406.3" font-family="Arial" font-size="14.00" fill="#000000"> </text>
<text text-anchor="start" x="296.7741" y="-1406.3" font-family="Arial" font-size="14.00" fill="#666666">[BASE TABLE]</text>
<polygon fill="none" stroke="#000000" points="170,-1363.5 170,-1393.5 397,-1393.5 397,-1363.5 170,-1363.5"/>
<text text-anchor="start" x="177" y="-1374.9" font-family="Arial" font-size="14.00" fill="#000000">id </text>
<text text-anchor="start" x="191.7798" y="-1374.9" font-family="Arial" font-size="14.00" fill="#666666">[int(11)]</text>
<polygon fill="none" stroke="#000000" points="170,-1333.5 170,-1363.5 397,-1363.5 397,-1333.5 170,-1333.5"/>
<text text-anchor="start" x="177" y="-1344.9" font-family="Arial" font-size="14.00" fill="#000000">journal_id </text>
<text text-anchor="start" x="241.5666" y="-1344.9" font-family="Arial" font-size="14.00" fill="#666666">[int(11)]</text>
<polygon fill="none" stroke="#000000" points="170,-1303.5 170,-1333.5 397,-1333.5 397,-1303.5 170,-1303.5"/>
<text text-anchor="start" x="177" y="-1314.9" font-family="Arial" font-size="14.00" fill="#000000">property </text>
<text text-anchor="start" x="232.2328" y="-1314.9" font-family="Arial" font-size="14.00" fill="#666666">[varchar(30)]</text>
<polygon fill="none" stroke="#000000" points="170,-1273.5 170,-1303.5 397,-1303.5 397,-1273.5 170,-1273.5"/>
<text text-anchor="start" x="177" y="-1284.9" font-family="Arial" font-size="14.00" fill="#000000">prop_key </text>
<text text-anchor="start" x="238.4642" y="-1284.9" font-family="Arial" font-size="14.00" fill="#666666">[varchar(30)]</text>
<polygon fill="none" stroke="#000000" points="170,-1243.5 170,-1273.5 397,-1273.5 397,-1243.5 170,-1243.5"/>
<text text-anchor="start" x="177" y="-1254.9" font-family="Arial" font-size="14.00" fill="#000000">old_value </text>
<text text-anchor="start" x="240.7994" y="-1254.9" font-family="Arial" font-size="14.00" fill="#666666">[longtext]</text>
<polygon fill="none" stroke="#000000" points="170,-1213.5 170,-1243.5 397,-1243.5 397,-1213.5 170,-1213.5"/>
<text text-anchor="start" x="177" y="-1224.9" font-family="Arial" font-size="14.00" fill="#000000">value </text>
<text text-anchor="start" x="214.345" y="-1224.9" font-family="Arial" font-size="14.00" fill="#666666">[longtext]</text>
</g>
<!-- journal_details&#45;&gt;journals -->
<g id="edge1" class="edge">
<title>journal_details:journal_id&#45;&gt;journals:id</title>
<path fill="none" stroke="#000000" stroke-dasharray="5,2" d="M159.7879,-1347.9106C32.8726,-1332.9577 49.5836,-1038.5 184,-1038.5"/>
<polygon fill="#000000" stroke="#000000" points="160.0166,-1347.9237 169.7407,-1352.9925 165.0083,-1348.2119 170,-1348.5 170,-1348.5 170,-1348.5 165.0083,-1348.2119 170.2593,-1344.0075 160.0166,-1347.9237 160.0166,-1347.9237"/>
<text text-anchor="start" x="84.268" y="-1358.5" font-family="Arial" font-size="10.00" fill="#000000">Detected Relation</text>
</g>
</g>
</svg>
