<?xml version="1.0" encoding="UTF-8" standalone="no"?>
<!DOCTYPE svg PUBLIC "-//W3C//DTD SVG 1.1//EN"
 "http://www.w3.org/Graphics/SVG/1.1/DTD/svg11.dtd">
<!-- Generated by graphviz version 2.40.1 (20161225.0304)
 -->
<!-- Title: members Pages: 1 -->
<svg width="890pt" height="1360pt"
 viewBox="0.00 0.00 889.50 1360.00" xmlns="http://www.w3.org/2000/svg" xmlns:xlink="http://www.w3.org/1999/xlink">
<g id="graph0" class="graph" transform="scale(1 1) rotate(0) translate(4 1356)">
<title>members</title>
<polygon fill="#ffffff" stroke="transparent" points="-4,4 -4,-1356 885.5,-1356 885.5,4 -4,4"/>
<!-- members -->
<g id="node1" class="node">
<title>members</title>
<polygon fill="#efefef" stroke="transparent" points="416,-993.5 416,-1028.5 602,-1028.5 602,-993.5 416,-993.5"/>
<polygon fill="none" stroke="#000000" points="416,-993.5 416,-1028.5 602,-1028.5 602,-993.5 416,-993.5"/>
<text text-anchor="start" x="422.8755" y="-1006.3" font-family="Arial Bold" font-size="18.00" fill="#000000">members</text>
<text text-anchor="start" x="497.8707" y="-1006.3" font-family="Arial" font-size="14.00" fill="#000000"> </text>
<text text-anchor="start" x="501.7613" y="-1006.3" font-family="Arial" font-size="14.00" fill="#666666">[BASE TABLE]</text>
<polygon fill="none" stroke="#000000" points="416,-963.5 416,-993.5 602,-993.5 602,-963.5 416,-963.5"/>
<text text-anchor="start" x="423" y="-974.9" font-family="Arial" font-size="14.00" fill="#000000">id </text>
<text text-anchor="start" x="437.7798" y="-974.9" font-family="Arial" font-size="14.00" fill="#666666">[int(11)]</text>
<polygon fill="none" stroke="#000000" points="416,-933.5 416,-963.5 602,-963.5 602,-933.5 416,-933.5"/>
<text text-anchor="start" x="423" y="-944.9" font-family="Arial" font-size="14.00" fill="#000000">user_id </text>
<text text-anchor="start" x="472.7882" y="-944.9" font-family="Arial" font-size="14.00" fill="#666666">[int(11)]</text>
<polygon fill="none" stroke="#000000" points="416,-903.5 416,-933.5 602,-933.5 602,-903.5 416,-903.5"/>
<text text-anchor="start" x="423" y="-914.9" font-family="Arial" font-size="14.00" fill="#000000">project_id </text>
<text text-anchor="start" x="487.568" y="-914.9" font-family="Arial" font-size="14.00" fill="#666666">[int(11)]</text>
<polygon fill="none" stroke="#000000" points="416,-873.5 416,-903.5 602,-903.5 602,-873.5 416,-873.5"/>
<text text-anchor="start" x="423" y="-884.9" font-family="Arial" font-size="14.00" fill="#000000">created_on </text>
<text text-anchor="start" x="496.92" y="-884.9" font-family="Arial" font-size="14.00" fill="#666666">[timestamp]</text>
<polygon fill="none" stroke="#000000" points="416,-843.5 416,-873.5 602,-873.5 602,-843.5 416,-843.5"/>
<text text-anchor="start" x="423" y="-854.9" font-family="Arial" font-size="14.00" fill="#000000">mail_notification </text>
<text text-anchor="start" x="527.2342" y="-854.9" font-family="Arial" font-size="14.00" fill="#666666">[tinyint(1)]</text>
<polygon fill="none" stroke="#000000" stroke-width="3" points="414.5,-842.5 414.5,-1030.5 603.5,-1030.5 603.5,-842.5 414.5,-842.5"/>
</g>
<!-- users -->
<g id="node3" class="node">
<title>users</title>
<polygon fill="#efefef" stroke="transparent" points="43,-673 43,-719 525,-719 525,-673 43,-673"/>
<polygon fill="none" stroke="#000000" points="43,-673 43,-719 525,-719 525,-673 43,-673"/>
<text text-anchor="start" x="213.3708" y="-696.8" font-family="Arial Bold" font-size="18.00" fill="#000000">users</text>
<text text-anchor="start" x="257.3754" y="-696.8" font-family="Arial" font-size="14.00" fill="#000000"> </text>
<text text-anchor="start" x="261.266" y="-696.8" font-family="Arial" font-size="14.00" fill="#666666">[BASE TABLE]</text>
<text text-anchor="start" x="205.4558" y="-682.4" font-family="Arial" font-size="14.00" fill="#333333">ユーザー / グループ</text>
<polygon fill="none" stroke="#000000" points="43,-643 43,-673 525,-673 525,-643 43,-643"/>
<text text-anchor="start" x="50" y="-654.4" font-family="Arial" font-size="14.00" fill="#000000">id </text>
<text text-anchor="start" x="64.7798" y="-654.4" font-family="Arial" font-size="14.00" fill="#666666">[int(11)]</text>
<polygon fill="none" stroke="#000000" points="43,-613 43,-643 525,-643 525,-613 43,-613"/>
<text text-anchor="start" x="50" y="-624.4" font-family="Arial" font-size="14.00" fill="#000000">login </text>
<text text-anchor="start" x="83.4516" y="-624.4" font-family="Arial" font-size="14.00" fill="#666666">[varchar(255)]</text>
<text text-anchor="start" x="170.5708" y="-624.4" font-family="Arial" font-size="14.00" fill="#000000"> ログインID</text>
<polygon fill="none" stroke="#000000" points="43,-583 43,-613 525,-613 525,-583 43,-583"/>
<text text-anchor="start" x="50" y="-594.4" font-family="Arial" font-size="14.00" fill="#000000">hashed_password </text>
<text text-anchor="start" x="167.4838" y="-594.4" font-family="Arial" font-size="14.00" fill="#666666">[varchar(40)]</text>
<text text-anchor="start" x="246.8204" y="-594.4" font-family="Arial" font-size="14.00" fill="#000000"> パスワード(ハッシュ化済み)</text>
<polygon fill="none" stroke="#000000" points="43,-553 43,-583 525,-583 525,-553 43,-553"/>
<text text-anchor="start" x="50" y="-564.4" font-family="Arial" font-size="14.00" fill="#000000">firstname </text>
<text text-anchor="start" x="111.4474" y="-564.4" font-family="Arial" font-size="14.00" fill="#666666">[varchar(30)]</text>
<text text-anchor="start" x="190.784" y="-564.4" font-family="Arial" font-size="14.00" fill="#000000"> 名</text>
<polygon fill="none" stroke="#000000" points="43,-523 43,-553 525,-553 525,-523 43,-523"/>
<text text-anchor="start" x="50" y="-534.4" font-family="Arial" font-size="14.00" fill="#000000">lastname </text>
<text text-anchor="start" x="110.6788" y="-534.4" font-family="Arial" font-size="14.00" fill="#666666">[varchar(255)]</text>
<text text-anchor="start" x="197.798" y="-534.4" font-family="Arial" font-size="14.00" fill="#000000"> 姓</text>
<polygon fill="none" stroke="#000000" points="43,-493 43,-523 525,-523 525,-493 43,-493"/>
<text text-anchor="start" x="50" y="-504.4" font-family="Arial" font-size="14.00" fill="#000000">admin </text>
<text text-anchor="start" x="92.0056" y="-504.4" font-family="Arial" font-size="14.00" fill="#666666">[tinyint(1)]</text>
<text text-anchor="start" x="153.4502" y="-504.4" font-family="Arial" font-size="14.00" fill="#000000"> システム管理者</text>
<polygon fill="none" stroke="#000000" points="43,-463 43,-493 525,-493 525,-463 43,-463"/>
<text text-anchor="start" x="50" y="-474.4" font-family="Arial" font-size="14.00" fill="#000000">status </text>
<text text-anchor="start" x="91.237" y="-474.4" font-family="Arial" font-size="14.00" fill="#666666">[int(11)]</text>
<polygon fill="none" stroke="#000000" points="43,-433 43,-463 525,-463 525,-433 43,-433"/>
<text text-anchor="start" x="50" y="-444.4" font-family="Arial" font-size="14.00" fill="#000000">last_login_on </text>
<text text-anchor="start" x="136.3618" y="-444.4" font-family="Arial" font-size="14.00" fill="#666666">[datetime]</text>
<polygon fill="none" stroke="#000000" points="43,-403 43,-433 525,-433 525,-403 43,-403"/>
<text text-anchor="start" x="50" y="-414.4" font-family="Arial" font-size="14.00" fill="#000000">language </text>
<text text-anchor="start" x="111.4754" y="-414.4" font-family="Arial" font-size="14.00" fill="#666666">[varchar(5)]</text>
<text text-anchor="start" x="183.0294" y="-414.4" font-family="Arial" font-size="14.00" fill="#000000"> 言語</text>
<polygon fill="none" stroke="#000000" points="43,-373 43,-403 525,-403 525,-373 43,-373"/>
<text text-anchor="start" x="50" y="-384.4" font-family="Arial" font-size="14.00" fill="#000000">auth_source_id </text>
<text text-anchor="start" x="149.5918" y="-384.4" font-family="Arial" font-size="14.00" fill="#666666">[int(11)]</text>
<polygon fill="none" stroke="#000000" points="43,-343 43,-373 525,-373 525,-343 43,-343"/>
<text text-anchor="start" x="50" y="-354.4" font-family="Arial" font-size="14.00" fill="#000000">created_on </text>
<text text-anchor="start" x="123.92" y="-354.4" font-family="Arial" font-size="14.00" fill="#666666">[timestamp]</text>
<polygon fill="none" stroke="#000000" points="43,-313 43,-343 525,-343 525,-313 43,-313"/>
<text text-anchor="start" x="50" y="-324.4" font-family="Arial" font-size="14.00" fill="#000000">updated_on </text>
<text text-anchor="start" x="127.8246" y="-324.4" font-family="Arial" font-size="14.00" fill="#666666">[timestamp]</text>
<polygon fill="none" stroke="#000000" points="43,-283 43,-313 525,-313 525,-283 43,-283"/>
<text text-anchor="start" x="50" y="-294.4" font-family="Arial" font-size="14.00" fill="#000000">type </text>
<text text-anchor="start" x="80.3464" y="-294.4" font-family="Arial" font-size="14.00" fill="#666666">[varchar(255)]</text>
<text text-anchor="start" x="167.4656" y="-294.4" font-family="Arial" font-size="14.00" fill="#000000"> User:ユーザー / Group:グループ</text>
<polygon fill="none" stroke="#000000" points="43,-253 43,-283 525,-283 525,-253 43,-253"/>
<text text-anchor="start" x="50" y="-264.4" font-family="Arial" font-size="14.00" fill="#000000">mail_notification </text>
<text text-anchor="start" x="154.2342" y="-264.4" font-family="Arial" font-size="14.00" fill="#666666">[varchar(255)]</text>
<text text-anchor="start" x="241.3534" y="-264.4" font-family="Arial" font-size="14.00" fill="#000000"> メール通知</text>
<polygon fill="none" stroke="#000000" points="43,-223 43,-253 525,-253 525,-223 43,-223"/>
<text text-anchor="start" x="50" y="-234.4" font-family="Arial" font-size="14.00" fill="#000000">salt </text>
<text text-anchor="start" x="75.6704" y="-234.4" font-family="Arial" font-size="14.00" fill="#666666">[varchar(64)]</text>
<polygon fill="none" stroke="#000000" points="43,-193 43,-223 525,-223 525,-193 43,-193"/>
<text text-anchor="start" x="49.7646" y="-204.4" font-family="Arial" font-size="14.00" fill="#000000">must_change_passwd </text>
<text text-anchor="start" x="192.9216" y="-204.4" font-family="Arial" font-size="14.00" fill="#666666">[tinyint(1)]</text>
<text text-anchor="start" x="254.3662" y="-204.4" font-family="Arial" font-size="14.00" fill="#000000"> 次回ログイン時にパスワード変更を強制</text>
<polygon fill="none" stroke="#000000" points="43,-163 43,-193 525,-193 525,-163 43,-163"/>
<text text-anchor="start" x="50" y="-174.4" font-family="Arial" font-size="14.00" fill="#000000">passwd_changed_on </text>
<text text-anchor="start" x="186.171" y="-174.4" font-family="Arial" font-size="14.00" fill="#666666">[datetime]</text>
<polygon fill="none" stroke="#000000" points="43,-133 43,-163 525,-163 525,-133 43,-133"/>
<text text-anchor="start" x="50" y="-144.4" font-family="Arial" font-size="14.00" fill="#000000">twofa_scheme </text>
<text text-anchor="start" x="144.1346" y="-144.4" font-family="Arial" font-size="14.00" fill="#666666">[varchar(255)]</text>
<polygon fill="none" stroke="#000000" points="43,-103 43,-133 525,-133 525,-103 43,-103"/>
<text text-anchor="start" x="50" y="-114.4" font-family="Arial" font-size="14.00" fill="#000000">twofa_totp_key </text>
<text text-anchor="start" x="148.0378" y="-114.4" font-family="Arial" font-size="14.00" fill="#666666">[varchar(255)]</text>
<polygon fill="none" stroke="#000000" points="43,-73 43,-103 525,-103 525,-73 43,-73"/>
<text text-anchor="start" x="50" y="-84.4" font-family="Arial" font-size="14.00" fill="#000000">twofa_totp_last_used_at </text>
<text text-anchor="start" x="205.6212" y="-84.4" font-family="Arial" font-size="14.00" fill="#666666">[int(11)]</text>
<polygon fill="none" stroke="#000000" points="43,-43 43,-73 525,-73 525,-43 43,-43"/>
<text text-anchor="start" x="50" y="-54.4" font-family="Arial" font-size="14.00" fill="#000000">twofa_required </text>
<text text-anchor="start" x="146.467" y="-54.4" font-family="Arial" font-size="14.00" fill="#666666">[tinyint(1)]</text>
</g>
<!-- members&#45;&gt;users -->
<g id="edge2" class="edge">
<title>members:user_id&#45;&gt;users:id</title>
<path fill="none" stroke="#000000" stroke-dasharray="5,2" d="M405.8611,-947.6587C352.1755,-938.094 378.9576,-849.2446 416,-798 445.8879,-756.653 495.1121,-803.347 525,-762 552.0782,-724.5398 571.2222,-658 525,-658"/>
<polygon fill="#000000" stroke="#000000" points="406.0342,-947.673 415.6278,-952.9846 411.0171,-948.0865 416,-948.5 416,-948.5 416,-948.5 411.0171,-948.0865 416.3722,-944.0154 406.0342,-947.673 406.0342,-947.673"/>
<text text-anchor="start" x="326.3245" y="-958.5" font-family="Arial" font-size="10.00" fill="#000000">Additional Relation</text>
</g>
<!-- projects -->
<g id="node4" class="node">
<title>projects</title>
<polygon fill="#efefef" stroke="transparent" points="630,-598 630,-644 839,-644 839,-598 630,-598"/>
<polygon fill="none" stroke="#000000" points="630,-598 630,-644 839,-644 839,-598 630,-598"/>
<text text-anchor="start" x="654.3695" y="-621.8" font-family="Arial Bold" font-size="18.00" fill="#000000">projects</text>
<text text-anchor="start" x="717.3767" y="-621.8" font-family="Arial" font-size="14.00" fill="#000000"> </text>
<text text-anchor="start" x="721.2673" y="-621.8" font-family="Arial" font-size="14.00" fill="#666666">[BASE TABLE]</text>
<text text-anchor="start" x="692.1269" y="-607.4" font-family="Arial" font-size="14.00" fill="#333333">プロジェクト</text>
<polygon fill="none" stroke="#000000" points="630,-568 630,-598 839,-598 839,-568 630,-568"/>
<text text-anchor="start" x="637" y="-579.4" font-family="Arial" font-size="14.00" fill="#000000">id </text>
<text text-anchor="start" x="651.7798" y="-579.4" font-family="Arial" font-size="14.00" fill="#666666">[int(11)]</text>
<polygon fill="none" stroke="#000000" points="630,-538 630,-568 839,-568 839,-538 630,-538"/>
<text text-anchor="start" x="637" y="-549.4" font-family="Arial" font-size="14.00" fill="#000000">name </text>
<text text-anchor="start" x="675.899" y="-549.4" font-family="Arial" font-size="14.00" fill="#666666">[varchar(255)]</text>
<polygon fill="none" stroke="#000000" points="630,-508 630,-538 839,-538 839,-508 630,-508"/>
<text text-anchor="start" x="637" y="-519.4" font-family="Arial" font-size="14.00" fill="#000000">description </text>
<text text-anchor="start" x="708.568" y="-519.4" font-family="Arial" font-size="14.00" fill="#666666">[text]</text>
<polygon fill="none" stroke="#000000" points="630,-478 630,-508 839,-508 839,-478 630,-478"/>
<text text-anchor="start" x="637" y="-489.4" font-family="Arial" font-size="14.00" fill="#000000">homepage </text>
<text text-anchor="start" x="707.0294" y="-489.4" font-family="Arial" font-size="14.00" fill="#666666">[varchar(255)]</text>
<polygon fill="none" stroke="#000000" points="630,-448 630,-478 839,-478 839,-448 630,-448"/>
<text text-anchor="start" x="637" y="-459.4" font-family="Arial" font-size="14.00" fill="#000000">is_public </text>
<text text-anchor="start" x="695.3408" y="-459.4" font-family="Arial" font-size="14.00" fill="#666666">[tinyint(1)]</text>
<polygon fill="none" stroke="#000000" points="630,-418 630,-448 839,-448 839,-418 630,-418"/>
<text text-anchor="start" x="637" y="-429.4" font-family="Arial" font-size="14.00" fill="#000000">parent_id </text>
<text text-anchor="start" x="699.244" y="-429.4" font-family="Arial" font-size="14.00" fill="#666666">[int(11)]</text>
<polygon fill="none" stroke="#000000" points="630,-388 630,-418 839,-418 839,-388 630,-388"/>
<text text-anchor="start" x="637" y="-399.4" font-family="Arial" font-size="14.00" fill="#000000">created_on </text>
<text text-anchor="start" x="710.92" y="-399.4" font-family="Arial" font-size="14.00" fill="#666666">[timestamp]</text>
<polygon fill="none" stroke="#000000" points="630,-358 630,-388 839,-388 839,-358 630,-358"/>
<text text-anchor="start" x="637" y="-369.4" font-family="Arial" font-size="14.00" fill="#000000">updated_on </text>
<text text-anchor="start" x="714.8246" y="-369.4" font-family="Arial" font-size="14.00" fill="#666666">[timestamp]</text>
<polygon fill="none" stroke="#000000" points="630,-328 630,-358 839,-358 839,-328 630,-328"/>
<text text-anchor="start" x="637" y="-339.4" font-family="Arial" font-size="14.00" fill="#000000">identifier </text>
<text text-anchor="start" x="693.7826" y="-339.4" font-family="Arial" font-size="14.00" fill="#666666">[varchar(255)]</text>
<polygon fill="none" stroke="#000000" points="630,-298 630,-328 839,-328 839,-298 630,-298"/>
<text text-anchor="start" x="637" y="-309.4" font-family="Arial" font-size="14.00" fill="#000000">status </text>
<text text-anchor="start" x="678.237" y="-309.4" font-family="Arial" font-size="14.00" fill="#666666">[int(11)]</text>
<polygon fill="none" stroke="#000000" points="630,-268 630,-298 839,-298 839,-268 630,-268"/>
<text text-anchor="start" x="637" y="-279.4" font-family="Arial" font-size="14.00" fill="#000000">lft </text>
<text text-anchor="start" x="651.7784" y="-279.4" font-family="Arial" font-size="14.00" fill="#666666">[int(11)]</text>
<polygon fill="none" stroke="#000000" points="630,-238 630,-268 839,-268 839,-238 630,-238"/>
<text text-anchor="start" x="637" y="-249.4" font-family="Arial" font-size="14.00" fill="#000000">rgt </text>
<text text-anchor="start" x="657.2244" y="-249.4" font-family="Arial" font-size="14.00" fill="#666666">[int(11)]</text>
<polygon fill="none" stroke="#000000" points="630,-208 630,-238 839,-238 839,-208 630,-208"/>
<text text-anchor="start" x="637" y="-219.4" font-family="Arial" font-size="14.00" fill="#000000">inherit_members </text>
<text text-anchor="start" x="745.115" y="-219.4" font-family="Arial" font-size="14.00" fill="#666666">[tinyint(1)]</text>
<polygon fill="none" stroke="#000000" points="630,-178 630,-208 839,-208 839,-178 630,-178"/>
<text text-anchor="start" x="637" y="-189.4" font-family="Arial" font-size="14.00" fill="#000000">default_version_id </text>
<text text-anchor="start" x="754.4782" y="-189.4" font-family="Arial" font-size="14.00" fill="#666666">[int(11)]</text>
<polygon fill="none" stroke="#000000" points="630,-148 630,-178 839,-178 839,-148 630,-148"/>
<text text-anchor="start" x="636.857" y="-159.4" font-family="Arial" font-size="14.00" fill="#000000">default_assigned_to_id </text>
<text text-anchor="start" x="784.6956" y="-159.4" font-family="Arial" font-size="14.00" fill="#666666">[int(11)]</text>
<polygon fill="none" stroke="#000000" points="630,-118 630,-148 839,-148 839,-118 630,-118"/>
<text text-anchor="start" x="636.8633" y="-129.4" font-family="Arial" font-size="14.00" fill="#000000">default_issue_query_id </text>
<text text-anchor="start" x="784.6893" y="-129.4" font-family="Arial" font-size="14.00" fill="#666666">[int(11)]</text>
</g>
<!-- members&#45;&gt;projects -->
<g id="edge3" class="edge">
<title>members:project_id&#45;&gt;projects:id</title>
<path fill="none" stroke="#000000" stroke-dasharray="5,2" d="M612.2188,-917.9098C738.6353,-902.3181 484.0236,-583 630,-583"/>
<polygon fill="#000000" stroke="#000000" points="611.9834,-917.9234 601.7405,-914.0075 606.9917,-918.2117 602,-918.5 602,-918.5 602,-918.5 606.9917,-918.2117 602.2595,-922.9925 611.9834,-917.9234 611.9834,-917.9234"/>
<text text-anchor="start" x="609.3245" y="-928.5" font-family="Arial" font-size="10.00" fill="#000000">Additional Relation</text>
</g>
<!-- member_roles -->
<g id="node2" class="node">
<title>member_roles</title>
<polygon fill="#efefef" stroke="transparent" points="396,-1273.5 396,-1308.5 622,-1308.5 622,-1273.5 396,-1273.5"/>
<polygon fill="none" stroke="#000000" points="396,-1273.5 396,-1308.5 622,-1308.5 622,-1273.5 396,-1273.5"/>
<text text-anchor="start" x="402.873" y="-1286.3" font-family="Arial Bold" font-size="18.00" fill="#000000">member_roles</text>
<text text-anchor="start" x="517.8732" y="-1286.3" font-family="Arial" font-size="14.00" fill="#000000"> </text>
<text text-anchor="start" x="521.7638" y="-1286.3" font-family="Arial" font-size="14.00" fill="#666666">[BASE TABLE]</text>
<polygon fill="none" stroke="#000000" points="396,-1243.5 396,-1273.5 622,-1273.5 622,-1243.5 396,-1243.5"/>
<text text-anchor="start" x="403" y="-1254.9" font-family="Arial" font-size="14.00" fill="#000000">id </text>
<text text-anchor="start" x="417.7798" y="-1254.9" font-family="Arial" font-size="14.00" fill="#666666">[int(11)]</text>
<polygon fill="none" stroke="#000000" points="396,-1213.5 396,-1243.5 622,-1243.5 622,-1213.5 396,-1213.5"/>
<text text-anchor="start" x="403" y="-1224.9" font-family="Arial" font-size="14.00" fill="#000000">member_id </text>
<text text-anchor="start" x="476.892" y="-1224.9" font-family="Arial" font-size="14.00" fill="#666666">[int(11)]</text>
<polygon fill="none" stroke="#000000" points="396,-1183.5 396,-1213.5 622,-1213.5 622,-1183.5 396,-1183.5"/>
<text text-anchor="start" x="403" y="-1194.9" font-family="Arial" font-size="14.00" fill="#000000">role_id </text>
<text text-anchor="start" x="448.8948" y="-1194.9" font-family="Arial" font-size="14.00" fill="#666666">[int(11)]</text>
<polygon fill="none" stroke="#000000" points="396,-1153.5 396,-1183.5 622,-1183.5 622,-1153.5 396,-1153.5"/>
<text text-anchor="start" x="403" y="-1164.9" font-family="Arial" font-size="14.00" fill="#000000">inherited_from </text>
<text text-anchor="start" x="496.345" y="-1164.9" font-family="Arial" font-size="14.00" fill="#666666">[int(11)]</text>
</g>
<!-- member_roles&#45;&gt;members -->
<g id="edge1" class="edge">
<title>member_roles:member_id&#45;&gt;members:id</title>
<path fill="none" stroke="#000000" stroke-dasharray="5,2" d="M632.066,-1227.7828C732.1268,-1213.1191 709.9828,-978.5 602,-978.5"/>
<polygon fill="#000000" stroke="#000000" points="631.9747,-1227.7892 621.6802,-1224.0114 626.9874,-1228.1446 622,-1228.5 622,-1228.5 622,-1228.5 626.9874,-1228.1446 622.3198,-1232.9886 631.9747,-1227.7892 631.9747,-1227.7892"/>
<text text-anchor="start" x="629.3245" y="-1238.5" font-family="Arial" font-size="10.00" fill="#000000">Additional Relation</text>
</g>
</g>
</svg>
