<?xml version="1.0" encoding="UTF-8" standalone="no"?>
<!DOCTYPE svg PUBLIC "-//W3C//DTD SVG 1.1//EN"
 "http://www.w3.org/Graphics/SVG/1.1/DTD/svg11.dtd">
<!-- Generated by graphviz version 2.40.1 (20161225.0304)
 -->
<!-- Title: member_roles Pages: 1 -->
<svg width="906pt" height="764pt"
 viewBox="0.00 0.00 905.50 764.00" xmlns="http://www.w3.org/2000/svg" xmlns:xlink="http://www.w3.org/1999/xlink">
<g id="graph0" class="graph" transform="scale(1 1) rotate(0) translate(4 760)">
<title>member_roles</title>
<polygon fill="#ffffff" stroke="transparent" points="-4,4 -4,-760 901.5,-760 901.5,4 -4,4"/>
<!-- member_roles -->
<g id="node1" class="node">
<title>member_roles</title>
<polygon fill="#efefef" stroke="transparent" points="252,-664 252,-710 478,-710 478,-664 252,-664"/>
<polygon fill="none" stroke="#000000" points="252,-664 252,-710 478,-710 478,-664 252,-664"/>
<text text-anchor="start" x="258.873" y="-687.8" font-family="Arial Bold" font-size="18.00" fill="#000000">member_roles</text>
<text text-anchor="start" x="373.8732" y="-687.8" font-family="Arial" font-size="14.00" fill="#000000"> </text>
<text text-anchor="start" x="377.7638" y="-687.8" font-family="Arial" font-size="14.00" fill="#666666">[BASE TABLE]</text>
<text text-anchor="start" x="299.0334" y="-673.4" font-family="Arial" font-size="14.00" fill="#333333">メンバー⇔ロール</text>
<polygon fill="none" stroke="#000000" points="252,-634 252,-664 478,-664 478,-634 252,-634"/>
<text text-anchor="start" x="259" y="-645.4" font-family="Arial" font-size="14.00" fill="#000000">id </text>
<text text-anchor="start" x="273.7798" y="-645.4" font-family="Arial" font-size="14.00" fill="#666666">[int(11)]</text>
<polygon fill="none" stroke="#000000" points="252,-604 252,-634 478,-634 478,-604 252,-604"/>
<text text-anchor="start" x="259" y="-615.4" font-family="Arial" font-size="14.00" fill="#000000">member_id </text>
<text text-anchor="start" x="332.892" y="-615.4" font-family="Arial" font-size="14.00" fill="#666666">[int(11)]</text>
<polygon fill="none" stroke="#000000" points="252,-574 252,-604 478,-604 478,-574 252,-574"/>
<text text-anchor="start" x="259" y="-585.4" font-family="Arial" font-size="14.00" fill="#000000">role_id </text>
<text text-anchor="start" x="304.8948" y="-585.4" font-family="Arial" font-size="14.00" fill="#666666">[int(11)]</text>
<polygon fill="none" stroke="#000000" points="252,-544 252,-574 478,-574 478,-544 252,-544"/>
<text text-anchor="start" x="259" y="-555.4" font-family="Arial" font-size="14.00" fill="#000000">inherited_from </text>
<text text-anchor="start" x="352.345" y="-555.4" font-family="Arial" font-size="14.00" fill="#666666">[int(11)]</text>
<polygon fill="none" stroke="#000000" stroke-width="3" points="250.5,-542.5 250.5,-711.5 479.5,-711.5 479.5,-542.5 250.5,-542.5"/>
</g>
<!-- members -->
<g id="node2" class="node">
<title>members</title>
<polygon fill="#efefef" stroke="transparent" points="43,-283 43,-329 229,-329 229,-283 43,-283"/>
<polygon fill="none" stroke="#000000" points="43,-283 43,-329 229,-329 229,-283 43,-283"/>
<text text-anchor="start" x="49.8755" y="-306.8" font-family="Arial Bold" font-size="18.00" fill="#000000">members</text>
<text text-anchor="start" x="124.8707" y="-306.8" font-family="Arial" font-size="14.00" fill="#000000"> </text>
<text text-anchor="start" x="128.7613" y="-306.8" font-family="Arial" font-size="14.00" fill="#666666">[BASE TABLE]</text>
<text text-anchor="start" x="55.661" y="-292.4" font-family="Arial" font-size="14.00" fill="#333333">(プロジェクト)メンバー</text>
<polygon fill="none" stroke="#000000" points="43,-253 43,-283 229,-283 229,-253 43,-253"/>
<text text-anchor="start" x="50" y="-264.4" font-family="Arial" font-size="14.00" fill="#000000">id </text>
<text text-anchor="start" x="64.7798" y="-264.4" font-family="Arial" font-size="14.00" fill="#666666">[int(11)]</text>
<polygon fill="none" stroke="#000000" points="43,-223 43,-253 229,-253 229,-223 43,-223"/>
<text text-anchor="start" x="50" y="-234.4" font-family="Arial" font-size="14.00" fill="#000000">user_id </text>
<text text-anchor="start" x="99.7882" y="-234.4" font-family="Arial" font-size="14.00" fill="#666666">[int(11)]</text>
<polygon fill="none" stroke="#000000" points="43,-193 43,-223 229,-223 229,-193 43,-193"/>
<text text-anchor="start" x="50" y="-204.4" font-family="Arial" font-size="14.00" fill="#000000">project_id </text>
<text text-anchor="start" x="114.568" y="-204.4" font-family="Arial" font-size="14.00" fill="#666666">[int(11)]</text>
<polygon fill="none" stroke="#000000" points="43,-163 43,-193 229,-193 229,-163 43,-163"/>
<text text-anchor="start" x="50" y="-174.4" font-family="Arial" font-size="14.00" fill="#000000">created_on </text>
<text text-anchor="start" x="123.92" y="-174.4" font-family="Arial" font-size="14.00" fill="#666666">[timestamp]</text>
<polygon fill="none" stroke="#000000" points="43,-133 43,-163 229,-163 229,-133 43,-133"/>
<text text-anchor="start" x="50" y="-144.4" font-family="Arial" font-size="14.00" fill="#000000">mail_notification </text>
<text text-anchor="start" x="154.2342" y="-144.4" font-family="Arial" font-size="14.00" fill="#666666">[tinyint(1)]</text>
</g>
<!-- member_roles&#45;&gt;members -->
<g id="edge1" class="edge">
<title>member_roles:member_id&#45;&gt;members:id</title>
<path fill="none" stroke="#000000" stroke-dasharray="5,2" d="M241.7312,-618.4306C108.9987,-602.7397 381.6705,-268 229,-268"/>
<polygon fill="#000000" stroke="#000000" points="242.0153,-618.4463 251.7508,-623.4931 247.0077,-618.7231 252,-619 252,-619 252,-619 247.0077,-618.7231 252.2492,-614.5069 242.0153,-618.4463 242.0153,-618.4463"/>
<text text-anchor="start" x="162.3245" y="-629" font-family="Arial" font-size="10.00" fill="#000000">Additional Relation</text>
</g>
<!-- roles -->
<g id="node3" class="node">
<title>roles</title>
<polygon fill="#efefef" stroke="transparent" points="334,-373 334,-419 855,-419 855,-373 334,-373"/>
<polygon fill="none" stroke="#000000" points="334,-373 334,-419 855,-419 855,-373 334,-373"/>
<text text-anchor="start" x="526.3737" y="-396.8" font-family="Arial Bold" font-size="18.00" fill="#000000">roles</text>
<text text-anchor="start" x="565.3725" y="-396.8" font-family="Arial" font-size="14.00" fill="#000000"> </text>
<text text-anchor="start" x="569.2631" y="-396.8" font-family="Arial" font-size="14.00" fill="#666666">[BASE TABLE]</text>
<text text-anchor="start" x="567.6746" y="-382.4" font-family="Arial" font-size="14.00" fill="#333333">ロール</text>
<polygon fill="none" stroke="#000000" points="334,-343 334,-373 855,-373 855,-343 334,-343"/>
<text text-anchor="start" x="341" y="-354.4" font-family="Arial" font-size="14.00" fill="#000000">id </text>
<text text-anchor="start" x="355.7798" y="-354.4" font-family="Arial" font-size="14.00" fill="#666666">[int(11)]</text>
<polygon fill="none" stroke="#000000" points="334,-313 334,-343 855,-343 855,-313 334,-313"/>
<text text-anchor="start" x="341" y="-324.4" font-family="Arial" font-size="14.00" fill="#000000">name </text>
<text text-anchor="start" x="379.899" y="-324.4" font-family="Arial" font-size="14.00" fill="#666666">[varchar(255)]</text>
<text text-anchor="start" x="467.0182" y="-324.4" font-family="Arial" font-size="14.00" fill="#000000"> 名称</text>
<polygon fill="none" stroke="#000000" points="334,-283 334,-313 855,-313 855,-283 334,-283"/>
<text text-anchor="start" x="341" y="-294.4" font-family="Arial" font-size="14.00" fill="#000000">position </text>
<text text-anchor="start" x="393.1248" y="-294.4" font-family="Arial" font-size="14.00" fill="#666666">[int(11)]</text>
<text text-anchor="start" x="440.5722" y="-294.4" font-family="Arial" font-size="14.00" fill="#000000"> 並び順</text>
<polygon fill="none" stroke="#000000" points="334,-253 334,-283 855,-283 855,-253 334,-253"/>
<text text-anchor="start" x="340.6933" y="-264.4" font-family="Arial" font-size="14.00" fill="#000000">assignable </text>
<text text-anchor="start" x="411.4927" y="-264.4" font-family="Arial" font-size="14.00" fill="#666666">[tinyint(1)]</text>
<text text-anchor="start" x="472.9373" y="-264.4" font-family="Arial" font-size="14.00" fill="#000000"> このロールのユーザーにチケットを割り当て可能</text>
<polygon fill="none" stroke="#000000" points="334,-223 334,-253 855,-253 855,-223 334,-223"/>
<text text-anchor="start" x="341" y="-234.4" font-family="Arial" font-size="14.00" fill="#000000">builtin </text>
<text text-anchor="start" x="381.4488" y="-234.4" font-family="Arial" font-size="14.00" fill="#666666">[int(11)]</text>
<text text-anchor="start" x="428.8962" y="-234.4" font-family="Arial" font-size="14.00" fill="#000000"> 1:非メンバー 2:匿名ユーザー 0:それ以外 </text>
<polygon fill="none" stroke="#000000" points="334,-193 334,-223 855,-223 855,-193 334,-193"/>
<text text-anchor="start" x="341" y="-204.4" font-family="Arial" font-size="14.00" fill="#000000">permissions </text>
<text text-anchor="start" x="419.5554" y="-204.4" font-family="Arial" font-size="14.00" fill="#666666">[text]</text>
<text text-anchor="start" x="449.9004" y="-204.4" font-family="Arial" font-size="14.00" fill="#000000"> 権限</text>
<polygon fill="none" stroke="#000000" points="334,-163 334,-193 855,-193 855,-163 334,-163"/>
<text text-anchor="start" x="341" y="-174.4" font-family="Arial" font-size="14.00" fill="#000000">issues_visibility </text>
<text text-anchor="start" x="440.5512" y="-174.4" font-family="Arial" font-size="14.00" fill="#666666">[varchar(30)]</text>
<text text-anchor="start" x="519.8878" y="-174.4" font-family="Arial" font-size="14.00" fill="#000000"> 表示できるチケット</text>
<polygon fill="none" stroke="#000000" points="334,-133 334,-163 855,-163 855,-133 334,-133"/>
<text text-anchor="start" x="341" y="-144.4" font-family="Arial" font-size="14.00" fill="#000000">users_visibility </text>
<text text-anchor="start" x="435.1052" y="-144.4" font-family="Arial" font-size="14.00" fill="#666666">[varchar(30)]</text>
<text text-anchor="start" x="514.4418" y="-144.4" font-family="Arial" font-size="14.00" fill="#000000"> 表示できるユーザー</text>
<polygon fill="none" stroke="#000000" points="334,-103 334,-133 855,-133 855,-103 334,-103"/>
<text text-anchor="start" x="341" y="-114.4" font-family="Arial" font-size="14.00" fill="#000000">time_entries_visibility </text>
<text text-anchor="start" x="477.108" y="-114.4" font-family="Arial" font-size="14.00" fill="#666666">[varchar(30)]</text>
<text text-anchor="start" x="556.4446" y="-114.4" font-family="Arial" font-size="14.00" fill="#000000"> 表示できる作業時間</text>
<polygon fill="none" stroke="#000000" points="334,-73 334,-103 855,-103 855,-73 334,-73"/>
<text text-anchor="start" x="341" y="-84.4" font-family="Arial" font-size="14.00" fill="#000000">all_roles_managed </text>
<text text-anchor="start" x="463.1402" y="-84.4" font-family="Arial" font-size="14.00" fill="#666666">[tinyint(1)]</text>
<text text-anchor="start" x="524.5848" y="-84.4" font-family="Arial" font-size="14.00" fill="#000000"> メンバーの管理(すべてのロール)</text>
<polygon fill="none" stroke="#000000" points="334,-43 334,-73 855,-73 855,-43 334,-43"/>
<text text-anchor="start" x="341" y="-54.4" font-family="Arial" font-size="14.00" fill="#000000">settings </text>
<text text-anchor="start" x="393.1262" y="-54.4" font-family="Arial" font-size="14.00" fill="#666666">[text]</text>
</g>
<!-- member_roles&#45;&gt;roles -->
<g id="edge2" class="edge">
<title>member_roles:role_id&#45;&gt;roles:id</title>
<path fill="none" stroke="#000000" stroke-dasharray="5,2" d="M487.9369,-587.5123C515.4459,-578.1542 500.5566,-526.8899 478,-498 437.4014,-446.0023 374.5986,-513.9977 334,-462 305.5543,-425.5674 287.7778,-358 334,-358"/>
<polygon fill="#000000" stroke="#000000" points="487.8898,-587.5193 477.3337,-584.5496 482.9449,-588.2596 478,-589 478,-589 478,-589 482.9449,-588.2596 478.6663,-593.4504 487.8898,-587.5193 487.8898,-587.5193"/>
<text text-anchor="start" x="485.3245" y="-599" font-family="Arial" font-size="10.00" fill="#000000">Additional Relation</text>
</g>
</g>
</svg>
