<?xml version="1.0" encoding="UTF-8" standalone="no"?>
<!DOCTYPE svg PUBLIC "-//W3C//DTD SVG 1.1//EN"
 "http://www.w3.org/Graphics/SVG/1.1/DTD/svg11.dtd">
<!-- Generated by graphviz version 2.40.1 (20161225.0304)
 -->
<!-- Title: member_roles Pages: 1 -->
<svg width="614pt" height="753pt"
 viewBox="0.00 0.00 613.50 753.00" xmlns="http://www.w3.org/2000/svg" xmlns:xlink="http://www.w3.org/1999/xlink">
<g id="graph0" class="graph" transform="scale(1 1) rotate(0) translate(4 749)">
<title>member_roles</title>
<polygon fill="#ffffff" stroke="transparent" points="-4,4 -4,-749 609.5,-749 609.5,4 -4,4"/>
<!-- member_roles -->
<g id="node1" class="node">
<title>member_roles</title>
<polygon fill="#efefef" stroke="transparent" points="179,-663.5 179,-698.5 405,-698.5 405,-663.5 179,-663.5"/>
<polygon fill="none" stroke="#000000" points="179,-663.5 179,-698.5 405,-698.5 405,-663.5 179,-663.5"/>
<text text-anchor="start" x="185.873" y="-676.3" font-family="Arial Bold" font-size="18.00" fill="#000000">member_roles</text>
<text text-anchor="start" x="300.8732" y="-676.3" font-family="Arial" font-size="14.00" fill="#000000"> </text>
<text text-anchor="start" x="304.7638" y="-676.3" font-family="Arial" font-size="14.00" fill="#666666">[BASE TABLE]</text>
<polygon fill="none" stroke="#000000" points="179,-633.5 179,-663.5 405,-663.5 405,-633.5 179,-633.5"/>
<text text-anchor="start" x="186" y="-644.9" font-family="Arial" font-size="14.00" fill="#000000">id </text>
<text text-anchor="start" x="200.7798" y="-644.9" font-family="Arial" font-size="14.00" fill="#666666">[int(11)]</text>
<polygon fill="none" stroke="#000000" points="179,-603.5 179,-633.5 405,-633.5 405,-603.5 179,-603.5"/>
<text text-anchor="start" x="186" y="-614.9" font-family="Arial" font-size="14.00" fill="#000000">member_id </text>
<text text-anchor="start" x="259.892" y="-614.9" font-family="Arial" font-size="14.00" fill="#666666">[int(11)]</text>
<polygon fill="none" stroke="#000000" points="179,-573.5 179,-603.5 405,-603.5 405,-573.5 179,-573.5"/>
<text text-anchor="start" x="186" y="-584.9" font-family="Arial" font-size="14.00" fill="#000000">role_id </text>
<text text-anchor="start" x="231.8948" y="-584.9" font-family="Arial" font-size="14.00" fill="#666666">[int(11)]</text>
<polygon fill="none" stroke="#000000" points="179,-543.5 179,-573.5 405,-573.5 405,-543.5 179,-543.5"/>
<text text-anchor="start" x="186" y="-554.9" font-family="Arial" font-size="14.00" fill="#000000">inherited_from </text>
<text text-anchor="start" x="279.345" y="-554.9" font-family="Arial" font-size="14.00" fill="#666666">[int(11)]</text>
<polygon fill="none" stroke="#000000" stroke-width="3" points="177.5,-542.5 177.5,-700.5 406.5,-700.5 406.5,-542.5 177.5,-542.5"/>
</g>
<!-- members -->
<g id="node2" class="node">
<title>members</title>
<polygon fill="#efefef" stroke="transparent" points="43,-288 43,-323 229,-323 229,-288 43,-288"/>
<polygon fill="none" stroke="#000000" points="43,-288 43,-323 229,-323 229,-288 43,-288"/>
<text text-anchor="start" x="49.8755" y="-300.8" font-family="Arial Bold" font-size="18.00" fill="#000000">members</text>
<text text-anchor="start" x="124.8707" y="-300.8" font-family="Arial" font-size="14.00" fill="#000000"> </text>
<text text-anchor="start" x="128.7613" y="-300.8" font-family="Arial" font-size="14.00" fill="#666666">[BASE TABLE]</text>
<polygon fill="none" stroke="#000000" points="43,-258 43,-288 229,-288 229,-258 43,-258"/>
<text text-anchor="start" x="50" y="-269.4" font-family="Arial" font-size="14.00" fill="#000000">id </text>
<text text-anchor="start" x="64.7798" y="-269.4" font-family="Arial" font-size="14.00" fill="#666666">[int(11)]</text>
<polygon fill="none" stroke="#000000" points="43,-228 43,-258 229,-258 229,-228 43,-228"/>
<text text-anchor="start" x="50" y="-239.4" font-family="Arial" font-size="14.00" fill="#000000">user_id </text>
<text text-anchor="start" x="99.7882" y="-239.4" font-family="Arial" font-size="14.00" fill="#666666">[int(11)]</text>
<polygon fill="none" stroke="#000000" points="43,-198 43,-228 229,-228 229,-198 43,-198"/>
<text text-anchor="start" x="50" y="-209.4" font-family="Arial" font-size="14.00" fill="#000000">project_id </text>
<text text-anchor="start" x="114.568" y="-209.4" font-family="Arial" font-size="14.00" fill="#666666">[int(11)]</text>
<polygon fill="none" stroke="#000000" points="43,-168 43,-198 229,-198 229,-168 43,-168"/>
<text text-anchor="start" x="50" y="-179.4" font-family="Arial" font-size="14.00" fill="#000000">created_on </text>
<text text-anchor="start" x="123.92" y="-179.4" font-family="Arial" font-size="14.00" fill="#666666">[timestamp]</text>
<polygon fill="none" stroke="#000000" points="43,-138 43,-168 229,-168 229,-138 43,-138"/>
<text text-anchor="start" x="50" y="-149.4" font-family="Arial" font-size="14.00" fill="#000000">mail_notification </text>
<text text-anchor="start" x="154.2342" y="-149.4" font-family="Arial" font-size="14.00" fill="#666666">[tinyint(1)]</text>
</g>
<!-- member_roles&#45;&gt;members -->
<g id="edge1" class="edge">
<title>member_roles:member_id&#45;&gt;members:id</title>
<path fill="none" stroke="#000000" stroke-dasharray="5,2" d="M168.9268,-617.9395C40.4512,-602.4945 380.5187,-273 229,-273"/>
<polygon fill="#000000" stroke="#000000" points="169.0154,-617.9444 178.75,-622.9931 174.0077,-618.2222 179,-618.5 179,-618.5 179,-618.5 174.0077,-618.2222 179.25,-614.0069 169.0154,-617.9444 169.0154,-617.9444"/>
<text text-anchor="start" x="89.3245" y="-628.5" font-family="Arial" font-size="10.00" fill="#000000">Additional Relation</text>
</g>
<!-- roles -->
<g id="node3" class="node">
<title>roles</title>
<polygon fill="#efefef" stroke="transparent" points="334,-373 334,-419 563,-419 563,-373 334,-373"/>
<polygon fill="none" stroke="#000000" points="334,-373 334,-419 563,-419 563,-373 334,-373"/>
<text text-anchor="start" x="380.3737" y="-396.8" font-family="Arial Bold" font-size="18.00" fill="#000000">roles</text>
<text text-anchor="start" x="419.3725" y="-396.8" font-family="Arial" font-size="14.00" fill="#000000"> </text>
<text text-anchor="start" x="423.2631" y="-396.8" font-family="Arial" font-size="14.00" fill="#666666">[BASE TABLE]</text>
<text text-anchor="start" x="421.6746" y="-382.4" font-family="Arial" font-size="14.00" fill="#333333">ロール</text>
<polygon fill="none" stroke="#000000" points="334,-343 334,-373 563,-373 563,-343 334,-343"/>
<text text-anchor="start" x="341" y="-354.4" font-family="Arial" font-size="14.00" fill="#000000">id </text>
<text text-anchor="start" x="355.7798" y="-354.4" font-family="Arial" font-size="14.00" fill="#666666">[int(11)]</text>
<polygon fill="none" stroke="#000000" points="334,-313 334,-343 563,-343 563,-313 334,-313"/>
<text text-anchor="start" x="341" y="-324.4" font-family="Arial" font-size="14.00" fill="#000000">name </text>
<text text-anchor="start" x="379.899" y="-324.4" font-family="Arial" font-size="14.00" fill="#666666">[varchar(255)]</text>
<polygon fill="none" stroke="#000000" points="334,-283 334,-313 563,-313 563,-283 334,-283"/>
<text text-anchor="start" x="341" y="-294.4" font-family="Arial" font-size="14.00" fill="#000000">position </text>
<text text-anchor="start" x="393.1248" y="-294.4" font-family="Arial" font-size="14.00" fill="#666666">[int(11)]</text>
<polygon fill="none" stroke="#000000" points="334,-253 334,-283 563,-283 563,-253 334,-253"/>
<text text-anchor="start" x="341" y="-264.4" font-family="Arial" font-size="14.00" fill="#000000">assignable </text>
<text text-anchor="start" x="411.7994" y="-264.4" font-family="Arial" font-size="14.00" fill="#666666">[tinyint(1)]</text>
<polygon fill="none" stroke="#000000" points="334,-223 334,-253 563,-253 563,-223 334,-223"/>
<text text-anchor="start" x="341" y="-234.4" font-family="Arial" font-size="14.00" fill="#000000">builtin </text>
<text text-anchor="start" x="381.4488" y="-234.4" font-family="Arial" font-size="14.00" fill="#666666">[int(11)]</text>
<polygon fill="none" stroke="#000000" points="334,-193 334,-223 563,-223 563,-193 334,-193"/>
<text text-anchor="start" x="341" y="-204.4" font-family="Arial" font-size="14.00" fill="#000000">permissions </text>
<text text-anchor="start" x="419.5554" y="-204.4" font-family="Arial" font-size="14.00" fill="#666666">[text]</text>
<polygon fill="none" stroke="#000000" points="334,-163 334,-193 563,-193 563,-163 334,-163"/>
<text text-anchor="start" x="341" y="-174.4" font-family="Arial" font-size="14.00" fill="#000000">issues_visibility </text>
<text text-anchor="start" x="440.5512" y="-174.4" font-family="Arial" font-size="14.00" fill="#666666">[varchar(30)]</text>
<polygon fill="none" stroke="#000000" points="334,-133 334,-163 563,-163 563,-133 334,-133"/>
<text text-anchor="start" x="341" y="-144.4" font-family="Arial" font-size="14.00" fill="#000000">users_visibility </text>
<text text-anchor="start" x="435.1052" y="-144.4" font-family="Arial" font-size="14.00" fill="#666666">[varchar(30)]</text>
<polygon fill="none" stroke="#000000" points="334,-103 334,-133 563,-133 563,-103 334,-103"/>
<text text-anchor="start" x="340.7777" y="-114.4" font-family="Arial" font-size="14.00" fill="#000000">time_entries_visibility </text>
<text text-anchor="start" x="476.8857" y="-114.4" font-family="Arial" font-size="14.00" fill="#666666">[varchar(30)]</text>
<polygon fill="none" stroke="#000000" points="334,-73 334,-103 563,-103 563,-73 334,-73"/>
<text text-anchor="start" x="341" y="-84.4" font-family="Arial" font-size="14.00" fill="#000000">all_roles_managed </text>
<text text-anchor="start" x="463.1402" y="-84.4" font-family="Arial" font-size="14.00" fill="#666666">[tinyint(1)]</text>
<polygon fill="none" stroke="#000000" points="334,-43 334,-73 563,-73 563,-43 334,-43"/>
<text text-anchor="start" x="341" y="-54.4" font-family="Arial" font-size="14.00" fill="#000000">settings </text>
<text text-anchor="start" x="393.1262" y="-54.4" font-family="Arial" font-size="14.00" fill="#666666">[text]</text>
</g>
<!-- member_roles&#45;&gt;roles -->
<g id="edge2" class="edge">
<title>member_roles:role_id&#45;&gt;roles:id</title>
<path fill="none" stroke="#000000" stroke-dasharray="5,2" d="M415.1381,-586.9642C441.4597,-577.7278 423.9942,-528.9272 405,-498 386.4842,-467.8517 352.5158,-492.1483 334,-462 309.8101,-422.6129 287.7778,-358 334,-358"/>
<polygon fill="#000000" stroke="#000000" points="414.8872,-587.0021 404.3259,-584.0508 409.9436,-587.7511 405,-588.5 405,-588.5 405,-588.5 409.9436,-587.7511 405.6741,-592.9492 414.8872,-587.0021 414.8872,-587.0021"/>
<text text-anchor="start" x="412.3245" y="-598.5" font-family="Arial" font-size="10.00" fill="#000000">Additional Relation</text>
</g>
</g>
</svg>
