<?xml version="1.0" encoding="UTF-8" standalone="no"?>
<!DOCTYPE svg PUBLIC "-//W3C//DTD SVG 1.1//EN"
 "http://www.w3.org/Graphics/SVG/1.1/DTD/svg11.dtd">
<!-- Generated by graphviz version 2.40.1 (20161225.0304)
 -->
<!-- Title: messages Pages: 1 -->
<svg width="852pt" height="1637pt"
 viewBox="0.00 0.00 852.00 1637.00" xmlns="http://www.w3.org/2000/svg" xmlns:xlink="http://www.w3.org/1999/xlink">
<g id="graph0" class="graph" transform="scale(1 1) rotate(0) translate(4 1633)">
<title>messages</title>
<polygon fill="#ffffff" stroke="transparent" points="-4,4 -4,-1633 848,-1633 848,4 -4,4"/>
<!-- messages -->
<g id="node1" class="node">
<title>messages</title>
<polygon fill="#efefef" stroke="transparent" points="247,-1204 247,-1250 440,-1250 440,-1204 247,-1204"/>
<polygon fill="none" stroke="#000000" points="247,-1204 247,-1250 440,-1250 440,-1204 247,-1204"/>
<text text-anchor="start" x="253.8646" y="-1227.8" font-family="Arial Bold" font-size="18.00" fill="#000000">messages</text>
<text text-anchor="start" x="335.8816" y="-1227.8" font-family="Arial" font-size="14.00" fill="#000000"> </text>
<text text-anchor="start" x="339.7722" y="-1227.8" font-family="Arial" font-size="14.00" fill="#666666">[BASE TABLE]</text>
<text text-anchor="start" x="267.8706" y="-1213.4" font-family="Arial" font-size="14.00" fill="#333333">フォーラムメッセージ</text>
<polygon fill="none" stroke="#000000" points="247,-1174 247,-1204 440,-1204 440,-1174 247,-1174"/>
<text text-anchor="start" x="254" y="-1185.4" font-family="Arial" font-size="14.00" fill="#000000">id </text>
<text text-anchor="start" x="268.7798" y="-1185.4" font-family="Arial" font-size="14.00" fill="#666666">[int(11)]</text>
<polygon fill="none" stroke="#000000" points="247,-1144 247,-1174 440,-1174 440,-1144 247,-1144"/>
<text text-anchor="start" x="254" y="-1155.4" font-family="Arial" font-size="14.00" fill="#000000">board_id </text>
<text text-anchor="start" x="312.3534" y="-1155.4" font-family="Arial" font-size="14.00" fill="#666666">[int(11)]</text>
<polygon fill="none" stroke="#000000" points="247,-1114 247,-1144 440,-1144 440,-1114 247,-1114"/>
<text text-anchor="start" x="254" y="-1125.4" font-family="Arial" font-size="14.00" fill="#000000">parent_id </text>
<text text-anchor="start" x="316.244" y="-1125.4" font-family="Arial" font-size="14.00" fill="#666666">[int(11)]</text>
<polygon fill="none" stroke="#000000" points="247,-1084 247,-1114 440,-1114 440,-1084 247,-1084"/>
<text text-anchor="start" x="254" y="-1095.4" font-family="Arial" font-size="14.00" fill="#000000">subject </text>
<text text-anchor="start" x="302.2356" y="-1095.4" font-family="Arial" font-size="14.00" fill="#666666">[varchar(255)]</text>
<polygon fill="none" stroke="#000000" points="247,-1054 247,-1084 440,-1084 440,-1054 247,-1054"/>
<text text-anchor="start" x="254" y="-1065.4" font-family="Arial" font-size="14.00" fill="#000000">content </text>
<text text-anchor="start" x="303.8022" y="-1065.4" font-family="Arial" font-size="14.00" fill="#666666">[text]</text>
<polygon fill="none" stroke="#000000" points="247,-1024 247,-1054 440,-1054 440,-1024 247,-1024"/>
<text text-anchor="start" x="254" y="-1035.4" font-family="Arial" font-size="14.00" fill="#000000">author_id </text>
<text text-anchor="start" x="316.244" y="-1035.4" font-family="Arial" font-size="14.00" fill="#666666">[int(11)]</text>
<polygon fill="none" stroke="#000000" points="247,-994 247,-1024 440,-1024 440,-994 247,-994"/>
<text text-anchor="start" x="254" y="-1005.4" font-family="Arial" font-size="14.00" fill="#000000">replies_count </text>
<text text-anchor="start" x="341.1332" y="-1005.4" font-family="Arial" font-size="14.00" fill="#666666">[int(11)]</text>
<polygon fill="none" stroke="#000000" points="247,-964 247,-994 440,-994 440,-964 247,-964"/>
<text text-anchor="start" x="254" y="-975.4" font-family="Arial" font-size="14.00" fill="#000000">last_reply_id </text>
<text text-anchor="start" x="336.4572" y="-975.4" font-family="Arial" font-size="14.00" fill="#666666">[int(11)]</text>
<polygon fill="none" stroke="#000000" points="247,-934 247,-964 440,-964 440,-934 247,-934"/>
<text text-anchor="start" x="254" y="-945.4" font-family="Arial" font-size="14.00" fill="#000000">created_on </text>
<text text-anchor="start" x="327.92" y="-945.4" font-family="Arial" font-size="14.00" fill="#666666">[datetime]</text>
<polygon fill="none" stroke="#000000" points="247,-904 247,-934 440,-934 440,-904 247,-904"/>
<text text-anchor="start" x="254" y="-915.4" font-family="Arial" font-size="14.00" fill="#000000">updated_on </text>
<text text-anchor="start" x="331.8246" y="-915.4" font-family="Arial" font-size="14.00" fill="#666666">[datetime]</text>
<polygon fill="none" stroke="#000000" points="247,-874 247,-904 440,-904 440,-874 247,-874"/>
<text text-anchor="start" x="254" y="-885.4" font-family="Arial" font-size="14.00" fill="#000000">locked </text>
<text text-anchor="start" x="298.345" y="-885.4" font-family="Arial" font-size="14.00" fill="#666666">[tinyint(1)]</text>
<polygon fill="none" stroke="#000000" points="247,-844 247,-874 440,-874 440,-844 247,-844"/>
<text text-anchor="start" x="254" y="-855.4" font-family="Arial" font-size="14.00" fill="#000000">sticky </text>
<text text-anchor="start" x="292.8878" y="-855.4" font-family="Arial" font-size="14.00" fill="#666666">[int(11)]</text>
<polygon fill="none" stroke="#000000" stroke-width="3" points="245,-842.5 245,-1251.5 441,-1251.5 441,-842.5 245,-842.5"/>
</g>
<!-- messages&#45;&gt;messages -->
<g id="edge1" class="edge">
<title>messages:parent_id&#45;&gt;messages:id</title>
<path fill="none" stroke="#000000" stroke-dasharray="5,2" d="M345.0994,-1154.3259C352.9837,-1348.4728 352.6173,-1629 344,-1629 335.2329,-1629 335.006,-1395.5677 343.3194,-1204.1608"/>
<polygon fill="#000000" stroke="#000000" points="345.0972,-1154.2706 349.1767,-1144.0919 344.8889,-1149.275 344.6806,-1144.2793 344.6806,-1144.2793 344.6806,-1144.2793 344.8889,-1149.275 340.1846,-1144.4667 345.0972,-1154.2706 345.0972,-1154.2706"/>
<text text-anchor="start" x="255.0051" y="-1154.2793" font-family="Arial" font-size="10.00" fill="#000000">Additional Relation</text>
</g>
<!-- messages&#45;&gt;messages -->
<g id="edge2" class="edge">
<title>messages:last_reply_id&#45;&gt;messages:id</title>
<path fill="none" stroke="#000000" stroke-dasharray="5,2" d="M345.0757,-1004.5008C352.9844,-1210.1244 352.6259,-1629 344,-1629 335.2329,-1629 335.006,-1395.5677 343.3194,-1204.1608"/>
<polygon fill="#000000" stroke="#000000" points="345.0664,-1004.2644 349.1646,-994.0931 344.8673,-999.2683 344.6681,-994.2723 344.6681,-994.2723 344.6681,-994.2723 344.8673,-999.2683 340.1717,-994.4515 345.0664,-1004.2644 345.0664,-1004.2644"/>
<text text-anchor="start" x="254.9926" y="-1004.2723" font-family="Arial" font-size="10.00" fill="#000000">Additional Relation</text>
</g>
<!-- boards -->
<g id="node2" class="node">
<title>boards</title>
<polygon fill="#efefef" stroke="transparent" points="43,-493 43,-539 215,-539 215,-493 43,-493"/>
<polygon fill="none" stroke="#000000" points="43,-493 43,-539 215,-539 215,-493 43,-493"/>
<text text-anchor="start" x="52.8646" y="-516.8" font-family="Arial Bold" font-size="18.00" fill="#000000">boards</text>
<text text-anchor="start" x="107.8816" y="-516.8" font-family="Arial" font-size="14.00" fill="#000000"> </text>
<text text-anchor="start" x="111.7722" y="-516.8" font-family="Arial" font-size="14.00" fill="#666666">[BASE TABLE]</text>
<text text-anchor="start" x="92.7638" y="-502.4" font-family="Arial" font-size="14.00" fill="#333333">フォーラム</text>
<polygon fill="none" stroke="#000000" points="43,-463 43,-493 215,-493 215,-463 43,-463"/>
<text text-anchor="start" x="50" y="-474.4" font-family="Arial" font-size="14.00" fill="#000000">id </text>
<text text-anchor="start" x="64.7798" y="-474.4" font-family="Arial" font-size="14.00" fill="#666666">[int(11)]</text>
<polygon fill="none" stroke="#000000" points="43,-433 43,-463 215,-463 215,-433 43,-433"/>
<text text-anchor="start" x="50" y="-444.4" font-family="Arial" font-size="14.00" fill="#000000">project_id </text>
<text text-anchor="start" x="114.568" y="-444.4" font-family="Arial" font-size="14.00" fill="#666666">[int(11)]</text>
<polygon fill="none" stroke="#000000" points="43,-403 43,-433 215,-433 215,-403 43,-403"/>
<text text-anchor="start" x="50" y="-414.4" font-family="Arial" font-size="14.00" fill="#000000">name </text>
<text text-anchor="start" x="88.899" y="-414.4" font-family="Arial" font-size="14.00" fill="#666666">[varchar(255)]</text>
<polygon fill="none" stroke="#000000" points="43,-373 43,-403 215,-403 215,-373 43,-373"/>
<text text-anchor="start" x="49.6564" y="-384.4" font-family="Arial" font-size="14.00" fill="#000000">description </text>
<text text-anchor="start" x="121.2244" y="-384.4" font-family="Arial" font-size="14.00" fill="#666666">[varchar(255)]</text>
<polygon fill="none" stroke="#000000" points="43,-343 43,-373 215,-373 215,-343 43,-343"/>
<text text-anchor="start" x="50" y="-354.4" font-family="Arial" font-size="14.00" fill="#000000">position </text>
<text text-anchor="start" x="102.1248" y="-354.4" font-family="Arial" font-size="14.00" fill="#666666">[int(11)]</text>
<polygon fill="none" stroke="#000000" points="43,-313 43,-343 215,-343 215,-313 43,-313"/>
<text text-anchor="start" x="50" y="-324.4" font-family="Arial" font-size="14.00" fill="#000000">topics_count </text>
<text text-anchor="start" x="132.474" y="-324.4" font-family="Arial" font-size="14.00" fill="#666666">[int(11)]</text>
<polygon fill="none" stroke="#000000" points="43,-283 43,-313 215,-313 215,-283 43,-283"/>
<text text-anchor="start" x="50" y="-294.4" font-family="Arial" font-size="14.00" fill="#000000">messages_count </text>
<text text-anchor="start" x="159.7026" y="-294.4" font-family="Arial" font-size="14.00" fill="#666666">[int(11)]</text>
<polygon fill="none" stroke="#000000" points="43,-253 43,-283 215,-283 215,-253 43,-253"/>
<text text-anchor="start" x="50" y="-264.4" font-family="Arial" font-size="14.00" fill="#000000">last_message_id </text>
<text text-anchor="start" x="158.9158" y="-264.4" font-family="Arial" font-size="14.00" fill="#666666">[int(11)]</text>
<polygon fill="none" stroke="#000000" points="43,-223 43,-253 215,-253 215,-223 43,-223"/>
<text text-anchor="start" x="50" y="-234.4" font-family="Arial" font-size="14.00" fill="#000000">parent_id </text>
<text text-anchor="start" x="112.244" y="-234.4" font-family="Arial" font-size="14.00" fill="#666666">[int(11)]</text>
</g>
<!-- messages&#45;&gt;boards -->
<g id="edge3" class="edge">
<title>messages:board_id&#45;&gt;boards:id</title>
<path fill="none" stroke="#000000" stroke-dasharray="5,2" d="M237.033,-1157.8953C107.9708,-1127.4522 362.9495,-478 215,-478"/>
<polygon fill="#000000" stroke="#000000" points="237.0609,-1157.8983 246.5042,-1163.4726 242.0304,-1158.4491 247,-1159 247,-1159 247,-1159 242.0304,-1158.4491 247.4958,-1154.5274 237.0609,-1157.8983 237.0609,-1157.8983"/>
<text text-anchor="start" x="161.268" y="-1169" font-family="Arial" font-size="10.00" fill="#000000">Detected Relation</text>
</g>
<!-- users -->
<g id="node3" class="node">
<title>users</title>
<polygon fill="#efefef" stroke="transparent" points="319,-673 319,-719 801,-719 801,-673 319,-673"/>
<polygon fill="none" stroke="#000000" points="319,-673 319,-719 801,-719 801,-673 319,-673"/>
<text text-anchor="start" x="489.3708" y="-696.8" font-family="Arial Bold" font-size="18.00" fill="#000000">users</text>
<text text-anchor="start" x="533.3754" y="-696.8" font-family="Arial" font-size="14.00" fill="#000000"> </text>
<text text-anchor="start" x="537.266" y="-696.8" font-family="Arial" font-size="14.00" fill="#666666">[BASE TABLE]</text>
<text text-anchor="start" x="481.4558" y="-682.4" font-family="Arial" font-size="14.00" fill="#333333">ユーザー / グループ</text>
<polygon fill="none" stroke="#000000" points="319,-643 319,-673 801,-673 801,-643 319,-643"/>
<text text-anchor="start" x="326" y="-654.4" font-family="Arial" font-size="14.00" fill="#000000">id </text>
<text text-anchor="start" x="340.7798" y="-654.4" font-family="Arial" font-size="14.00" fill="#666666">[int(11)]</text>
<polygon fill="none" stroke="#000000" points="319,-613 319,-643 801,-643 801,-613 319,-613"/>
<text text-anchor="start" x="326" y="-624.4" font-family="Arial" font-size="14.00" fill="#000000">login </text>
<text text-anchor="start" x="359.4516" y="-624.4" font-family="Arial" font-size="14.00" fill="#666666">[varchar(255)]</text>
<text text-anchor="start" x="446.5708" y="-624.4" font-family="Arial" font-size="14.00" fill="#000000"> ログインID</text>
<polygon fill="none" stroke="#000000" points="319,-583 319,-613 801,-613 801,-583 319,-583"/>
<text text-anchor="start" x="326" y="-594.4" font-family="Arial" font-size="14.00" fill="#000000">hashed_password </text>
<text text-anchor="start" x="443.4838" y="-594.4" font-family="Arial" font-size="14.00" fill="#666666">[varchar(40)]</text>
<text text-anchor="start" x="522.8204" y="-594.4" font-family="Arial" font-size="14.00" fill="#000000"> パスワード(ハッシュ化済み)</text>
<polygon fill="none" stroke="#000000" points="319,-553 319,-583 801,-583 801,-553 319,-553"/>
<text text-anchor="start" x="326" y="-564.4" font-family="Arial" font-size="14.00" fill="#000000">firstname </text>
<text text-anchor="start" x="387.4474" y="-564.4" font-family="Arial" font-size="14.00" fill="#666666">[varchar(30)]</text>
<text text-anchor="start" x="466.784" y="-564.4" font-family="Arial" font-size="14.00" fill="#000000"> 名</text>
<polygon fill="none" stroke="#000000" points="319,-523 319,-553 801,-553 801,-523 319,-523"/>
<text text-anchor="start" x="326" y="-534.4" font-family="Arial" font-size="14.00" fill="#000000">lastname </text>
<text text-anchor="start" x="386.6788" y="-534.4" font-family="Arial" font-size="14.00" fill="#666666">[varchar(255)]</text>
<text text-anchor="start" x="473.798" y="-534.4" font-family="Arial" font-size="14.00" fill="#000000"> 姓</text>
<polygon fill="none" stroke="#000000" points="319,-493 319,-523 801,-523 801,-493 319,-493"/>
<text text-anchor="start" x="326" y="-504.4" font-family="Arial" font-size="14.00" fill="#000000">admin </text>
<text text-anchor="start" x="368.0056" y="-504.4" font-family="Arial" font-size="14.00" fill="#666666">[tinyint(1)]</text>
<text text-anchor="start" x="429.4502" y="-504.4" font-family="Arial" font-size="14.00" fill="#000000"> システム管理者</text>
<polygon fill="none" stroke="#000000" points="319,-463 319,-493 801,-493 801,-463 319,-463"/>
<text text-anchor="start" x="326" y="-474.4" font-family="Arial" font-size="14.00" fill="#000000">status </text>
<text text-anchor="start" x="367.237" y="-474.4" font-family="Arial" font-size="14.00" fill="#666666">[int(11)]</text>
<polygon fill="none" stroke="#000000" points="319,-433 319,-463 801,-463 801,-433 319,-433"/>
<text text-anchor="start" x="326" y="-444.4" font-family="Arial" font-size="14.00" fill="#000000">last_login_on </text>
<text text-anchor="start" x="412.3618" y="-444.4" font-family="Arial" font-size="14.00" fill="#666666">[datetime]</text>
<polygon fill="none" stroke="#000000" points="319,-403 319,-433 801,-433 801,-403 319,-403"/>
<text text-anchor="start" x="326" y="-414.4" font-family="Arial" font-size="14.00" fill="#000000">language </text>
<text text-anchor="start" x="387.4754" y="-414.4" font-family="Arial" font-size="14.00" fill="#666666">[varchar(5)]</text>
<text text-anchor="start" x="459.0294" y="-414.4" font-family="Arial" font-size="14.00" fill="#000000"> 言語</text>
<polygon fill="none" stroke="#000000" points="319,-373 319,-403 801,-403 801,-373 319,-373"/>
<text text-anchor="start" x="326" y="-384.4" font-family="Arial" font-size="14.00" fill="#000000">auth_source_id </text>
<text text-anchor="start" x="425.5918" y="-384.4" font-family="Arial" font-size="14.00" fill="#666666">[int(11)]</text>
<polygon fill="none" stroke="#000000" points="319,-343 319,-373 801,-373 801,-343 319,-343"/>
<text text-anchor="start" x="326" y="-354.4" font-family="Arial" font-size="14.00" fill="#000000">created_on </text>
<text text-anchor="start" x="399.92" y="-354.4" font-family="Arial" font-size="14.00" fill="#666666">[timestamp]</text>
<polygon fill="none" stroke="#000000" points="319,-313 319,-343 801,-343 801,-313 319,-313"/>
<text text-anchor="start" x="326" y="-324.4" font-family="Arial" font-size="14.00" fill="#000000">updated_on </text>
<text text-anchor="start" x="403.8246" y="-324.4" font-family="Arial" font-size="14.00" fill="#666666">[timestamp]</text>
<polygon fill="none" stroke="#000000" points="319,-283 319,-313 801,-313 801,-283 319,-283"/>
<text text-anchor="start" x="326" y="-294.4" font-family="Arial" font-size="14.00" fill="#000000">type </text>
<text text-anchor="start" x="356.3464" y="-294.4" font-family="Arial" font-size="14.00" fill="#666666">[varchar(255)]</text>
<text text-anchor="start" x="443.4656" y="-294.4" font-family="Arial" font-size="14.00" fill="#000000"> User:ユーザー Group:グループ </text>
<polygon fill="none" stroke="#000000" points="319,-253 319,-283 801,-283 801,-253 319,-253"/>
<text text-anchor="start" x="326" y="-264.4" font-family="Arial" font-size="14.00" fill="#000000">mail_notification </text>
<text text-anchor="start" x="430.2342" y="-264.4" font-family="Arial" font-size="14.00" fill="#666666">[varchar(255)]</text>
<text text-anchor="start" x="517.3534" y="-264.4" font-family="Arial" font-size="14.00" fill="#000000"> メール通知</text>
<polygon fill="none" stroke="#000000" points="319,-223 319,-253 801,-253 801,-223 319,-223"/>
<text text-anchor="start" x="326" y="-234.4" font-family="Arial" font-size="14.00" fill="#000000">salt </text>
<text text-anchor="start" x="351.6704" y="-234.4" font-family="Arial" font-size="14.00" fill="#666666">[varchar(64)]</text>
<polygon fill="none" stroke="#000000" points="319,-193 319,-223 801,-223 801,-193 319,-193"/>
<text text-anchor="start" x="325.7646" y="-204.4" font-family="Arial" font-size="14.00" fill="#000000">must_change_passwd </text>
<text text-anchor="start" x="468.9216" y="-204.4" font-family="Arial" font-size="14.00" fill="#666666">[tinyint(1)]</text>
<text text-anchor="start" x="530.3662" y="-204.4" font-family="Arial" font-size="14.00" fill="#000000"> 次回ログイン時にパスワード変更を強制</text>
<polygon fill="none" stroke="#000000" points="319,-163 319,-193 801,-193 801,-163 319,-163"/>
<text text-anchor="start" x="326" y="-174.4" font-family="Arial" font-size="14.00" fill="#000000">passwd_changed_on </text>
<text text-anchor="start" x="462.171" y="-174.4" font-family="Arial" font-size="14.00" fill="#666666">[datetime]</text>
<polygon fill="none" stroke="#000000" points="319,-133 319,-163 801,-163 801,-133 319,-133"/>
<text text-anchor="start" x="326" y="-144.4" font-family="Arial" font-size="14.00" fill="#000000">twofa_scheme </text>
<text text-anchor="start" x="420.1346" y="-144.4" font-family="Arial" font-size="14.00" fill="#666666">[varchar(255)]</text>
<polygon fill="none" stroke="#000000" points="319,-103 319,-133 801,-133 801,-103 319,-103"/>
<text text-anchor="start" x="326" y="-114.4" font-family="Arial" font-size="14.00" fill="#000000">twofa_totp_key </text>
<text text-anchor="start" x="424.0378" y="-114.4" font-family="Arial" font-size="14.00" fill="#666666">[varchar(255)]</text>
<polygon fill="none" stroke="#000000" points="319,-73 319,-103 801,-103 801,-73 319,-73"/>
<text text-anchor="start" x="326" y="-84.4" font-family="Arial" font-size="14.00" fill="#000000">twofa_totp_last_used_at </text>
<text text-anchor="start" x="481.6212" y="-84.4" font-family="Arial" font-size="14.00" fill="#666666">[int(11)]</text>
<polygon fill="none" stroke="#000000" points="319,-43 319,-73 801,-73 801,-43 319,-43"/>
<text text-anchor="start" x="326" y="-54.4" font-family="Arial" font-size="14.00" fill="#000000">twofa_required </text>
<text text-anchor="start" x="422.467" y="-54.4" font-family="Arial" font-size="14.00" fill="#666666">[tinyint(1)]</text>
</g>
<!-- messages&#45;&gt;users -->
<g id="edge4" class="edge">
<title>messages:author_id&#45;&gt;users:id</title>
<path fill="none" stroke="#000000" stroke-dasharray="5,2" d="M450.1773,-1038.4951C544.2275,-1028.7742 501.9095,-881.0108 440,-798 406.4565,-753.0235 352.5435,-806.9765 319,-762 291.3664,-724.9477 272.7778,-658 319,-658"/>
<polygon fill="#000000" stroke="#000000" points="449.9877,-1038.5044 439.777,-1034.5055 444.9939,-1038.7522 440,-1039 440,-1039 440,-1039 444.9939,-1038.7522 440.223,-1043.4945 449.9877,-1038.5044 449.9877,-1038.5044"/>
<text text-anchor="start" x="447.3245" y="-1049" font-family="Arial" font-size="10.00" fill="#000000">Additional Relation</text>
</g>
</g>
</svg>
