<?xml version="1.0" encoding="UTF-8" standalone="no"?>
<!DOCTYPE svg PUBLIC "-//W3C//DTD SVG 1.1//EN"
 "http://www.w3.org/Graphics/SVG/1.1/DTD/svg11.dtd">
<!-- Generated by graphviz version 2.40.1 (20161225.0304)
 -->
<!-- Title: projects_trackers Pages: 1 -->
<svg width="655pt" height="824pt"
 viewBox="0.00 0.00 654.87 824.00" xmlns="http://www.w3.org/2000/svg" xmlns:xlink="http://www.w3.org/1999/xlink">
<g id="graph0" class="graph" transform="scale(1 1) rotate(0) translate(4 820)">
<title>projects_trackers</title>
<polygon fill="#ffffff" stroke="transparent" points="-4,4 -4,-820 650.8664,-820 650.8664,4 -4,4"/>
<!-- projects_trackers -->
<g id="node1" class="node">
<title>projects_trackers</title>
<polygon fill="#efefef" stroke="transparent" points="97.3664,-724 97.3664,-770 345.3664,-770 345.3664,-724 97.3664,-724"/>
<polygon fill="none" stroke="#000000" points="97.3664,-724 97.3664,-770 345.3664,-770 345.3664,-724 97.3664,-724"/>
<text text-anchor="start" x="104.2333" y="-747.8" font-family="Arial Bold" font-size="18.00" fill="#000000">projects_trackers</text>
<text text-anchor="start" x="241.2457" y="-747.8" font-family="Arial" font-size="14.00" fill="#000000"> </text>
<text text-anchor="start" x="245.1363" y="-747.8" font-family="Arial" font-size="14.00" fill="#666666">[BASE TABLE]</text>
<text text-anchor="start" x="134.3662" y="-733.4" font-family="Arial" font-size="14.00" fill="#333333">プロジェクト⇔トラッカー</text>
<polygon fill="none" stroke="#000000" points="97.3664,-694 97.3664,-724 345.3664,-724 345.3664,-694 97.3664,-694"/>
<text text-anchor="start" x="104.3664" y="-705.4" font-family="Arial" font-size="14.00" fill="#000000">project_id </text>
<text text-anchor="start" x="168.9344" y="-705.4" font-family="Arial" font-size="14.00" fill="#666666">[int(11)]</text>
<polygon fill="none" stroke="#000000" points="97.3664,-664 97.3664,-694 345.3664,-694 345.3664,-664 97.3664,-664"/>
<text text-anchor="start" x="104.3664" y="-675.4" font-family="Arial" font-size="14.00" fill="#000000">tracker_id </text>
<text text-anchor="start" x="169.7058" y="-675.4" font-family="Arial" font-size="14.00" fill="#666666">[int(11)]</text>
<polygon fill="none" stroke="#000000" stroke-width="3" points="95.8664,-662.5 95.8664,-771.5 346.8664,-771.5 346.8664,-662.5 95.8664,-662.5"/>
</g>
<!-- projects -->
<g id="node2" class="node">
<title>projects</title>
<polygon fill="#efefef" stroke="transparent" points="116.3664,-493 116.3664,-539 325.3664,-539 325.3664,-493 116.3664,-493"/>
<polygon fill="none" stroke="#000000" points="116.3664,-493 116.3664,-539 325.3664,-539 325.3664,-493 116.3664,-493"/>
<text text-anchor="start" x="140.7359" y="-516.8" font-family="Arial Bold" font-size="18.00" fill="#000000">projects</text>
<text text-anchor="start" x="203.7431" y="-516.8" font-family="Arial" font-size="14.00" fill="#000000"> </text>
<text text-anchor="start" x="207.6337" y="-516.8" font-family="Arial" font-size="14.00" fill="#666666">[BASE TABLE]</text>
<text text-anchor="start" x="178.4933" y="-502.4" font-family="Arial" font-size="14.00" fill="#333333">プロジェクト</text>
<polygon fill="none" stroke="#000000" points="116.3664,-463 116.3664,-493 325.3664,-493 325.3664,-463 116.3664,-463"/>
<text text-anchor="start" x="123.3664" y="-474.4" font-family="Arial" font-size="14.00" fill="#000000">id </text>
<text text-anchor="start" x="138.1462" y="-474.4" font-family="Arial" font-size="14.00" fill="#666666">[int(11)]</text>
<polygon fill="none" stroke="#000000" points="116.3664,-433 116.3664,-463 325.3664,-463 325.3664,-433 116.3664,-433"/>
<text text-anchor="start" x="123.3664" y="-444.4" font-family="Arial" font-size="14.00" fill="#000000">name </text>
<text text-anchor="start" x="162.2654" y="-444.4" font-family="Arial" font-size="14.00" fill="#666666">[varchar(255)]</text>
<polygon fill="none" stroke="#000000" points="116.3664,-403 116.3664,-433 325.3664,-433 325.3664,-403 116.3664,-403"/>
<text text-anchor="start" x="123.3664" y="-414.4" font-family="Arial" font-size="14.00" fill="#000000">description </text>
<text text-anchor="start" x="194.9344" y="-414.4" font-family="Arial" font-size="14.00" fill="#666666">[text]</text>
<polygon fill="none" stroke="#000000" points="116.3664,-373 116.3664,-403 325.3664,-403 325.3664,-373 116.3664,-373"/>
<text text-anchor="start" x="123.3664" y="-384.4" font-family="Arial" font-size="14.00" fill="#000000">homepage </text>
<text text-anchor="start" x="193.3958" y="-384.4" font-family="Arial" font-size="14.00" fill="#666666">[varchar(255)]</text>
<polygon fill="none" stroke="#000000" points="116.3664,-343 116.3664,-373 325.3664,-373 325.3664,-343 116.3664,-343"/>
<text text-anchor="start" x="123.3664" y="-354.4" font-family="Arial" font-size="14.00" fill="#000000">is_public </text>
<text text-anchor="start" x="181.7072" y="-354.4" font-family="Arial" font-size="14.00" fill="#666666">[tinyint(1)]</text>
<polygon fill="none" stroke="#000000" points="116.3664,-313 116.3664,-343 325.3664,-343 325.3664,-313 116.3664,-313"/>
<text text-anchor="start" x="123.3664" y="-324.4" font-family="Arial" font-size="14.00" fill="#000000">parent_id </text>
<text text-anchor="start" x="185.6104" y="-324.4" font-family="Arial" font-size="14.00" fill="#666666">[int(11)]</text>
<polygon fill="none" stroke="#000000" points="116.3664,-283 116.3664,-313 325.3664,-313 325.3664,-283 116.3664,-283"/>
<text text-anchor="start" x="123.3664" y="-294.4" font-family="Arial" font-size="14.00" fill="#000000">created_on </text>
<text text-anchor="start" x="197.2864" y="-294.4" font-family="Arial" font-size="14.00" fill="#666666">[timestamp]</text>
<polygon fill="none" stroke="#000000" points="116.3664,-253 116.3664,-283 325.3664,-283 325.3664,-253 116.3664,-253"/>
<text text-anchor="start" x="123.3664" y="-264.4" font-family="Arial" font-size="14.00" fill="#000000">updated_on </text>
<text text-anchor="start" x="201.191" y="-264.4" font-family="Arial" font-size="14.00" fill="#666666">[timestamp]</text>
<polygon fill="none" stroke="#000000" points="116.3664,-223 116.3664,-253 325.3664,-253 325.3664,-223 116.3664,-223"/>
<text text-anchor="start" x="123.3664" y="-234.4" font-family="Arial" font-size="14.00" fill="#000000">identifier </text>
<text text-anchor="start" x="180.149" y="-234.4" font-family="Arial" font-size="14.00" fill="#666666">[varchar(255)]</text>
<polygon fill="none" stroke="#000000" points="116.3664,-193 116.3664,-223 325.3664,-223 325.3664,-193 116.3664,-193"/>
<text text-anchor="start" x="123.3664" y="-204.4" font-family="Arial" font-size="14.00" fill="#000000">status </text>
<text text-anchor="start" x="164.6034" y="-204.4" font-family="Arial" font-size="14.00" fill="#666666">[int(11)]</text>
<polygon fill="none" stroke="#000000" points="116.3664,-163 116.3664,-193 325.3664,-193 325.3664,-163 116.3664,-163"/>
<text text-anchor="start" x="123.3664" y="-174.4" font-family="Arial" font-size="14.00" fill="#000000">lft </text>
<text text-anchor="start" x="138.1448" y="-174.4" font-family="Arial" font-size="14.00" fill="#666666">[int(11)]</text>
<polygon fill="none" stroke="#000000" points="116.3664,-133 116.3664,-163 325.3664,-163 325.3664,-133 116.3664,-133"/>
<text text-anchor="start" x="123.3664" y="-144.4" font-family="Arial" font-size="14.00" fill="#000000">rgt </text>
<text text-anchor="start" x="143.5908" y="-144.4" font-family="Arial" font-size="14.00" fill="#666666">[int(11)]</text>
<polygon fill="none" stroke="#000000" points="116.3664,-103 116.3664,-133 325.3664,-133 325.3664,-103 116.3664,-103"/>
<text text-anchor="start" x="123.3664" y="-114.4" font-family="Arial" font-size="14.00" fill="#000000">inherit_members </text>
<text text-anchor="start" x="231.4814" y="-114.4" font-family="Arial" font-size="14.00" fill="#666666">[tinyint(1)]</text>
<polygon fill="none" stroke="#000000" points="116.3664,-73 116.3664,-103 325.3664,-103 325.3664,-73 116.3664,-73"/>
<text text-anchor="start" x="123.3664" y="-84.4" font-family="Arial" font-size="14.00" fill="#000000">default_version_id </text>
<text text-anchor="start" x="240.8446" y="-84.4" font-family="Arial" font-size="14.00" fill="#666666">[int(11)]</text>
<polygon fill="none" stroke="#000000" points="116.3664,-43 116.3664,-73 325.3664,-73 325.3664,-43 116.3664,-43"/>
<text text-anchor="start" x="123.2234" y="-54.4" font-family="Arial" font-size="14.00" fill="#000000">default_assigned_to_id </text>
<text text-anchor="start" x="271.062" y="-54.4" font-family="Arial" font-size="14.00" fill="#666666">[int(11)]</text>
</g>
<!-- projects_trackers&#45;&gt;projects -->
<g id="edge1" class="edge">
<title>projects_trackers:project_id&#45;&gt;projects:id</title>
<path fill="none" stroke="#000000" stroke-dasharray="5,2" d="M87.3875,-708.041C50.0921,-700.2189 64.0425,-646.4658 88.3664,-618 155.0111,-540.0068 249.7217,-659.9932 316.3664,-582 346.3937,-546.8595 362.5886,-478 325.3664,-478"/>
<polygon fill="#000000" stroke="#000000" points="87.4123,-708.0433 96.9359,-713.4794 92.3893,-708.5217 97.3664,-709 97.3664,-709 97.3664,-709 92.3893,-708.5217 97.7969,-704.5206 87.4123,-708.0433 87.4123,-708.0433"/>
<text text-anchor="start" x="7.6909" y="-719" font-family="Arial" font-size="10.00" fill="#000000">Additional Relation</text>
</g>
<!-- projects_trackers&#45;&gt;projects -->
<g id="edge2" class="edge">
<title>projects_trackers:project_id&#45;&gt;projects:id</title>
<path fill="none" stroke="#000000" stroke-dasharray="5,2" d="M86.9721,-705.8737C70.0065,-693.1347 83.671,-644.5601 106.3664,-618 173.0111,-540.0068 267.7217,-659.9932 334.3664,-582 364.3351,-546.9282 380.5253,-478.2689 325.6892,-478.0008"/>
<polygon fill="#000000" stroke="#000000" points="87.4524,-706.0232 95.6617,-713.2936 92.2262,-707.5102 97,-708.9972 97,-708.9972 97,-708.9972 92.2262,-707.5102 98.3383,-704.7008 87.4524,-706.0232 87.4524,-706.0232"/>
<text text-anchor="start" x="7.3245" y="-692.9972" font-family="Arial" font-size="10.00" fill="#000000">Additional Relation</text>
</g>
<!-- trackers -->
<g id="node3" class="node">
<title>trackers</title>
<polygon fill="#efefef" stroke="transparent" points="429.3664,-388 429.3664,-434 604.3664,-434 604.3664,-388 429.3664,-388"/>
<polygon fill="none" stroke="#000000" points="429.3664,-388 429.3664,-434 604.3664,-434 604.3664,-388 429.3664,-388"/>
<text text-anchor="start" x="436.24" y="-411.8" font-family="Arial Bold" font-size="18.00" fill="#000000">trackers</text>
<text text-anchor="start" x="500.239" y="-411.8" font-family="Arial" font-size="14.00" fill="#000000"> </text>
<text text-anchor="start" x="504.1296" y="-411.8" font-family="Arial" font-size="14.00" fill="#666666">[BASE TABLE]</text>
<text text-anchor="start" x="478.0752" y="-397.4" font-family="Arial" font-size="14.00" fill="#333333">トラッカー</text>
<polygon fill="none" stroke="#000000" points="429.3664,-358 429.3664,-388 604.3664,-388 604.3664,-358 429.3664,-358"/>
<text text-anchor="start" x="436.3664" y="-369.4" font-family="Arial" font-size="14.00" fill="#000000">id </text>
<text text-anchor="start" x="451.1462" y="-369.4" font-family="Arial" font-size="14.00" fill="#666666">[int(11)]</text>
<polygon fill="none" stroke="#000000" points="429.3664,-328 429.3664,-358 604.3664,-358 604.3664,-328 429.3664,-328"/>
<text text-anchor="start" x="436.3664" y="-339.4" font-family="Arial" font-size="14.00" fill="#000000">name </text>
<text text-anchor="start" x="475.2654" y="-339.4" font-family="Arial" font-size="14.00" fill="#666666">[varchar(30)]</text>
<polygon fill="none" stroke="#000000" points="429.3664,-298 429.3664,-328 604.3664,-328 604.3664,-298 429.3664,-298"/>
<text text-anchor="start" x="436.3664" y="-309.4" font-family="Arial" font-size="14.00" fill="#000000">description </text>
<text text-anchor="start" x="507.9344" y="-309.4" font-family="Arial" font-size="14.00" fill="#666666">[varchar(255)]</text>
<polygon fill="none" stroke="#000000" points="429.3664,-268 429.3664,-298 604.3664,-298 604.3664,-268 429.3664,-268"/>
<text text-anchor="start" x="436.3664" y="-279.4" font-family="Arial" font-size="14.00" fill="#000000">is_in_chlog </text>
<text text-anchor="start" x="510.2724" y="-279.4" font-family="Arial" font-size="14.00" fill="#666666">[tinyint(1)]</text>
<polygon fill="none" stroke="#000000" points="429.3664,-238 429.3664,-268 604.3664,-268 604.3664,-238 429.3664,-238"/>
<text text-anchor="start" x="436.3664" y="-249.4" font-family="Arial" font-size="14.00" fill="#000000">position </text>
<text text-anchor="start" x="488.4912" y="-249.4" font-family="Arial" font-size="14.00" fill="#666666">[int(11)]</text>
<polygon fill="none" stroke="#000000" points="429.3664,-208 429.3664,-238 604.3664,-238 604.3664,-208 429.3664,-208"/>
<text text-anchor="start" x="436.3664" y="-219.4" font-family="Arial" font-size="14.00" fill="#000000">is_in_roadmap </text>
<text text-anchor="start" x="532.0522" y="-219.4" font-family="Arial" font-size="14.00" fill="#666666">[tinyint(1)]</text>
<polygon fill="none" stroke="#000000" points="429.3664,-178 429.3664,-208 604.3664,-208 604.3664,-178 429.3664,-178"/>
<text text-anchor="start" x="436.3664" y="-189.4" font-family="Arial" font-size="14.00" fill="#000000">fields_bits </text>
<text text-anchor="start" x="502.4884" y="-189.4" font-family="Arial" font-size="14.00" fill="#666666">[int(11)]</text>
<polygon fill="none" stroke="#000000" points="429.3664,-148 429.3664,-178 604.3664,-178 604.3664,-148 429.3664,-148"/>
<text text-anchor="start" x="436.3664" y="-159.4" font-family="Arial" font-size="14.00" fill="#000000">default_status_id </text>
<text text-anchor="start" x="546.076" y="-159.4" font-family="Arial" font-size="14.00" fill="#666666">[int(11)]</text>
</g>
<!-- projects_trackers&#45;&gt;trackers -->
<g id="edge3" class="edge">
<title>projects_trackers:tracker_id&#45;&gt;trackers:id</title>
<path fill="none" stroke="#000000" stroke-dasharray="5,2" d="M355.1557,-676.7129C410.4187,-648.711 362.4317,-373 429.3664,-373"/>
<polygon fill="#000000" stroke="#000000" points="355.1042,-676.7248 344.3426,-674.618 350.2353,-677.8624 345.3664,-679 345.3664,-679 345.3664,-679 350.2353,-677.8624 346.3902,-683.382 355.1042,-676.7248 355.1042,-676.7248"/>
<text text-anchor="start" x="352.6909" y="-689" font-family="Arial" font-size="10.00" fill="#000000">Additional Relation</text>
</g>
</g>
</svg>
