<?xml version="1.0" encoding="UTF-8" standalone="no"?>
<!DOCTYPE svg PUBLIC "-//W3C//DTD SVG 1.1//EN"
 "http://www.w3.org/Graphics/SVG/1.1/DTD/svg11.dtd">
<!-- Generated by graphviz version 2.40.1 (20161225.0304)
 -->
<!-- Title: queries_roles Pages: 1 -->
<svg width="598pt" height="704pt"
 viewBox="0.00 0.00 597.50 704.00" xmlns="http://www.w3.org/2000/svg" xmlns:xlink="http://www.w3.org/1999/xlink">
<g id="graph0" class="graph" transform="scale(1 1) rotate(0) translate(4 700)">
<title>queries_roles</title>
<polygon fill="#ffffff" stroke="transparent" points="-4,4 -4,-700 593.5,-700 593.5,4 -4,4"/>
<!-- queries_roles -->
<g id="node1" class="node">
<title>queries_roles</title>
<polygon fill="#efefef" stroke="transparent" points="170,-604 170,-650 389,-650 389,-604 170,-604"/>
<polygon fill="none" stroke="#000000" points="170,-604 170,-650 389,-650 389,-604 170,-604"/>
<text text-anchor="start" x="176.865" y="-627.8" font-family="Arial Bold" font-size="18.00" fill="#000000">queries_roles</text>
<text text-anchor="start" x="284.8812" y="-627.8" font-family="Arial" font-size="14.00" fill="#000000"> </text>
<text text-anchor="start" x="288.7718" y="-627.8" font-family="Arial" font-size="14.00" fill="#666666">[BASE TABLE]</text>
<text text-anchor="start" x="192.9317" y="-613.4" font-family="Arial" font-size="14.00" fill="#333333">カスタムクエリ⇔ロール</text>
<polygon fill="none" stroke="#000000" points="170,-574 170,-604 389,-604 389,-574 170,-574"/>
<text text-anchor="start" x="177" y="-585.4" font-family="Arial" font-size="14.00" fill="#000000">query_id </text>
<text text-anchor="start" x="234.5708" y="-585.4" font-family="Arial" font-size="14.00" fill="#666666">[int(11)]</text>
<polygon fill="none" stroke="#000000" points="170,-544 170,-574 389,-574 389,-544 170,-544"/>
<text text-anchor="start" x="177" y="-555.4" font-family="Arial" font-size="14.00" fill="#000000">role_id </text>
<text text-anchor="start" x="222.8948" y="-555.4" font-family="Arial" font-size="14.00" fill="#666666">[int(11)]</text>
<polygon fill="none" stroke="#000000" stroke-width="3" points="168,-542.5 168,-651.5 390,-651.5 390,-542.5 168,-542.5"/>
</g>
<!-- queries -->
<g id="node2" class="node">
<title>queries</title>
<polygon fill="#efefef" stroke="transparent" points="43,-373 43,-419 213,-419 213,-373 43,-373"/>
<polygon fill="none" stroke="#000000" points="43,-373 43,-419 213,-419 213,-373 43,-373"/>
<text text-anchor="start" x="49.8675" y="-396.8" font-family="Arial Bold" font-size="18.00" fill="#000000">queries</text>
<text text-anchor="start" x="108.8787" y="-396.8" font-family="Arial" font-size="14.00" fill="#000000"> </text>
<text text-anchor="start" x="112.7693" y="-396.8" font-family="Arial" font-size="14.00" fill="#666666">[BASE TABLE]</text>
<text text-anchor="start" x="74.093" y="-382.4" font-family="Arial" font-size="14.00" fill="#333333">カスタムクエリ</text>
<polygon fill="none" stroke="#000000" points="43,-343 43,-373 213,-373 213,-343 43,-343"/>
<text text-anchor="start" x="50" y="-354.4" font-family="Arial" font-size="14.00" fill="#000000">id </text>
<text text-anchor="start" x="64.7798" y="-354.4" font-family="Arial" font-size="14.00" fill="#666666">[int(11)]</text>
<polygon fill="none" stroke="#000000" points="43,-313 43,-343 213,-343 213,-313 43,-313"/>
<text text-anchor="start" x="50" y="-324.4" font-family="Arial" font-size="14.00" fill="#000000">project_id </text>
<text text-anchor="start" x="114.568" y="-324.4" font-family="Arial" font-size="14.00" fill="#666666">[int(11)]</text>
<polygon fill="none" stroke="#000000" points="43,-283 43,-313 213,-313 213,-283 43,-283"/>
<text text-anchor="start" x="50" y="-294.4" font-family="Arial" font-size="14.00" fill="#000000">name </text>
<text text-anchor="start" x="88.899" y="-294.4" font-family="Arial" font-size="14.00" fill="#666666">[varchar(255)]</text>
<polygon fill="none" stroke="#000000" points="43,-253 43,-283 213,-283 213,-253 43,-253"/>
<text text-anchor="start" x="50" y="-264.4" font-family="Arial" font-size="14.00" fill="#000000">filters </text>
<text text-anchor="start" x="87.3282" y="-264.4" font-family="Arial" font-size="14.00" fill="#666666">[text]</text>
<polygon fill="none" stroke="#000000" points="43,-223 43,-253 213,-253 213,-223 43,-223"/>
<text text-anchor="start" x="50" y="-234.4" font-family="Arial" font-size="14.00" fill="#000000">user_id </text>
<text text-anchor="start" x="99.7882" y="-234.4" font-family="Arial" font-size="14.00" fill="#666666">[int(11)]</text>
<polygon fill="none" stroke="#000000" points="43,-193 43,-223 213,-223 213,-193 43,-193"/>
<text text-anchor="start" x="50" y="-204.4" font-family="Arial" font-size="14.00" fill="#000000">column_names </text>
<text text-anchor="start" x="148.7966" y="-204.4" font-family="Arial" font-size="14.00" fill="#666666">[text]</text>
<polygon fill="none" stroke="#000000" points="43,-163 43,-193 213,-193 213,-163 43,-163"/>
<text text-anchor="start" x="50" y="-174.4" font-family="Arial" font-size="14.00" fill="#000000">sort_criteria </text>
<text text-anchor="start" x="126.9972" y="-174.4" font-family="Arial" font-size="14.00" fill="#666666">[text]</text>
<polygon fill="none" stroke="#000000" points="43,-133 43,-163 213,-163 213,-133 43,-133"/>
<text text-anchor="start" x="50" y="-144.4" font-family="Arial" font-size="14.00" fill="#000000">group_by </text>
<text text-anchor="start" x="112.2468" y="-144.4" font-family="Arial" font-size="14.00" fill="#666666">[varchar(255)]</text>
<polygon fill="none" stroke="#000000" points="43,-103 43,-133 213,-133 213,-103 43,-103"/>
<text text-anchor="start" x="50" y="-114.4" font-family="Arial" font-size="14.00" fill="#000000">type </text>
<text text-anchor="start" x="80.3464" y="-114.4" font-family="Arial" font-size="14.00" fill="#666666">[varchar(255)]</text>
<polygon fill="none" stroke="#000000" points="43,-73 43,-103 213,-103 213,-73 43,-73"/>
<text text-anchor="start" x="50" y="-84.4" font-family="Arial" font-size="14.00" fill="#000000">visibility </text>
<text text-anchor="start" x="102.0968" y="-84.4" font-family="Arial" font-size="14.00" fill="#666666">[int(11)]</text>
<polygon fill="none" stroke="#000000" points="43,-43 43,-73 213,-73 213,-43 43,-43"/>
<text text-anchor="start" x="50" y="-54.4" font-family="Arial" font-size="14.00" fill="#000000">options </text>
<text text-anchor="start" x="99.0182" y="-54.4" font-family="Arial" font-size="14.00" fill="#666666">[text]</text>
</g>
<!-- queries_roles&#45;&gt;queries -->
<g id="edge1" class="edge">
<title>queries_roles:query_id&#45;&gt;queries:id</title>
<path fill="none" stroke="#000000" stroke-dasharray="5,2" d="M159.9105,-587.512C134.0532,-578.5528 154.5583,-531.0669 170,-498 180.5461,-475.4165 202.4539,-484.5835 213,-462 232.5576,-420.1193 259.2222,-358 213,-358"/>
<polygon fill="#000000" stroke="#000000" points="160.107,-587.5409 169.3434,-593.4518 165.0535,-588.2705 170,-589 170,-589 170,-589 165.0535,-588.2705 170.6566,-584.5482 160.107,-587.5409 160.107,-587.5409"/>
<text text-anchor="start" x="80.3245" y="-599" font-family="Arial" font-size="10.00" fill="#000000">Additional Relation</text>
</g>
<!-- roles -->
<g id="node3" class="node">
<title>roles</title>
<polygon fill="#efefef" stroke="transparent" points="318,-373 318,-419 547,-419 547,-373 318,-373"/>
<polygon fill="none" stroke="#000000" points="318,-373 318,-419 547,-419 547,-373 318,-373"/>
<text text-anchor="start" x="364.3737" y="-396.8" font-family="Arial Bold" font-size="18.00" fill="#000000">roles</text>
<text text-anchor="start" x="403.3725" y="-396.8" font-family="Arial" font-size="14.00" fill="#000000"> </text>
<text text-anchor="start" x="407.2631" y="-396.8" font-family="Arial" font-size="14.00" fill="#666666">[BASE TABLE]</text>
<text text-anchor="start" x="405.6746" y="-382.4" font-family="Arial" font-size="14.00" fill="#333333">ロール</text>
<polygon fill="none" stroke="#000000" points="318,-343 318,-373 547,-373 547,-343 318,-343"/>
<text text-anchor="start" x="325" y="-354.4" font-family="Arial" font-size="14.00" fill="#000000">id </text>
<text text-anchor="start" x="339.7798" y="-354.4" font-family="Arial" font-size="14.00" fill="#666666">[int(11)]</text>
<polygon fill="none" stroke="#000000" points="318,-313 318,-343 547,-343 547,-313 318,-313"/>
<text text-anchor="start" x="325" y="-324.4" font-family="Arial" font-size="14.00" fill="#000000">name </text>
<text text-anchor="start" x="363.899" y="-324.4" font-family="Arial" font-size="14.00" fill="#666666">[varchar(255)]</text>
<polygon fill="none" stroke="#000000" points="318,-283 318,-313 547,-313 547,-283 318,-283"/>
<text text-anchor="start" x="325" y="-294.4" font-family="Arial" font-size="14.00" fill="#000000">position </text>
<text text-anchor="start" x="377.1248" y="-294.4" font-family="Arial" font-size="14.00" fill="#666666">[int(11)]</text>
<polygon fill="none" stroke="#000000" points="318,-253 318,-283 547,-283 547,-253 318,-253"/>
<text text-anchor="start" x="325" y="-264.4" font-family="Arial" font-size="14.00" fill="#000000">assignable </text>
<text text-anchor="start" x="395.7994" y="-264.4" font-family="Arial" font-size="14.00" fill="#666666">[tinyint(1)]</text>
<polygon fill="none" stroke="#000000" points="318,-223 318,-253 547,-253 547,-223 318,-223"/>
<text text-anchor="start" x="325" y="-234.4" font-family="Arial" font-size="14.00" fill="#000000">builtin </text>
<text text-anchor="start" x="365.4488" y="-234.4" font-family="Arial" font-size="14.00" fill="#666666">[int(11)]</text>
<polygon fill="none" stroke="#000000" points="318,-193 318,-223 547,-223 547,-193 318,-193"/>
<text text-anchor="start" x="325" y="-204.4" font-family="Arial" font-size="14.00" fill="#000000">permissions </text>
<text text-anchor="start" x="403.5554" y="-204.4" font-family="Arial" font-size="14.00" fill="#666666">[text]</text>
<polygon fill="none" stroke="#000000" points="318,-163 318,-193 547,-193 547,-163 318,-163"/>
<text text-anchor="start" x="325" y="-174.4" font-family="Arial" font-size="14.00" fill="#000000">issues_visibility </text>
<text text-anchor="start" x="424.5512" y="-174.4" font-family="Arial" font-size="14.00" fill="#666666">[varchar(30)]</text>
<polygon fill="none" stroke="#000000" points="318,-133 318,-163 547,-163 547,-133 318,-133"/>
<text text-anchor="start" x="325" y="-144.4" font-family="Arial" font-size="14.00" fill="#000000">users_visibility </text>
<text text-anchor="start" x="419.1052" y="-144.4" font-family="Arial" font-size="14.00" fill="#666666">[varchar(30)]</text>
<polygon fill="none" stroke="#000000" points="318,-103 318,-133 547,-133 547,-103 318,-103"/>
<text text-anchor="start" x="324.7777" y="-114.4" font-family="Arial" font-size="14.00" fill="#000000">time_entries_visibility </text>
<text text-anchor="start" x="460.8857" y="-114.4" font-family="Arial" font-size="14.00" fill="#666666">[varchar(30)]</text>
<polygon fill="none" stroke="#000000" points="318,-73 318,-103 547,-103 547,-73 318,-73"/>
<text text-anchor="start" x="325" y="-84.4" font-family="Arial" font-size="14.00" fill="#000000">all_roles_managed </text>
<text text-anchor="start" x="447.1402" y="-84.4" font-family="Arial" font-size="14.00" fill="#666666">[tinyint(1)]</text>
<polygon fill="none" stroke="#000000" points="318,-43 318,-73 547,-73 547,-43 318,-43"/>
<text text-anchor="start" x="325" y="-54.4" font-family="Arial" font-size="14.00" fill="#000000">settings </text>
<text text-anchor="start" x="377.1262" y="-54.4" font-family="Arial" font-size="14.00" fill="#666666">[text]</text>
</g>
<!-- queries_roles&#45;&gt;roles -->
<g id="edge2" class="edge">
<title>queries_roles:role_id&#45;&gt;roles:id</title>
<path fill="none" stroke="#000000" stroke-dasharray="5,2" d="M398.9241,-556.4253C412.0418,-547.5181 400.9714,-517.4923 389,-498 370.4842,-467.8517 336.5158,-492.1483 318,-462 293.8101,-422.6129 271.7778,-358 318,-358"/>
<polygon fill="#000000" stroke="#000000" points="398.6795,-556.4886 387.8699,-554.6442 393.8398,-557.7443 389,-559 389,-559 389,-559 393.8398,-557.7443 390.1301,-563.3558 398.6795,-556.4886 398.6795,-556.4886"/>
<text text-anchor="start" x="396.3245" y="-569" font-family="Arial" font-size="10.00" fill="#000000">Additional Relation</text>
</g>
</g>
</svg>
