<?xml version="1.0" encoding="UTF-8" standalone="no"?>
<!DOCTYPE svg PUBLIC "-//W3C//DTD SVG 1.1//EN"
 "http://www.w3.org/Graphics/SVG/1.1/DTD/svg11.dtd">
<!-- Generated by graphviz version 2.40.1 (20161225.0304)
 -->
<!-- Title: queries_roles Pages: 1 -->
<svg width="1054pt" height="704pt"
 viewBox="0.00 0.00 1053.50 704.00" xmlns="http://www.w3.org/2000/svg" xmlns:xlink="http://www.w3.org/1999/xlink">
<g id="graph0" class="graph" transform="scale(1 1) rotate(0) translate(4 700)">
<title>queries_roles</title>
<polygon fill="#ffffff" stroke="transparent" points="-4,4 -4,-700 1049.5,-700 1049.5,4 -4,4"/>
<!-- queries_roles -->
<g id="node1" class="node">
<title>queries_roles</title>
<polygon fill="#efefef" stroke="transparent" points="512,-604 512,-650 731,-650 731,-604 512,-604"/>
<polygon fill="none" stroke="#000000" points="512,-604 512,-650 731,-650 731,-604 512,-604"/>
<text text-anchor="start" x="518.865" y="-627.8" font-family="Arial Bold" font-size="18.00" fill="#000000">queries_roles</text>
<text text-anchor="start" x="626.8812" y="-627.8" font-family="Arial" font-size="14.00" fill="#000000"> </text>
<text text-anchor="start" x="630.7718" y="-627.8" font-family="Arial" font-size="14.00" fill="#666666">[BASE TABLE]</text>
<text text-anchor="start" x="534.9317" y="-613.4" font-family="Arial" font-size="14.00" fill="#333333">カスタムクエリ⇔ロール</text>
<polygon fill="none" stroke="#000000" points="512,-574 512,-604 731,-604 731,-574 512,-574"/>
<text text-anchor="start" x="519" y="-585.4" font-family="Arial" font-size="14.00" fill="#000000">query_id </text>
<text text-anchor="start" x="576.5708" y="-585.4" font-family="Arial" font-size="14.00" fill="#666666">[int(11)]</text>
<polygon fill="none" stroke="#000000" points="512,-544 512,-574 731,-574 731,-544 512,-544"/>
<text text-anchor="start" x="519" y="-555.4" font-family="Arial" font-size="14.00" fill="#000000">role_id </text>
<text text-anchor="start" x="564.8948" y="-555.4" font-family="Arial" font-size="14.00" fill="#666666">[int(11)]</text>
<polygon fill="none" stroke="#000000" stroke-width="3" points="510,-542.5 510,-651.5 732,-651.5 732,-542.5 510,-542.5"/>
</g>
<!-- queries -->
<g id="node2" class="node">
<title>queries</title>
<polygon fill="#efefef" stroke="transparent" points="43,-373 43,-419 669,-419 669,-373 43,-373"/>
<polygon fill="none" stroke="#000000" points="43,-373 43,-419 669,-419 669,-373 43,-373"/>
<text text-anchor="start" x="277.8675" y="-396.8" font-family="Arial Bold" font-size="18.00" fill="#000000">queries</text>
<text text-anchor="start" x="336.8787" y="-396.8" font-family="Arial" font-size="14.00" fill="#000000"> </text>
<text text-anchor="start" x="340.7693" y="-396.8" font-family="Arial" font-size="14.00" fill="#666666">[BASE TABLE]</text>
<text text-anchor="start" x="302.093" y="-382.4" font-family="Arial" font-size="14.00" fill="#333333">カスタムクエリ</text>
<polygon fill="none" stroke="#000000" points="43,-343 43,-373 669,-373 669,-343 43,-343"/>
<text text-anchor="start" x="50" y="-354.4" font-family="Arial" font-size="14.00" fill="#000000">id </text>
<text text-anchor="start" x="64.7798" y="-354.4" font-family="Arial" font-size="14.00" fill="#666666">[int(11)]</text>
<polygon fill="none" stroke="#000000" points="43,-313 43,-343 669,-343 669,-313 43,-313"/>
<text text-anchor="start" x="50" y="-324.4" font-family="Arial" font-size="14.00" fill="#000000">project_id </text>
<text text-anchor="start" x="114.568" y="-324.4" font-family="Arial" font-size="14.00" fill="#666666">[int(11)]</text>
<polygon fill="none" stroke="#000000" points="43,-283 43,-313 669,-313 669,-283 43,-283"/>
<text text-anchor="start" x="50" y="-294.4" font-family="Arial" font-size="14.00" fill="#000000">name </text>
<text text-anchor="start" x="88.899" y="-294.4" font-family="Arial" font-size="14.00" fill="#666666">[varchar(255)]</text>
<polygon fill="none" stroke="#000000" points="43,-253 43,-283 669,-283 669,-253 43,-253"/>
<text text-anchor="start" x="50" y="-264.4" font-family="Arial" font-size="14.00" fill="#000000">filters </text>
<text text-anchor="start" x="87.3282" y="-264.4" font-family="Arial" font-size="14.00" fill="#666666">[text]</text>
<polygon fill="none" stroke="#000000" points="43,-223 43,-253 669,-253 669,-223 43,-223"/>
<text text-anchor="start" x="50" y="-234.4" font-family="Arial" font-size="14.00" fill="#000000">user_id </text>
<text text-anchor="start" x="99.7882" y="-234.4" font-family="Arial" font-size="14.00" fill="#666666">[int(11)]</text>
<polygon fill="none" stroke="#000000" points="43,-193 43,-223 669,-223 669,-193 43,-193"/>
<text text-anchor="start" x="50" y="-204.4" font-family="Arial" font-size="14.00" fill="#000000">column_names </text>
<text text-anchor="start" x="148.7966" y="-204.4" font-family="Arial" font-size="14.00" fill="#666666">[text]</text>
<polygon fill="none" stroke="#000000" points="43,-163 43,-193 669,-193 669,-163 43,-163"/>
<text text-anchor="start" x="50" y="-174.4" font-family="Arial" font-size="14.00" fill="#000000">sort_criteria </text>
<text text-anchor="start" x="126.9972" y="-174.4" font-family="Arial" font-size="14.00" fill="#666666">[text]</text>
<polygon fill="none" stroke="#000000" points="43,-133 43,-163 669,-163 669,-133 43,-133"/>
<text text-anchor="start" x="50" y="-144.4" font-family="Arial" font-size="14.00" fill="#000000">group_by </text>
<text text-anchor="start" x="112.2468" y="-144.4" font-family="Arial" font-size="14.00" fill="#666666">[varchar(255)]</text>
<polygon fill="none" stroke="#000000" points="43,-103 43,-133 669,-133 669,-103 43,-103"/>
<text text-anchor="start" x="49.6681" y="-114.4" font-family="Arial" font-size="14.00" fill="#000000">type </text>
<text text-anchor="start" x="80.0145" y="-114.4" font-family="Arial" font-size="14.00" fill="#666666">[varchar(255)]</text>
<text text-anchor="start" x="167.1337" y="-114.4" font-family="Arial" font-size="14.00" fill="#000000"> IssueQuery:チケット ProjectQuery:プロジェクト TimeEntryQuery:作業時間 &#160;</text>
<polygon fill="none" stroke="#000000" points="43,-73 43,-103 669,-103 669,-73 43,-73"/>
<text text-anchor="start" x="50" y="-84.4" font-family="Arial" font-size="14.00" fill="#000000">visibility </text>
<text text-anchor="start" x="102.0968" y="-84.4" font-family="Arial" font-size="14.00" fill="#666666">[int(11)]</text>
<polygon fill="none" stroke="#000000" points="43,-43 43,-73 669,-73 669,-43 43,-43"/>
<text text-anchor="start" x="50" y="-54.4" font-family="Arial" font-size="14.00" fill="#000000">options </text>
<text text-anchor="start" x="99.0182" y="-54.4" font-family="Arial" font-size="14.00" fill="#666666">[text]</text>
</g>
<!-- queries_roles&#45;&gt;queries -->
<g id="edge1" class="edge">
<title>queries_roles:query_id&#45;&gt;queries:id</title>
<path fill="none" stroke="#000000" stroke-dasharray="5,2" d="M502.0557,-587.5064C474.5012,-578.1125 489.1617,-526.6678 512,-498 556.6067,-442.0073 624.3933,-517.9927 669,-462 697.801,-425.8476 715.2222,-358 669,-358"/>
<polygon fill="#000000" stroke="#000000" points="502.1109,-587.5147 511.3316,-593.4501 507.0555,-588.2573 512,-589 512,-589 512,-589 507.0555,-588.2573 512.6684,-584.5499 502.1109,-587.5147 502.1109,-587.5147"/>
<text text-anchor="start" x="422.3245" y="-599" font-family="Arial" font-size="10.00" fill="#000000">Additional Relation</text>
</g>
<!-- roles -->
<g id="node3" class="node">
<title>roles</title>
<polygon fill="#efefef" stroke="transparent" points="774,-373 774,-419 1003,-419 1003,-373 774,-373"/>
<polygon fill="none" stroke="#000000" points="774,-373 774,-419 1003,-419 1003,-373 774,-373"/>
<text text-anchor="start" x="820.3737" y="-396.8" font-family="Arial Bold" font-size="18.00" fill="#000000">roles</text>
<text text-anchor="start" x="859.3725" y="-396.8" font-family="Arial" font-size="14.00" fill="#000000"> </text>
<text text-anchor="start" x="863.2631" y="-396.8" font-family="Arial" font-size="14.00" fill="#666666">[BASE TABLE]</text>
<text text-anchor="start" x="861.6746" y="-382.4" font-family="Arial" font-size="14.00" fill="#333333">ロール</text>
<polygon fill="none" stroke="#000000" points="774,-343 774,-373 1003,-373 1003,-343 774,-343"/>
<text text-anchor="start" x="781" y="-354.4" font-family="Arial" font-size="14.00" fill="#000000">id </text>
<text text-anchor="start" x="795.7798" y="-354.4" font-family="Arial" font-size="14.00" fill="#666666">[int(11)]</text>
<polygon fill="none" stroke="#000000" points="774,-313 774,-343 1003,-343 1003,-313 774,-313"/>
<text text-anchor="start" x="781" y="-324.4" font-family="Arial" font-size="14.00" fill="#000000">name </text>
<text text-anchor="start" x="819.899" y="-324.4" font-family="Arial" font-size="14.00" fill="#666666">[varchar(255)]</text>
<polygon fill="none" stroke="#000000" points="774,-283 774,-313 1003,-313 1003,-283 774,-283"/>
<text text-anchor="start" x="781" y="-294.4" font-family="Arial" font-size="14.00" fill="#000000">position </text>
<text text-anchor="start" x="833.1248" y="-294.4" font-family="Arial" font-size="14.00" fill="#666666">[int(11)]</text>
<polygon fill="none" stroke="#000000" points="774,-253 774,-283 1003,-283 1003,-253 774,-253"/>
<text text-anchor="start" x="781" y="-264.4" font-family="Arial" font-size="14.00" fill="#000000">assignable </text>
<text text-anchor="start" x="851.7994" y="-264.4" font-family="Arial" font-size="14.00" fill="#666666">[tinyint(1)]</text>
<polygon fill="none" stroke="#000000" points="774,-223 774,-253 1003,-253 1003,-223 774,-223"/>
<text text-anchor="start" x="781" y="-234.4" font-family="Arial" font-size="14.00" fill="#000000">builtin </text>
<text text-anchor="start" x="821.4488" y="-234.4" font-family="Arial" font-size="14.00" fill="#666666">[int(11)]</text>
<polygon fill="none" stroke="#000000" points="774,-193 774,-223 1003,-223 1003,-193 774,-193"/>
<text text-anchor="start" x="781" y="-204.4" font-family="Arial" font-size="14.00" fill="#000000">permissions </text>
<text text-anchor="start" x="859.5554" y="-204.4" font-family="Arial" font-size="14.00" fill="#666666">[text]</text>
<polygon fill="none" stroke="#000000" points="774,-163 774,-193 1003,-193 1003,-163 774,-163"/>
<text text-anchor="start" x="781" y="-174.4" font-family="Arial" font-size="14.00" fill="#000000">issues_visibility </text>
<text text-anchor="start" x="880.5512" y="-174.4" font-family="Arial" font-size="14.00" fill="#666666">[varchar(30)]</text>
<polygon fill="none" stroke="#000000" points="774,-133 774,-163 1003,-163 1003,-133 774,-133"/>
<text text-anchor="start" x="781" y="-144.4" font-family="Arial" font-size="14.00" fill="#000000">users_visibility </text>
<text text-anchor="start" x="875.1052" y="-144.4" font-family="Arial" font-size="14.00" fill="#666666">[varchar(30)]</text>
<polygon fill="none" stroke="#000000" points="774,-103 774,-133 1003,-133 1003,-103 774,-103"/>
<text text-anchor="start" x="780.7777" y="-114.4" font-family="Arial" font-size="14.00" fill="#000000">time_entries_visibility </text>
<text text-anchor="start" x="916.8857" y="-114.4" font-family="Arial" font-size="14.00" fill="#666666">[varchar(30)]</text>
<polygon fill="none" stroke="#000000" points="774,-73 774,-103 1003,-103 1003,-73 774,-73"/>
<text text-anchor="start" x="781" y="-84.4" font-family="Arial" font-size="14.00" fill="#000000">all_roles_managed </text>
<text text-anchor="start" x="903.1402" y="-84.4" font-family="Arial" font-size="14.00" fill="#666666">[tinyint(1)]</text>
<polygon fill="none" stroke="#000000" points="774,-43 774,-73 1003,-73 1003,-43 774,-43"/>
<text text-anchor="start" x="781" y="-54.4" font-family="Arial" font-size="14.00" fill="#000000">settings </text>
<text text-anchor="start" x="833.1262" y="-54.4" font-family="Arial" font-size="14.00" fill="#666666">[text]</text>
</g>
<!-- queries_roles&#45;&gt;roles -->
<g id="edge2" class="edge">
<title>queries_roles:role_id&#45;&gt;roles:id</title>
<path fill="none" stroke="#000000" stroke-dasharray="5,2" d="M741.1067,-558.0133C811.2829,-542.8499 686.3923,-358 774,-358"/>
<polygon fill="#000000" stroke="#000000" points="740.9527,-558.0283 730.5627,-554.5213 735.9763,-558.5141 731,-559 731,-559 731,-559 735.9763,-558.5141 731.4373,-563.4787 740.9527,-558.0283 740.9527,-558.0283"/>
<text text-anchor="start" x="738.3245" y="-569" font-family="Arial" font-size="10.00" fill="#000000">Additional Relation</text>
</g>
</g>
</svg>
