<?xml version="1.0" encoding="UTF-8" standalone="no"?>
<!DOCTYPE svg PUBLIC "-//W3C//DTD SVG 1.1//EN"
 "http://www.w3.org/Graphics/SVG/1.1/DTD/svg11.dtd">
<!-- Generated by graphviz version 2.40.1 (20161225.0304)
 -->
<!-- Title: queries Pages: 1 -->
<svg width="1151pt" height="1502pt"
 viewBox="0.00 0.00 1151.00 1502.00" xmlns="http://www.w3.org/2000/svg" xmlns:xlink="http://www.w3.org/1999/xlink">
<g id="graph0" class="graph" transform="scale(1 1) rotate(0) translate(4 1498)">
<title>queries</title>
<polygon fill="#ffffff" stroke="transparent" points="-4,4 -4,-1498 1147,-1498 1147,4 -4,4"/>
<!-- queries -->
<g id="node1" class="node">
<title>queries</title>
<polygon fill="#efefef" stroke="transparent" points="97,-1174 97,-1220 723,-1220 723,-1174 97,-1174"/>
<polygon fill="none" stroke="#000000" points="97,-1174 97,-1220 723,-1220 723,-1174 97,-1174"/>
<text text-anchor="start" x="331.8675" y="-1197.8" font-family="Arial Bold" font-size="18.00" fill="#000000">queries</text>
<text text-anchor="start" x="390.8787" y="-1197.8" font-family="Arial" font-size="14.00" fill="#000000"> </text>
<text text-anchor="start" x="394.7693" y="-1197.8" font-family="Arial" font-size="14.00" fill="#666666">[BASE TABLE]</text>
<text text-anchor="start" x="356.093" y="-1183.4" font-family="Arial" font-size="14.00" fill="#333333">カスタムクエリ</text>
<polygon fill="none" stroke="#000000" points="97,-1144 97,-1174 723,-1174 723,-1144 97,-1144"/>
<text text-anchor="start" x="104" y="-1155.4" font-family="Arial" font-size="14.00" fill="#000000">id </text>
<text text-anchor="start" x="118.7798" y="-1155.4" font-family="Arial" font-size="14.00" fill="#666666">[int(11)]</text>
<polygon fill="none" stroke="#000000" points="97,-1114 97,-1144 723,-1144 723,-1114 97,-1114"/>
<text text-anchor="start" x="104" y="-1125.4" font-family="Arial" font-size="14.00" fill="#000000">project_id </text>
<text text-anchor="start" x="168.568" y="-1125.4" font-family="Arial" font-size="14.00" fill="#666666">[int(11)]</text>
<polygon fill="none" stroke="#000000" points="97,-1084 97,-1114 723,-1114 723,-1084 97,-1084"/>
<text text-anchor="start" x="104" y="-1095.4" font-family="Arial" font-size="14.00" fill="#000000">name </text>
<text text-anchor="start" x="142.899" y="-1095.4" font-family="Arial" font-size="14.00" fill="#666666">[varchar(255)]</text>
<polygon fill="none" stroke="#000000" points="97,-1054 97,-1084 723,-1084 723,-1054 97,-1054"/>
<text text-anchor="start" x="104" y="-1065.4" font-family="Arial" font-size="14.00" fill="#000000">filters </text>
<text text-anchor="start" x="141.3282" y="-1065.4" font-family="Arial" font-size="14.00" fill="#666666">[text]</text>
<polygon fill="none" stroke="#000000" points="97,-1024 97,-1054 723,-1054 723,-1024 97,-1024"/>
<text text-anchor="start" x="104" y="-1035.4" font-family="Arial" font-size="14.00" fill="#000000">user_id </text>
<text text-anchor="start" x="153.7882" y="-1035.4" font-family="Arial" font-size="14.00" fill="#666666">[int(11)]</text>
<polygon fill="none" stroke="#000000" points="97,-994 97,-1024 723,-1024 723,-994 97,-994"/>
<text text-anchor="start" x="104" y="-1005.4" font-family="Arial" font-size="14.00" fill="#000000">column_names </text>
<text text-anchor="start" x="202.7966" y="-1005.4" font-family="Arial" font-size="14.00" fill="#666666">[text]</text>
<polygon fill="none" stroke="#000000" points="97,-964 97,-994 723,-994 723,-964 97,-964"/>
<text text-anchor="start" x="104" y="-975.4" font-family="Arial" font-size="14.00" fill="#000000">sort_criteria </text>
<text text-anchor="start" x="180.9972" y="-975.4" font-family="Arial" font-size="14.00" fill="#666666">[text]</text>
<polygon fill="none" stroke="#000000" points="97,-934 97,-964 723,-964 723,-934 97,-934"/>
<text text-anchor="start" x="104" y="-945.4" font-family="Arial" font-size="14.00" fill="#000000">group_by </text>
<text text-anchor="start" x="166.2468" y="-945.4" font-family="Arial" font-size="14.00" fill="#666666">[varchar(255)]</text>
<polygon fill="none" stroke="#000000" points="97,-904 97,-934 723,-934 723,-904 97,-904"/>
<text text-anchor="start" x="103.6681" y="-915.4" font-family="Arial" font-size="14.00" fill="#000000">type </text>
<text text-anchor="start" x="134.0145" y="-915.4" font-family="Arial" font-size="14.00" fill="#666666">[varchar(255)]</text>
<text text-anchor="start" x="221.1337" y="-915.4" font-family="Arial" font-size="14.00" fill="#000000"> IssueQuery:チケット ProjectQuery:プロジェクト TimeEntryQuery:作業時間 &#160;</text>
<polygon fill="none" stroke="#000000" points="97,-874 97,-904 723,-904 723,-874 97,-874"/>
<text text-anchor="start" x="104" y="-885.4" font-family="Arial" font-size="14.00" fill="#000000">visibility </text>
<text text-anchor="start" x="156.0968" y="-885.4" font-family="Arial" font-size="14.00" fill="#666666">[int(11)]</text>
<polygon fill="none" stroke="#000000" points="97,-844 97,-874 723,-874 723,-844 97,-844"/>
<text text-anchor="start" x="104" y="-855.4" font-family="Arial" font-size="14.00" fill="#000000">options </text>
<text text-anchor="start" x="153.0182" y="-855.4" font-family="Arial" font-size="14.00" fill="#666666">[text]</text>
<polygon fill="none" stroke="#000000" stroke-width="3" points="95.5,-842.5 95.5,-1221.5 724.5,-1221.5 724.5,-842.5 95.5,-842.5"/>
</g>
<!-- projects -->
<g id="node2" class="node">
<title>projects</title>
<polygon fill="#efefef" stroke="transparent" points="305,-598 305,-644 514,-644 514,-598 305,-598"/>
<polygon fill="none" stroke="#000000" points="305,-598 305,-644 514,-644 514,-598 305,-598"/>
<text text-anchor="start" x="329.3695" y="-621.8" font-family="Arial Bold" font-size="18.00" fill="#000000">projects</text>
<text text-anchor="start" x="392.3767" y="-621.8" font-family="Arial" font-size="14.00" fill="#000000"> </text>
<text text-anchor="start" x="396.2673" y="-621.8" font-family="Arial" font-size="14.00" fill="#666666">[BASE TABLE]</text>
<text text-anchor="start" x="367.1269" y="-607.4" font-family="Arial" font-size="14.00" fill="#333333">プロジェクト</text>
<polygon fill="none" stroke="#000000" points="305,-568 305,-598 514,-598 514,-568 305,-568"/>
<text text-anchor="start" x="312" y="-579.4" font-family="Arial" font-size="14.00" fill="#000000">id </text>
<text text-anchor="start" x="326.7798" y="-579.4" font-family="Arial" font-size="14.00" fill="#666666">[int(11)]</text>
<polygon fill="none" stroke="#000000" points="305,-538 305,-568 514,-568 514,-538 305,-538"/>
<text text-anchor="start" x="312" y="-549.4" font-family="Arial" font-size="14.00" fill="#000000">name </text>
<text text-anchor="start" x="350.899" y="-549.4" font-family="Arial" font-size="14.00" fill="#666666">[varchar(255)]</text>
<polygon fill="none" stroke="#000000" points="305,-508 305,-538 514,-538 514,-508 305,-508"/>
<text text-anchor="start" x="312" y="-519.4" font-family="Arial" font-size="14.00" fill="#000000">description </text>
<text text-anchor="start" x="383.568" y="-519.4" font-family="Arial" font-size="14.00" fill="#666666">[text]</text>
<polygon fill="none" stroke="#000000" points="305,-478 305,-508 514,-508 514,-478 305,-478"/>
<text text-anchor="start" x="312" y="-489.4" font-family="Arial" font-size="14.00" fill="#000000">homepage </text>
<text text-anchor="start" x="382.0294" y="-489.4" font-family="Arial" font-size="14.00" fill="#666666">[varchar(255)]</text>
<polygon fill="none" stroke="#000000" points="305,-448 305,-478 514,-478 514,-448 305,-448"/>
<text text-anchor="start" x="312" y="-459.4" font-family="Arial" font-size="14.00" fill="#000000">is_public </text>
<text text-anchor="start" x="370.3408" y="-459.4" font-family="Arial" font-size="14.00" fill="#666666">[tinyint(1)]</text>
<polygon fill="none" stroke="#000000" points="305,-418 305,-448 514,-448 514,-418 305,-418"/>
<text text-anchor="start" x="312" y="-429.4" font-family="Arial" font-size="14.00" fill="#000000">parent_id </text>
<text text-anchor="start" x="374.244" y="-429.4" font-family="Arial" font-size="14.00" fill="#666666">[int(11)]</text>
<polygon fill="none" stroke="#000000" points="305,-388 305,-418 514,-418 514,-388 305,-388"/>
<text text-anchor="start" x="312" y="-399.4" font-family="Arial" font-size="14.00" fill="#000000">created_on </text>
<text text-anchor="start" x="385.92" y="-399.4" font-family="Arial" font-size="14.00" fill="#666666">[timestamp]</text>
<polygon fill="none" stroke="#000000" points="305,-358 305,-388 514,-388 514,-358 305,-358"/>
<text text-anchor="start" x="312" y="-369.4" font-family="Arial" font-size="14.00" fill="#000000">updated_on </text>
<text text-anchor="start" x="389.8246" y="-369.4" font-family="Arial" font-size="14.00" fill="#666666">[timestamp]</text>
<polygon fill="none" stroke="#000000" points="305,-328 305,-358 514,-358 514,-328 305,-328"/>
<text text-anchor="start" x="312" y="-339.4" font-family="Arial" font-size="14.00" fill="#000000">identifier </text>
<text text-anchor="start" x="368.7826" y="-339.4" font-family="Arial" font-size="14.00" fill="#666666">[varchar(255)]</text>
<polygon fill="none" stroke="#000000" points="305,-298 305,-328 514,-328 514,-298 305,-298"/>
<text text-anchor="start" x="312" y="-309.4" font-family="Arial" font-size="14.00" fill="#000000">status </text>
<text text-anchor="start" x="353.237" y="-309.4" font-family="Arial" font-size="14.00" fill="#666666">[int(11)]</text>
<polygon fill="none" stroke="#000000" points="305,-268 305,-298 514,-298 514,-268 305,-268"/>
<text text-anchor="start" x="312" y="-279.4" font-family="Arial" font-size="14.00" fill="#000000">lft </text>
<text text-anchor="start" x="326.7784" y="-279.4" font-family="Arial" font-size="14.00" fill="#666666">[int(11)]</text>
<polygon fill="none" stroke="#000000" points="305,-238 305,-268 514,-268 514,-238 305,-238"/>
<text text-anchor="start" x="312" y="-249.4" font-family="Arial" font-size="14.00" fill="#000000">rgt </text>
<text text-anchor="start" x="332.2244" y="-249.4" font-family="Arial" font-size="14.00" fill="#666666">[int(11)]</text>
<polygon fill="none" stroke="#000000" points="305,-208 305,-238 514,-238 514,-208 305,-208"/>
<text text-anchor="start" x="312" y="-219.4" font-family="Arial" font-size="14.00" fill="#000000">inherit_members </text>
<text text-anchor="start" x="420.115" y="-219.4" font-family="Arial" font-size="14.00" fill="#666666">[tinyint(1)]</text>
<polygon fill="none" stroke="#000000" points="305,-178 305,-208 514,-208 514,-178 305,-178"/>
<text text-anchor="start" x="312" y="-189.4" font-family="Arial" font-size="14.00" fill="#000000">default_version_id </text>
<text text-anchor="start" x="429.4782" y="-189.4" font-family="Arial" font-size="14.00" fill="#666666">[int(11)]</text>
<polygon fill="none" stroke="#000000" points="305,-148 305,-178 514,-178 514,-148 305,-148"/>
<text text-anchor="start" x="311.857" y="-159.4" font-family="Arial" font-size="14.00" fill="#000000">default_assigned_to_id </text>
<text text-anchor="start" x="459.6956" y="-159.4" font-family="Arial" font-size="14.00" fill="#666666">[int(11)]</text>
<polygon fill="none" stroke="#000000" points="305,-118 305,-148 514,-148 514,-118 305,-118"/>
<text text-anchor="start" x="311.8633" y="-129.4" font-family="Arial" font-size="14.00" fill="#000000">default_issue_query_id </text>
<text text-anchor="start" x="459.6893" y="-129.4" font-family="Arial" font-size="14.00" fill="#666666">[int(11)]</text>
</g>
<!-- queries&#45;&gt;projects -->
<g id="edge3" class="edge">
<title>queries:project_id&#45;&gt;projects:id</title>
<path fill="none" stroke="#000000" stroke-dasharray="5,2" d="M86.9468,-1127.1063C26.2885,-1102.882 54.363,-853.4711 97,-798 213.8776,-645.9413 397.1224,-839.0587 514,-687 542.1685,-650.3526 560.2222,-583 514,-583"/>
<polygon fill="#000000" stroke="#000000" points="87.1728,-1127.1488 96.167,-1133.4222 92.0864,-1128.0744 97,-1129 97,-1129 97,-1129 92.0864,-1128.0744 97.833,-1124.5778 87.1728,-1127.1488 87.1728,-1127.1488"/>
<text text-anchor="start" x="7.3245" y="-1139" font-family="Arial" font-size="10.00" fill="#000000">Additional Relation</text>
</g>
<!-- users -->
<g id="node4" class="node">
<title>users</title>
<polygon fill="#efefef" stroke="transparent" points="618,-673 618,-719 1100,-719 1100,-673 618,-673"/>
<polygon fill="none" stroke="#000000" points="618,-673 618,-719 1100,-719 1100,-673 618,-673"/>
<text text-anchor="start" x="788.3708" y="-696.8" font-family="Arial Bold" font-size="18.00" fill="#000000">users</text>
<text text-anchor="start" x="832.3754" y="-696.8" font-family="Arial" font-size="14.00" fill="#000000"> </text>
<text text-anchor="start" x="836.266" y="-696.8" font-family="Arial" font-size="14.00" fill="#666666">[BASE TABLE]</text>
<text text-anchor="start" x="780.4558" y="-682.4" font-family="Arial" font-size="14.00" fill="#333333">ユーザー / グループ</text>
<polygon fill="none" stroke="#000000" points="618,-643 618,-673 1100,-673 1100,-643 618,-643"/>
<text text-anchor="start" x="625" y="-654.4" font-family="Arial" font-size="14.00" fill="#000000">id </text>
<text text-anchor="start" x="639.7798" y="-654.4" font-family="Arial" font-size="14.00" fill="#666666">[int(11)]</text>
<polygon fill="none" stroke="#000000" points="618,-613 618,-643 1100,-643 1100,-613 618,-613"/>
<text text-anchor="start" x="625" y="-624.4" font-family="Arial" font-size="14.00" fill="#000000">login </text>
<text text-anchor="start" x="658.4516" y="-624.4" font-family="Arial" font-size="14.00" fill="#666666">[varchar(255)]</text>
<text text-anchor="start" x="745.5708" y="-624.4" font-family="Arial" font-size="14.00" fill="#000000"> ログインID</text>
<polygon fill="none" stroke="#000000" points="618,-583 618,-613 1100,-613 1100,-583 618,-583"/>
<text text-anchor="start" x="625" y="-594.4" font-family="Arial" font-size="14.00" fill="#000000">hashed_password </text>
<text text-anchor="start" x="742.4838" y="-594.4" font-family="Arial" font-size="14.00" fill="#666666">[varchar(40)]</text>
<text text-anchor="start" x="821.8204" y="-594.4" font-family="Arial" font-size="14.00" fill="#000000"> パスワード(ハッシュ化済み)</text>
<polygon fill="none" stroke="#000000" points="618,-553 618,-583 1100,-583 1100,-553 618,-553"/>
<text text-anchor="start" x="625" y="-564.4" font-family="Arial" font-size="14.00" fill="#000000">firstname </text>
<text text-anchor="start" x="686.4474" y="-564.4" font-family="Arial" font-size="14.00" fill="#666666">[varchar(30)]</text>
<text text-anchor="start" x="765.784" y="-564.4" font-family="Arial" font-size="14.00" fill="#000000"> 名</text>
<polygon fill="none" stroke="#000000" points="618,-523 618,-553 1100,-553 1100,-523 618,-523"/>
<text text-anchor="start" x="625" y="-534.4" font-family="Arial" font-size="14.00" fill="#000000">lastname </text>
<text text-anchor="start" x="685.6788" y="-534.4" font-family="Arial" font-size="14.00" fill="#666666">[varchar(255)]</text>
<text text-anchor="start" x="772.798" y="-534.4" font-family="Arial" font-size="14.00" fill="#000000"> 姓</text>
<polygon fill="none" stroke="#000000" points="618,-493 618,-523 1100,-523 1100,-493 618,-493"/>
<text text-anchor="start" x="625" y="-504.4" font-family="Arial" font-size="14.00" fill="#000000">admin </text>
<text text-anchor="start" x="667.0056" y="-504.4" font-family="Arial" font-size="14.00" fill="#666666">[tinyint(1)]</text>
<text text-anchor="start" x="728.4502" y="-504.4" font-family="Arial" font-size="14.00" fill="#000000"> システム管理者</text>
<polygon fill="none" stroke="#000000" points="618,-463 618,-493 1100,-493 1100,-463 618,-463"/>
<text text-anchor="start" x="625" y="-474.4" font-family="Arial" font-size="14.00" fill="#000000">status </text>
<text text-anchor="start" x="666.237" y="-474.4" font-family="Arial" font-size="14.00" fill="#666666">[int(11)]</text>
<polygon fill="none" stroke="#000000" points="618,-433 618,-463 1100,-463 1100,-433 618,-433"/>
<text text-anchor="start" x="625" y="-444.4" font-family="Arial" font-size="14.00" fill="#000000">last_login_on </text>
<text text-anchor="start" x="711.3618" y="-444.4" font-family="Arial" font-size="14.00" fill="#666666">[datetime]</text>
<polygon fill="none" stroke="#000000" points="618,-403 618,-433 1100,-433 1100,-403 618,-403"/>
<text text-anchor="start" x="625" y="-414.4" font-family="Arial" font-size="14.00" fill="#000000">language </text>
<text text-anchor="start" x="686.4754" y="-414.4" font-family="Arial" font-size="14.00" fill="#666666">[varchar(5)]</text>
<text text-anchor="start" x="758.0294" y="-414.4" font-family="Arial" font-size="14.00" fill="#000000"> 言語</text>
<polygon fill="none" stroke="#000000" points="618,-373 618,-403 1100,-403 1100,-373 618,-373"/>
<text text-anchor="start" x="625" y="-384.4" font-family="Arial" font-size="14.00" fill="#000000">auth_source_id </text>
<text text-anchor="start" x="724.5918" y="-384.4" font-family="Arial" font-size="14.00" fill="#666666">[int(11)]</text>
<polygon fill="none" stroke="#000000" points="618,-343 618,-373 1100,-373 1100,-343 618,-343"/>
<text text-anchor="start" x="625" y="-354.4" font-family="Arial" font-size="14.00" fill="#000000">created_on </text>
<text text-anchor="start" x="698.92" y="-354.4" font-family="Arial" font-size="14.00" fill="#666666">[timestamp]</text>
<polygon fill="none" stroke="#000000" points="618,-313 618,-343 1100,-343 1100,-313 618,-313"/>
<text text-anchor="start" x="625" y="-324.4" font-family="Arial" font-size="14.00" fill="#000000">updated_on </text>
<text text-anchor="start" x="702.8246" y="-324.4" font-family="Arial" font-size="14.00" fill="#666666">[timestamp]</text>
<polygon fill="none" stroke="#000000" points="618,-283 618,-313 1100,-313 1100,-283 618,-283"/>
<text text-anchor="start" x="625" y="-294.4" font-family="Arial" font-size="14.00" fill="#000000">type </text>
<text text-anchor="start" x="655.3464" y="-294.4" font-family="Arial" font-size="14.00" fill="#666666">[varchar(255)]</text>
<text text-anchor="start" x="742.4656" y="-294.4" font-family="Arial" font-size="14.00" fill="#000000"> User:ユーザー Group:グループ </text>
<polygon fill="none" stroke="#000000" points="618,-253 618,-283 1100,-283 1100,-253 618,-253"/>
<text text-anchor="start" x="625" y="-264.4" font-family="Arial" font-size="14.00" fill="#000000">mail_notification </text>
<text text-anchor="start" x="729.2342" y="-264.4" font-family="Arial" font-size="14.00" fill="#666666">[varchar(255)]</text>
<text text-anchor="start" x="816.3534" y="-264.4" font-family="Arial" font-size="14.00" fill="#000000"> メール通知</text>
<polygon fill="none" stroke="#000000" points="618,-223 618,-253 1100,-253 1100,-223 618,-223"/>
<text text-anchor="start" x="625" y="-234.4" font-family="Arial" font-size="14.00" fill="#000000">salt </text>
<text text-anchor="start" x="650.6704" y="-234.4" font-family="Arial" font-size="14.00" fill="#666666">[varchar(64)]</text>
<polygon fill="none" stroke="#000000" points="618,-193 618,-223 1100,-223 1100,-193 618,-193"/>
<text text-anchor="start" x="624.7646" y="-204.4" font-family="Arial" font-size="14.00" fill="#000000">must_change_passwd </text>
<text text-anchor="start" x="767.9216" y="-204.4" font-family="Arial" font-size="14.00" fill="#666666">[tinyint(1)]</text>
<text text-anchor="start" x="829.3662" y="-204.4" font-family="Arial" font-size="14.00" fill="#000000"> 次回ログイン時にパスワード変更を強制</text>
<polygon fill="none" stroke="#000000" points="618,-163 618,-193 1100,-193 1100,-163 618,-163"/>
<text text-anchor="start" x="625" y="-174.4" font-family="Arial" font-size="14.00" fill="#000000">passwd_changed_on </text>
<text text-anchor="start" x="761.171" y="-174.4" font-family="Arial" font-size="14.00" fill="#666666">[datetime]</text>
<polygon fill="none" stroke="#000000" points="618,-133 618,-163 1100,-163 1100,-133 618,-133"/>
<text text-anchor="start" x="625" y="-144.4" font-family="Arial" font-size="14.00" fill="#000000">twofa_scheme </text>
<text text-anchor="start" x="719.1346" y="-144.4" font-family="Arial" font-size="14.00" fill="#666666">[varchar(255)]</text>
<polygon fill="none" stroke="#000000" points="618,-103 618,-133 1100,-133 1100,-103 618,-103"/>
<text text-anchor="start" x="625" y="-114.4" font-family="Arial" font-size="14.00" fill="#000000">twofa_totp_key </text>
<text text-anchor="start" x="723.0378" y="-114.4" font-family="Arial" font-size="14.00" fill="#666666">[varchar(255)]</text>
<polygon fill="none" stroke="#000000" points="618,-73 618,-103 1100,-103 1100,-73 618,-73"/>
<text text-anchor="start" x="625" y="-84.4" font-family="Arial" font-size="14.00" fill="#000000">twofa_totp_last_used_at </text>
<text text-anchor="start" x="780.6212" y="-84.4" font-family="Arial" font-size="14.00" fill="#666666">[int(11)]</text>
<polygon fill="none" stroke="#000000" points="618,-43 618,-73 1100,-73 1100,-43 618,-43"/>
<text text-anchor="start" x="625" y="-54.4" font-family="Arial" font-size="14.00" fill="#000000">twofa_required </text>
<text text-anchor="start" x="721.467" y="-54.4" font-family="Arial" font-size="14.00" fill="#666666">[tinyint(1)]</text>
</g>
<!-- queries&#45;&gt;users -->
<g id="edge4" class="edge">
<title>queries:user_id&#45;&gt;users:id</title>
<path fill="none" stroke="#000000" stroke-dasharray="5,2" d="M733.1716,-1038.4993C827.1133,-1028.8576 783.1899,-882.2659 723,-798 694.3256,-757.8558 646.6744,-802.1442 618,-762 591.1339,-724.3874 571.7778,-658 618,-658"/>
<polygon fill="#000000" stroke="#000000" points="732.9879,-1038.5082 722.7787,-1034.5054 727.994,-1038.7541 723,-1039 723,-1039 723,-1039 727.994,-1038.7541 723.2213,-1043.4946 732.9879,-1038.5082 732.9879,-1038.5082"/>
<text text-anchor="start" x="730.268" y="-1049" font-family="Arial" font-size="10.00" fill="#000000">Detected Relation</text>
</g>
<!-- projects&#45;&gt;queries -->
<g id="edge1" class="edge">
<title>projects:default_issue_query_id&#45;&gt;queries:id</title>
<path fill="none" stroke="#000000" stroke-dasharray="5,2" d="M523.3428,-137.3754C572.8856,-186.8908 549.4613,-640.8645 514,-687 397.1224,-839.0587 213.8776,-645.9413 97,-798 48.1115,-861.6044 16.7778,-1159 97,-1159"/>
<polygon fill="#000000" stroke="#000000" points="523.0561,-137.2412 515.9086,-128.9248 518.528,-135.1206 514,-133 514,-133 514,-133 518.528,-135.1206 512.0914,-137.0752 523.0561,-137.2412 523.0561,-137.2412"/>
<text text-anchor="start" x="521.3245" y="-143" font-family="Arial" font-size="10.00" fill="#000000">Additional Relation</text>
</g>
<!-- queries_roles -->
<g id="node3" class="node">
<title>queries_roles</title>
<polygon fill="#efefef" stroke="transparent" points="300,-1405 300,-1451 519,-1451 519,-1405 300,-1405"/>
<polygon fill="none" stroke="#000000" points="300,-1405 300,-1451 519,-1451 519,-1405 300,-1405"/>
<text text-anchor="start" x="306.865" y="-1428.8" font-family="Arial Bold" font-size="18.00" fill="#000000">queries_roles</text>
<text text-anchor="start" x="414.8812" y="-1428.8" font-family="Arial" font-size="14.00" fill="#000000"> </text>
<text text-anchor="start" x="418.7718" y="-1428.8" font-family="Arial" font-size="14.00" fill="#666666">[BASE TABLE]</text>
<text text-anchor="start" x="322.9317" y="-1414.4" font-family="Arial" font-size="14.00" fill="#333333">カスタムクエリ⇔ロール</text>
<polygon fill="none" stroke="#000000" points="300,-1375 300,-1405 519,-1405 519,-1375 300,-1375"/>
<text text-anchor="start" x="307" y="-1386.4" font-family="Arial" font-size="14.00" fill="#000000">query_id </text>
<text text-anchor="start" x="364.5708" y="-1386.4" font-family="Arial" font-size="14.00" fill="#666666">[int(11)]</text>
<polygon fill="none" stroke="#000000" points="300,-1345 300,-1375 519,-1375 519,-1345 300,-1345"/>
<text text-anchor="start" x="307" y="-1356.4" font-family="Arial" font-size="14.00" fill="#000000">role_id </text>
<text text-anchor="start" x="352.8948" y="-1356.4" font-family="Arial" font-size="14.00" fill="#666666">[int(11)]</text>
</g>
<!-- queries_roles&#45;&gt;queries -->
<g id="edge2" class="edge">
<title>queries_roles:query_id&#45;&gt;queries:id</title>
<path fill="none" stroke="#000000" stroke-dasharray="5,2" d="M529.0126,-1388.3899C555.5075,-1378.7287 542.8708,-1327.9939 519,-1302 455.3395,-1232.6775 160.6605,-1335.3225 97,-1266 64.834,-1230.9732 49.4444,-1159 97,-1159"/>
<polygon fill="#000000" stroke="#000000" points="528.8732,-1388.4122 518.2855,-1385.5571 523.9366,-1389.2061 519,-1390 519,-1390 519,-1390 523.9366,-1389.2061 519.7145,-1394.4429 528.8732,-1388.4122 528.8732,-1388.4122"/>
<text text-anchor="start" x="526.3245" y="-1400" font-family="Arial" font-size="10.00" fill="#000000">Additional Relation</text>
</g>
</g>
</svg>
