<?xml version="1.0" encoding="UTF-8" standalone="no"?>
<!DOCTYPE svg PUBLIC "-//W3C//DTD SVG 1.1//EN"
 "http://www.w3.org/Graphics/SVG/1.1/DTD/svg11.dtd">
<!-- Generated by graphviz version 2.40.1 (20161225.0304)
 -->
<!-- Title: queries Pages: 1 -->
<svg width="923pt" height="1502pt"
 viewBox="0.00 0.00 923.00 1502.00" xmlns="http://www.w3.org/2000/svg" xmlns:xlink="http://www.w3.org/1999/xlink">
<g id="graph0" class="graph" transform="scale(1 1) rotate(0) translate(4 1498)">
<title>queries</title>
<polygon fill="#ffffff" stroke="transparent" points="-4,4 -4,-1498 919,-1498 919,4 -4,4"/>
<!-- queries -->
<g id="node1" class="node">
<title>queries</title>
<polygon fill="#efefef" stroke="transparent" points="97,-1174 97,-1220 267,-1220 267,-1174 97,-1174"/>
<polygon fill="none" stroke="#000000" points="97,-1174 97,-1220 267,-1220 267,-1174 97,-1174"/>
<text text-anchor="start" x="103.8675" y="-1197.8" font-family="Arial Bold" font-size="18.00" fill="#000000">queries</text>
<text text-anchor="start" x="162.8787" y="-1197.8" font-family="Arial" font-size="14.00" fill="#000000"> </text>
<text text-anchor="start" x="166.7693" y="-1197.8" font-family="Arial" font-size="14.00" fill="#666666">[BASE TABLE]</text>
<text text-anchor="start" x="128.093" y="-1183.4" font-family="Arial" font-size="14.00" fill="#333333">カスタムクエリ</text>
<polygon fill="none" stroke="#000000" points="97,-1144 97,-1174 267,-1174 267,-1144 97,-1144"/>
<text text-anchor="start" x="104" y="-1155.4" font-family="Arial" font-size="14.00" fill="#000000">id </text>
<text text-anchor="start" x="118.7798" y="-1155.4" font-family="Arial" font-size="14.00" fill="#666666">[int(11)]</text>
<polygon fill="none" stroke="#000000" points="97,-1114 97,-1144 267,-1144 267,-1114 97,-1114"/>
<text text-anchor="start" x="104" y="-1125.4" font-family="Arial" font-size="14.00" fill="#000000">project_id </text>
<text text-anchor="start" x="168.568" y="-1125.4" font-family="Arial" font-size="14.00" fill="#666666">[int(11)]</text>
<polygon fill="none" stroke="#000000" points="97,-1084 97,-1114 267,-1114 267,-1084 97,-1084"/>
<text text-anchor="start" x="104" y="-1095.4" font-family="Arial" font-size="14.00" fill="#000000">name </text>
<text text-anchor="start" x="142.899" y="-1095.4" font-family="Arial" font-size="14.00" fill="#666666">[varchar(255)]</text>
<polygon fill="none" stroke="#000000" points="97,-1054 97,-1084 267,-1084 267,-1054 97,-1054"/>
<text text-anchor="start" x="104" y="-1065.4" font-family="Arial" font-size="14.00" fill="#000000">filters </text>
<text text-anchor="start" x="141.3282" y="-1065.4" font-family="Arial" font-size="14.00" fill="#666666">[text]</text>
<polygon fill="none" stroke="#000000" points="97,-1024 97,-1054 267,-1054 267,-1024 97,-1024"/>
<text text-anchor="start" x="104" y="-1035.4" font-family="Arial" font-size="14.00" fill="#000000">user_id </text>
<text text-anchor="start" x="153.7882" y="-1035.4" font-family="Arial" font-size="14.00" fill="#666666">[int(11)]</text>
<polygon fill="none" stroke="#000000" points="97,-994 97,-1024 267,-1024 267,-994 97,-994"/>
<text text-anchor="start" x="104" y="-1005.4" font-family="Arial" font-size="14.00" fill="#000000">column_names </text>
<text text-anchor="start" x="202.7966" y="-1005.4" font-family="Arial" font-size="14.00" fill="#666666">[text]</text>
<polygon fill="none" stroke="#000000" points="97,-964 97,-994 267,-994 267,-964 97,-964"/>
<text text-anchor="start" x="104" y="-975.4" font-family="Arial" font-size="14.00" fill="#000000">sort_criteria </text>
<text text-anchor="start" x="180.9972" y="-975.4" font-family="Arial" font-size="14.00" fill="#666666">[text]</text>
<polygon fill="none" stroke="#000000" points="97,-934 97,-964 267,-964 267,-934 97,-934"/>
<text text-anchor="start" x="104" y="-945.4" font-family="Arial" font-size="14.00" fill="#000000">group_by </text>
<text text-anchor="start" x="166.2468" y="-945.4" font-family="Arial" font-size="14.00" fill="#666666">[varchar(255)]</text>
<polygon fill="none" stroke="#000000" points="97,-904 97,-934 267,-934 267,-904 97,-904"/>
<text text-anchor="start" x="104" y="-915.4" font-family="Arial" font-size="14.00" fill="#000000">type </text>
<text text-anchor="start" x="134.3464" y="-915.4" font-family="Arial" font-size="14.00" fill="#666666">[varchar(255)]</text>
<polygon fill="none" stroke="#000000" points="97,-874 97,-904 267,-904 267,-874 97,-874"/>
<text text-anchor="start" x="104" y="-885.4" font-family="Arial" font-size="14.00" fill="#000000">visibility </text>
<text text-anchor="start" x="156.0968" y="-885.4" font-family="Arial" font-size="14.00" fill="#666666">[int(11)]</text>
<polygon fill="none" stroke="#000000" points="97,-844 97,-874 267,-874 267,-844 97,-844"/>
<text text-anchor="start" x="104" y="-855.4" font-family="Arial" font-size="14.00" fill="#000000">options </text>
<text text-anchor="start" x="153.0182" y="-855.4" font-family="Arial" font-size="14.00" fill="#666666">[text]</text>
<polygon fill="none" stroke="#000000" stroke-width="3" points="95.5,-842.5 95.5,-1221.5 268.5,-1221.5 268.5,-842.5 95.5,-842.5"/>
</g>
<!-- projects -->
<g id="node2" class="node">
<title>projects</title>
<polygon fill="#efefef" stroke="transparent" points="77,-598 77,-644 286,-644 286,-598 77,-598"/>
<polygon fill="none" stroke="#000000" points="77,-598 77,-644 286,-644 286,-598 77,-598"/>
<text text-anchor="start" x="101.3695" y="-621.8" font-family="Arial Bold" font-size="18.00" fill="#000000">projects</text>
<text text-anchor="start" x="164.3767" y="-621.8" font-family="Arial" font-size="14.00" fill="#000000"> </text>
<text text-anchor="start" x="168.2673" y="-621.8" font-family="Arial" font-size="14.00" fill="#666666">[BASE TABLE]</text>
<text text-anchor="start" x="139.1269" y="-607.4" font-family="Arial" font-size="14.00" fill="#333333">プロジェクト</text>
<polygon fill="none" stroke="#000000" points="77,-568 77,-598 286,-598 286,-568 77,-568"/>
<text text-anchor="start" x="84" y="-579.4" font-family="Arial" font-size="14.00" fill="#000000">id </text>
<text text-anchor="start" x="98.7798" y="-579.4" font-family="Arial" font-size="14.00" fill="#666666">[int(11)]</text>
<polygon fill="none" stroke="#000000" points="77,-538 77,-568 286,-568 286,-538 77,-538"/>
<text text-anchor="start" x="84" y="-549.4" font-family="Arial" font-size="14.00" fill="#000000">name </text>
<text text-anchor="start" x="122.899" y="-549.4" font-family="Arial" font-size="14.00" fill="#666666">[varchar(255)]</text>
<polygon fill="none" stroke="#000000" points="77,-508 77,-538 286,-538 286,-508 77,-508"/>
<text text-anchor="start" x="84" y="-519.4" font-family="Arial" font-size="14.00" fill="#000000">description </text>
<text text-anchor="start" x="155.568" y="-519.4" font-family="Arial" font-size="14.00" fill="#666666">[text]</text>
<polygon fill="none" stroke="#000000" points="77,-478 77,-508 286,-508 286,-478 77,-478"/>
<text text-anchor="start" x="84" y="-489.4" font-family="Arial" font-size="14.00" fill="#000000">homepage </text>
<text text-anchor="start" x="154.0294" y="-489.4" font-family="Arial" font-size="14.00" fill="#666666">[varchar(255)]</text>
<polygon fill="none" stroke="#000000" points="77,-448 77,-478 286,-478 286,-448 77,-448"/>
<text text-anchor="start" x="84" y="-459.4" font-family="Arial" font-size="14.00" fill="#000000">is_public </text>
<text text-anchor="start" x="142.3408" y="-459.4" font-family="Arial" font-size="14.00" fill="#666666">[tinyint(1)]</text>
<polygon fill="none" stroke="#000000" points="77,-418 77,-448 286,-448 286,-418 77,-418"/>
<text text-anchor="start" x="84" y="-429.4" font-family="Arial" font-size="14.00" fill="#000000">parent_id </text>
<text text-anchor="start" x="146.244" y="-429.4" font-family="Arial" font-size="14.00" fill="#666666">[int(11)]</text>
<polygon fill="none" stroke="#000000" points="77,-388 77,-418 286,-418 286,-388 77,-388"/>
<text text-anchor="start" x="84" y="-399.4" font-family="Arial" font-size="14.00" fill="#000000">created_on </text>
<text text-anchor="start" x="157.92" y="-399.4" font-family="Arial" font-size="14.00" fill="#666666">[timestamp]</text>
<polygon fill="none" stroke="#000000" points="77,-358 77,-388 286,-388 286,-358 77,-358"/>
<text text-anchor="start" x="84" y="-369.4" font-family="Arial" font-size="14.00" fill="#000000">updated_on </text>
<text text-anchor="start" x="161.8246" y="-369.4" font-family="Arial" font-size="14.00" fill="#666666">[timestamp]</text>
<polygon fill="none" stroke="#000000" points="77,-328 77,-358 286,-358 286,-328 77,-328"/>
<text text-anchor="start" x="84" y="-339.4" font-family="Arial" font-size="14.00" fill="#000000">identifier </text>
<text text-anchor="start" x="140.7826" y="-339.4" font-family="Arial" font-size="14.00" fill="#666666">[varchar(255)]</text>
<polygon fill="none" stroke="#000000" points="77,-298 77,-328 286,-328 286,-298 77,-298"/>
<text text-anchor="start" x="84" y="-309.4" font-family="Arial" font-size="14.00" fill="#000000">status </text>
<text text-anchor="start" x="125.237" y="-309.4" font-family="Arial" font-size="14.00" fill="#666666">[int(11)]</text>
<polygon fill="none" stroke="#000000" points="77,-268 77,-298 286,-298 286,-268 77,-268"/>
<text text-anchor="start" x="84" y="-279.4" font-family="Arial" font-size="14.00" fill="#000000">lft </text>
<text text-anchor="start" x="98.7784" y="-279.4" font-family="Arial" font-size="14.00" fill="#666666">[int(11)]</text>
<polygon fill="none" stroke="#000000" points="77,-238 77,-268 286,-268 286,-238 77,-238"/>
<text text-anchor="start" x="84" y="-249.4" font-family="Arial" font-size="14.00" fill="#000000">rgt </text>
<text text-anchor="start" x="104.2244" y="-249.4" font-family="Arial" font-size="14.00" fill="#666666">[int(11)]</text>
<polygon fill="none" stroke="#000000" points="77,-208 77,-238 286,-238 286,-208 77,-208"/>
<text text-anchor="start" x="84" y="-219.4" font-family="Arial" font-size="14.00" fill="#000000">inherit_members </text>
<text text-anchor="start" x="192.115" y="-219.4" font-family="Arial" font-size="14.00" fill="#666666">[tinyint(1)]</text>
<polygon fill="none" stroke="#000000" points="77,-178 77,-208 286,-208 286,-178 77,-178"/>
<text text-anchor="start" x="84" y="-189.4" font-family="Arial" font-size="14.00" fill="#000000">default_version_id </text>
<text text-anchor="start" x="201.4782" y="-189.4" font-family="Arial" font-size="14.00" fill="#666666">[int(11)]</text>
<polygon fill="none" stroke="#000000" points="77,-148 77,-178 286,-178 286,-148 77,-148"/>
<text text-anchor="start" x="83.857" y="-159.4" font-family="Arial" font-size="14.00" fill="#000000">default_assigned_to_id </text>
<text text-anchor="start" x="231.6956" y="-159.4" font-family="Arial" font-size="14.00" fill="#666666">[int(11)]</text>
<polygon fill="none" stroke="#000000" points="77,-118 77,-148 286,-148 286,-118 77,-118"/>
<text text-anchor="start" x="83.8633" y="-129.4" font-family="Arial" font-size="14.00" fill="#000000">default_issue_query_id </text>
<text text-anchor="start" x="231.6893" y="-129.4" font-family="Arial" font-size="14.00" fill="#666666">[int(11)]</text>
</g>
<!-- queries&#45;&gt;projects -->
<g id="edge3" class="edge">
<title>queries:project_id&#45;&gt;projects:id</title>
<path fill="none" stroke="#000000" stroke-dasharray="5,2" d="M86.6175,-1128.6405C-46.497,-1119.1171 25.7026,-922.5573 97,-798 145.3939,-713.4553 237.6061,-771.5447 286,-687 308.9622,-646.8848 332.2222,-583 286,-583"/>
<polygon fill="#000000" stroke="#000000" points="87.006,-1128.6538 96.8442,-1133.4973 92.003,-1128.8269 97,-1129 97,-1129 97,-1129 92.003,-1128.8269 97.1558,-1124.5027 87.006,-1128.6538 87.006,-1128.6538"/>
<text text-anchor="start" x="7.3245" y="-1139" font-family="Arial" font-size="10.00" fill="#000000">Additional Relation</text>
</g>
<!-- users -->
<g id="node4" class="node">
<title>users</title>
<polygon fill="#efefef" stroke="transparent" points="390,-673 390,-719 872,-719 872,-673 390,-673"/>
<polygon fill="none" stroke="#000000" points="390,-673 390,-719 872,-719 872,-673 390,-673"/>
<text text-anchor="start" x="560.3708" y="-696.8" font-family="Arial Bold" font-size="18.00" fill="#000000">users</text>
<text text-anchor="start" x="604.3754" y="-696.8" font-family="Arial" font-size="14.00" fill="#000000"> </text>
<text text-anchor="start" x="608.266" y="-696.8" font-family="Arial" font-size="14.00" fill="#666666">[BASE TABLE]</text>
<text text-anchor="start" x="552.4558" y="-682.4" font-family="Arial" font-size="14.00" fill="#333333">ユーザー / グループ</text>
<polygon fill="none" stroke="#000000" points="390,-643 390,-673 872,-673 872,-643 390,-643"/>
<text text-anchor="start" x="397" y="-654.4" font-family="Arial" font-size="14.00" fill="#000000">id </text>
<text text-anchor="start" x="411.7798" y="-654.4" font-family="Arial" font-size="14.00" fill="#666666">[int(11)]</text>
<polygon fill="none" stroke="#000000" points="390,-613 390,-643 872,-643 872,-613 390,-613"/>
<text text-anchor="start" x="397" y="-624.4" font-family="Arial" font-size="14.00" fill="#000000">login </text>
<text text-anchor="start" x="430.4516" y="-624.4" font-family="Arial" font-size="14.00" fill="#666666">[varchar(255)]</text>
<text text-anchor="start" x="517.5708" y="-624.4" font-family="Arial" font-size="14.00" fill="#000000"> ログインID</text>
<polygon fill="none" stroke="#000000" points="390,-583 390,-613 872,-613 872,-583 390,-583"/>
<text text-anchor="start" x="397" y="-594.4" font-family="Arial" font-size="14.00" fill="#000000">hashed_password </text>
<text text-anchor="start" x="514.4838" y="-594.4" font-family="Arial" font-size="14.00" fill="#666666">[varchar(40)]</text>
<text text-anchor="start" x="593.8204" y="-594.4" font-family="Arial" font-size="14.00" fill="#000000"> パスワード(ハッシュ化済み)</text>
<polygon fill="none" stroke="#000000" points="390,-553 390,-583 872,-583 872,-553 390,-553"/>
<text text-anchor="start" x="397" y="-564.4" font-family="Arial" font-size="14.00" fill="#000000">firstname </text>
<text text-anchor="start" x="458.4474" y="-564.4" font-family="Arial" font-size="14.00" fill="#666666">[varchar(30)]</text>
<text text-anchor="start" x="537.784" y="-564.4" font-family="Arial" font-size="14.00" fill="#000000"> 名</text>
<polygon fill="none" stroke="#000000" points="390,-523 390,-553 872,-553 872,-523 390,-523"/>
<text text-anchor="start" x="397" y="-534.4" font-family="Arial" font-size="14.00" fill="#000000">lastname </text>
<text text-anchor="start" x="457.6788" y="-534.4" font-family="Arial" font-size="14.00" fill="#666666">[varchar(255)]</text>
<text text-anchor="start" x="544.798" y="-534.4" font-family="Arial" font-size="14.00" fill="#000000"> 姓</text>
<polygon fill="none" stroke="#000000" points="390,-493 390,-523 872,-523 872,-493 390,-493"/>
<text text-anchor="start" x="397" y="-504.4" font-family="Arial" font-size="14.00" fill="#000000">admin </text>
<text text-anchor="start" x="439.0056" y="-504.4" font-family="Arial" font-size="14.00" fill="#666666">[tinyint(1)]</text>
<text text-anchor="start" x="500.4502" y="-504.4" font-family="Arial" font-size="14.00" fill="#000000"> システム管理者</text>
<polygon fill="none" stroke="#000000" points="390,-463 390,-493 872,-493 872,-463 390,-463"/>
<text text-anchor="start" x="397" y="-474.4" font-family="Arial" font-size="14.00" fill="#000000">status </text>
<text text-anchor="start" x="438.237" y="-474.4" font-family="Arial" font-size="14.00" fill="#666666">[int(11)]</text>
<polygon fill="none" stroke="#000000" points="390,-433 390,-463 872,-463 872,-433 390,-433"/>
<text text-anchor="start" x="397" y="-444.4" font-family="Arial" font-size="14.00" fill="#000000">last_login_on </text>
<text text-anchor="start" x="483.3618" y="-444.4" font-family="Arial" font-size="14.00" fill="#666666">[datetime]</text>
<polygon fill="none" stroke="#000000" points="390,-403 390,-433 872,-433 872,-403 390,-403"/>
<text text-anchor="start" x="397" y="-414.4" font-family="Arial" font-size="14.00" fill="#000000">language </text>
<text text-anchor="start" x="458.4754" y="-414.4" font-family="Arial" font-size="14.00" fill="#666666">[varchar(5)]</text>
<text text-anchor="start" x="530.0294" y="-414.4" font-family="Arial" font-size="14.00" fill="#000000"> 言語</text>
<polygon fill="none" stroke="#000000" points="390,-373 390,-403 872,-403 872,-373 390,-373"/>
<text text-anchor="start" x="397" y="-384.4" font-family="Arial" font-size="14.00" fill="#000000">auth_source_id </text>
<text text-anchor="start" x="496.5918" y="-384.4" font-family="Arial" font-size="14.00" fill="#666666">[int(11)]</text>
<polygon fill="none" stroke="#000000" points="390,-343 390,-373 872,-373 872,-343 390,-343"/>
<text text-anchor="start" x="397" y="-354.4" font-family="Arial" font-size="14.00" fill="#000000">created_on </text>
<text text-anchor="start" x="470.92" y="-354.4" font-family="Arial" font-size="14.00" fill="#666666">[timestamp]</text>
<polygon fill="none" stroke="#000000" points="390,-313 390,-343 872,-343 872,-313 390,-313"/>
<text text-anchor="start" x="397" y="-324.4" font-family="Arial" font-size="14.00" fill="#000000">updated_on </text>
<text text-anchor="start" x="474.8246" y="-324.4" font-family="Arial" font-size="14.00" fill="#666666">[timestamp]</text>
<polygon fill="none" stroke="#000000" points="390,-283 390,-313 872,-313 872,-283 390,-283"/>
<text text-anchor="start" x="397" y="-294.4" font-family="Arial" font-size="14.00" fill="#000000">type </text>
<text text-anchor="start" x="427.3464" y="-294.4" font-family="Arial" font-size="14.00" fill="#666666">[varchar(255)]</text>
<text text-anchor="start" x="514.4656" y="-294.4" font-family="Arial" font-size="14.00" fill="#000000"> User:ユーザー Group:グループ </text>
<polygon fill="none" stroke="#000000" points="390,-253 390,-283 872,-283 872,-253 390,-253"/>
<text text-anchor="start" x="397" y="-264.4" font-family="Arial" font-size="14.00" fill="#000000">mail_notification </text>
<text text-anchor="start" x="501.2342" y="-264.4" font-family="Arial" font-size="14.00" fill="#666666">[varchar(255)]</text>
<text text-anchor="start" x="588.3534" y="-264.4" font-family="Arial" font-size="14.00" fill="#000000"> メール通知</text>
<polygon fill="none" stroke="#000000" points="390,-223 390,-253 872,-253 872,-223 390,-223"/>
<text text-anchor="start" x="397" y="-234.4" font-family="Arial" font-size="14.00" fill="#000000">salt </text>
<text text-anchor="start" x="422.6704" y="-234.4" font-family="Arial" font-size="14.00" fill="#666666">[varchar(64)]</text>
<polygon fill="none" stroke="#000000" points="390,-193 390,-223 872,-223 872,-193 390,-193"/>
<text text-anchor="start" x="396.7646" y="-204.4" font-family="Arial" font-size="14.00" fill="#000000">must_change_passwd </text>
<text text-anchor="start" x="539.9216" y="-204.4" font-family="Arial" font-size="14.00" fill="#666666">[tinyint(1)]</text>
<text text-anchor="start" x="601.3662" y="-204.4" font-family="Arial" font-size="14.00" fill="#000000"> 次回ログイン時にパスワード変更を強制</text>
<polygon fill="none" stroke="#000000" points="390,-163 390,-193 872,-193 872,-163 390,-163"/>
<text text-anchor="start" x="397" y="-174.4" font-family="Arial" font-size="14.00" fill="#000000">passwd_changed_on </text>
<text text-anchor="start" x="533.171" y="-174.4" font-family="Arial" font-size="14.00" fill="#666666">[datetime]</text>
<polygon fill="none" stroke="#000000" points="390,-133 390,-163 872,-163 872,-133 390,-133"/>
<text text-anchor="start" x="397" y="-144.4" font-family="Arial" font-size="14.00" fill="#000000">twofa_scheme </text>
<text text-anchor="start" x="491.1346" y="-144.4" font-family="Arial" font-size="14.00" fill="#666666">[varchar(255)]</text>
<polygon fill="none" stroke="#000000" points="390,-103 390,-133 872,-133 872,-103 390,-103"/>
<text text-anchor="start" x="397" y="-114.4" font-family="Arial" font-size="14.00" fill="#000000">twofa_totp_key </text>
<text text-anchor="start" x="495.0378" y="-114.4" font-family="Arial" font-size="14.00" fill="#666666">[varchar(255)]</text>
<polygon fill="none" stroke="#000000" points="390,-73 390,-103 872,-103 872,-73 390,-73"/>
<text text-anchor="start" x="397" y="-84.4" font-family="Arial" font-size="14.00" fill="#000000">twofa_totp_last_used_at </text>
<text text-anchor="start" x="552.6212" y="-84.4" font-family="Arial" font-size="14.00" fill="#666666">[int(11)]</text>
<polygon fill="none" stroke="#000000" points="390,-43 390,-73 872,-73 872,-43 390,-43"/>
<text text-anchor="start" x="397" y="-54.4" font-family="Arial" font-size="14.00" fill="#000000">twofa_required </text>
<text text-anchor="start" x="493.467" y="-54.4" font-family="Arial" font-size="14.00" fill="#666666">[tinyint(1)]</text>
</g>
<!-- queries&#45;&gt;users -->
<g id="edge4" class="edge">
<title>queries:user_id&#45;&gt;users:id</title>
<path fill="none" stroke="#000000" stroke-dasharray="5,2" d="M275.983,-1033.9022C316.1862,-988.6906 348.5562,-658 390,-658"/>
<polygon fill="#000000" stroke="#000000" points="275.6971,-1034.0643 264.779,-1035.0863 271.3486,-1036.5322 267,-1039 267,-1039 267,-1039 271.3486,-1036.5322 269.221,-1042.9137 275.6971,-1034.0643 275.6971,-1034.0643"/>
<text text-anchor="start" x="274.268" y="-1049" font-family="Arial" font-size="10.00" fill="#000000">Detected Relation</text>
</g>
<!-- projects&#45;&gt;queries -->
<g id="edge1" class="edge">
<title>projects:default_issue_query_id&#45;&gt;queries:id</title>
<path fill="none" stroke="#000000" stroke-dasharray="5,2" d="M295.2839,-137.3363C344.1687,-186.4133 314.9072,-636.4989 286,-687 237.6061,-771.5447 145.3939,-713.4553 97,-798 17.2946,-937.2461 -63.4444,-1159 97,-1159"/>
<polygon fill="#000000" stroke="#000000" points="295.0604,-137.2319 287.9044,-128.9228 290.5302,-135.116 286,-133 286,-133 286,-133 290.5302,-135.116 284.0956,-137.0772 295.0604,-137.2319 295.0604,-137.2319"/>
<text text-anchor="start" x="293.3245" y="-143" font-family="Arial" font-size="10.00" fill="#000000">Additional Relation</text>
</g>
<!-- queries_roles -->
<g id="node3" class="node">
<title>queries_roles</title>
<polygon fill="#efefef" stroke="transparent" points="72,-1405 72,-1451 291,-1451 291,-1405 72,-1405"/>
<polygon fill="none" stroke="#000000" points="72,-1405 72,-1451 291,-1451 291,-1405 72,-1405"/>
<text text-anchor="start" x="78.865" y="-1428.8" font-family="Arial Bold" font-size="18.00" fill="#000000">queries_roles</text>
<text text-anchor="start" x="186.8812" y="-1428.8" font-family="Arial" font-size="14.00" fill="#000000"> </text>
<text text-anchor="start" x="190.7718" y="-1428.8" font-family="Arial" font-size="14.00" fill="#666666">[BASE TABLE]</text>
<text text-anchor="start" x="94.9317" y="-1414.4" font-family="Arial" font-size="14.00" fill="#333333">カスタムクエリ⇔ロール</text>
<polygon fill="none" stroke="#000000" points="72,-1375 72,-1405 291,-1405 291,-1375 72,-1375"/>
<text text-anchor="start" x="79" y="-1386.4" font-family="Arial" font-size="14.00" fill="#000000">query_id </text>
<text text-anchor="start" x="136.5708" y="-1386.4" font-family="Arial" font-size="14.00" fill="#666666">[int(11)]</text>
<polygon fill="none" stroke="#000000" points="72,-1345 72,-1375 291,-1375 291,-1345 72,-1345"/>
<text text-anchor="start" x="79" y="-1356.4" font-family="Arial" font-size="14.00" fill="#000000">role_id </text>
<text text-anchor="start" x="124.8948" y="-1356.4" font-family="Arial" font-size="14.00" fill="#666666">[int(11)]</text>
</g>
<!-- queries_roles&#45;&gt;queries -->
<g id="edge2" class="edge">
<title>queries_roles:query_id&#45;&gt;queries:id</title>
<path fill="none" stroke="#000000" stroke-dasharray="5,2" d="M300.9752,-1388.4226C327.2522,-1378.9518 313.5639,-1329.1362 291,-1302 234.9323,-1234.5709 153.0677,-1333.4291 97,-1266 66.5952,-1229.4339 49.4444,-1159 97,-1159"/>
<polygon fill="#000000" stroke="#000000" points="300.8773,-1388.438 290.2971,-1385.5552 295.9386,-1389.219 291,-1390 291,-1390 291,-1390 295.9386,-1389.219 291.7029,-1394.4448 300.8773,-1388.438 300.8773,-1388.438"/>
<text text-anchor="start" x="298.3245" y="-1400" font-family="Arial" font-size="10.00" fill="#000000">Additional Relation</text>
</g>
</g>
</svg>
