<?xml version="1.0" encoding="UTF-8" standalone="no"?>
<!DOCTYPE svg PUBLIC "-//W3C//DTD SVG 1.1//EN"
 "http://www.w3.org/Graphics/SVG/1.1/DTD/svg11.dtd">
<!-- Generated by graphviz version 2.40.1 (20161225.0304)
 -->
<!-- Title: queries_roles Pages: 1 -->
<svg width="1346pt" height="704pt"
 viewBox="0.00 0.00 1345.50 704.00" xmlns="http://www.w3.org/2000/svg" xmlns:xlink="http://www.w3.org/1999/xlink">
<g id="graph0" class="graph" transform="scale(1 1) rotate(0) translate(4 700)">
<title>queries_roles</title>
<polygon fill="#ffffff" stroke="transparent" points="-4,4 -4,-700 1341.5,-700 1341.5,4 -4,4"/>
<!-- queries_roles -->
<g id="node1" class="node">
<title>queries_roles</title>
<polygon fill="#efefef" stroke="transparent" points="585,-604 585,-650 804,-650 804,-604 585,-604"/>
<polygon fill="none" stroke="#000000" points="585,-604 585,-650 804,-650 804,-604 585,-604"/>
<text text-anchor="start" x="591.865" y="-627.8" font-family="Arial Bold" font-size="18.00" fill="#000000">queries_roles</text>
<text text-anchor="start" x="699.8812" y="-627.8" font-family="Arial" font-size="14.00" fill="#000000"> </text>
<text text-anchor="start" x="703.7718" y="-627.8" font-family="Arial" font-size="14.00" fill="#666666">[BASE TABLE]</text>
<text text-anchor="start" x="607.9317" y="-613.4" font-family="Arial" font-size="14.00" fill="#333333">カスタムクエリ⇔ロール</text>
<polygon fill="none" stroke="#000000" points="585,-574 585,-604 804,-604 804,-574 585,-574"/>
<text text-anchor="start" x="592" y="-585.4" font-family="Arial" font-size="14.00" fill="#000000">query_id </text>
<text text-anchor="start" x="649.5708" y="-585.4" font-family="Arial" font-size="14.00" fill="#666666">[int(11)]</text>
<polygon fill="none" stroke="#000000" points="585,-544 585,-574 804,-574 804,-544 585,-544"/>
<text text-anchor="start" x="592" y="-555.4" font-family="Arial" font-size="14.00" fill="#000000">role_id </text>
<text text-anchor="start" x="637.8948" y="-555.4" font-family="Arial" font-size="14.00" fill="#666666">[int(11)]</text>
<polygon fill="none" stroke="#000000" stroke-width="3" points="583,-542.5 583,-651.5 805,-651.5 805,-542.5 583,-542.5"/>
</g>
<!-- queries -->
<g id="node2" class="node">
<title>queries</title>
<polygon fill="#efefef" stroke="transparent" points="43,-373 43,-419 669,-419 669,-373 43,-373"/>
<polygon fill="none" stroke="#000000" points="43,-373 43,-419 669,-419 669,-373 43,-373"/>
<text text-anchor="start" x="277.8675" y="-396.8" font-family="Arial Bold" font-size="18.00" fill="#000000">queries</text>
<text text-anchor="start" x="336.8787" y="-396.8" font-family="Arial" font-size="14.00" fill="#000000"> </text>
<text text-anchor="start" x="340.7693" y="-396.8" font-family="Arial" font-size="14.00" fill="#666666">[BASE TABLE]</text>
<text text-anchor="start" x="302.093" y="-382.4" font-family="Arial" font-size="14.00" fill="#333333">カスタムクエリ</text>
<polygon fill="none" stroke="#000000" points="43,-343 43,-373 669,-373 669,-343 43,-343"/>
<text text-anchor="start" x="50" y="-354.4" font-family="Arial" font-size="14.00" fill="#000000">id </text>
<text text-anchor="start" x="64.7798" y="-354.4" font-family="Arial" font-size="14.00" fill="#666666">[int(11)]</text>
<polygon fill="none" stroke="#000000" points="43,-313 43,-343 669,-343 669,-313 43,-313"/>
<text text-anchor="start" x="50" y="-324.4" font-family="Arial" font-size="14.00" fill="#000000">project_id </text>
<text text-anchor="start" x="114.568" y="-324.4" font-family="Arial" font-size="14.00" fill="#666666">[int(11)]</text>
<polygon fill="none" stroke="#000000" points="43,-283 43,-313 669,-313 669,-283 43,-283"/>
<text text-anchor="start" x="50" y="-294.4" font-family="Arial" font-size="14.00" fill="#000000">name </text>
<text text-anchor="start" x="88.899" y="-294.4" font-family="Arial" font-size="14.00" fill="#666666">[varchar(255)]</text>
<polygon fill="none" stroke="#000000" points="43,-253 43,-283 669,-283 669,-253 43,-253"/>
<text text-anchor="start" x="50" y="-264.4" font-family="Arial" font-size="14.00" fill="#000000">filters </text>
<text text-anchor="start" x="87.3282" y="-264.4" font-family="Arial" font-size="14.00" fill="#666666">[text]</text>
<polygon fill="none" stroke="#000000" points="43,-223 43,-253 669,-253 669,-223 43,-223"/>
<text text-anchor="start" x="50" y="-234.4" font-family="Arial" font-size="14.00" fill="#000000">user_id </text>
<text text-anchor="start" x="99.7882" y="-234.4" font-family="Arial" font-size="14.00" fill="#666666">[int(11)]</text>
<polygon fill="none" stroke="#000000" points="43,-193 43,-223 669,-223 669,-193 43,-193"/>
<text text-anchor="start" x="50" y="-204.4" font-family="Arial" font-size="14.00" fill="#000000">column_names </text>
<text text-anchor="start" x="148.7966" y="-204.4" font-family="Arial" font-size="14.00" fill="#666666">[text]</text>
<polygon fill="none" stroke="#000000" points="43,-163 43,-193 669,-193 669,-163 43,-163"/>
<text text-anchor="start" x="50" y="-174.4" font-family="Arial" font-size="14.00" fill="#000000">sort_criteria </text>
<text text-anchor="start" x="126.9972" y="-174.4" font-family="Arial" font-size="14.00" fill="#666666">[text]</text>
<polygon fill="none" stroke="#000000" points="43,-133 43,-163 669,-163 669,-133 43,-133"/>
<text text-anchor="start" x="50" y="-144.4" font-family="Arial" font-size="14.00" fill="#000000">group_by </text>
<text text-anchor="start" x="112.2468" y="-144.4" font-family="Arial" font-size="14.00" fill="#666666">[varchar(255)]</text>
<polygon fill="none" stroke="#000000" points="43,-103 43,-133 669,-133 669,-103 43,-103"/>
<text text-anchor="start" x="49.6681" y="-114.4" font-family="Arial" font-size="14.00" fill="#000000">type </text>
<text text-anchor="start" x="80.0145" y="-114.4" font-family="Arial" font-size="14.00" fill="#666666">[varchar(255)]</text>
<text text-anchor="start" x="167.1337" y="-114.4" font-family="Arial" font-size="14.00" fill="#000000"> IssueQuery:チケット ProjectQuery:プロジェクト TimeEntryQuery:作業時間 &#160;</text>
<polygon fill="none" stroke="#000000" points="43,-73 43,-103 669,-103 669,-73 43,-73"/>
<text text-anchor="start" x="50" y="-84.4" font-family="Arial" font-size="14.00" fill="#000000">visibility </text>
<text text-anchor="start" x="102.0968" y="-84.4" font-family="Arial" font-size="14.00" fill="#666666">[int(11)]</text>
<polygon fill="none" stroke="#000000" points="43,-43 43,-73 669,-73 669,-43 43,-43"/>
<text text-anchor="start" x="50" y="-54.4" font-family="Arial" font-size="14.00" fill="#000000">options </text>
<text text-anchor="start" x="99.0182" y="-54.4" font-family="Arial" font-size="14.00" fill="#666666">[text]</text>
</g>
<!-- queries_roles&#45;&gt;queries -->
<g id="edge1" class="edge">
<title>queries_roles:query_id&#45;&gt;queries:id</title>
<path fill="none" stroke="#000000" stroke-dasharray="5,2" d="M574.7775,-587.4376C548.1453,-578.0451 564.9099,-528.4674 585,-498 607.3595,-464.0909 646.6405,-495.9091 669,-462 694.4449,-423.4118 715.2222,-358 669,-358"/>
<polygon fill="#000000" stroke="#000000" points="575.1148,-587.4891 584.3201,-593.4483 580.0574,-588.2446 585,-589 585,-589 585,-589 580.0574,-588.2446 585.6799,-584.5517 575.1148,-587.4891 575.1148,-587.4891"/>
<text text-anchor="start" x="495.3245" y="-599" font-family="Arial" font-size="10.00" fill="#000000">Additional Relation</text>
</g>
<!-- roles -->
<g id="node3" class="node">
<title>roles</title>
<polygon fill="#efefef" stroke="transparent" points="774,-373 774,-419 1295,-419 1295,-373 774,-373"/>
<polygon fill="none" stroke="#000000" points="774,-373 774,-419 1295,-419 1295,-373 774,-373"/>
<text text-anchor="start" x="966.3737" y="-396.8" font-family="Arial Bold" font-size="18.00" fill="#000000">roles</text>
<text text-anchor="start" x="1005.3725" y="-396.8" font-family="Arial" font-size="14.00" fill="#000000"> </text>
<text text-anchor="start" x="1009.2631" y="-396.8" font-family="Arial" font-size="14.00" fill="#666666">[BASE TABLE]</text>
<text text-anchor="start" x="1007.6746" y="-382.4" font-family="Arial" font-size="14.00" fill="#333333">ロール</text>
<polygon fill="none" stroke="#000000" points="774,-343 774,-373 1295,-373 1295,-343 774,-343"/>
<text text-anchor="start" x="781" y="-354.4" font-family="Arial" font-size="14.00" fill="#000000">id </text>
<text text-anchor="start" x="795.7798" y="-354.4" font-family="Arial" font-size="14.00" fill="#666666">[int(11)]</text>
<polygon fill="none" stroke="#000000" points="774,-313 774,-343 1295,-343 1295,-313 774,-313"/>
<text text-anchor="start" x="781" y="-324.4" font-family="Arial" font-size="14.00" fill="#000000">name </text>
<text text-anchor="start" x="819.899" y="-324.4" font-family="Arial" font-size="14.00" fill="#666666">[varchar(255)]</text>
<text text-anchor="start" x="907.0182" y="-324.4" font-family="Arial" font-size="14.00" fill="#000000"> 名称</text>
<polygon fill="none" stroke="#000000" points="774,-283 774,-313 1295,-313 1295,-283 774,-283"/>
<text text-anchor="start" x="781" y="-294.4" font-family="Arial" font-size="14.00" fill="#000000">position </text>
<text text-anchor="start" x="833.1248" y="-294.4" font-family="Arial" font-size="14.00" fill="#666666">[int(11)]</text>
<text text-anchor="start" x="880.5722" y="-294.4" font-family="Arial" font-size="14.00" fill="#000000"> 並び順</text>
<polygon fill="none" stroke="#000000" points="774,-253 774,-283 1295,-283 1295,-253 774,-253"/>
<text text-anchor="start" x="780.6933" y="-264.4" font-family="Arial" font-size="14.00" fill="#000000">assignable </text>
<text text-anchor="start" x="851.4927" y="-264.4" font-family="Arial" font-size="14.00" fill="#666666">[tinyint(1)]</text>
<text text-anchor="start" x="912.9373" y="-264.4" font-family="Arial" font-size="14.00" fill="#000000"> このロールのユーザーにチケットを割り当て可能</text>
<polygon fill="none" stroke="#000000" points="774,-223 774,-253 1295,-253 1295,-223 774,-223"/>
<text text-anchor="start" x="781" y="-234.4" font-family="Arial" font-size="14.00" fill="#000000">builtin </text>
<text text-anchor="start" x="821.4488" y="-234.4" font-family="Arial" font-size="14.00" fill="#666666">[int(11)]</text>
<text text-anchor="start" x="868.8962" y="-234.4" font-family="Arial" font-size="14.00" fill="#000000"> 1:非メンバー 2:匿名ユーザー 0:それ以外 </text>
<polygon fill="none" stroke="#000000" points="774,-193 774,-223 1295,-223 1295,-193 774,-193"/>
<text text-anchor="start" x="781" y="-204.4" font-family="Arial" font-size="14.00" fill="#000000">permissions </text>
<text text-anchor="start" x="859.5554" y="-204.4" font-family="Arial" font-size="14.00" fill="#666666">[text]</text>
<text text-anchor="start" x="889.9004" y="-204.4" font-family="Arial" font-size="14.00" fill="#000000"> 権限</text>
<polygon fill="none" stroke="#000000" points="774,-163 774,-193 1295,-193 1295,-163 774,-163"/>
<text text-anchor="start" x="781" y="-174.4" font-family="Arial" font-size="14.00" fill="#000000">issues_visibility </text>
<text text-anchor="start" x="880.5512" y="-174.4" font-family="Arial" font-size="14.00" fill="#666666">[varchar(30)]</text>
<text text-anchor="start" x="959.8878" y="-174.4" font-family="Arial" font-size="14.00" fill="#000000"> 表示できるチケット</text>
<polygon fill="none" stroke="#000000" points="774,-133 774,-163 1295,-163 1295,-133 774,-133"/>
<text text-anchor="start" x="781" y="-144.4" font-family="Arial" font-size="14.00" fill="#000000">users_visibility </text>
<text text-anchor="start" x="875.1052" y="-144.4" font-family="Arial" font-size="14.00" fill="#666666">[varchar(30)]</text>
<text text-anchor="start" x="954.4418" y="-144.4" font-family="Arial" font-size="14.00" fill="#000000"> 表示できるユーザー</text>
<polygon fill="none" stroke="#000000" points="774,-103 774,-133 1295,-133 1295,-103 774,-103"/>
<text text-anchor="start" x="781" y="-114.4" font-family="Arial" font-size="14.00" fill="#000000">time_entries_visibility </text>
<text text-anchor="start" x="917.108" y="-114.4" font-family="Arial" font-size="14.00" fill="#666666">[varchar(30)]</text>
<text text-anchor="start" x="996.4446" y="-114.4" font-family="Arial" font-size="14.00" fill="#000000"> 表示できる作業時間</text>
<polygon fill="none" stroke="#000000" points="774,-73 774,-103 1295,-103 1295,-73 774,-73"/>
<text text-anchor="start" x="781" y="-84.4" font-family="Arial" font-size="14.00" fill="#000000">all_roles_managed </text>
<text text-anchor="start" x="903.1402" y="-84.4" font-family="Arial" font-size="14.00" fill="#666666">[tinyint(1)]</text>
<text text-anchor="start" x="964.5848" y="-84.4" font-family="Arial" font-size="14.00" fill="#000000"> メンバーの管理(すべてのロール)</text>
<polygon fill="none" stroke="#000000" points="774,-43 774,-73 1295,-73 1295,-43 774,-43"/>
<text text-anchor="start" x="781" y="-54.4" font-family="Arial" font-size="14.00" fill="#000000">settings </text>
<text text-anchor="start" x="833.1262" y="-54.4" font-family="Arial" font-size="14.00" fill="#666666">[text]</text>
</g>
<!-- queries_roles&#45;&gt;roles -->
<g id="edge2" class="edge">
<title>queries_roles:role_id&#45;&gt;roles:id</title>
<path fill="none" stroke="#000000" stroke-dasharray="5,2" d="M813.9475,-556.3338C825.4765,-547.6185 811.7151,-519.3096 804,-498 796.9098,-478.4167 781.0902,-481.5833 774,-462 758.2648,-418.5386 727.7778,-358 774,-358"/>
<polygon fill="#000000" stroke="#000000" points="813.6591,-556.411 802.835,-554.6534 808.8295,-557.7055 804,-559 804,-559 804,-559 808.8295,-557.7055 805.165,-563.3466 813.6591,-556.411 813.6591,-556.411"/>
<text text-anchor="start" x="811.3245" y="-569" font-family="Arial" font-size="10.00" fill="#000000">Additional Relation</text>
</g>
</g>
</svg>
