<?xml version="1.0" encoding="UTF-8" standalone="no"?>
<!DOCTYPE svg PUBLIC "-//W3C//DTD SVG 1.1//EN"
 "http://www.w3.org/Graphics/SVG/1.1/DTD/svg11.dtd">
<!-- Generated by graphviz version 2.40.1 (20161225.0304)
 -->
<!-- Title: queries Pages: 1 -->
<svg width="890pt" height="1491pt"
 viewBox="0.00 0.00 889.50 1491.00" xmlns="http://www.w3.org/2000/svg" xmlns:xlink="http://www.w3.org/1999/xlink">
<g id="graph0" class="graph" transform="scale(1 1) rotate(0) translate(4 1487)">
<title>queries</title>
<polygon fill="#ffffff" stroke="transparent" points="-4,4 -4,-1487 885.5,-1487 885.5,4 -4,4"/>
<!-- queries -->
<g id="node1" class="node">
<title>queries</title>
<polygon fill="#efefef" stroke="transparent" points="287.5,-1174 287.5,-1220 457.5,-1220 457.5,-1174 287.5,-1174"/>
<polygon fill="none" stroke="#000000" points="287.5,-1174 287.5,-1220 457.5,-1220 457.5,-1174 287.5,-1174"/>
<text text-anchor="start" x="294.3675" y="-1197.8" font-family="Arial Bold" font-size="18.00" fill="#000000">queries</text>
<text text-anchor="start" x="353.3787" y="-1197.8" font-family="Arial" font-size="14.00" fill="#000000"> </text>
<text text-anchor="start" x="357.2693" y="-1197.8" font-family="Arial" font-size="14.00" fill="#666666">[BASE TABLE]</text>
<text text-anchor="start" x="318.593" y="-1183.4" font-family="Arial" font-size="14.00" fill="#333333">カスタムクエリ</text>
<polygon fill="none" stroke="#000000" points="287.5,-1144 287.5,-1174 457.5,-1174 457.5,-1144 287.5,-1144"/>
<text text-anchor="start" x="294.5" y="-1155.4" font-family="Arial" font-size="14.00" fill="#000000">id </text>
<text text-anchor="start" x="309.2798" y="-1155.4" font-family="Arial" font-size="14.00" fill="#666666">[int(11)]</text>
<polygon fill="none" stroke="#000000" points="287.5,-1114 287.5,-1144 457.5,-1144 457.5,-1114 287.5,-1114"/>
<text text-anchor="start" x="294.5" y="-1125.4" font-family="Arial" font-size="14.00" fill="#000000">project_id </text>
<text text-anchor="start" x="359.068" y="-1125.4" font-family="Arial" font-size="14.00" fill="#666666">[int(11)]</text>
<polygon fill="none" stroke="#000000" points="287.5,-1084 287.5,-1114 457.5,-1114 457.5,-1084 287.5,-1084"/>
<text text-anchor="start" x="294.5" y="-1095.4" font-family="Arial" font-size="14.00" fill="#000000">name </text>
<text text-anchor="start" x="333.399" y="-1095.4" font-family="Arial" font-size="14.00" fill="#666666">[varchar(255)]</text>
<polygon fill="none" stroke="#000000" points="287.5,-1054 287.5,-1084 457.5,-1084 457.5,-1054 287.5,-1054"/>
<text text-anchor="start" x="294.5" y="-1065.4" font-family="Arial" font-size="14.00" fill="#000000">filters </text>
<text text-anchor="start" x="331.8282" y="-1065.4" font-family="Arial" font-size="14.00" fill="#666666">[text]</text>
<polygon fill="none" stroke="#000000" points="287.5,-1024 287.5,-1054 457.5,-1054 457.5,-1024 287.5,-1024"/>
<text text-anchor="start" x="294.5" y="-1035.4" font-family="Arial" font-size="14.00" fill="#000000">user_id </text>
<text text-anchor="start" x="344.2882" y="-1035.4" font-family="Arial" font-size="14.00" fill="#666666">[int(11)]</text>
<polygon fill="none" stroke="#000000" points="287.5,-994 287.5,-1024 457.5,-1024 457.5,-994 287.5,-994"/>
<text text-anchor="start" x="294.5" y="-1005.4" font-family="Arial" font-size="14.00" fill="#000000">column_names </text>
<text text-anchor="start" x="393.2966" y="-1005.4" font-family="Arial" font-size="14.00" fill="#666666">[text]</text>
<polygon fill="none" stroke="#000000" points="287.5,-964 287.5,-994 457.5,-994 457.5,-964 287.5,-964"/>
<text text-anchor="start" x="294.5" y="-975.4" font-family="Arial" font-size="14.00" fill="#000000">sort_criteria </text>
<text text-anchor="start" x="371.4972" y="-975.4" font-family="Arial" font-size="14.00" fill="#666666">[text]</text>
<polygon fill="none" stroke="#000000" points="287.5,-934 287.5,-964 457.5,-964 457.5,-934 287.5,-934"/>
<text text-anchor="start" x="294.5" y="-945.4" font-family="Arial" font-size="14.00" fill="#000000">group_by </text>
<text text-anchor="start" x="356.7468" y="-945.4" font-family="Arial" font-size="14.00" fill="#666666">[varchar(255)]</text>
<polygon fill="none" stroke="#000000" points="287.5,-904 287.5,-934 457.5,-934 457.5,-904 287.5,-904"/>
<text text-anchor="start" x="294.5" y="-915.4" font-family="Arial" font-size="14.00" fill="#000000">type </text>
<text text-anchor="start" x="324.8464" y="-915.4" font-family="Arial" font-size="14.00" fill="#666666">[varchar(255)]</text>
<polygon fill="none" stroke="#000000" points="287.5,-874 287.5,-904 457.5,-904 457.5,-874 287.5,-874"/>
<text text-anchor="start" x="294.5" y="-885.4" font-family="Arial" font-size="14.00" fill="#000000">visibility </text>
<text text-anchor="start" x="346.5968" y="-885.4" font-family="Arial" font-size="14.00" fill="#666666">[int(11)]</text>
<polygon fill="none" stroke="#000000" points="287.5,-844 287.5,-874 457.5,-874 457.5,-844 287.5,-844"/>
<text text-anchor="start" x="294.5" y="-855.4" font-family="Arial" font-size="14.00" fill="#000000">options </text>
<text text-anchor="start" x="343.5182" y="-855.4" font-family="Arial" font-size="14.00" fill="#666666">[text]</text>
<polygon fill="none" stroke="#000000" stroke-width="3" points="286,-842.5 286,-1221.5 459,-1221.5 459,-842.5 286,-842.5"/>
</g>
<!-- projects -->
<g id="node3" class="node">
<title>projects</title>
<polygon fill="#efefef" stroke="transparent" points="43.5,-583 43.5,-629 252.5,-629 252.5,-583 43.5,-583"/>
<polygon fill="none" stroke="#000000" points="43.5,-583 43.5,-629 252.5,-629 252.5,-583 43.5,-583"/>
<text text-anchor="start" x="67.8695" y="-606.8" font-family="Arial Bold" font-size="18.00" fill="#000000">projects</text>
<text text-anchor="start" x="130.8767" y="-606.8" font-family="Arial" font-size="14.00" fill="#000000"> </text>
<text text-anchor="start" x="134.7673" y="-606.8" font-family="Arial" font-size="14.00" fill="#666666">[BASE TABLE]</text>
<text text-anchor="start" x="105.6269" y="-592.4" font-family="Arial" font-size="14.00" fill="#333333">プロジェクト</text>
<polygon fill="none" stroke="#000000" points="43.5,-553 43.5,-583 252.5,-583 252.5,-553 43.5,-553"/>
<text text-anchor="start" x="50.5" y="-564.4" font-family="Arial" font-size="14.00" fill="#000000">id </text>
<text text-anchor="start" x="65.2798" y="-564.4" font-family="Arial" font-size="14.00" fill="#666666">[int(11)]</text>
<polygon fill="none" stroke="#000000" points="43.5,-523 43.5,-553 252.5,-553 252.5,-523 43.5,-523"/>
<text text-anchor="start" x="50.5" y="-534.4" font-family="Arial" font-size="14.00" fill="#000000">name </text>
<text text-anchor="start" x="89.399" y="-534.4" font-family="Arial" font-size="14.00" fill="#666666">[varchar(255)]</text>
<polygon fill="none" stroke="#000000" points="43.5,-493 43.5,-523 252.5,-523 252.5,-493 43.5,-493"/>
<text text-anchor="start" x="50.5" y="-504.4" font-family="Arial" font-size="14.00" fill="#000000">description </text>
<text text-anchor="start" x="122.068" y="-504.4" font-family="Arial" font-size="14.00" fill="#666666">[text]</text>
<polygon fill="none" stroke="#000000" points="43.5,-463 43.5,-493 252.5,-493 252.5,-463 43.5,-463"/>
<text text-anchor="start" x="50.5" y="-474.4" font-family="Arial" font-size="14.00" fill="#000000">homepage </text>
<text text-anchor="start" x="120.5294" y="-474.4" font-family="Arial" font-size="14.00" fill="#666666">[varchar(255)]</text>
<polygon fill="none" stroke="#000000" points="43.5,-433 43.5,-463 252.5,-463 252.5,-433 43.5,-433"/>
<text text-anchor="start" x="50.5" y="-444.4" font-family="Arial" font-size="14.00" fill="#000000">is_public </text>
<text text-anchor="start" x="108.8408" y="-444.4" font-family="Arial" font-size="14.00" fill="#666666">[tinyint(1)]</text>
<polygon fill="none" stroke="#000000" points="43.5,-403 43.5,-433 252.5,-433 252.5,-403 43.5,-403"/>
<text text-anchor="start" x="50.5" y="-414.4" font-family="Arial" font-size="14.00" fill="#000000">parent_id </text>
<text text-anchor="start" x="112.744" y="-414.4" font-family="Arial" font-size="14.00" fill="#666666">[int(11)]</text>
<polygon fill="none" stroke="#000000" points="43.5,-373 43.5,-403 252.5,-403 252.5,-373 43.5,-373"/>
<text text-anchor="start" x="50.5" y="-384.4" font-family="Arial" font-size="14.00" fill="#000000">created_on </text>
<text text-anchor="start" x="124.42" y="-384.4" font-family="Arial" font-size="14.00" fill="#666666">[timestamp]</text>
<polygon fill="none" stroke="#000000" points="43.5,-343 43.5,-373 252.5,-373 252.5,-343 43.5,-343"/>
<text text-anchor="start" x="50.5" y="-354.4" font-family="Arial" font-size="14.00" fill="#000000">updated_on </text>
<text text-anchor="start" x="128.3246" y="-354.4" font-family="Arial" font-size="14.00" fill="#666666">[timestamp]</text>
<polygon fill="none" stroke="#000000" points="43.5,-313 43.5,-343 252.5,-343 252.5,-313 43.5,-313"/>
<text text-anchor="start" x="50.5" y="-324.4" font-family="Arial" font-size="14.00" fill="#000000">identifier </text>
<text text-anchor="start" x="107.2826" y="-324.4" font-family="Arial" font-size="14.00" fill="#666666">[varchar(255)]</text>
<polygon fill="none" stroke="#000000" points="43.5,-283 43.5,-313 252.5,-313 252.5,-283 43.5,-283"/>
<text text-anchor="start" x="50.5" y="-294.4" font-family="Arial" font-size="14.00" fill="#000000">status </text>
<text text-anchor="start" x="91.737" y="-294.4" font-family="Arial" font-size="14.00" fill="#666666">[int(11)]</text>
<polygon fill="none" stroke="#000000" points="43.5,-253 43.5,-283 252.5,-283 252.5,-253 43.5,-253"/>
<text text-anchor="start" x="50.5" y="-264.4" font-family="Arial" font-size="14.00" fill="#000000">lft </text>
<text text-anchor="start" x="65.2784" y="-264.4" font-family="Arial" font-size="14.00" fill="#666666">[int(11)]</text>
<polygon fill="none" stroke="#000000" points="43.5,-223 43.5,-253 252.5,-253 252.5,-223 43.5,-223"/>
<text text-anchor="start" x="50.5" y="-234.4" font-family="Arial" font-size="14.00" fill="#000000">rgt </text>
<text text-anchor="start" x="70.7244" y="-234.4" font-family="Arial" font-size="14.00" fill="#666666">[int(11)]</text>
<polygon fill="none" stroke="#000000" points="43.5,-193 43.5,-223 252.5,-223 252.5,-193 43.5,-193"/>
<text text-anchor="start" x="50.5" y="-204.4" font-family="Arial" font-size="14.00" fill="#000000">inherit_members </text>
<text text-anchor="start" x="158.615" y="-204.4" font-family="Arial" font-size="14.00" fill="#666666">[tinyint(1)]</text>
<polygon fill="none" stroke="#000000" points="43.5,-163 43.5,-193 252.5,-193 252.5,-163 43.5,-163"/>
<text text-anchor="start" x="50.5" y="-174.4" font-family="Arial" font-size="14.00" fill="#000000">default_version_id </text>
<text text-anchor="start" x="167.9782" y="-174.4" font-family="Arial" font-size="14.00" fill="#666666">[int(11)]</text>
<polygon fill="none" stroke="#000000" points="43.5,-133 43.5,-163 252.5,-163 252.5,-133 43.5,-133"/>
<text text-anchor="start" x="50.357" y="-144.4" font-family="Arial" font-size="14.00" fill="#000000">default_assigned_to_id </text>
<text text-anchor="start" x="198.1956" y="-144.4" font-family="Arial" font-size="14.00" fill="#666666">[int(11)]</text>
</g>
<!-- queries&#45;&gt;projects -->
<g id="edge2" class="edge">
<title>queries:project_id&#45;&gt;projects:id</title>
<path fill="none" stroke="#000000" stroke-dasharray="5,2" d="M277.3794,-1127.5837C174.8864,-1096.6104 373.7496,-568 252.5,-568"/>
<polygon fill="#000000" stroke="#000000" points="277.5965,-1127.614 286.8763,-1133.4566 282.5483,-1128.307 287.5,-1129 287.5,-1129 287.5,-1129 282.5483,-1128.307 288.1237,-1124.5434 277.5965,-1127.614 277.5965,-1127.614"/>
<text text-anchor="start" x="197.8245" y="-1139" font-family="Arial" font-size="10.00" fill="#000000">Additional Relation</text>
</g>
<!-- users -->
<g id="node4" class="node">
<title>users</title>
<polygon fill="#efefef" stroke="transparent" points="356.5,-673 356.5,-719 838.5,-719 838.5,-673 356.5,-673"/>
<polygon fill="none" stroke="#000000" points="356.5,-673 356.5,-719 838.5,-719 838.5,-673 356.5,-673"/>
<text text-anchor="start" x="526.8708" y="-696.8" font-family="Arial Bold" font-size="18.00" fill="#000000">users</text>
<text text-anchor="start" x="570.8754" y="-696.8" font-family="Arial" font-size="14.00" fill="#000000"> </text>
<text text-anchor="start" x="574.766" y="-696.8" font-family="Arial" font-size="14.00" fill="#666666">[BASE TABLE]</text>
<text text-anchor="start" x="518.9558" y="-682.4" font-family="Arial" font-size="14.00" fill="#333333">ユーザー / グループ</text>
<polygon fill="none" stroke="#000000" points="356.5,-643 356.5,-673 838.5,-673 838.5,-643 356.5,-643"/>
<text text-anchor="start" x="363.5" y="-654.4" font-family="Arial" font-size="14.00" fill="#000000">id </text>
<text text-anchor="start" x="378.2798" y="-654.4" font-family="Arial" font-size="14.00" fill="#666666">[int(11)]</text>
<polygon fill="none" stroke="#000000" points="356.5,-613 356.5,-643 838.5,-643 838.5,-613 356.5,-613"/>
<text text-anchor="start" x="363.5" y="-624.4" font-family="Arial" font-size="14.00" fill="#000000">login </text>
<text text-anchor="start" x="396.9516" y="-624.4" font-family="Arial" font-size="14.00" fill="#666666">[varchar(255)]</text>
<text text-anchor="start" x="484.0708" y="-624.4" font-family="Arial" font-size="14.00" fill="#000000"> ログインID</text>
<polygon fill="none" stroke="#000000" points="356.5,-583 356.5,-613 838.5,-613 838.5,-583 356.5,-583"/>
<text text-anchor="start" x="363.5" y="-594.4" font-family="Arial" font-size="14.00" fill="#000000">hashed_password </text>
<text text-anchor="start" x="480.9838" y="-594.4" font-family="Arial" font-size="14.00" fill="#666666">[varchar(40)]</text>
<text text-anchor="start" x="560.3204" y="-594.4" font-family="Arial" font-size="14.00" fill="#000000"> パスワード(ハッシュ化済み)</text>
<polygon fill="none" stroke="#000000" points="356.5,-553 356.5,-583 838.5,-583 838.5,-553 356.5,-553"/>
<text text-anchor="start" x="363.5" y="-564.4" font-family="Arial" font-size="14.00" fill="#000000">firstname </text>
<text text-anchor="start" x="424.9474" y="-564.4" font-family="Arial" font-size="14.00" fill="#666666">[varchar(30)]</text>
<text text-anchor="start" x="504.284" y="-564.4" font-family="Arial" font-size="14.00" fill="#000000"> 名</text>
<polygon fill="none" stroke="#000000" points="356.5,-523 356.5,-553 838.5,-553 838.5,-523 356.5,-523"/>
<text text-anchor="start" x="363.5" y="-534.4" font-family="Arial" font-size="14.00" fill="#000000">lastname </text>
<text text-anchor="start" x="424.1788" y="-534.4" font-family="Arial" font-size="14.00" fill="#666666">[varchar(255)]</text>
<text text-anchor="start" x="511.298" y="-534.4" font-family="Arial" font-size="14.00" fill="#000000"> 姓</text>
<polygon fill="none" stroke="#000000" points="356.5,-493 356.5,-523 838.5,-523 838.5,-493 356.5,-493"/>
<text text-anchor="start" x="363.5" y="-504.4" font-family="Arial" font-size="14.00" fill="#000000">admin </text>
<text text-anchor="start" x="405.5056" y="-504.4" font-family="Arial" font-size="14.00" fill="#666666">[tinyint(1)]</text>
<text text-anchor="start" x="466.9502" y="-504.4" font-family="Arial" font-size="14.00" fill="#000000"> システム管理者</text>
<polygon fill="none" stroke="#000000" points="356.5,-463 356.5,-493 838.5,-493 838.5,-463 356.5,-463"/>
<text text-anchor="start" x="363.5" y="-474.4" font-family="Arial" font-size="14.00" fill="#000000">status </text>
<text text-anchor="start" x="404.737" y="-474.4" font-family="Arial" font-size="14.00" fill="#666666">[int(11)]</text>
<polygon fill="none" stroke="#000000" points="356.5,-433 356.5,-463 838.5,-463 838.5,-433 356.5,-433"/>
<text text-anchor="start" x="363.5" y="-444.4" font-family="Arial" font-size="14.00" fill="#000000">last_login_on </text>
<text text-anchor="start" x="449.8618" y="-444.4" font-family="Arial" font-size="14.00" fill="#666666">[datetime]</text>
<polygon fill="none" stroke="#000000" points="356.5,-403 356.5,-433 838.5,-433 838.5,-403 356.5,-403"/>
<text text-anchor="start" x="363.5" y="-414.4" font-family="Arial" font-size="14.00" fill="#000000">language </text>
<text text-anchor="start" x="424.9754" y="-414.4" font-family="Arial" font-size="14.00" fill="#666666">[varchar(5)]</text>
<text text-anchor="start" x="496.5294" y="-414.4" font-family="Arial" font-size="14.00" fill="#000000"> 言語</text>
<polygon fill="none" stroke="#000000" points="356.5,-373 356.5,-403 838.5,-403 838.5,-373 356.5,-373"/>
<text text-anchor="start" x="363.5" y="-384.4" font-family="Arial" font-size="14.00" fill="#000000">auth_source_id </text>
<text text-anchor="start" x="463.0918" y="-384.4" font-family="Arial" font-size="14.00" fill="#666666">[int(11)]</text>
<polygon fill="none" stroke="#000000" points="356.5,-343 356.5,-373 838.5,-373 838.5,-343 356.5,-343"/>
<text text-anchor="start" x="363.5" y="-354.4" font-family="Arial" font-size="14.00" fill="#000000">created_on </text>
<text text-anchor="start" x="437.42" y="-354.4" font-family="Arial" font-size="14.00" fill="#666666">[timestamp]</text>
<polygon fill="none" stroke="#000000" points="356.5,-313 356.5,-343 838.5,-343 838.5,-313 356.5,-313"/>
<text text-anchor="start" x="363.5" y="-324.4" font-family="Arial" font-size="14.00" fill="#000000">updated_on </text>
<text text-anchor="start" x="441.3246" y="-324.4" font-family="Arial" font-size="14.00" fill="#666666">[timestamp]</text>
<polygon fill="none" stroke="#000000" points="356.5,-283 356.5,-313 838.5,-313 838.5,-283 356.5,-283"/>
<text text-anchor="start" x="363.5" y="-294.4" font-family="Arial" font-size="14.00" fill="#000000">type </text>
<text text-anchor="start" x="393.8464" y="-294.4" font-family="Arial" font-size="14.00" fill="#666666">[varchar(255)]</text>
<text text-anchor="start" x="480.9656" y="-294.4" font-family="Arial" font-size="14.00" fill="#000000"> User:ユーザー / Group:グループ</text>
<polygon fill="none" stroke="#000000" points="356.5,-253 356.5,-283 838.5,-283 838.5,-253 356.5,-253"/>
<text text-anchor="start" x="363.5" y="-264.4" font-family="Arial" font-size="14.00" fill="#000000">identity_url </text>
<text text-anchor="start" x="435.0652" y="-264.4" font-family="Arial" font-size="14.00" fill="#666666">[varchar(255)]</text>
<polygon fill="none" stroke="#000000" points="356.5,-223 356.5,-253 838.5,-253 838.5,-223 356.5,-223"/>
<text text-anchor="start" x="363.5" y="-234.4" font-family="Arial" font-size="14.00" fill="#000000">mail_notification </text>
<text text-anchor="start" x="467.7342" y="-234.4" font-family="Arial" font-size="14.00" fill="#666666">[varchar(255)]</text>
<text text-anchor="start" x="554.8534" y="-234.4" font-family="Arial" font-size="14.00" fill="#000000"> メール通知</text>
<polygon fill="none" stroke="#000000" points="356.5,-193 356.5,-223 838.5,-223 838.5,-193 356.5,-193"/>
<text text-anchor="start" x="363.5" y="-204.4" font-family="Arial" font-size="14.00" fill="#000000">salt </text>
<text text-anchor="start" x="389.1704" y="-204.4" font-family="Arial" font-size="14.00" fill="#666666">[varchar(64)]</text>
<polygon fill="none" stroke="#000000" points="356.5,-163 356.5,-193 838.5,-193 838.5,-163 356.5,-163"/>
<text text-anchor="start" x="363.2646" y="-174.4" font-family="Arial" font-size="14.00" fill="#000000">must_change_passwd </text>
<text text-anchor="start" x="506.4216" y="-174.4" font-family="Arial" font-size="14.00" fill="#666666">[tinyint(1)]</text>
<text text-anchor="start" x="567.8662" y="-174.4" font-family="Arial" font-size="14.00" fill="#000000"> 次回ログイン時にパスワード変更を強制</text>
<polygon fill="none" stroke="#000000" points="356.5,-133 356.5,-163 838.5,-163 838.5,-133 356.5,-133"/>
<text text-anchor="start" x="363.5" y="-144.4" font-family="Arial" font-size="14.00" fill="#000000">passwd_changed_on </text>
<text text-anchor="start" x="499.671" y="-144.4" font-family="Arial" font-size="14.00" fill="#666666">[datetime]</text>
<polygon fill="none" stroke="#000000" points="356.5,-103 356.5,-133 838.5,-133 838.5,-103 356.5,-103"/>
<text text-anchor="start" x="363.5" y="-114.4" font-family="Arial" font-size="14.00" fill="#000000">twofa_scheme </text>
<text text-anchor="start" x="457.6346" y="-114.4" font-family="Arial" font-size="14.00" fill="#666666">[varchar(255)]</text>
<polygon fill="none" stroke="#000000" points="356.5,-73 356.5,-103 838.5,-103 838.5,-73 356.5,-73"/>
<text text-anchor="start" x="363.5" y="-84.4" font-family="Arial" font-size="14.00" fill="#000000">twofa_totp_key </text>
<text text-anchor="start" x="461.5378" y="-84.4" font-family="Arial" font-size="14.00" fill="#666666">[varchar(255)]</text>
<polygon fill="none" stroke="#000000" points="356.5,-43 356.5,-73 838.5,-73 838.5,-43 356.5,-43"/>
<text text-anchor="start" x="363.5" y="-54.4" font-family="Arial" font-size="14.00" fill="#000000">twofa_totp_last_used_at </text>
<text text-anchor="start" x="519.1212" y="-54.4" font-family="Arial" font-size="14.00" fill="#666666">[int(11)]</text>
</g>
<!-- queries&#45;&gt;users -->
<g id="edge3" class="edge">
<title>queries:user_id&#45;&gt;users:id</title>
<path fill="none" stroke="#000000" stroke-dasharray="5,2" d="M467.6699,-1038.5005C561.5794,-1028.8816 517.1791,-882.6285 457.5,-798 430.0361,-759.0546 383.9639,-800.9454 356.5,-762 329.8619,-724.2256 310.2778,-658 356.5,-658"/>
<polygon fill="#000000" stroke="#000000" points="467.488,-1038.5093 457.2792,-1034.5054 462.494,-1038.7547 457.5,-1039 457.5,-1039 457.5,-1039 462.494,-1038.7547 457.7208,-1043.4946 467.488,-1038.5093 467.488,-1038.5093"/>
<text text-anchor="start" x="464.768" y="-1049" font-family="Arial" font-size="10.00" fill="#000000">Detected Relation</text>
</g>
<!-- queries_roles -->
<g id="node2" class="node">
<title>queries_roles</title>
<polygon fill="#efefef" stroke="transparent" points="262.5,-1404.5 262.5,-1439.5 481.5,-1439.5 481.5,-1404.5 262.5,-1404.5"/>
<polygon fill="none" stroke="#000000" points="262.5,-1404.5 262.5,-1439.5 481.5,-1439.5 481.5,-1404.5 262.5,-1404.5"/>
<text text-anchor="start" x="269.365" y="-1417.3" font-family="Arial Bold" font-size="18.00" fill="#000000">queries_roles</text>
<text text-anchor="start" x="377.3812" y="-1417.3" font-family="Arial" font-size="14.00" fill="#000000"> </text>
<text text-anchor="start" x="381.2718" y="-1417.3" font-family="Arial" font-size="14.00" fill="#666666">[BASE TABLE]</text>
<polygon fill="none" stroke="#000000" points="262.5,-1374.5 262.5,-1404.5 481.5,-1404.5 481.5,-1374.5 262.5,-1374.5"/>
<text text-anchor="start" x="269.5" y="-1385.9" font-family="Arial" font-size="14.00" fill="#000000">query_id </text>
<text text-anchor="start" x="327.0708" y="-1385.9" font-family="Arial" font-size="14.00" fill="#666666">[int(11)]</text>
<polygon fill="none" stroke="#000000" points="262.5,-1344.5 262.5,-1374.5 481.5,-1374.5 481.5,-1344.5 262.5,-1344.5"/>
<text text-anchor="start" x="269.5" y="-1355.9" font-family="Arial" font-size="14.00" fill="#000000">role_id </text>
<text text-anchor="start" x="315.3948" y="-1355.9" font-family="Arial" font-size="14.00" fill="#666666">[int(11)]</text>
</g>
<!-- queries_roles&#45;&gt;queries -->
<g id="edge1" class="edge">
<title>queries_roles:query_id&#45;&gt;queries:id</title>
<path fill="none" stroke="#000000" stroke-dasharray="5,2" d="M491.4185,-1387.9315C517.5462,-1378.5145 503.9357,-1328.982 481.5,-1302 425.4323,-1234.5709 343.5677,-1333.4291 287.5,-1266 257.0952,-1229.4339 239.9444,-1159 287.5,-1159"/>
<polygon fill="#000000" stroke="#000000" points="491.3773,-1387.938 480.7971,-1385.0552 486.4386,-1388.719 481.5,-1389.5 481.5,-1389.5 481.5,-1389.5 486.4386,-1388.719 482.2029,-1393.9448 491.3773,-1387.938 491.3773,-1387.938"/>
<text text-anchor="start" x="488.8245" y="-1399.5" font-family="Arial" font-size="10.00" fill="#000000">Additional Relation</text>
</g>
</g>
</svg>
