<?xml version="1.0" encoding="UTF-8" standalone="no"?>
<!DOCTYPE svg PUBLIC "-//W3C//DTD SVG 1.1//EN"
 "http://www.w3.org/Graphics/SVG/1.1/DTD/svg11.dtd">
<!-- Generated by graphviz version 2.40.1 (20161225.0304)
 -->
<!-- Title: repositories Pages: 1 -->
<svg width="401pt" height="1611pt"
 viewBox="0.00 0.00 401.00 1611.00" xmlns="http://www.w3.org/2000/svg" xmlns:xlink="http://www.w3.org/1999/xlink">
<g id="graph0" class="graph" transform="scale(1 1) rotate(0) translate(4 1607)">
<title>repositories</title>
<polygon fill="#ffffff" stroke="transparent" points="-4,4 -4,-1607 397,-1607 397,4 -4,4"/>
<!-- repositories -->
<g id="node1" class="node">
<title>repositories</title>
<polygon fill="#efefef" stroke="transparent" points="97,-1084 97,-1130 301,-1130 301,-1084 97,-1084"/>
<polygon fill="none" stroke="#000000" points="97,-1084 97,-1130 301,-1130 301,-1084 97,-1084"/>
<text text-anchor="start" x="103.8701" y="-1107.8" font-family="Arial Bold" font-size="18.00" fill="#000000">repositories</text>
<text text-anchor="start" x="196.8761" y="-1107.8" font-family="Arial" font-size="14.00" fill="#000000"> </text>
<text text-anchor="start" x="200.7667" y="-1107.8" font-family="Arial" font-size="14.00" fill="#666666">[BASE TABLE]</text>
<text text-anchor="start" x="166.2225" y="-1093.4" font-family="Arial" font-size="14.00" fill="#333333">リポジトリ</text>
<polygon fill="none" stroke="#000000" points="97,-1054 97,-1084 301,-1084 301,-1054 97,-1054"/>
<text text-anchor="start" x="104" y="-1065.4" font-family="Arial" font-size="14.00" fill="#000000">id </text>
<text text-anchor="start" x="118.7798" y="-1065.4" font-family="Arial" font-size="14.00" fill="#666666">[int(11)]</text>
<polygon fill="none" stroke="#000000" points="97,-1024 97,-1054 301,-1054 301,-1024 97,-1024"/>
<text text-anchor="start" x="104" y="-1035.4" font-family="Arial" font-size="14.00" fill="#000000">project_id </text>
<text text-anchor="start" x="168.568" y="-1035.4" font-family="Arial" font-size="14.00" fill="#666666">[int(11)]</text>
<polygon fill="none" stroke="#000000" points="97,-994 97,-1024 301,-1024 301,-994 97,-994"/>
<text text-anchor="start" x="104" y="-1005.4" font-family="Arial" font-size="14.00" fill="#000000">url </text>
<text text-anchor="start" x="123.4404" y="-1005.4" font-family="Arial" font-size="14.00" fill="#666666">[varchar(255)]</text>
<polygon fill="none" stroke="#000000" points="97,-964 97,-994 301,-994 301,-964 97,-964"/>
<text text-anchor="start" x="104" y="-975.4" font-family="Arial" font-size="14.00" fill="#000000">login </text>
<text text-anchor="start" x="137.4516" y="-975.4" font-family="Arial" font-size="14.00" fill="#666666">[varchar(60)]</text>
<polygon fill="none" stroke="#000000" points="97,-934 97,-964 301,-964 301,-934 97,-934"/>
<text text-anchor="start" x="104" y="-945.4" font-family="Arial" font-size="14.00" fill="#000000">password </text>
<text text-anchor="start" x="167.7882" y="-945.4" font-family="Arial" font-size="14.00" fill="#666666">[varchar(255)]</text>
<polygon fill="none" stroke="#000000" points="97,-904 97,-934 301,-934 301,-904 97,-904"/>
<text text-anchor="start" x="104" y="-915.4" font-family="Arial" font-size="14.00" fill="#000000">root_url </text>
<text text-anchor="start" x="155.3394" y="-915.4" font-family="Arial" font-size="14.00" fill="#666666">[varchar(255)]</text>
<polygon fill="none" stroke="#000000" points="97,-874 97,-904 301,-904 301,-874 97,-874"/>
<text text-anchor="start" x="104" y="-885.4" font-family="Arial" font-size="14.00" fill="#000000">type </text>
<text text-anchor="start" x="134.3464" y="-885.4" font-family="Arial" font-size="14.00" fill="#666666">[varchar(255)]</text>
<polygon fill="none" stroke="#000000" points="97,-844 97,-874 301,-874 301,-844 97,-844"/>
<text text-anchor="start" x="104" y="-855.4" font-family="Arial" font-size="14.00" fill="#000000">path_encoding </text>
<text text-anchor="start" x="199.7138" y="-855.4" font-family="Arial" font-size="14.00" fill="#666666">[varchar(64)]</text>
<polygon fill="none" stroke="#000000" points="97,-814 97,-844 301,-844 301,-814 97,-814"/>
<text text-anchor="start" x="104" y="-825.4" font-family="Arial" font-size="14.00" fill="#000000">log_encoding </text>
<text text-anchor="start" x="191.1472" y="-825.4" font-family="Arial" font-size="14.00" fill="#666666">[varchar(64)]</text>
<polygon fill="none" stroke="#000000" points="97,-784 97,-814 301,-814 301,-784 97,-784"/>
<text text-anchor="start" x="104" y="-795.4" font-family="Arial" font-size="14.00" fill="#000000">extra_info </text>
<text text-anchor="start" x="169.352" y="-795.4" font-family="Arial" font-size="14.00" fill="#666666">[longtext]</text>
<polygon fill="none" stroke="#000000" points="97,-754 97,-784 301,-784 301,-754 97,-754"/>
<text text-anchor="start" x="104" y="-765.4" font-family="Arial" font-size="14.00" fill="#000000">identifier </text>
<text text-anchor="start" x="160.7826" y="-765.4" font-family="Arial" font-size="14.00" fill="#666666">[varchar(255)]</text>
<polygon fill="none" stroke="#000000" points="97,-724 97,-754 301,-754 301,-724 97,-724"/>
<text text-anchor="start" x="104" y="-735.4" font-family="Arial" font-size="14.00" fill="#000000">is_default </text>
<text text-anchor="start" x="167.798" y="-735.4" font-family="Arial" font-size="14.00" fill="#666666">[tinyint(1)]</text>
<polygon fill="none" stroke="#000000" points="97,-694 97,-724 301,-724 301,-694 97,-694"/>
<text text-anchor="start" x="104" y="-705.4" font-family="Arial" font-size="14.00" fill="#000000">created_on </text>
<text text-anchor="start" x="177.92" y="-705.4" font-family="Arial" font-size="14.00" fill="#666666">[timestamp]</text>
<polygon fill="none" stroke="#000000" stroke-width="3" points="95.5,-692.5 95.5,-1131.5 302.5,-1131.5 302.5,-692.5 95.5,-692.5"/>
</g>
<!-- projects -->
<g id="node3" class="node">
<title>projects</title>
<polygon fill="#efefef" stroke="transparent" points="94,-523 94,-569 303,-569 303,-523 94,-523"/>
<polygon fill="none" stroke="#000000" points="94,-523 94,-569 303,-569 303,-523 94,-523"/>
<text text-anchor="start" x="118.3695" y="-546.8" font-family="Arial Bold" font-size="18.00" fill="#000000">projects</text>
<text text-anchor="start" x="181.3767" y="-546.8" font-family="Arial" font-size="14.00" fill="#000000"> </text>
<text text-anchor="start" x="185.2673" y="-546.8" font-family="Arial" font-size="14.00" fill="#666666">[BASE TABLE]</text>
<text text-anchor="start" x="156.1269" y="-532.4" font-family="Arial" font-size="14.00" fill="#333333">プロジェクト</text>
<polygon fill="none" stroke="#000000" points="94,-493 94,-523 303,-523 303,-493 94,-493"/>
<text text-anchor="start" x="101" y="-504.4" font-family="Arial" font-size="14.00" fill="#000000">id </text>
<text text-anchor="start" x="115.7798" y="-504.4" font-family="Arial" font-size="14.00" fill="#666666">[int(11)]</text>
<polygon fill="none" stroke="#000000" points="94,-463 94,-493 303,-493 303,-463 94,-463"/>
<text text-anchor="start" x="101" y="-474.4" font-family="Arial" font-size="14.00" fill="#000000">name </text>
<text text-anchor="start" x="139.899" y="-474.4" font-family="Arial" font-size="14.00" fill="#666666">[varchar(255)]</text>
<polygon fill="none" stroke="#000000" points="94,-433 94,-463 303,-463 303,-433 94,-433"/>
<text text-anchor="start" x="101" y="-444.4" font-family="Arial" font-size="14.00" fill="#000000">description </text>
<text text-anchor="start" x="172.568" y="-444.4" font-family="Arial" font-size="14.00" fill="#666666">[text]</text>
<polygon fill="none" stroke="#000000" points="94,-403 94,-433 303,-433 303,-403 94,-403"/>
<text text-anchor="start" x="101" y="-414.4" font-family="Arial" font-size="14.00" fill="#000000">homepage </text>
<text text-anchor="start" x="171.0294" y="-414.4" font-family="Arial" font-size="14.00" fill="#666666">[varchar(255)]</text>
<polygon fill="none" stroke="#000000" points="94,-373 94,-403 303,-403 303,-373 94,-373"/>
<text text-anchor="start" x="101" y="-384.4" font-family="Arial" font-size="14.00" fill="#000000">is_public </text>
<text text-anchor="start" x="159.3408" y="-384.4" font-family="Arial" font-size="14.00" fill="#666666">[tinyint(1)]</text>
<polygon fill="none" stroke="#000000" points="94,-343 94,-373 303,-373 303,-343 94,-343"/>
<text text-anchor="start" x="101" y="-354.4" font-family="Arial" font-size="14.00" fill="#000000">parent_id </text>
<text text-anchor="start" x="163.244" y="-354.4" font-family="Arial" font-size="14.00" fill="#666666">[int(11)]</text>
<polygon fill="none" stroke="#000000" points="94,-313 94,-343 303,-343 303,-313 94,-313"/>
<text text-anchor="start" x="101" y="-324.4" font-family="Arial" font-size="14.00" fill="#000000">created_on </text>
<text text-anchor="start" x="174.92" y="-324.4" font-family="Arial" font-size="14.00" fill="#666666">[timestamp]</text>
<polygon fill="none" stroke="#000000" points="94,-283 94,-313 303,-313 303,-283 94,-283"/>
<text text-anchor="start" x="101" y="-294.4" font-family="Arial" font-size="14.00" fill="#000000">updated_on </text>
<text text-anchor="start" x="178.8246" y="-294.4" font-family="Arial" font-size="14.00" fill="#666666">[timestamp]</text>
<polygon fill="none" stroke="#000000" points="94,-253 94,-283 303,-283 303,-253 94,-253"/>
<text text-anchor="start" x="101" y="-264.4" font-family="Arial" font-size="14.00" fill="#000000">identifier </text>
<text text-anchor="start" x="157.7826" y="-264.4" font-family="Arial" font-size="14.00" fill="#666666">[varchar(255)]</text>
<polygon fill="none" stroke="#000000" points="94,-223 94,-253 303,-253 303,-223 94,-223"/>
<text text-anchor="start" x="101" y="-234.4" font-family="Arial" font-size="14.00" fill="#000000">status </text>
<text text-anchor="start" x="142.237" y="-234.4" font-family="Arial" font-size="14.00" fill="#666666">[int(11)]</text>
<polygon fill="none" stroke="#000000" points="94,-193 94,-223 303,-223 303,-193 94,-193"/>
<text text-anchor="start" x="101" y="-204.4" font-family="Arial" font-size="14.00" fill="#000000">lft </text>
<text text-anchor="start" x="115.7784" y="-204.4" font-family="Arial" font-size="14.00" fill="#666666">[int(11)]</text>
<polygon fill="none" stroke="#000000" points="94,-163 94,-193 303,-193 303,-163 94,-163"/>
<text text-anchor="start" x="101" y="-174.4" font-family="Arial" font-size="14.00" fill="#000000">rgt </text>
<text text-anchor="start" x="121.2244" y="-174.4" font-family="Arial" font-size="14.00" fill="#666666">[int(11)]</text>
<polygon fill="none" stroke="#000000" points="94,-133 94,-163 303,-163 303,-133 94,-133"/>
<text text-anchor="start" x="101" y="-144.4" font-family="Arial" font-size="14.00" fill="#000000">inherit_members </text>
<text text-anchor="start" x="209.115" y="-144.4" font-family="Arial" font-size="14.00" fill="#666666">[tinyint(1)]</text>
<polygon fill="none" stroke="#000000" points="94,-103 94,-133 303,-133 303,-103 94,-103"/>
<text text-anchor="start" x="101" y="-114.4" font-family="Arial" font-size="14.00" fill="#000000">default_version_id </text>
<text text-anchor="start" x="218.4782" y="-114.4" font-family="Arial" font-size="14.00" fill="#666666">[int(11)]</text>
<polygon fill="none" stroke="#000000" points="94,-73 94,-103 303,-103 303,-73 94,-73"/>
<text text-anchor="start" x="100.857" y="-84.4" font-family="Arial" font-size="14.00" fill="#000000">default_assigned_to_id </text>
<text text-anchor="start" x="248.6956" y="-84.4" font-family="Arial" font-size="14.00" fill="#666666">[int(11)]</text>
<polygon fill="none" stroke="#000000" points="94,-43 94,-73 303,-73 303,-43 94,-43"/>
<text text-anchor="start" x="100.8633" y="-54.4" font-family="Arial" font-size="14.00" fill="#000000">default_issue_query_id </text>
<text text-anchor="start" x="248.6893" y="-54.4" font-family="Arial" font-size="14.00" fill="#666666">[int(11)]</text>
</g>
<!-- repositories&#45;&gt;projects -->
<g id="edge2" class="edge">
<title>repositories:project_id&#45;&gt;projects:id</title>
<path fill="none" stroke="#000000" stroke-dasharray="5,2" d="M86.8971,-1037.4026C12.6949,-1012.8163 43.3911,-711.7899 97,-648 156.7969,-576.847 243.2031,-683.153 303,-612 332.738,-576.6144 349.2222,-508 303,-508"/>
<polygon fill="#000000" stroke="#000000" points="87.1227,-1037.4382 96.2972,-1043.4448 92.0614,-1038.2191 97,-1039 97,-1039 97,-1039 92.0614,-1038.2191 97.7028,-1034.5552 87.1227,-1037.4382 87.1227,-1037.4382"/>
<text text-anchor="start" x="7.3245" y="-1049" font-family="Arial" font-size="10.00" fill="#000000">Additional Relation</text>
</g>
<!-- changesets -->
<g id="node2" class="node">
<title>changesets</title>
<polygon fill="#efefef" stroke="transparent" points="97,-1524.5 97,-1559.5 300,-1559.5 300,-1524.5 97,-1524.5"/>
<polygon fill="none" stroke="#000000" points="97,-1524.5 97,-1559.5 300,-1559.5 300,-1524.5 97,-1524.5"/>
<text text-anchor="start" x="103.8534" y="-1537.3" font-family="Arial Bold" font-size="18.00" fill="#000000">changesets</text>
<text text-anchor="start" x="195.8928" y="-1537.3" font-family="Arial" font-size="14.00" fill="#000000"> </text>
<text text-anchor="start" x="199.7834" y="-1537.3" font-family="Arial" font-size="14.00" fill="#666666">[BASE TABLE]</text>
<polygon fill="none" stroke="#000000" points="97,-1494.5 97,-1524.5 300,-1524.5 300,-1494.5 97,-1494.5"/>
<text text-anchor="start" x="104" y="-1505.9" font-family="Arial" font-size="14.00" fill="#000000">id </text>
<text text-anchor="start" x="118.7798" y="-1505.9" font-family="Arial" font-size="14.00" fill="#666666">[int(11)]</text>
<polygon fill="none" stroke="#000000" points="97,-1464.5 97,-1494.5 300,-1494.5 300,-1464.5 97,-1464.5"/>
<text text-anchor="start" x="104" y="-1475.9" font-family="Arial" font-size="14.00" fill="#000000">repository_id </text>
<text text-anchor="start" x="188.0112" y="-1475.9" font-family="Arial" font-size="14.00" fill="#666666">[int(11)]</text>
<polygon fill="none" stroke="#000000" points="97,-1434.5 97,-1464.5 300,-1464.5 300,-1434.5 97,-1434.5"/>
<text text-anchor="start" x="104" y="-1445.9" font-family="Arial" font-size="14.00" fill="#000000">revision </text>
<text text-anchor="start" x="156.1122" y="-1445.9" font-family="Arial" font-size="14.00" fill="#666666">[varchar(255)]</text>
<polygon fill="none" stroke="#000000" points="97,-1404.5 97,-1434.5 300,-1434.5 300,-1404.5 97,-1404.5"/>
<text text-anchor="start" x="104" y="-1415.9" font-family="Arial" font-size="14.00" fill="#000000">committer </text>
<text text-anchor="start" x="169.3254" y="-1415.9" font-family="Arial" font-size="14.00" fill="#666666">[varchar(255)]</text>
<polygon fill="none" stroke="#000000" points="97,-1374.5 97,-1404.5 300,-1404.5 300,-1374.5 97,-1374.5"/>
<text text-anchor="start" x="104" y="-1385.9" font-family="Arial" font-size="14.00" fill="#000000">committed_on </text>
<text text-anchor="start" x="195.7952" y="-1385.9" font-family="Arial" font-size="14.00" fill="#666666">[datetime]</text>
<polygon fill="none" stroke="#000000" points="97,-1344.5 97,-1374.5 300,-1374.5 300,-1344.5 97,-1344.5"/>
<text text-anchor="start" x="104" y="-1355.9" font-family="Arial" font-size="14.00" fill="#000000">comments </text>
<text text-anchor="start" x="172.4502" y="-1355.9" font-family="Arial" font-size="14.00" fill="#666666">[longtext]</text>
<polygon fill="none" stroke="#000000" points="97,-1314.5 97,-1344.5 300,-1344.5 300,-1314.5 97,-1314.5"/>
<text text-anchor="start" x="104" y="-1325.9" font-family="Arial" font-size="14.00" fill="#000000">commit_date </text>
<text text-anchor="start" x="188.0126" y="-1325.9" font-family="Arial" font-size="14.00" fill="#666666">[date]</text>
<polygon fill="none" stroke="#000000" points="97,-1284.5 97,-1314.5 300,-1314.5 300,-1284.5 97,-1284.5"/>
<text text-anchor="start" x="104" y="-1295.9" font-family="Arial" font-size="14.00" fill="#000000">scmid </text>
<text text-anchor="start" x="144.4404" y="-1295.9" font-family="Arial" font-size="14.00" fill="#666666">[varchar(255)]</text>
<polygon fill="none" stroke="#000000" points="97,-1254.5 97,-1284.5 300,-1284.5 300,-1254.5 97,-1254.5"/>
<text text-anchor="start" x="104" y="-1265.9" font-family="Arial" font-size="14.00" fill="#000000">user_id </text>
<text text-anchor="start" x="153.7882" y="-1265.9" font-family="Arial" font-size="14.00" fill="#666666">[int(11)]</text>
</g>
<!-- changesets&#45;&gt;repositories -->
<g id="edge1" class="edge">
<title>changesets:repository_id&#45;&gt;repositories:id</title>
<path fill="none" stroke="#000000" stroke-dasharray="5,2" d="M310.0368,-1479.0524C416.3688,-1469.2379 374.138,-1300.4424 300,-1212 241.1359,-1141.7785 155.8641,-1246.2215 97,-1176 66.4498,-1139.5553 49.4444,-1069 97,-1069"/>
<polygon fill="#000000" stroke="#000000" points="309.9901,-1479.0544 299.7995,-1475.0045 304.995,-1479.2772 300,-1479.5 300,-1479.5 300,-1479.5 304.995,-1479.2772 300.2005,-1483.9955 309.9901,-1479.0544 309.9901,-1479.0544"/>
<text text-anchor="start" x="307.268" y="-1489.5" font-family="Arial" font-size="10.00" fill="#000000">Detected Relation</text>
</g>
</g>
</svg>
