<?xml version="1.0" encoding="UTF-8" standalone="no"?>
<!DOCTYPE svg PUBLIC "-//W3C//DTD SVG 1.1//EN"
 "http://www.w3.org/Graphics/SVG/1.1/DTD/svg11.dtd">
<!-- Generated by graphviz version 2.40.1 (20161225.0304)
 -->
<!-- Title: roles Pages: 1 -->
<svg width="2212pt" height="944pt"
 viewBox="0.00 0.00 2212.00 944.00" xmlns="http://www.w3.org/2000/svg" xmlns:xlink="http://www.w3.org/1999/xlink">
<g id="graph0" class="graph" transform="scale(1 1) rotate(0) translate(4 940)">
<title>roles</title>
<polygon fill="#ffffff" stroke="transparent" points="-4,4 -4,-940 2208,-940 2208,4 -4,4"/>
<!-- roles -->
<g id="node1" class="node">
<title>roles</title>
<polygon fill="#efefef" stroke="transparent" points="1219,-376 1219,-422 1448,-422 1448,-376 1219,-376"/>
<polygon fill="none" stroke="#000000" points="1219,-376 1219,-422 1448,-422 1448,-376 1219,-376"/>
<text text-anchor="start" x="1265.3737" y="-399.8" font-family="Arial Bold" font-size="18.00" fill="#000000">roles</text>
<text text-anchor="start" x="1304.3725" y="-399.8" font-family="Arial" font-size="14.00" fill="#000000"> </text>
<text text-anchor="start" x="1308.2631" y="-399.8" font-family="Arial" font-size="14.00" fill="#666666">[BASE TABLE]</text>
<text text-anchor="start" x="1306.6746" y="-385.4" font-family="Arial" font-size="14.00" fill="#333333">ロール</text>
<polygon fill="none" stroke="#000000" points="1219,-346 1219,-376 1448,-376 1448,-346 1219,-346"/>
<text text-anchor="start" x="1226" y="-357.4" font-family="Arial" font-size="14.00" fill="#000000">id </text>
<text text-anchor="start" x="1240.7798" y="-357.4" font-family="Arial" font-size="14.00" fill="#666666">[int(11)]</text>
<polygon fill="none" stroke="#000000" points="1219,-316 1219,-346 1448,-346 1448,-316 1219,-316"/>
<text text-anchor="start" x="1226" y="-327.4" font-family="Arial" font-size="14.00" fill="#000000">name </text>
<text text-anchor="start" x="1264.899" y="-327.4" font-family="Arial" font-size="14.00" fill="#666666">[varchar(255)]</text>
<polygon fill="none" stroke="#000000" points="1219,-286 1219,-316 1448,-316 1448,-286 1219,-286"/>
<text text-anchor="start" x="1226" y="-297.4" font-family="Arial" font-size="14.00" fill="#000000">position </text>
<text text-anchor="start" x="1278.1248" y="-297.4" font-family="Arial" font-size="14.00" fill="#666666">[int(11)]</text>
<polygon fill="none" stroke="#000000" points="1219,-256 1219,-286 1448,-286 1448,-256 1219,-256"/>
<text text-anchor="start" x="1226" y="-267.4" font-family="Arial" font-size="14.00" fill="#000000">assignable </text>
<text text-anchor="start" x="1296.7994" y="-267.4" font-family="Arial" font-size="14.00" fill="#666666">[tinyint(1)]</text>
<polygon fill="none" stroke="#000000" points="1219,-226 1219,-256 1448,-256 1448,-226 1219,-226"/>
<text text-anchor="start" x="1226" y="-237.4" font-family="Arial" font-size="14.00" fill="#000000">builtin </text>
<text text-anchor="start" x="1266.4488" y="-237.4" font-family="Arial" font-size="14.00" fill="#666666">[int(11)]</text>
<polygon fill="none" stroke="#000000" points="1219,-196 1219,-226 1448,-226 1448,-196 1219,-196"/>
<text text-anchor="start" x="1226" y="-207.4" font-family="Arial" font-size="14.00" fill="#000000">permissions </text>
<text text-anchor="start" x="1304.5554" y="-207.4" font-family="Arial" font-size="14.00" fill="#666666">[text]</text>
<polygon fill="none" stroke="#000000" points="1219,-166 1219,-196 1448,-196 1448,-166 1219,-166"/>
<text text-anchor="start" x="1226" y="-177.4" font-family="Arial" font-size="14.00" fill="#000000">issues_visibility </text>
<text text-anchor="start" x="1325.5512" y="-177.4" font-family="Arial" font-size="14.00" fill="#666666">[varchar(30)]</text>
<polygon fill="none" stroke="#000000" points="1219,-136 1219,-166 1448,-166 1448,-136 1219,-136"/>
<text text-anchor="start" x="1226" y="-147.4" font-family="Arial" font-size="14.00" fill="#000000">users_visibility </text>
<text text-anchor="start" x="1320.1052" y="-147.4" font-family="Arial" font-size="14.00" fill="#666666">[varchar(30)]</text>
<polygon fill="none" stroke="#000000" points="1219,-106 1219,-136 1448,-136 1448,-106 1219,-106"/>
<text text-anchor="start" x="1225.7777" y="-117.4" font-family="Arial" font-size="14.00" fill="#000000">time_entries_visibility </text>
<text text-anchor="start" x="1361.8857" y="-117.4" font-family="Arial" font-size="14.00" fill="#666666">[varchar(30)]</text>
<polygon fill="none" stroke="#000000" points="1219,-76 1219,-106 1448,-106 1448,-76 1219,-76"/>
<text text-anchor="start" x="1226" y="-87.4" font-family="Arial" font-size="14.00" fill="#000000">all_roles_managed </text>
<text text-anchor="start" x="1348.1402" y="-87.4" font-family="Arial" font-size="14.00" fill="#666666">[tinyint(1)]</text>
<polygon fill="none" stroke="#000000" points="1219,-46 1219,-76 1448,-76 1448,-46 1219,-46"/>
<text text-anchor="start" x="1226" y="-57.4" font-family="Arial" font-size="14.00" fill="#000000">settings </text>
<text text-anchor="start" x="1278.1262" y="-57.4" font-family="Arial" font-size="14.00" fill="#666666">[text]</text>
<polygon fill="none" stroke="#000000" stroke-width="3" points="1217,-44.5 1217,-423.5 1449,-423.5 1449,-44.5 1217,-44.5"/>
</g>
<!-- workflows -->
<g id="node2" class="node">
<title>workflows</title>
<polygon fill="#efefef" stroke="transparent" points="43,-847 43,-893 745,-893 745,-847 43,-847"/>
<polygon fill="none" stroke="#000000" points="43,-847 43,-893 745,-893 745,-847 43,-847"/>
<text text-anchor="start" x="305.8784" y="-870.8" font-family="Arial Bold" font-size="18.00" fill="#000000">workflows</text>
<text text-anchor="start" x="384.8678" y="-870.8" font-family="Arial" font-size="14.00" fill="#000000"> </text>
<text text-anchor="start" x="388.7584" y="-870.8" font-family="Arial" font-size="14.00" fill="#666666">[BASE TABLE]</text>
<text text-anchor="start" x="341.5168" y="-856.4" font-family="Arial" font-size="14.00" fill="#333333">ワークフロー</text>
<polygon fill="none" stroke="#000000" points="43,-817 43,-847 745,-847 745,-817 43,-817"/>
<text text-anchor="start" x="50" y="-828.4" font-family="Arial" font-size="14.00" fill="#000000">id </text>
<text text-anchor="start" x="64.7798" y="-828.4" font-family="Arial" font-size="14.00" fill="#666666">[int(11)]</text>
<polygon fill="none" stroke="#000000" points="43,-787 43,-817 745,-817 745,-787 43,-787"/>
<text text-anchor="start" x="50" y="-798.4" font-family="Arial" font-size="14.00" fill="#000000">tracker_id </text>
<text text-anchor="start" x="115.3394" y="-798.4" font-family="Arial" font-size="14.00" fill="#666666">[int(11)]</text>
<polygon fill="none" stroke="#000000" points="43,-757 43,-787 745,-787 745,-757 43,-757"/>
<text text-anchor="start" x="50" y="-768.4" font-family="Arial" font-size="14.00" fill="#000000">old_status_id </text>
<text text-anchor="start" x="136.3632" y="-768.4" font-family="Arial" font-size="14.00" fill="#666666">[int(11)]</text>
<polygon fill="none" stroke="#000000" points="43,-727 43,-757 745,-757 745,-727 43,-727"/>
<text text-anchor="start" x="50" y="-738.4" font-family="Arial" font-size="14.00" fill="#000000">new_status_id </text>
<text text-anchor="start" x="143.3632" y="-738.4" font-family="Arial" font-size="14.00" fill="#666666">[int(11)]</text>
<polygon fill="none" stroke="#000000" points="43,-697 43,-727 745,-727 745,-697 43,-697"/>
<text text-anchor="start" x="50" y="-708.4" font-family="Arial" font-size="14.00" fill="#000000">role_id </text>
<text text-anchor="start" x="95.8948" y="-708.4" font-family="Arial" font-size="14.00" fill="#666666">[int(11)]</text>
<polygon fill="none" stroke="#000000" points="43,-667 43,-697 745,-697 745,-667 43,-667"/>
<text text-anchor="start" x="50" y="-678.4" font-family="Arial" font-size="14.00" fill="#000000">assignee </text>
<text text-anchor="start" x="109.9102" y="-678.4" font-family="Arial" font-size="14.00" fill="#666666">[tinyint(1)]</text>
<polygon fill="none" stroke="#000000" points="43,-637 43,-667 745,-667 745,-637 43,-637"/>
<text text-anchor="start" x="50" y="-648.4" font-family="Arial" font-size="14.00" fill="#000000">author </text>
<text text-anchor="start" x="93.5722" y="-648.4" font-family="Arial" font-size="14.00" fill="#666666">[tinyint(1)]</text>
<polygon fill="none" stroke="#000000" points="43,-607 43,-637 745,-637 745,-607 43,-607"/>
<text text-anchor="start" x="49.8205" y="-618.4" font-family="Arial" font-size="14.00" fill="#000000">type </text>
<text text-anchor="start" x="80.1669" y="-618.4" font-family="Arial" font-size="14.00" fill="#666666">[varchar(30)]</text>
<text text-anchor="start" x="159.5035" y="-618.4" font-family="Arial" font-size="14.00" fill="#000000"> WorkflowTransition:ステータスの遷移 WorkflowPermission:フィールドに対する権限 &#160;</text>
<polygon fill="none" stroke="#000000" points="43,-577 43,-607 745,-607 745,-577 43,-577"/>
<text text-anchor="start" x="50" y="-588.4" font-family="Arial" font-size="14.00" fill="#000000">field_name </text>
<text text-anchor="start" x="122.3506" y="-588.4" font-family="Arial" font-size="14.00" fill="#666666">[varchar(30)]</text>
<polygon fill="none" stroke="#000000" points="43,-547 43,-577 745,-577 745,-547 43,-547"/>
<text text-anchor="start" x="50" y="-558.4" font-family="Arial" font-size="14.00" fill="#000000">rule </text>
<text text-anchor="start" x="77.223" y="-558.4" font-family="Arial" font-size="14.00" fill="#666666">[varchar(30)]</text>
</g>
<!-- workflows&#45;&gt;roles -->
<g id="edge1" class="edge">
<title>workflows:role_id&#45;&gt;roles:id</title>
<path fill="none" stroke="#000000" stroke-dasharray="5,2" d="M755.2592,-711.3809C832.1261,-701.3283 734.9517,-571.3393 797,-504 864.0955,-431.1831 1119.9844,-361 1219,-361"/>
<polygon fill="#000000" stroke="#000000" points="754.9818,-711.3975 744.7289,-707.5082 749.9909,-711.6988 745,-712 745,-712 745,-712 749.9909,-711.6988 745.2711,-716.4918 754.9818,-711.3975 754.9818,-711.3975"/>
<text text-anchor="start" x="752.3245" y="-722" font-family="Arial" font-size="10.00" fill="#000000">Additional Relation</text>
</g>
<!-- custom_fields_roles -->
<g id="node3" class="node">
<title>custom_fields_roles</title>
<polygon fill="#efefef" stroke="transparent" points="849,-727 849,-773 1119,-773 1119,-727 849,-727"/>
<polygon fill="none" stroke="#000000" points="849,-727 849,-773 1119,-773 1119,-727 849,-727"/>
<text text-anchor="start" x="855.8626" y="-750.8" font-family="Arial Bold" font-size="18.00" fill="#000000">custom_fields_roles</text>
<text text-anchor="start" x="1014.8836" y="-750.8" font-family="Arial" font-size="14.00" fill="#000000"> </text>
<text text-anchor="start" x="1018.7742" y="-750.8" font-family="Arial" font-size="14.00" fill="#666666">[BASE TABLE]</text>
<text text-anchor="start" x="879.4109" y="-736.4" font-family="Arial" font-size="14.00" fill="#333333">カスタムフィールド⇔ロール</text>
<polygon fill="none" stroke="#000000" points="849,-697 849,-727 1119,-727 1119,-697 849,-697"/>
<text text-anchor="start" x="856" y="-708.4" font-family="Arial" font-size="14.00" fill="#000000">custom_field_id </text>
<text text-anchor="start" x="957.1304" y="-708.4" font-family="Arial" font-size="14.00" fill="#666666">[int(11)]</text>
<polygon fill="none" stroke="#000000" points="849,-667 849,-697 1119,-697 1119,-667 849,-667"/>
<text text-anchor="start" x="856" y="-678.4" font-family="Arial" font-size="14.00" fill="#000000">role_id </text>
<text text-anchor="start" x="901.8948" y="-678.4" font-family="Arial" font-size="14.00" fill="#666666">[int(11)]</text>
</g>
<!-- custom_fields_roles&#45;&gt;roles -->
<g id="edge2" class="edge">
<title>custom_fields_roles:role_id&#45;&gt;roles:id</title>
<path fill="none" stroke="#000000" stroke-dasharray="5,2" d="M1129.0855,-679.7788C1189.1835,-651.4177 1147.9336,-361 1219,-361"/>
<polygon fill="#000000" stroke="#000000" points="1128.766,-679.8491 1118.0321,-677.6053 1123.883,-680.9245 1119,-682 1119,-682 1119,-682 1123.883,-680.9245 1119.9679,-686.3947 1128.766,-679.8491 1128.766,-679.8491"/>
<text text-anchor="start" x="1126.3245" y="-692" font-family="Arial" font-size="10.00" fill="#000000">Additional Relation</text>
</g>
<!-- queries_roles -->
<g id="node4" class="node">
<title>queries_roles</title>
<polygon fill="#efefef" stroke="transparent" points="1224,-732 1224,-767 1443,-767 1443,-732 1224,-732"/>
<polygon fill="none" stroke="#000000" points="1224,-732 1224,-767 1443,-767 1443,-732 1224,-732"/>
<text text-anchor="start" x="1230.865" y="-744.8" font-family="Arial Bold" font-size="18.00" fill="#000000">queries_roles</text>
<text text-anchor="start" x="1338.8812" y="-744.8" font-family="Arial" font-size="14.00" fill="#000000"> </text>
<text text-anchor="start" x="1342.7718" y="-744.8" font-family="Arial" font-size="14.00" fill="#666666">[BASE TABLE]</text>
<polygon fill="none" stroke="#000000" points="1224,-702 1224,-732 1443,-732 1443,-702 1224,-702"/>
<text text-anchor="start" x="1231" y="-713.4" font-family="Arial" font-size="14.00" fill="#000000">query_id </text>
<text text-anchor="start" x="1288.5708" y="-713.4" font-family="Arial" font-size="14.00" fill="#666666">[int(11)]</text>
<polygon fill="none" stroke="#000000" points="1224,-672 1224,-702 1443,-702 1443,-672 1224,-672"/>
<text text-anchor="start" x="1231" y="-683.4" font-family="Arial" font-size="14.00" fill="#000000">role_id </text>
<text text-anchor="start" x="1276.8948" y="-683.4" font-family="Arial" font-size="14.00" fill="#666666">[int(11)]</text>
</g>
<!-- queries_roles&#45;&gt;roles -->
<g id="edge3" class="edge">
<title>queries_roles:role_id&#45;&gt;roles:id</title>
<path fill="none" stroke="#000000" stroke-dasharray="5,2" d="M1333.7126,-661.9718C1328.1863,-567.8574 1244.5438,-565.3287 1219,-468 1206.928,-422.0022 1171.4444,-361 1219,-361"/>
<polygon fill="#000000" stroke="#000000" points="1333.7134,-662.0041 1329.5018,-672.129 1333.8567,-667.0021 1334,-672 1334,-672 1334,-672 1333.8567,-667.0021 1338.4982,-671.871 1333.7134,-662.0041 1333.7134,-662.0041"/>
<text text-anchor="start" x="1317.0745" y="-656" font-family="Arial" font-size="10.00" fill="#000000">Additional Relation</text>
</g>
<!-- member_roles -->
<g id="node5" class="node">
<title>member_roles</title>
<polygon fill="#efefef" stroke="transparent" points="1547,-762 1547,-797 1773,-797 1773,-762 1547,-762"/>
<polygon fill="none" stroke="#000000" points="1547,-762 1547,-797 1773,-797 1773,-762 1547,-762"/>
<text text-anchor="start" x="1553.873" y="-774.8" font-family="Arial Bold" font-size="18.00" fill="#000000">member_roles</text>
<text text-anchor="start" x="1668.8732" y="-774.8" font-family="Arial" font-size="14.00" fill="#000000"> </text>
<text text-anchor="start" x="1672.7638" y="-774.8" font-family="Arial" font-size="14.00" fill="#666666">[BASE TABLE]</text>
<polygon fill="none" stroke="#000000" points="1547,-732 1547,-762 1773,-762 1773,-732 1547,-732"/>
<text text-anchor="start" x="1554" y="-743.4" font-family="Arial" font-size="14.00" fill="#000000">id </text>
<text text-anchor="start" x="1568.7798" y="-743.4" font-family="Arial" font-size="14.00" fill="#666666">[int(11)]</text>
<polygon fill="none" stroke="#000000" points="1547,-702 1547,-732 1773,-732 1773,-702 1547,-702"/>
<text text-anchor="start" x="1554" y="-713.4" font-family="Arial" font-size="14.00" fill="#000000">member_id </text>
<text text-anchor="start" x="1627.892" y="-713.4" font-family="Arial" font-size="14.00" fill="#666666">[int(11)]</text>
<polygon fill="none" stroke="#000000" points="1547,-672 1547,-702 1773,-702 1773,-672 1547,-672"/>
<text text-anchor="start" x="1554" y="-683.4" font-family="Arial" font-size="14.00" fill="#000000">role_id </text>
<text text-anchor="start" x="1599.8948" y="-683.4" font-family="Arial" font-size="14.00" fill="#666666">[int(11)]</text>
<polygon fill="none" stroke="#000000" points="1547,-642 1547,-672 1773,-672 1773,-642 1547,-642"/>
<text text-anchor="start" x="1554" y="-653.4" font-family="Arial" font-size="14.00" fill="#000000">inherited_from </text>
<text text-anchor="start" x="1647.345" y="-653.4" font-family="Arial" font-size="14.00" fill="#666666">[int(11)]</text>
</g>
<!-- member_roles&#45;&gt;roles -->
<g id="edge4" class="edge">
<title>member_roles:role_id&#45;&gt;roles:id</title>
<path fill="none" stroke="#000000" stroke-dasharray="5,2" d="M1537.1713,-684.9182C1475.9218,-657.1538 1520.1623,-361 1448,-361"/>
<polygon fill="#000000" stroke="#000000" points="1537.217,-684.9278 1546.0675,-691.4023 1542.1085,-685.9639 1547,-687 1547,-687 1547,-687 1542.1085,-685.9639 1547.9325,-682.5977 1537.217,-684.9278 1537.217,-684.9278"/>
<text text-anchor="start" x="1457.3245" y="-697" font-family="Arial" font-size="10.00" fill="#000000">Additional Relation</text>
</g>
<!-- roles_managed_roles -->
<g id="node6" class="node">
<title>roles_managed_roles</title>
<polygon fill="#efefef" stroke="transparent" points="1877,-732 1877,-767 2161,-767 2161,-732 1877,-732"/>
<polygon fill="none" stroke="#000000" points="1877,-732 1877,-767 2161,-767 2161,-732 1877,-732"/>
<text text-anchor="start" x="1883.8534" y="-744.8" font-family="Arial Bold" font-size="18.00" fill="#000000">roles_managed_roles</text>
<text text-anchor="start" x="2056.8928" y="-744.8" font-family="Arial" font-size="14.00" fill="#000000"> </text>
<text text-anchor="start" x="2060.7834" y="-744.8" font-family="Arial" font-size="14.00" fill="#666666">[BASE TABLE]</text>
<polygon fill="none" stroke="#000000" points="1877,-702 1877,-732 2161,-732 2161,-702 1877,-702"/>
<text text-anchor="start" x="1884" y="-713.4" font-family="Arial" font-size="14.00" fill="#000000">role_id </text>
<text text-anchor="start" x="1929.8948" y="-713.4" font-family="Arial" font-size="14.00" fill="#666666">[int(11)]</text>
<polygon fill="none" stroke="#000000" points="1877,-672 1877,-702 2161,-702 2161,-672 1877,-672"/>
<text text-anchor="start" x="1884" y="-683.4" font-family="Arial" font-size="14.00" fill="#000000">managed_role_id </text>
<text text-anchor="start" x="1996.0336" y="-683.4" font-family="Arial" font-size="14.00" fill="#666666">[int(11)]</text>
</g>
<!-- roles_managed_roles&#45;&gt;roles -->
<g id="edge5" class="edge">
<title>roles_managed_roles:role_id&#45;&gt;roles:id</title>
<path fill="none" stroke="#000000" stroke-dasharray="5,2" d="M1866.9889,-716.4322C1787.4756,-706.7026 1887.1417,-574.3038 1825,-504 1706.3176,-369.7291 1627.2043,-361 1448,-361"/>
<polygon fill="#000000" stroke="#000000" points="1867.016,-716.4337 1876.7452,-721.4928 1872.008,-716.7168 1877,-717 1877,-717 1877,-717 1872.008,-716.7168 1877.2548,-712.5072 1867.016,-716.4337 1867.016,-716.4337"/>
<text text-anchor="start" x="1787.3245" y="-727" font-family="Arial" font-size="10.00" fill="#000000">Additional Relation</text>
</g>
</g>
</svg>
