<?xml version="1.0" encoding="UTF-8" standalone="no"?>
<!DOCTYPE svg PUBLIC "-//W3C//DTD SVG 1.1//EN"
 "http://www.w3.org/Graphics/SVG/1.1/DTD/svg11.dtd">
<!-- Generated by graphviz version 2.40.1 (20161225.0304)
 -->
<!-- Title: roles_managed_roles Pages: 1 -->
<svg width="435pt" height="693pt"
 viewBox="0.00 0.00 435.00 693.00" xmlns="http://www.w3.org/2000/svg" xmlns:xlink="http://www.w3.org/1999/xlink">
<g id="graph0" class="graph" transform="scale(1 1) rotate(0) translate(4 689)">
<title>roles_managed_roles</title>
<polygon fill="#ffffff" stroke="transparent" points="-4,4 -4,-689 431,-689 431,4 -4,4"/>
<!-- roles_managed_roles -->
<g id="node1" class="node">
<title>roles_managed_roles</title>
<polygon fill="#efefef" stroke="transparent" points="97,-603.5 97,-638.5 381,-638.5 381,-603.5 97,-603.5"/>
<polygon fill="none" stroke="#000000" points="97,-603.5 97,-638.5 381,-638.5 381,-603.5 97,-603.5"/>
<text text-anchor="start" x="103.8534" y="-616.3" font-family="Arial Bold" font-size="18.00" fill="#000000">roles_managed_roles</text>
<text text-anchor="start" x="276.8928" y="-616.3" font-family="Arial" font-size="14.00" fill="#000000"> </text>
<text text-anchor="start" x="280.7834" y="-616.3" font-family="Arial" font-size="14.00" fill="#666666">[BASE TABLE]</text>
<polygon fill="none" stroke="#000000" points="97,-573.5 97,-603.5 381,-603.5 381,-573.5 97,-573.5"/>
<text text-anchor="start" x="104" y="-584.9" font-family="Arial" font-size="14.00" fill="#000000">role_id </text>
<text text-anchor="start" x="149.8948" y="-584.9" font-family="Arial" font-size="14.00" fill="#666666">[int(11)]</text>
<polygon fill="none" stroke="#000000" points="97,-543.5 97,-573.5 381,-573.5 381,-543.5 97,-543.5"/>
<text text-anchor="start" x="104" y="-554.9" font-family="Arial" font-size="14.00" fill="#000000">managed_role_id </text>
<text text-anchor="start" x="216.0336" y="-554.9" font-family="Arial" font-size="14.00" fill="#666666">[int(11)]</text>
<polygon fill="none" stroke="#000000" stroke-width="3" points="95.5,-542.5 95.5,-640.5 382.5,-640.5 382.5,-542.5 95.5,-542.5"/>
</g>
<!-- roles -->
<g id="node2" class="node">
<title>roles</title>
<polygon fill="#efefef" stroke="transparent" points="124,-373 124,-419 353,-419 353,-373 124,-373"/>
<polygon fill="none" stroke="#000000" points="124,-373 124,-419 353,-419 353,-373 124,-373"/>
<text text-anchor="start" x="170.3737" y="-396.8" font-family="Arial Bold" font-size="18.00" fill="#000000">roles</text>
<text text-anchor="start" x="209.3725" y="-396.8" font-family="Arial" font-size="14.00" fill="#000000"> </text>
<text text-anchor="start" x="213.2631" y="-396.8" font-family="Arial" font-size="14.00" fill="#666666">[BASE TABLE]</text>
<text text-anchor="start" x="211.6746" y="-382.4" font-family="Arial" font-size="14.00" fill="#333333">ロール</text>
<polygon fill="none" stroke="#000000" points="124,-343 124,-373 353,-373 353,-343 124,-343"/>
<text text-anchor="start" x="131" y="-354.4" font-family="Arial" font-size="14.00" fill="#000000">id </text>
<text text-anchor="start" x="145.7798" y="-354.4" font-family="Arial" font-size="14.00" fill="#666666">[int(11)]</text>
<polygon fill="none" stroke="#000000" points="124,-313 124,-343 353,-343 353,-313 124,-313"/>
<text text-anchor="start" x="131" y="-324.4" font-family="Arial" font-size="14.00" fill="#000000">name </text>
<text text-anchor="start" x="169.899" y="-324.4" font-family="Arial" font-size="14.00" fill="#666666">[varchar(255)]</text>
<polygon fill="none" stroke="#000000" points="124,-283 124,-313 353,-313 353,-283 124,-283"/>
<text text-anchor="start" x="131" y="-294.4" font-family="Arial" font-size="14.00" fill="#000000">position </text>
<text text-anchor="start" x="183.1248" y="-294.4" font-family="Arial" font-size="14.00" fill="#666666">[int(11)]</text>
<polygon fill="none" stroke="#000000" points="124,-253 124,-283 353,-283 353,-253 124,-253"/>
<text text-anchor="start" x="131" y="-264.4" font-family="Arial" font-size="14.00" fill="#000000">assignable </text>
<text text-anchor="start" x="201.7994" y="-264.4" font-family="Arial" font-size="14.00" fill="#666666">[tinyint(1)]</text>
<polygon fill="none" stroke="#000000" points="124,-223 124,-253 353,-253 353,-223 124,-223"/>
<text text-anchor="start" x="131" y="-234.4" font-family="Arial" font-size="14.00" fill="#000000">builtin </text>
<text text-anchor="start" x="171.4488" y="-234.4" font-family="Arial" font-size="14.00" fill="#666666">[int(11)]</text>
<polygon fill="none" stroke="#000000" points="124,-193 124,-223 353,-223 353,-193 124,-193"/>
<text text-anchor="start" x="131" y="-204.4" font-family="Arial" font-size="14.00" fill="#000000">permissions </text>
<text text-anchor="start" x="209.5554" y="-204.4" font-family="Arial" font-size="14.00" fill="#666666">[text]</text>
<polygon fill="none" stroke="#000000" points="124,-163 124,-193 353,-193 353,-163 124,-163"/>
<text text-anchor="start" x="131" y="-174.4" font-family="Arial" font-size="14.00" fill="#000000">issues_visibility </text>
<text text-anchor="start" x="230.5512" y="-174.4" font-family="Arial" font-size="14.00" fill="#666666">[varchar(30)]</text>
<polygon fill="none" stroke="#000000" points="124,-133 124,-163 353,-163 353,-133 124,-133"/>
<text text-anchor="start" x="131" y="-144.4" font-family="Arial" font-size="14.00" fill="#000000">users_visibility </text>
<text text-anchor="start" x="225.1052" y="-144.4" font-family="Arial" font-size="14.00" fill="#666666">[varchar(30)]</text>
<polygon fill="none" stroke="#000000" points="124,-103 124,-133 353,-133 353,-103 124,-103"/>
<text text-anchor="start" x="130.7777" y="-114.4" font-family="Arial" font-size="14.00" fill="#000000">time_entries_visibility </text>
<text text-anchor="start" x="266.8857" y="-114.4" font-family="Arial" font-size="14.00" fill="#666666">[varchar(30)]</text>
<polygon fill="none" stroke="#000000" points="124,-73 124,-103 353,-103 353,-73 124,-73"/>
<text text-anchor="start" x="131" y="-84.4" font-family="Arial" font-size="14.00" fill="#000000">all_roles_managed </text>
<text text-anchor="start" x="253.1402" y="-84.4" font-family="Arial" font-size="14.00" fill="#666666">[tinyint(1)]</text>
<polygon fill="none" stroke="#000000" points="124,-43 124,-73 353,-73 353,-43 124,-43"/>
<text text-anchor="start" x="131" y="-54.4" font-family="Arial" font-size="14.00" fill="#000000">settings </text>
<text text-anchor="start" x="183.1262" y="-54.4" font-family="Arial" font-size="14.00" fill="#666666">[text]</text>
</g>
<!-- roles_managed_roles&#45;&gt;roles -->
<g id="edge1" class="edge">
<title>roles_managed_roles:role_id&#45;&gt;roles:id</title>
<path fill="none" stroke="#000000" stroke-dasharray="5,2" d="M87.0786,-586.9883C59.4822,-577.485 73.0869,-525.5112 97,-498 172.3758,-411.2828 277.6242,-548.7172 353,-462 383.3231,-427.1144 399.2222,-358 353,-358"/>
<polygon fill="#000000" stroke="#000000" points="87.1141,-586.9936 96.3221,-592.9487 92.057,-587.7468 97,-588.5 97,-588.5 97,-588.5 92.057,-587.7468 97.6779,-584.0513 87.1141,-586.9936 87.1141,-586.9936"/>
<text text-anchor="start" x="7.3245" y="-598.5" font-family="Arial" font-size="10.00" fill="#000000">Additional Relation</text>
</g>
</g>
</svg>
