<?xml version="1.0" encoding="UTF-8" standalone="no"?>
<!DOCTYPE svg PUBLIC "-//W3C//DTD SVG 1.1//EN"
 "http://www.w3.org/Graphics/SVG/1.1/DTD/svg11.dtd">
<!-- Generated by graphviz version 2.40.1 (20161225.0304)
 -->
<!-- Title: roles Pages: 1 -->
<svg width="2252pt" height="944pt"
 viewBox="0.00 0.00 2251.50 944.00" xmlns="http://www.w3.org/2000/svg" xmlns:xlink="http://www.w3.org/1999/xlink">
<g id="graph0" class="graph" transform="scale(1 1) rotate(0) translate(4 940)">
<title>roles</title>
<polygon fill="#ffffff" stroke="transparent" points="-4,4 -4,-940 2247.5,-940 2247.5,4 -4,4"/>
<!-- roles -->
<g id="node1" class="node">
<title>roles</title>
<polygon fill="#efefef" stroke="transparent" points="1236,-376 1236,-422 1757,-422 1757,-376 1236,-376"/>
<polygon fill="none" stroke="#000000" points="1236,-376 1236,-422 1757,-422 1757,-376 1236,-376"/>
<text text-anchor="start" x="1428.3737" y="-399.8" font-family="Arial Bold" font-size="18.00" fill="#000000">roles</text>
<text text-anchor="start" x="1467.3725" y="-399.8" font-family="Arial" font-size="14.00" fill="#000000"> </text>
<text text-anchor="start" x="1471.2631" y="-399.8" font-family="Arial" font-size="14.00" fill="#666666">[BASE TABLE]</text>
<text text-anchor="start" x="1469.6746" y="-385.4" font-family="Arial" font-size="14.00" fill="#333333">ロール</text>
<polygon fill="none" stroke="#000000" points="1236,-346 1236,-376 1757,-376 1757,-346 1236,-346"/>
<text text-anchor="start" x="1243" y="-357.4" font-family="Arial" font-size="14.00" fill="#000000">id </text>
<text text-anchor="start" x="1257.7798" y="-357.4" font-family="Arial" font-size="14.00" fill="#666666">[int(11)]</text>
<polygon fill="none" stroke="#000000" points="1236,-316 1236,-346 1757,-346 1757,-316 1236,-316"/>
<text text-anchor="start" x="1243" y="-327.4" font-family="Arial" font-size="14.00" fill="#000000">name </text>
<text text-anchor="start" x="1281.899" y="-327.4" font-family="Arial" font-size="14.00" fill="#666666">[varchar(255)]</text>
<text text-anchor="start" x="1369.0182" y="-327.4" font-family="Arial" font-size="14.00" fill="#000000"> 名称</text>
<polygon fill="none" stroke="#000000" points="1236,-286 1236,-316 1757,-316 1757,-286 1236,-286"/>
<text text-anchor="start" x="1243" y="-297.4" font-family="Arial" font-size="14.00" fill="#000000">position </text>
<text text-anchor="start" x="1295.1248" y="-297.4" font-family="Arial" font-size="14.00" fill="#666666">[int(11)]</text>
<text text-anchor="start" x="1342.5722" y="-297.4" font-family="Arial" font-size="14.00" fill="#000000"> 並び順</text>
<polygon fill="none" stroke="#000000" points="1236,-256 1236,-286 1757,-286 1757,-256 1236,-256"/>
<text text-anchor="start" x="1242.6933" y="-267.4" font-family="Arial" font-size="14.00" fill="#000000">assignable </text>
<text text-anchor="start" x="1313.4927" y="-267.4" font-family="Arial" font-size="14.00" fill="#666666">[tinyint(1)]</text>
<text text-anchor="start" x="1374.9373" y="-267.4" font-family="Arial" font-size="14.00" fill="#000000"> このロールのユーザーにチケットを割り当て可能</text>
<polygon fill="none" stroke="#000000" points="1236,-226 1236,-256 1757,-256 1757,-226 1236,-226"/>
<text text-anchor="start" x="1243" y="-237.4" font-family="Arial" font-size="14.00" fill="#000000">builtin </text>
<text text-anchor="start" x="1283.4488" y="-237.4" font-family="Arial" font-size="14.00" fill="#666666">[int(11)]</text>
<text text-anchor="start" x="1330.8962" y="-237.4" font-family="Arial" font-size="14.00" fill="#000000"> 1: 非メンバー 2: 匿名ユーザー 0: それ以外 </text>
<polygon fill="none" stroke="#000000" points="1236,-196 1236,-226 1757,-226 1757,-196 1236,-196"/>
<text text-anchor="start" x="1243" y="-207.4" font-family="Arial" font-size="14.00" fill="#000000">permissions </text>
<text text-anchor="start" x="1321.5554" y="-207.4" font-family="Arial" font-size="14.00" fill="#666666">[text]</text>
<text text-anchor="start" x="1351.9004" y="-207.4" font-family="Arial" font-size="14.00" fill="#000000"> 権限</text>
<polygon fill="none" stroke="#000000" points="1236,-166 1236,-196 1757,-196 1757,-166 1236,-166"/>
<text text-anchor="start" x="1243" y="-177.4" font-family="Arial" font-size="14.00" fill="#000000">issues_visibility </text>
<text text-anchor="start" x="1342.5512" y="-177.4" font-family="Arial" font-size="14.00" fill="#666666">[varchar(30)]</text>
<text text-anchor="start" x="1421.8878" y="-177.4" font-family="Arial" font-size="14.00" fill="#000000"> 表示できるチケット</text>
<polygon fill="none" stroke="#000000" points="1236,-136 1236,-166 1757,-166 1757,-136 1236,-136"/>
<text text-anchor="start" x="1243" y="-147.4" font-family="Arial" font-size="14.00" fill="#000000">users_visibility </text>
<text text-anchor="start" x="1337.1052" y="-147.4" font-family="Arial" font-size="14.00" fill="#666666">[varchar(30)]</text>
<text text-anchor="start" x="1416.4418" y="-147.4" font-family="Arial" font-size="14.00" fill="#000000"> 表示できるユーザー</text>
<polygon fill="none" stroke="#000000" points="1236,-106 1236,-136 1757,-136 1757,-106 1236,-106"/>
<text text-anchor="start" x="1243" y="-117.4" font-family="Arial" font-size="14.00" fill="#000000">time_entries_visibility </text>
<text text-anchor="start" x="1379.108" y="-117.4" font-family="Arial" font-size="14.00" fill="#666666">[varchar(30)]</text>
<text text-anchor="start" x="1458.4446" y="-117.4" font-family="Arial" font-size="14.00" fill="#000000"> 表示できる作業時間</text>
<polygon fill="none" stroke="#000000" points="1236,-76 1236,-106 1757,-106 1757,-76 1236,-76"/>
<text text-anchor="start" x="1243" y="-87.4" font-family="Arial" font-size="14.00" fill="#000000">all_roles_managed </text>
<text text-anchor="start" x="1365.1402" y="-87.4" font-family="Arial" font-size="14.00" fill="#666666">[tinyint(1)]</text>
<text text-anchor="start" x="1426.5848" y="-87.4" font-family="Arial" font-size="14.00" fill="#000000"> メンバーの管理(すべてのロール)</text>
<polygon fill="none" stroke="#000000" points="1236,-46 1236,-76 1757,-76 1757,-46 1236,-46"/>
<text text-anchor="start" x="1243" y="-57.4" font-family="Arial" font-size="14.00" fill="#000000">settings </text>
<text text-anchor="start" x="1295.1262" y="-57.4" font-family="Arial" font-size="14.00" fill="#666666">[text]</text>
<polygon fill="none" stroke="#000000" stroke-width="3" points="1234,-44.5 1234,-423.5 1758,-423.5 1758,-44.5 1234,-44.5"/>
</g>
<!-- workflows -->
<g id="node2" class="node">
<title>workflows</title>
<polygon fill="#efefef" stroke="transparent" points="43,-847 43,-893 745,-893 745,-847 43,-847"/>
<polygon fill="none" stroke="#000000" points="43,-847 43,-893 745,-893 745,-847 43,-847"/>
<text text-anchor="start" x="305.8784" y="-870.8" font-family="Arial Bold" font-size="18.00" fill="#000000">workflows</text>
<text text-anchor="start" x="384.8678" y="-870.8" font-family="Arial" font-size="14.00" fill="#000000"> </text>
<text text-anchor="start" x="388.7584" y="-870.8" font-family="Arial" font-size="14.00" fill="#666666">[BASE TABLE]</text>
<text text-anchor="start" x="273.6819" y="-856.4" font-family="Arial" font-size="14.00" fill="#333333">ワークフロー/フィールドの権限</text>
<polygon fill="none" stroke="#000000" points="43,-817 43,-847 745,-847 745,-817 43,-817"/>
<text text-anchor="start" x="50" y="-828.4" font-family="Arial" font-size="14.00" fill="#000000">id </text>
<text text-anchor="start" x="64.7798" y="-828.4" font-family="Arial" font-size="14.00" fill="#666666">[int(11)]</text>
<polygon fill="none" stroke="#000000" points="43,-787 43,-817 745,-817 745,-787 43,-787"/>
<text text-anchor="start" x="50" y="-798.4" font-family="Arial" font-size="14.00" fill="#000000">tracker_id </text>
<text text-anchor="start" x="115.3394" y="-798.4" font-family="Arial" font-size="14.00" fill="#666666">[int(11)]</text>
<polygon fill="none" stroke="#000000" points="43,-757 43,-787 745,-787 745,-757 43,-757"/>
<text text-anchor="start" x="50" y="-768.4" font-family="Arial" font-size="14.00" fill="#000000">old_status_id </text>
<text text-anchor="start" x="136.3632" y="-768.4" font-family="Arial" font-size="14.00" fill="#666666">[int(11)]</text>
<polygon fill="none" stroke="#000000" points="43,-727 43,-757 745,-757 745,-727 43,-727"/>
<text text-anchor="start" x="50" y="-738.4" font-family="Arial" font-size="14.00" fill="#000000">new_status_id </text>
<text text-anchor="start" x="143.3632" y="-738.4" font-family="Arial" font-size="14.00" fill="#666666">[int(11)]</text>
<polygon fill="none" stroke="#000000" points="43,-697 43,-727 745,-727 745,-697 43,-697"/>
<text text-anchor="start" x="50" y="-708.4" font-family="Arial" font-size="14.00" fill="#000000">role_id </text>
<text text-anchor="start" x="95.8948" y="-708.4" font-family="Arial" font-size="14.00" fill="#666666">[int(11)]</text>
<polygon fill="none" stroke="#000000" points="43,-667 43,-697 745,-697 745,-667 43,-667"/>
<text text-anchor="start" x="50" y="-678.4" font-family="Arial" font-size="14.00" fill="#000000">assignee </text>
<text text-anchor="start" x="109.9102" y="-678.4" font-family="Arial" font-size="14.00" fill="#666666">[tinyint(1)]</text>
<polygon fill="none" stroke="#000000" points="43,-637 43,-667 745,-667 745,-637 43,-637"/>
<text text-anchor="start" x="50" y="-648.4" font-family="Arial" font-size="14.00" fill="#000000">author </text>
<text text-anchor="start" x="93.5722" y="-648.4" font-family="Arial" font-size="14.00" fill="#666666">[tinyint(1)]</text>
<polygon fill="none" stroke="#000000" points="43,-607 43,-637 745,-637 745,-607 43,-607"/>
<text text-anchor="start" x="49.8205" y="-618.4" font-family="Arial" font-size="14.00" fill="#000000">type </text>
<text text-anchor="start" x="80.1669" y="-618.4" font-family="Arial" font-size="14.00" fill="#666666">[varchar(30)]</text>
<text text-anchor="start" x="159.5035" y="-618.4" font-family="Arial" font-size="14.00" fill="#000000"> WorkflowTransition:ステータスの遷移 WorkflowPermission:フィールドに対する権限 &#160;</text>
<polygon fill="none" stroke="#000000" points="43,-577 43,-607 745,-607 745,-577 43,-577"/>
<text text-anchor="start" x="50" y="-588.4" font-family="Arial" font-size="14.00" fill="#000000">field_name </text>
<text text-anchor="start" x="122.3506" y="-588.4" font-family="Arial" font-size="14.00" fill="#666666">[varchar(30)]</text>
<polygon fill="none" stroke="#000000" points="43,-547 43,-577 745,-577 745,-547 43,-547"/>
<text text-anchor="start" x="50" y="-558.4" font-family="Arial" font-size="14.00" fill="#000000">rule </text>
<text text-anchor="start" x="77.223" y="-558.4" font-family="Arial" font-size="14.00" fill="#666666">[varchar(30)]</text>
</g>
<!-- workflows&#45;&gt;roles -->
<g id="edge1" class="edge">
<title>workflows:role_id&#45;&gt;roles:id</title>
<path fill="none" stroke="#000000" stroke-dasharray="5,2" d="M755.2574,-711.3792C832.0951,-701.2995 734.5549,-570.9715 797,-504 866.9694,-428.9587 1133.3993,-361 1236,-361"/>
<polygon fill="#000000" stroke="#000000" points="754.9817,-711.3958 744.7281,-707.5082 749.9909,-711.6979 745,-712 745,-712 745,-712 749.9909,-711.6979 745.2719,-716.4918 754.9817,-711.3958 754.9817,-711.3958"/>
<text text-anchor="start" x="752.3245" y="-722" font-family="Arial" font-size="10.00" fill="#000000">Additional Relation</text>
</g>
<!-- custom_fields_roles -->
<g id="node3" class="node">
<title>custom_fields_roles</title>
<polygon fill="#efefef" stroke="transparent" points="849,-727 849,-773 1119,-773 1119,-727 849,-727"/>
<polygon fill="none" stroke="#000000" points="849,-727 849,-773 1119,-773 1119,-727 849,-727"/>
<text text-anchor="start" x="855.8626" y="-750.8" font-family="Arial Bold" font-size="18.00" fill="#000000">custom_fields_roles</text>
<text text-anchor="start" x="1014.8836" y="-750.8" font-family="Arial" font-size="14.00" fill="#000000"> </text>
<text text-anchor="start" x="1018.7742" y="-750.8" font-family="Arial" font-size="14.00" fill="#666666">[BASE TABLE]</text>
<text text-anchor="start" x="879.4109" y="-736.4" font-family="Arial" font-size="14.00" fill="#333333">カスタムフィールド⇔ロール</text>
<polygon fill="none" stroke="#000000" points="849,-697 849,-727 1119,-727 1119,-697 849,-697"/>
<text text-anchor="start" x="856" y="-708.4" font-family="Arial" font-size="14.00" fill="#000000">custom_field_id </text>
<text text-anchor="start" x="957.1304" y="-708.4" font-family="Arial" font-size="14.00" fill="#666666">[int(11)]</text>
<polygon fill="none" stroke="#000000" points="849,-667 849,-697 1119,-697 1119,-667 849,-667"/>
<text text-anchor="start" x="856" y="-678.4" font-family="Arial" font-size="14.00" fill="#000000">role_id </text>
<text text-anchor="start" x="901.8948" y="-678.4" font-family="Arial" font-size="14.00" fill="#666666">[int(11)]</text>
</g>
<!-- custom_fields_roles&#45;&gt;roles -->
<g id="edge2" class="edge">
<title>custom_fields_roles:role_id&#45;&gt;roles:id</title>
<path fill="none" stroke="#000000" stroke-dasharray="5,2" d="M1129.2711,-681.4014C1196.2853,-672.9971 1143.6078,-577.7956 1171,-504 1195.2943,-438.5503 1166.1868,-361 1236,-361"/>
<polygon fill="#000000" stroke="#000000" points="1128.9831,-681.4181 1118.7382,-677.5076 1123.9915,-681.7091 1119,-682 1119,-682 1119,-682 1123.9915,-681.7091 1119.2618,-686.4924 1128.9831,-681.4181 1128.9831,-681.4181"/>
<text text-anchor="start" x="1126.3245" y="-692" font-family="Arial" font-size="10.00" fill="#000000">Additional Relation</text>
</g>
<!-- queries_roles -->
<g id="node4" class="node">
<title>queries_roles</title>
<polygon fill="#efefef" stroke="transparent" points="1224,-727 1224,-773 1443,-773 1443,-727 1224,-727"/>
<polygon fill="none" stroke="#000000" points="1224,-727 1224,-773 1443,-773 1443,-727 1224,-727"/>
<text text-anchor="start" x="1230.865" y="-750.8" font-family="Arial Bold" font-size="18.00" fill="#000000">queries_roles</text>
<text text-anchor="start" x="1338.8812" y="-750.8" font-family="Arial" font-size="14.00" fill="#000000"> </text>
<text text-anchor="start" x="1342.7718" y="-750.8" font-family="Arial" font-size="14.00" fill="#666666">[BASE TABLE]</text>
<text text-anchor="start" x="1246.9317" y="-736.4" font-family="Arial" font-size="14.00" fill="#333333">カスタムクエリ⇔ロール</text>
<polygon fill="none" stroke="#000000" points="1224,-697 1224,-727 1443,-727 1443,-697 1224,-697"/>
<text text-anchor="start" x="1231" y="-708.4" font-family="Arial" font-size="14.00" fill="#000000">query_id </text>
<text text-anchor="start" x="1288.5708" y="-708.4" font-family="Arial" font-size="14.00" fill="#666666">[int(11)]</text>
<polygon fill="none" stroke="#000000" points="1224,-667 1224,-697 1443,-697 1443,-667 1224,-667"/>
<text text-anchor="start" x="1231" y="-678.4" font-family="Arial" font-size="14.00" fill="#000000">role_id </text>
<text text-anchor="start" x="1276.8948" y="-678.4" font-family="Arial" font-size="14.00" fill="#666666">[int(11)]</text>
</g>
<!-- queries_roles&#45;&gt;roles -->
<g id="edge3" class="edge">
<title>queries_roles:role_id&#45;&gt;roles:id</title>
<path fill="none" stroke="#000000" stroke-dasharray="5,2" d="M1452.9594,-679.1419C1463.9523,-670.3431 1452.5247,-643.1046 1443,-624 1391.6001,-520.9022 1287.3999,-571.0978 1236,-468 1214.7818,-425.4404 1188.4444,-361 1236,-361"/>
<polygon fill="#000000" stroke="#000000" points="1452.612,-679.2416 1441.7587,-677.6746 1447.806,-680.6208 1443,-682 1443,-682 1443,-682 1447.806,-680.6208 1444.2413,-686.3254 1452.612,-679.2416 1452.612,-679.2416"/>
<text text-anchor="start" x="1450.3245" y="-692" font-family="Arial" font-size="10.00" fill="#000000">Additional Relation</text>
</g>
<!-- member_roles -->
<g id="node5" class="node">
<title>member_roles</title>
<polygon fill="#efefef" stroke="transparent" points="1547,-757 1547,-803 1773,-803 1773,-757 1547,-757"/>
<polygon fill="none" stroke="#000000" points="1547,-757 1547,-803 1773,-803 1773,-757 1547,-757"/>
<text text-anchor="start" x="1553.873" y="-780.8" font-family="Arial Bold" font-size="18.00" fill="#000000">member_roles</text>
<text text-anchor="start" x="1668.8732" y="-780.8" font-family="Arial" font-size="14.00" fill="#000000"> </text>
<text text-anchor="start" x="1672.7638" y="-780.8" font-family="Arial" font-size="14.00" fill="#666666">[BASE TABLE]</text>
<text text-anchor="start" x="1594.0334" y="-766.4" font-family="Arial" font-size="14.00" fill="#333333">メンバー⇔ロール</text>
<polygon fill="none" stroke="#000000" points="1547,-727 1547,-757 1773,-757 1773,-727 1547,-727"/>
<text text-anchor="start" x="1554" y="-738.4" font-family="Arial" font-size="14.00" fill="#000000">id </text>
<text text-anchor="start" x="1568.7798" y="-738.4" font-family="Arial" font-size="14.00" fill="#666666">[int(11)]</text>
<polygon fill="none" stroke="#000000" points="1547,-697 1547,-727 1773,-727 1773,-697 1547,-697"/>
<text text-anchor="start" x="1554" y="-708.4" font-family="Arial" font-size="14.00" fill="#000000">member_id </text>
<text text-anchor="start" x="1627.892" y="-708.4" font-family="Arial" font-size="14.00" fill="#666666">[int(11)]</text>
<polygon fill="none" stroke="#000000" points="1547,-667 1547,-697 1773,-697 1773,-667 1547,-667"/>
<text text-anchor="start" x="1554" y="-678.4" font-family="Arial" font-size="14.00" fill="#000000">role_id </text>
<text text-anchor="start" x="1599.8948" y="-678.4" font-family="Arial" font-size="14.00" fill="#666666">[int(11)]</text>
<polygon fill="none" stroke="#000000" points="1547,-637 1547,-667 1773,-667 1773,-637 1547,-637"/>
<text text-anchor="start" x="1554" y="-648.4" font-family="Arial" font-size="14.00" fill="#000000">inherited_from </text>
<text text-anchor="start" x="1647.345" y="-648.4" font-family="Arial" font-size="14.00" fill="#666666">[int(11)]</text>
</g>
<!-- member_roles&#45;&gt;roles -->
<g id="edge4" class="edge">
<title>member_roles:role_id&#45;&gt;roles:id</title>
<path fill="none" stroke="#000000" stroke-dasharray="5,2" d="M1536.8452,-680.4075C1511.9132,-671.2438 1529.6871,-624.5779 1547,-594 1600.6275,-499.2836 1703.3725,-562.7164 1757,-468 1780.4306,-426.6172 1804.5556,-361 1757,-361"/>
<polygon fill="#000000" stroke="#000000" points="1537.1207,-680.4506 1546.3028,-686.4457 1542.0604,-681.2253 1547,-682 1547,-682 1547,-682 1542.0604,-681.2253 1547.6972,-677.5543 1537.1207,-680.4506 1537.1207,-680.4506"/>
<text text-anchor="start" x="1457.3245" y="-666" font-family="Arial" font-size="10.00" fill="#000000">Additional Relation</text>
</g>
<!-- roles_managed_roles -->
<g id="node6" class="node">
<title>roles_managed_roles</title>
<polygon fill="#efefef" stroke="transparent" points="1878,-727 1878,-773 2201,-773 2201,-727 1878,-727"/>
<polygon fill="none" stroke="#000000" points="1878,-727 1878,-773 2201,-773 2201,-727 1878,-727"/>
<text text-anchor="start" x="1904.3534" y="-750.8" font-family="Arial Bold" font-size="18.00" fill="#000000">roles_managed_roles</text>
<text text-anchor="start" x="2077.3928" y="-750.8" font-family="Arial" font-size="14.00" fill="#000000"> </text>
<text text-anchor="start" x="2081.2834" y="-750.8" font-family="Arial" font-size="14.00" fill="#666666">[BASE TABLE]</text>
<text text-anchor="start" x="1913.913" y="-736.4" font-family="Arial" font-size="14.00" fill="#333333">メンバーの管理(管理対象のロール)</text>
<polygon fill="none" stroke="#000000" points="1878,-697 1878,-727 2201,-727 2201,-697 1878,-697"/>
<text text-anchor="start" x="1885" y="-708.4" font-family="Arial" font-size="14.00" fill="#000000">role_id </text>
<text text-anchor="start" x="1930.8948" y="-708.4" font-family="Arial" font-size="14.00" fill="#666666">[int(11)]</text>
<text text-anchor="start" x="1978.3422" y="-708.4" font-family="Arial" font-size="14.00" fill="#000000"> ロールID</text>
<polygon fill="none" stroke="#000000" points="1878,-667 1878,-697 2201,-697 2201,-667 1878,-667"/>
<text text-anchor="start" x="1884.8406" y="-678.4" font-family="Arial" font-size="14.00" fill="#000000">managed_role_id </text>
<text text-anchor="start" x="1996.8742" y="-678.4" font-family="Arial" font-size="14.00" fill="#666666">[int(11)]</text>
<text text-anchor="start" x="2044.3216" y="-678.4" font-family="Arial" font-size="14.00" fill="#000000"> 管理対象のロールID</text>
</g>
<!-- roles_managed_roles&#45;&gt;roles -->
<g id="edge5" class="edge">
<title>roles_managed_roles:role_id&#45;&gt;roles:id</title>
<path fill="none" stroke="#000000" stroke-dasharray="5,2" d="M1867.5831,-711.4673C1788.2828,-702.8031 1856.1486,-590.2177 1825,-504 1801.0876,-437.8117 1827.3754,-361 1757,-361"/>
<polygon fill="#000000" stroke="#000000" points="1868.013,-711.4892 1877.7701,-716.4941 1873.0065,-711.7446 1878,-712 1878,-712 1878,-712 1873.0065,-711.7446 1878.2299,-707.5059 1868.013,-711.4892 1868.013,-711.4892"/>
<text text-anchor="start" x="1788.3245" y="-722" font-family="Arial" font-size="10.00" fill="#000000">Additional Relation</text>
</g>
<!-- roles_managed_roles&#45;&gt;roles -->
<g id="edge6" class="edge">
<title>roles_managed_roles:managed_role_id&#45;&gt;roles:id</title>
<path fill="none" stroke="#000000" stroke-dasharray="5,2" d="M1867.7128,-681.4002C1800.5902,-672.9792 1853.2606,-577.596 1825,-504 1799.7721,-438.3019 1827.3754,-361 1757,-361"/>
<polygon fill="#000000" stroke="#000000" points="1868.017,-681.4179 1877.738,-686.4924 1873.0085,-681.7089 1878,-682 1878,-682 1878,-682 1873.0085,-681.7089 1878.262,-677.5076 1868.017,-681.4179 1868.017,-681.4179"/>
<text text-anchor="start" x="1788.3245" y="-692" font-family="Arial" font-size="10.00" fill="#000000">Additional Relation</text>
</g>
</g>
</svg>
