<?xml version="1.0" encoding="UTF-8" standalone="no"?>
<!DOCTYPE svg PUBLIC "-//W3C//DTD SVG 1.1//EN"
 "http://www.w3.org/Graphics/SVG/1.1/DTD/svg11.dtd">
<!-- Generated by graphviz version 2.40.1 (20161225.0304)
 -->
<!-- Title: roles Pages: 1 -->
<svg width="1700pt" height="944pt"
 viewBox="0.00 0.00 1700.00 944.00" xmlns="http://www.w3.org/2000/svg" xmlns:xlink="http://www.w3.org/1999/xlink">
<g id="graph0" class="graph" transform="scale(1 1) rotate(0) translate(4 940)">
<title>roles</title>
<polygon fill="#ffffff" stroke="transparent" points="-4,4 -4,-940 1696,-940 1696,4 -4,4"/>
<!-- roles -->
<g id="node1" class="node">
<title>roles</title>
<polygon fill="#efefef" stroke="transparent" points="707,-376 707,-422 936,-422 936,-376 707,-376"/>
<polygon fill="none" stroke="#000000" points="707,-376 707,-422 936,-422 936,-376 707,-376"/>
<text text-anchor="start" x="753.3737" y="-399.8" font-family="Arial Bold" font-size="18.00" fill="#000000">roles</text>
<text text-anchor="start" x="792.3725" y="-399.8" font-family="Arial" font-size="14.00" fill="#000000"> </text>
<text text-anchor="start" x="796.2631" y="-399.8" font-family="Arial" font-size="14.00" fill="#666666">[BASE TABLE]</text>
<text text-anchor="start" x="794.6746" y="-385.4" font-family="Arial" font-size="14.00" fill="#333333">ロール</text>
<polygon fill="none" stroke="#000000" points="707,-346 707,-376 936,-376 936,-346 707,-346"/>
<text text-anchor="start" x="714" y="-357.4" font-family="Arial" font-size="14.00" fill="#000000">id </text>
<text text-anchor="start" x="728.7798" y="-357.4" font-family="Arial" font-size="14.00" fill="#666666">[int(11)]</text>
<polygon fill="none" stroke="#000000" points="707,-316 707,-346 936,-346 936,-316 707,-316"/>
<text text-anchor="start" x="714" y="-327.4" font-family="Arial" font-size="14.00" fill="#000000">name </text>
<text text-anchor="start" x="752.899" y="-327.4" font-family="Arial" font-size="14.00" fill="#666666">[varchar(255)]</text>
<polygon fill="none" stroke="#000000" points="707,-286 707,-316 936,-316 936,-286 707,-286"/>
<text text-anchor="start" x="714" y="-297.4" font-family="Arial" font-size="14.00" fill="#000000">position </text>
<text text-anchor="start" x="766.1248" y="-297.4" font-family="Arial" font-size="14.00" fill="#666666">[int(11)]</text>
<polygon fill="none" stroke="#000000" points="707,-256 707,-286 936,-286 936,-256 707,-256"/>
<text text-anchor="start" x="714" y="-267.4" font-family="Arial" font-size="14.00" fill="#000000">assignable </text>
<text text-anchor="start" x="784.7994" y="-267.4" font-family="Arial" font-size="14.00" fill="#666666">[tinyint(1)]</text>
<polygon fill="none" stroke="#000000" points="707,-226 707,-256 936,-256 936,-226 707,-226"/>
<text text-anchor="start" x="714" y="-237.4" font-family="Arial" font-size="14.00" fill="#000000">builtin </text>
<text text-anchor="start" x="754.4488" y="-237.4" font-family="Arial" font-size="14.00" fill="#666666">[int(11)]</text>
<polygon fill="none" stroke="#000000" points="707,-196 707,-226 936,-226 936,-196 707,-196"/>
<text text-anchor="start" x="714" y="-207.4" font-family="Arial" font-size="14.00" fill="#000000">permissions </text>
<text text-anchor="start" x="792.5554" y="-207.4" font-family="Arial" font-size="14.00" fill="#666666">[text]</text>
<polygon fill="none" stroke="#000000" points="707,-166 707,-196 936,-196 936,-166 707,-166"/>
<text text-anchor="start" x="714" y="-177.4" font-family="Arial" font-size="14.00" fill="#000000">issues_visibility </text>
<text text-anchor="start" x="813.5512" y="-177.4" font-family="Arial" font-size="14.00" fill="#666666">[varchar(30)]</text>
<polygon fill="none" stroke="#000000" points="707,-136 707,-166 936,-166 936,-136 707,-136"/>
<text text-anchor="start" x="714" y="-147.4" font-family="Arial" font-size="14.00" fill="#000000">users_visibility </text>
<text text-anchor="start" x="808.1052" y="-147.4" font-family="Arial" font-size="14.00" fill="#666666">[varchar(30)]</text>
<polygon fill="none" stroke="#000000" points="707,-106 707,-136 936,-136 936,-106 707,-106"/>
<text text-anchor="start" x="713.7777" y="-117.4" font-family="Arial" font-size="14.00" fill="#000000">time_entries_visibility </text>
<text text-anchor="start" x="849.8857" y="-117.4" font-family="Arial" font-size="14.00" fill="#666666">[varchar(30)]</text>
<polygon fill="none" stroke="#000000" points="707,-76 707,-106 936,-106 936,-76 707,-76"/>
<text text-anchor="start" x="714" y="-87.4" font-family="Arial" font-size="14.00" fill="#000000">all_roles_managed </text>
<text text-anchor="start" x="836.1402" y="-87.4" font-family="Arial" font-size="14.00" fill="#666666">[tinyint(1)]</text>
<polygon fill="none" stroke="#000000" points="707,-46 707,-76 936,-76 936,-46 707,-46"/>
<text text-anchor="start" x="714" y="-57.4" font-family="Arial" font-size="14.00" fill="#000000">settings </text>
<text text-anchor="start" x="766.1262" y="-57.4" font-family="Arial" font-size="14.00" fill="#666666">[text]</text>
<polygon fill="none" stroke="#000000" stroke-width="3" points="705,-44.5 705,-423.5 937,-423.5 937,-44.5 705,-44.5"/>
</g>
<!-- workflows -->
<g id="node2" class="node">
<title>workflows</title>
<polygon fill="#efefef" stroke="transparent" points="43,-847 43,-893 233,-893 233,-847 43,-847"/>
<polygon fill="none" stroke="#000000" points="43,-847 43,-893 233,-893 233,-847 43,-847"/>
<text text-anchor="start" x="49.8784" y="-870.8" font-family="Arial Bold" font-size="18.00" fill="#000000">workflows</text>
<text text-anchor="start" x="128.8678" y="-870.8" font-family="Arial" font-size="14.00" fill="#000000"> </text>
<text text-anchor="start" x="132.7584" y="-870.8" font-family="Arial" font-size="14.00" fill="#666666">[BASE TABLE]</text>
<text text-anchor="start" x="85.5168" y="-856.4" font-family="Arial" font-size="14.00" fill="#333333">ワークフロー</text>
<polygon fill="none" stroke="#000000" points="43,-817 43,-847 233,-847 233,-817 43,-817"/>
<text text-anchor="start" x="50" y="-828.4" font-family="Arial" font-size="14.00" fill="#000000">id </text>
<text text-anchor="start" x="64.7798" y="-828.4" font-family="Arial" font-size="14.00" fill="#666666">[int(11)]</text>
<polygon fill="none" stroke="#000000" points="43,-787 43,-817 233,-817 233,-787 43,-787"/>
<text text-anchor="start" x="50" y="-798.4" font-family="Arial" font-size="14.00" fill="#000000">tracker_id </text>
<text text-anchor="start" x="115.3394" y="-798.4" font-family="Arial" font-size="14.00" fill="#666666">[int(11)]</text>
<polygon fill="none" stroke="#000000" points="43,-757 43,-787 233,-787 233,-757 43,-757"/>
<text text-anchor="start" x="50" y="-768.4" font-family="Arial" font-size="14.00" fill="#000000">old_status_id </text>
<text text-anchor="start" x="136.3632" y="-768.4" font-family="Arial" font-size="14.00" fill="#666666">[int(11)]</text>
<polygon fill="none" stroke="#000000" points="43,-727 43,-757 233,-757 233,-727 43,-727"/>
<text text-anchor="start" x="50" y="-738.4" font-family="Arial" font-size="14.00" fill="#000000">new_status_id </text>
<text text-anchor="start" x="143.3632" y="-738.4" font-family="Arial" font-size="14.00" fill="#666666">[int(11)]</text>
<polygon fill="none" stroke="#000000" points="43,-697 43,-727 233,-727 233,-697 43,-697"/>
<text text-anchor="start" x="50" y="-708.4" font-family="Arial" font-size="14.00" fill="#000000">role_id </text>
<text text-anchor="start" x="95.8948" y="-708.4" font-family="Arial" font-size="14.00" fill="#666666">[int(11)]</text>
<polygon fill="none" stroke="#000000" points="43,-667 43,-697 233,-697 233,-667 43,-667"/>
<text text-anchor="start" x="50" y="-678.4" font-family="Arial" font-size="14.00" fill="#000000">assignee </text>
<text text-anchor="start" x="109.9102" y="-678.4" font-family="Arial" font-size="14.00" fill="#666666">[tinyint(1)]</text>
<polygon fill="none" stroke="#000000" points="43,-637 43,-667 233,-667 233,-637 43,-637"/>
<text text-anchor="start" x="50" y="-648.4" font-family="Arial" font-size="14.00" fill="#000000">author </text>
<text text-anchor="start" x="93.5722" y="-648.4" font-family="Arial" font-size="14.00" fill="#666666">[tinyint(1)]</text>
<polygon fill="none" stroke="#000000" points="43,-607 43,-637 233,-637 233,-607 43,-607"/>
<text text-anchor="start" x="50" y="-618.4" font-family="Arial" font-size="14.00" fill="#000000">type </text>
<text text-anchor="start" x="80.3464" y="-618.4" font-family="Arial" font-size="14.00" fill="#666666">[varchar(30)]</text>
<polygon fill="none" stroke="#000000" points="43,-577 43,-607 233,-607 233,-577 43,-577"/>
<text text-anchor="start" x="50" y="-588.4" font-family="Arial" font-size="14.00" fill="#000000">field_name </text>
<text text-anchor="start" x="122.3506" y="-588.4" font-family="Arial" font-size="14.00" fill="#666666">[varchar(30)]</text>
<polygon fill="none" stroke="#000000" points="43,-547 43,-577 233,-577 233,-547 43,-547"/>
<text text-anchor="start" x="50" y="-558.4" font-family="Arial" font-size="14.00" fill="#000000">rule </text>
<text text-anchor="start" x="77.223" y="-558.4" font-family="Arial" font-size="14.00" fill="#666666">[varchar(30)]</text>
</g>
<!-- workflows&#45;&gt;roles -->
<g id="edge1" class="edge">
<title>workflows:role_id&#45;&gt;roles:id</title>
<path fill="none" stroke="#000000" stroke-dasharray="5,2" d="M243.2592,-711.3809C320.1261,-701.3283 222.9517,-571.3393 285,-504 352.0955,-431.1831 607.9844,-361 707,-361"/>
<polygon fill="#000000" stroke="#000000" points="242.9818,-711.3975 232.7289,-707.5082 237.9909,-711.6988 233,-712 233,-712 233,-712 237.9909,-711.6988 233.2711,-716.4918 242.9818,-711.3975 242.9818,-711.3975"/>
<text text-anchor="start" x="240.3245" y="-722" font-family="Arial" font-size="10.00" fill="#000000">Additional Relation</text>
</g>
<!-- custom_fields_roles -->
<g id="node3" class="node">
<title>custom_fields_roles</title>
<polygon fill="#efefef" stroke="transparent" points="337,-727 337,-773 607,-773 607,-727 337,-727"/>
<polygon fill="none" stroke="#000000" points="337,-727 337,-773 607,-773 607,-727 337,-727"/>
<text text-anchor="start" x="343.8626" y="-750.8" font-family="Arial Bold" font-size="18.00" fill="#000000">custom_fields_roles</text>
<text text-anchor="start" x="502.8836" y="-750.8" font-family="Arial" font-size="14.00" fill="#000000"> </text>
<text text-anchor="start" x="506.7742" y="-750.8" font-family="Arial" font-size="14.00" fill="#666666">[BASE TABLE]</text>
<text text-anchor="start" x="367.4109" y="-736.4" font-family="Arial" font-size="14.00" fill="#333333">カスタムフィールド⇔ロール</text>
<polygon fill="none" stroke="#000000" points="337,-697 337,-727 607,-727 607,-697 337,-697"/>
<text text-anchor="start" x="344" y="-708.4" font-family="Arial" font-size="14.00" fill="#000000">custom_field_id </text>
<text text-anchor="start" x="445.1304" y="-708.4" font-family="Arial" font-size="14.00" fill="#666666">[int(11)]</text>
<polygon fill="none" stroke="#000000" points="337,-667 337,-697 607,-697 607,-667 337,-667"/>
<text text-anchor="start" x="344" y="-678.4" font-family="Arial" font-size="14.00" fill="#000000">role_id </text>
<text text-anchor="start" x="389.8948" y="-678.4" font-family="Arial" font-size="14.00" fill="#666666">[int(11)]</text>
</g>
<!-- custom_fields_roles&#45;&gt;roles -->
<g id="edge2" class="edge">
<title>custom_fields_roles:role_id&#45;&gt;roles:id</title>
<path fill="none" stroke="#000000" stroke-dasharray="5,2" d="M617.0855,-679.7788C677.1835,-651.4177 635.9336,-361 707,-361"/>
<polygon fill="#000000" stroke="#000000" points="616.766,-679.8491 606.0321,-677.6053 611.883,-680.9245 607,-682 607,-682 607,-682 611.883,-680.9245 607.9679,-686.3947 616.766,-679.8491 616.766,-679.8491"/>
<text text-anchor="start" x="614.3245" y="-692" font-family="Arial" font-size="10.00" fill="#000000">Additional Relation</text>
</g>
<!-- queries_roles -->
<g id="node4" class="node">
<title>queries_roles</title>
<polygon fill="#efefef" stroke="transparent" points="712,-732 712,-767 931,-767 931,-732 712,-732"/>
<polygon fill="none" stroke="#000000" points="712,-732 712,-767 931,-767 931,-732 712,-732"/>
<text text-anchor="start" x="718.865" y="-744.8" font-family="Arial Bold" font-size="18.00" fill="#000000">queries_roles</text>
<text text-anchor="start" x="826.8812" y="-744.8" font-family="Arial" font-size="14.00" fill="#000000"> </text>
<text text-anchor="start" x="830.7718" y="-744.8" font-family="Arial" font-size="14.00" fill="#666666">[BASE TABLE]</text>
<polygon fill="none" stroke="#000000" points="712,-702 712,-732 931,-732 931,-702 712,-702"/>
<text text-anchor="start" x="719" y="-713.4" font-family="Arial" font-size="14.00" fill="#000000">query_id </text>
<text text-anchor="start" x="776.5708" y="-713.4" font-family="Arial" font-size="14.00" fill="#666666">[int(11)]</text>
<polygon fill="none" stroke="#000000" points="712,-672 712,-702 931,-702 931,-672 712,-672"/>
<text text-anchor="start" x="719" y="-683.4" font-family="Arial" font-size="14.00" fill="#000000">role_id </text>
<text text-anchor="start" x="764.8948" y="-683.4" font-family="Arial" font-size="14.00" fill="#666666">[int(11)]</text>
</g>
<!-- queries_roles&#45;&gt;roles -->
<g id="edge3" class="edge">
<title>queries_roles:role_id&#45;&gt;roles:id</title>
<path fill="none" stroke="#000000" stroke-dasharray="5,2" d="M821.7126,-661.9718C816.1863,-567.8574 732.5438,-565.3287 707,-468 694.928,-422.0022 659.4444,-361 707,-361"/>
<polygon fill="#000000" stroke="#000000" points="821.7134,-662.0041 817.5018,-672.129 821.8567,-667.0021 822,-672 822,-672 822,-672 821.8567,-667.0021 826.4982,-671.871 821.7134,-662.0041 821.7134,-662.0041"/>
<text text-anchor="start" x="805.0745" y="-656" font-family="Arial" font-size="10.00" fill="#000000">Additional Relation</text>
</g>
<!-- member_roles -->
<g id="node5" class="node">
<title>member_roles</title>
<polygon fill="#efefef" stroke="transparent" points="1035,-762 1035,-797 1261,-797 1261,-762 1035,-762"/>
<polygon fill="none" stroke="#000000" points="1035,-762 1035,-797 1261,-797 1261,-762 1035,-762"/>
<text text-anchor="start" x="1041.873" y="-774.8" font-family="Arial Bold" font-size="18.00" fill="#000000">member_roles</text>
<text text-anchor="start" x="1156.8732" y="-774.8" font-family="Arial" font-size="14.00" fill="#000000"> </text>
<text text-anchor="start" x="1160.7638" y="-774.8" font-family="Arial" font-size="14.00" fill="#666666">[BASE TABLE]</text>
<polygon fill="none" stroke="#000000" points="1035,-732 1035,-762 1261,-762 1261,-732 1035,-732"/>
<text text-anchor="start" x="1042" y="-743.4" font-family="Arial" font-size="14.00" fill="#000000">id </text>
<text text-anchor="start" x="1056.7798" y="-743.4" font-family="Arial" font-size="14.00" fill="#666666">[int(11)]</text>
<polygon fill="none" stroke="#000000" points="1035,-702 1035,-732 1261,-732 1261,-702 1035,-702"/>
<text text-anchor="start" x="1042" y="-713.4" font-family="Arial" font-size="14.00" fill="#000000">member_id </text>
<text text-anchor="start" x="1115.892" y="-713.4" font-family="Arial" font-size="14.00" fill="#666666">[int(11)]</text>
<polygon fill="none" stroke="#000000" points="1035,-672 1035,-702 1261,-702 1261,-672 1035,-672"/>
<text text-anchor="start" x="1042" y="-683.4" font-family="Arial" font-size="14.00" fill="#000000">role_id </text>
<text text-anchor="start" x="1087.8948" y="-683.4" font-family="Arial" font-size="14.00" fill="#666666">[int(11)]</text>
<polygon fill="none" stroke="#000000" points="1035,-642 1035,-672 1261,-672 1261,-642 1035,-642"/>
<text text-anchor="start" x="1042" y="-653.4" font-family="Arial" font-size="14.00" fill="#000000">inherited_from </text>
<text text-anchor="start" x="1135.345" y="-653.4" font-family="Arial" font-size="14.00" fill="#666666">[int(11)]</text>
</g>
<!-- member_roles&#45;&gt;roles -->
<g id="edge4" class="edge">
<title>member_roles:role_id&#45;&gt;roles:id</title>
<path fill="none" stroke="#000000" stroke-dasharray="5,2" d="M1025.1713,-684.9182C963.9218,-657.1538 1008.1623,-361 936,-361"/>
<polygon fill="#000000" stroke="#000000" points="1025.217,-684.9278 1034.0675,-691.4023 1030.1085,-685.9639 1035,-687 1035,-687 1035,-687 1030.1085,-685.9639 1035.9325,-682.5977 1025.217,-684.9278 1025.217,-684.9278"/>
<text text-anchor="start" x="945.3245" y="-697" font-family="Arial" font-size="10.00" fill="#000000">Additional Relation</text>
</g>
<!-- roles_managed_roles -->
<g id="node6" class="node">
<title>roles_managed_roles</title>
<polygon fill="#efefef" stroke="transparent" points="1365,-732 1365,-767 1649,-767 1649,-732 1365,-732"/>
<polygon fill="none" stroke="#000000" points="1365,-732 1365,-767 1649,-767 1649,-732 1365,-732"/>
<text text-anchor="start" x="1371.8534" y="-744.8" font-family="Arial Bold" font-size="18.00" fill="#000000">roles_managed_roles</text>
<text text-anchor="start" x="1544.8928" y="-744.8" font-family="Arial" font-size="14.00" fill="#000000"> </text>
<text text-anchor="start" x="1548.7834" y="-744.8" font-family="Arial" font-size="14.00" fill="#666666">[BASE TABLE]</text>
<polygon fill="none" stroke="#000000" points="1365,-702 1365,-732 1649,-732 1649,-702 1365,-702"/>
<text text-anchor="start" x="1372" y="-713.4" font-family="Arial" font-size="14.00" fill="#000000">role_id </text>
<text text-anchor="start" x="1417.8948" y="-713.4" font-family="Arial" font-size="14.00" fill="#666666">[int(11)]</text>
<polygon fill="none" stroke="#000000" points="1365,-672 1365,-702 1649,-702 1649,-672 1365,-672"/>
<text text-anchor="start" x="1372" y="-683.4" font-family="Arial" font-size="14.00" fill="#000000">managed_role_id </text>
<text text-anchor="start" x="1484.0336" y="-683.4" font-family="Arial" font-size="14.00" fill="#666666">[int(11)]</text>
</g>
<!-- roles_managed_roles&#45;&gt;roles -->
<g id="edge5" class="edge">
<title>roles_managed_roles:role_id&#45;&gt;roles:id</title>
<path fill="none" stroke="#000000" stroke-dasharray="5,2" d="M1354.9889,-716.4322C1275.4756,-706.7026 1375.1417,-574.3038 1313,-504 1194.3176,-369.7291 1115.2043,-361 936,-361"/>
<polygon fill="#000000" stroke="#000000" points="1355.016,-716.4337 1364.7452,-721.4928 1360.008,-716.7168 1365,-717 1365,-717 1365,-717 1360.008,-716.7168 1365.2548,-712.5072 1355.016,-716.4337 1355.016,-716.4337"/>
<text text-anchor="start" x="1275.3245" y="-727" font-family="Arial" font-size="10.00" fill="#000000">Additional Relation</text>
</g>
</g>
</svg>
