<?xml version="1.0" encoding="UTF-8" standalone="no"?>
<!DOCTYPE svg PUBLIC "-//W3C//DTD SVG 1.1//EN"
 "http://www.w3.org/Graphics/SVG/1.1/DTD/svg11.dtd">
<!-- Generated by graphviz version 2.40.1 (20161225.0304)
 -->
<!-- Title: settings Pages: 1 -->
<svg width="273pt" height="266pt"
 viewBox="0.00 0.00 273.00 266.00" xmlns="http://www.w3.org/2000/svg" xmlns:xlink="http://www.w3.org/1999/xlink">
<g id="graph0" class="graph" transform="scale(1 1) rotate(0) translate(4 262)">
<title>settings</title>
<polygon fill="#ffffff" stroke="transparent" points="-4,4 -4,-262 269,-262 269,4 -4,4"/>
<!-- settings -->
<g id="node1" class="node">
<title>settings</title>
<polygon fill="#efefef" stroke="transparent" points="46.5,-166 46.5,-212 219.5,-212 219.5,-166 46.5,-166"/>
<polygon fill="none" stroke="#000000" points="46.5,-166 46.5,-212 219.5,-212 219.5,-166 46.5,-166"/>
<text text-anchor="start" x="53.3645" y="-189.8" font-family="Arial Bold" font-size="18.00" fill="#000000">settings</text>
<text text-anchor="start" x="115.3817" y="-189.8" font-family="Arial" font-size="14.00" fill="#000000"> </text>
<text text-anchor="start" x="119.2723" y="-189.8" font-family="Arial" font-size="14.00" fill="#666666">[BASE TABLE]</text>
<text text-anchor="start" x="115.4965" y="-175.4" font-family="Arial" font-size="14.00" fill="#333333">設定</text>
<polygon fill="none" stroke="#000000" points="46.5,-136 46.5,-166 219.5,-166 219.5,-136 46.5,-136"/>
<text text-anchor="start" x="53.5" y="-147.4" font-family="Arial" font-size="14.00" fill="#000000">id </text>
<text text-anchor="start" x="68.2798" y="-147.4" font-family="Arial" font-size="14.00" fill="#666666">[int(11)]</text>
<polygon fill="none" stroke="#000000" points="46.5,-106 46.5,-136 219.5,-136 219.5,-106 46.5,-106"/>
<text text-anchor="start" x="53.5" y="-117.4" font-family="Arial" font-size="14.00" fill="#000000">name </text>
<text text-anchor="start" x="92.399" y="-117.4" font-family="Arial" font-size="14.00" fill="#666666">[varchar(255)]</text>
<polygon fill="none" stroke="#000000" points="46.5,-76 46.5,-106 219.5,-106 219.5,-76 46.5,-76"/>
<text text-anchor="start" x="53.5" y="-87.4" font-family="Arial" font-size="14.00" fill="#000000">value </text>
<text text-anchor="start" x="90.845" y="-87.4" font-family="Arial" font-size="14.00" fill="#666666">[text]</text>
<polygon fill="none" stroke="#000000" points="46.5,-46 46.5,-76 219.5,-76 219.5,-46 46.5,-46"/>
<text text-anchor="start" x="53.5" y="-57.4" font-family="Arial" font-size="14.00" fill="#000000">updated_on </text>
<text text-anchor="start" x="131.3246" y="-57.4" font-family="Arial" font-size="14.00" fill="#666666">[timestamp]</text>
<polygon fill="none" stroke="#000000" stroke-width="3" points="44.5,-44.5 44.5,-213.5 220.5,-213.5 220.5,-44.5 44.5,-44.5"/>
</g>
</g>
</svg>
