<?xml version="1.0" encoding="UTF-8" standalone="no"?>
<!DOCTYPE svg PUBLIC "-//W3C//DTD SVG 1.1//EN"
 "http://www.w3.org/Graphics/SVG/1.1/DTD/svg11.dtd">
<!-- Generated by graphviz version 2.40.1 (20161225.0304)
 -->
<!-- Title: trackers Pages: 1 -->
<svg width="1442pt" height="1592pt"
 viewBox="0.00 0.00 1441.50 1592.00" xmlns="http://www.w3.org/2000/svg" xmlns:xlink="http://www.w3.org/1999/xlink">
<g id="graph0" class="graph" transform="scale(1 1) rotate(0) translate(4 1588)">
<title>trackers</title>
<polygon fill="#ffffff" stroke="transparent" points="-4,4 -4,-1588 1437.5,-1588 1437.5,4 -4,4"/>
<!-- trackers -->
<g id="node1" class="node">
<title>trackers</title>
<polygon fill="#efefef" stroke="transparent" points="585,-604 585,-650 760,-650 760,-604 585,-604"/>
<polygon fill="none" stroke="#000000" points="585,-604 585,-650 760,-650 760,-604 585,-604"/>
<text text-anchor="start" x="591.8736" y="-627.8" font-family="Arial Bold" font-size="18.00" fill="#000000">trackers</text>
<text text-anchor="start" x="655.8726" y="-627.8" font-family="Arial" font-size="14.00" fill="#000000"> </text>
<text text-anchor="start" x="659.7632" y="-627.8" font-family="Arial" font-size="14.00" fill="#666666">[BASE TABLE]</text>
<text text-anchor="start" x="633.7088" y="-613.4" font-family="Arial" font-size="14.00" fill="#333333">トラッカー</text>
<polygon fill="none" stroke="#000000" points="585,-574 585,-604 760,-604 760,-574 585,-574"/>
<text text-anchor="start" x="592" y="-585.4" font-family="Arial" font-size="14.00" fill="#000000">id </text>
<text text-anchor="start" x="606.7798" y="-585.4" font-family="Arial" font-size="14.00" fill="#666666">[int(11)]</text>
<polygon fill="none" stroke="#000000" points="585,-544 585,-574 760,-574 760,-544 585,-544"/>
<text text-anchor="start" x="592" y="-555.4" font-family="Arial" font-size="14.00" fill="#000000">name </text>
<text text-anchor="start" x="630.899" y="-555.4" font-family="Arial" font-size="14.00" fill="#666666">[varchar(30)]</text>
<polygon fill="none" stroke="#000000" points="585,-514 585,-544 760,-544 760,-514 585,-514"/>
<text text-anchor="start" x="592" y="-525.4" font-family="Arial" font-size="14.00" fill="#000000">description </text>
<text text-anchor="start" x="663.568" y="-525.4" font-family="Arial" font-size="14.00" fill="#666666">[varchar(255)]</text>
<polygon fill="none" stroke="#000000" points="585,-484 585,-514 760,-514 760,-484 585,-484"/>
<text text-anchor="start" x="592" y="-495.4" font-family="Arial" font-size="14.00" fill="#000000">is_in_chlog </text>
<text text-anchor="start" x="665.906" y="-495.4" font-family="Arial" font-size="14.00" fill="#666666">[tinyint(1)]</text>
<polygon fill="none" stroke="#000000" points="585,-454 585,-484 760,-484 760,-454 585,-454"/>
<text text-anchor="start" x="592" y="-465.4" font-family="Arial" font-size="14.00" fill="#000000">position </text>
<text text-anchor="start" x="644.1248" y="-465.4" font-family="Arial" font-size="14.00" fill="#666666">[int(11)]</text>
<polygon fill="none" stroke="#000000" points="585,-424 585,-454 760,-454 760,-424 585,-424"/>
<text text-anchor="start" x="592" y="-435.4" font-family="Arial" font-size="14.00" fill="#000000">is_in_roadmap </text>
<text text-anchor="start" x="687.6858" y="-435.4" font-family="Arial" font-size="14.00" fill="#666666">[tinyint(1)]</text>
<polygon fill="none" stroke="#000000" points="585,-394 585,-424 760,-424 760,-394 585,-394"/>
<text text-anchor="start" x="592" y="-405.4" font-family="Arial" font-size="14.00" fill="#000000">fields_bits </text>
<text text-anchor="start" x="658.122" y="-405.4" font-family="Arial" font-size="14.00" fill="#666666">[int(11)]</text>
<polygon fill="none" stroke="#000000" points="585,-364 585,-394 760,-394 760,-364 585,-364"/>
<text text-anchor="start" x="592" y="-375.4" font-family="Arial" font-size="14.00" fill="#000000">default_status_id </text>
<text text-anchor="start" x="701.7096" y="-375.4" font-family="Arial" font-size="14.00" fill="#666666">[int(11)]</text>
<polygon fill="none" stroke="#000000" stroke-width="3" points="583,-362.5 583,-651.5 761,-651.5 761,-362.5 583,-362.5"/>
</g>
<!-- issue_statuses -->
<g id="node6" class="node">
<title>issue_statuses</title>
<polygon fill="#efefef" stroke="transparent" points="558,-193 558,-239 788,-239 788,-193 558,-193"/>
<polygon fill="none" stroke="#000000" points="558,-193 558,-239 788,-239 788,-193 558,-193"/>
<text text-anchor="start" x="564.8552" y="-216.8" font-family="Arial Bold" font-size="18.00" fill="#000000">issue_statuses</text>
<text text-anchor="start" x="683.891" y="-216.8" font-family="Arial" font-size="14.00" fill="#000000"> </text>
<text text-anchor="start" x="687.7816" y="-216.8" font-family="Arial" font-size="14.00" fill="#666666">[BASE TABLE]</text>
<text text-anchor="start" x="632.4448" y="-202.4" font-family="Arial" font-size="14.00" fill="#333333">ステータス</text>
<polygon fill="none" stroke="#000000" points="558,-163 558,-193 788,-193 788,-163 558,-163"/>
<text text-anchor="start" x="565" y="-174.4" font-family="Arial" font-size="14.00" fill="#000000">id </text>
<text text-anchor="start" x="579.7798" y="-174.4" font-family="Arial" font-size="14.00" fill="#666666">[int(11)]</text>
<polygon fill="none" stroke="#000000" points="558,-133 558,-163 788,-163 788,-133 558,-133"/>
<text text-anchor="start" x="565" y="-144.4" font-family="Arial" font-size="14.00" fill="#000000">name </text>
<text text-anchor="start" x="603.899" y="-144.4" font-family="Arial" font-size="14.00" fill="#666666">[varchar(30)]</text>
<polygon fill="none" stroke="#000000" points="558,-103 558,-133 788,-133 788,-103 558,-103"/>
<text text-anchor="start" x="565" y="-114.4" font-family="Arial" font-size="14.00" fill="#000000">is_closed </text>
<text text-anchor="start" x="627.2342" y="-114.4" font-family="Arial" font-size="14.00" fill="#666666">[tinyint(1)]</text>
<polygon fill="none" stroke="#000000" points="558,-73 558,-103 788,-103 788,-73 558,-73"/>
<text text-anchor="start" x="565" y="-84.4" font-family="Arial" font-size="14.00" fill="#000000">position </text>
<text text-anchor="start" x="617.1248" y="-84.4" font-family="Arial" font-size="14.00" fill="#666666">[int(11)]</text>
<polygon fill="none" stroke="#000000" points="558,-43 558,-73 788,-73 788,-43 558,-43"/>
<text text-anchor="start" x="565" y="-54.4" font-family="Arial" font-size="14.00" fill="#000000">default_done_ratio </text>
<text text-anchor="start" x="684.8274" y="-54.4" font-family="Arial" font-size="14.00" fill="#666666">[int(11)]</text>
</g>
<!-- trackers&#45;&gt;issue_statuses -->
<g id="edge5" class="edge">
<title>trackers:default_status_id&#45;&gt;issue_statuses:id</title>
<path fill="none" stroke="#000000" stroke-dasharray="5,2" d="M672.1405,-353.9503C663.0897,-305.1956 585.0627,-334.5348 558,-282 536.8327,-240.9094 511.7778,-178 558,-178"/>
<polygon fill="#000000" stroke="#000000" points="672.1478,-354.0364 668.5164,-364.3835 672.5739,-359.0182 673,-364 673,-364 673,-364 672.5739,-359.0182 677.4836,-363.6165 672.1478,-354.0364 672.1478,-354.0364"/>
<text text-anchor="start" x="656.0745" y="-348" font-family="Arial" font-size="10.00" fill="#000000">Additional Relation</text>
</g>
<!-- workflows -->
<g id="node2" class="node">
<title>workflows</title>
<polygon fill="#efefef" stroke="transparent" points="43,-1285 43,-1331 233,-1331 233,-1285 43,-1285"/>
<polygon fill="none" stroke="#000000" points="43,-1285 43,-1331 233,-1331 233,-1285 43,-1285"/>
<text text-anchor="start" x="49.8784" y="-1308.8" font-family="Arial Bold" font-size="18.00" fill="#000000">workflows</text>
<text text-anchor="start" x="128.8678" y="-1308.8" font-family="Arial" font-size="14.00" fill="#000000"> </text>
<text text-anchor="start" x="132.7584" y="-1308.8" font-family="Arial" font-size="14.00" fill="#666666">[BASE TABLE]</text>
<text text-anchor="start" x="85.5168" y="-1294.4" font-family="Arial" font-size="14.00" fill="#333333">ワークフロー</text>
<polygon fill="none" stroke="#000000" points="43,-1255 43,-1285 233,-1285 233,-1255 43,-1255"/>
<text text-anchor="start" x="50" y="-1266.4" font-family="Arial" font-size="14.00" fill="#000000">id </text>
<text text-anchor="start" x="64.7798" y="-1266.4" font-family="Arial" font-size="14.00" fill="#666666">[int(11)]</text>
<polygon fill="none" stroke="#000000" points="43,-1225 43,-1255 233,-1255 233,-1225 43,-1225"/>
<text text-anchor="start" x="50" y="-1236.4" font-family="Arial" font-size="14.00" fill="#000000">tracker_id </text>
<text text-anchor="start" x="115.3394" y="-1236.4" font-family="Arial" font-size="14.00" fill="#666666">[int(11)]</text>
<polygon fill="none" stroke="#000000" points="43,-1195 43,-1225 233,-1225 233,-1195 43,-1195"/>
<text text-anchor="start" x="50" y="-1206.4" font-family="Arial" font-size="14.00" fill="#000000">old_status_id </text>
<text text-anchor="start" x="136.3632" y="-1206.4" font-family="Arial" font-size="14.00" fill="#666666">[int(11)]</text>
<polygon fill="none" stroke="#000000" points="43,-1165 43,-1195 233,-1195 233,-1165 43,-1165"/>
<text text-anchor="start" x="50" y="-1176.4" font-family="Arial" font-size="14.00" fill="#000000">new_status_id </text>
<text text-anchor="start" x="143.3632" y="-1176.4" font-family="Arial" font-size="14.00" fill="#666666">[int(11)]</text>
<polygon fill="none" stroke="#000000" points="43,-1135 43,-1165 233,-1165 233,-1135 43,-1135"/>
<text text-anchor="start" x="50" y="-1146.4" font-family="Arial" font-size="14.00" fill="#000000">role_id </text>
<text text-anchor="start" x="95.8948" y="-1146.4" font-family="Arial" font-size="14.00" fill="#666666">[int(11)]</text>
<polygon fill="none" stroke="#000000" points="43,-1105 43,-1135 233,-1135 233,-1105 43,-1105"/>
<text text-anchor="start" x="50" y="-1116.4" font-family="Arial" font-size="14.00" fill="#000000">assignee </text>
<text text-anchor="start" x="109.9102" y="-1116.4" font-family="Arial" font-size="14.00" fill="#666666">[tinyint(1)]</text>
<polygon fill="none" stroke="#000000" points="43,-1075 43,-1105 233,-1105 233,-1075 43,-1075"/>
<text text-anchor="start" x="50" y="-1086.4" font-family="Arial" font-size="14.00" fill="#000000">author </text>
<text text-anchor="start" x="93.5722" y="-1086.4" font-family="Arial" font-size="14.00" fill="#666666">[tinyint(1)]</text>
<polygon fill="none" stroke="#000000" points="43,-1045 43,-1075 233,-1075 233,-1045 43,-1045"/>
<text text-anchor="start" x="50" y="-1056.4" font-family="Arial" font-size="14.00" fill="#000000">type </text>
<text text-anchor="start" x="80.3464" y="-1056.4" font-family="Arial" font-size="14.00" fill="#666666">[varchar(30)]</text>
<polygon fill="none" stroke="#000000" points="43,-1015 43,-1045 233,-1045 233,-1015 43,-1015"/>
<text text-anchor="start" x="50" y="-1026.4" font-family="Arial" font-size="14.00" fill="#000000">field_name </text>
<text text-anchor="start" x="122.3506" y="-1026.4" font-family="Arial" font-size="14.00" fill="#666666">[varchar(30)]</text>
<polygon fill="none" stroke="#000000" points="43,-985 43,-1015 233,-1015 233,-985 43,-985"/>
<text text-anchor="start" x="50" y="-996.4" font-family="Arial" font-size="14.00" fill="#000000">rule </text>
<text text-anchor="start" x="77.223" y="-996.4" font-family="Arial" font-size="14.00" fill="#666666">[varchar(30)]</text>
</g>
<!-- workflows&#45;&gt;trackers -->
<g id="edge1" class="edge">
<title>workflows:tracker_id&#45;&gt;trackers:id</title>
<path fill="none" stroke="#000000" stroke-dasharray="5,2" d="M242.9477,-1238.806C338.7379,-1214.3619 221.6635,-821.8535 285,-732 370.0994,-611.2723 437.2939,-589 585,-589"/>
<polygon fill="#000000" stroke="#000000" points="242.9287,-1238.8082 232.4637,-1235.5321 237.9644,-1239.4041 233,-1240 233,-1240 233,-1240 237.9644,-1239.4041 233.5363,-1244.4679 242.9287,-1238.8082 242.9287,-1238.8082"/>
<text text-anchor="start" x="240.3245" y="-1250" font-family="Arial" font-size="10.00" fill="#000000">Additional Relation</text>
</g>
<!-- custom_fields_trackers -->
<g id="node3" class="node">
<title>custom_fields_trackers</title>
<polygon fill="#efefef" stroke="transparent" points="338,-1165 338,-1211 633,-1211 633,-1165 338,-1165"/>
<polygon fill="none" stroke="#000000" points="338,-1165 338,-1211 633,-1211 633,-1165 338,-1165"/>
<text text-anchor="start" x="344.8625" y="-1188.8" font-family="Arial Bold" font-size="18.00" fill="#000000">custom_fields_trackers</text>
<text text-anchor="start" x="528.8837" y="-1188.8" font-family="Arial" font-size="14.00" fill="#000000"> </text>
<text text-anchor="start" x="532.7743" y="-1188.8" font-family="Arial" font-size="14.00" fill="#666666">[BASE TABLE]</text>
<text text-anchor="start" x="368.9451" y="-1174.4" font-family="Arial" font-size="14.00" fill="#333333">カスタムフィールド⇔トラッカー</text>
<polygon fill="none" stroke="#000000" points="338,-1135 338,-1165 633,-1165 633,-1135 338,-1135"/>
<text text-anchor="start" x="345" y="-1146.4" font-family="Arial" font-size="14.00" fill="#000000">custom_field_id </text>
<text text-anchor="start" x="446.1304" y="-1146.4" font-family="Arial" font-size="14.00" fill="#666666">[int(11)]</text>
<polygon fill="none" stroke="#000000" points="338,-1105 338,-1135 633,-1135 633,-1105 338,-1105"/>
<text text-anchor="start" x="345" y="-1116.4" font-family="Arial" font-size="14.00" fill="#000000">tracker_id </text>
<text text-anchor="start" x="410.3394" y="-1116.4" font-family="Arial" font-size="14.00" fill="#666666">[int(11)]</text>
</g>
<!-- custom_fields_trackers&#45;&gt;trackers -->
<g id="edge2" class="edge">
<title>custom_fields_trackers:tracker_id&#45;&gt;trackers:id</title>
<path fill="none" stroke="#000000" stroke-dasharray="5,2" d="M642.9503,-1118.4767C734.065,-1087.3311 470.2214,-589 585,-589"/>
<polygon fill="#000000" stroke="#000000" points="642.8848,-1118.4867 632.319,-1115.5518 637.9424,-1119.2433 633,-1120 633,-1120 633,-1120 637.9424,-1119.2433 633.681,-1124.4482 642.8848,-1118.4867 642.8848,-1118.4867"/>
<text text-anchor="start" x="640.3245" y="-1130" font-family="Arial" font-size="10.00" fill="#000000">Additional Relation</text>
</g>
<!-- projects_trackers -->
<g id="node4" class="node">
<title>projects_trackers</title>
<polygon fill="#efefef" stroke="transparent" points="737,-1165 737,-1211 985,-1211 985,-1165 737,-1165"/>
<polygon fill="none" stroke="#000000" points="737,-1165 737,-1211 985,-1211 985,-1165 737,-1165"/>
<text text-anchor="start" x="743.8669" y="-1188.8" font-family="Arial Bold" font-size="18.00" fill="#000000">projects_trackers</text>
<text text-anchor="start" x="880.8793" y="-1188.8" font-family="Arial" font-size="14.00" fill="#000000"> </text>
<text text-anchor="start" x="884.7699" y="-1188.8" font-family="Arial" font-size="14.00" fill="#666666">[BASE TABLE]</text>
<text text-anchor="start" x="773.9998" y="-1174.4" font-family="Arial" font-size="14.00" fill="#333333">プロジェクト⇔トラッカー</text>
<polygon fill="none" stroke="#000000" points="737,-1135 737,-1165 985,-1165 985,-1135 737,-1135"/>
<text text-anchor="start" x="744" y="-1146.4" font-family="Arial" font-size="14.00" fill="#000000">project_id </text>
<text text-anchor="start" x="808.568" y="-1146.4" font-family="Arial" font-size="14.00" fill="#666666">[int(11)]</text>
<polygon fill="none" stroke="#000000" points="737,-1105 737,-1135 985,-1135 985,-1105 737,-1105"/>
<text text-anchor="start" x="744" y="-1116.4" font-family="Arial" font-size="14.00" fill="#000000">tracker_id </text>
<text text-anchor="start" x="809.3394" y="-1116.4" font-family="Arial" font-size="14.00" fill="#666666">[int(11)]</text>
</g>
<!-- projects_trackers&#45;&gt;trackers -->
<g id="edge3" class="edge">
<title>projects_trackers:tracker_id&#45;&gt;trackers:id</title>
<path fill="none" stroke="#000000" stroke-dasharray="5,2" d="M727.0096,-1118.4767C634.7222,-1087.3311 874.4197,-589 760,-589"/>
<polygon fill="#000000" stroke="#000000" points="727.1142,-1118.4926 736.3217,-1124.4486 732.0571,-1119.2463 737,-1120 737,-1120 737,-1120 732.0571,-1119.2463 737.6783,-1115.5514 727.1142,-1118.4926 727.1142,-1118.4926"/>
<text text-anchor="start" x="647.3245" y="-1104" font-family="Arial" font-size="10.00" fill="#000000">Additional Relation</text>
</g>
<!-- issues -->
<g id="node5" class="node">
<title>issues</title>
<polygon fill="#efefef" stroke="transparent" points="1090,-1495 1090,-1541 1391,-1541 1391,-1495 1090,-1495"/>
<polygon fill="none" stroke="#000000" points="1090,-1495 1090,-1541 1391,-1541 1391,-1495 1090,-1495"/>
<text text-anchor="start" x="1166.3698" y="-1518.8" font-family="Arial Bold" font-size="18.00" fill="#000000">issues</text>
<text text-anchor="start" x="1217.3764" y="-1518.8" font-family="Arial" font-size="14.00" fill="#000000"> </text>
<text text-anchor="start" x="1221.267" y="-1518.8" font-family="Arial" font-size="14.00" fill="#666666">[BASE TABLE]</text>
<text text-anchor="start" x="1212.6344" y="-1504.4" font-family="Arial" font-size="14.00" fill="#333333">チケット</text>
<polygon fill="none" stroke="#000000" points="1090,-1465 1090,-1495 1391,-1495 1391,-1465 1090,-1465"/>
<text text-anchor="start" x="1097" y="-1476.4" font-family="Arial" font-size="14.00" fill="#000000">id </text>
<text text-anchor="start" x="1111.7798" y="-1476.4" font-family="Arial" font-size="14.00" fill="#666666">[int(11)]</text>
<polygon fill="none" stroke="#000000" points="1090,-1435 1090,-1465 1391,-1465 1391,-1435 1090,-1435"/>
<text text-anchor="start" x="1097" y="-1446.4" font-family="Arial" font-size="14.00" fill="#000000">tracker_id </text>
<text text-anchor="start" x="1162.3394" y="-1446.4" font-family="Arial" font-size="14.00" fill="#666666">[int(11)]</text>
<text text-anchor="start" x="1209.7868" y="-1446.4" font-family="Arial" font-size="14.00" fill="#000000"> トラッカーID</text>
<polygon fill="none" stroke="#000000" points="1090,-1405 1090,-1435 1391,-1435 1391,-1405 1090,-1405"/>
<text text-anchor="start" x="1097" y="-1416.4" font-family="Arial" font-size="14.00" fill="#000000">project_id </text>
<text text-anchor="start" x="1161.568" y="-1416.4" font-family="Arial" font-size="14.00" fill="#666666">[int(11)]</text>
<text text-anchor="start" x="1209.0154" y="-1416.4" font-family="Arial" font-size="14.00" fill="#000000"> プロジェクトID</text>
<polygon fill="none" stroke="#000000" points="1090,-1375 1090,-1405 1391,-1405 1391,-1375 1090,-1375"/>
<text text-anchor="start" x="1097" y="-1386.4" font-family="Arial" font-size="14.00" fill="#000000">subject </text>
<text text-anchor="start" x="1145.2356" y="-1386.4" font-family="Arial" font-size="14.00" fill="#666666">[varchar(255)]</text>
<text text-anchor="start" x="1232.3548" y="-1386.4" font-family="Arial" font-size="14.00" fill="#000000"> 題名</text>
<polygon fill="none" stroke="#000000" points="1090,-1345 1090,-1375 1391,-1375 1391,-1345 1090,-1345"/>
<text text-anchor="start" x="1097" y="-1356.4" font-family="Arial" font-size="14.00" fill="#000000">description </text>
<text text-anchor="start" x="1168.568" y="-1356.4" font-family="Arial" font-size="14.00" fill="#666666">[longtext]</text>
<text text-anchor="start" x="1225.3674" y="-1356.4" font-family="Arial" font-size="14.00" fill="#000000"> 説明</text>
<polygon fill="none" stroke="#000000" points="1090,-1315 1090,-1345 1391,-1345 1391,-1315 1090,-1315"/>
<text text-anchor="start" x="1097" y="-1326.4" font-family="Arial" font-size="14.00" fill="#000000">due_date </text>
<text text-anchor="start" x="1159.2594" y="-1326.4" font-family="Arial" font-size="14.00" fill="#666666">[date]</text>
<text text-anchor="start" x="1194.279" y="-1326.4" font-family="Arial" font-size="14.00" fill="#000000"> 期日</text>
<polygon fill="none" stroke="#000000" points="1090,-1285 1090,-1315 1391,-1315 1391,-1285 1090,-1285"/>
<text text-anchor="start" x="1097" y="-1296.4" font-family="Arial" font-size="14.00" fill="#000000">category_id </text>
<text text-anchor="start" x="1173.244" y="-1296.4" font-family="Arial" font-size="14.00" fill="#666666">[int(11)]</text>
<text text-anchor="start" x="1220.6914" y="-1296.4" font-family="Arial" font-size="14.00" fill="#000000"> カテゴリーID</text>
<polygon fill="none" stroke="#000000" points="1090,-1255 1090,-1285 1391,-1285 1391,-1255 1090,-1255"/>
<text text-anchor="start" x="1097" y="-1266.4" font-family="Arial" font-size="14.00" fill="#000000">status_id </text>
<text text-anchor="start" x="1156.9088" y="-1266.4" font-family="Arial" font-size="14.00" fill="#666666">[int(11)]</text>
<text text-anchor="start" x="1204.3562" y="-1266.4" font-family="Arial" font-size="14.00" fill="#000000"> ステータスID</text>
<polygon fill="none" stroke="#000000" points="1090,-1225 1090,-1255 1391,-1255 1391,-1225 1090,-1225"/>
<text text-anchor="start" x="1097" y="-1236.4" font-family="Arial" font-size="14.00" fill="#000000">assigned_to_id </text>
<text text-anchor="start" x="1195.0378" y="-1236.4" font-family="Arial" font-size="14.00" fill="#666666">[int(11)]</text>
<text text-anchor="start" x="1242.4852" y="-1236.4" font-family="Arial" font-size="14.00" fill="#000000"> 担当者ID</text>
<polygon fill="none" stroke="#000000" points="1090,-1195 1090,-1225 1391,-1225 1391,-1195 1090,-1195"/>
<text text-anchor="start" x="1097" y="-1206.4" font-family="Arial" font-size="14.00" fill="#000000">priority_id </text>
<text text-anchor="start" x="1161.5526" y="-1206.4" font-family="Arial" font-size="14.00" fill="#666666">[int(11)]</text>
<text text-anchor="start" x="1209" y="-1206.4" font-family="Arial" font-size="14.00" fill="#000000"> 優先度ID</text>
<polygon fill="none" stroke="#000000" points="1090,-1165 1090,-1195 1391,-1195 1391,-1165 1090,-1165"/>
<text text-anchor="start" x="1096.8635" y="-1176.4" font-family="Arial" font-size="14.00" fill="#000000">fixed_version_id </text>
<text text-anchor="start" x="1201.8859" y="-1176.4" font-family="Arial" font-size="14.00" fill="#666666">[int(11)]</text>
<text text-anchor="start" x="1249.3333" y="-1176.4" font-family="Arial" font-size="14.00" fill="#000000"> 対象バージョンID</text>
<polygon fill="none" stroke="#000000" points="1090,-1135 1090,-1165 1391,-1165 1391,-1135 1090,-1135"/>
<text text-anchor="start" x="1097" y="-1146.4" font-family="Arial" font-size="14.00" fill="#000000">author_id </text>
<text text-anchor="start" x="1159.244" y="-1146.4" font-family="Arial" font-size="14.00" fill="#666666">[int(11)]</text>
<text text-anchor="start" x="1206.6914" y="-1146.4" font-family="Arial" font-size="14.00" fill="#000000"> 登録者ID</text>
<polygon fill="none" stroke="#000000" points="1090,-1105 1090,-1135 1391,-1135 1391,-1105 1090,-1105"/>
<text text-anchor="start" x="1097" y="-1116.4" font-family="Arial" font-size="14.00" fill="#000000">lock_version </text>
<text text-anchor="start" x="1178.6774" y="-1116.4" font-family="Arial" font-size="14.00" fill="#666666">[int(11)]</text>
<text text-anchor="start" x="1226.1248" y="-1116.4" font-family="Arial" font-size="14.00" fill="#000000"> ロックバージョン</text>
<polygon fill="none" stroke="#000000" points="1090,-1075 1090,-1105 1391,-1105 1391,-1075 1090,-1075"/>
<text text-anchor="start" x="1097" y="-1086.4" font-family="Arial" font-size="14.00" fill="#000000">created_on </text>
<text text-anchor="start" x="1170.92" y="-1086.4" font-family="Arial" font-size="14.00" fill="#666666">[timestamp]</text>
<polygon fill="none" stroke="#000000" points="1090,-1045 1090,-1075 1391,-1075 1391,-1045 1090,-1045"/>
<text text-anchor="start" x="1097" y="-1056.4" font-family="Arial" font-size="14.00" fill="#000000">updated_on </text>
<text text-anchor="start" x="1174.8246" y="-1056.4" font-family="Arial" font-size="14.00" fill="#666666">[timestamp]</text>
<polygon fill="none" stroke="#000000" points="1090,-1015 1090,-1045 1391,-1045 1391,-1015 1090,-1015"/>
<text text-anchor="start" x="1097" y="-1026.4" font-family="Arial" font-size="14.00" fill="#000000">start_date </text>
<text text-anchor="start" x="1163.136" y="-1026.4" font-family="Arial" font-size="14.00" fill="#666666">[date]</text>
<text text-anchor="start" x="1198.1556" y="-1026.4" font-family="Arial" font-size="14.00" fill="#000000"> 開始日</text>
<polygon fill="none" stroke="#000000" points="1090,-985 1090,-1015 1391,-1015 1391,-985 1090,-985"/>
<text text-anchor="start" x="1097" y="-996.4" font-family="Arial" font-size="14.00" fill="#000000">done_ratio </text>
<text text-anchor="start" x="1167.0266" y="-996.4" font-family="Arial" font-size="14.00" fill="#666666">[int(11)]</text>
<text text-anchor="start" x="1214.474" y="-996.4" font-family="Arial" font-size="14.00" fill="#000000"> 進捗率</text>
<polygon fill="none" stroke="#000000" points="1090,-955 1090,-985 1391,-985 1391,-955 1090,-955"/>
<text text-anchor="start" x="1097" y="-966.4" font-family="Arial" font-size="14.00" fill="#000000">estimated_hours </text>
<text text-anchor="start" x="1204.3604" y="-966.4" font-family="Arial" font-size="14.00" fill="#666666">[float]</text>
<text text-anchor="start" x="1238.5946" y="-966.4" font-family="Arial" font-size="14.00" fill="#000000"> 予定工数</text>
<polygon fill="none" stroke="#000000" points="1090,-925 1090,-955 1391,-955 1391,-925 1090,-925"/>
<text text-anchor="start" x="1097" y="-936.4" font-family="Arial" font-size="14.00" fill="#000000">parent_id </text>
<text text-anchor="start" x="1159.244" y="-936.4" font-family="Arial" font-size="14.00" fill="#666666">[int(11)]</text>
<text text-anchor="start" x="1206.6914" y="-936.4" font-family="Arial" font-size="14.00" fill="#000000"> 親チケット</text>
<polygon fill="none" stroke="#000000" points="1090,-895 1090,-925 1391,-925 1391,-895 1090,-895"/>
<text text-anchor="start" x="1097" y="-906.4" font-family="Arial" font-size="14.00" fill="#000000">root_id </text>
<text text-anchor="start" x="1143.6788" y="-906.4" font-family="Arial" font-size="14.00" fill="#666666">[int(11)]</text>
<text text-anchor="start" x="1191.1262" y="-906.4" font-family="Arial" font-size="14.00" fill="#000000"> ルートID</text>
<polygon fill="none" stroke="#000000" points="1090,-865 1090,-895 1391,-895 1391,-865 1090,-865"/>
<text text-anchor="start" x="1097" y="-876.4" font-family="Arial" font-size="14.00" fill="#000000">lft </text>
<text text-anchor="start" x="1111.7784" y="-876.4" font-family="Arial" font-size="14.00" fill="#666666">[int(11)]</text>
<text text-anchor="start" x="1159.2258" y="-876.4" font-family="Arial" font-size="14.00" fill="#000000"> 左ノードポインタ</text>
<polygon fill="none" stroke="#000000" points="1090,-835 1090,-865 1391,-865 1391,-835 1090,-835"/>
<text text-anchor="start" x="1097" y="-846.4" font-family="Arial" font-size="14.00" fill="#000000">rgt </text>
<text text-anchor="start" x="1117.2244" y="-846.4" font-family="Arial" font-size="14.00" fill="#666666">[int(11)]</text>
<text text-anchor="start" x="1164.6718" y="-846.4" font-family="Arial" font-size="14.00" fill="#000000"> 右ノードポインタ</text>
<polygon fill="none" stroke="#000000" points="1090,-805 1090,-835 1391,-835 1391,-805 1090,-805"/>
<text text-anchor="start" x="1097" y="-816.4" font-family="Arial" font-size="14.00" fill="#000000">is_private </text>
<text text-anchor="start" x="1160.7854" y="-816.4" font-family="Arial" font-size="14.00" fill="#666666">[tinyint(1)]</text>
<text text-anchor="start" x="1222.23" y="-816.4" font-family="Arial" font-size="14.00" fill="#000000"> プライベート</text>
<polygon fill="none" stroke="#000000" points="1090,-775 1090,-805 1391,-805 1391,-775 1090,-775"/>
<text text-anchor="start" x="1097" y="-786.4" font-family="Arial" font-size="14.00" fill="#000000">closed_on </text>
<text text-anchor="start" x="1164.6928" y="-786.4" font-family="Arial" font-size="14.00" fill="#666666">[datetime]</text>
<text text-anchor="start" x="1226.1528" y="-786.4" font-family="Arial" font-size="14.00" fill="#000000"> 完了日時</text>
</g>
<!-- issues&#45;&gt;trackers -->
<g id="edge4" class="edge">
<title>issues:tracker_id&#45;&gt;trackers:id</title>
<path fill="none" stroke="#000000" stroke-dasharray="5,2" d="M1080.5039,-1446.4907C1015.9025,-1395.1114 1079.2086,-795.8709 1037,-732 960.6139,-616.411 898.5484,-589 760,-589"/>
<polygon fill="#000000" stroke="#000000" points="1080.62,-1446.5336 1088.4401,-1454.221 1085.31,-1448.2668 1090,-1450 1090,-1450 1090,-1450 1085.31,-1448.2668 1091.5599,-1445.779 1080.62,-1446.5336 1080.62,-1446.5336"/>
<text text-anchor="start" x="1000.3245" y="-1460" font-family="Arial" font-size="10.00" fill="#000000">Additional Relation</text>
</g>
</g>
</svg>
