<?xml version="1.0" encoding="UTF-8" standalone="no"?>
<!DOCTYPE svg PUBLIC "-//W3C//DTD SVG 1.1//EN"
 "http://www.w3.org/Graphics/SVG/1.1/DTD/svg11.dtd">
<!-- Generated by graphviz version 2.40.1 (20161225.0304)
 -->
<!-- Title: trackers Pages: 1 -->
<svg width="1954pt" height="1562pt"
 viewBox="0.00 0.00 1953.50 1562.00" xmlns="http://www.w3.org/2000/svg" xmlns:xlink="http://www.w3.org/1999/xlink">
<g id="graph0" class="graph" transform="scale(1 1) rotate(0) translate(4 1558)">
<title>trackers</title>
<polygon fill="#ffffff" stroke="transparent" points="-4,4 -4,-1558 1949.5,-1558 1949.5,4 -4,4"/>
<!-- trackers -->
<g id="node1" class="node">
<title>trackers</title>
<polygon fill="#efefef" stroke="transparent" points="1097,-574 1097,-620 1272,-620 1272,-574 1097,-574"/>
<polygon fill="none" stroke="#000000" points="1097,-574 1097,-620 1272,-620 1272,-574 1097,-574"/>
<text text-anchor="start" x="1103.8736" y="-597.8" font-family="Arial Bold" font-size="18.00" fill="#000000">trackers</text>
<text text-anchor="start" x="1167.8726" y="-597.8" font-family="Arial" font-size="14.00" fill="#000000"> </text>
<text text-anchor="start" x="1171.7632" y="-597.8" font-family="Arial" font-size="14.00" fill="#666666">[BASE TABLE]</text>
<text text-anchor="start" x="1145.7088" y="-583.4" font-family="Arial" font-size="14.00" fill="#333333">トラッカー</text>
<polygon fill="none" stroke="#000000" points="1097,-544 1097,-574 1272,-574 1272,-544 1097,-544"/>
<text text-anchor="start" x="1104" y="-555.4" font-family="Arial" font-size="14.00" fill="#000000">id </text>
<text text-anchor="start" x="1118.7798" y="-555.4" font-family="Arial" font-size="14.00" fill="#666666">[int(11)]</text>
<polygon fill="none" stroke="#000000" points="1097,-514 1097,-544 1272,-544 1272,-514 1097,-514"/>
<text text-anchor="start" x="1104" y="-525.4" font-family="Arial" font-size="14.00" fill="#000000">name </text>
<text text-anchor="start" x="1142.899" y="-525.4" font-family="Arial" font-size="14.00" fill="#666666">[varchar(30)]</text>
<polygon fill="none" stroke="#000000" points="1097,-484 1097,-514 1272,-514 1272,-484 1097,-484"/>
<text text-anchor="start" x="1104" y="-495.4" font-family="Arial" font-size="14.00" fill="#000000">description </text>
<text text-anchor="start" x="1175.568" y="-495.4" font-family="Arial" font-size="14.00" fill="#666666">[varchar(255)]</text>
<polygon fill="none" stroke="#000000" points="1097,-454 1097,-484 1272,-484 1272,-454 1097,-454"/>
<text text-anchor="start" x="1104" y="-465.4" font-family="Arial" font-size="14.00" fill="#000000">position </text>
<text text-anchor="start" x="1156.1248" y="-465.4" font-family="Arial" font-size="14.00" fill="#666666">[int(11)]</text>
<polygon fill="none" stroke="#000000" points="1097,-424 1097,-454 1272,-454 1272,-424 1097,-424"/>
<text text-anchor="start" x="1104" y="-435.4" font-family="Arial" font-size="14.00" fill="#000000">is_in_roadmap </text>
<text text-anchor="start" x="1199.6858" y="-435.4" font-family="Arial" font-size="14.00" fill="#666666">[tinyint(1)]</text>
<polygon fill="none" stroke="#000000" points="1097,-394 1097,-424 1272,-424 1272,-394 1097,-394"/>
<text text-anchor="start" x="1104" y="-405.4" font-family="Arial" font-size="14.00" fill="#000000">fields_bits </text>
<text text-anchor="start" x="1170.122" y="-405.4" font-family="Arial" font-size="14.00" fill="#666666">[int(11)]</text>
<polygon fill="none" stroke="#000000" points="1097,-364 1097,-394 1272,-394 1272,-364 1097,-364"/>
<text text-anchor="start" x="1104" y="-375.4" font-family="Arial" font-size="14.00" fill="#000000">default_status_id </text>
<text text-anchor="start" x="1213.7096" y="-375.4" font-family="Arial" font-size="14.00" fill="#666666">[int(11)]</text>
<polygon fill="none" stroke="#000000" stroke-width="3" points="1095,-362.5 1095,-621.5 1273,-621.5 1273,-362.5 1095,-362.5"/>
</g>
<!-- issue_statuses -->
<g id="node6" class="node">
<title>issue_statuses</title>
<polygon fill="#efefef" stroke="transparent" points="1070,-193 1070,-239 1300,-239 1300,-193 1070,-193"/>
<polygon fill="none" stroke="#000000" points="1070,-193 1070,-239 1300,-239 1300,-193 1070,-193"/>
<text text-anchor="start" x="1076.8552" y="-216.8" font-family="Arial Bold" font-size="18.00" fill="#000000">issue_statuses</text>
<text text-anchor="start" x="1195.891" y="-216.8" font-family="Arial" font-size="14.00" fill="#000000"> </text>
<text text-anchor="start" x="1199.7816" y="-216.8" font-family="Arial" font-size="14.00" fill="#666666">[BASE TABLE]</text>
<text text-anchor="start" x="1144.4448" y="-202.4" font-family="Arial" font-size="14.00" fill="#333333">ステータス</text>
<polygon fill="none" stroke="#000000" points="1070,-163 1070,-193 1300,-193 1300,-163 1070,-163"/>
<text text-anchor="start" x="1077" y="-174.4" font-family="Arial" font-size="14.00" fill="#000000">id </text>
<text text-anchor="start" x="1091.7798" y="-174.4" font-family="Arial" font-size="14.00" fill="#666666">[int(11)]</text>
<polygon fill="none" stroke="#000000" points="1070,-133 1070,-163 1300,-163 1300,-133 1070,-133"/>
<text text-anchor="start" x="1077" y="-144.4" font-family="Arial" font-size="14.00" fill="#000000">name </text>
<text text-anchor="start" x="1115.899" y="-144.4" font-family="Arial" font-size="14.00" fill="#666666">[varchar(30)]</text>
<polygon fill="none" stroke="#000000" points="1070,-103 1070,-133 1300,-133 1300,-103 1070,-103"/>
<text text-anchor="start" x="1077" y="-114.4" font-family="Arial" font-size="14.00" fill="#000000">is_closed </text>
<text text-anchor="start" x="1139.2342" y="-114.4" font-family="Arial" font-size="14.00" fill="#666666">[tinyint(1)]</text>
<polygon fill="none" stroke="#000000" points="1070,-73 1070,-103 1300,-103 1300,-73 1070,-73"/>
<text text-anchor="start" x="1077" y="-84.4" font-family="Arial" font-size="14.00" fill="#000000">position </text>
<text text-anchor="start" x="1129.1248" y="-84.4" font-family="Arial" font-size="14.00" fill="#666666">[int(11)]</text>
<polygon fill="none" stroke="#000000" points="1070,-43 1070,-73 1300,-73 1300,-43 1070,-43"/>
<text text-anchor="start" x="1077" y="-54.4" font-family="Arial" font-size="14.00" fill="#000000">default_done_ratio </text>
<text text-anchor="start" x="1196.8274" y="-54.4" font-family="Arial" font-size="14.00" fill="#666666">[int(11)]</text>
</g>
<!-- trackers&#45;&gt;issue_statuses -->
<g id="edge5" class="edge">
<title>trackers:default_status_id&#45;&gt;issue_statuses:id</title>
<path fill="none" stroke="#000000" stroke-dasharray="5,2" d="M1184.1405,-353.9503C1175.0897,-305.1956 1097.0627,-334.5348 1070,-282 1048.8327,-240.9094 1023.7778,-178 1070,-178"/>
<polygon fill="#000000" stroke="#000000" points="1184.1478,-354.0364 1180.5164,-364.3835 1184.5739,-359.0182 1185,-364 1185,-364 1185,-364 1184.5739,-359.0182 1189.4836,-363.6165 1184.1478,-354.0364 1184.1478,-354.0364"/>
<text text-anchor="start" x="1168.0745" y="-348" font-family="Arial" font-size="10.00" fill="#000000">Additional Relation</text>
</g>
<!-- workflows -->
<g id="node2" class="node">
<title>workflows</title>
<polygon fill="#efefef" stroke="transparent" points="43,-1255 43,-1301 745,-1301 745,-1255 43,-1255"/>
<polygon fill="none" stroke="#000000" points="43,-1255 43,-1301 745,-1301 745,-1255 43,-1255"/>
<text text-anchor="start" x="305.8784" y="-1278.8" font-family="Arial Bold" font-size="18.00" fill="#000000">workflows</text>
<text text-anchor="start" x="384.8678" y="-1278.8" font-family="Arial" font-size="14.00" fill="#000000"> </text>
<text text-anchor="start" x="388.7584" y="-1278.8" font-family="Arial" font-size="14.00" fill="#666666">[BASE TABLE]</text>
<text text-anchor="start" x="273.6819" y="-1264.4" font-family="Arial" font-size="14.00" fill="#333333">ワークフロー/フィールドの権限</text>
<polygon fill="none" stroke="#000000" points="43,-1225 43,-1255 745,-1255 745,-1225 43,-1225"/>
<text text-anchor="start" x="50" y="-1236.4" font-family="Arial" font-size="14.00" fill="#000000">id </text>
<text text-anchor="start" x="64.7798" y="-1236.4" font-family="Arial" font-size="14.00" fill="#666666">[int(11)]</text>
<polygon fill="none" stroke="#000000" points="43,-1195 43,-1225 745,-1225 745,-1195 43,-1195"/>
<text text-anchor="start" x="50" y="-1206.4" font-family="Arial" font-size="14.00" fill="#000000">tracker_id </text>
<text text-anchor="start" x="115.3394" y="-1206.4" font-family="Arial" font-size="14.00" fill="#666666">[int(11)]</text>
<polygon fill="none" stroke="#000000" points="43,-1165 43,-1195 745,-1195 745,-1165 43,-1165"/>
<text text-anchor="start" x="50" y="-1176.4" font-family="Arial" font-size="14.00" fill="#000000">old_status_id </text>
<text text-anchor="start" x="136.3632" y="-1176.4" font-family="Arial" font-size="14.00" fill="#666666">[int(11)]</text>
<polygon fill="none" stroke="#000000" points="43,-1135 43,-1165 745,-1165 745,-1135 43,-1135"/>
<text text-anchor="start" x="50" y="-1146.4" font-family="Arial" font-size="14.00" fill="#000000">new_status_id </text>
<text text-anchor="start" x="143.3632" y="-1146.4" font-family="Arial" font-size="14.00" fill="#666666">[int(11)]</text>
<polygon fill="none" stroke="#000000" points="43,-1105 43,-1135 745,-1135 745,-1105 43,-1105"/>
<text text-anchor="start" x="50" y="-1116.4" font-family="Arial" font-size="14.00" fill="#000000">role_id </text>
<text text-anchor="start" x="95.8948" y="-1116.4" font-family="Arial" font-size="14.00" fill="#666666">[int(11)]</text>
<polygon fill="none" stroke="#000000" points="43,-1075 43,-1105 745,-1105 745,-1075 43,-1075"/>
<text text-anchor="start" x="50" y="-1086.4" font-family="Arial" font-size="14.00" fill="#000000">assignee </text>
<text text-anchor="start" x="109.9102" y="-1086.4" font-family="Arial" font-size="14.00" fill="#666666">[tinyint(1)]</text>
<polygon fill="none" stroke="#000000" points="43,-1045 43,-1075 745,-1075 745,-1045 43,-1045"/>
<text text-anchor="start" x="50" y="-1056.4" font-family="Arial" font-size="14.00" fill="#000000">author </text>
<text text-anchor="start" x="93.5722" y="-1056.4" font-family="Arial" font-size="14.00" fill="#666666">[tinyint(1)]</text>
<polygon fill="none" stroke="#000000" points="43,-1015 43,-1045 745,-1045 745,-1015 43,-1015"/>
<text text-anchor="start" x="49.8205" y="-1026.4" font-family="Arial" font-size="14.00" fill="#000000">type </text>
<text text-anchor="start" x="80.1669" y="-1026.4" font-family="Arial" font-size="14.00" fill="#666666">[varchar(30)]</text>
<text text-anchor="start" x="159.5035" y="-1026.4" font-family="Arial" font-size="14.00" fill="#000000"> WorkflowTransition:ステータスの遷移 WorkflowPermission:フィールドに対する権限 &#160;</text>
<polygon fill="none" stroke="#000000" points="43,-985 43,-1015 745,-1015 745,-985 43,-985"/>
<text text-anchor="start" x="50" y="-996.4" font-family="Arial" font-size="14.00" fill="#000000">field_name </text>
<text text-anchor="start" x="122.3506" y="-996.4" font-family="Arial" font-size="14.00" fill="#666666">[varchar(30)]</text>
<polygon fill="none" stroke="#000000" points="43,-955 43,-985 745,-985 745,-955 43,-955"/>
<text text-anchor="start" x="50" y="-966.4" font-family="Arial" font-size="14.00" fill="#000000">rule </text>
<text text-anchor="start" x="77.223" y="-966.4" font-family="Arial" font-size="14.00" fill="#666666">[varchar(30)]</text>
</g>
<!-- workflows&#45;&gt;trackers -->
<g id="edge1" class="edge">
<title>workflows:tracker_id&#45;&gt;trackers:id</title>
<path fill="none" stroke="#000000" stroke-dasharray="5,2" d="M754.9477,-1208.806C850.7379,-1184.3619 733.6635,-791.8535 797,-702 882.0994,-581.2723 949.2939,-559 1097,-559"/>
<polygon fill="#000000" stroke="#000000" points="754.9287,-1208.8082 744.4637,-1205.5321 749.9644,-1209.4041 745,-1210 745,-1210 745,-1210 749.9644,-1209.4041 745.5363,-1214.4679 754.9287,-1208.8082 754.9287,-1208.8082"/>
<text text-anchor="start" x="752.3245" y="-1220" font-family="Arial" font-size="10.00" fill="#000000">Additional Relation</text>
</g>
<!-- custom_fields_trackers -->
<g id="node3" class="node">
<title>custom_fields_trackers</title>
<polygon fill="#efefef" stroke="transparent" points="850,-1135 850,-1181 1145,-1181 1145,-1135 850,-1135"/>
<polygon fill="none" stroke="#000000" points="850,-1135 850,-1181 1145,-1181 1145,-1135 850,-1135"/>
<text text-anchor="start" x="856.8625" y="-1158.8" font-family="Arial Bold" font-size="18.00" fill="#000000">custom_fields_trackers</text>
<text text-anchor="start" x="1040.8837" y="-1158.8" font-family="Arial" font-size="14.00" fill="#000000"> </text>
<text text-anchor="start" x="1044.7743" y="-1158.8" font-family="Arial" font-size="14.00" fill="#666666">[BASE TABLE]</text>
<text text-anchor="start" x="880.9451" y="-1144.4" font-family="Arial" font-size="14.00" fill="#333333">カスタムフィールド⇔トラッカー</text>
<polygon fill="none" stroke="#000000" points="850,-1105 850,-1135 1145,-1135 1145,-1105 850,-1105"/>
<text text-anchor="start" x="857" y="-1116.4" font-family="Arial" font-size="14.00" fill="#000000">custom_field_id </text>
<text text-anchor="start" x="958.1304" y="-1116.4" font-family="Arial" font-size="14.00" fill="#666666">[int(11)]</text>
<polygon fill="none" stroke="#000000" points="850,-1075 850,-1105 1145,-1105 1145,-1075 850,-1075"/>
<text text-anchor="start" x="857" y="-1086.4" font-family="Arial" font-size="14.00" fill="#000000">tracker_id </text>
<text text-anchor="start" x="922.3394" y="-1086.4" font-family="Arial" font-size="14.00" fill="#666666">[int(11)]</text>
</g>
<!-- custom_fields_trackers&#45;&gt;trackers -->
<g id="edge2" class="edge">
<title>custom_fields_trackers:tracker_id&#45;&gt;trackers:id</title>
<path fill="none" stroke="#000000" stroke-dasharray="5,2" d="M1154.9503,-1088.4767C1246.065,-1057.3311 982.2214,-559 1097,-559"/>
<polygon fill="#000000" stroke="#000000" points="1154.8848,-1088.4867 1144.319,-1085.5518 1149.9424,-1089.2433 1145,-1090 1145,-1090 1145,-1090 1149.9424,-1089.2433 1145.681,-1094.4482 1154.8848,-1088.4867 1154.8848,-1088.4867"/>
<text text-anchor="start" x="1152.3245" y="-1100" font-family="Arial" font-size="10.00" fill="#000000">Additional Relation</text>
</g>
<!-- projects_trackers -->
<g id="node4" class="node">
<title>projects_trackers</title>
<polygon fill="#efefef" stroke="transparent" points="1249,-1135 1249,-1181 1497,-1181 1497,-1135 1249,-1135"/>
<polygon fill="none" stroke="#000000" points="1249,-1135 1249,-1181 1497,-1181 1497,-1135 1249,-1135"/>
<text text-anchor="start" x="1255.8669" y="-1158.8" font-family="Arial Bold" font-size="18.00" fill="#000000">projects_trackers</text>
<text text-anchor="start" x="1392.8793" y="-1158.8" font-family="Arial" font-size="14.00" fill="#000000"> </text>
<text text-anchor="start" x="1396.7699" y="-1158.8" font-family="Arial" font-size="14.00" fill="#666666">[BASE TABLE]</text>
<text text-anchor="start" x="1285.9998" y="-1144.4" font-family="Arial" font-size="14.00" fill="#333333">プロジェクト⇔トラッカー</text>
<polygon fill="none" stroke="#000000" points="1249,-1105 1249,-1135 1497,-1135 1497,-1105 1249,-1105"/>
<text text-anchor="start" x="1256" y="-1116.4" font-family="Arial" font-size="14.00" fill="#000000">project_id </text>
<text text-anchor="start" x="1320.568" y="-1116.4" font-family="Arial" font-size="14.00" fill="#666666">[int(11)]</text>
<polygon fill="none" stroke="#000000" points="1249,-1075 1249,-1105 1497,-1105 1497,-1075 1249,-1075"/>
<text text-anchor="start" x="1256" y="-1086.4" font-family="Arial" font-size="14.00" fill="#000000">tracker_id </text>
<text text-anchor="start" x="1321.3394" y="-1086.4" font-family="Arial" font-size="14.00" fill="#666666">[int(11)]</text>
</g>
<!-- projects_trackers&#45;&gt;trackers -->
<g id="edge3" class="edge">
<title>projects_trackers:tracker_id&#45;&gt;trackers:id</title>
<path fill="none" stroke="#000000" stroke-dasharray="5,2" d="M1239.0096,-1088.4767C1146.7222,-1057.3311 1386.4197,-559 1272,-559"/>
<polygon fill="#000000" stroke="#000000" points="1239.1142,-1088.4926 1248.3217,-1094.4486 1244.0571,-1089.2463 1249,-1090 1249,-1090 1249,-1090 1244.0571,-1089.2463 1249.6783,-1085.5514 1239.1142,-1088.4926 1239.1142,-1088.4926"/>
<text text-anchor="start" x="1159.3245" y="-1074" font-family="Arial" font-size="10.00" fill="#000000">Additional Relation</text>
</g>
<!-- issues -->
<g id="node5" class="node">
<title>issues</title>
<polygon fill="#efefef" stroke="transparent" points="1602,-1465 1602,-1511 1903,-1511 1903,-1465 1602,-1465"/>
<polygon fill="none" stroke="#000000" points="1602,-1465 1602,-1511 1903,-1511 1903,-1465 1602,-1465"/>
<text text-anchor="start" x="1678.3698" y="-1488.8" font-family="Arial Bold" font-size="18.00" fill="#000000">issues</text>
<text text-anchor="start" x="1729.3764" y="-1488.8" font-family="Arial" font-size="14.00" fill="#000000"> </text>
<text text-anchor="start" x="1733.267" y="-1488.8" font-family="Arial" font-size="14.00" fill="#666666">[BASE TABLE]</text>
<text text-anchor="start" x="1724.6344" y="-1474.4" font-family="Arial" font-size="14.00" fill="#333333">チケット</text>
<polygon fill="none" stroke="#000000" points="1602,-1435 1602,-1465 1903,-1465 1903,-1435 1602,-1435"/>
<text text-anchor="start" x="1609" y="-1446.4" font-family="Arial" font-size="14.00" fill="#000000">id </text>
<text text-anchor="start" x="1623.7798" y="-1446.4" font-family="Arial" font-size="14.00" fill="#666666">[int(11)]</text>
<polygon fill="none" stroke="#000000" points="1602,-1405 1602,-1435 1903,-1435 1903,-1405 1602,-1405"/>
<text text-anchor="start" x="1609" y="-1416.4" font-family="Arial" font-size="14.00" fill="#000000">tracker_id </text>
<text text-anchor="start" x="1674.3394" y="-1416.4" font-family="Arial" font-size="14.00" fill="#666666">[int(11)]</text>
<text text-anchor="start" x="1721.7868" y="-1416.4" font-family="Arial" font-size="14.00" fill="#000000"> トラッカーID</text>
<polygon fill="none" stroke="#000000" points="1602,-1375 1602,-1405 1903,-1405 1903,-1375 1602,-1375"/>
<text text-anchor="start" x="1609" y="-1386.4" font-family="Arial" font-size="14.00" fill="#000000">project_id </text>
<text text-anchor="start" x="1673.568" y="-1386.4" font-family="Arial" font-size="14.00" fill="#666666">[int(11)]</text>
<text text-anchor="start" x="1721.0154" y="-1386.4" font-family="Arial" font-size="14.00" fill="#000000"> プロジェクトID</text>
<polygon fill="none" stroke="#000000" points="1602,-1345 1602,-1375 1903,-1375 1903,-1345 1602,-1345"/>
<text text-anchor="start" x="1609" y="-1356.4" font-family="Arial" font-size="14.00" fill="#000000">subject </text>
<text text-anchor="start" x="1657.2356" y="-1356.4" font-family="Arial" font-size="14.00" fill="#666666">[varchar(255)]</text>
<text text-anchor="start" x="1744.3548" y="-1356.4" font-family="Arial" font-size="14.00" fill="#000000"> 題名</text>
<polygon fill="none" stroke="#000000" points="1602,-1315 1602,-1345 1903,-1345 1903,-1315 1602,-1315"/>
<text text-anchor="start" x="1609" y="-1326.4" font-family="Arial" font-size="14.00" fill="#000000">description </text>
<text text-anchor="start" x="1680.568" y="-1326.4" font-family="Arial" font-size="14.00" fill="#666666">[longtext]</text>
<text text-anchor="start" x="1737.3674" y="-1326.4" font-family="Arial" font-size="14.00" fill="#000000"> 説明</text>
<polygon fill="none" stroke="#000000" points="1602,-1285 1602,-1315 1903,-1315 1903,-1285 1602,-1285"/>
<text text-anchor="start" x="1609" y="-1296.4" font-family="Arial" font-size="14.00" fill="#000000">due_date </text>
<text text-anchor="start" x="1671.2594" y="-1296.4" font-family="Arial" font-size="14.00" fill="#666666">[date]</text>
<text text-anchor="start" x="1706.279" y="-1296.4" font-family="Arial" font-size="14.00" fill="#000000"> 期日</text>
<polygon fill="none" stroke="#000000" points="1602,-1255 1602,-1285 1903,-1285 1903,-1255 1602,-1255"/>
<text text-anchor="start" x="1609" y="-1266.4" font-family="Arial" font-size="14.00" fill="#000000">category_id </text>
<text text-anchor="start" x="1685.244" y="-1266.4" font-family="Arial" font-size="14.00" fill="#666666">[int(11)]</text>
<text text-anchor="start" x="1732.6914" y="-1266.4" font-family="Arial" font-size="14.00" fill="#000000"> カテゴリーID</text>
<polygon fill="none" stroke="#000000" points="1602,-1225 1602,-1255 1903,-1255 1903,-1225 1602,-1225"/>
<text text-anchor="start" x="1609" y="-1236.4" font-family="Arial" font-size="14.00" fill="#000000">status_id </text>
<text text-anchor="start" x="1668.9088" y="-1236.4" font-family="Arial" font-size="14.00" fill="#666666">[int(11)]</text>
<text text-anchor="start" x="1716.3562" y="-1236.4" font-family="Arial" font-size="14.00" fill="#000000"> ステータスID</text>
<polygon fill="none" stroke="#000000" points="1602,-1195 1602,-1225 1903,-1225 1903,-1195 1602,-1195"/>
<text text-anchor="start" x="1609" y="-1206.4" font-family="Arial" font-size="14.00" fill="#000000">assigned_to_id </text>
<text text-anchor="start" x="1707.0378" y="-1206.4" font-family="Arial" font-size="14.00" fill="#666666">[int(11)]</text>
<text text-anchor="start" x="1754.4852" y="-1206.4" font-family="Arial" font-size="14.00" fill="#000000"> 担当者ID</text>
<polygon fill="none" stroke="#000000" points="1602,-1165 1602,-1195 1903,-1195 1903,-1165 1602,-1165"/>
<text text-anchor="start" x="1609" y="-1176.4" font-family="Arial" font-size="14.00" fill="#000000">priority_id </text>
<text text-anchor="start" x="1673.5526" y="-1176.4" font-family="Arial" font-size="14.00" fill="#666666">[int(11)]</text>
<text text-anchor="start" x="1721" y="-1176.4" font-family="Arial" font-size="14.00" fill="#000000"> 優先度ID</text>
<polygon fill="none" stroke="#000000" points="1602,-1135 1602,-1165 1903,-1165 1903,-1135 1602,-1135"/>
<text text-anchor="start" x="1608.8635" y="-1146.4" font-family="Arial" font-size="14.00" fill="#000000">fixed_version_id </text>
<text text-anchor="start" x="1713.8859" y="-1146.4" font-family="Arial" font-size="14.00" fill="#666666">[int(11)]</text>
<text text-anchor="start" x="1761.3333" y="-1146.4" font-family="Arial" font-size="14.00" fill="#000000"> 対象バージョンID</text>
<polygon fill="none" stroke="#000000" points="1602,-1105 1602,-1135 1903,-1135 1903,-1105 1602,-1105"/>
<text text-anchor="start" x="1609" y="-1116.4" font-family="Arial" font-size="14.00" fill="#000000">author_id </text>
<text text-anchor="start" x="1671.244" y="-1116.4" font-family="Arial" font-size="14.00" fill="#666666">[int(11)]</text>
<text text-anchor="start" x="1718.6914" y="-1116.4" font-family="Arial" font-size="14.00" fill="#000000"> 登録者ID</text>
<polygon fill="none" stroke="#000000" points="1602,-1075 1602,-1105 1903,-1105 1903,-1075 1602,-1075"/>
<text text-anchor="start" x="1609" y="-1086.4" font-family="Arial" font-size="14.00" fill="#000000">lock_version </text>
<text text-anchor="start" x="1690.6774" y="-1086.4" font-family="Arial" font-size="14.00" fill="#666666">[int(11)]</text>
<text text-anchor="start" x="1738.1248" y="-1086.4" font-family="Arial" font-size="14.00" fill="#000000"> ロックバージョン</text>
<polygon fill="none" stroke="#000000" points="1602,-1045 1602,-1075 1903,-1075 1903,-1045 1602,-1045"/>
<text text-anchor="start" x="1609" y="-1056.4" font-family="Arial" font-size="14.00" fill="#000000">created_on </text>
<text text-anchor="start" x="1682.92" y="-1056.4" font-family="Arial" font-size="14.00" fill="#666666">[timestamp]</text>
<polygon fill="none" stroke="#000000" points="1602,-1015 1602,-1045 1903,-1045 1903,-1015 1602,-1015"/>
<text text-anchor="start" x="1609" y="-1026.4" font-family="Arial" font-size="14.00" fill="#000000">updated_on </text>
<text text-anchor="start" x="1686.8246" y="-1026.4" font-family="Arial" font-size="14.00" fill="#666666">[timestamp]</text>
<polygon fill="none" stroke="#000000" points="1602,-985 1602,-1015 1903,-1015 1903,-985 1602,-985"/>
<text text-anchor="start" x="1609" y="-996.4" font-family="Arial" font-size="14.00" fill="#000000">start_date </text>
<text text-anchor="start" x="1675.136" y="-996.4" font-family="Arial" font-size="14.00" fill="#666666">[date]</text>
<text text-anchor="start" x="1710.1556" y="-996.4" font-family="Arial" font-size="14.00" fill="#000000"> 開始日</text>
<polygon fill="none" stroke="#000000" points="1602,-955 1602,-985 1903,-985 1903,-955 1602,-955"/>
<text text-anchor="start" x="1609" y="-966.4" font-family="Arial" font-size="14.00" fill="#000000">done_ratio </text>
<text text-anchor="start" x="1679.0266" y="-966.4" font-family="Arial" font-size="14.00" fill="#666666">[int(11)]</text>
<text text-anchor="start" x="1726.474" y="-966.4" font-family="Arial" font-size="14.00" fill="#000000"> 進捗率</text>
<polygon fill="none" stroke="#000000" points="1602,-925 1602,-955 1903,-955 1903,-925 1602,-925"/>
<text text-anchor="start" x="1609" y="-936.4" font-family="Arial" font-size="14.00" fill="#000000">estimated_hours </text>
<text text-anchor="start" x="1716.3604" y="-936.4" font-family="Arial" font-size="14.00" fill="#666666">[float]</text>
<text text-anchor="start" x="1750.5946" y="-936.4" font-family="Arial" font-size="14.00" fill="#000000"> 予定工数</text>
<polygon fill="none" stroke="#000000" points="1602,-895 1602,-925 1903,-925 1903,-895 1602,-895"/>
<text text-anchor="start" x="1609" y="-906.4" font-family="Arial" font-size="14.00" fill="#000000">parent_id </text>
<text text-anchor="start" x="1671.244" y="-906.4" font-family="Arial" font-size="14.00" fill="#666666">[int(11)]</text>
<text text-anchor="start" x="1718.6914" y="-906.4" font-family="Arial" font-size="14.00" fill="#000000"> 親チケット</text>
<polygon fill="none" stroke="#000000" points="1602,-865 1602,-895 1903,-895 1903,-865 1602,-865"/>
<text text-anchor="start" x="1609" y="-876.4" font-family="Arial" font-size="14.00" fill="#000000">root_id </text>
<text text-anchor="start" x="1655.6788" y="-876.4" font-family="Arial" font-size="14.00" fill="#666666">[int(11)]</text>
<text text-anchor="start" x="1703.1262" y="-876.4" font-family="Arial" font-size="14.00" fill="#000000"> ルートID</text>
<polygon fill="none" stroke="#000000" points="1602,-835 1602,-865 1903,-865 1903,-835 1602,-835"/>
<text text-anchor="start" x="1609" y="-846.4" font-family="Arial" font-size="14.00" fill="#000000">lft </text>
<text text-anchor="start" x="1623.7784" y="-846.4" font-family="Arial" font-size="14.00" fill="#666666">[int(11)]</text>
<text text-anchor="start" x="1671.2258" y="-846.4" font-family="Arial" font-size="14.00" fill="#000000"> 左ノードポインタ</text>
<polygon fill="none" stroke="#000000" points="1602,-805 1602,-835 1903,-835 1903,-805 1602,-805"/>
<text text-anchor="start" x="1609" y="-816.4" font-family="Arial" font-size="14.00" fill="#000000">rgt </text>
<text text-anchor="start" x="1629.2244" y="-816.4" font-family="Arial" font-size="14.00" fill="#666666">[int(11)]</text>
<text text-anchor="start" x="1676.6718" y="-816.4" font-family="Arial" font-size="14.00" fill="#000000"> 右ノードポインタ</text>
<polygon fill="none" stroke="#000000" points="1602,-775 1602,-805 1903,-805 1903,-775 1602,-775"/>
<text text-anchor="start" x="1609" y="-786.4" font-family="Arial" font-size="14.00" fill="#000000">is_private </text>
<text text-anchor="start" x="1672.7854" y="-786.4" font-family="Arial" font-size="14.00" fill="#666666">[tinyint(1)]</text>
<text text-anchor="start" x="1734.23" y="-786.4" font-family="Arial" font-size="14.00" fill="#000000"> プライベート</text>
<polygon fill="none" stroke="#000000" points="1602,-745 1602,-775 1903,-775 1903,-745 1602,-745"/>
<text text-anchor="start" x="1609" y="-756.4" font-family="Arial" font-size="14.00" fill="#000000">closed_on </text>
<text text-anchor="start" x="1676.6928" y="-756.4" font-family="Arial" font-size="14.00" fill="#666666">[datetime]</text>
<text text-anchor="start" x="1738.1528" y="-756.4" font-family="Arial" font-size="14.00" fill="#000000"> 完了日時</text>
</g>
<!-- issues&#45;&gt;trackers -->
<g id="edge4" class="edge">
<title>issues:tracker_id&#45;&gt;trackers:id</title>
<path fill="none" stroke="#000000" stroke-dasharray="5,2" d="M1592.5039,-1416.4907C1527.9025,-1365.1114 1591.2086,-765.8709 1549,-702 1472.6139,-586.411 1410.5484,-559 1272,-559"/>
<polygon fill="#000000" stroke="#000000" points="1592.62,-1416.5336 1600.4401,-1424.221 1597.31,-1418.2668 1602,-1420 1602,-1420 1602,-1420 1597.31,-1418.2668 1603.5599,-1415.779 1592.62,-1416.5336 1592.62,-1416.5336"/>
<text text-anchor="start" x="1512.3245" y="-1430" font-family="Arial" font-size="10.00" fill="#000000">Additional Relation</text>
</g>
</g>
</svg>
