<?xml version="1.0" encoding="UTF-8" standalone="no"?>
<!DOCTYPE svg PUBLIC "-//W3C//DTD SVG 1.1//EN"
 "http://www.w3.org/Graphics/SVG/1.1/DTD/svg11.dtd">
<!-- Generated by graphviz version 2.40.1 (20161225.0304)
 -->
<!-- Title: versions Pages: 1 -->
<svg width="404pt" height="1064pt"
 viewBox="0.00 0.00 404.00 1064.00" xmlns="http://www.w3.org/2000/svg" xmlns:xlink="http://www.w3.org/1999/xlink">
<g id="graph0" class="graph" transform="scale(1 1) rotate(0) translate(4 1060)">
<title>versions</title>
<polygon fill="#ffffff" stroke="transparent" points="-4,4 -4,-1060 400,-1060 400,4 -4,4"/>
<!-- versions -->
<g id="node1" class="node">
<title>versions</title>
<polygon fill="#efefef" stroke="transparent" points="97,-964 97,-1010 293,-1010 293,-964 97,-964"/>
<polygon fill="none" stroke="#000000" points="97,-964 97,-1010 293,-1010 293,-964 97,-964"/>
<text text-anchor="start" x="112.8706" y="-987.8" font-family="Arial Bold" font-size="18.00" fill="#000000">versions</text>
<text text-anchor="start" x="179.8756" y="-987.8" font-family="Arial" font-size="14.00" fill="#000000"> </text>
<text text-anchor="start" x="183.7662" y="-987.8" font-family="Arial" font-size="14.00" fill="#666666">[BASE TABLE]</text>
<text text-anchor="start" x="154.0458" y="-973.4" font-family="Arial" font-size="14.00" fill="#333333">バージョン</text>
<polygon fill="none" stroke="#000000" points="97,-934 97,-964 293,-964 293,-934 97,-934"/>
<text text-anchor="start" x="104" y="-945.4" font-family="Arial" font-size="14.00" fill="#000000">id </text>
<text text-anchor="start" x="118.7798" y="-945.4" font-family="Arial" font-size="14.00" fill="#666666">[int(11)]</text>
<polygon fill="none" stroke="#000000" points="97,-904 97,-934 293,-934 293,-904 97,-904"/>
<text text-anchor="start" x="104" y="-915.4" font-family="Arial" font-size="14.00" fill="#000000">project_id </text>
<text text-anchor="start" x="168.568" y="-915.4" font-family="Arial" font-size="14.00" fill="#666666">[int(11)]</text>
<polygon fill="none" stroke="#000000" points="97,-874 97,-904 293,-904 293,-874 97,-874"/>
<text text-anchor="start" x="104" y="-885.4" font-family="Arial" font-size="14.00" fill="#000000">name </text>
<text text-anchor="start" x="142.899" y="-885.4" font-family="Arial" font-size="14.00" fill="#666666">[varchar(255)]</text>
<polygon fill="none" stroke="#000000" points="97,-844 97,-874 293,-874 293,-844 97,-844"/>
<text text-anchor="start" x="104" y="-855.4" font-family="Arial" font-size="14.00" fill="#000000">description </text>
<text text-anchor="start" x="175.568" y="-855.4" font-family="Arial" font-size="14.00" fill="#666666">[varchar(255)]</text>
<polygon fill="none" stroke="#000000" points="97,-814 97,-844 293,-844 293,-814 97,-814"/>
<text text-anchor="start" x="104" y="-825.4" font-family="Arial" font-size="14.00" fill="#000000">effective_date </text>
<text text-anchor="start" x="195.0378" y="-825.4" font-family="Arial" font-size="14.00" fill="#666666">[date]</text>
<polygon fill="none" stroke="#000000" points="97,-784 97,-814 293,-814 293,-784 97,-784"/>
<text text-anchor="start" x="104" y="-795.4" font-family="Arial" font-size="14.00" fill="#000000">created_on </text>
<text text-anchor="start" x="177.92" y="-795.4" font-family="Arial" font-size="14.00" fill="#666666">[timestamp]</text>
<polygon fill="none" stroke="#000000" points="97,-754 97,-784 293,-784 293,-754 97,-754"/>
<text text-anchor="start" x="104" y="-765.4" font-family="Arial" font-size="14.00" fill="#000000">updated_on </text>
<text text-anchor="start" x="181.8246" y="-765.4" font-family="Arial" font-size="14.00" fill="#666666">[timestamp]</text>
<polygon fill="none" stroke="#000000" points="97,-724 97,-754 293,-754 293,-724 97,-724"/>
<text text-anchor="start" x="103.5989" y="-735.4" font-family="Arial" font-size="14.00" fill="#000000">wiki_page_title </text>
<text text-anchor="start" x="199.2819" y="-735.4" font-family="Arial" font-size="14.00" fill="#666666">[varchar(255)]</text>
<polygon fill="none" stroke="#000000" points="97,-694 97,-724 293,-724 293,-694 97,-694"/>
<text text-anchor="start" x="104" y="-705.4" font-family="Arial" font-size="14.00" fill="#000000">status </text>
<text text-anchor="start" x="145.237" y="-705.4" font-family="Arial" font-size="14.00" fill="#666666">[varchar(255)]</text>
<polygon fill="none" stroke="#000000" points="97,-664 97,-694 293,-694 293,-664 97,-664"/>
<text text-anchor="start" x="104" y="-675.4" font-family="Arial" font-size="14.00" fill="#000000">sharing </text>
<text text-anchor="start" x="153.7882" y="-675.4" font-family="Arial" font-size="14.00" fill="#666666">[varchar(255)]</text>
<polygon fill="none" stroke="#000000" stroke-width="3" points="95.5,-662.5 95.5,-1011.5 294.5,-1011.5 294.5,-662.5 95.5,-662.5"/>
</g>
<!-- projects -->
<g id="node2" class="node">
<title>projects</title>
<polygon fill="#efefef" stroke="transparent" points="90,-493 90,-539 299,-539 299,-493 90,-493"/>
<polygon fill="none" stroke="#000000" points="90,-493 90,-539 299,-539 299,-493 90,-493"/>
<text text-anchor="start" x="114.3695" y="-516.8" font-family="Arial Bold" font-size="18.00" fill="#000000">projects</text>
<text text-anchor="start" x="177.3767" y="-516.8" font-family="Arial" font-size="14.00" fill="#000000"> </text>
<text text-anchor="start" x="181.2673" y="-516.8" font-family="Arial" font-size="14.00" fill="#666666">[BASE TABLE]</text>
<text text-anchor="start" x="152.1269" y="-502.4" font-family="Arial" font-size="14.00" fill="#333333">プロジェクト</text>
<polygon fill="none" stroke="#000000" points="90,-463 90,-493 299,-493 299,-463 90,-463"/>
<text text-anchor="start" x="97" y="-474.4" font-family="Arial" font-size="14.00" fill="#000000">id </text>
<text text-anchor="start" x="111.7798" y="-474.4" font-family="Arial" font-size="14.00" fill="#666666">[int(11)]</text>
<polygon fill="none" stroke="#000000" points="90,-433 90,-463 299,-463 299,-433 90,-433"/>
<text text-anchor="start" x="97" y="-444.4" font-family="Arial" font-size="14.00" fill="#000000">name </text>
<text text-anchor="start" x="135.899" y="-444.4" font-family="Arial" font-size="14.00" fill="#666666">[varchar(255)]</text>
<polygon fill="none" stroke="#000000" points="90,-403 90,-433 299,-433 299,-403 90,-403"/>
<text text-anchor="start" x="97" y="-414.4" font-family="Arial" font-size="14.00" fill="#000000">description </text>
<text text-anchor="start" x="168.568" y="-414.4" font-family="Arial" font-size="14.00" fill="#666666">[text]</text>
<polygon fill="none" stroke="#000000" points="90,-373 90,-403 299,-403 299,-373 90,-373"/>
<text text-anchor="start" x="97" y="-384.4" font-family="Arial" font-size="14.00" fill="#000000">homepage </text>
<text text-anchor="start" x="167.0294" y="-384.4" font-family="Arial" font-size="14.00" fill="#666666">[varchar(255)]</text>
<polygon fill="none" stroke="#000000" points="90,-343 90,-373 299,-373 299,-343 90,-343"/>
<text text-anchor="start" x="97" y="-354.4" font-family="Arial" font-size="14.00" fill="#000000">is_public </text>
<text text-anchor="start" x="155.3408" y="-354.4" font-family="Arial" font-size="14.00" fill="#666666">[tinyint(1)]</text>
<polygon fill="none" stroke="#000000" points="90,-313 90,-343 299,-343 299,-313 90,-313"/>
<text text-anchor="start" x="97" y="-324.4" font-family="Arial" font-size="14.00" fill="#000000">parent_id </text>
<text text-anchor="start" x="159.244" y="-324.4" font-family="Arial" font-size="14.00" fill="#666666">[int(11)]</text>
<polygon fill="none" stroke="#000000" points="90,-283 90,-313 299,-313 299,-283 90,-283"/>
<text text-anchor="start" x="97" y="-294.4" font-family="Arial" font-size="14.00" fill="#000000">created_on </text>
<text text-anchor="start" x="170.92" y="-294.4" font-family="Arial" font-size="14.00" fill="#666666">[timestamp]</text>
<polygon fill="none" stroke="#000000" points="90,-253 90,-283 299,-283 299,-253 90,-253"/>
<text text-anchor="start" x="97" y="-264.4" font-family="Arial" font-size="14.00" fill="#000000">updated_on </text>
<text text-anchor="start" x="174.8246" y="-264.4" font-family="Arial" font-size="14.00" fill="#666666">[timestamp]</text>
<polygon fill="none" stroke="#000000" points="90,-223 90,-253 299,-253 299,-223 90,-223"/>
<text text-anchor="start" x="97" y="-234.4" font-family="Arial" font-size="14.00" fill="#000000">identifier </text>
<text text-anchor="start" x="153.7826" y="-234.4" font-family="Arial" font-size="14.00" fill="#666666">[varchar(255)]</text>
<polygon fill="none" stroke="#000000" points="90,-193 90,-223 299,-223 299,-193 90,-193"/>
<text text-anchor="start" x="97" y="-204.4" font-family="Arial" font-size="14.00" fill="#000000">status </text>
<text text-anchor="start" x="138.237" y="-204.4" font-family="Arial" font-size="14.00" fill="#666666">[int(11)]</text>
<polygon fill="none" stroke="#000000" points="90,-163 90,-193 299,-193 299,-163 90,-163"/>
<text text-anchor="start" x="97" y="-174.4" font-family="Arial" font-size="14.00" fill="#000000">lft </text>
<text text-anchor="start" x="111.7784" y="-174.4" font-family="Arial" font-size="14.00" fill="#666666">[int(11)]</text>
<polygon fill="none" stroke="#000000" points="90,-133 90,-163 299,-163 299,-133 90,-133"/>
<text text-anchor="start" x="97" y="-144.4" font-family="Arial" font-size="14.00" fill="#000000">rgt </text>
<text text-anchor="start" x="117.2244" y="-144.4" font-family="Arial" font-size="14.00" fill="#666666">[int(11)]</text>
<polygon fill="none" stroke="#000000" points="90,-103 90,-133 299,-133 299,-103 90,-103"/>
<text text-anchor="start" x="97" y="-114.4" font-family="Arial" font-size="14.00" fill="#000000">inherit_members </text>
<text text-anchor="start" x="205.115" y="-114.4" font-family="Arial" font-size="14.00" fill="#666666">[tinyint(1)]</text>
<polygon fill="none" stroke="#000000" points="90,-73 90,-103 299,-103 299,-73 90,-73"/>
<text text-anchor="start" x="97" y="-84.4" font-family="Arial" font-size="14.00" fill="#000000">default_version_id </text>
<text text-anchor="start" x="214.4782" y="-84.4" font-family="Arial" font-size="14.00" fill="#666666">[int(11)]</text>
<polygon fill="none" stroke="#000000" points="90,-43 90,-73 299,-73 299,-43 90,-43"/>
<text text-anchor="start" x="96.857" y="-54.4" font-family="Arial" font-size="14.00" fill="#000000">default_assigned_to_id </text>
<text text-anchor="start" x="244.6956" y="-54.4" font-family="Arial" font-size="14.00" fill="#666666">[int(11)]</text>
</g>
<!-- versions&#45;&gt;projects -->
<g id="edge2" class="edge">
<title>versions:project_id&#45;&gt;projects:id</title>
<path fill="none" stroke="#000000" stroke-dasharray="5,2" d="M87.1652,-916.9824C32.6889,-893.2141 56.3165,-666.5751 97,-618 155.5533,-548.0889 240.4467,-651.9111 299,-582 328.6786,-546.5645 345.2222,-478 299,-478"/>
<polygon fill="#000000" stroke="#000000" points="87.204,-916.9903 96.0956,-923.4082 92.102,-917.9951 97,-919 97,-919 97,-919 92.102,-917.9951 97.9044,-914.5918 87.204,-916.9903 87.204,-916.9903"/>
<text text-anchor="start" x="7.3245" y="-929" font-family="Arial" font-size="10.00" fill="#000000">Additional Relation</text>
</g>
<!-- projects&#45;&gt;versions -->
<g id="edge1" class="edge">
<title>projects:default_version_id&#45;&gt;versions:id</title>
<path fill="none" stroke="#000000" stroke-dasharray="5,2" d="M309.1528,-89.2523C406.2129,-114.0773 367.2151,-500.5529 299,-582 240.4467,-651.9111 155.5533,-548.0889 97,-618 49.7711,-674.3901 23.4444,-949 97,-949"/>
<polygon fill="#000000" stroke="#000000" points="308.9248,-89.2243 299.5509,-83.5338 303.9624,-88.6121 299,-88 299,-88 299,-88 303.9624,-88.6121 298.4491,-92.4662 308.9248,-89.2243 308.9248,-89.2243"/>
<text text-anchor="start" x="306.3245" y="-98" font-family="Arial" font-size="10.00" fill="#000000">Additional Relation</text>
</g>
</g>
</svg>
