<?xml version="1.0" encoding="UTF-8" standalone="no"?>
<!DOCTYPE svg PUBLIC "-//W3C//DTD SVG 1.1//EN"
 "http://www.w3.org/Graphics/SVG/1.1/DTD/svg11.dtd">
<!-- Generated by graphviz version 2.40.1 (20161225.0304)
 -->
<!-- Title: watchers Pages: 1 -->
<svg width="1252pt" height="1064pt"
 viewBox="0.00 0.00 1252.00 1064.00" xmlns="http://www.w3.org/2000/svg" xmlns:xlink="http://www.w3.org/1999/xlink">
<g id="graph0" class="graph" transform="scale(1 1) rotate(0) translate(4 1060)">
<title>watchers</title>
<polygon fill="#ffffff" stroke="transparent" points="-4,4 -4,-1060 1248,-1060 1248,4 -4,4"/>
<!-- watchers -->
<g id="node1" class="node">
<title>watchers</title>
<polygon fill="#efefef" stroke="transparent" points="46,-964 46,-1010 1198,-1010 1198,-964 46,-964"/>
<polygon fill="none" stroke="#000000" points="46,-964 46,-1010 1198,-1010 1198,-964 46,-964"/>
<text text-anchor="start" x="537.3695" y="-987.8" font-family="Arial Bold" font-size="18.00" fill="#000000">watchers</text>
<text text-anchor="start" x="609.3767" y="-987.8" font-family="Arial" font-size="14.00" fill="#000000"> </text>
<text text-anchor="start" x="613.2673" y="-987.8" font-family="Arial" font-size="14.00" fill="#666666">[BASE TABLE]</text>
<text text-anchor="start" x="574.7829" y="-973.4" font-family="Arial" font-size="14.00" fill="#333333">ウォッチャー</text>
<polygon fill="none" stroke="#000000" points="46,-934 46,-964 1198,-964 1198,-934 46,-934"/>
<text text-anchor="start" x="53" y="-945.4" font-family="Arial" font-size="14.00" fill="#000000">id </text>
<text text-anchor="start" x="67.7798" y="-945.4" font-family="Arial" font-size="14.00" fill="#666666">[int(11)]</text>
<polygon fill="none" stroke="#000000" points="46,-904 46,-934 1198,-934 1198,-904 46,-904"/>
<text text-anchor="start" x="52.5087" y="-915.4" font-family="Arial" font-size="14.00" fill="#000000">watchable_type </text>
<text text-anchor="start" x="153.6545" y="-915.4" font-family="Arial" font-size="14.00" fill="#666666">[varchar(255)]</text>
<text text-anchor="start" x="240.7737" y="-915.4" font-family="Arial" font-size="14.00" fill="#000000"> Issue: チケット WikiPage: Wikiページ EnabledModule: ニュース(全体) News: ニュース(単一) Board:フォーラム(全体) Message:フォーラム(単一) </text>
<polygon fill="none" stroke="#000000" points="46,-874 46,-904 1198,-904 1198,-874 46,-874"/>
<text text-anchor="start" x="53" y="-885.4" font-family="Arial" font-size="14.00" fill="#000000">watchable_id </text>
<text text-anchor="start" x="138.5792" y="-885.4" font-family="Arial" font-size="14.00" fill="#666666">[int(11)]</text>
<polygon fill="none" stroke="#000000" points="46,-844 46,-874 1198,-874 1198,-844 46,-844"/>
<text text-anchor="start" x="53" y="-855.4" font-family="Arial" font-size="14.00" fill="#000000">user_id </text>
<text text-anchor="start" x="102.7882" y="-855.4" font-family="Arial" font-size="14.00" fill="#666666">[int(11)]</text>
<polygon fill="none" stroke="#000000" stroke-width="3" points="44.5,-842.5 44.5,-1011.5 1199.5,-1011.5 1199.5,-842.5 44.5,-842.5"/>
</g>
<!-- users -->
<g id="node2" class="node">
<title>users</title>
<polygon fill="#efefef" stroke="transparent" points="381,-673 381,-719 863,-719 863,-673 381,-673"/>
<polygon fill="none" stroke="#000000" points="381,-673 381,-719 863,-719 863,-673 381,-673"/>
<text text-anchor="start" x="551.3708" y="-696.8" font-family="Arial Bold" font-size="18.00" fill="#000000">users</text>
<text text-anchor="start" x="595.3754" y="-696.8" font-family="Arial" font-size="14.00" fill="#000000"> </text>
<text text-anchor="start" x="599.266" y="-696.8" font-family="Arial" font-size="14.00" fill="#666666">[BASE TABLE]</text>
<text text-anchor="start" x="543.4558" y="-682.4" font-family="Arial" font-size="14.00" fill="#333333">ユーザー / グループ</text>
<polygon fill="none" stroke="#000000" points="381,-643 381,-673 863,-673 863,-643 381,-643"/>
<text text-anchor="start" x="388" y="-654.4" font-family="Arial" font-size="14.00" fill="#000000">id </text>
<text text-anchor="start" x="402.7798" y="-654.4" font-family="Arial" font-size="14.00" fill="#666666">[int(11)]</text>
<polygon fill="none" stroke="#000000" points="381,-613 381,-643 863,-643 863,-613 381,-613"/>
<text text-anchor="start" x="388" y="-624.4" font-family="Arial" font-size="14.00" fill="#000000">login </text>
<text text-anchor="start" x="421.4516" y="-624.4" font-family="Arial" font-size="14.00" fill="#666666">[varchar(255)]</text>
<text text-anchor="start" x="508.5708" y="-624.4" font-family="Arial" font-size="14.00" fill="#000000"> ログインID</text>
<polygon fill="none" stroke="#000000" points="381,-583 381,-613 863,-613 863,-583 381,-583"/>
<text text-anchor="start" x="388" y="-594.4" font-family="Arial" font-size="14.00" fill="#000000">hashed_password </text>
<text text-anchor="start" x="505.4838" y="-594.4" font-family="Arial" font-size="14.00" fill="#666666">[varchar(40)]</text>
<text text-anchor="start" x="584.8204" y="-594.4" font-family="Arial" font-size="14.00" fill="#000000"> パスワード(ハッシュ化済み)</text>
<polygon fill="none" stroke="#000000" points="381,-553 381,-583 863,-583 863,-553 381,-553"/>
<text text-anchor="start" x="388" y="-564.4" font-family="Arial" font-size="14.00" fill="#000000">firstname </text>
<text text-anchor="start" x="449.4474" y="-564.4" font-family="Arial" font-size="14.00" fill="#666666">[varchar(30)]</text>
<text text-anchor="start" x="528.784" y="-564.4" font-family="Arial" font-size="14.00" fill="#000000"> 名</text>
<polygon fill="none" stroke="#000000" points="381,-523 381,-553 863,-553 863,-523 381,-523"/>
<text text-anchor="start" x="388" y="-534.4" font-family="Arial" font-size="14.00" fill="#000000">lastname </text>
<text text-anchor="start" x="448.6788" y="-534.4" font-family="Arial" font-size="14.00" fill="#666666">[varchar(255)]</text>
<text text-anchor="start" x="535.798" y="-534.4" font-family="Arial" font-size="14.00" fill="#000000"> 姓</text>
<polygon fill="none" stroke="#000000" points="381,-493 381,-523 863,-523 863,-493 381,-493"/>
<text text-anchor="start" x="388" y="-504.4" font-family="Arial" font-size="14.00" fill="#000000">admin </text>
<text text-anchor="start" x="430.0056" y="-504.4" font-family="Arial" font-size="14.00" fill="#666666">[tinyint(1)]</text>
<text text-anchor="start" x="491.4502" y="-504.4" font-family="Arial" font-size="14.00" fill="#000000"> システム管理者</text>
<polygon fill="none" stroke="#000000" points="381,-463 381,-493 863,-493 863,-463 381,-463"/>
<text text-anchor="start" x="388" y="-474.4" font-family="Arial" font-size="14.00" fill="#000000">status </text>
<text text-anchor="start" x="429.237" y="-474.4" font-family="Arial" font-size="14.00" fill="#666666">[int(11)]</text>
<polygon fill="none" stroke="#000000" points="381,-433 381,-463 863,-463 863,-433 381,-433"/>
<text text-anchor="start" x="388" y="-444.4" font-family="Arial" font-size="14.00" fill="#000000">last_login_on </text>
<text text-anchor="start" x="474.3618" y="-444.4" font-family="Arial" font-size="14.00" fill="#666666">[datetime]</text>
<polygon fill="none" stroke="#000000" points="381,-403 381,-433 863,-433 863,-403 381,-403"/>
<text text-anchor="start" x="388" y="-414.4" font-family="Arial" font-size="14.00" fill="#000000">language </text>
<text text-anchor="start" x="449.4754" y="-414.4" font-family="Arial" font-size="14.00" fill="#666666">[varchar(5)]</text>
<text text-anchor="start" x="521.0294" y="-414.4" font-family="Arial" font-size="14.00" fill="#000000"> 言語</text>
<polygon fill="none" stroke="#000000" points="381,-373 381,-403 863,-403 863,-373 381,-373"/>
<text text-anchor="start" x="388" y="-384.4" font-family="Arial" font-size="14.00" fill="#000000">auth_source_id </text>
<text text-anchor="start" x="487.5918" y="-384.4" font-family="Arial" font-size="14.00" fill="#666666">[int(11)]</text>
<polygon fill="none" stroke="#000000" points="381,-343 381,-373 863,-373 863,-343 381,-343"/>
<text text-anchor="start" x="388" y="-354.4" font-family="Arial" font-size="14.00" fill="#000000">created_on </text>
<text text-anchor="start" x="461.92" y="-354.4" font-family="Arial" font-size="14.00" fill="#666666">[timestamp]</text>
<polygon fill="none" stroke="#000000" points="381,-313 381,-343 863,-343 863,-313 381,-313"/>
<text text-anchor="start" x="388" y="-324.4" font-family="Arial" font-size="14.00" fill="#000000">updated_on </text>
<text text-anchor="start" x="465.8246" y="-324.4" font-family="Arial" font-size="14.00" fill="#666666">[timestamp]</text>
<polygon fill="none" stroke="#000000" points="381,-283 381,-313 863,-313 863,-283 381,-283"/>
<text text-anchor="start" x="388" y="-294.4" font-family="Arial" font-size="14.00" fill="#000000">type </text>
<text text-anchor="start" x="418.3464" y="-294.4" font-family="Arial" font-size="14.00" fill="#666666">[varchar(255)]</text>
<text text-anchor="start" x="505.4656" y="-294.4" font-family="Arial" font-size="14.00" fill="#000000"> User:ユーザー Group:グループ </text>
<polygon fill="none" stroke="#000000" points="381,-253 381,-283 863,-283 863,-253 381,-253"/>
<text text-anchor="start" x="388" y="-264.4" font-family="Arial" font-size="14.00" fill="#000000">mail_notification </text>
<text text-anchor="start" x="492.2342" y="-264.4" font-family="Arial" font-size="14.00" fill="#666666">[varchar(255)]</text>
<text text-anchor="start" x="579.3534" y="-264.4" font-family="Arial" font-size="14.00" fill="#000000"> メール通知</text>
<polygon fill="none" stroke="#000000" points="381,-223 381,-253 863,-253 863,-223 381,-223"/>
<text text-anchor="start" x="388" y="-234.4" font-family="Arial" font-size="14.00" fill="#000000">salt </text>
<text text-anchor="start" x="413.6704" y="-234.4" font-family="Arial" font-size="14.00" fill="#666666">[varchar(64)]</text>
<polygon fill="none" stroke="#000000" points="381,-193 381,-223 863,-223 863,-193 381,-193"/>
<text text-anchor="start" x="387.7646" y="-204.4" font-family="Arial" font-size="14.00" fill="#000000">must_change_passwd </text>
<text text-anchor="start" x="530.9216" y="-204.4" font-family="Arial" font-size="14.00" fill="#666666">[tinyint(1)]</text>
<text text-anchor="start" x="592.3662" y="-204.4" font-family="Arial" font-size="14.00" fill="#000000"> 次回ログイン時にパスワード変更を強制</text>
<polygon fill="none" stroke="#000000" points="381,-163 381,-193 863,-193 863,-163 381,-163"/>
<text text-anchor="start" x="388" y="-174.4" font-family="Arial" font-size="14.00" fill="#000000">passwd_changed_on </text>
<text text-anchor="start" x="524.171" y="-174.4" font-family="Arial" font-size="14.00" fill="#666666">[datetime]</text>
<polygon fill="none" stroke="#000000" points="381,-133 381,-163 863,-163 863,-133 381,-133"/>
<text text-anchor="start" x="388" y="-144.4" font-family="Arial" font-size="14.00" fill="#000000">twofa_scheme </text>
<text text-anchor="start" x="482.1346" y="-144.4" font-family="Arial" font-size="14.00" fill="#666666">[varchar(255)]</text>
<polygon fill="none" stroke="#000000" points="381,-103 381,-133 863,-133 863,-103 381,-103"/>
<text text-anchor="start" x="388" y="-114.4" font-family="Arial" font-size="14.00" fill="#000000">twofa_totp_key </text>
<text text-anchor="start" x="486.0378" y="-114.4" font-family="Arial" font-size="14.00" fill="#666666">[varchar(255)]</text>
<polygon fill="none" stroke="#000000" points="381,-73 381,-103 863,-103 863,-73 381,-73"/>
<text text-anchor="start" x="388" y="-84.4" font-family="Arial" font-size="14.00" fill="#000000">twofa_totp_last_used_at </text>
<text text-anchor="start" x="543.6212" y="-84.4" font-family="Arial" font-size="14.00" fill="#666666">[int(11)]</text>
<polygon fill="none" stroke="#000000" points="381,-43 381,-73 863,-73 863,-43 381,-43"/>
<text text-anchor="start" x="388" y="-54.4" font-family="Arial" font-size="14.00" fill="#000000">twofa_required </text>
<text text-anchor="start" x="484.467" y="-54.4" font-family="Arial" font-size="14.00" fill="#666666">[tinyint(1)]</text>
</g>
<!-- watchers&#45;&gt;users -->
<g id="edge1" class="edge">
<title>watchers:user_id&#45;&gt;users:id</title>
<path fill="none" stroke="#000000" stroke-dasharray="5,2" d="M622.5361,-833.7826C633.1742,-738.5713 799.2531,-851.0256 863,-762 889.91,-724.4188 909.2222,-658 863,-658"/>
<polygon fill="#000000" stroke="#000000" points="622.5241,-834.0137 617.5062,-843.7642 622.262,-839.0069 622,-844 622,-844 622,-844 622.262,-839.0069 626.4938,-844.2358 622.5241,-834.0137 622.5241,-834.0137"/>
<text text-anchor="start" x="605.0745" y="-828" font-family="Arial" font-size="10.00" fill="#000000">Additional Relation</text>
</g>
</g>
</svg>
