<?xml version="1.0" encoding="UTF-8" standalone="no"?>
<!DOCTYPE svg PUBLIC "-//W3C//DTD SVG 1.1//EN"
 "http://www.w3.org/Graphics/SVG/1.1/DTD/svg11.dtd">
<!-- Generated by graphviz version 2.40.1 (20161225.0304)
 -->
<!-- Title: wiki_redirects Pages: 1 -->
<svg width="371pt" height="603pt"
 viewBox="0.00 0.00 371.00 603.00" xmlns="http://www.w3.org/2000/svg" xmlns:xlink="http://www.w3.org/1999/xlink">
<g id="graph0" class="graph" transform="scale(1 1) rotate(0) translate(4 599)">
<title>wiki_redirects</title>
<polygon fill="#ffffff" stroke="transparent" points="-4,4 -4,-599 367,-599 367,4 -4,4"/>
<!-- wiki_redirects -->
<g id="node1" class="node">
<title>wiki_redirects</title>
<polygon fill="#efefef" stroke="transparent" points="97,-513.5 97,-548.5 317,-548.5 317,-513.5 97,-513.5"/>
<polygon fill="none" stroke="#000000" points="97,-513.5 97,-548.5 317,-548.5 317,-513.5 97,-513.5"/>
<text text-anchor="start" x="103.879" y="-526.3" font-family="Arial Bold" font-size="18.00" fill="#000000">wiki_redirects</text>
<text text-anchor="start" x="212.8672" y="-526.3" font-family="Arial" font-size="14.00" fill="#000000"> </text>
<text text-anchor="start" x="216.7578" y="-526.3" font-family="Arial" font-size="14.00" fill="#666666">[BASE TABLE]</text>
<polygon fill="none" stroke="#000000" points="97,-483.5 97,-513.5 317,-513.5 317,-483.5 97,-483.5"/>
<text text-anchor="start" x="104" y="-494.9" font-family="Arial" font-size="14.00" fill="#000000">id </text>
<text text-anchor="start" x="118.7798" y="-494.9" font-family="Arial" font-size="14.00" fill="#666666">[int(11)]</text>
<polygon fill="none" stroke="#000000" points="97,-453.5 97,-483.5 317,-483.5 317,-453.5 97,-453.5"/>
<text text-anchor="start" x="104" y="-464.9" font-family="Arial" font-size="14.00" fill="#000000">wiki_id </text>
<text text-anchor="start" x="149.8822" y="-464.9" font-family="Arial" font-size="14.00" fill="#666666">[int(11)]</text>
<polygon fill="none" stroke="#000000" points="97,-423.5 97,-453.5 317,-453.5 317,-423.5 97,-423.5"/>
<text text-anchor="start" x="104" y="-434.9" font-family="Arial" font-size="14.00" fill="#000000">title </text>
<text text-anchor="start" x="129.6676" y="-434.9" font-family="Arial" font-size="14.00" fill="#666666">[varchar(255)]</text>
<polygon fill="none" stroke="#000000" points="97,-393.5 97,-423.5 317,-423.5 317,-393.5 97,-393.5"/>
<text text-anchor="start" x="104" y="-404.9" font-family="Arial" font-size="14.00" fill="#000000">redirects_to </text>
<text text-anchor="start" x="181.0126" y="-404.9" font-family="Arial" font-size="14.00" fill="#666666">[varchar(255)]</text>
<polygon fill="none" stroke="#000000" points="97,-363.5 97,-393.5 317,-393.5 317,-363.5 97,-363.5"/>
<text text-anchor="start" x="104" y="-374.9" font-family="Arial" font-size="14.00" fill="#000000">created_on </text>
<text text-anchor="start" x="177.92" y="-374.9" font-family="Arial" font-size="14.00" fill="#666666">[datetime]</text>
<polygon fill="none" stroke="#000000" points="97,-333.5 97,-363.5 317,-363.5 317,-333.5 97,-333.5"/>
<text text-anchor="start" x="104" y="-344.9" font-family="Arial" font-size="14.00" fill="#000000">redirects_to_wiki_id </text>
<text text-anchor="start" x="230.7868" y="-344.9" font-family="Arial" font-size="14.00" fill="#666666">[int(11)]</text>
<polygon fill="none" stroke="#000000" stroke-width="3" points="95.5,-332.5 95.5,-550.5 318.5,-550.5 318.5,-332.5 95.5,-332.5"/>
</g>
<!-- wikis -->
<g id="node2" class="node">
<title>wikis</title>
<polygon fill="#efefef" stroke="transparent" points="121,-163 121,-209 292,-209 292,-163 121,-163"/>
<polygon fill="none" stroke="#000000" points="121,-163 121,-209 292,-209 292,-163 121,-163"/>
<text text-anchor="start" x="138.3818" y="-186.8" font-family="Arial Bold" font-size="18.00" fill="#000000">wikis</text>
<text text-anchor="start" x="177.3644" y="-186.8" font-family="Arial" font-size="14.00" fill="#000000"> </text>
<text text-anchor="start" x="181.255" y="-186.8" font-family="Arial" font-size="14.00" fill="#666666">[BASE TABLE]</text>
<text text-anchor="start" x="193.2861" y="-172.4" font-family="Arial" font-size="14.00" fill="#333333">Wiki</text>
<polygon fill="none" stroke="#000000" points="121,-133 121,-163 292,-163 292,-133 121,-133"/>
<text text-anchor="start" x="128" y="-144.4" font-family="Arial" font-size="14.00" fill="#000000">id </text>
<text text-anchor="start" x="142.7798" y="-144.4" font-family="Arial" font-size="14.00" fill="#666666">[int(11)]</text>
<polygon fill="none" stroke="#000000" points="121,-103 121,-133 292,-133 292,-103 121,-103"/>
<text text-anchor="start" x="128" y="-114.4" font-family="Arial" font-size="14.00" fill="#000000">project_id </text>
<text text-anchor="start" x="192.568" y="-114.4" font-family="Arial" font-size="14.00" fill="#666666">[int(11)]</text>
<polygon fill="none" stroke="#000000" points="121,-73 121,-103 292,-103 292,-73 121,-73"/>
<text text-anchor="start" x="127.9264" y="-84.4" font-family="Arial" font-size="14.00" fill="#000000">start_page </text>
<text text-anchor="start" x="197.9544" y="-84.4" font-family="Arial" font-size="14.00" fill="#666666">[varchar(255)]</text>
<polygon fill="none" stroke="#000000" points="121,-43 121,-73 292,-73 292,-43 121,-43"/>
<text text-anchor="start" x="128" y="-54.4" font-family="Arial" font-size="14.00" fill="#000000">status </text>
<text text-anchor="start" x="169.237" y="-54.4" font-family="Arial" font-size="14.00" fill="#666666">[int(11)]</text>
</g>
<!-- wiki_redirects&#45;&gt;wikis -->
<g id="edge1" class="edge">
<title>wiki_redirects:wiki_id&#45;&gt;wikis:id</title>
<path fill="none" stroke="#000000" stroke-dasharray="5,2" d="M86.8416,-467.7965C19.4198,-457.9384 47.9865,-346.8904 97,-288 153.3782,-220.2608 235.6218,-319.7392 292,-252 321.5687,-216.4728 338.2222,-148 292,-148"/>
<polygon fill="#000000" stroke="#000000" points="87.0239,-467.809 96.6891,-472.9892 92.0119,-468.1545 97,-468.5 97,-468.5 97,-468.5 92.0119,-468.1545 97.3109,-464.0108 87.0239,-467.809 87.0239,-467.809"/>
<text text-anchor="start" x="7.3245" y="-478.5" font-family="Arial" font-size="10.00" fill="#000000">Additional Relation</text>
</g>
<!-- wiki_redirects&#45;&gt;wikis -->
<g id="edge2" class="edge">
<title>wiki_redirects:redirects_to_wiki_id&#45;&gt;wikis:id</title>
<path fill="none" stroke="#000000" stroke-dasharray="5,2" d="M207.9184,-323.4697C215.8481,-283.4995 272.9082,-296.7555 292,-252 310.1363,-209.4845 338.2222,-148 292,-148"/>
<polygon fill="#000000" stroke="#000000" points="207.9119,-323.5417 202.5187,-333.0896 207.456,-328.5208 207,-333.5 207,-333.5 207,-333.5 207.456,-328.5208 211.4813,-333.9104 207.9119,-323.5417 207.9119,-323.5417"/>
<text text-anchor="start" x="190.0745" y="-317.5" font-family="Arial" font-size="10.00" fill="#000000">Additional Relation</text>
</g>
</g>
</svg>
