<?xml version="1.0" encoding="UTF-8" standalone="no"?>
<!DOCTYPE svg PUBLIC "-//W3C//DTD SVG 1.1//EN"
 "http://www.w3.org/Graphics/SVG/1.1/DTD/svg11.dtd">
<!-- Generated by graphviz version 2.40.1 (20161225.0304)
 -->
<!-- Title: wikis Pages: 1 -->
<svg width="618pt" height="1262pt"
 viewBox="0.00 0.00 618.00 1262.00" xmlns="http://www.w3.org/2000/svg" xmlns:xlink="http://www.w3.org/1999/xlink">
<g id="graph0" class="graph" transform="scale(1 1) rotate(0) translate(4 1258)">
<title>wikis</title>
<polygon fill="#ffffff" stroke="transparent" points="-4,4 -4,-1258 614,-1258 614,4 -4,4"/>
<!-- wikis -->
<g id="node1" class="node">
<title>wikis</title>
<polygon fill="#efefef" stroke="transparent" points="371,-814 371,-860 542,-860 542,-814 371,-814"/>
<polygon fill="none" stroke="#000000" points="371,-814 371,-860 542,-860 542,-814 371,-814"/>
<text text-anchor="start" x="388.3818" y="-837.8" font-family="Arial Bold" font-size="18.00" fill="#000000">wikis</text>
<text text-anchor="start" x="427.3644" y="-837.8" font-family="Arial" font-size="14.00" fill="#000000"> </text>
<text text-anchor="start" x="431.255" y="-837.8" font-family="Arial" font-size="14.00" fill="#666666">[BASE TABLE]</text>
<text text-anchor="start" x="443.2861" y="-823.4" font-family="Arial" font-size="14.00" fill="#333333">Wiki</text>
<polygon fill="none" stroke="#000000" points="371,-784 371,-814 542,-814 542,-784 371,-784"/>
<text text-anchor="start" x="378" y="-795.4" font-family="Arial" font-size="14.00" fill="#000000">id </text>
<text text-anchor="start" x="392.7798" y="-795.4" font-family="Arial" font-size="14.00" fill="#666666">[int(11)]</text>
<polygon fill="none" stroke="#000000" points="371,-754 371,-784 542,-784 542,-754 371,-754"/>
<text text-anchor="start" x="378" y="-765.4" font-family="Arial" font-size="14.00" fill="#000000">project_id </text>
<text text-anchor="start" x="442.568" y="-765.4" font-family="Arial" font-size="14.00" fill="#666666">[int(11)]</text>
<polygon fill="none" stroke="#000000" points="371,-724 371,-754 542,-754 542,-724 371,-724"/>
<text text-anchor="start" x="377.9264" y="-735.4" font-family="Arial" font-size="14.00" fill="#000000">start_page </text>
<text text-anchor="start" x="447.9544" y="-735.4" font-family="Arial" font-size="14.00" fill="#666666">[varchar(255)]</text>
<polygon fill="none" stroke="#000000" points="371,-694 371,-724 542,-724 542,-694 371,-694"/>
<text text-anchor="start" x="378" y="-705.4" font-family="Arial" font-size="14.00" fill="#000000">status </text>
<text text-anchor="start" x="419.237" y="-705.4" font-family="Arial" font-size="14.00" fill="#666666">[int(11)]</text>
<polygon fill="none" stroke="#000000" stroke-width="3" points="369,-692.5 369,-861.5 543,-861.5 543,-692.5 369,-692.5"/>
</g>
<!-- projects -->
<g id="node4" class="node">
<title>projects</title>
<polygon fill="#efefef" stroke="transparent" points="352,-523 352,-569 561,-569 561,-523 352,-523"/>
<polygon fill="none" stroke="#000000" points="352,-523 352,-569 561,-569 561,-523 352,-523"/>
<text text-anchor="start" x="376.3695" y="-546.8" font-family="Arial Bold" font-size="18.00" fill="#000000">projects</text>
<text text-anchor="start" x="439.3767" y="-546.8" font-family="Arial" font-size="14.00" fill="#000000"> </text>
<text text-anchor="start" x="443.2673" y="-546.8" font-family="Arial" font-size="14.00" fill="#666666">[BASE TABLE]</text>
<text text-anchor="start" x="414.1269" y="-532.4" font-family="Arial" font-size="14.00" fill="#333333">プロジェクト</text>
<polygon fill="none" stroke="#000000" points="352,-493 352,-523 561,-523 561,-493 352,-493"/>
<text text-anchor="start" x="359" y="-504.4" font-family="Arial" font-size="14.00" fill="#000000">id </text>
<text text-anchor="start" x="373.7798" y="-504.4" font-family="Arial" font-size="14.00" fill="#666666">[int(11)]</text>
<polygon fill="none" stroke="#000000" points="352,-463 352,-493 561,-493 561,-463 352,-463"/>
<text text-anchor="start" x="359" y="-474.4" font-family="Arial" font-size="14.00" fill="#000000">name </text>
<text text-anchor="start" x="397.899" y="-474.4" font-family="Arial" font-size="14.00" fill="#666666">[varchar(255)]</text>
<polygon fill="none" stroke="#000000" points="352,-433 352,-463 561,-463 561,-433 352,-433"/>
<text text-anchor="start" x="359" y="-444.4" font-family="Arial" font-size="14.00" fill="#000000">description </text>
<text text-anchor="start" x="430.568" y="-444.4" font-family="Arial" font-size="14.00" fill="#666666">[text]</text>
<polygon fill="none" stroke="#000000" points="352,-403 352,-433 561,-433 561,-403 352,-403"/>
<text text-anchor="start" x="359" y="-414.4" font-family="Arial" font-size="14.00" fill="#000000">homepage </text>
<text text-anchor="start" x="429.0294" y="-414.4" font-family="Arial" font-size="14.00" fill="#666666">[varchar(255)]</text>
<polygon fill="none" stroke="#000000" points="352,-373 352,-403 561,-403 561,-373 352,-373"/>
<text text-anchor="start" x="359" y="-384.4" font-family="Arial" font-size="14.00" fill="#000000">is_public </text>
<text text-anchor="start" x="417.3408" y="-384.4" font-family="Arial" font-size="14.00" fill="#666666">[tinyint(1)]</text>
<polygon fill="none" stroke="#000000" points="352,-343 352,-373 561,-373 561,-343 352,-343"/>
<text text-anchor="start" x="359" y="-354.4" font-family="Arial" font-size="14.00" fill="#000000">parent_id </text>
<text text-anchor="start" x="421.244" y="-354.4" font-family="Arial" font-size="14.00" fill="#666666">[int(11)]</text>
<polygon fill="none" stroke="#000000" points="352,-313 352,-343 561,-343 561,-313 352,-313"/>
<text text-anchor="start" x="359" y="-324.4" font-family="Arial" font-size="14.00" fill="#000000">created_on </text>
<text text-anchor="start" x="432.92" y="-324.4" font-family="Arial" font-size="14.00" fill="#666666">[timestamp]</text>
<polygon fill="none" stroke="#000000" points="352,-283 352,-313 561,-313 561,-283 352,-283"/>
<text text-anchor="start" x="359" y="-294.4" font-family="Arial" font-size="14.00" fill="#000000">updated_on </text>
<text text-anchor="start" x="436.8246" y="-294.4" font-family="Arial" font-size="14.00" fill="#666666">[timestamp]</text>
<polygon fill="none" stroke="#000000" points="352,-253 352,-283 561,-283 561,-253 352,-253"/>
<text text-anchor="start" x="359" y="-264.4" font-family="Arial" font-size="14.00" fill="#000000">identifier </text>
<text text-anchor="start" x="415.7826" y="-264.4" font-family="Arial" font-size="14.00" fill="#666666">[varchar(255)]</text>
<polygon fill="none" stroke="#000000" points="352,-223 352,-253 561,-253 561,-223 352,-223"/>
<text text-anchor="start" x="359" y="-234.4" font-family="Arial" font-size="14.00" fill="#000000">status </text>
<text text-anchor="start" x="400.237" y="-234.4" font-family="Arial" font-size="14.00" fill="#666666">[int(11)]</text>
<polygon fill="none" stroke="#000000" points="352,-193 352,-223 561,-223 561,-193 352,-193"/>
<text text-anchor="start" x="359" y="-204.4" font-family="Arial" font-size="14.00" fill="#000000">lft </text>
<text text-anchor="start" x="373.7784" y="-204.4" font-family="Arial" font-size="14.00" fill="#666666">[int(11)]</text>
<polygon fill="none" stroke="#000000" points="352,-163 352,-193 561,-193 561,-163 352,-163"/>
<text text-anchor="start" x="359" y="-174.4" font-family="Arial" font-size="14.00" fill="#000000">rgt </text>
<text text-anchor="start" x="379.2244" y="-174.4" font-family="Arial" font-size="14.00" fill="#666666">[int(11)]</text>
<polygon fill="none" stroke="#000000" points="352,-133 352,-163 561,-163 561,-133 352,-133"/>
<text text-anchor="start" x="359" y="-144.4" font-family="Arial" font-size="14.00" fill="#000000">inherit_members </text>
<text text-anchor="start" x="467.115" y="-144.4" font-family="Arial" font-size="14.00" fill="#666666">[tinyint(1)]</text>
<polygon fill="none" stroke="#000000" points="352,-103 352,-133 561,-133 561,-103 352,-103"/>
<text text-anchor="start" x="359" y="-114.4" font-family="Arial" font-size="14.00" fill="#000000">default_version_id </text>
<text text-anchor="start" x="476.4782" y="-114.4" font-family="Arial" font-size="14.00" fill="#666666">[int(11)]</text>
<polygon fill="none" stroke="#000000" points="352,-73 352,-103 561,-103 561,-73 352,-73"/>
<text text-anchor="start" x="358.857" y="-84.4" font-family="Arial" font-size="14.00" fill="#000000">default_assigned_to_id </text>
<text text-anchor="start" x="506.6956" y="-84.4" font-family="Arial" font-size="14.00" fill="#666666">[int(11)]</text>
<polygon fill="none" stroke="#000000" points="352,-43 352,-73 561,-73 561,-43 352,-43"/>
<text text-anchor="start" x="358.8633" y="-54.4" font-family="Arial" font-size="14.00" fill="#000000">default_issue_query_id </text>
<text text-anchor="start" x="506.6893" y="-54.4" font-family="Arial" font-size="14.00" fill="#666666">[int(11)]</text>
</g>
<!-- wikis&#45;&gt;projects -->
<g id="edge4" class="edge">
<title>wikis:project_id&#45;&gt;projects:id</title>
<path fill="none" stroke="#000000" stroke-dasharray="5,2" d="M360.7056,-768.2969C253.6667,-753.4365 239.2141,-508 352,-508"/>
<polygon fill="#000000" stroke="#000000" points="361.0232,-768.3185 370.6933,-773.4895 366.0116,-768.6592 371,-769 371,-769 371,-769 366.0116,-768.6592 371.3067,-764.5105 361.0232,-768.3185 361.0232,-768.3185"/>
<text text-anchor="start" x="281.3245" y="-779" font-family="Arial" font-size="10.00" fill="#000000">Additional Relation</text>
</g>
<!-- wiki_pages -->
<g id="node2" class="node">
<title>wiki_pages</title>
<polygon fill="#efefef" stroke="transparent" points="43,-1165 43,-1211 243,-1211 243,-1165 43,-1165"/>
<polygon fill="none" stroke="#000000" points="43,-1165 43,-1211 243,-1211 243,-1165 43,-1165"/>
<text text-anchor="start" x="49.8663" y="-1188.8" font-family="Arial Bold" font-size="18.00" fill="#000000">wiki_pages</text>
<text text-anchor="start" x="138.8799" y="-1188.8" font-family="Arial" font-size="14.00" fill="#000000"> </text>
<text text-anchor="start" x="142.7705" y="-1188.8" font-family="Arial" font-size="14.00" fill="#666666">[BASE TABLE]</text>
<text text-anchor="start" x="105.6837" y="-1174.4" font-family="Arial" font-size="14.00" fill="#333333">Wikiページ</text>
<polygon fill="none" stroke="#000000" points="43,-1135 43,-1165 243,-1165 243,-1135 43,-1135"/>
<text text-anchor="start" x="50" y="-1146.4" font-family="Arial" font-size="14.00" fill="#000000">id </text>
<text text-anchor="start" x="64.7798" y="-1146.4" font-family="Arial" font-size="14.00" fill="#666666">[int(11)]</text>
<polygon fill="none" stroke="#000000" points="43,-1105 43,-1135 243,-1135 243,-1105 43,-1105"/>
<text text-anchor="start" x="50" y="-1116.4" font-family="Arial" font-size="14.00" fill="#000000">wiki_id </text>
<text text-anchor="start" x="95.8822" y="-1116.4" font-family="Arial" font-size="14.00" fill="#666666">[int(11)]</text>
<polygon fill="none" stroke="#000000" points="43,-1075 43,-1105 243,-1105 243,-1075 43,-1075"/>
<text text-anchor="start" x="50" y="-1086.4" font-family="Arial" font-size="14.00" fill="#000000">title </text>
<text text-anchor="start" x="75.6676" y="-1086.4" font-family="Arial" font-size="14.00" fill="#666666">[varchar(255)]</text>
<polygon fill="none" stroke="#000000" points="43,-1045 43,-1075 243,-1075 243,-1045 43,-1045"/>
<text text-anchor="start" x="50" y="-1056.4" font-family="Arial" font-size="14.00" fill="#000000">created_on </text>
<text text-anchor="start" x="123.92" y="-1056.4" font-family="Arial" font-size="14.00" fill="#666666">[datetime]</text>
<polygon fill="none" stroke="#000000" points="43,-1015 43,-1045 243,-1045 243,-1015 43,-1015"/>
<text text-anchor="start" x="50" y="-1026.4" font-family="Arial" font-size="14.00" fill="#000000">protected </text>
<text text-anchor="start" x="112.2454" y="-1026.4" font-family="Arial" font-size="14.00" fill="#666666">[tinyint(1)]</text>
<polygon fill="none" stroke="#000000" points="43,-985 43,-1015 243,-1015 243,-985 43,-985"/>
<text text-anchor="start" x="50" y="-996.4" font-family="Arial" font-size="14.00" fill="#000000">parent_id </text>
<text text-anchor="start" x="112.244" y="-996.4" font-family="Arial" font-size="14.00" fill="#666666">[int(11)]</text>
</g>
<!-- wiki_pages&#45;&gt;wikis -->
<g id="edge1" class="edge">
<title>wiki_pages:wiki_id&#45;&gt;wikis:id</title>
<path fill="none" stroke="#000000" stroke-dasharray="5,2" d="M253.2574,-1119.3961C320.0814,-1110.9178 265.3382,-1014.9129 295,-942 322.1215,-875.3316 299.0261,-799 371,-799"/>
<polygon fill="#000000" stroke="#000000" points="252.9827,-1119.4122 242.7355,-1115.5078 247.9914,-1119.7061 243,-1120 243,-1120 243,-1120 247.9914,-1119.7061 243.2645,-1124.4922 252.9827,-1119.4122 252.9827,-1119.4122"/>
<text text-anchor="start" x="250.3245" y="-1130" font-family="Arial" font-size="10.00" fill="#000000">Additional Relation</text>
</g>
<!-- wiki_redirects -->
<g id="node3" class="node">
<title>wiki_redirects</title>
<polygon fill="#efefef" stroke="transparent" points="347,-1165 347,-1211 567,-1211 567,-1165 347,-1165"/>
<polygon fill="none" stroke="#000000" points="347,-1165 347,-1211 567,-1211 567,-1165 347,-1165"/>
<text text-anchor="start" x="353.879" y="-1188.8" font-family="Arial Bold" font-size="18.00" fill="#000000">wiki_redirects</text>
<text text-anchor="start" x="462.8672" y="-1188.8" font-family="Arial" font-size="14.00" fill="#000000"> </text>
<text text-anchor="start" x="466.7578" y="-1188.8" font-family="Arial" font-size="14.00" fill="#666666">[BASE TABLE]</text>
<text text-anchor="start" x="403.359" y="-1174.4" font-family="Arial" font-size="14.00" fill="#333333">Wikiリダイレクト</text>
<polygon fill="none" stroke="#000000" points="347,-1135 347,-1165 567,-1165 567,-1135 347,-1135"/>
<text text-anchor="start" x="354" y="-1146.4" font-family="Arial" font-size="14.00" fill="#000000">id </text>
<text text-anchor="start" x="368.7798" y="-1146.4" font-family="Arial" font-size="14.00" fill="#666666">[int(11)]</text>
<polygon fill="none" stroke="#000000" points="347,-1105 347,-1135 567,-1135 567,-1105 347,-1105"/>
<text text-anchor="start" x="354" y="-1116.4" font-family="Arial" font-size="14.00" fill="#000000">wiki_id </text>
<text text-anchor="start" x="399.8822" y="-1116.4" font-family="Arial" font-size="14.00" fill="#666666">[int(11)]</text>
<polygon fill="none" stroke="#000000" points="347,-1075 347,-1105 567,-1105 567,-1075 347,-1075"/>
<text text-anchor="start" x="354" y="-1086.4" font-family="Arial" font-size="14.00" fill="#000000">title </text>
<text text-anchor="start" x="379.6676" y="-1086.4" font-family="Arial" font-size="14.00" fill="#666666">[varchar(255)]</text>
<polygon fill="none" stroke="#000000" points="347,-1045 347,-1075 567,-1075 567,-1045 347,-1045"/>
<text text-anchor="start" x="354" y="-1056.4" font-family="Arial" font-size="14.00" fill="#000000">redirects_to </text>
<text text-anchor="start" x="431.0126" y="-1056.4" font-family="Arial" font-size="14.00" fill="#666666">[varchar(255)]</text>
<polygon fill="none" stroke="#000000" points="347,-1015 347,-1045 567,-1045 567,-1015 347,-1015"/>
<text text-anchor="start" x="354" y="-1026.4" font-family="Arial" font-size="14.00" fill="#000000">created_on </text>
<text text-anchor="start" x="427.92" y="-1026.4" font-family="Arial" font-size="14.00" fill="#666666">[datetime]</text>
<polygon fill="none" stroke="#000000" points="347,-985 347,-1015 567,-1015 567,-985 347,-985"/>
<text text-anchor="start" x="354" y="-996.4" font-family="Arial" font-size="14.00" fill="#000000">redirects_to_wiki_id </text>
<text text-anchor="start" x="480.7868" y="-996.4" font-family="Arial" font-size="14.00" fill="#666666">[int(11)]</text>
</g>
<!-- wiki_redirects&#45;&gt;wikis -->
<g id="edge2" class="edge">
<title>wiki_redirects:wiki_id&#45;&gt;wikis:id</title>
<path fill="none" stroke="#000000" stroke-dasharray="5,2" d="M336.9823,-1119.3063C270.4943,-1109.5847 298.6654,-1000.0747 347,-942 403.3782,-874.2608 485.6218,-973.7392 542,-906 572.4217,-869.4479 589.5556,-799 542,-799"/>
<polygon fill="#000000" stroke="#000000" points="337.0239,-1119.309 346.6891,-1124.4892 342.0119,-1119.6545 347,-1120 347,-1120 347,-1120 342.0119,-1119.6545 347.3109,-1115.5108 337.0239,-1119.309 337.0239,-1119.309"/>
<text text-anchor="start" x="257.3245" y="-1104" font-family="Arial" font-size="10.00" fill="#000000">Additional Relation</text>
</g>
<!-- wiki_redirects&#45;&gt;wikis -->
<g id="edge3" class="edge">
<title>wiki_redirects:redirects_to_wiki_id&#45;&gt;wikis:id</title>
<path fill="none" stroke="#000000" stroke-dasharray="5,2" d="M458.0199,-974.6403C466.3175,-936.0027 522.9246,-949.7709 542,-906 560.999,-862.4045 589.5556,-799 542,-799"/>
<polygon fill="#000000" stroke="#000000" points="457.9799,-975.0481 452.5217,-984.5591 457.4899,-980.0241 457,-985 457,-985 457,-985 457.4899,-980.0241 461.4783,-985.4409 457.9799,-975.0481 457.9799,-975.0481"/>
<text text-anchor="start" x="440.0745" y="-969" font-family="Arial" font-size="10.00" fill="#000000">Additional Relation</text>
</g>
</g>
</svg>
