<?xml version="1.0" encoding="UTF-8" standalone="no"?>
<!DOCTYPE svg PUBLIC "-//W3C//DTD SVG 1.1//EN"
 "http://www.w3.org/Graphics/SVG/1.1/DTD/svg11.dtd">
<!-- Generated by graphviz version 2.40.1 (20161225.0304)
 -->
<!-- Title: wiki_contents Pages: 1 -->
<svg width="880pt" height="1570pt"
 viewBox="0.00 0.00 880.00 1570.00" xmlns="http://www.w3.org/2000/svg" xmlns:xlink="http://www.w3.org/1999/xlink">
<g id="graph0" class="graph" transform="scale(1 1) rotate(0) translate(4 1566)">
<title>wiki_contents</title>
<polygon fill="#ffffff" stroke="transparent" points="-4,4 -4,-1566 876,-1566 876,4 -4,4"/>
<!-- wiki_contents -->
<g id="node1" class="node">
<title>wiki_contents</title>
<polygon fill="#efefef" stroke="transparent" points="255,-1053.5 255,-1088.5 474,-1088.5 474,-1053.5 255,-1053.5"/>
<polygon fill="none" stroke="#000000" points="255,-1053.5 255,-1088.5 474,-1088.5 474,-1053.5 255,-1053.5"/>
<text text-anchor="start" x="261.8641" y="-1066.3" font-family="Arial Bold" font-size="18.00" fill="#000000">wiki_contents</text>
<text text-anchor="start" x="369.8821" y="-1066.3" font-family="Arial" font-size="14.00" fill="#000000"> </text>
<text text-anchor="start" x="373.7727" y="-1066.3" font-family="Arial" font-size="14.00" fill="#666666">[BASE TABLE]</text>
<polygon fill="none" stroke="#000000" points="255,-1023.5 255,-1053.5 474,-1053.5 474,-1023.5 255,-1023.5"/>
<text text-anchor="start" x="262" y="-1034.9" font-family="Arial" font-size="14.00" fill="#000000">id </text>
<text text-anchor="start" x="276.7798" y="-1034.9" font-family="Arial" font-size="14.00" fill="#666666">[int(11)]</text>
<polygon fill="none" stroke="#000000" points="255,-993.5 255,-1023.5 474,-1023.5 474,-993.5 255,-993.5"/>
<text text-anchor="start" x="262" y="-1004.9" font-family="Arial" font-size="14.00" fill="#000000">page_id </text>
<text text-anchor="start" x="315.6928" y="-1004.9" font-family="Arial" font-size="14.00" fill="#666666">[int(11)]</text>
<polygon fill="none" stroke="#000000" points="255,-963.5 255,-993.5 474,-993.5 474,-963.5 255,-963.5"/>
<text text-anchor="start" x="262" y="-974.9" font-family="Arial" font-size="14.00" fill="#000000">author_id </text>
<text text-anchor="start" x="324.244" y="-974.9" font-family="Arial" font-size="14.00" fill="#666666">[int(11)]</text>
<polygon fill="none" stroke="#000000" points="255,-933.5 255,-963.5 474,-963.5 474,-933.5 255,-933.5"/>
<text text-anchor="start" x="262" y="-944.9" font-family="Arial" font-size="14.00" fill="#000000">text </text>
<text text-anchor="start" x="288.4544" y="-944.9" font-family="Arial" font-size="14.00" fill="#666666">[longtext]</text>
<polygon fill="none" stroke="#000000" points="255,-903.5 255,-933.5 474,-933.5 474,-903.5 255,-903.5"/>
<text text-anchor="start" x="262" y="-914.9" font-family="Arial" font-size="14.00" fill="#000000">comments </text>
<text text-anchor="start" x="330.4502" y="-914.9" font-family="Arial" font-size="14.00" fill="#666666">[varchar(1024)]</text>
<polygon fill="none" stroke="#000000" points="255,-873.5 255,-903.5 474,-903.5 474,-873.5 255,-873.5"/>
<text text-anchor="start" x="262" y="-884.9" font-family="Arial" font-size="14.00" fill="#000000">updated_on </text>
<text text-anchor="start" x="339.8246" y="-884.9" font-family="Arial" font-size="14.00" fill="#666666">[datetime]</text>
<polygon fill="none" stroke="#000000" points="255,-843.5 255,-873.5 474,-873.5 474,-843.5 255,-843.5"/>
<text text-anchor="start" x="262" y="-854.9" font-family="Arial" font-size="14.00" fill="#000000">version </text>
<text text-anchor="start" x="311.0056" y="-854.9" font-family="Arial" font-size="14.00" fill="#666666">[int(11)]</text>
<polygon fill="none" stroke="#000000" stroke-width="3" points="253,-842.5 253,-1090.5 475,-1090.5 475,-842.5 253,-842.5"/>
</g>
<!-- wiki_pages -->
<g id="node3" class="node">
<title>wiki_pages</title>
<polygon fill="#efefef" stroke="transparent" points="43,-448 43,-494 243,-494 243,-448 43,-448"/>
<polygon fill="none" stroke="#000000" points="43,-448 43,-494 243,-494 243,-448 43,-448"/>
<text text-anchor="start" x="49.8663" y="-471.8" font-family="Arial Bold" font-size="18.00" fill="#000000">wiki_pages</text>
<text text-anchor="start" x="138.8799" y="-471.8" font-family="Arial" font-size="14.00" fill="#000000"> </text>
<text text-anchor="start" x="142.7705" y="-471.8" font-family="Arial" font-size="14.00" fill="#666666">[BASE TABLE]</text>
<text text-anchor="start" x="105.6837" y="-457.4" font-family="Arial" font-size="14.00" fill="#333333">Wikiページ</text>
<polygon fill="none" stroke="#000000" points="43,-418 43,-448 243,-448 243,-418 43,-418"/>
<text text-anchor="start" x="50" y="-429.4" font-family="Arial" font-size="14.00" fill="#000000">id </text>
<text text-anchor="start" x="64.7798" y="-429.4" font-family="Arial" font-size="14.00" fill="#666666">[int(11)]</text>
<polygon fill="none" stroke="#000000" points="43,-388 43,-418 243,-418 243,-388 43,-388"/>
<text text-anchor="start" x="50" y="-399.4" font-family="Arial" font-size="14.00" fill="#000000">wiki_id </text>
<text text-anchor="start" x="95.8822" y="-399.4" font-family="Arial" font-size="14.00" fill="#666666">[int(11)]</text>
<polygon fill="none" stroke="#000000" points="43,-358 43,-388 243,-388 243,-358 43,-358"/>
<text text-anchor="start" x="50" y="-369.4" font-family="Arial" font-size="14.00" fill="#000000">title </text>
<text text-anchor="start" x="75.6676" y="-369.4" font-family="Arial" font-size="14.00" fill="#666666">[varchar(255)]</text>
<polygon fill="none" stroke="#000000" points="43,-328 43,-358 243,-358 243,-328 43,-328"/>
<text text-anchor="start" x="50" y="-339.4" font-family="Arial" font-size="14.00" fill="#000000">created_on </text>
<text text-anchor="start" x="123.92" y="-339.4" font-family="Arial" font-size="14.00" fill="#666666">[datetime]</text>
<polygon fill="none" stroke="#000000" points="43,-298 43,-328 243,-328 243,-298 43,-298"/>
<text text-anchor="start" x="50" y="-309.4" font-family="Arial" font-size="14.00" fill="#000000">protected </text>
<text text-anchor="start" x="112.2454" y="-309.4" font-family="Arial" font-size="14.00" fill="#666666">[tinyint(1)]</text>
<polygon fill="none" stroke="#000000" points="43,-268 43,-298 243,-298 243,-268 43,-268"/>
<text text-anchor="start" x="50" y="-279.4" font-family="Arial" font-size="14.00" fill="#000000">parent_id </text>
<text text-anchor="start" x="112.244" y="-279.4" font-family="Arial" font-size="14.00" fill="#666666">[int(11)]</text>
</g>
<!-- wiki_contents&#45;&gt;wiki_pages -->
<g id="edge2" class="edge">
<title>wiki_contents:page_id&#45;&gt;wiki_pages:id</title>
<path fill="none" stroke="#000000" stroke-dasharray="5,2" d="M245.0097,-1007.1414C140.596,-976.3649 367.294,-433 243,-433"/>
<polygon fill="#000000" stroke="#000000" points="245.0912,-1007.1524 254.3936,-1012.959 250.0456,-1007.8262 255,-1008.5 255,-1008.5 255,-1008.5 250.0456,-1007.8262 255.6064,-1004.041 245.0912,-1007.1524 245.0912,-1007.1524"/>
<text text-anchor="start" x="165.3245" y="-1018.5" font-family="Arial" font-size="10.00" fill="#000000">Additional Relation</text>
</g>
<!-- users -->
<g id="node4" class="node">
<title>users</title>
<polygon fill="#efefef" stroke="transparent" points="347,-673 347,-719 829,-719 829,-673 347,-673"/>
<polygon fill="none" stroke="#000000" points="347,-673 347,-719 829,-719 829,-673 347,-673"/>
<text text-anchor="start" x="517.3708" y="-696.8" font-family="Arial Bold" font-size="18.00" fill="#000000">users</text>
<text text-anchor="start" x="561.3754" y="-696.8" font-family="Arial" font-size="14.00" fill="#000000"> </text>
<text text-anchor="start" x="565.266" y="-696.8" font-family="Arial" font-size="14.00" fill="#666666">[BASE TABLE]</text>
<text text-anchor="start" x="509.4558" y="-682.4" font-family="Arial" font-size="14.00" fill="#333333">ユーザー / グループ</text>
<polygon fill="none" stroke="#000000" points="347,-643 347,-673 829,-673 829,-643 347,-643"/>
<text text-anchor="start" x="354" y="-654.4" font-family="Arial" font-size="14.00" fill="#000000">id </text>
<text text-anchor="start" x="368.7798" y="-654.4" font-family="Arial" font-size="14.00" fill="#666666">[int(11)]</text>
<polygon fill="none" stroke="#000000" points="347,-613 347,-643 829,-643 829,-613 347,-613"/>
<text text-anchor="start" x="354" y="-624.4" font-family="Arial" font-size="14.00" fill="#000000">login </text>
<text text-anchor="start" x="387.4516" y="-624.4" font-family="Arial" font-size="14.00" fill="#666666">[varchar(255)]</text>
<text text-anchor="start" x="474.5708" y="-624.4" font-family="Arial" font-size="14.00" fill="#000000"> ログインID</text>
<polygon fill="none" stroke="#000000" points="347,-583 347,-613 829,-613 829,-583 347,-583"/>
<text text-anchor="start" x="354" y="-594.4" font-family="Arial" font-size="14.00" fill="#000000">hashed_password </text>
<text text-anchor="start" x="471.4838" y="-594.4" font-family="Arial" font-size="14.00" fill="#666666">[varchar(40)]</text>
<text text-anchor="start" x="550.8204" y="-594.4" font-family="Arial" font-size="14.00" fill="#000000"> パスワード(ハッシュ化済み)</text>
<polygon fill="none" stroke="#000000" points="347,-553 347,-583 829,-583 829,-553 347,-553"/>
<text text-anchor="start" x="354" y="-564.4" font-family="Arial" font-size="14.00" fill="#000000">firstname </text>
<text text-anchor="start" x="415.4474" y="-564.4" font-family="Arial" font-size="14.00" fill="#666666">[varchar(30)]</text>
<text text-anchor="start" x="494.784" y="-564.4" font-family="Arial" font-size="14.00" fill="#000000"> 名</text>
<polygon fill="none" stroke="#000000" points="347,-523 347,-553 829,-553 829,-523 347,-523"/>
<text text-anchor="start" x="354" y="-534.4" font-family="Arial" font-size="14.00" fill="#000000">lastname </text>
<text text-anchor="start" x="414.6788" y="-534.4" font-family="Arial" font-size="14.00" fill="#666666">[varchar(255)]</text>
<text text-anchor="start" x="501.798" y="-534.4" font-family="Arial" font-size="14.00" fill="#000000"> 姓</text>
<polygon fill="none" stroke="#000000" points="347,-493 347,-523 829,-523 829,-493 347,-493"/>
<text text-anchor="start" x="354" y="-504.4" font-family="Arial" font-size="14.00" fill="#000000">admin </text>
<text text-anchor="start" x="396.0056" y="-504.4" font-family="Arial" font-size="14.00" fill="#666666">[tinyint(1)]</text>
<text text-anchor="start" x="457.4502" y="-504.4" font-family="Arial" font-size="14.00" fill="#000000"> システム管理者</text>
<polygon fill="none" stroke="#000000" points="347,-463 347,-493 829,-493 829,-463 347,-463"/>
<text text-anchor="start" x="354" y="-474.4" font-family="Arial" font-size="14.00" fill="#000000">status </text>
<text text-anchor="start" x="395.237" y="-474.4" font-family="Arial" font-size="14.00" fill="#666666">[int(11)]</text>
<polygon fill="none" stroke="#000000" points="347,-433 347,-463 829,-463 829,-433 347,-433"/>
<text text-anchor="start" x="354" y="-444.4" font-family="Arial" font-size="14.00" fill="#000000">last_login_on </text>
<text text-anchor="start" x="440.3618" y="-444.4" font-family="Arial" font-size="14.00" fill="#666666">[datetime]</text>
<polygon fill="none" stroke="#000000" points="347,-403 347,-433 829,-433 829,-403 347,-403"/>
<text text-anchor="start" x="354" y="-414.4" font-family="Arial" font-size="14.00" fill="#000000">language </text>
<text text-anchor="start" x="415.4754" y="-414.4" font-family="Arial" font-size="14.00" fill="#666666">[varchar(5)]</text>
<text text-anchor="start" x="487.0294" y="-414.4" font-family="Arial" font-size="14.00" fill="#000000"> 言語</text>
<polygon fill="none" stroke="#000000" points="347,-373 347,-403 829,-403 829,-373 347,-373"/>
<text text-anchor="start" x="354" y="-384.4" font-family="Arial" font-size="14.00" fill="#000000">auth_source_id </text>
<text text-anchor="start" x="453.5918" y="-384.4" font-family="Arial" font-size="14.00" fill="#666666">[int(11)]</text>
<polygon fill="none" stroke="#000000" points="347,-343 347,-373 829,-373 829,-343 347,-343"/>
<text text-anchor="start" x="354" y="-354.4" font-family="Arial" font-size="14.00" fill="#000000">created_on </text>
<text text-anchor="start" x="427.92" y="-354.4" font-family="Arial" font-size="14.00" fill="#666666">[timestamp]</text>
<polygon fill="none" stroke="#000000" points="347,-313 347,-343 829,-343 829,-313 347,-313"/>
<text text-anchor="start" x="354" y="-324.4" font-family="Arial" font-size="14.00" fill="#000000">updated_on </text>
<text text-anchor="start" x="431.8246" y="-324.4" font-family="Arial" font-size="14.00" fill="#666666">[timestamp]</text>
<polygon fill="none" stroke="#000000" points="347,-283 347,-313 829,-313 829,-283 347,-283"/>
<text text-anchor="start" x="354" y="-294.4" font-family="Arial" font-size="14.00" fill="#000000">type </text>
<text text-anchor="start" x="384.3464" y="-294.4" font-family="Arial" font-size="14.00" fill="#666666">[varchar(255)]</text>
<text text-anchor="start" x="471.4656" y="-294.4" font-family="Arial" font-size="14.00" fill="#000000"> User:ユーザー Group:グループ </text>
<polygon fill="none" stroke="#000000" points="347,-253 347,-283 829,-283 829,-253 347,-253"/>
<text text-anchor="start" x="354" y="-264.4" font-family="Arial" font-size="14.00" fill="#000000">mail_notification </text>
<text text-anchor="start" x="458.2342" y="-264.4" font-family="Arial" font-size="14.00" fill="#666666">[varchar(255)]</text>
<text text-anchor="start" x="545.3534" y="-264.4" font-family="Arial" font-size="14.00" fill="#000000"> メール通知</text>
<polygon fill="none" stroke="#000000" points="347,-223 347,-253 829,-253 829,-223 347,-223"/>
<text text-anchor="start" x="354" y="-234.4" font-family="Arial" font-size="14.00" fill="#000000">salt </text>
<text text-anchor="start" x="379.6704" y="-234.4" font-family="Arial" font-size="14.00" fill="#666666">[varchar(64)]</text>
<polygon fill="none" stroke="#000000" points="347,-193 347,-223 829,-223 829,-193 347,-193"/>
<text text-anchor="start" x="353.7646" y="-204.4" font-family="Arial" font-size="14.00" fill="#000000">must_change_passwd </text>
<text text-anchor="start" x="496.9216" y="-204.4" font-family="Arial" font-size="14.00" fill="#666666">[tinyint(1)]</text>
<text text-anchor="start" x="558.3662" y="-204.4" font-family="Arial" font-size="14.00" fill="#000000"> 次回ログイン時にパスワード変更を強制</text>
<polygon fill="none" stroke="#000000" points="347,-163 347,-193 829,-193 829,-163 347,-163"/>
<text text-anchor="start" x="354" y="-174.4" font-family="Arial" font-size="14.00" fill="#000000">passwd_changed_on </text>
<text text-anchor="start" x="490.171" y="-174.4" font-family="Arial" font-size="14.00" fill="#666666">[datetime]</text>
<polygon fill="none" stroke="#000000" points="347,-133 347,-163 829,-163 829,-133 347,-133"/>
<text text-anchor="start" x="354" y="-144.4" font-family="Arial" font-size="14.00" fill="#000000">twofa_scheme </text>
<text text-anchor="start" x="448.1346" y="-144.4" font-family="Arial" font-size="14.00" fill="#666666">[varchar(255)]</text>
<polygon fill="none" stroke="#000000" points="347,-103 347,-133 829,-133 829,-103 347,-103"/>
<text text-anchor="start" x="354" y="-114.4" font-family="Arial" font-size="14.00" fill="#000000">twofa_totp_key </text>
<text text-anchor="start" x="452.0378" y="-114.4" font-family="Arial" font-size="14.00" fill="#666666">[varchar(255)]</text>
<polygon fill="none" stroke="#000000" points="347,-73 347,-103 829,-103 829,-73 347,-73"/>
<text text-anchor="start" x="354" y="-84.4" font-family="Arial" font-size="14.00" fill="#000000">twofa_totp_last_used_at </text>
<text text-anchor="start" x="509.6212" y="-84.4" font-family="Arial" font-size="14.00" fill="#666666">[int(11)]</text>
<polygon fill="none" stroke="#000000" points="347,-43 347,-73 829,-73 829,-43 347,-43"/>
<text text-anchor="start" x="354" y="-54.4" font-family="Arial" font-size="14.00" fill="#000000">twofa_required </text>
<text text-anchor="start" x="450.467" y="-54.4" font-family="Arial" font-size="14.00" fill="#666666">[tinyint(1)]</text>
</g>
<!-- wiki_contents&#45;&gt;users -->
<g id="edge3" class="edge">
<title>wiki_contents:author_id&#45;&gt;users:id</title>
<path fill="none" stroke="#000000" stroke-dasharray="5,2" d="M484.1414,-977.81C551.3277,-968.1387 520.2029,-859.1202 474,-798 438.6215,-751.199 382.3785,-808.801 347,-762 319.1268,-725.1275 300.7778,-658 347,-658"/>
<polygon fill="#000000" stroke="#000000" points="483.9769,-977.8211 473.6945,-974.0104 478.9885,-978.1606 474,-978.5 474,-978.5 474,-978.5 478.9885,-978.1606 474.3055,-982.9896 483.9769,-977.8211 483.9769,-977.8211"/>
<text text-anchor="start" x="481.3245" y="-988.5" font-family="Arial" font-size="10.00" fill="#000000">Additional Relation</text>
</g>
<!-- wiki_content_versions -->
<g id="node2" class="node">
<title>wiki_content_versions</title>
<polygon fill="#efefef" stroke="transparent" points="221,-1483.5 221,-1518.5 508,-1518.5 508,-1483.5 221,-1483.5"/>
<polygon fill="none" stroke="#000000" points="221,-1483.5 221,-1518.5 508,-1518.5 508,-1483.5 221,-1483.5"/>
<text text-anchor="start" x="227.8585" y="-1496.3" font-family="Arial Bold" font-size="18.00" fill="#000000">wiki_content_versions</text>
<text text-anchor="start" x="403.8877" y="-1496.3" font-family="Arial" font-size="14.00" fill="#000000"> </text>
<text text-anchor="start" x="407.7783" y="-1496.3" font-family="Arial" font-size="14.00" fill="#666666">[BASE TABLE]</text>
<polygon fill="none" stroke="#000000" points="221,-1453.5 221,-1483.5 508,-1483.5 508,-1453.5 221,-1453.5"/>
<text text-anchor="start" x="228" y="-1464.9" font-family="Arial" font-size="14.00" fill="#000000">id </text>
<text text-anchor="start" x="242.7798" y="-1464.9" font-family="Arial" font-size="14.00" fill="#666666">[int(11)]</text>
<polygon fill="none" stroke="#000000" points="221,-1423.5 221,-1453.5 508,-1453.5 508,-1423.5 221,-1423.5"/>
<text text-anchor="start" x="228" y="-1434.9" font-family="Arial" font-size="14.00" fill="#000000">wiki_content_id </text>
<text text-anchor="start" x="327.5764" y="-1434.9" font-family="Arial" font-size="14.00" fill="#666666">[int(11)]</text>
<polygon fill="none" stroke="#000000" points="221,-1393.5 221,-1423.5 508,-1423.5 508,-1393.5 221,-1393.5"/>
<text text-anchor="start" x="228" y="-1404.9" font-family="Arial" font-size="14.00" fill="#000000">page_id </text>
<text text-anchor="start" x="281.6928" y="-1404.9" font-family="Arial" font-size="14.00" fill="#666666">[int(11)]</text>
<polygon fill="none" stroke="#000000" points="221,-1363.5 221,-1393.5 508,-1393.5 508,-1363.5 221,-1363.5"/>
<text text-anchor="start" x="228" y="-1374.9" font-family="Arial" font-size="14.00" fill="#000000">author_id </text>
<text text-anchor="start" x="290.244" y="-1374.9" font-family="Arial" font-size="14.00" fill="#666666">[int(11)]</text>
<polygon fill="none" stroke="#000000" points="221,-1333.5 221,-1363.5 508,-1363.5 508,-1333.5 221,-1333.5"/>
<text text-anchor="start" x="228" y="-1344.9" font-family="Arial" font-size="14.00" fill="#000000">data </text>
<text text-anchor="start" x="259.129" y="-1344.9" font-family="Arial" font-size="14.00" fill="#666666">[longblob]</text>
<polygon fill="none" stroke="#000000" points="221,-1303.5 221,-1333.5 508,-1333.5 508,-1303.5 221,-1303.5"/>
<text text-anchor="start" x="228" y="-1314.9" font-family="Arial" font-size="14.00" fill="#000000">compression </text>
<text text-anchor="start" x="311.2314" y="-1314.9" font-family="Arial" font-size="14.00" fill="#666666">[varchar(6)]</text>
<polygon fill="none" stroke="#000000" points="221,-1273.5 221,-1303.5 508,-1303.5 508,-1273.5 221,-1273.5"/>
<text text-anchor="start" x="228" y="-1284.9" font-family="Arial" font-size="14.00" fill="#000000">comments </text>
<text text-anchor="start" x="296.4502" y="-1284.9" font-family="Arial" font-size="14.00" fill="#666666">[varchar(1024)]</text>
<polygon fill="none" stroke="#000000" points="221,-1243.5 221,-1273.5 508,-1273.5 508,-1243.5 221,-1243.5"/>
<text text-anchor="start" x="228" y="-1254.9" font-family="Arial" font-size="14.00" fill="#000000">updated_on </text>
<text text-anchor="start" x="305.8246" y="-1254.9" font-family="Arial" font-size="14.00" fill="#666666">[datetime]</text>
<polygon fill="none" stroke="#000000" points="221,-1213.5 221,-1243.5 508,-1243.5 508,-1213.5 221,-1213.5"/>
<text text-anchor="start" x="228" y="-1224.9" font-family="Arial" font-size="14.00" fill="#000000">version </text>
<text text-anchor="start" x="277.0056" y="-1224.9" font-family="Arial" font-size="14.00" fill="#666666">[int(11)]</text>
</g>
<!-- wiki_content_versions&#45;&gt;wiki_contents -->
<g id="edge1" class="edge">
<title>wiki_content_versions:wiki_content_id&#45;&gt;wiki_contents:id</title>
<path fill="none" stroke="#000000" stroke-dasharray="5,2" d="M210.7884,-1438.0482C43.9644,-1423.0276 80.0659,-1038.5 255,-1038.5"/>
<polygon fill="#000000" stroke="#000000" points="211.0098,-1438.0579 220.8011,-1442.9956 216.0049,-1438.2789 221,-1438.5 221,-1438.5 221,-1438.5 216.0049,-1438.2789 221.1989,-1434.0044 211.0098,-1438.0579 211.0098,-1438.0579"/>
<text text-anchor="start" x="131.3245" y="-1448.5" font-family="Arial" font-size="10.00" fill="#000000">Additional Relation</text>
</g>
</g>
</svg>
