<?xml version="1.0" encoding="UTF-8" standalone="no"?>
<!DOCTYPE svg PUBLIC "-//W3C//DTD SVG 1.1//EN"
 "http://www.w3.org/Graphics/SVG/1.1/DTD/svg11.dtd">
<!-- Generated by graphviz version 2.40.1 (20161225.0304)
 -->
<!-- Title: wiki_contents Pages: 1 -->
<svg width="880pt" height="1592pt"
 viewBox="0.00 0.00 880.00 1592.00" xmlns="http://www.w3.org/2000/svg" xmlns:xlink="http://www.w3.org/1999/xlink">
<g id="graph0" class="graph" transform="scale(1 1) rotate(0) translate(4 1588)">
<title>wiki_contents</title>
<polygon fill="#ffffff" stroke="transparent" points="-4,4 -4,-1588 876,-1588 876,4 -4,4"/>
<!-- wiki_contents -->
<g id="node1" class="node">
<title>wiki_contents</title>
<polygon fill="#efefef" stroke="transparent" points="255,-1054 255,-1100 474,-1100 474,-1054 255,-1054"/>
<polygon fill="none" stroke="#000000" points="255,-1054 255,-1100 474,-1100 474,-1054 255,-1054"/>
<text text-anchor="start" x="261.8641" y="-1077.8" font-family="Arial Bold" font-size="18.00" fill="#000000">wiki_contents</text>
<text text-anchor="start" x="369.8821" y="-1077.8" font-family="Arial" font-size="14.00" fill="#000000"> </text>
<text text-anchor="start" x="373.7727" y="-1077.8" font-family="Arial" font-size="14.00" fill="#666666">[BASE TABLE]</text>
<text text-anchor="start" x="313.0486" y="-1063.4" font-family="Arial" font-size="14.00" fill="#333333">Wikiコンテンツ</text>
<polygon fill="none" stroke="#000000" points="255,-1024 255,-1054 474,-1054 474,-1024 255,-1024"/>
<text text-anchor="start" x="262" y="-1035.4" font-family="Arial" font-size="14.00" fill="#000000">id </text>
<text text-anchor="start" x="276.7798" y="-1035.4" font-family="Arial" font-size="14.00" fill="#666666">[int(11)]</text>
<polygon fill="none" stroke="#000000" points="255,-994 255,-1024 474,-1024 474,-994 255,-994"/>
<text text-anchor="start" x="262" y="-1005.4" font-family="Arial" font-size="14.00" fill="#000000">page_id </text>
<text text-anchor="start" x="315.6928" y="-1005.4" font-family="Arial" font-size="14.00" fill="#666666">[int(11)]</text>
<polygon fill="none" stroke="#000000" points="255,-964 255,-994 474,-994 474,-964 255,-964"/>
<text text-anchor="start" x="262" y="-975.4" font-family="Arial" font-size="14.00" fill="#000000">author_id </text>
<text text-anchor="start" x="324.244" y="-975.4" font-family="Arial" font-size="14.00" fill="#666666">[int(11)]</text>
<polygon fill="none" stroke="#000000" points="255,-934 255,-964 474,-964 474,-934 255,-934"/>
<text text-anchor="start" x="262" y="-945.4" font-family="Arial" font-size="14.00" fill="#000000">text </text>
<text text-anchor="start" x="288.4544" y="-945.4" font-family="Arial" font-size="14.00" fill="#666666">[longtext]</text>
<polygon fill="none" stroke="#000000" points="255,-904 255,-934 474,-934 474,-904 255,-904"/>
<text text-anchor="start" x="262" y="-915.4" font-family="Arial" font-size="14.00" fill="#000000">comments </text>
<text text-anchor="start" x="330.4502" y="-915.4" font-family="Arial" font-size="14.00" fill="#666666">[varchar(1024)]</text>
<polygon fill="none" stroke="#000000" points="255,-874 255,-904 474,-904 474,-874 255,-874"/>
<text text-anchor="start" x="262" y="-885.4" font-family="Arial" font-size="14.00" fill="#000000">updated_on </text>
<text text-anchor="start" x="339.8246" y="-885.4" font-family="Arial" font-size="14.00" fill="#666666">[datetime]</text>
<polygon fill="none" stroke="#000000" points="255,-844 255,-874 474,-874 474,-844 255,-844"/>
<text text-anchor="start" x="262" y="-855.4" font-family="Arial" font-size="14.00" fill="#000000">version </text>
<text text-anchor="start" x="311.0056" y="-855.4" font-family="Arial" font-size="14.00" fill="#666666">[int(11)]</text>
<polygon fill="none" stroke="#000000" stroke-width="3" points="253,-842.5 253,-1101.5 475,-1101.5 475,-842.5 253,-842.5"/>
</g>
<!-- wiki_pages -->
<g id="node3" class="node">
<title>wiki_pages</title>
<polygon fill="#efefef" stroke="transparent" points="43,-448 43,-494 243,-494 243,-448 43,-448"/>
<polygon fill="none" stroke="#000000" points="43,-448 43,-494 243,-494 243,-448 43,-448"/>
<text text-anchor="start" x="49.8663" y="-471.8" font-family="Arial Bold" font-size="18.00" fill="#000000">wiki_pages</text>
<text text-anchor="start" x="138.8799" y="-471.8" font-family="Arial" font-size="14.00" fill="#000000"> </text>
<text text-anchor="start" x="142.7705" y="-471.8" font-family="Arial" font-size="14.00" fill="#666666">[BASE TABLE]</text>
<text text-anchor="start" x="105.6837" y="-457.4" font-family="Arial" font-size="14.00" fill="#333333">Wikiページ</text>
<polygon fill="none" stroke="#000000" points="43,-418 43,-448 243,-448 243,-418 43,-418"/>
<text text-anchor="start" x="50" y="-429.4" font-family="Arial" font-size="14.00" fill="#000000">id </text>
<text text-anchor="start" x="64.7798" y="-429.4" font-family="Arial" font-size="14.00" fill="#666666">[int(11)]</text>
<polygon fill="none" stroke="#000000" points="43,-388 43,-418 243,-418 243,-388 43,-388"/>
<text text-anchor="start" x="50" y="-399.4" font-family="Arial" font-size="14.00" fill="#000000">wiki_id </text>
<text text-anchor="start" x="95.8822" y="-399.4" font-family="Arial" font-size="14.00" fill="#666666">[int(11)]</text>
<polygon fill="none" stroke="#000000" points="43,-358 43,-388 243,-388 243,-358 43,-358"/>
<text text-anchor="start" x="50" y="-369.4" font-family="Arial" font-size="14.00" fill="#000000">title </text>
<text text-anchor="start" x="75.6676" y="-369.4" font-family="Arial" font-size="14.00" fill="#666666">[varchar(255)]</text>
<polygon fill="none" stroke="#000000" points="43,-328 43,-358 243,-358 243,-328 43,-328"/>
<text text-anchor="start" x="50" y="-339.4" font-family="Arial" font-size="14.00" fill="#000000">created_on </text>
<text text-anchor="start" x="123.92" y="-339.4" font-family="Arial" font-size="14.00" fill="#666666">[datetime]</text>
<polygon fill="none" stroke="#000000" points="43,-298 43,-328 243,-328 243,-298 43,-298"/>
<text text-anchor="start" x="50" y="-309.4" font-family="Arial" font-size="14.00" fill="#000000">protected </text>
<text text-anchor="start" x="112.2454" y="-309.4" font-family="Arial" font-size="14.00" fill="#666666">[tinyint(1)]</text>
<polygon fill="none" stroke="#000000" points="43,-268 43,-298 243,-298 243,-268 43,-268"/>
<text text-anchor="start" x="50" y="-279.4" font-family="Arial" font-size="14.00" fill="#000000">parent_id </text>
<text text-anchor="start" x="112.244" y="-279.4" font-family="Arial" font-size="14.00" fill="#666666">[int(11)]</text>
</g>
<!-- wiki_contents&#45;&gt;wiki_pages -->
<g id="edge2" class="edge">
<title>wiki_contents:page_id&#45;&gt;wiki_pages:id</title>
<path fill="none" stroke="#000000" stroke-dasharray="5,2" d="M245.001,-1007.6402C140.4973,-976.837 367.402,-433 243,-433"/>
<polygon fill="#000000" stroke="#000000" points="245.0912,-1007.6524 254.3936,-1013.459 250.0456,-1008.3262 255,-1009 255,-1009 255,-1009 250.0456,-1008.3262 255.6064,-1004.541 245.0912,-1007.6524 245.0912,-1007.6524"/>
<text text-anchor="start" x="165.3245" y="-1019" font-family="Arial" font-size="10.00" fill="#000000">Additional Relation</text>
</g>
<!-- users -->
<g id="node4" class="node">
<title>users</title>
<polygon fill="#efefef" stroke="transparent" points="347,-673 347,-719 829,-719 829,-673 347,-673"/>
<polygon fill="none" stroke="#000000" points="347,-673 347,-719 829,-719 829,-673 347,-673"/>
<text text-anchor="start" x="517.3708" y="-696.8" font-family="Arial Bold" font-size="18.00" fill="#000000">users</text>
<text text-anchor="start" x="561.3754" y="-696.8" font-family="Arial" font-size="14.00" fill="#000000"> </text>
<text text-anchor="start" x="565.266" y="-696.8" font-family="Arial" font-size="14.00" fill="#666666">[BASE TABLE]</text>
<text text-anchor="start" x="509.4558" y="-682.4" font-family="Arial" font-size="14.00" fill="#333333">ユーザー / グループ</text>
<polygon fill="none" stroke="#000000" points="347,-643 347,-673 829,-673 829,-643 347,-643"/>
<text text-anchor="start" x="354" y="-654.4" font-family="Arial" font-size="14.00" fill="#000000">id </text>
<text text-anchor="start" x="368.7798" y="-654.4" font-family="Arial" font-size="14.00" fill="#666666">[int(11)]</text>
<polygon fill="none" stroke="#000000" points="347,-613 347,-643 829,-643 829,-613 347,-613"/>
<text text-anchor="start" x="354" y="-624.4" font-family="Arial" font-size="14.00" fill="#000000">login </text>
<text text-anchor="start" x="387.4516" y="-624.4" font-family="Arial" font-size="14.00" fill="#666666">[varchar(255)]</text>
<text text-anchor="start" x="474.5708" y="-624.4" font-family="Arial" font-size="14.00" fill="#000000"> ログインID</text>
<polygon fill="none" stroke="#000000" points="347,-583 347,-613 829,-613 829,-583 347,-583"/>
<text text-anchor="start" x="354" y="-594.4" font-family="Arial" font-size="14.00" fill="#000000">hashed_password </text>
<text text-anchor="start" x="471.4838" y="-594.4" font-family="Arial" font-size="14.00" fill="#666666">[varchar(40)]</text>
<text text-anchor="start" x="550.8204" y="-594.4" font-family="Arial" font-size="14.00" fill="#000000"> パスワード(ハッシュ化済み)</text>
<polygon fill="none" stroke="#000000" points="347,-553 347,-583 829,-583 829,-553 347,-553"/>
<text text-anchor="start" x="354" y="-564.4" font-family="Arial" font-size="14.00" fill="#000000">firstname </text>
<text text-anchor="start" x="415.4474" y="-564.4" font-family="Arial" font-size="14.00" fill="#666666">[varchar(30)]</text>
<text text-anchor="start" x="494.784" y="-564.4" font-family="Arial" font-size="14.00" fill="#000000"> 名</text>
<polygon fill="none" stroke="#000000" points="347,-523 347,-553 829,-553 829,-523 347,-523"/>
<text text-anchor="start" x="354" y="-534.4" font-family="Arial" font-size="14.00" fill="#000000">lastname </text>
<text text-anchor="start" x="414.6788" y="-534.4" font-family="Arial" font-size="14.00" fill="#666666">[varchar(255)]</text>
<text text-anchor="start" x="501.798" y="-534.4" font-family="Arial" font-size="14.00" fill="#000000"> 姓</text>
<polygon fill="none" stroke="#000000" points="347,-493 347,-523 829,-523 829,-493 347,-493"/>
<text text-anchor="start" x="354" y="-504.4" font-family="Arial" font-size="14.00" fill="#000000">admin </text>
<text text-anchor="start" x="396.0056" y="-504.4" font-family="Arial" font-size="14.00" fill="#666666">[tinyint(1)]</text>
<text text-anchor="start" x="457.4502" y="-504.4" font-family="Arial" font-size="14.00" fill="#000000"> システム管理者</text>
<polygon fill="none" stroke="#000000" points="347,-463 347,-493 829,-493 829,-463 347,-463"/>
<text text-anchor="start" x="354" y="-474.4" font-family="Arial" font-size="14.00" fill="#000000">status </text>
<text text-anchor="start" x="395.237" y="-474.4" font-family="Arial" font-size="14.00" fill="#666666">[int(11)]</text>
<polygon fill="none" stroke="#000000" points="347,-433 347,-463 829,-463 829,-433 347,-433"/>
<text text-anchor="start" x="354" y="-444.4" font-family="Arial" font-size="14.00" fill="#000000">last_login_on </text>
<text text-anchor="start" x="440.3618" y="-444.4" font-family="Arial" font-size="14.00" fill="#666666">[datetime]</text>
<polygon fill="none" stroke="#000000" points="347,-403 347,-433 829,-433 829,-403 347,-403"/>
<text text-anchor="start" x="354" y="-414.4" font-family="Arial" font-size="14.00" fill="#000000">language </text>
<text text-anchor="start" x="415.4754" y="-414.4" font-family="Arial" font-size="14.00" fill="#666666">[varchar(5)]</text>
<text text-anchor="start" x="487.0294" y="-414.4" font-family="Arial" font-size="14.00" fill="#000000"> 言語</text>
<polygon fill="none" stroke="#000000" points="347,-373 347,-403 829,-403 829,-373 347,-373"/>
<text text-anchor="start" x="354" y="-384.4" font-family="Arial" font-size="14.00" fill="#000000">auth_source_id </text>
<text text-anchor="start" x="453.5918" y="-384.4" font-family="Arial" font-size="14.00" fill="#666666">[int(11)]</text>
<polygon fill="none" stroke="#000000" points="347,-343 347,-373 829,-373 829,-343 347,-343"/>
<text text-anchor="start" x="354" y="-354.4" font-family="Arial" font-size="14.00" fill="#000000">created_on </text>
<text text-anchor="start" x="427.92" y="-354.4" font-family="Arial" font-size="14.00" fill="#666666">[timestamp]</text>
<polygon fill="none" stroke="#000000" points="347,-313 347,-343 829,-343 829,-313 347,-313"/>
<text text-anchor="start" x="354" y="-324.4" font-family="Arial" font-size="14.00" fill="#000000">updated_on </text>
<text text-anchor="start" x="431.8246" y="-324.4" font-family="Arial" font-size="14.00" fill="#666666">[timestamp]</text>
<polygon fill="none" stroke="#000000" points="347,-283 347,-313 829,-313 829,-283 347,-283"/>
<text text-anchor="start" x="354" y="-294.4" font-family="Arial" font-size="14.00" fill="#000000">type </text>
<text text-anchor="start" x="384.3464" y="-294.4" font-family="Arial" font-size="14.00" fill="#666666">[varchar(255)]</text>
<text text-anchor="start" x="471.4656" y="-294.4" font-family="Arial" font-size="14.00" fill="#000000"> User:ユーザー Group:グループ </text>
<polygon fill="none" stroke="#000000" points="347,-253 347,-283 829,-283 829,-253 347,-253"/>
<text text-anchor="start" x="354" y="-264.4" font-family="Arial" font-size="14.00" fill="#000000">mail_notification </text>
<text text-anchor="start" x="458.2342" y="-264.4" font-family="Arial" font-size="14.00" fill="#666666">[varchar(255)]</text>
<text text-anchor="start" x="545.3534" y="-264.4" font-family="Arial" font-size="14.00" fill="#000000"> メール通知</text>
<polygon fill="none" stroke="#000000" points="347,-223 347,-253 829,-253 829,-223 347,-223"/>
<text text-anchor="start" x="354" y="-234.4" font-family="Arial" font-size="14.00" fill="#000000">salt </text>
<text text-anchor="start" x="379.6704" y="-234.4" font-family="Arial" font-size="14.00" fill="#666666">[varchar(64)]</text>
<polygon fill="none" stroke="#000000" points="347,-193 347,-223 829,-223 829,-193 347,-193"/>
<text text-anchor="start" x="353.7646" y="-204.4" font-family="Arial" font-size="14.00" fill="#000000">must_change_passwd </text>
<text text-anchor="start" x="496.9216" y="-204.4" font-family="Arial" font-size="14.00" fill="#666666">[tinyint(1)]</text>
<text text-anchor="start" x="558.3662" y="-204.4" font-family="Arial" font-size="14.00" fill="#000000"> 次回ログイン時にパスワード変更を強制</text>
<polygon fill="none" stroke="#000000" points="347,-163 347,-193 829,-193 829,-163 347,-163"/>
<text text-anchor="start" x="354" y="-174.4" font-family="Arial" font-size="14.00" fill="#000000">passwd_changed_on </text>
<text text-anchor="start" x="490.171" y="-174.4" font-family="Arial" font-size="14.00" fill="#666666">[datetime]</text>
<polygon fill="none" stroke="#000000" points="347,-133 347,-163 829,-163 829,-133 347,-133"/>
<text text-anchor="start" x="354" y="-144.4" font-family="Arial" font-size="14.00" fill="#000000">twofa_scheme </text>
<text text-anchor="start" x="448.1346" y="-144.4" font-family="Arial" font-size="14.00" fill="#666666">[varchar(255)]</text>
<polygon fill="none" stroke="#000000" points="347,-103 347,-133 829,-133 829,-103 347,-103"/>
<text text-anchor="start" x="354" y="-114.4" font-family="Arial" font-size="14.00" fill="#000000">twofa_totp_key </text>
<text text-anchor="start" x="452.0378" y="-114.4" font-family="Arial" font-size="14.00" fill="#666666">[varchar(255)]</text>
<polygon fill="none" stroke="#000000" points="347,-73 347,-103 829,-103 829,-73 347,-73"/>
<text text-anchor="start" x="354" y="-84.4" font-family="Arial" font-size="14.00" fill="#000000">twofa_totp_last_used_at </text>
<text text-anchor="start" x="509.6212" y="-84.4" font-family="Arial" font-size="14.00" fill="#666666">[int(11)]</text>
<polygon fill="none" stroke="#000000" points="347,-43 347,-73 829,-73 829,-43 347,-43"/>
<text text-anchor="start" x="354" y="-54.4" font-family="Arial" font-size="14.00" fill="#000000">twofa_required </text>
<text text-anchor="start" x="450.467" y="-54.4" font-family="Arial" font-size="14.00" fill="#666666">[tinyint(1)]</text>
</g>
<!-- wiki_contents&#45;&gt;users -->
<g id="edge3" class="edge">
<title>wiki_contents:author_id&#45;&gt;users:id</title>
<path fill="none" stroke="#000000" stroke-dasharray="5,2" d="M484.1695,-978.3081C551.5419,-968.61 520.3309,-859.2895 474,-798 438.6215,-751.199 382.3785,-808.801 347,-762 319.1268,-725.1275 300.7778,-658 347,-658"/>
<polygon fill="#000000" stroke="#000000" points="483.9769,-978.3211 473.6945,-974.5104 478.9885,-978.6606 474,-979 474,-979 474,-979 478.9885,-978.6606 474.3055,-983.4896 483.9769,-978.3211 483.9769,-978.3211"/>
<text text-anchor="start" x="481.3245" y="-989" font-family="Arial" font-size="10.00" fill="#000000">Additional Relation</text>
</g>
<!-- wiki_content_versions -->
<g id="node2" class="node">
<title>wiki_content_versions</title>
<polygon fill="#efefef" stroke="transparent" points="221,-1495 221,-1541 508,-1541 508,-1495 221,-1495"/>
<polygon fill="none" stroke="#000000" points="221,-1495 221,-1541 508,-1541 508,-1495 221,-1495"/>
<text text-anchor="start" x="227.8585" y="-1518.8" font-family="Arial Bold" font-size="18.00" fill="#000000">wiki_content_versions</text>
<text text-anchor="start" x="403.8877" y="-1518.8" font-family="Arial" font-size="14.00" fill="#000000"> </text>
<text text-anchor="start" x="407.7783" y="-1518.8" font-family="Arial" font-size="14.00" fill="#666666">[BASE TABLE]</text>
<text text-anchor="start" x="272.0944" y="-1504.4" font-family="Arial" font-size="14.00" fill="#333333">Wikiコンテンツバージョン</text>
<polygon fill="none" stroke="#000000" points="221,-1465 221,-1495 508,-1495 508,-1465 221,-1465"/>
<text text-anchor="start" x="228" y="-1476.4" font-family="Arial" font-size="14.00" fill="#000000">id </text>
<text text-anchor="start" x="242.7798" y="-1476.4" font-family="Arial" font-size="14.00" fill="#666666">[int(11)]</text>
<polygon fill="none" stroke="#000000" points="221,-1435 221,-1465 508,-1465 508,-1435 221,-1435"/>
<text text-anchor="start" x="228" y="-1446.4" font-family="Arial" font-size="14.00" fill="#000000">wiki_content_id </text>
<text text-anchor="start" x="327.5764" y="-1446.4" font-family="Arial" font-size="14.00" fill="#666666">[int(11)]</text>
<polygon fill="none" stroke="#000000" points="221,-1405 221,-1435 508,-1435 508,-1405 221,-1405"/>
<text text-anchor="start" x="228" y="-1416.4" font-family="Arial" font-size="14.00" fill="#000000">page_id </text>
<text text-anchor="start" x="281.6928" y="-1416.4" font-family="Arial" font-size="14.00" fill="#666666">[int(11)]</text>
<polygon fill="none" stroke="#000000" points="221,-1375 221,-1405 508,-1405 508,-1375 221,-1375"/>
<text text-anchor="start" x="228" y="-1386.4" font-family="Arial" font-size="14.00" fill="#000000">author_id </text>
<text text-anchor="start" x="290.244" y="-1386.4" font-family="Arial" font-size="14.00" fill="#666666">[int(11)]</text>
<polygon fill="none" stroke="#000000" points="221,-1345 221,-1375 508,-1375 508,-1345 221,-1345"/>
<text text-anchor="start" x="228" y="-1356.4" font-family="Arial" font-size="14.00" fill="#000000">data </text>
<text text-anchor="start" x="259.129" y="-1356.4" font-family="Arial" font-size="14.00" fill="#666666">[longblob]</text>
<polygon fill="none" stroke="#000000" points="221,-1315 221,-1345 508,-1345 508,-1315 221,-1315"/>
<text text-anchor="start" x="228" y="-1326.4" font-family="Arial" font-size="14.00" fill="#000000">compression </text>
<text text-anchor="start" x="311.2314" y="-1326.4" font-family="Arial" font-size="14.00" fill="#666666">[varchar(6)]</text>
<polygon fill="none" stroke="#000000" points="221,-1285 221,-1315 508,-1315 508,-1285 221,-1285"/>
<text text-anchor="start" x="228" y="-1296.4" font-family="Arial" font-size="14.00" fill="#000000">comments </text>
<text text-anchor="start" x="296.4502" y="-1296.4" font-family="Arial" font-size="14.00" fill="#666666">[varchar(1024)]</text>
<polygon fill="none" stroke="#000000" points="221,-1255 221,-1285 508,-1285 508,-1255 221,-1255"/>
<text text-anchor="start" x="228" y="-1266.4" font-family="Arial" font-size="14.00" fill="#000000">updated_on </text>
<text text-anchor="start" x="305.8246" y="-1266.4" font-family="Arial" font-size="14.00" fill="#666666">[datetime]</text>
<polygon fill="none" stroke="#000000" points="221,-1225 221,-1255 508,-1255 508,-1225 221,-1225"/>
<text text-anchor="start" x="228" y="-1236.4" font-family="Arial" font-size="14.00" fill="#000000">version </text>
<text text-anchor="start" x="277.0056" y="-1236.4" font-family="Arial" font-size="14.00" fill="#666666">[int(11)]</text>
</g>
<!-- wiki_content_versions&#45;&gt;wiki_contents -->
<g id="edge1" class="edge">
<title>wiki_content_versions:wiki_content_id&#45;&gt;wiki_contents:id</title>
<path fill="none" stroke="#000000" stroke-dasharray="5,2" d="M210.7647,-1449.5585C39.0584,-1434.4957 75.1998,-1039 255,-1039"/>
<polygon fill="#000000" stroke="#000000" points="211.0093,-1449.569 220.8061,-1454.4958 216.0046,-1449.7845 221,-1450 221,-1450 221,-1450 216.0046,-1449.7845 221.1939,-1445.5042 211.0093,-1449.569 211.0093,-1449.569"/>
<text text-anchor="start" x="131.3245" y="-1460" font-family="Arial" font-size="10.00" fill="#000000">Additional Relation</text>
</g>
</g>
</svg>
