<?xml version="1.0" encoding="UTF-8" standalone="no"?>
<!DOCTYPE svg PUBLIC "-//W3C//DTD SVG 1.1//EN"
 "http://www.w3.org/Graphics/SVG/1.1/DTD/svg11.dtd">
<!-- Generated by graphviz version 2.40.1 (20161225.0304)
 -->
<!-- Title: wiki_content_versions Pages: 1 -->
<svg width="1204pt" height="1203pt"
 viewBox="0.00 0.00 1203.50 1203.00" xmlns="http://www.w3.org/2000/svg" xmlns:xlink="http://www.w3.org/1999/xlink">
<g id="graph0" class="graph" transform="scale(1 1) rotate(0) translate(4 1199)">
<title>wiki_content_versions</title>
<polygon fill="#ffffff" stroke="transparent" points="-4,4 -4,-1199 1199.5,-1199 1199.5,4 -4,4"/>
<!-- wiki_content_versions -->
<g id="node1" class="node">
<title>wiki_content_versions</title>
<polygon fill="#efefef" stroke="transparent" points="322.5,-1113.5 322.5,-1148.5 609.5,-1148.5 609.5,-1113.5 322.5,-1113.5"/>
<polygon fill="none" stroke="#000000" points="322.5,-1113.5 322.5,-1148.5 609.5,-1148.5 609.5,-1113.5 322.5,-1113.5"/>
<text text-anchor="start" x="329.3585" y="-1126.3" font-family="Arial Bold" font-size="18.00" fill="#000000">wiki_content_versions</text>
<text text-anchor="start" x="505.3877" y="-1126.3" font-family="Arial" font-size="14.00" fill="#000000"> </text>
<text text-anchor="start" x="509.2783" y="-1126.3" font-family="Arial" font-size="14.00" fill="#666666">[BASE TABLE]</text>
<polygon fill="none" stroke="#000000" points="322.5,-1083.5 322.5,-1113.5 609.5,-1113.5 609.5,-1083.5 322.5,-1083.5"/>
<text text-anchor="start" x="329.5" y="-1094.9" font-family="Arial" font-size="14.00" fill="#000000">id </text>
<text text-anchor="start" x="344.2798" y="-1094.9" font-family="Arial" font-size="14.00" fill="#666666">[int(11)]</text>
<polygon fill="none" stroke="#000000" points="322.5,-1053.5 322.5,-1083.5 609.5,-1083.5 609.5,-1053.5 322.5,-1053.5"/>
<text text-anchor="start" x="329.5" y="-1064.9" font-family="Arial" font-size="14.00" fill="#000000">wiki_content_id </text>
<text text-anchor="start" x="429.0764" y="-1064.9" font-family="Arial" font-size="14.00" fill="#666666">[int(11)]</text>
<polygon fill="none" stroke="#000000" points="322.5,-1023.5 322.5,-1053.5 609.5,-1053.5 609.5,-1023.5 322.5,-1023.5"/>
<text text-anchor="start" x="329.5" y="-1034.9" font-family="Arial" font-size="14.00" fill="#000000">page_id </text>
<text text-anchor="start" x="383.1928" y="-1034.9" font-family="Arial" font-size="14.00" fill="#666666">[int(11)]</text>
<polygon fill="none" stroke="#000000" points="322.5,-993.5 322.5,-1023.5 609.5,-1023.5 609.5,-993.5 322.5,-993.5"/>
<text text-anchor="start" x="329.5" y="-1004.9" font-family="Arial" font-size="14.00" fill="#000000">author_id </text>
<text text-anchor="start" x="391.744" y="-1004.9" font-family="Arial" font-size="14.00" fill="#666666">[int(11)]</text>
<polygon fill="none" stroke="#000000" points="322.5,-963.5 322.5,-993.5 609.5,-993.5 609.5,-963.5 322.5,-963.5"/>
<text text-anchor="start" x="329.5" y="-974.9" font-family="Arial" font-size="14.00" fill="#000000">data </text>
<text text-anchor="start" x="360.629" y="-974.9" font-family="Arial" font-size="14.00" fill="#666666">[longblob]</text>
<polygon fill="none" stroke="#000000" points="322.5,-933.5 322.5,-963.5 609.5,-963.5 609.5,-933.5 322.5,-933.5"/>
<text text-anchor="start" x="329.5" y="-944.9" font-family="Arial" font-size="14.00" fill="#000000">compression </text>
<text text-anchor="start" x="412.7314" y="-944.9" font-family="Arial" font-size="14.00" fill="#666666">[varchar(6)]</text>
<polygon fill="none" stroke="#000000" points="322.5,-903.5 322.5,-933.5 609.5,-933.5 609.5,-903.5 322.5,-903.5"/>
<text text-anchor="start" x="329.5" y="-914.9" font-family="Arial" font-size="14.00" fill="#000000">comments </text>
<text text-anchor="start" x="397.9502" y="-914.9" font-family="Arial" font-size="14.00" fill="#666666">[varchar(1024)]</text>
<polygon fill="none" stroke="#000000" points="322.5,-873.5 322.5,-903.5 609.5,-903.5 609.5,-873.5 322.5,-873.5"/>
<text text-anchor="start" x="329.5" y="-884.9" font-family="Arial" font-size="14.00" fill="#000000">updated_on </text>
<text text-anchor="start" x="407.3246" y="-884.9" font-family="Arial" font-size="14.00" fill="#666666">[datetime]</text>
<polygon fill="none" stroke="#000000" points="322.5,-843.5 322.5,-873.5 609.5,-873.5 609.5,-843.5 322.5,-843.5"/>
<text text-anchor="start" x="329.5" y="-854.9" font-family="Arial" font-size="14.00" fill="#000000">version </text>
<text text-anchor="start" x="378.5056" y="-854.9" font-family="Arial" font-size="14.00" fill="#666666">[int(11)]</text>
<polygon fill="none" stroke="#000000" stroke-width="3" points="320.5,-842.5 320.5,-1150.5 610.5,-1150.5 610.5,-842.5 320.5,-842.5"/>
</g>
<!-- wiki_contents -->
<g id="node2" class="node">
<title>wiki_contents</title>
<polygon fill="#efefef" stroke="transparent" points="43.5,-468 43.5,-503 262.5,-503 262.5,-468 43.5,-468"/>
<polygon fill="none" stroke="#000000" points="43.5,-468 43.5,-503 262.5,-503 262.5,-468 43.5,-468"/>
<text text-anchor="start" x="50.3641" y="-480.8" font-family="Arial Bold" font-size="18.00" fill="#000000">wiki_contents</text>
<text text-anchor="start" x="158.3821" y="-480.8" font-family="Arial" font-size="14.00" fill="#000000"> </text>
<text text-anchor="start" x="162.2727" y="-480.8" font-family="Arial" font-size="14.00" fill="#666666">[BASE TABLE]</text>
<polygon fill="none" stroke="#000000" points="43.5,-438 43.5,-468 262.5,-468 262.5,-438 43.5,-438"/>
<text text-anchor="start" x="50.5" y="-449.4" font-family="Arial" font-size="14.00" fill="#000000">id </text>
<text text-anchor="start" x="65.2798" y="-449.4" font-family="Arial" font-size="14.00" fill="#666666">[int(11)]</text>
<polygon fill="none" stroke="#000000" points="43.5,-408 43.5,-438 262.5,-438 262.5,-408 43.5,-408"/>
<text text-anchor="start" x="50.5" y="-419.4" font-family="Arial" font-size="14.00" fill="#000000">page_id </text>
<text text-anchor="start" x="104.1928" y="-419.4" font-family="Arial" font-size="14.00" fill="#666666">[int(11)]</text>
<polygon fill="none" stroke="#000000" points="43.5,-378 43.5,-408 262.5,-408 262.5,-378 43.5,-378"/>
<text text-anchor="start" x="50.5" y="-389.4" font-family="Arial" font-size="14.00" fill="#000000">author_id </text>
<text text-anchor="start" x="112.744" y="-389.4" font-family="Arial" font-size="14.00" fill="#666666">[int(11)]</text>
<polygon fill="none" stroke="#000000" points="43.5,-348 43.5,-378 262.5,-378 262.5,-348 43.5,-348"/>
<text text-anchor="start" x="50.5" y="-359.4" font-family="Arial" font-size="14.00" fill="#000000">text </text>
<text text-anchor="start" x="76.9544" y="-359.4" font-family="Arial" font-size="14.00" fill="#666666">[longtext]</text>
<polygon fill="none" stroke="#000000" points="43.5,-318 43.5,-348 262.5,-348 262.5,-318 43.5,-318"/>
<text text-anchor="start" x="50.5" y="-329.4" font-family="Arial" font-size="14.00" fill="#000000">comments </text>
<text text-anchor="start" x="118.9502" y="-329.4" font-family="Arial" font-size="14.00" fill="#666666">[varchar(1024)]</text>
<polygon fill="none" stroke="#000000" points="43.5,-288 43.5,-318 262.5,-318 262.5,-288 43.5,-288"/>
<text text-anchor="start" x="50.5" y="-299.4" font-family="Arial" font-size="14.00" fill="#000000">updated_on </text>
<text text-anchor="start" x="128.3246" y="-299.4" font-family="Arial" font-size="14.00" fill="#666666">[datetime]</text>
<polygon fill="none" stroke="#000000" points="43.5,-258 43.5,-288 262.5,-288 262.5,-258 43.5,-258"/>
<text text-anchor="start" x="50.5" y="-269.4" font-family="Arial" font-size="14.00" fill="#000000">version </text>
<text text-anchor="start" x="99.5056" y="-269.4" font-family="Arial" font-size="14.00" fill="#666666">[int(11)]</text>
</g>
<!-- wiki_content_versions&#45;&gt;wiki_contents -->
<g id="edge1" class="edge">
<title>wiki_content_versions:wiki_content_id&#45;&gt;wiki_contents:id</title>
<path fill="none" stroke="#000000" stroke-dasharray="5,2" d="M312.3512,-1067.2388C196.1591,-1036.4699 396.3026,-453 262.5,-453"/>
<polygon fill="#000000" stroke="#000000" points="312.5763,-1067.2667 321.945,-1072.9657 317.5382,-1067.8834 322.5,-1068.5 322.5,-1068.5 322.5,-1068.5 317.5382,-1067.8834 323.055,-1064.0343 312.5763,-1067.2667 312.5763,-1067.2667"/>
<text text-anchor="start" x="232.8245" y="-1078.5" font-family="Arial" font-size="10.00" fill="#000000">Additional Relation</text>
</g>
<!-- wiki_pages -->
<g id="node3" class="node">
<title>wiki_pages</title>
<polygon fill="#efefef" stroke="transparent" points="366.5,-448 366.5,-494 566.5,-494 566.5,-448 366.5,-448"/>
<polygon fill="none" stroke="#000000" points="366.5,-448 366.5,-494 566.5,-494 566.5,-448 366.5,-448"/>
<text text-anchor="start" x="373.3663" y="-471.8" font-family="Arial Bold" font-size="18.00" fill="#000000">wiki_pages</text>
<text text-anchor="start" x="462.3799" y="-471.8" font-family="Arial" font-size="14.00" fill="#000000"> </text>
<text text-anchor="start" x="466.2705" y="-471.8" font-family="Arial" font-size="14.00" fill="#666666">[BASE TABLE]</text>
<text text-anchor="start" x="429.1837" y="-457.4" font-family="Arial" font-size="14.00" fill="#333333">Wikiページ</text>
<polygon fill="none" stroke="#000000" points="366.5,-418 366.5,-448 566.5,-448 566.5,-418 366.5,-418"/>
<text text-anchor="start" x="373.5" y="-429.4" font-family="Arial" font-size="14.00" fill="#000000">id </text>
<text text-anchor="start" x="388.2798" y="-429.4" font-family="Arial" font-size="14.00" fill="#666666">[int(11)]</text>
<polygon fill="none" stroke="#000000" points="366.5,-388 366.5,-418 566.5,-418 566.5,-388 366.5,-388"/>
<text text-anchor="start" x="373.5" y="-399.4" font-family="Arial" font-size="14.00" fill="#000000">wiki_id </text>
<text text-anchor="start" x="419.3822" y="-399.4" font-family="Arial" font-size="14.00" fill="#666666">[int(11)]</text>
<polygon fill="none" stroke="#000000" points="366.5,-358 366.5,-388 566.5,-388 566.5,-358 366.5,-358"/>
<text text-anchor="start" x="373.5" y="-369.4" font-family="Arial" font-size="14.00" fill="#000000">title </text>
<text text-anchor="start" x="399.1676" y="-369.4" font-family="Arial" font-size="14.00" fill="#666666">[varchar(255)]</text>
<polygon fill="none" stroke="#000000" points="366.5,-328 366.5,-358 566.5,-358 566.5,-328 366.5,-328"/>
<text text-anchor="start" x="373.5" y="-339.4" font-family="Arial" font-size="14.00" fill="#000000">created_on </text>
<text text-anchor="start" x="447.42" y="-339.4" font-family="Arial" font-size="14.00" fill="#666666">[datetime]</text>
<polygon fill="none" stroke="#000000" points="366.5,-298 366.5,-328 566.5,-328 566.5,-298 366.5,-298"/>
<text text-anchor="start" x="373.5" y="-309.4" font-family="Arial" font-size="14.00" fill="#000000">protected </text>
<text text-anchor="start" x="435.7454" y="-309.4" font-family="Arial" font-size="14.00" fill="#666666">[tinyint(1)]</text>
<polygon fill="none" stroke="#000000" points="366.5,-268 366.5,-298 566.5,-298 566.5,-268 366.5,-268"/>
<text text-anchor="start" x="373.5" y="-279.4" font-family="Arial" font-size="14.00" fill="#000000">parent_id </text>
<text text-anchor="start" x="435.744" y="-279.4" font-family="Arial" font-size="14.00" fill="#666666">[int(11)]</text>
</g>
<!-- wiki_content_versions&#45;&gt;wiki_pages -->
<g id="edge2" class="edge">
<title>wiki_content_versions:page_id&#45;&gt;wiki_pages:id</title>
<path fill="none" stroke="#000000" stroke-dasharray="5,2" d="M619.577,-1038.0402C711.9212,-1029.1803 647.3361,-894.1642 609.5,-798 551.4706,-650.5124 424.5294,-684.4876 366.5,-537 349.5765,-493.9873 320.2778,-433 366.5,-433"/>
<polygon fill="#000000" stroke="#000000" points="619.4896,-1038.0441 609.2949,-1034.0047 614.4948,-1038.2721 609.5,-1038.5 609.5,-1038.5 609.5,-1038.5 614.4948,-1038.2721 609.7051,-1042.9953 619.4896,-1038.0441 619.4896,-1038.0441"/>
<text text-anchor="start" x="616.8245" y="-1048.5" font-family="Arial" font-size="10.00" fill="#000000">Additional Relation</text>
</g>
<!-- users -->
<g id="node4" class="node">
<title>users</title>
<polygon fill="#efefef" stroke="transparent" points="670.5,-673 670.5,-719 1152.5,-719 1152.5,-673 670.5,-673"/>
<polygon fill="none" stroke="#000000" points="670.5,-673 670.5,-719 1152.5,-719 1152.5,-673 670.5,-673"/>
<text text-anchor="start" x="840.8708" y="-696.8" font-family="Arial Bold" font-size="18.00" fill="#000000">users</text>
<text text-anchor="start" x="884.8754" y="-696.8" font-family="Arial" font-size="14.00" fill="#000000"> </text>
<text text-anchor="start" x="888.766" y="-696.8" font-family="Arial" font-size="14.00" fill="#666666">[BASE TABLE]</text>
<text text-anchor="start" x="832.9558" y="-682.4" font-family="Arial" font-size="14.00" fill="#333333">ユーザー / グループ</text>
<polygon fill="none" stroke="#000000" points="670.5,-643 670.5,-673 1152.5,-673 1152.5,-643 670.5,-643"/>
<text text-anchor="start" x="677.5" y="-654.4" font-family="Arial" font-size="14.00" fill="#000000">id </text>
<text text-anchor="start" x="692.2798" y="-654.4" font-family="Arial" font-size="14.00" fill="#666666">[int(11)]</text>
<polygon fill="none" stroke="#000000" points="670.5,-613 670.5,-643 1152.5,-643 1152.5,-613 670.5,-613"/>
<text text-anchor="start" x="677.5" y="-624.4" font-family="Arial" font-size="14.00" fill="#000000">login </text>
<text text-anchor="start" x="710.9516" y="-624.4" font-family="Arial" font-size="14.00" fill="#666666">[varchar(255)]</text>
<text text-anchor="start" x="798.0708" y="-624.4" font-family="Arial" font-size="14.00" fill="#000000"> ログインID</text>
<polygon fill="none" stroke="#000000" points="670.5,-583 670.5,-613 1152.5,-613 1152.5,-583 670.5,-583"/>
<text text-anchor="start" x="677.5" y="-594.4" font-family="Arial" font-size="14.00" fill="#000000">hashed_password </text>
<text text-anchor="start" x="794.9838" y="-594.4" font-family="Arial" font-size="14.00" fill="#666666">[varchar(40)]</text>
<text text-anchor="start" x="874.3204" y="-594.4" font-family="Arial" font-size="14.00" fill="#000000"> パスワード(ハッシュ化済み)</text>
<polygon fill="none" stroke="#000000" points="670.5,-553 670.5,-583 1152.5,-583 1152.5,-553 670.5,-553"/>
<text text-anchor="start" x="677.5" y="-564.4" font-family="Arial" font-size="14.00" fill="#000000">firstname </text>
<text text-anchor="start" x="738.9474" y="-564.4" font-family="Arial" font-size="14.00" fill="#666666">[varchar(30)]</text>
<text text-anchor="start" x="818.284" y="-564.4" font-family="Arial" font-size="14.00" fill="#000000"> 名</text>
<polygon fill="none" stroke="#000000" points="670.5,-523 670.5,-553 1152.5,-553 1152.5,-523 670.5,-523"/>
<text text-anchor="start" x="677.5" y="-534.4" font-family="Arial" font-size="14.00" fill="#000000">lastname </text>
<text text-anchor="start" x="738.1788" y="-534.4" font-family="Arial" font-size="14.00" fill="#666666">[varchar(255)]</text>
<text text-anchor="start" x="825.298" y="-534.4" font-family="Arial" font-size="14.00" fill="#000000"> 姓</text>
<polygon fill="none" stroke="#000000" points="670.5,-493 670.5,-523 1152.5,-523 1152.5,-493 670.5,-493"/>
<text text-anchor="start" x="677.5" y="-504.4" font-family="Arial" font-size="14.00" fill="#000000">admin </text>
<text text-anchor="start" x="719.5056" y="-504.4" font-family="Arial" font-size="14.00" fill="#666666">[tinyint(1)]</text>
<text text-anchor="start" x="780.9502" y="-504.4" font-family="Arial" font-size="14.00" fill="#000000"> システム管理者</text>
<polygon fill="none" stroke="#000000" points="670.5,-463 670.5,-493 1152.5,-493 1152.5,-463 670.5,-463"/>
<text text-anchor="start" x="677.5" y="-474.4" font-family="Arial" font-size="14.00" fill="#000000">status </text>
<text text-anchor="start" x="718.737" y="-474.4" font-family="Arial" font-size="14.00" fill="#666666">[int(11)]</text>
<polygon fill="none" stroke="#000000" points="670.5,-433 670.5,-463 1152.5,-463 1152.5,-433 670.5,-433"/>
<text text-anchor="start" x="677.5" y="-444.4" font-family="Arial" font-size="14.00" fill="#000000">last_login_on </text>
<text text-anchor="start" x="763.8618" y="-444.4" font-family="Arial" font-size="14.00" fill="#666666">[datetime]</text>
<polygon fill="none" stroke="#000000" points="670.5,-403 670.5,-433 1152.5,-433 1152.5,-403 670.5,-403"/>
<text text-anchor="start" x="677.5" y="-414.4" font-family="Arial" font-size="14.00" fill="#000000">language </text>
<text text-anchor="start" x="738.9754" y="-414.4" font-family="Arial" font-size="14.00" fill="#666666">[varchar(5)]</text>
<text text-anchor="start" x="810.5294" y="-414.4" font-family="Arial" font-size="14.00" fill="#000000"> 言語</text>
<polygon fill="none" stroke="#000000" points="670.5,-373 670.5,-403 1152.5,-403 1152.5,-373 670.5,-373"/>
<text text-anchor="start" x="677.5" y="-384.4" font-family="Arial" font-size="14.00" fill="#000000">auth_source_id </text>
<text text-anchor="start" x="777.0918" y="-384.4" font-family="Arial" font-size="14.00" fill="#666666">[int(11)]</text>
<polygon fill="none" stroke="#000000" points="670.5,-343 670.5,-373 1152.5,-373 1152.5,-343 670.5,-343"/>
<text text-anchor="start" x="677.5" y="-354.4" font-family="Arial" font-size="14.00" fill="#000000">created_on </text>
<text text-anchor="start" x="751.42" y="-354.4" font-family="Arial" font-size="14.00" fill="#666666">[timestamp]</text>
<polygon fill="none" stroke="#000000" points="670.5,-313 670.5,-343 1152.5,-343 1152.5,-313 670.5,-313"/>
<text text-anchor="start" x="677.5" y="-324.4" font-family="Arial" font-size="14.00" fill="#000000">updated_on </text>
<text text-anchor="start" x="755.3246" y="-324.4" font-family="Arial" font-size="14.00" fill="#666666">[timestamp]</text>
<polygon fill="none" stroke="#000000" points="670.5,-283 670.5,-313 1152.5,-313 1152.5,-283 670.5,-283"/>
<text text-anchor="start" x="677.5" y="-294.4" font-family="Arial" font-size="14.00" fill="#000000">type </text>
<text text-anchor="start" x="707.8464" y="-294.4" font-family="Arial" font-size="14.00" fill="#666666">[varchar(255)]</text>
<text text-anchor="start" x="794.9656" y="-294.4" font-family="Arial" font-size="14.00" fill="#000000"> User:ユーザー Group:グループ </text>
<polygon fill="none" stroke="#000000" points="670.5,-253 670.5,-283 1152.5,-283 1152.5,-253 670.5,-253"/>
<text text-anchor="start" x="677.5" y="-264.4" font-family="Arial" font-size="14.00" fill="#000000">mail_notification </text>
<text text-anchor="start" x="781.7342" y="-264.4" font-family="Arial" font-size="14.00" fill="#666666">[varchar(255)]</text>
<text text-anchor="start" x="868.8534" y="-264.4" font-family="Arial" font-size="14.00" fill="#000000"> メール通知</text>
<polygon fill="none" stroke="#000000" points="670.5,-223 670.5,-253 1152.5,-253 1152.5,-223 670.5,-223"/>
<text text-anchor="start" x="677.5" y="-234.4" font-family="Arial" font-size="14.00" fill="#000000">salt </text>
<text text-anchor="start" x="703.1704" y="-234.4" font-family="Arial" font-size="14.00" fill="#666666">[varchar(64)]</text>
<polygon fill="none" stroke="#000000" points="670.5,-193 670.5,-223 1152.5,-223 1152.5,-193 670.5,-193"/>
<text text-anchor="start" x="677.2646" y="-204.4" font-family="Arial" font-size="14.00" fill="#000000">must_change_passwd </text>
<text text-anchor="start" x="820.4216" y="-204.4" font-family="Arial" font-size="14.00" fill="#666666">[tinyint(1)]</text>
<text text-anchor="start" x="881.8662" y="-204.4" font-family="Arial" font-size="14.00" fill="#000000"> 次回ログイン時にパスワード変更を強制</text>
<polygon fill="none" stroke="#000000" points="670.5,-163 670.5,-193 1152.5,-193 1152.5,-163 670.5,-163"/>
<text text-anchor="start" x="677.5" y="-174.4" font-family="Arial" font-size="14.00" fill="#000000">passwd_changed_on </text>
<text text-anchor="start" x="813.671" y="-174.4" font-family="Arial" font-size="14.00" fill="#666666">[datetime]</text>
<polygon fill="none" stroke="#000000" points="670.5,-133 670.5,-163 1152.5,-163 1152.5,-133 670.5,-133"/>
<text text-anchor="start" x="677.5" y="-144.4" font-family="Arial" font-size="14.00" fill="#000000">twofa_scheme </text>
<text text-anchor="start" x="771.6346" y="-144.4" font-family="Arial" font-size="14.00" fill="#666666">[varchar(255)]</text>
<polygon fill="none" stroke="#000000" points="670.5,-103 670.5,-133 1152.5,-133 1152.5,-103 670.5,-103"/>
<text text-anchor="start" x="677.5" y="-114.4" font-family="Arial" font-size="14.00" fill="#000000">twofa_totp_key </text>
<text text-anchor="start" x="775.5378" y="-114.4" font-family="Arial" font-size="14.00" fill="#666666">[varchar(255)]</text>
<polygon fill="none" stroke="#000000" points="670.5,-73 670.5,-103 1152.5,-103 1152.5,-73 670.5,-73"/>
<text text-anchor="start" x="677.5" y="-84.4" font-family="Arial" font-size="14.00" fill="#000000">twofa_totp_last_used_at </text>
<text text-anchor="start" x="833.1212" y="-84.4" font-family="Arial" font-size="14.00" fill="#666666">[int(11)]</text>
<polygon fill="none" stroke="#000000" points="670.5,-43 670.5,-73 1152.5,-73 1152.5,-43 670.5,-43"/>
<text text-anchor="start" x="677.5" y="-54.4" font-family="Arial" font-size="14.00" fill="#000000">twofa_required </text>
<text text-anchor="start" x="773.967" y="-54.4" font-family="Arial" font-size="14.00" fill="#666666">[tinyint(1)]</text>
</g>
<!-- wiki_content_versions&#45;&gt;users -->
<g id="edge3" class="edge">
<title>wiki_content_versions:author_id&#45;&gt;users:id</title>
<path fill="none" stroke="#000000" stroke-dasharray="5,2" d="M619.4927,-1006.2618C679.8418,-976.4108 595.1462,-658 670.5,-658"/>
<polygon fill="#000000" stroke="#000000" points="619.2582,-1006.3142 608.5164,-1004.1088 614.3791,-1007.4071 609.5,-1008.5 609.5,-1008.5 609.5,-1008.5 614.3791,-1007.4071 610.4836,-1012.8912 619.2582,-1006.3142 619.2582,-1006.3142"/>
<text text-anchor="start" x="616.8245" y="-1018.5" font-family="Arial" font-size="10.00" fill="#000000">Additional Relation</text>
</g>
</g>
</svg>
