<?xml version="1.0" encoding="UTF-8" standalone="no"?>
<!DOCTYPE svg PUBLIC "-//W3C//DTD SVG 1.1//EN"
 "http://www.w3.org/Graphics/SVG/1.1/DTD/svg11.dtd">
<!-- Generated by graphviz version 2.40.1 (20161225.0304)
 -->
<!-- Title: wiki_pages Pages: 1 -->
<svg width="704pt" height="1052pt"
 viewBox="0.00 0.00 704.00 1052.00" xmlns="http://www.w3.org/2000/svg" xmlns:xlink="http://www.w3.org/1999/xlink">
<g id="graph0" class="graph" transform="scale(1 1) rotate(0) translate(4 1048)">
<title>wiki_pages</title>
<polygon fill="#ffffff" stroke="transparent" points="-4,4 -4,-1048 700,-1048 700,4 -4,4"/>
<!-- wiki_pages -->
<g id="node1" class="node">
<title>wiki_pages</title>
<polygon fill="#efefef" stroke="transparent" points="231.5,-514 231.5,-560 431.5,-560 431.5,-514 231.5,-514"/>
<polygon fill="none" stroke="#000000" points="231.5,-514 231.5,-560 431.5,-560 431.5,-514 231.5,-514"/>
<text text-anchor="start" x="238.3663" y="-537.8" font-family="Arial Bold" font-size="18.00" fill="#000000">wiki_pages</text>
<text text-anchor="start" x="327.3799" y="-537.8" font-family="Arial" font-size="14.00" fill="#000000"> </text>
<text text-anchor="start" x="331.2705" y="-537.8" font-family="Arial" font-size="14.00" fill="#666666">[BASE TABLE]</text>
<text text-anchor="start" x="294.1837" y="-523.4" font-family="Arial" font-size="14.00" fill="#333333">Wikiページ</text>
<polygon fill="none" stroke="#000000" points="231.5,-484 231.5,-514 431.5,-514 431.5,-484 231.5,-484"/>
<text text-anchor="start" x="238.5" y="-495.4" font-family="Arial" font-size="14.00" fill="#000000">id </text>
<text text-anchor="start" x="253.2798" y="-495.4" font-family="Arial" font-size="14.00" fill="#666666">[int(11)]</text>
<polygon fill="none" stroke="#000000" points="231.5,-454 231.5,-484 431.5,-484 431.5,-454 231.5,-454"/>
<text text-anchor="start" x="238.5" y="-465.4" font-family="Arial" font-size="14.00" fill="#000000">wiki_id </text>
<text text-anchor="start" x="284.3822" y="-465.4" font-family="Arial" font-size="14.00" fill="#666666">[int(11)]</text>
<polygon fill="none" stroke="#000000" points="231.5,-424 231.5,-454 431.5,-454 431.5,-424 231.5,-424"/>
<text text-anchor="start" x="238.5" y="-435.4" font-family="Arial" font-size="14.00" fill="#000000">title </text>
<text text-anchor="start" x="264.1676" y="-435.4" font-family="Arial" font-size="14.00" fill="#666666">[varchar(255)]</text>
<polygon fill="none" stroke="#000000" points="231.5,-394 231.5,-424 431.5,-424 431.5,-394 231.5,-394"/>
<text text-anchor="start" x="238.5" y="-405.4" font-family="Arial" font-size="14.00" fill="#000000">created_on </text>
<text text-anchor="start" x="312.42" y="-405.4" font-family="Arial" font-size="14.00" fill="#666666">[datetime]</text>
<polygon fill="none" stroke="#000000" points="231.5,-364 231.5,-394 431.5,-394 431.5,-364 231.5,-364"/>
<text text-anchor="start" x="238.5" y="-375.4" font-family="Arial" font-size="14.00" fill="#000000">protected </text>
<text text-anchor="start" x="300.7454" y="-375.4" font-family="Arial" font-size="14.00" fill="#666666">[tinyint(1)]</text>
<polygon fill="none" stroke="#000000" points="231.5,-334 231.5,-364 431.5,-364 431.5,-334 231.5,-334"/>
<text text-anchor="start" x="238.5" y="-345.4" font-family="Arial" font-size="14.00" fill="#000000">parent_id </text>
<text text-anchor="start" x="300.744" y="-345.4" font-family="Arial" font-size="14.00" fill="#666666">[int(11)]</text>
<polygon fill="none" stroke="#000000" stroke-width="3" points="230,-332.5 230,-561.5 433,-561.5 433,-332.5 230,-332.5"/>
</g>
<!-- wiki_pages&#45;&gt;wiki_pages -->
<g id="edge1" class="edge">
<title>wiki_pages:parent_id&#45;&gt;wiki_pages:id</title>
<path fill="none" stroke="#000000" stroke-dasharray="5,2" d="M333.2597,-374.1918C340.4558,-497.3549 339.8692,-766 331.5,-766 322.9219,-766 322.5198,-620.0428 330.2937,-514.2891"/>
<polygon fill="#000000" stroke="#000000" points="333.2566,-374.1393 337.1257,-363.8787 332.9455,-369.149 332.6344,-364.1587 332.6344,-364.1587 332.6344,-364.1587 332.9455,-369.149 328.1431,-364.4386 333.2566,-374.1393 333.2566,-374.1393"/>
<text text-anchor="start" x="242.9589" y="-374.1587" font-family="Arial" font-size="10.00" fill="#000000">Additional Relation</text>
</g>
<!-- wikis -->
<g id="node4" class="node">
<title>wikis</title>
<polygon fill="#efefef" stroke="transparent" points="245.5,-163 245.5,-209 416.5,-209 416.5,-163 245.5,-163"/>
<polygon fill="none" stroke="#000000" points="245.5,-163 245.5,-209 416.5,-209 416.5,-163 245.5,-163"/>
<text text-anchor="start" x="262.8818" y="-186.8" font-family="Arial Bold" font-size="18.00" fill="#000000">wikis</text>
<text text-anchor="start" x="301.8644" y="-186.8" font-family="Arial" font-size="14.00" fill="#000000"> </text>
<text text-anchor="start" x="305.755" y="-186.8" font-family="Arial" font-size="14.00" fill="#666666">[BASE TABLE]</text>
<text text-anchor="start" x="317.7861" y="-172.4" font-family="Arial" font-size="14.00" fill="#333333">Wiki</text>
<polygon fill="none" stroke="#000000" points="245.5,-133 245.5,-163 416.5,-163 416.5,-133 245.5,-133"/>
<text text-anchor="start" x="252.5" y="-144.4" font-family="Arial" font-size="14.00" fill="#000000">id </text>
<text text-anchor="start" x="267.2798" y="-144.4" font-family="Arial" font-size="14.00" fill="#666666">[int(11)]</text>
<polygon fill="none" stroke="#000000" points="245.5,-103 245.5,-133 416.5,-133 416.5,-103 245.5,-103"/>
<text text-anchor="start" x="252.5" y="-114.4" font-family="Arial" font-size="14.00" fill="#000000">project_id </text>
<text text-anchor="start" x="317.068" y="-114.4" font-family="Arial" font-size="14.00" fill="#666666">[int(11)]</text>
<polygon fill="none" stroke="#000000" points="245.5,-73 245.5,-103 416.5,-103 416.5,-73 245.5,-73"/>
<text text-anchor="start" x="252.4264" y="-84.4" font-family="Arial" font-size="14.00" fill="#000000">start_page </text>
<text text-anchor="start" x="322.4544" y="-84.4" font-family="Arial" font-size="14.00" fill="#666666">[varchar(255)]</text>
<polygon fill="none" stroke="#000000" points="245.5,-43 245.5,-73 416.5,-73 416.5,-43 245.5,-43"/>
<text text-anchor="start" x="252.5" y="-54.4" font-family="Arial" font-size="14.00" fill="#000000">status </text>
<text text-anchor="start" x="293.737" y="-54.4" font-family="Arial" font-size="14.00" fill="#666666">[int(11)]</text>
</g>
<!-- wiki_pages&#45;&gt;wikis -->
<g id="edge4" class="edge">
<title>wiki_pages:wiki_id&#45;&gt;wikis:id</title>
<path fill="none" stroke="#000000" stroke-dasharray="5,2" d="M221.3152,-468.296C153.7305,-458.4303 182.6358,-347.2895 231.5,-288 284.7741,-223.3597 363.2259,-316.6403 416.5,-252 445.8973,-216.3308 462.7222,-148 416.5,-148"/>
<polygon fill="#000000" stroke="#000000" points="221.5238,-468.3103 231.1896,-473.4893 226.5119,-468.6552 231.5,-469 231.5,-469 231.5,-469 226.5119,-468.6552 231.8104,-464.5107 221.5238,-468.3103 221.5238,-468.3103"/>
<text text-anchor="start" x="141.8245" y="-479" font-family="Arial" font-size="10.00" fill="#000000">Additional Relation</text>
</g>
<!-- wiki_contents -->
<g id="node2" class="node">
<title>wiki_contents</title>
<polygon fill="#efefef" stroke="transparent" points="43.5,-925 43.5,-971 262.5,-971 262.5,-925 43.5,-925"/>
<polygon fill="none" stroke="#000000" points="43.5,-925 43.5,-971 262.5,-971 262.5,-925 43.5,-925"/>
<text text-anchor="start" x="50.3641" y="-948.8" font-family="Arial Bold" font-size="18.00" fill="#000000">wiki_contents</text>
<text text-anchor="start" x="158.3821" y="-948.8" font-family="Arial" font-size="14.00" fill="#000000"> </text>
<text text-anchor="start" x="162.2727" y="-948.8" font-family="Arial" font-size="14.00" fill="#666666">[BASE TABLE]</text>
<text text-anchor="start" x="101.5486" y="-934.4" font-family="Arial" font-size="14.00" fill="#333333">Wikiコンテンツ</text>
<polygon fill="none" stroke="#000000" points="43.5,-895 43.5,-925 262.5,-925 262.5,-895 43.5,-895"/>
<text text-anchor="start" x="50.5" y="-906.4" font-family="Arial" font-size="14.00" fill="#000000">id </text>
<text text-anchor="start" x="65.2798" y="-906.4" font-family="Arial" font-size="14.00" fill="#666666">[int(11)]</text>
<polygon fill="none" stroke="#000000" points="43.5,-865 43.5,-895 262.5,-895 262.5,-865 43.5,-865"/>
<text text-anchor="start" x="50.5" y="-876.4" font-family="Arial" font-size="14.00" fill="#000000">page_id </text>
<text text-anchor="start" x="104.1928" y="-876.4" font-family="Arial" font-size="14.00" fill="#666666">[int(11)]</text>
<polygon fill="none" stroke="#000000" points="43.5,-835 43.5,-865 262.5,-865 262.5,-835 43.5,-835"/>
<text text-anchor="start" x="50.5" y="-846.4" font-family="Arial" font-size="14.00" fill="#000000">author_id </text>
<text text-anchor="start" x="112.744" y="-846.4" font-family="Arial" font-size="14.00" fill="#666666">[int(11)]</text>
<polygon fill="none" stroke="#000000" points="43.5,-805 43.5,-835 262.5,-835 262.5,-805 43.5,-805"/>
<text text-anchor="start" x="50.5" y="-816.4" font-family="Arial" font-size="14.00" fill="#000000">text </text>
<text text-anchor="start" x="76.9544" y="-816.4" font-family="Arial" font-size="14.00" fill="#666666">[longtext]</text>
<polygon fill="none" stroke="#000000" points="43.5,-775 43.5,-805 262.5,-805 262.5,-775 43.5,-775"/>
<text text-anchor="start" x="50.5" y="-786.4" font-family="Arial" font-size="14.00" fill="#000000">comments </text>
<text text-anchor="start" x="118.9502" y="-786.4" font-family="Arial" font-size="14.00" fill="#666666">[varchar(1024)]</text>
<polygon fill="none" stroke="#000000" points="43.5,-745 43.5,-775 262.5,-775 262.5,-745 43.5,-745"/>
<text text-anchor="start" x="50.5" y="-756.4" font-family="Arial" font-size="14.00" fill="#000000">updated_on </text>
<text text-anchor="start" x="128.3246" y="-756.4" font-family="Arial" font-size="14.00" fill="#666666">[datetime]</text>
<polygon fill="none" stroke="#000000" points="43.5,-715 43.5,-745 262.5,-745 262.5,-715 43.5,-715"/>
<text text-anchor="start" x="50.5" y="-726.4" font-family="Arial" font-size="14.00" fill="#000000">version </text>
<text text-anchor="start" x="99.5056" y="-726.4" font-family="Arial" font-size="14.00" fill="#666666">[int(11)]</text>
</g>
<!-- wiki_contents&#45;&gt;wiki_pages -->
<g id="edge2" class="edge">
<title>wiki_contents:page_id&#45;&gt;wiki_pages:id</title>
<path fill="none" stroke="#000000" stroke-dasharray="5,2" d="M272.5921,-879.4695C349.3748,-870.8409 281.8476,-758.7008 262.5,-672 255.4417,-640.3701 238.5583,-637.6299 231.5,-606 221.1426,-559.5861 183.9444,-499 231.5,-499"/>
<polygon fill="#000000" stroke="#000000" points="272.4862,-879.475 262.2638,-875.5062 267.4931,-879.7375 262.5,-880 262.5,-880 262.5,-880 267.4931,-879.7375 262.7362,-884.4938 272.4862,-879.475 272.4862,-879.475"/>
<text text-anchor="start" x="269.8245" y="-890" font-family="Arial" font-size="10.00" fill="#000000">Additional Relation</text>
</g>
<!-- wiki_content_versions -->
<g id="node3" class="node">
<title>wiki_content_versions</title>
<polygon fill="#efefef" stroke="transparent" points="366.5,-955 366.5,-1001 653.5,-1001 653.5,-955 366.5,-955"/>
<polygon fill="none" stroke="#000000" points="366.5,-955 366.5,-1001 653.5,-1001 653.5,-955 366.5,-955"/>
<text text-anchor="start" x="373.3585" y="-978.8" font-family="Arial Bold" font-size="18.00" fill="#000000">wiki_content_versions</text>
<text text-anchor="start" x="549.3877" y="-978.8" font-family="Arial" font-size="14.00" fill="#000000"> </text>
<text text-anchor="start" x="553.2783" y="-978.8" font-family="Arial" font-size="14.00" fill="#666666">[BASE TABLE]</text>
<text text-anchor="start" x="417.5944" y="-964.4" font-family="Arial" font-size="14.00" fill="#333333">Wikiコンテンツバージョン</text>
<polygon fill="none" stroke="#000000" points="366.5,-925 366.5,-955 653.5,-955 653.5,-925 366.5,-925"/>
<text text-anchor="start" x="373.5" y="-936.4" font-family="Arial" font-size="14.00" fill="#000000">id </text>
<text text-anchor="start" x="388.2798" y="-936.4" font-family="Arial" font-size="14.00" fill="#666666">[int(11)]</text>
<polygon fill="none" stroke="#000000" points="366.5,-895 366.5,-925 653.5,-925 653.5,-895 366.5,-895"/>
<text text-anchor="start" x="373.5" y="-906.4" font-family="Arial" font-size="14.00" fill="#000000">wiki_content_id </text>
<text text-anchor="start" x="473.0764" y="-906.4" font-family="Arial" font-size="14.00" fill="#666666">[int(11)]</text>
<polygon fill="none" stroke="#000000" points="366.5,-865 366.5,-895 653.5,-895 653.5,-865 366.5,-865"/>
<text text-anchor="start" x="373.5" y="-876.4" font-family="Arial" font-size="14.00" fill="#000000">page_id </text>
<text text-anchor="start" x="427.1928" y="-876.4" font-family="Arial" font-size="14.00" fill="#666666">[int(11)]</text>
<polygon fill="none" stroke="#000000" points="366.5,-835 366.5,-865 653.5,-865 653.5,-835 366.5,-835"/>
<text text-anchor="start" x="373.5" y="-846.4" font-family="Arial" font-size="14.00" fill="#000000">author_id </text>
<text text-anchor="start" x="435.744" y="-846.4" font-family="Arial" font-size="14.00" fill="#666666">[int(11)]</text>
<polygon fill="none" stroke="#000000" points="366.5,-805 366.5,-835 653.5,-835 653.5,-805 366.5,-805"/>
<text text-anchor="start" x="373.5" y="-816.4" font-family="Arial" font-size="14.00" fill="#000000">data </text>
<text text-anchor="start" x="404.629" y="-816.4" font-family="Arial" font-size="14.00" fill="#666666">[longblob]</text>
<polygon fill="none" stroke="#000000" points="366.5,-775 366.5,-805 653.5,-805 653.5,-775 366.5,-775"/>
<text text-anchor="start" x="373.5" y="-786.4" font-family="Arial" font-size="14.00" fill="#000000">compression </text>
<text text-anchor="start" x="456.7314" y="-786.4" font-family="Arial" font-size="14.00" fill="#666666">[varchar(6)]</text>
<polygon fill="none" stroke="#000000" points="366.5,-745 366.5,-775 653.5,-775 653.5,-745 366.5,-745"/>
<text text-anchor="start" x="373.5" y="-756.4" font-family="Arial" font-size="14.00" fill="#000000">comments </text>
<text text-anchor="start" x="441.9502" y="-756.4" font-family="Arial" font-size="14.00" fill="#666666">[varchar(1024)]</text>
<polygon fill="none" stroke="#000000" points="366.5,-715 366.5,-745 653.5,-745 653.5,-715 366.5,-715"/>
<text text-anchor="start" x="373.5" y="-726.4" font-family="Arial" font-size="14.00" fill="#000000">updated_on </text>
<text text-anchor="start" x="451.3246" y="-726.4" font-family="Arial" font-size="14.00" fill="#666666">[datetime]</text>
<polygon fill="none" stroke="#000000" points="366.5,-685 366.5,-715 653.5,-715 653.5,-685 366.5,-685"/>
<text text-anchor="start" x="373.5" y="-696.4" font-family="Arial" font-size="14.00" fill="#000000">version </text>
<text text-anchor="start" x="422.5056" y="-696.4" font-family="Arial" font-size="14.00" fill="#666666">[int(11)]</text>
</g>
<!-- wiki_content_versions&#45;&gt;wiki_pages -->
<g id="edge3" class="edge">
<title>wiki_content_versions:page_id&#45;&gt;wiki_pages:id</title>
<path fill="none" stroke="#000000" stroke-dasharray="5,2" d="M356.4872,-877.2639C317.2767,-853.665 341.5368,-684.362 366.5,-642 383.2659,-613.5487 414.7341,-634.4513 431.5,-606 455.6435,-565.029 479.0556,-499 431.5,-499"/>
<polygon fill="#000000" stroke="#000000" points="356.8537,-877.3639 365.3138,-884.3408 361.6768,-878.682 366.5,-880 366.5,-880 366.5,-880 361.6768,-878.682 367.6862,-875.6592 356.8537,-877.3639 356.8537,-877.3639"/>
<text text-anchor="start" x="276.8245" y="-864" font-family="Arial" font-size="10.00" fill="#000000">Additional Relation</text>
</g>
</g>
</svg>
