<?xml version="1.0" encoding="UTF-8" standalone="no"?>
<!DOCTYPE svg PUBLIC "-//W3C//DTD SVG 1.1//EN"
 "http://www.w3.org/Graphics/SVG/1.1/DTD/svg11.dtd">
<!-- Generated by graphviz version 2.40.1 (20161225.0304)
 -->
<!-- Title: wiki_redirects Pages: 1 -->
<svg width="371pt" height="614pt"
 viewBox="0.00 0.00 371.00 614.00" xmlns="http://www.w3.org/2000/svg" xmlns:xlink="http://www.w3.org/1999/xlink">
<g id="graph0" class="graph" transform="scale(1 1) rotate(0) translate(4 610)">
<title>wiki_redirects</title>
<polygon fill="#ffffff" stroke="transparent" points="-4,4 -4,-610 367,-610 367,4 -4,4"/>
<!-- wiki_redirects -->
<g id="node1" class="node">
<title>wiki_redirects</title>
<polygon fill="#efefef" stroke="transparent" points="97,-514 97,-560 317,-560 317,-514 97,-514"/>
<polygon fill="none" stroke="#000000" points="97,-514 97,-560 317,-560 317,-514 97,-514"/>
<text text-anchor="start" x="103.879" y="-537.8" font-family="Arial Bold" font-size="18.00" fill="#000000">wiki_redirects</text>
<text text-anchor="start" x="212.8672" y="-537.8" font-family="Arial" font-size="14.00" fill="#000000"> </text>
<text text-anchor="start" x="216.7578" y="-537.8" font-family="Arial" font-size="14.00" fill="#666666">[BASE TABLE]</text>
<text text-anchor="start" x="153.359" y="-523.4" font-family="Arial" font-size="14.00" fill="#333333">Wikiリダイレクト</text>
<polygon fill="none" stroke="#000000" points="97,-484 97,-514 317,-514 317,-484 97,-484"/>
<text text-anchor="start" x="104" y="-495.4" font-family="Arial" font-size="14.00" fill="#000000">id </text>
<text text-anchor="start" x="118.7798" y="-495.4" font-family="Arial" font-size="14.00" fill="#666666">[int(11)]</text>
<polygon fill="none" stroke="#000000" points="97,-454 97,-484 317,-484 317,-454 97,-454"/>
<text text-anchor="start" x="104" y="-465.4" font-family="Arial" font-size="14.00" fill="#000000">wiki_id </text>
<text text-anchor="start" x="149.8822" y="-465.4" font-family="Arial" font-size="14.00" fill="#666666">[int(11)]</text>
<polygon fill="none" stroke="#000000" points="97,-424 97,-454 317,-454 317,-424 97,-424"/>
<text text-anchor="start" x="104" y="-435.4" font-family="Arial" font-size="14.00" fill="#000000">title </text>
<text text-anchor="start" x="129.6676" y="-435.4" font-family="Arial" font-size="14.00" fill="#666666">[varchar(255)]</text>
<polygon fill="none" stroke="#000000" points="97,-394 97,-424 317,-424 317,-394 97,-394"/>
<text text-anchor="start" x="104" y="-405.4" font-family="Arial" font-size="14.00" fill="#000000">redirects_to </text>
<text text-anchor="start" x="181.0126" y="-405.4" font-family="Arial" font-size="14.00" fill="#666666">[varchar(255)]</text>
<polygon fill="none" stroke="#000000" points="97,-364 97,-394 317,-394 317,-364 97,-364"/>
<text text-anchor="start" x="104" y="-375.4" font-family="Arial" font-size="14.00" fill="#000000">created_on </text>
<text text-anchor="start" x="177.92" y="-375.4" font-family="Arial" font-size="14.00" fill="#666666">[datetime]</text>
<polygon fill="none" stroke="#000000" points="97,-334 97,-364 317,-364 317,-334 97,-334"/>
<text text-anchor="start" x="104" y="-345.4" font-family="Arial" font-size="14.00" fill="#000000">redirects_to_wiki_id </text>
<text text-anchor="start" x="230.7868" y="-345.4" font-family="Arial" font-size="14.00" fill="#666666">[int(11)]</text>
<polygon fill="none" stroke="#000000" stroke-width="3" points="95.5,-332.5 95.5,-561.5 318.5,-561.5 318.5,-332.5 95.5,-332.5"/>
</g>
<!-- wikis -->
<g id="node2" class="node">
<title>wikis</title>
<polygon fill="#efefef" stroke="transparent" points="121,-163 121,-209 292,-209 292,-163 121,-163"/>
<polygon fill="none" stroke="#000000" points="121,-163 121,-209 292,-209 292,-163 121,-163"/>
<text text-anchor="start" x="138.3818" y="-186.8" font-family="Arial Bold" font-size="18.00" fill="#000000">wikis</text>
<text text-anchor="start" x="177.3644" y="-186.8" font-family="Arial" font-size="14.00" fill="#000000"> </text>
<text text-anchor="start" x="181.255" y="-186.8" font-family="Arial" font-size="14.00" fill="#666666">[BASE TABLE]</text>
<text text-anchor="start" x="193.2861" y="-172.4" font-family="Arial" font-size="14.00" fill="#333333">Wiki</text>
<polygon fill="none" stroke="#000000" points="121,-133 121,-163 292,-163 292,-133 121,-133"/>
<text text-anchor="start" x="128" y="-144.4" font-family="Arial" font-size="14.00" fill="#000000">id </text>
<text text-anchor="start" x="142.7798" y="-144.4" font-family="Arial" font-size="14.00" fill="#666666">[int(11)]</text>
<polygon fill="none" stroke="#000000" points="121,-103 121,-133 292,-133 292,-103 121,-103"/>
<text text-anchor="start" x="128" y="-114.4" font-family="Arial" font-size="14.00" fill="#000000">project_id </text>
<text text-anchor="start" x="192.568" y="-114.4" font-family="Arial" font-size="14.00" fill="#666666">[int(11)]</text>
<polygon fill="none" stroke="#000000" points="121,-73 121,-103 292,-103 292,-73 121,-73"/>
<text text-anchor="start" x="127.9264" y="-84.4" font-family="Arial" font-size="14.00" fill="#000000">start_page </text>
<text text-anchor="start" x="197.9544" y="-84.4" font-family="Arial" font-size="14.00" fill="#666666">[varchar(255)]</text>
<polygon fill="none" stroke="#000000" points="121,-43 121,-73 292,-73 292,-43 121,-43"/>
<text text-anchor="start" x="128" y="-54.4" font-family="Arial" font-size="14.00" fill="#000000">status </text>
<text text-anchor="start" x="169.237" y="-54.4" font-family="Arial" font-size="14.00" fill="#666666">[int(11)]</text>
</g>
<!-- wiki_redirects&#45;&gt;wikis -->
<g id="edge1" class="edge">
<title>wiki_redirects:wiki_id&#45;&gt;wikis:id</title>
<path fill="none" stroke="#000000" stroke-dasharray="5,2" d="M86.8134,-468.2946C19.2049,-458.4091 47.8508,-347.0535 97,-288 153.3782,-220.2608 235.6218,-319.7392 292,-252 321.5687,-216.4728 338.2222,-148 292,-148"/>
<polygon fill="#000000" stroke="#000000" points="87.0239,-468.309 96.6891,-473.4892 92.0119,-468.6545 97,-469 97,-469 97,-469 92.0119,-468.6545 97.3109,-464.5108 87.0239,-468.309 87.0239,-468.309"/>
<text text-anchor="start" x="7.3245" y="-479" font-family="Arial" font-size="10.00" fill="#000000">Additional Relation</text>
</g>
<!-- wiki_redirects&#45;&gt;wikis -->
<g id="edge2" class="edge">
<title>wiki_redirects:redirects_to_wiki_id&#45;&gt;wikis:id</title>
<path fill="none" stroke="#000000" stroke-dasharray="5,2" d="M207.9186,-323.9369C215.8499,-283.8211 272.9206,-296.9164 292,-252 310.0713,-209.4568 338.2222,-148 292,-148"/>
<polygon fill="#000000" stroke="#000000" points="207.9092,-324.0414 202.5186,-333.5909 207.4546,-329.0207 207,-334 207,-334 207,-334 207.4546,-329.0207 211.4814,-334.4091 207.9092,-324.0414 207.9092,-324.0414"/>
<text text-anchor="start" x="190.0745" y="-318" font-family="Arial" font-size="10.00" fill="#000000">Additional Relation</text>
</g>
</g>
</svg>
