<?xml version="1.0" encoding="UTF-8" standalone="no"?>
<!DOCTYPE svg PUBLIC "-//W3C//DTD SVG 1.1//EN"
 "http://www.w3.org/Graphics/SVG/1.1/DTD/svg11.dtd">
<!-- Generated by graphviz version 2.40.1 (20161225.0304)
 -->
<!-- Title: wikis Pages: 1 -->
<svg width="758pt" height="1262pt"
 viewBox="0.00 0.00 758.00 1262.00" xmlns="http://www.w3.org/2000/svg" xmlns:xlink="http://www.w3.org/1999/xlink">
<g id="graph0" class="graph" transform="scale(1 1) rotate(0) translate(4 1258)">
<title>wikis</title>
<polygon fill="#ffffff" stroke="transparent" points="-4,4 -4,-1258 754,-1258 754,4 -4,4"/>
<!-- wikis -->
<g id="node1" class="node">
<title>wikis</title>
<polygon fill="#efefef" stroke="transparent" points="441,-814 441,-860 612,-860 612,-814 441,-814"/>
<polygon fill="none" stroke="#000000" points="441,-814 441,-860 612,-860 612,-814 441,-814"/>
<text text-anchor="start" x="458.3818" y="-837.8" font-family="Arial Bold" font-size="18.00" fill="#000000">wikis</text>
<text text-anchor="start" x="497.3644" y="-837.8" font-family="Arial" font-size="14.00" fill="#000000"> </text>
<text text-anchor="start" x="501.255" y="-837.8" font-family="Arial" font-size="14.00" fill="#666666">[BASE TABLE]</text>
<text text-anchor="start" x="513.2861" y="-823.4" font-family="Arial" font-size="14.00" fill="#333333">Wiki</text>
<polygon fill="none" stroke="#000000" points="441,-784 441,-814 612,-814 612,-784 441,-784"/>
<text text-anchor="start" x="448" y="-795.4" font-family="Arial" font-size="14.00" fill="#000000">id </text>
<text text-anchor="start" x="462.7798" y="-795.4" font-family="Arial" font-size="14.00" fill="#666666">[int(11)]</text>
<polygon fill="none" stroke="#000000" points="441,-754 441,-784 612,-784 612,-754 441,-754"/>
<text text-anchor="start" x="448" y="-765.4" font-family="Arial" font-size="14.00" fill="#000000">project_id </text>
<text text-anchor="start" x="512.568" y="-765.4" font-family="Arial" font-size="14.00" fill="#666666">[int(11)]</text>
<polygon fill="none" stroke="#000000" points="441,-724 441,-754 612,-754 612,-724 441,-724"/>
<text text-anchor="start" x="447.9264" y="-735.4" font-family="Arial" font-size="14.00" fill="#000000">start_page </text>
<text text-anchor="start" x="517.9544" y="-735.4" font-family="Arial" font-size="14.00" fill="#666666">[varchar(255)]</text>
<polygon fill="none" stroke="#000000" points="441,-694 441,-724 612,-724 612,-694 441,-694"/>
<text text-anchor="start" x="448" y="-705.4" font-family="Arial" font-size="14.00" fill="#000000">status </text>
<text text-anchor="start" x="489.237" y="-705.4" font-family="Arial" font-size="14.00" fill="#666666">[int(11)]</text>
<polygon fill="none" stroke="#000000" stroke-width="3" points="439,-692.5 439,-861.5 613,-861.5 613,-692.5 439,-692.5"/>
</g>
<!-- projects -->
<g id="node4" class="node">
<title>projects</title>
<polygon fill="#efefef" stroke="transparent" points="422,-523 422,-569 631,-569 631,-523 422,-523"/>
<polygon fill="none" stroke="#000000" points="422,-523 422,-569 631,-569 631,-523 422,-523"/>
<text text-anchor="start" x="446.3695" y="-546.8" font-family="Arial Bold" font-size="18.00" fill="#000000">projects</text>
<text text-anchor="start" x="509.3767" y="-546.8" font-family="Arial" font-size="14.00" fill="#000000"> </text>
<text text-anchor="start" x="513.2673" y="-546.8" font-family="Arial" font-size="14.00" fill="#666666">[BASE TABLE]</text>
<text text-anchor="start" x="484.1269" y="-532.4" font-family="Arial" font-size="14.00" fill="#333333">プロジェクト</text>
<polygon fill="none" stroke="#000000" points="422,-493 422,-523 631,-523 631,-493 422,-493"/>
<text text-anchor="start" x="429" y="-504.4" font-family="Arial" font-size="14.00" fill="#000000">id </text>
<text text-anchor="start" x="443.7798" y="-504.4" font-family="Arial" font-size="14.00" fill="#666666">[int(11)]</text>
<polygon fill="none" stroke="#000000" points="422,-463 422,-493 631,-493 631,-463 422,-463"/>
<text text-anchor="start" x="429" y="-474.4" font-family="Arial" font-size="14.00" fill="#000000">name </text>
<text text-anchor="start" x="467.899" y="-474.4" font-family="Arial" font-size="14.00" fill="#666666">[varchar(255)]</text>
<polygon fill="none" stroke="#000000" points="422,-433 422,-463 631,-463 631,-433 422,-433"/>
<text text-anchor="start" x="429" y="-444.4" font-family="Arial" font-size="14.00" fill="#000000">description </text>
<text text-anchor="start" x="500.568" y="-444.4" font-family="Arial" font-size="14.00" fill="#666666">[text]</text>
<polygon fill="none" stroke="#000000" points="422,-403 422,-433 631,-433 631,-403 422,-403"/>
<text text-anchor="start" x="429" y="-414.4" font-family="Arial" font-size="14.00" fill="#000000">homepage </text>
<text text-anchor="start" x="499.0294" y="-414.4" font-family="Arial" font-size="14.00" fill="#666666">[varchar(255)]</text>
<polygon fill="none" stroke="#000000" points="422,-373 422,-403 631,-403 631,-373 422,-373"/>
<text text-anchor="start" x="429" y="-384.4" font-family="Arial" font-size="14.00" fill="#000000">is_public </text>
<text text-anchor="start" x="487.3408" y="-384.4" font-family="Arial" font-size="14.00" fill="#666666">[tinyint(1)]</text>
<polygon fill="none" stroke="#000000" points="422,-343 422,-373 631,-373 631,-343 422,-343"/>
<text text-anchor="start" x="429" y="-354.4" font-family="Arial" font-size="14.00" fill="#000000">parent_id </text>
<text text-anchor="start" x="491.244" y="-354.4" font-family="Arial" font-size="14.00" fill="#666666">[int(11)]</text>
<polygon fill="none" stroke="#000000" points="422,-313 422,-343 631,-343 631,-313 422,-313"/>
<text text-anchor="start" x="429" y="-324.4" font-family="Arial" font-size="14.00" fill="#000000">created_on </text>
<text text-anchor="start" x="502.92" y="-324.4" font-family="Arial" font-size="14.00" fill="#666666">[timestamp]</text>
<polygon fill="none" stroke="#000000" points="422,-283 422,-313 631,-313 631,-283 422,-283"/>
<text text-anchor="start" x="429" y="-294.4" font-family="Arial" font-size="14.00" fill="#000000">updated_on </text>
<text text-anchor="start" x="506.8246" y="-294.4" font-family="Arial" font-size="14.00" fill="#666666">[timestamp]</text>
<polygon fill="none" stroke="#000000" points="422,-253 422,-283 631,-283 631,-253 422,-253"/>
<text text-anchor="start" x="429" y="-264.4" font-family="Arial" font-size="14.00" fill="#000000">identifier </text>
<text text-anchor="start" x="485.7826" y="-264.4" font-family="Arial" font-size="14.00" fill="#666666">[varchar(255)]</text>
<polygon fill="none" stroke="#000000" points="422,-223 422,-253 631,-253 631,-223 422,-223"/>
<text text-anchor="start" x="429" y="-234.4" font-family="Arial" font-size="14.00" fill="#000000">status </text>
<text text-anchor="start" x="470.237" y="-234.4" font-family="Arial" font-size="14.00" fill="#666666">[int(11)]</text>
<polygon fill="none" stroke="#000000" points="422,-193 422,-223 631,-223 631,-193 422,-193"/>
<text text-anchor="start" x="429" y="-204.4" font-family="Arial" font-size="14.00" fill="#000000">lft </text>
<text text-anchor="start" x="443.7784" y="-204.4" font-family="Arial" font-size="14.00" fill="#666666">[int(11)]</text>
<polygon fill="none" stroke="#000000" points="422,-163 422,-193 631,-193 631,-163 422,-163"/>
<text text-anchor="start" x="429" y="-174.4" font-family="Arial" font-size="14.00" fill="#000000">rgt </text>
<text text-anchor="start" x="449.2244" y="-174.4" font-family="Arial" font-size="14.00" fill="#666666">[int(11)]</text>
<polygon fill="none" stroke="#000000" points="422,-133 422,-163 631,-163 631,-133 422,-133"/>
<text text-anchor="start" x="429" y="-144.4" font-family="Arial" font-size="14.00" fill="#000000">inherit_members </text>
<text text-anchor="start" x="537.115" y="-144.4" font-family="Arial" font-size="14.00" fill="#666666">[tinyint(1)]</text>
<polygon fill="none" stroke="#000000" points="422,-103 422,-133 631,-133 631,-103 422,-103"/>
<text text-anchor="start" x="429" y="-114.4" font-family="Arial" font-size="14.00" fill="#000000">default_version_id </text>
<text text-anchor="start" x="546.4782" y="-114.4" font-family="Arial" font-size="14.00" fill="#666666">[int(11)]</text>
<polygon fill="none" stroke="#000000" points="422,-73 422,-103 631,-103 631,-73 422,-73"/>
<text text-anchor="start" x="428.857" y="-84.4" font-family="Arial" font-size="14.00" fill="#000000">default_assigned_to_id </text>
<text text-anchor="start" x="576.6956" y="-84.4" font-family="Arial" font-size="14.00" fill="#666666">[int(11)]</text>
<polygon fill="none" stroke="#000000" points="422,-43 422,-73 631,-73 631,-43 422,-43"/>
<text text-anchor="start" x="428.8633" y="-54.4" font-family="Arial" font-size="14.00" fill="#000000">default_issue_query_id </text>
<text text-anchor="start" x="576.6893" y="-54.4" font-family="Arial" font-size="14.00" fill="#666666">[int(11)]</text>
</g>
<!-- wikis&#45;&gt;projects -->
<g id="edge4" class="edge">
<title>wikis:project_id&#45;&gt;projects:id</title>
<path fill="none" stroke="#000000" stroke-dasharray="5,2" d="M430.7056,-768.2969C323.6667,-753.4365 309.2141,-508 422,-508"/>
<polygon fill="#000000" stroke="#000000" points="431.0232,-768.3185 440.6933,-773.4895 436.0116,-768.6592 441,-769 441,-769 441,-769 436.0116,-768.6592 441.3067,-764.5105 431.0232,-768.3185 431.0232,-768.3185"/>
<text text-anchor="start" x="351.3245" y="-779" font-family="Arial" font-size="10.00" fill="#000000">Additional Relation</text>
</g>
<!-- wiki_pages -->
<g id="node2" class="node">
<title>wiki_pages</title>
<polygon fill="#efefef" stroke="transparent" points="43,-1165 43,-1211 243,-1211 243,-1165 43,-1165"/>
<polygon fill="none" stroke="#000000" points="43,-1165 43,-1211 243,-1211 243,-1165 43,-1165"/>
<text text-anchor="start" x="49.8663" y="-1188.8" font-family="Arial Bold" font-size="18.00" fill="#000000">wiki_pages</text>
<text text-anchor="start" x="138.8799" y="-1188.8" font-family="Arial" font-size="14.00" fill="#000000"> </text>
<text text-anchor="start" x="142.7705" y="-1188.8" font-family="Arial" font-size="14.00" fill="#666666">[BASE TABLE]</text>
<text text-anchor="start" x="105.6837" y="-1174.4" font-family="Arial" font-size="14.00" fill="#333333">Wikiページ</text>
<polygon fill="none" stroke="#000000" points="43,-1135 43,-1165 243,-1165 243,-1135 43,-1135"/>
<text text-anchor="start" x="50" y="-1146.4" font-family="Arial" font-size="14.00" fill="#000000">id </text>
<text text-anchor="start" x="64.7798" y="-1146.4" font-family="Arial" font-size="14.00" fill="#666666">[int(11)]</text>
<polygon fill="none" stroke="#000000" points="43,-1105 43,-1135 243,-1135 243,-1105 43,-1105"/>
<text text-anchor="start" x="50" y="-1116.4" font-family="Arial" font-size="14.00" fill="#000000">wiki_id </text>
<text text-anchor="start" x="95.8822" y="-1116.4" font-family="Arial" font-size="14.00" fill="#666666">[int(11)]</text>
<polygon fill="none" stroke="#000000" points="43,-1075 43,-1105 243,-1105 243,-1075 43,-1075"/>
<text text-anchor="start" x="50" y="-1086.4" font-family="Arial" font-size="14.00" fill="#000000">title </text>
<text text-anchor="start" x="75.6676" y="-1086.4" font-family="Arial" font-size="14.00" fill="#666666">[varchar(255)]</text>
<polygon fill="none" stroke="#000000" points="43,-1045 43,-1075 243,-1075 243,-1045 43,-1045"/>
<text text-anchor="start" x="50" y="-1056.4" font-family="Arial" font-size="14.00" fill="#000000">created_on </text>
<text text-anchor="start" x="123.92" y="-1056.4" font-family="Arial" font-size="14.00" fill="#666666">[datetime]</text>
<polygon fill="none" stroke="#000000" points="43,-1015 43,-1045 243,-1045 243,-1015 43,-1015"/>
<text text-anchor="start" x="50" y="-1026.4" font-family="Arial" font-size="14.00" fill="#000000">protected </text>
<text text-anchor="start" x="112.2454" y="-1026.4" font-family="Arial" font-size="14.00" fill="#666666">[tinyint(1)]</text>
<polygon fill="none" stroke="#000000" points="43,-985 43,-1015 243,-1015 243,-985 43,-985"/>
<text text-anchor="start" x="50" y="-996.4" font-family="Arial" font-size="14.00" fill="#000000">parent_id </text>
<text text-anchor="start" x="112.244" y="-996.4" font-family="Arial" font-size="14.00" fill="#666666">[int(11)]</text>
</g>
<!-- wiki_pages&#45;&gt;wikis -->
<g id="edge1" class="edge">
<title>wiki_pages:wiki_id&#45;&gt;wikis:id</title>
<path fill="none" stroke="#000000" stroke-dasharray="5,2" d="M253.192,-1119.3634C319.1103,-1110.4328 254.5294,-1009.5148 295,-942 341.6985,-864.0954 350.1712,-799 441,-799"/>
<polygon fill="#000000" stroke="#000000" points="252.9806,-1119.3765 242.7194,-1115.5088 247.9903,-1119.6883 243,-1120 243,-1120 243,-1120 247.9903,-1119.6883 243.2806,-1124.4912 252.9806,-1119.3765 252.9806,-1119.3765"/>
<text text-anchor="start" x="250.3245" y="-1130" font-family="Arial" font-size="10.00" fill="#000000">Additional Relation</text>
</g>
<!-- wiki_redirects -->
<g id="node3" class="node">
<title>wiki_redirects</title>
<polygon fill="#efefef" stroke="transparent" points="347,-1165 347,-1211 707,-1211 707,-1165 347,-1165"/>
<polygon fill="none" stroke="#000000" points="347,-1165 347,-1211 707,-1211 707,-1165 347,-1165"/>
<text text-anchor="start" x="423.879" y="-1188.8" font-family="Arial Bold" font-size="18.00" fill="#000000">wiki_redirects</text>
<text text-anchor="start" x="532.8672" y="-1188.8" font-family="Arial" font-size="14.00" fill="#000000"> </text>
<text text-anchor="start" x="536.7578" y="-1188.8" font-family="Arial" font-size="14.00" fill="#666666">[BASE TABLE]</text>
<text text-anchor="start" x="473.359" y="-1174.4" font-family="Arial" font-size="14.00" fill="#333333">Wikiリダイレクト</text>
<polygon fill="none" stroke="#000000" points="347,-1135 347,-1165 707,-1165 707,-1135 347,-1135"/>
<text text-anchor="start" x="354" y="-1146.4" font-family="Arial" font-size="14.00" fill="#000000">id </text>
<text text-anchor="start" x="368.7798" y="-1146.4" font-family="Arial" font-size="14.00" fill="#666666">[int(11)]</text>
<polygon fill="none" stroke="#000000" points="347,-1105 347,-1135 707,-1135 707,-1105 347,-1105"/>
<text text-anchor="start" x="354" y="-1116.4" font-family="Arial" font-size="14.00" fill="#000000">wiki_id </text>
<text text-anchor="start" x="399.8822" y="-1116.4" font-family="Arial" font-size="14.00" fill="#666666">[int(11)]</text>
<polygon fill="none" stroke="#000000" points="347,-1075 347,-1105 707,-1105 707,-1075 347,-1075"/>
<text text-anchor="start" x="354" y="-1086.4" font-family="Arial" font-size="14.00" fill="#000000">title </text>
<text text-anchor="start" x="379.6676" y="-1086.4" font-family="Arial" font-size="14.00" fill="#666666">[varchar(255)]</text>
<text text-anchor="start" x="466.7868" y="-1086.4" font-family="Arial" font-size="14.00" fill="#000000"> Wikiページ名</text>
<polygon fill="none" stroke="#000000" points="347,-1045 347,-1075 707,-1075 707,-1045 347,-1045"/>
<text text-anchor="start" x="353.5736" y="-1056.4" font-family="Arial" font-size="14.00" fill="#000000">redirects_to </text>
<text text-anchor="start" x="430.5862" y="-1056.4" font-family="Arial" font-size="14.00" fill="#666666">[varchar(255)]</text>
<text text-anchor="start" x="517.7054" y="-1056.4" font-family="Arial" font-size="14.00" fill="#000000"> リダイレクト先Wikiページ名</text>
<polygon fill="none" stroke="#000000" points="347,-1015 347,-1045 707,-1045 707,-1015 347,-1015"/>
<text text-anchor="start" x="354" y="-1026.4" font-family="Arial" font-size="14.00" fill="#000000">created_on </text>
<text text-anchor="start" x="427.92" y="-1026.4" font-family="Arial" font-size="14.00" fill="#666666">[datetime]</text>
<polygon fill="none" stroke="#000000" points="347,-985 347,-1015 707,-1015 707,-985 347,-985"/>
<text text-anchor="start" x="354" y="-996.4" font-family="Arial" font-size="14.00" fill="#000000">redirects_to_wiki_id </text>
<text text-anchor="start" x="480.7868" y="-996.4" font-family="Arial" font-size="14.00" fill="#666666">[int(11)]</text>
</g>
<!-- wiki_redirects&#45;&gt;wikis -->
<g id="edge2" class="edge">
<title>wiki_redirects:wiki_id&#45;&gt;wikis:id</title>
<path fill="none" stroke="#000000" stroke-dasharray="5,2" d="M336.974,-1119.2992C270.3715,-1109.48 297.2988,-998.9096 347,-942 425.1852,-852.4753 533.8148,-995.5247 612,-906 643.2818,-870.1813 659.5556,-799 612,-799"/>
<polygon fill="#000000" stroke="#000000" points="337.0243,-1119.3026 346.6862,-1124.489 342.0122,-1119.6513 347,-1120 347,-1120 347,-1120 342.0122,-1119.6513 347.3138,-1115.511 337.0243,-1119.3026 337.0243,-1119.3026"/>
<text text-anchor="start" x="257.3245" y="-1104" font-family="Arial" font-size="10.00" fill="#000000">Additional Relation</text>
</g>
<!-- wiki_redirects&#45;&gt;wikis -->
<g id="edge3" class="edge">
<title>wiki_redirects:redirects_to_wiki_id&#45;&gt;wikis:id</title>
<path fill="none" stroke="#000000" stroke-dasharray="5,2" d="M528.0199,-974.6403C536.3175,-936.0027 592.9246,-949.7709 612,-906 630.999,-862.4045 659.5556,-799 612,-799"/>
<polygon fill="#000000" stroke="#000000" points="527.9799,-975.0481 522.5217,-984.5591 527.4899,-980.0241 527,-985 527,-985 527,-985 527.4899,-980.0241 531.4783,-985.4409 527.9799,-975.0481 527.9799,-975.0481"/>
<text text-anchor="start" x="510.0745" y="-969" font-family="Arial" font-size="10.00" fill="#000000">Additional Relation</text>
</g>
</g>
</svg>
