<?xml version="1.0" encoding="UTF-8" standalone="no"?>
<!DOCTYPE svg PUBLIC "-//W3C//DTD SVG 1.1//EN"
 "http://www.w3.org/Graphics/SVG/1.1/DTD/svg11.dtd">
<!-- Generated by graphviz version 2.40.1 (20161225.0304)
 -->
<!-- Title: wiki_redirects Pages: 1 -->
<svg width="371pt" height="592pt"
 viewBox="0.00 0.00 371.00 592.00" xmlns="http://www.w3.org/2000/svg" xmlns:xlink="http://www.w3.org/1999/xlink">
<g id="graph0" class="graph" transform="scale(1 1) rotate(0) translate(4 588)">
<title>wiki_redirects</title>
<polygon fill="#ffffff" stroke="transparent" points="-4,4 -4,-588 367,-588 367,4 -4,4"/>
<!-- wiki_redirects -->
<g id="node1" class="node">
<title>wiki_redirects</title>
<polygon fill="#efefef" stroke="transparent" points="97,-502.5 97,-537.5 317,-537.5 317,-502.5 97,-502.5"/>
<polygon fill="none" stroke="#000000" points="97,-502.5 97,-537.5 317,-537.5 317,-502.5 97,-502.5"/>
<text text-anchor="start" x="103.879" y="-515.3" font-family="Arial Bold" font-size="18.00" fill="#000000">wiki_redirects</text>
<text text-anchor="start" x="212.8672" y="-515.3" font-family="Arial" font-size="14.00" fill="#000000"> </text>
<text text-anchor="start" x="216.7578" y="-515.3" font-family="Arial" font-size="14.00" fill="#666666">[BASE TABLE]</text>
<polygon fill="none" stroke="#000000" points="97,-472.5 97,-502.5 317,-502.5 317,-472.5 97,-472.5"/>
<text text-anchor="start" x="104" y="-483.9" font-family="Arial" font-size="14.00" fill="#000000">id </text>
<text text-anchor="start" x="118.7798" y="-483.9" font-family="Arial" font-size="14.00" fill="#666666">[int(11)]</text>
<polygon fill="none" stroke="#000000" points="97,-442.5 97,-472.5 317,-472.5 317,-442.5 97,-442.5"/>
<text text-anchor="start" x="104" y="-453.9" font-family="Arial" font-size="14.00" fill="#000000">wiki_id </text>
<text text-anchor="start" x="149.8822" y="-453.9" font-family="Arial" font-size="14.00" fill="#666666">[int(11)]</text>
<polygon fill="none" stroke="#000000" points="97,-412.5 97,-442.5 317,-442.5 317,-412.5 97,-412.5"/>
<text text-anchor="start" x="104" y="-423.9" font-family="Arial" font-size="14.00" fill="#000000">title </text>
<text text-anchor="start" x="129.6676" y="-423.9" font-family="Arial" font-size="14.00" fill="#666666">[varchar(255)]</text>
<polygon fill="none" stroke="#000000" points="97,-382.5 97,-412.5 317,-412.5 317,-382.5 97,-382.5"/>
<text text-anchor="start" x="104" y="-393.9" font-family="Arial" font-size="14.00" fill="#000000">redirects_to </text>
<text text-anchor="start" x="181.0126" y="-393.9" font-family="Arial" font-size="14.00" fill="#666666">[varchar(255)]</text>
<polygon fill="none" stroke="#000000" points="97,-352.5 97,-382.5 317,-382.5 317,-352.5 97,-352.5"/>
<text text-anchor="start" x="104" y="-363.9" font-family="Arial" font-size="14.00" fill="#000000">created_on </text>
<text text-anchor="start" x="177.92" y="-363.9" font-family="Arial" font-size="14.00" fill="#666666">[datetime]</text>
<polygon fill="none" stroke="#000000" points="97,-322.5 97,-352.5 317,-352.5 317,-322.5 97,-322.5"/>
<text text-anchor="start" x="104" y="-333.9" font-family="Arial" font-size="14.00" fill="#000000">redirects_to_wiki_id </text>
<text text-anchor="start" x="230.7868" y="-333.9" font-family="Arial" font-size="14.00" fill="#666666">[int(11)]</text>
<polygon fill="none" stroke="#000000" stroke-width="3" points="95.5,-321.5 95.5,-539.5 318.5,-539.5 318.5,-321.5 95.5,-321.5"/>
</g>
<!-- wikis -->
<g id="node2" class="node">
<title>wikis</title>
<polygon fill="#efefef" stroke="transparent" points="121,-162.5 121,-197.5 292,-197.5 292,-162.5 121,-162.5"/>
<polygon fill="none" stroke="#000000" points="121,-162.5 121,-197.5 292,-197.5 292,-162.5 121,-162.5"/>
<text text-anchor="start" x="138.3818" y="-175.3" font-family="Arial Bold" font-size="18.00" fill="#000000">wikis</text>
<text text-anchor="start" x="177.3644" y="-175.3" font-family="Arial" font-size="14.00" fill="#000000"> </text>
<text text-anchor="start" x="181.255" y="-175.3" font-family="Arial" font-size="14.00" fill="#666666">[BASE TABLE]</text>
<polygon fill="none" stroke="#000000" points="121,-132.5 121,-162.5 292,-162.5 292,-132.5 121,-132.5"/>
<text text-anchor="start" x="128" y="-143.9" font-family="Arial" font-size="14.00" fill="#000000">id </text>
<text text-anchor="start" x="142.7798" y="-143.9" font-family="Arial" font-size="14.00" fill="#666666">[int(11)]</text>
<polygon fill="none" stroke="#000000" points="121,-102.5 121,-132.5 292,-132.5 292,-102.5 121,-102.5"/>
<text text-anchor="start" x="128" y="-113.9" font-family="Arial" font-size="14.00" fill="#000000">project_id </text>
<text text-anchor="start" x="192.568" y="-113.9" font-family="Arial" font-size="14.00" fill="#666666">[int(11)]</text>
<polygon fill="none" stroke="#000000" points="121,-72.5 121,-102.5 292,-102.5 292,-72.5 121,-72.5"/>
<text text-anchor="start" x="127.9264" y="-83.9" font-family="Arial" font-size="14.00" fill="#000000">start_page </text>
<text text-anchor="start" x="197.9544" y="-83.9" font-family="Arial" font-size="14.00" fill="#666666">[varchar(255)]</text>
<polygon fill="none" stroke="#000000" points="121,-42.5 121,-72.5 292,-72.5 292,-42.5 121,-42.5"/>
<text text-anchor="start" x="128" y="-53.9" font-family="Arial" font-size="14.00" fill="#000000">status </text>
<text text-anchor="start" x="169.237" y="-53.9" font-family="Arial" font-size="14.00" fill="#666666">[int(11)]</text>
</g>
<!-- wiki_redirects&#45;&gt;wikis -->
<g id="edge1" class="edge">
<title>wiki_redirects:wiki_id&#45;&gt;wikis:id</title>
<path fill="none" stroke="#000000" stroke-dasharray="5,2" d="M86.8416,-456.7965C19.4198,-446.9384 47.9865,-335.8904 97,-277 153.3782,-209.2608 235.6218,-308.7392 292,-241 318.5834,-209.0596 333.5556,-147.5 292,-147.5"/>
<polygon fill="#000000" stroke="#000000" points="87.0239,-456.809 96.6891,-461.9892 92.0119,-457.1545 97,-457.5 97,-457.5 97,-457.5 92.0119,-457.1545 97.3109,-453.0108 87.0239,-456.809 87.0239,-456.809"/>
<text text-anchor="start" x="7.3245" y="-467.5" font-family="Arial" font-size="10.00" fill="#000000">Additional Relation</text>
</g>
<!-- wiki_redirects&#45;&gt;wikis -->
<g id="edge2" class="edge">
<title>wiki_redirects:redirects_to_wiki_id&#45;&gt;wikis:id</title>
<path fill="none" stroke="#000000" stroke-dasharray="5,2" d="M207.9184,-312.4697C215.8481,-272.4995 272.9082,-285.7555 292,-241 308.3052,-202.7769 333.5556,-147.5 292,-147.5"/>
<polygon fill="#000000" stroke="#000000" points="207.9119,-312.5417 202.5187,-322.0896 207.456,-317.5208 207,-322.5 207,-322.5 207,-322.5 207.456,-317.5208 211.4813,-322.9104 207.9119,-312.5417 207.9119,-312.5417"/>
<text text-anchor="start" x="190.0745" y="-306.5" font-family="Arial" font-size="10.00" fill="#000000">Additional Relation</text>
</g>
</g>
</svg>
