<?xml version="1.0" encoding="UTF-8" standalone="no"?>
<!DOCTYPE svg PUBLIC "-//W3C//DTD SVG 1.1//EN"
 "http://www.w3.org/Graphics/SVG/1.1/DTD/svg11.dtd">
<!-- Generated by graphviz version 2.40.1 (20161225.0304)
 -->
<!-- Title: wiki_redirects Pages: 1 -->
<svg width="511pt" height="614pt"
 viewBox="0.00 0.00 511.00 614.00" xmlns="http://www.w3.org/2000/svg" xmlns:xlink="http://www.w3.org/1999/xlink">
<g id="graph0" class="graph" transform="scale(1 1) rotate(0) translate(4 610)">
<title>wiki_redirects</title>
<polygon fill="#ffffff" stroke="transparent" points="-4,4 -4,-610 507,-610 507,4 -4,4"/>
<!-- wiki_redirects -->
<g id="node1" class="node">
<title>wiki_redirects</title>
<polygon fill="#efefef" stroke="transparent" points="97,-514 97,-560 457,-560 457,-514 97,-514"/>
<polygon fill="none" stroke="#000000" points="97,-514 97,-560 457,-560 457,-514 97,-514"/>
<text text-anchor="start" x="173.879" y="-537.8" font-family="Arial Bold" font-size="18.00" fill="#000000">wiki_redirects</text>
<text text-anchor="start" x="282.8672" y="-537.8" font-family="Arial" font-size="14.00" fill="#000000"> </text>
<text text-anchor="start" x="286.7578" y="-537.8" font-family="Arial" font-size="14.00" fill="#666666">[BASE TABLE]</text>
<text text-anchor="start" x="223.359" y="-523.4" font-family="Arial" font-size="14.00" fill="#333333">Wikiリダイレクト</text>
<polygon fill="none" stroke="#000000" points="97,-484 97,-514 457,-514 457,-484 97,-484"/>
<text text-anchor="start" x="104" y="-495.4" font-family="Arial" font-size="14.00" fill="#000000">id </text>
<text text-anchor="start" x="118.7798" y="-495.4" font-family="Arial" font-size="14.00" fill="#666666">[int(11)]</text>
<polygon fill="none" stroke="#000000" points="97,-454 97,-484 457,-484 457,-454 97,-454"/>
<text text-anchor="start" x="104" y="-465.4" font-family="Arial" font-size="14.00" fill="#000000">wiki_id </text>
<text text-anchor="start" x="149.8822" y="-465.4" font-family="Arial" font-size="14.00" fill="#666666">[int(11)]</text>
<polygon fill="none" stroke="#000000" points="97,-424 97,-454 457,-454 457,-424 97,-424"/>
<text text-anchor="start" x="104" y="-435.4" font-family="Arial" font-size="14.00" fill="#000000">title </text>
<text text-anchor="start" x="129.6676" y="-435.4" font-family="Arial" font-size="14.00" fill="#666666">[varchar(255)]</text>
<text text-anchor="start" x="216.7868" y="-435.4" font-family="Arial" font-size="14.00" fill="#000000"> Wikiページ名</text>
<polygon fill="none" stroke="#000000" points="97,-394 97,-424 457,-424 457,-394 97,-394"/>
<text text-anchor="start" x="103.5736" y="-405.4" font-family="Arial" font-size="14.00" fill="#000000">redirects_to </text>
<text text-anchor="start" x="180.5862" y="-405.4" font-family="Arial" font-size="14.00" fill="#666666">[varchar(255)]</text>
<text text-anchor="start" x="267.7054" y="-405.4" font-family="Arial" font-size="14.00" fill="#000000"> リダイレクト先Wikiページ名</text>
<polygon fill="none" stroke="#000000" points="97,-364 97,-394 457,-394 457,-364 97,-364"/>
<text text-anchor="start" x="104" y="-375.4" font-family="Arial" font-size="14.00" fill="#000000">created_on </text>
<text text-anchor="start" x="177.92" y="-375.4" font-family="Arial" font-size="14.00" fill="#666666">[datetime]</text>
<polygon fill="none" stroke="#000000" points="97,-334 97,-364 457,-364 457,-334 97,-334"/>
<text text-anchor="start" x="104" y="-345.4" font-family="Arial" font-size="14.00" fill="#000000">redirects_to_wiki_id </text>
<text text-anchor="start" x="230.7868" y="-345.4" font-family="Arial" font-size="14.00" fill="#666666">[int(11)]</text>
<polygon fill="none" stroke="#000000" stroke-width="3" points="95.5,-332.5 95.5,-561.5 458.5,-561.5 458.5,-332.5 95.5,-332.5"/>
</g>
<!-- wikis -->
<g id="node2" class="node">
<title>wikis</title>
<polygon fill="#efefef" stroke="transparent" points="191,-163 191,-209 362,-209 362,-163 191,-163"/>
<polygon fill="none" stroke="#000000" points="191,-163 191,-209 362,-209 362,-163 191,-163"/>
<text text-anchor="start" x="208.3818" y="-186.8" font-family="Arial Bold" font-size="18.00" fill="#000000">wikis</text>
<text text-anchor="start" x="247.3644" y="-186.8" font-family="Arial" font-size="14.00" fill="#000000"> </text>
<text text-anchor="start" x="251.255" y="-186.8" font-family="Arial" font-size="14.00" fill="#666666">[BASE TABLE]</text>
<text text-anchor="start" x="263.2861" y="-172.4" font-family="Arial" font-size="14.00" fill="#333333">Wiki</text>
<polygon fill="none" stroke="#000000" points="191,-133 191,-163 362,-163 362,-133 191,-133"/>
<text text-anchor="start" x="198" y="-144.4" font-family="Arial" font-size="14.00" fill="#000000">id </text>
<text text-anchor="start" x="212.7798" y="-144.4" font-family="Arial" font-size="14.00" fill="#666666">[int(11)]</text>
<polygon fill="none" stroke="#000000" points="191,-103 191,-133 362,-133 362,-103 191,-103"/>
<text text-anchor="start" x="198" y="-114.4" font-family="Arial" font-size="14.00" fill="#000000">project_id </text>
<text text-anchor="start" x="262.568" y="-114.4" font-family="Arial" font-size="14.00" fill="#666666">[int(11)]</text>
<polygon fill="none" stroke="#000000" points="191,-73 191,-103 362,-103 362,-73 191,-73"/>
<text text-anchor="start" x="197.9264" y="-84.4" font-family="Arial" font-size="14.00" fill="#000000">start_page </text>
<text text-anchor="start" x="267.9544" y="-84.4" font-family="Arial" font-size="14.00" fill="#666666">[varchar(255)]</text>
<polygon fill="none" stroke="#000000" points="191,-43 191,-73 362,-73 362,-43 191,-43"/>
<text text-anchor="start" x="198" y="-54.4" font-family="Arial" font-size="14.00" fill="#000000">status </text>
<text text-anchor="start" x="239.237" y="-54.4" font-family="Arial" font-size="14.00" fill="#666666">[int(11)]</text>
</g>
<!-- wiki_redirects&#45;&gt;wikis -->
<g id="edge1" class="edge">
<title>wiki_redirects:wiki_id&#45;&gt;wikis:id</title>
<path fill="none" stroke="#000000" stroke-dasharray="5,2" d="M86.805,-468.2874C19.0801,-458.3027 46.4612,-345.8687 97,-288 175.1852,-198.4753 283.8148,-341.5247 362,-252 392.4047,-217.1855 408.2222,-148 362,-148"/>
<polygon fill="#000000" stroke="#000000" points="87.0243,-468.3026 96.6862,-473.489 92.0122,-468.6513 97,-469 97,-469 97,-469 92.0122,-468.6513 97.3138,-464.511 87.0243,-468.3026 87.0243,-468.3026"/>
<text text-anchor="start" x="7.3245" y="-479" font-family="Arial" font-size="10.00" fill="#000000">Additional Relation</text>
</g>
<!-- wiki_redirects&#45;&gt;wikis -->
<g id="edge2" class="edge">
<title>wiki_redirects:redirects_to_wiki_id&#45;&gt;wikis:id</title>
<path fill="none" stroke="#000000" stroke-dasharray="5,2" d="M277.9186,-323.9369C285.8499,-283.8211 342.9206,-296.9164 362,-252 380.0713,-209.4568 408.2222,-148 362,-148"/>
<polygon fill="#000000" stroke="#000000" points="277.9092,-324.0414 272.5186,-333.5909 277.4546,-329.0207 277,-334 277,-334 277,-334 277.4546,-329.0207 281.4814,-334.4091 277.9092,-324.0414 277.9092,-324.0414"/>
<text text-anchor="start" x="260.0745" y="-318" font-family="Arial" font-size="10.00" fill="#000000">Additional Relation</text>
</g>
</g>
</svg>
