<?xml version="1.0" encoding="UTF-8" standalone="no"?>
<!DOCTYPE svg PUBLIC "-//W3C//DTD SVG 1.1//EN"
 "http://www.w3.org/Graphics/SVG/1.1/DTD/svg11.dtd">
<!-- Generated by graphviz version 2.40.1 (20161225.0304)
 -->
<!-- Title: workflows Pages: 1 -->
<svg width="1240pt" height="944pt"
 viewBox="0.00 0.00 1239.50 944.00" xmlns="http://www.w3.org/2000/svg" xmlns:xlink="http://www.w3.org/1999/xlink">
<g id="graph0" class="graph" transform="scale(1 1) rotate(0) translate(4 940)">
<title>workflows</title>
<polygon fill="#ffffff" stroke="transparent" points="-4,4 -4,-940 1235.5,-940 1235.5,4 -4,4"/>
<!-- workflows -->
<g id="node1" class="node">
<title>workflows</title>
<polygon fill="#efefef" stroke="transparent" points="97,-844 97,-890 799,-890 799,-844 97,-844"/>
<polygon fill="none" stroke="#000000" points="97,-844 97,-890 799,-890 799,-844 97,-844"/>
<text text-anchor="start" x="359.8784" y="-867.8" font-family="Arial Bold" font-size="18.00" fill="#000000">workflows</text>
<text text-anchor="start" x="438.8678" y="-867.8" font-family="Arial" font-size="14.00" fill="#000000"> </text>
<text text-anchor="start" x="442.7584" y="-867.8" font-family="Arial" font-size="14.00" fill="#666666">[BASE TABLE]</text>
<text text-anchor="start" x="327.6819" y="-853.4" font-family="Arial" font-size="14.00" fill="#333333">ワークフロー/フィールドの権限</text>
<polygon fill="none" stroke="#000000" points="97,-814 97,-844 799,-844 799,-814 97,-814"/>
<text text-anchor="start" x="104" y="-825.4" font-family="Arial" font-size="14.00" fill="#000000">id </text>
<text text-anchor="start" x="118.7798" y="-825.4" font-family="Arial" font-size="14.00" fill="#666666">[int(11)]</text>
<polygon fill="none" stroke="#000000" points="97,-784 97,-814 799,-814 799,-784 97,-784"/>
<text text-anchor="start" x="104" y="-795.4" font-family="Arial" font-size="14.00" fill="#000000">tracker_id </text>
<text text-anchor="start" x="169.3394" y="-795.4" font-family="Arial" font-size="14.00" fill="#666666">[int(11)]</text>
<polygon fill="none" stroke="#000000" points="97,-754 97,-784 799,-784 799,-754 97,-754"/>
<text text-anchor="start" x="104" y="-765.4" font-family="Arial" font-size="14.00" fill="#000000">old_status_id </text>
<text text-anchor="start" x="190.3632" y="-765.4" font-family="Arial" font-size="14.00" fill="#666666">[int(11)]</text>
<polygon fill="none" stroke="#000000" points="97,-724 97,-754 799,-754 799,-724 97,-724"/>
<text text-anchor="start" x="104" y="-735.4" font-family="Arial" font-size="14.00" fill="#000000">new_status_id </text>
<text text-anchor="start" x="197.3632" y="-735.4" font-family="Arial" font-size="14.00" fill="#666666">[int(11)]</text>
<polygon fill="none" stroke="#000000" points="97,-694 97,-724 799,-724 799,-694 97,-694"/>
<text text-anchor="start" x="104" y="-705.4" font-family="Arial" font-size="14.00" fill="#000000">role_id </text>
<text text-anchor="start" x="149.8948" y="-705.4" font-family="Arial" font-size="14.00" fill="#666666">[int(11)]</text>
<polygon fill="none" stroke="#000000" points="97,-664 97,-694 799,-694 799,-664 97,-664"/>
<text text-anchor="start" x="104" y="-675.4" font-family="Arial" font-size="14.00" fill="#000000">assignee </text>
<text text-anchor="start" x="163.9102" y="-675.4" font-family="Arial" font-size="14.00" fill="#666666">[tinyint(1)]</text>
<polygon fill="none" stroke="#000000" points="97,-634 97,-664 799,-664 799,-634 97,-634"/>
<text text-anchor="start" x="104" y="-645.4" font-family="Arial" font-size="14.00" fill="#000000">author </text>
<text text-anchor="start" x="147.5722" y="-645.4" font-family="Arial" font-size="14.00" fill="#666666">[tinyint(1)]</text>
<polygon fill="none" stroke="#000000" points="97,-604 97,-634 799,-634 799,-604 97,-604"/>
<text text-anchor="start" x="103.8205" y="-615.4" font-family="Arial" font-size="14.00" fill="#000000">type </text>
<text text-anchor="start" x="134.1669" y="-615.4" font-family="Arial" font-size="14.00" fill="#666666">[varchar(30)]</text>
<text text-anchor="start" x="213.5035" y="-615.4" font-family="Arial" font-size="14.00" fill="#000000"> WorkflowTransition:ステータスの遷移 WorkflowPermission:フィールドに対する権限 &#160;</text>
<polygon fill="none" stroke="#000000" points="97,-574 97,-604 799,-604 799,-574 97,-574"/>
<text text-anchor="start" x="104" y="-585.4" font-family="Arial" font-size="14.00" fill="#000000">field_name </text>
<text text-anchor="start" x="176.3506" y="-585.4" font-family="Arial" font-size="14.00" fill="#666666">[varchar(30)]</text>
<polygon fill="none" stroke="#000000" points="97,-544 97,-574 799,-574 799,-544 97,-544"/>
<text text-anchor="start" x="104" y="-555.4" font-family="Arial" font-size="14.00" fill="#000000">rule </text>
<text text-anchor="start" x="131.223" y="-555.4" font-family="Arial" font-size="14.00" fill="#666666">[varchar(30)]</text>
<polygon fill="none" stroke="#000000" stroke-width="3" points="95.5,-542.5 95.5,-891.5 800.5,-891.5 800.5,-542.5 95.5,-542.5"/>
</g>
<!-- trackers -->
<g id="node2" class="node">
<title>trackers</title>
<polygon fill="#efefef" stroke="transparent" points="54,-313 54,-359 229,-359 229,-313 54,-313"/>
<polygon fill="none" stroke="#000000" points="54,-313 54,-359 229,-359 229,-313 54,-313"/>
<text text-anchor="start" x="60.8736" y="-336.8" font-family="Arial Bold" font-size="18.00" fill="#000000">trackers</text>
<text text-anchor="start" x="124.8726" y="-336.8" font-family="Arial" font-size="14.00" fill="#000000"> </text>
<text text-anchor="start" x="128.7632" y="-336.8" font-family="Arial" font-size="14.00" fill="#666666">[BASE TABLE]</text>
<text text-anchor="start" x="102.7088" y="-322.4" font-family="Arial" font-size="14.00" fill="#333333">トラッカー</text>
<polygon fill="none" stroke="#000000" points="54,-283 54,-313 229,-313 229,-283 54,-283"/>
<text text-anchor="start" x="61" y="-294.4" font-family="Arial" font-size="14.00" fill="#000000">id </text>
<text text-anchor="start" x="75.7798" y="-294.4" font-family="Arial" font-size="14.00" fill="#666666">[int(11)]</text>
<polygon fill="none" stroke="#000000" points="54,-253 54,-283 229,-283 229,-253 54,-253"/>
<text text-anchor="start" x="61" y="-264.4" font-family="Arial" font-size="14.00" fill="#000000">name </text>
<text text-anchor="start" x="99.899" y="-264.4" font-family="Arial" font-size="14.00" fill="#666666">[varchar(30)]</text>
<polygon fill="none" stroke="#000000" points="54,-223 54,-253 229,-253 229,-223 54,-223"/>
<text text-anchor="start" x="61" y="-234.4" font-family="Arial" font-size="14.00" fill="#000000">description </text>
<text text-anchor="start" x="132.568" y="-234.4" font-family="Arial" font-size="14.00" fill="#666666">[varchar(255)]</text>
<polygon fill="none" stroke="#000000" points="54,-193 54,-223 229,-223 229,-193 54,-193"/>
<text text-anchor="start" x="61" y="-204.4" font-family="Arial" font-size="14.00" fill="#000000">position </text>
<text text-anchor="start" x="113.1248" y="-204.4" font-family="Arial" font-size="14.00" fill="#666666">[int(11)]</text>
<polygon fill="none" stroke="#000000" points="54,-163 54,-193 229,-193 229,-163 54,-163"/>
<text text-anchor="start" x="61" y="-174.4" font-family="Arial" font-size="14.00" fill="#000000">is_in_roadmap </text>
<text text-anchor="start" x="156.6858" y="-174.4" font-family="Arial" font-size="14.00" fill="#666666">[tinyint(1)]</text>
<polygon fill="none" stroke="#000000" points="54,-133 54,-163 229,-163 229,-133 54,-133"/>
<text text-anchor="start" x="61" y="-144.4" font-family="Arial" font-size="14.00" fill="#000000">fields_bits </text>
<text text-anchor="start" x="127.122" y="-144.4" font-family="Arial" font-size="14.00" fill="#666666">[int(11)]</text>
<polygon fill="none" stroke="#000000" points="54,-103 54,-133 229,-133 229,-103 54,-103"/>
<text text-anchor="start" x="61" y="-114.4" font-family="Arial" font-size="14.00" fill="#000000">default_status_id </text>
<text text-anchor="start" x="170.7096" y="-114.4" font-family="Arial" font-size="14.00" fill="#666666">[int(11)]</text>
</g>
<!-- workflows&#45;&gt;trackers -->
<g id="edge1" class="edge">
<title>workflows:tracker_id&#45;&gt;trackers:id</title>
<path fill="none" stroke="#000000" stroke-dasharray="5,2" d="M86.8454,-798.6253C-32.9329,-789.457 37.8953,-614.0681 97,-498 129.9176,-433.3575 196.0824,-466.6425 229,-402 249.9746,-360.8107 275.2222,-298 229,-298"/>
<polygon fill="#000000" stroke="#000000" points="87.0068,-798.6312 96.834,-803.4969 92.0034,-798.8156 97,-799 97,-799 97,-799 92.0034,-798.8156 97.166,-794.5031 87.0068,-798.6312 87.0068,-798.6312"/>
<text text-anchor="start" x="7.3245" y="-809" font-family="Arial" font-size="10.00" fill="#000000">Additional Relation</text>
</g>
<!-- issue_statuses -->
<g id="node3" class="node">
<title>issue_statuses</title>
<polygon fill="#efefef" stroke="transparent" points="333,-283 333,-329 563,-329 563,-283 333,-283"/>
<polygon fill="none" stroke="#000000" points="333,-283 333,-329 563,-329 563,-283 333,-283"/>
<text text-anchor="start" x="339.8552" y="-306.8" font-family="Arial Bold" font-size="18.00" fill="#000000">issue_statuses</text>
<text text-anchor="start" x="458.891" y="-306.8" font-family="Arial" font-size="14.00" fill="#000000"> </text>
<text text-anchor="start" x="462.7816" y="-306.8" font-family="Arial" font-size="14.00" fill="#666666">[BASE TABLE]</text>
<text text-anchor="start" x="407.4448" y="-292.4" font-family="Arial" font-size="14.00" fill="#333333">ステータス</text>
<polygon fill="none" stroke="#000000" points="333,-253 333,-283 563,-283 563,-253 333,-253"/>
<text text-anchor="start" x="340" y="-264.4" font-family="Arial" font-size="14.00" fill="#000000">id </text>
<text text-anchor="start" x="354.7798" y="-264.4" font-family="Arial" font-size="14.00" fill="#666666">[int(11)]</text>
<polygon fill="none" stroke="#000000" points="333,-223 333,-253 563,-253 563,-223 333,-223"/>
<text text-anchor="start" x="340" y="-234.4" font-family="Arial" font-size="14.00" fill="#000000">name </text>
<text text-anchor="start" x="378.899" y="-234.4" font-family="Arial" font-size="14.00" fill="#666666">[varchar(30)]</text>
<polygon fill="none" stroke="#000000" points="333,-193 333,-223 563,-223 563,-193 333,-193"/>
<text text-anchor="start" x="340" y="-204.4" font-family="Arial" font-size="14.00" fill="#000000">is_closed </text>
<text text-anchor="start" x="402.2342" y="-204.4" font-family="Arial" font-size="14.00" fill="#666666">[tinyint(1)]</text>
<polygon fill="none" stroke="#000000" points="333,-163 333,-193 563,-193 563,-163 333,-163"/>
<text text-anchor="start" x="340" y="-174.4" font-family="Arial" font-size="14.00" fill="#000000">position </text>
<text text-anchor="start" x="392.1248" y="-174.4" font-family="Arial" font-size="14.00" fill="#666666">[int(11)]</text>
<polygon fill="none" stroke="#000000" points="333,-133 333,-163 563,-163 563,-133 333,-133"/>
<text text-anchor="start" x="340" y="-144.4" font-family="Arial" font-size="14.00" fill="#000000">default_done_ratio </text>
<text text-anchor="start" x="459.8274" y="-144.4" font-family="Arial" font-size="14.00" fill="#666666">[int(11)]</text>
</g>
<!-- workflows&#45;&gt;issue_statuses -->
<g id="edge2" class="edge">
<title>workflows:old_status_id&#45;&gt;issue_statuses:id</title>
<path fill="none" stroke="#000000" stroke-dasharray="5,2" d="M809.166,-768.5483C916.842,-758.6446 873.2658,-588.2989 799,-498 746.3462,-433.979 676.6979,-518.4524 616,-462 550.5499,-401.1278 652.382,-268 563,-268"/>
<polygon fill="#000000" stroke="#000000" points="808.9901,-768.5561 798.8002,-764.5044 803.9951,-768.778 799,-769 799,-769 799,-769 803.9951,-768.778 799.1998,-773.4956 808.9901,-768.5561 808.9901,-768.5561"/>
<text text-anchor="start" x="806.3245" y="-779" font-family="Arial" font-size="10.00" fill="#000000">Additional Relation</text>
</g>
<!-- workflows&#45;&gt;issue_statuses -->
<g id="edge3" class="edge">
<title>workflows:new_status_id&#45;&gt;issue_statuses:id</title>
<path fill="none" stroke="#000000" stroke-dasharray="5,2" d="M809.1901,-738.4851C903.4845,-728.5729 864.7788,-577.9796 799,-498 746.3462,-433.979 676.6979,-518.4524 616,-462 550.5499,-401.1278 652.382,-268 563,-268"/>
<polygon fill="#000000" stroke="#000000" points="808.9873,-738.4952 798.7729,-734.5057 803.9936,-738.7476 799,-739 799,-739 799,-739 803.9936,-738.7476 799.2271,-743.4943 808.9873,-738.4952 808.9873,-738.4952"/>
<text text-anchor="start" x="806.3245" y="-749" font-family="Arial" font-size="10.00" fill="#000000">Additional Relation</text>
</g>
<!-- roles -->
<g id="node4" class="node">
<title>roles</title>
<polygon fill="#efefef" stroke="transparent" points="668,-373 668,-419 1189,-419 1189,-373 668,-373"/>
<polygon fill="none" stroke="#000000" points="668,-373 668,-419 1189,-419 1189,-373 668,-373"/>
<text text-anchor="start" x="860.3737" y="-396.8" font-family="Arial Bold" font-size="18.00" fill="#000000">roles</text>
<text text-anchor="start" x="899.3725" y="-396.8" font-family="Arial" font-size="14.00" fill="#000000"> </text>
<text text-anchor="start" x="903.2631" y="-396.8" font-family="Arial" font-size="14.00" fill="#666666">[BASE TABLE]</text>
<text text-anchor="start" x="901.6746" y="-382.4" font-family="Arial" font-size="14.00" fill="#333333">ロール</text>
<polygon fill="none" stroke="#000000" points="668,-343 668,-373 1189,-373 1189,-343 668,-343"/>
<text text-anchor="start" x="675" y="-354.4" font-family="Arial" font-size="14.00" fill="#000000">id </text>
<text text-anchor="start" x="689.7798" y="-354.4" font-family="Arial" font-size="14.00" fill="#666666">[int(11)]</text>
<polygon fill="none" stroke="#000000" points="668,-313 668,-343 1189,-343 1189,-313 668,-313"/>
<text text-anchor="start" x="675" y="-324.4" font-family="Arial" font-size="14.00" fill="#000000">name </text>
<text text-anchor="start" x="713.899" y="-324.4" font-family="Arial" font-size="14.00" fill="#666666">[varchar(255)]</text>
<text text-anchor="start" x="801.0182" y="-324.4" font-family="Arial" font-size="14.00" fill="#000000"> 名称</text>
<polygon fill="none" stroke="#000000" points="668,-283 668,-313 1189,-313 1189,-283 668,-283"/>
<text text-anchor="start" x="675" y="-294.4" font-family="Arial" font-size="14.00" fill="#000000">position </text>
<text text-anchor="start" x="727.1248" y="-294.4" font-family="Arial" font-size="14.00" fill="#666666">[int(11)]</text>
<text text-anchor="start" x="774.5722" y="-294.4" font-family="Arial" font-size="14.00" fill="#000000"> 並び順</text>
<polygon fill="none" stroke="#000000" points="668,-253 668,-283 1189,-283 1189,-253 668,-253"/>
<text text-anchor="start" x="674.6933" y="-264.4" font-family="Arial" font-size="14.00" fill="#000000">assignable </text>
<text text-anchor="start" x="745.4927" y="-264.4" font-family="Arial" font-size="14.00" fill="#666666">[tinyint(1)]</text>
<text text-anchor="start" x="806.9373" y="-264.4" font-family="Arial" font-size="14.00" fill="#000000"> このロールのユーザーにチケットを割り当て可能</text>
<polygon fill="none" stroke="#000000" points="668,-223 668,-253 1189,-253 1189,-223 668,-223"/>
<text text-anchor="start" x="675" y="-234.4" font-family="Arial" font-size="14.00" fill="#000000">builtin </text>
<text text-anchor="start" x="715.4488" y="-234.4" font-family="Arial" font-size="14.00" fill="#666666">[int(11)]</text>
<text text-anchor="start" x="762.8962" y="-234.4" font-family="Arial" font-size="14.00" fill="#000000"> 1:非メンバー 2:匿名ユーザー 0:それ以外 </text>
<polygon fill="none" stroke="#000000" points="668,-193 668,-223 1189,-223 1189,-193 668,-193"/>
<text text-anchor="start" x="675" y="-204.4" font-family="Arial" font-size="14.00" fill="#000000">permissions </text>
<text text-anchor="start" x="753.5554" y="-204.4" font-family="Arial" font-size="14.00" fill="#666666">[text]</text>
<text text-anchor="start" x="783.9004" y="-204.4" font-family="Arial" font-size="14.00" fill="#000000"> 権限</text>
<polygon fill="none" stroke="#000000" points="668,-163 668,-193 1189,-193 1189,-163 668,-163"/>
<text text-anchor="start" x="675" y="-174.4" font-family="Arial" font-size="14.00" fill="#000000">issues_visibility </text>
<text text-anchor="start" x="774.5512" y="-174.4" font-family="Arial" font-size="14.00" fill="#666666">[varchar(30)]</text>
<text text-anchor="start" x="853.8878" y="-174.4" font-family="Arial" font-size="14.00" fill="#000000"> 表示できるチケット</text>
<polygon fill="none" stroke="#000000" points="668,-133 668,-163 1189,-163 1189,-133 668,-133"/>
<text text-anchor="start" x="675" y="-144.4" font-family="Arial" font-size="14.00" fill="#000000">users_visibility </text>
<text text-anchor="start" x="769.1052" y="-144.4" font-family="Arial" font-size="14.00" fill="#666666">[varchar(30)]</text>
<text text-anchor="start" x="848.4418" y="-144.4" font-family="Arial" font-size="14.00" fill="#000000"> 表示できるユーザー</text>
<polygon fill="none" stroke="#000000" points="668,-103 668,-133 1189,-133 1189,-103 668,-103"/>
<text text-anchor="start" x="675" y="-114.4" font-family="Arial" font-size="14.00" fill="#000000">time_entries_visibility </text>
<text text-anchor="start" x="811.108" y="-114.4" font-family="Arial" font-size="14.00" fill="#666666">[varchar(30)]</text>
<text text-anchor="start" x="890.4446" y="-114.4" font-family="Arial" font-size="14.00" fill="#000000"> 表示できる作業時間</text>
<polygon fill="none" stroke="#000000" points="668,-73 668,-103 1189,-103 1189,-73 668,-73"/>
<text text-anchor="start" x="675" y="-84.4" font-family="Arial" font-size="14.00" fill="#000000">all_roles_managed </text>
<text text-anchor="start" x="797.1402" y="-84.4" font-family="Arial" font-size="14.00" fill="#666666">[tinyint(1)]</text>
<text text-anchor="start" x="858.5848" y="-84.4" font-family="Arial" font-size="14.00" fill="#000000"> メンバーの管理(すべてのロール)</text>
<polygon fill="none" stroke="#000000" points="668,-43 668,-73 1189,-73 1189,-43 668,-43"/>
<text text-anchor="start" x="675" y="-54.4" font-family="Arial" font-size="14.00" fill="#000000">settings </text>
<text text-anchor="start" x="727.1262" y="-54.4" font-family="Arial" font-size="14.00" fill="#666666">[text]</text>
</g>
<!-- workflows&#45;&gt;roles -->
<g id="edge4" class="edge">
<title>workflows:role_id&#45;&gt;roles:id</title>
<path fill="none" stroke="#000000" stroke-dasharray="5,2" d="M809.3979,-708.3873C889.8624,-698.4366 853.6296,-569.6676 799,-498 762.3958,-449.9796 704.6042,-510.0204 668,-462 639.979,-425.2397 621.7778,-358 668,-358"/>
<polygon fill="#000000" stroke="#000000" points="808.9827,-708.4117 798.7353,-704.5078 803.9913,-708.7059 799,-709 799,-709 799,-709 803.9913,-708.7059 799.2647,-713.4922 808.9827,-708.4117 808.9827,-708.4117"/>
<text text-anchor="start" x="806.3245" y="-719" font-family="Arial" font-size="10.00" fill="#000000">Additional Relation</text>
</g>
</g>
</svg>
