<?xml version="1.0" encoding="UTF-8" standalone="no"?>
<!DOCTYPE svg PUBLIC "-//W3C//DTD SVG 1.1//EN"
 "http://www.w3.org/Graphics/SVG/1.1/DTD/svg11.dtd">
<!-- Generated by graphviz version 2.40.1 (20161225.0304)
 -->
<!-- Title: workflows Pages: 1 -->
<svg width="937pt" height="944pt"
 viewBox="0.00 0.00 937.00 944.00" xmlns="http://www.w3.org/2000/svg" xmlns:xlink="http://www.w3.org/1999/xlink">
<g id="graph0" class="graph" transform="scale(1 1) rotate(0) translate(4 940)">
<title>workflows</title>
<polygon fill="#ffffff" stroke="transparent" points="-4,4 -4,-940 933,-940 933,4 -4,4"/>
<!-- workflows -->
<g id="node1" class="node">
<title>workflows</title>
<polygon fill="#efefef" stroke="transparent" points="342.5,-844 342.5,-890 532.5,-890 532.5,-844 342.5,-844"/>
<polygon fill="none" stroke="#000000" points="342.5,-844 342.5,-890 532.5,-890 532.5,-844 342.5,-844"/>
<text text-anchor="start" x="349.3784" y="-867.8" font-family="Arial Bold" font-size="18.00" fill="#000000">workflows</text>
<text text-anchor="start" x="428.3678" y="-867.8" font-family="Arial" font-size="14.00" fill="#000000"> </text>
<text text-anchor="start" x="432.2584" y="-867.8" font-family="Arial" font-size="14.00" fill="#666666">[BASE TABLE]</text>
<text text-anchor="start" x="385.0168" y="-853.4" font-family="Arial" font-size="14.00" fill="#333333">ワークフロー</text>
<polygon fill="none" stroke="#000000" points="342.5,-814 342.5,-844 532.5,-844 532.5,-814 342.5,-814"/>
<text text-anchor="start" x="349.5" y="-825.4" font-family="Arial" font-size="14.00" fill="#000000">id </text>
<text text-anchor="start" x="364.2798" y="-825.4" font-family="Arial" font-size="14.00" fill="#666666">[int(11)]</text>
<polygon fill="none" stroke="#000000" points="342.5,-784 342.5,-814 532.5,-814 532.5,-784 342.5,-784"/>
<text text-anchor="start" x="349.5" y="-795.4" font-family="Arial" font-size="14.00" fill="#000000">tracker_id </text>
<text text-anchor="start" x="414.8394" y="-795.4" font-family="Arial" font-size="14.00" fill="#666666">[int(11)]</text>
<polygon fill="none" stroke="#000000" points="342.5,-754 342.5,-784 532.5,-784 532.5,-754 342.5,-754"/>
<text text-anchor="start" x="349.5" y="-765.4" font-family="Arial" font-size="14.00" fill="#000000">old_status_id </text>
<text text-anchor="start" x="435.8632" y="-765.4" font-family="Arial" font-size="14.00" fill="#666666">[int(11)]</text>
<polygon fill="none" stroke="#000000" points="342.5,-724 342.5,-754 532.5,-754 532.5,-724 342.5,-724"/>
<text text-anchor="start" x="349.5" y="-735.4" font-family="Arial" font-size="14.00" fill="#000000">new_status_id </text>
<text text-anchor="start" x="442.8632" y="-735.4" font-family="Arial" font-size="14.00" fill="#666666">[int(11)]</text>
<polygon fill="none" stroke="#000000" points="342.5,-694 342.5,-724 532.5,-724 532.5,-694 342.5,-694"/>
<text text-anchor="start" x="349.5" y="-705.4" font-family="Arial" font-size="14.00" fill="#000000">role_id </text>
<text text-anchor="start" x="395.3948" y="-705.4" font-family="Arial" font-size="14.00" fill="#666666">[int(11)]</text>
<polygon fill="none" stroke="#000000" points="342.5,-664 342.5,-694 532.5,-694 532.5,-664 342.5,-664"/>
<text text-anchor="start" x="349.5" y="-675.4" font-family="Arial" font-size="14.00" fill="#000000">assignee </text>
<text text-anchor="start" x="409.4102" y="-675.4" font-family="Arial" font-size="14.00" fill="#666666">[tinyint(1)]</text>
<polygon fill="none" stroke="#000000" points="342.5,-634 342.5,-664 532.5,-664 532.5,-634 342.5,-634"/>
<text text-anchor="start" x="349.5" y="-645.4" font-family="Arial" font-size="14.00" fill="#000000">author </text>
<text text-anchor="start" x="393.0722" y="-645.4" font-family="Arial" font-size="14.00" fill="#666666">[tinyint(1)]</text>
<polygon fill="none" stroke="#000000" points="342.5,-604 342.5,-634 532.5,-634 532.5,-604 342.5,-604"/>
<text text-anchor="start" x="349.5" y="-615.4" font-family="Arial" font-size="14.00" fill="#000000">type </text>
<text text-anchor="start" x="379.8464" y="-615.4" font-family="Arial" font-size="14.00" fill="#666666">[varchar(30)]</text>
<polygon fill="none" stroke="#000000" points="342.5,-574 342.5,-604 532.5,-604 532.5,-574 342.5,-574"/>
<text text-anchor="start" x="349.5" y="-585.4" font-family="Arial" font-size="14.00" fill="#000000">field_name </text>
<text text-anchor="start" x="421.8506" y="-585.4" font-family="Arial" font-size="14.00" fill="#666666">[varchar(30)]</text>
<polygon fill="none" stroke="#000000" points="342.5,-544 342.5,-574 532.5,-574 532.5,-544 342.5,-544"/>
<text text-anchor="start" x="349.5" y="-555.4" font-family="Arial" font-size="14.00" fill="#000000">rule </text>
<text text-anchor="start" x="376.723" y="-555.4" font-family="Arial" font-size="14.00" fill="#666666">[varchar(30)]</text>
<polygon fill="none" stroke="#000000" stroke-width="3" points="341,-542.5 341,-891.5 534,-891.5 534,-542.5 341,-542.5"/>
</g>
<!-- trackers -->
<g id="node2" class="node">
<title>trackers</title>
<polygon fill="#efefef" stroke="transparent" points="43.5,-328 43.5,-374 218.5,-374 218.5,-328 43.5,-328"/>
<polygon fill="none" stroke="#000000" points="43.5,-328 43.5,-374 218.5,-374 218.5,-328 43.5,-328"/>
<text text-anchor="start" x="50.3736" y="-351.8" font-family="Arial Bold" font-size="18.00" fill="#000000">trackers</text>
<text text-anchor="start" x="114.3726" y="-351.8" font-family="Arial" font-size="14.00" fill="#000000"> </text>
<text text-anchor="start" x="118.2632" y="-351.8" font-family="Arial" font-size="14.00" fill="#666666">[BASE TABLE]</text>
<text text-anchor="start" x="92.2088" y="-337.4" font-family="Arial" font-size="14.00" fill="#333333">トラッカー</text>
<polygon fill="none" stroke="#000000" points="43.5,-298 43.5,-328 218.5,-328 218.5,-298 43.5,-298"/>
<text text-anchor="start" x="50.5" y="-309.4" font-family="Arial" font-size="14.00" fill="#000000">id </text>
<text text-anchor="start" x="65.2798" y="-309.4" font-family="Arial" font-size="14.00" fill="#666666">[int(11)]</text>
<polygon fill="none" stroke="#000000" points="43.5,-268 43.5,-298 218.5,-298 218.5,-268 43.5,-268"/>
<text text-anchor="start" x="50.5" y="-279.4" font-family="Arial" font-size="14.00" fill="#000000">name </text>
<text text-anchor="start" x="89.399" y="-279.4" font-family="Arial" font-size="14.00" fill="#666666">[varchar(30)]</text>
<polygon fill="none" stroke="#000000" points="43.5,-238 43.5,-268 218.5,-268 218.5,-238 43.5,-238"/>
<text text-anchor="start" x="50.5" y="-249.4" font-family="Arial" font-size="14.00" fill="#000000">description </text>
<text text-anchor="start" x="122.068" y="-249.4" font-family="Arial" font-size="14.00" fill="#666666">[varchar(255)]</text>
<polygon fill="none" stroke="#000000" points="43.5,-208 43.5,-238 218.5,-238 218.5,-208 43.5,-208"/>
<text text-anchor="start" x="50.5" y="-219.4" font-family="Arial" font-size="14.00" fill="#000000">is_in_chlog </text>
<text text-anchor="start" x="124.406" y="-219.4" font-family="Arial" font-size="14.00" fill="#666666">[tinyint(1)]</text>
<polygon fill="none" stroke="#000000" points="43.5,-178 43.5,-208 218.5,-208 218.5,-178 43.5,-178"/>
<text text-anchor="start" x="50.5" y="-189.4" font-family="Arial" font-size="14.00" fill="#000000">position </text>
<text text-anchor="start" x="102.6248" y="-189.4" font-family="Arial" font-size="14.00" fill="#666666">[int(11)]</text>
<polygon fill="none" stroke="#000000" points="43.5,-148 43.5,-178 218.5,-178 218.5,-148 43.5,-148"/>
<text text-anchor="start" x="50.5" y="-159.4" font-family="Arial" font-size="14.00" fill="#000000">is_in_roadmap </text>
<text text-anchor="start" x="146.1858" y="-159.4" font-family="Arial" font-size="14.00" fill="#666666">[tinyint(1)]</text>
<polygon fill="none" stroke="#000000" points="43.5,-118 43.5,-148 218.5,-148 218.5,-118 43.5,-118"/>
<text text-anchor="start" x="50.5" y="-129.4" font-family="Arial" font-size="14.00" fill="#000000">fields_bits </text>
<text text-anchor="start" x="116.622" y="-129.4" font-family="Arial" font-size="14.00" fill="#666666">[int(11)]</text>
<polygon fill="none" stroke="#000000" points="43.5,-88 43.5,-118 218.5,-118 218.5,-88 43.5,-88"/>
<text text-anchor="start" x="50.5" y="-99.4" font-family="Arial" font-size="14.00" fill="#000000">default_status_id </text>
<text text-anchor="start" x="160.2096" y="-99.4" font-family="Arial" font-size="14.00" fill="#666666">[int(11)]</text>
</g>
<!-- workflows&#45;&gt;trackers -->
<g id="edge1" class="edge">
<title>workflows:tracker_id&#45;&gt;trackers:id</title>
<path fill="none" stroke="#000000" stroke-dasharray="5,2" d="M333.4302,-794.4991C285.2109,-745.5045 271.0734,-313 218.5,-313"/>
<polygon fill="#000000" stroke="#000000" points="333.5423,-794.5547 340.4996,-803.031 338.0212,-796.7773 342.5,-799 342.5,-799 342.5,-799 338.0212,-796.7773 344.5004,-794.969 333.5423,-794.5547 333.5423,-794.5547"/>
<text text-anchor="start" x="252.8245" y="-809" font-family="Arial" font-size="10.00" fill="#000000">Additional Relation</text>
</g>
<!-- issue_statuses -->
<g id="node3" class="node">
<title>issue_statuses</title>
<polygon fill="#efefef" stroke="transparent" points="322.5,-283 322.5,-329 552.5,-329 552.5,-283 322.5,-283"/>
<polygon fill="none" stroke="#000000" points="322.5,-283 322.5,-329 552.5,-329 552.5,-283 322.5,-283"/>
<text text-anchor="start" x="329.3552" y="-306.8" font-family="Arial Bold" font-size="18.00" fill="#000000">issue_statuses</text>
<text text-anchor="start" x="448.391" y="-306.8" font-family="Arial" font-size="14.00" fill="#000000"> </text>
<text text-anchor="start" x="452.2816" y="-306.8" font-family="Arial" font-size="14.00" fill="#666666">[BASE TABLE]</text>
<text text-anchor="start" x="396.9448" y="-292.4" font-family="Arial" font-size="14.00" fill="#333333">ステータス</text>
<polygon fill="none" stroke="#000000" points="322.5,-253 322.5,-283 552.5,-283 552.5,-253 322.5,-253"/>
<text text-anchor="start" x="329.5" y="-264.4" font-family="Arial" font-size="14.00" fill="#000000">id </text>
<text text-anchor="start" x="344.2798" y="-264.4" font-family="Arial" font-size="14.00" fill="#666666">[int(11)]</text>
<polygon fill="none" stroke="#000000" points="322.5,-223 322.5,-253 552.5,-253 552.5,-223 322.5,-223"/>
<text text-anchor="start" x="329.5" y="-234.4" font-family="Arial" font-size="14.00" fill="#000000">name </text>
<text text-anchor="start" x="368.399" y="-234.4" font-family="Arial" font-size="14.00" fill="#666666">[varchar(30)]</text>
<polygon fill="none" stroke="#000000" points="322.5,-193 322.5,-223 552.5,-223 552.5,-193 322.5,-193"/>
<text text-anchor="start" x="329.5" y="-204.4" font-family="Arial" font-size="14.00" fill="#000000">is_closed </text>
<text text-anchor="start" x="391.7342" y="-204.4" font-family="Arial" font-size="14.00" fill="#666666">[tinyint(1)]</text>
<polygon fill="none" stroke="#000000" points="322.5,-163 322.5,-193 552.5,-193 552.5,-163 322.5,-163"/>
<text text-anchor="start" x="329.5" y="-174.4" font-family="Arial" font-size="14.00" fill="#000000">position </text>
<text text-anchor="start" x="381.6248" y="-174.4" font-family="Arial" font-size="14.00" fill="#666666">[int(11)]</text>
<polygon fill="none" stroke="#000000" points="322.5,-133 322.5,-163 552.5,-163 552.5,-133 322.5,-133"/>
<text text-anchor="start" x="329.5" y="-144.4" font-family="Arial" font-size="14.00" fill="#000000">default_done_ratio </text>
<text text-anchor="start" x="449.3274" y="-144.4" font-family="Arial" font-size="14.00" fill="#666666">[int(11)]</text>
</g>
<!-- workflows&#45;&gt;issue_statuses -->
<g id="edge2" class="edge">
<title>workflows:old_status_id&#45;&gt;issue_statuses:id</title>
<path fill="none" stroke="#000000" stroke-dasharray="5,2" d="M541.6156,-764.3602C590.2337,-713.8534 605.0555,-268 552.5,-268"/>
<polygon fill="#000000" stroke="#000000" points="541.412,-764.4638 530.4587,-764.9896 536.956,-766.7319 532.5,-769 532.5,-769 532.5,-769 536.956,-766.7319 534.5413,-773.0104 541.412,-764.4638 541.412,-764.4638"/>
<text text-anchor="start" x="539.8245" y="-779" font-family="Arial" font-size="10.00" fill="#000000">Additional Relation</text>
</g>
<!-- workflows&#45;&gt;issue_statuses -->
<g id="edge3" class="edge">
<title>workflows:new_status_id&#45;&gt;issue_statuses:id</title>
<path fill="none" stroke="#000000" stroke-dasharray="5,2" d="M541.366,-734.3383C586.9757,-685.4217 601.8113,-268 552.5,-268"/>
<polygon fill="#000000" stroke="#000000" points="541.3511,-734.3461 530.4057,-735.017 536.9256,-736.6731 532.5,-739 532.5,-739 532.5,-739 536.9256,-736.6731 534.5943,-742.983 541.3511,-734.3461 541.3511,-734.3461"/>
<text text-anchor="start" x="539.8245" y="-749" font-family="Arial" font-size="10.00" fill="#000000">Additional Relation</text>
</g>
<!-- roles -->
<g id="node4" class="node">
<title>roles</title>
<polygon fill="#efefef" stroke="transparent" points="657.5,-373 657.5,-419 886.5,-419 886.5,-373 657.5,-373"/>
<polygon fill="none" stroke="#000000" points="657.5,-373 657.5,-419 886.5,-419 886.5,-373 657.5,-373"/>
<text text-anchor="start" x="703.8737" y="-396.8" font-family="Arial Bold" font-size="18.00" fill="#000000">roles</text>
<text text-anchor="start" x="742.8725" y="-396.8" font-family="Arial" font-size="14.00" fill="#000000"> </text>
<text text-anchor="start" x="746.7631" y="-396.8" font-family="Arial" font-size="14.00" fill="#666666">[BASE TABLE]</text>
<text text-anchor="start" x="745.1746" y="-382.4" font-family="Arial" font-size="14.00" fill="#333333">ロール</text>
<polygon fill="none" stroke="#000000" points="657.5,-343 657.5,-373 886.5,-373 886.5,-343 657.5,-343"/>
<text text-anchor="start" x="664.5" y="-354.4" font-family="Arial" font-size="14.00" fill="#000000">id </text>
<text text-anchor="start" x="679.2798" y="-354.4" font-family="Arial" font-size="14.00" fill="#666666">[int(11)]</text>
<polygon fill="none" stroke="#000000" points="657.5,-313 657.5,-343 886.5,-343 886.5,-313 657.5,-313"/>
<text text-anchor="start" x="664.5" y="-324.4" font-family="Arial" font-size="14.00" fill="#000000">name </text>
<text text-anchor="start" x="703.399" y="-324.4" font-family="Arial" font-size="14.00" fill="#666666">[varchar(255)]</text>
<polygon fill="none" stroke="#000000" points="657.5,-283 657.5,-313 886.5,-313 886.5,-283 657.5,-283"/>
<text text-anchor="start" x="664.5" y="-294.4" font-family="Arial" font-size="14.00" fill="#000000">position </text>
<text text-anchor="start" x="716.6248" y="-294.4" font-family="Arial" font-size="14.00" fill="#666666">[int(11)]</text>
<polygon fill="none" stroke="#000000" points="657.5,-253 657.5,-283 886.5,-283 886.5,-253 657.5,-253"/>
<text text-anchor="start" x="664.5" y="-264.4" font-family="Arial" font-size="14.00" fill="#000000">assignable </text>
<text text-anchor="start" x="735.2994" y="-264.4" font-family="Arial" font-size="14.00" fill="#666666">[tinyint(1)]</text>
<polygon fill="none" stroke="#000000" points="657.5,-223 657.5,-253 886.5,-253 886.5,-223 657.5,-223"/>
<text text-anchor="start" x="664.5" y="-234.4" font-family="Arial" font-size="14.00" fill="#000000">builtin </text>
<text text-anchor="start" x="704.9488" y="-234.4" font-family="Arial" font-size="14.00" fill="#666666">[int(11)]</text>
<polygon fill="none" stroke="#000000" points="657.5,-193 657.5,-223 886.5,-223 886.5,-193 657.5,-193"/>
<text text-anchor="start" x="664.5" y="-204.4" font-family="Arial" font-size="14.00" fill="#000000">permissions </text>
<text text-anchor="start" x="743.0554" y="-204.4" font-family="Arial" font-size="14.00" fill="#666666">[text]</text>
<polygon fill="none" stroke="#000000" points="657.5,-163 657.5,-193 886.5,-193 886.5,-163 657.5,-163"/>
<text text-anchor="start" x="664.5" y="-174.4" font-family="Arial" font-size="14.00" fill="#000000">issues_visibility </text>
<text text-anchor="start" x="764.0512" y="-174.4" font-family="Arial" font-size="14.00" fill="#666666">[varchar(30)]</text>
<polygon fill="none" stroke="#000000" points="657.5,-133 657.5,-163 886.5,-163 886.5,-133 657.5,-133"/>
<text text-anchor="start" x="664.5" y="-144.4" font-family="Arial" font-size="14.00" fill="#000000">users_visibility </text>
<text text-anchor="start" x="758.6052" y="-144.4" font-family="Arial" font-size="14.00" fill="#666666">[varchar(30)]</text>
<polygon fill="none" stroke="#000000" points="657.5,-103 657.5,-133 886.5,-133 886.5,-103 657.5,-103"/>
<text text-anchor="start" x="664.2777" y="-114.4" font-family="Arial" font-size="14.00" fill="#000000">time_entries_visibility </text>
<text text-anchor="start" x="800.3857" y="-114.4" font-family="Arial" font-size="14.00" fill="#666666">[varchar(30)]</text>
<polygon fill="none" stroke="#000000" points="657.5,-73 657.5,-103 886.5,-103 886.5,-73 657.5,-73"/>
<text text-anchor="start" x="664.5" y="-84.4" font-family="Arial" font-size="14.00" fill="#000000">all_roles_managed </text>
<text text-anchor="start" x="786.6402" y="-84.4" font-family="Arial" font-size="14.00" fill="#666666">[tinyint(1)]</text>
<polygon fill="none" stroke="#000000" points="657.5,-43 657.5,-73 886.5,-73 886.5,-43 657.5,-43"/>
<text text-anchor="start" x="664.5" y="-54.4" font-family="Arial" font-size="14.00" fill="#000000">settings </text>
<text text-anchor="start" x="716.6262" y="-54.4" font-family="Arial" font-size="14.00" fill="#666666">[text]</text>
</g>
<!-- workflows&#45;&gt;roles -->
<g id="edge4" class="edge">
<title>workflows:role_id&#45;&gt;roles:id</title>
<path fill="none" stroke="#000000" stroke-dasharray="5,2" d="M541.244,-704.0382C579.8299,-661.3759 619.0116,-358 657.5,-358"/>
<polygon fill="#000000" stroke="#000000" points="541.1973,-704.0646 530.2791,-705.0862 536.8486,-706.5323 532.5,-709 532.5,-709 532.5,-709 536.8486,-706.5323 534.7209,-712.9138 541.1973,-704.0646 541.1973,-704.0646"/>
<text text-anchor="start" x="539.8245" y="-719" font-family="Arial" font-size="10.00" fill="#000000">Additional Relation</text>
</g>
</g>
</svg>
