<?xml version="1.0" encoding="UTF-8" standalone="no"?>
<!DOCTYPE svg PUBLIC "-//W3C//DTD SVG 1.1//EN"
 "http://www.w3.org/Graphics/SVG/1.1/DTD/svg11.dtd">
<!-- Generated by graphviz version 2.40.1 (20161225.0304)
 -->
<!-- Title: attachments Pages: 1 -->
<svg width="576pt" height="1233pt"
 viewBox="0.00 0.00 576.00 1233.00" xmlns="http://www.w3.org/2000/svg" xmlns:xlink="http://www.w3.org/1999/xlink">
<g id="graph0" class="graph" transform="scale(1 1) rotate(0) translate(4 1229)">
<title>attachments</title>
<polygon fill="#ffffff" stroke="transparent" points="-4,4 -4,-1229 572,-1229 572,4 -4,4"/>
<!-- attachments -->
<g id="node1" class="node">
<title>attachments</title>
<polygon fill="#efefef" stroke="transparent" points="179,-1143.5 179,-1178.5 388,-1178.5 388,-1143.5 179,-1143.5"/>
<polygon fill="none" stroke="#000000" points="179,-1143.5 179,-1178.5 388,-1178.5 388,-1143.5 179,-1143.5"/>
<text text-anchor="start" x="185.8582" y="-1156.3" font-family="Arial Bold" font-size="18.00" fill="#000000">attachments</text>
<text text-anchor="start" x="283.888" y="-1156.3" font-family="Arial" font-size="14.00" fill="#000000"> </text>
<text text-anchor="start" x="287.7786" y="-1156.3" font-family="Arial" font-size="14.00" fill="#666666">[BASE TABLE]</text>
<polygon fill="none" stroke="#000000" points="179,-1113.5 179,-1143.5 388,-1143.5 388,-1113.5 179,-1113.5"/>
<text text-anchor="start" x="186" y="-1124.9" font-family="Arial" font-size="14.00" fill="#000000">id </text>
<text text-anchor="start" x="200.7798" y="-1124.9" font-family="Arial" font-size="14.00" fill="#666666">[int(11)]</text>
<polygon fill="none" stroke="#000000" points="179,-1083.5 179,-1113.5 388,-1113.5 388,-1083.5 179,-1083.5"/>
<text text-anchor="start" x="186" y="-1094.9" font-family="Arial" font-size="14.00" fill="#000000">container_id </text>
<text text-anchor="start" x="266.1332" y="-1094.9" font-family="Arial" font-size="14.00" fill="#666666">[int(11)]</text>
<polygon fill="none" stroke="#000000" points="179,-1053.5 179,-1083.5 388,-1083.5 388,-1053.5 179,-1053.5"/>
<text text-anchor="start" x="186" y="-1064.9" font-family="Arial" font-size="14.00" fill="#000000">container_type </text>
<text text-anchor="start" x="281.6998" y="-1064.9" font-family="Arial" font-size="14.00" fill="#666666">[varchar(30)]</text>
<polygon fill="none" stroke="#000000" points="179,-1023.5 179,-1053.5 388,-1053.5 388,-1023.5 179,-1023.5"/>
<text text-anchor="start" x="186" y="-1034.9" font-family="Arial" font-size="14.00" fill="#000000">filename </text>
<text text-anchor="start" x="242.7854" y="-1034.9" font-family="Arial" font-size="14.00" fill="#666666">[varchar(255)]</text>
<polygon fill="none" stroke="#000000" points="179,-993.5 179,-1023.5 388,-1023.5 388,-993.5 179,-993.5"/>
<text text-anchor="start" x="186" y="-1004.9" font-family="Arial" font-size="14.00" fill="#000000">disk_filename </text>
<text text-anchor="start" x="275.4572" y="-1004.9" font-family="Arial" font-size="14.00" fill="#666666">[varchar(255)]</text>
<polygon fill="none" stroke="#000000" points="179,-963.5 179,-993.5 388,-993.5 388,-963.5 179,-963.5"/>
<text text-anchor="start" x="186" y="-974.9" font-family="Arial" font-size="14.00" fill="#000000">filesize </text>
<text text-anchor="start" x="232.6662" y="-974.9" font-family="Arial" font-size="14.00" fill="#666666">[bigint(20)]</text>
<polygon fill="none" stroke="#000000" points="179,-933.5 179,-963.5 388,-963.5 388,-933.5 179,-933.5"/>
<text text-anchor="start" x="186" y="-944.9" font-family="Arial" font-size="14.00" fill="#000000">content_type </text>
<text text-anchor="start" x="270.0406" y="-944.9" font-family="Arial" font-size="14.00" fill="#666666">[varchar(255)]</text>
<polygon fill="none" stroke="#000000" points="179,-903.5 179,-933.5 388,-933.5 388,-903.5 179,-903.5"/>
<text text-anchor="start" x="186" y="-914.9" font-family="Arial" font-size="14.00" fill="#000000">digest </text>
<text text-anchor="start" x="227.2356" y="-914.9" font-family="Arial" font-size="14.00" fill="#666666">[varchar(64)]</text>
<polygon fill="none" stroke="#000000" points="179,-873.5 179,-903.5 388,-903.5 388,-873.5 179,-873.5"/>
<text text-anchor="start" x="186" y="-884.9" font-family="Arial" font-size="14.00" fill="#000000">downloads </text>
<text text-anchor="start" x="256.7994" y="-884.9" font-family="Arial" font-size="14.00" fill="#666666">[int(11)]</text>
<polygon fill="none" stroke="#000000" points="179,-843.5 179,-873.5 388,-873.5 388,-843.5 179,-843.5"/>
<text text-anchor="start" x="186" y="-854.9" font-family="Arial" font-size="14.00" fill="#000000">author_id </text>
<text text-anchor="start" x="248.244" y="-854.9" font-family="Arial" font-size="14.00" fill="#666666">[int(11)]</text>
<polygon fill="none" stroke="#000000" points="179,-813.5 179,-843.5 388,-843.5 388,-813.5 179,-813.5"/>
<text text-anchor="start" x="186" y="-824.9" font-family="Arial" font-size="14.00" fill="#000000">created_on </text>
<text text-anchor="start" x="259.92" y="-824.9" font-family="Arial" font-size="14.00" fill="#666666">[timestamp]</text>
<polygon fill="none" stroke="#000000" points="179,-783.5 179,-813.5 388,-813.5 388,-783.5 179,-783.5"/>
<text text-anchor="start" x="186" y="-794.9" font-family="Arial" font-size="14.00" fill="#000000">description </text>
<text text-anchor="start" x="257.568" y="-794.9" font-family="Arial" font-size="14.00" fill="#666666">[varchar(255)]</text>
<polygon fill="none" stroke="#000000" points="179,-753.5 179,-783.5 388,-783.5 388,-753.5 179,-753.5"/>
<text text-anchor="start" x="186" y="-764.9" font-family="Arial" font-size="14.00" fill="#000000">disk_directory </text>
<text text-anchor="start" x="276.2286" y="-764.9" font-family="Arial" font-size="14.00" fill="#666666">[varchar(255)]</text>
<polygon fill="none" stroke="#000000" stroke-width="3" points="177,-752.5 177,-1180.5 389,-1180.5 389,-752.5 177,-752.5"/>
</g>
<!-- users -->
<g id="node2" class="node">
<title>users</title>
<polygon fill="#efefef" stroke="transparent" points="43,-583 43,-629 525,-629 525,-583 43,-583"/>
<polygon fill="none" stroke="#000000" points="43,-583 43,-629 525,-629 525,-583 43,-583"/>
<text text-anchor="start" x="213.3708" y="-606.8" font-family="Arial Bold" font-size="18.00" fill="#000000">users</text>
<text text-anchor="start" x="257.3754" y="-606.8" font-family="Arial" font-size="14.00" fill="#000000"> </text>
<text text-anchor="start" x="261.266" y="-606.8" font-family="Arial" font-size="14.00" fill="#666666">[BASE TABLE]</text>
<text text-anchor="start" x="205.4558" y="-592.4" font-family="Arial" font-size="14.00" fill="#333333">ユーザー / グループ</text>
<polygon fill="none" stroke="#000000" points="43,-553 43,-583 525,-583 525,-553 43,-553"/>
<text text-anchor="start" x="50" y="-564.4" font-family="Arial" font-size="14.00" fill="#000000">id </text>
<text text-anchor="start" x="64.7798" y="-564.4" font-family="Arial" font-size="14.00" fill="#666666">[int(11)]</text>
<polygon fill="none" stroke="#000000" points="43,-523 43,-553 525,-553 525,-523 43,-523"/>
<text text-anchor="start" x="50" y="-534.4" font-family="Arial" font-size="14.00" fill="#000000">login </text>
<text text-anchor="start" x="83.4516" y="-534.4" font-family="Arial" font-size="14.00" fill="#666666">[varchar(255)]</text>
<text text-anchor="start" x="170.5708" y="-534.4" font-family="Arial" font-size="14.00" fill="#000000"> ログインID</text>
<polygon fill="none" stroke="#000000" points="43,-493 43,-523 525,-523 525,-493 43,-493"/>
<text text-anchor="start" x="50" y="-504.4" font-family="Arial" font-size="14.00" fill="#000000">hashed_password </text>
<text text-anchor="start" x="167.4838" y="-504.4" font-family="Arial" font-size="14.00" fill="#666666">[varchar(40)]</text>
<text text-anchor="start" x="246.8204" y="-504.4" font-family="Arial" font-size="14.00" fill="#000000"> パスワード(ハッシュ化済み)</text>
<polygon fill="none" stroke="#000000" points="43,-463 43,-493 525,-493 525,-463 43,-463"/>
<text text-anchor="start" x="50" y="-474.4" font-family="Arial" font-size="14.00" fill="#000000">firstname </text>
<text text-anchor="start" x="111.4474" y="-474.4" font-family="Arial" font-size="14.00" fill="#666666">[varchar(30)]</text>
<text text-anchor="start" x="190.784" y="-474.4" font-family="Arial" font-size="14.00" fill="#000000"> 名</text>
<polygon fill="none" stroke="#000000" points="43,-433 43,-463 525,-463 525,-433 43,-433"/>
<text text-anchor="start" x="50" y="-444.4" font-family="Arial" font-size="14.00" fill="#000000">lastname </text>
<text text-anchor="start" x="110.6788" y="-444.4" font-family="Arial" font-size="14.00" fill="#666666">[varchar(255)]</text>
<text text-anchor="start" x="197.798" y="-444.4" font-family="Arial" font-size="14.00" fill="#000000"> 姓</text>
<polygon fill="none" stroke="#000000" points="43,-403 43,-433 525,-433 525,-403 43,-403"/>
<text text-anchor="start" x="50" y="-414.4" font-family="Arial" font-size="14.00" fill="#000000">admin </text>
<text text-anchor="start" x="92.0056" y="-414.4" font-family="Arial" font-size="14.00" fill="#666666">[tinyint(1)]</text>
<text text-anchor="start" x="153.4502" y="-414.4" font-family="Arial" font-size="14.00" fill="#000000"> システム管理者</text>
<polygon fill="none" stroke="#000000" points="43,-373 43,-403 525,-403 525,-373 43,-373"/>
<text text-anchor="start" x="50" y="-384.4" font-family="Arial" font-size="14.00" fill="#000000">status </text>
<text text-anchor="start" x="91.237" y="-384.4" font-family="Arial" font-size="14.00" fill="#666666">[int(11)]</text>
<polygon fill="none" stroke="#000000" points="43,-343 43,-373 525,-373 525,-343 43,-343"/>
<text text-anchor="start" x="50" y="-354.4" font-family="Arial" font-size="14.00" fill="#000000">last_login_on </text>
<text text-anchor="start" x="136.3618" y="-354.4" font-family="Arial" font-size="14.00" fill="#666666">[datetime]</text>
<polygon fill="none" stroke="#000000" points="43,-313 43,-343 525,-343 525,-313 43,-313"/>
<text text-anchor="start" x="50" y="-324.4" font-family="Arial" font-size="14.00" fill="#000000">language </text>
<text text-anchor="start" x="111.4754" y="-324.4" font-family="Arial" font-size="14.00" fill="#666666">[varchar(5)]</text>
<text text-anchor="start" x="183.0294" y="-324.4" font-family="Arial" font-size="14.00" fill="#000000"> 言語</text>
<polygon fill="none" stroke="#000000" points="43,-283 43,-313 525,-313 525,-283 43,-283"/>
<text text-anchor="start" x="50" y="-294.4" font-family="Arial" font-size="14.00" fill="#000000">auth_source_id </text>
<text text-anchor="start" x="149.5918" y="-294.4" font-family="Arial" font-size="14.00" fill="#666666">[int(11)]</text>
<polygon fill="none" stroke="#000000" points="43,-253 43,-283 525,-283 525,-253 43,-253"/>
<text text-anchor="start" x="50" y="-264.4" font-family="Arial" font-size="14.00" fill="#000000">created_on </text>
<text text-anchor="start" x="123.92" y="-264.4" font-family="Arial" font-size="14.00" fill="#666666">[timestamp]</text>
<polygon fill="none" stroke="#000000" points="43,-223 43,-253 525,-253 525,-223 43,-223"/>
<text text-anchor="start" x="50" y="-234.4" font-family="Arial" font-size="14.00" fill="#000000">updated_on </text>
<text text-anchor="start" x="127.8246" y="-234.4" font-family="Arial" font-size="14.00" fill="#666666">[timestamp]</text>
<polygon fill="none" stroke="#000000" points="43,-193 43,-223 525,-223 525,-193 43,-193"/>
<text text-anchor="start" x="50" y="-204.4" font-family="Arial" font-size="14.00" fill="#000000">type </text>
<text text-anchor="start" x="80.3464" y="-204.4" font-family="Arial" font-size="14.00" fill="#666666">[varchar(255)]</text>
<text text-anchor="start" x="167.4656" y="-204.4" font-family="Arial" font-size="14.00" fill="#000000"> User:ユーザー / Group:グループ</text>
<polygon fill="none" stroke="#000000" points="43,-163 43,-193 525,-193 525,-163 43,-163"/>
<text text-anchor="start" x="50" y="-174.4" font-family="Arial" font-size="14.00" fill="#000000">identity_url </text>
<text text-anchor="start" x="121.5652" y="-174.4" font-family="Arial" font-size="14.00" fill="#666666">[varchar(255)]</text>
<polygon fill="none" stroke="#000000" points="43,-133 43,-163 525,-163 525,-133 43,-133"/>
<text text-anchor="start" x="50" y="-144.4" font-family="Arial" font-size="14.00" fill="#000000">mail_notification </text>
<text text-anchor="start" x="154.2342" y="-144.4" font-family="Arial" font-size="14.00" fill="#666666">[varchar(255)]</text>
<text text-anchor="start" x="241.3534" y="-144.4" font-family="Arial" font-size="14.00" fill="#000000"> メール通知</text>
<polygon fill="none" stroke="#000000" points="43,-103 43,-133 525,-133 525,-103 43,-103"/>
<text text-anchor="start" x="50" y="-114.4" font-family="Arial" font-size="14.00" fill="#000000">salt </text>
<text text-anchor="start" x="75.6704" y="-114.4" font-family="Arial" font-size="14.00" fill="#666666">[varchar(64)]</text>
<polygon fill="none" stroke="#000000" points="43,-73 43,-103 525,-103 525,-73 43,-73"/>
<text text-anchor="start" x="49.7646" y="-84.4" font-family="Arial" font-size="14.00" fill="#000000">must_change_passwd </text>
<text text-anchor="start" x="192.9216" y="-84.4" font-family="Arial" font-size="14.00" fill="#666666">[tinyint(1)]</text>
<text text-anchor="start" x="254.3662" y="-84.4" font-family="Arial" font-size="14.00" fill="#000000"> 次回ログイン時にパスワード変更を強制</text>
<polygon fill="none" stroke="#000000" points="43,-43 43,-73 525,-73 525,-43 43,-43"/>
<text text-anchor="start" x="50" y="-54.4" font-family="Arial" font-size="14.00" fill="#000000">passwd_changed_on </text>
<text text-anchor="start" x="186.171" y="-54.4" font-family="Arial" font-size="14.00" fill="#666666">[datetime]</text>
</g>
<!-- attachments&#45;&gt;users -->
<g id="edge1" class="edge">
<title>attachments:author_id&#45;&gt;users:id</title>
<path fill="none" stroke="#000000" stroke-dasharray="5,2" d="M398.1863,-857.6204C452.4025,-847.6269 430.3273,-754.9739 388,-708 336.4,-650.7355 94.6,-729.2645 43,-672 12.0584,-637.6618 -3.2222,-568 43,-568"/>
<polygon fill="#000000" stroke="#000000" points="397.9629,-857.6396 387.6128,-854.0167 392.9815,-858.0698 388,-858.5 388,-858.5 388,-858.5 392.9815,-858.0698 388.3872,-862.9833 397.9629,-857.6396 397.9629,-857.6396"/>
<text text-anchor="start" x="395.3245" y="-868.5" font-family="Arial" font-size="10.00" fill="#000000">Additional Relation</text>
</g>
</g>
</svg>
