<?xml version="1.0" encoding="UTF-8" standalone="no"?>
<!DOCTYPE svg PUBLIC "-//W3C//DTD SVG 1.1//EN"
 "http://www.w3.org/Graphics/SVG/1.1/DTD/svg11.dtd">
<!-- Generated by graphviz version 2.40.1 (20161225.0304)
 -->
<!-- Title: boards Pages: 1 -->
<svg width="272pt" height="416pt"
 viewBox="0.00 0.00 272.00 416.00" xmlns="http://www.w3.org/2000/svg" xmlns:xlink="http://www.w3.org/1999/xlink">
<g id="graph0" class="graph" transform="scale(1 1) rotate(0) translate(4 412)">
<title>boards</title>
<polygon fill="#ffffff" stroke="transparent" points="-4,4 -4,-412 268,-412 268,4 -4,4"/>
<!-- boards -->
<g id="node1" class="node">
<title>boards</title>
<polygon fill="#efefef" stroke="transparent" points="46,-316 46,-362 218,-362 218,-316 46,-316"/>
<polygon fill="none" stroke="#000000" points="46,-316 46,-362 218,-362 218,-316 46,-316"/>
<text text-anchor="start" x="55.8646" y="-339.8" font-family="Arial Bold" font-size="18.00" fill="#000000">boards</text>
<text text-anchor="start" x="110.8816" y="-339.8" font-family="Arial" font-size="14.00" fill="#000000"> </text>
<text text-anchor="start" x="114.7722" y="-339.8" font-family="Arial" font-size="14.00" fill="#666666">[BASE TABLE]</text>
<text text-anchor="start" x="95.7638" y="-325.4" font-family="Arial" font-size="14.00" fill="#333333">フォーラム</text>
<polygon fill="none" stroke="#000000" points="46,-286 46,-316 218,-316 218,-286 46,-286"/>
<text text-anchor="start" x="53" y="-297.4" font-family="Arial" font-size="14.00" fill="#000000">id </text>
<text text-anchor="start" x="67.7798" y="-297.4" font-family="Arial" font-size="14.00" fill="#666666">[int(11)]</text>
<polygon fill="none" stroke="#000000" points="46,-256 46,-286 218,-286 218,-256 46,-256"/>
<text text-anchor="start" x="53" y="-267.4" font-family="Arial" font-size="14.00" fill="#000000">project_id </text>
<text text-anchor="start" x="117.568" y="-267.4" font-family="Arial" font-size="14.00" fill="#666666">[int(11)]</text>
<polygon fill="none" stroke="#000000" points="46,-226 46,-256 218,-256 218,-226 46,-226"/>
<text text-anchor="start" x="53" y="-237.4" font-family="Arial" font-size="14.00" fill="#000000">name </text>
<text text-anchor="start" x="91.899" y="-237.4" font-family="Arial" font-size="14.00" fill="#666666">[varchar(255)]</text>
<polygon fill="none" stroke="#000000" points="46,-196 46,-226 218,-226 218,-196 46,-196"/>
<text text-anchor="start" x="52.6564" y="-207.4" font-family="Arial" font-size="14.00" fill="#000000">description </text>
<text text-anchor="start" x="124.2244" y="-207.4" font-family="Arial" font-size="14.00" fill="#666666">[varchar(255)]</text>
<polygon fill="none" stroke="#000000" points="46,-166 46,-196 218,-196 218,-166 46,-166"/>
<text text-anchor="start" x="53" y="-177.4" font-family="Arial" font-size="14.00" fill="#000000">position </text>
<text text-anchor="start" x="105.1248" y="-177.4" font-family="Arial" font-size="14.00" fill="#666666">[int(11)]</text>
<polygon fill="none" stroke="#000000" points="46,-136 46,-166 218,-166 218,-136 46,-136"/>
<text text-anchor="start" x="53" y="-147.4" font-family="Arial" font-size="14.00" fill="#000000">topics_count </text>
<text text-anchor="start" x="135.474" y="-147.4" font-family="Arial" font-size="14.00" fill="#666666">[int(11)]</text>
<polygon fill="none" stroke="#000000" points="46,-106 46,-136 218,-136 218,-106 46,-106"/>
<text text-anchor="start" x="53" y="-117.4" font-family="Arial" font-size="14.00" fill="#000000">messages_count </text>
<text text-anchor="start" x="162.7026" y="-117.4" font-family="Arial" font-size="14.00" fill="#666666">[int(11)]</text>
<polygon fill="none" stroke="#000000" points="46,-76 46,-106 218,-106 218,-76 46,-76"/>
<text text-anchor="start" x="53" y="-87.4" font-family="Arial" font-size="14.00" fill="#000000">last_message_id </text>
<text text-anchor="start" x="161.9158" y="-87.4" font-family="Arial" font-size="14.00" fill="#666666">[int(11)]</text>
<polygon fill="none" stroke="#000000" points="46,-46 46,-76 218,-76 218,-46 46,-46"/>
<text text-anchor="start" x="53" y="-57.4" font-family="Arial" font-size="14.00" fill="#000000">parent_id </text>
<text text-anchor="start" x="115.244" y="-57.4" font-family="Arial" font-size="14.00" fill="#666666">[int(11)]</text>
<polygon fill="none" stroke="#000000" stroke-width="3" points="44.5,-44.5 44.5,-363.5 219.5,-363.5 219.5,-44.5 44.5,-44.5"/>
</g>
</g>
</svg>
