<?xml version="1.0" encoding="UTF-8" standalone="no"?>
<!DOCTYPE svg PUBLIC "-//W3C//DTD SVG 1.1//EN"
 "http://www.w3.org/Graphics/SVG/1.1/DTD/svg11.dtd">
<!-- Generated by graphviz version 2.40.1 (20161225.0304)
 -->
<!-- Title: custom_field_enumerations Pages: 1 -->
<svg width="482pt" height="1023pt"
 viewBox="0.00 0.00 481.50 1023.00" xmlns="http://www.w3.org/2000/svg" xmlns:xlink="http://www.w3.org/1999/xlink">
<g id="graph0" class="graph" transform="scale(1 1) rotate(0) translate(4 1019)">
<title>custom_field_enumerations</title>
<polygon fill="#ffffff" stroke="transparent" points="-4,4 -4,-1019 477.5,-1019 477.5,4 -4,4"/>
<!-- custom_field_enumerations -->
<g id="node1" class="node">
<title>custom_field_enumerations</title>
<polygon fill="#efefef" stroke="transparent" points="97,-933.5 97,-968.5 428,-968.5 428,-933.5 97,-933.5"/>
<polygon fill="none" stroke="#000000" points="97,-933.5 97,-968.5 428,-968.5 428,-933.5 97,-933.5"/>
<text text-anchor="start" x="103.8499" y="-946.3" font-family="Arial Bold" font-size="18.00" fill="#000000">custom_field_enumerations</text>
<text text-anchor="start" x="323.8963" y="-946.3" font-family="Arial" font-size="14.00" fill="#000000"> </text>
<text text-anchor="start" x="327.7869" y="-946.3" font-family="Arial" font-size="14.00" fill="#666666">[BASE TABLE]</text>
<polygon fill="none" stroke="#000000" points="97,-903.5 97,-933.5 428,-933.5 428,-903.5 97,-903.5"/>
<text text-anchor="start" x="104" y="-914.9" font-family="Arial" font-size="14.00" fill="#000000">id </text>
<text text-anchor="start" x="118.7798" y="-914.9" font-family="Arial" font-size="14.00" fill="#666666">[int(11)]</text>
<polygon fill="none" stroke="#000000" points="97,-873.5 97,-903.5 428,-903.5 428,-873.5 97,-873.5"/>
<text text-anchor="start" x="104" y="-884.9" font-family="Arial" font-size="14.00" fill="#000000">custom_field_id </text>
<text text-anchor="start" x="205.1304" y="-884.9" font-family="Arial" font-size="14.00" fill="#666666">[int(11)]</text>
<polygon fill="none" stroke="#000000" points="97,-843.5 97,-873.5 428,-873.5 428,-843.5 97,-843.5"/>
<text text-anchor="start" x="104" y="-854.9" font-family="Arial" font-size="14.00" fill="#000000">name </text>
<text text-anchor="start" x="142.899" y="-854.9" font-family="Arial" font-size="14.00" fill="#666666">[varchar(255)]</text>
<polygon fill="none" stroke="#000000" points="97,-813.5 97,-843.5 428,-843.5 428,-813.5 97,-813.5"/>
<text text-anchor="start" x="104" y="-824.9" font-family="Arial" font-size="14.00" fill="#000000">active </text>
<text text-anchor="start" x="144.453" y="-824.9" font-family="Arial" font-size="14.00" fill="#666666">[tinyint(1)]</text>
<polygon fill="none" stroke="#000000" points="97,-783.5 97,-813.5 428,-813.5 428,-783.5 97,-783.5"/>
<text text-anchor="start" x="104" y="-794.9" font-family="Arial" font-size="14.00" fill="#000000">position </text>
<text text-anchor="start" x="156.1248" y="-794.9" font-family="Arial" font-size="14.00" fill="#666666">[int(11)]</text>
<polygon fill="none" stroke="#000000" stroke-width="3" points="95,-782.5 95,-970.5 429,-970.5 429,-782.5 95,-782.5"/>
</g>
<!-- custom_fields -->
<g id="node2" class="node">
<title>custom_fields</title>
<polygon fill="#efefef" stroke="transparent" points="152,-613 152,-659 373,-659 373,-613 152,-613"/>
<polygon fill="none" stroke="#000000" points="152,-613 152,-659 373,-659 373,-613 152,-613"/>
<text text-anchor="start" x="158.8651" y="-636.8" font-family="Arial Bold" font-size="18.00" fill="#000000">custom_fields</text>
<text text-anchor="start" x="268.8811" y="-636.8" font-family="Arial" font-size="14.00" fill="#000000"> </text>
<text text-anchor="start" x="272.7717" y="-636.8" font-family="Arial" font-size="14.00" fill="#666666">[BASE TABLE]</text>
<text text-anchor="start" x="190.5722" y="-622.4" font-family="Arial" font-size="14.00" fill="#333333">カスタムフィールド</text>
<polygon fill="none" stroke="#000000" points="152,-583 152,-613 373,-613 373,-583 152,-583"/>
<text text-anchor="start" x="159" y="-594.4" font-family="Arial" font-size="14.00" fill="#000000">id </text>
<text text-anchor="start" x="173.7798" y="-594.4" font-family="Arial" font-size="14.00" fill="#666666">[int(11)]</text>
<polygon fill="none" stroke="#000000" points="152,-553 152,-583 373,-583 373,-553 152,-553"/>
<text text-anchor="start" x="159" y="-564.4" font-family="Arial" font-size="14.00" fill="#000000">type </text>
<text text-anchor="start" x="189.3464" y="-564.4" font-family="Arial" font-size="14.00" fill="#666666">[varchar(30)]</text>
<polygon fill="none" stroke="#000000" points="152,-523 152,-553 373,-553 373,-523 152,-523"/>
<text text-anchor="start" x="159" y="-534.4" font-family="Arial" font-size="14.00" fill="#000000">name </text>
<text text-anchor="start" x="197.899" y="-534.4" font-family="Arial" font-size="14.00" fill="#666666">[varchar(30)]</text>
<polygon fill="none" stroke="#000000" points="152,-493 152,-523 373,-523 373,-493 152,-493"/>
<text text-anchor="start" x="159" y="-504.4" font-family="Arial" font-size="14.00" fill="#000000">field_format </text>
<text text-anchor="start" x="236.0098" y="-504.4" font-family="Arial" font-size="14.00" fill="#666666">[varchar(30)]</text>
<polygon fill="none" stroke="#000000" points="152,-463 152,-493 373,-493 373,-463 152,-463"/>
<text text-anchor="start" x="159" y="-474.4" font-family="Arial" font-size="14.00" fill="#000000">possible_values </text>
<text text-anchor="start" x="262.4712" y="-474.4" font-family="Arial" font-size="14.00" fill="#666666">[text]</text>
<polygon fill="none" stroke="#000000" points="152,-433 152,-463 373,-463 373,-433 152,-433"/>
<text text-anchor="start" x="159" y="-444.4" font-family="Arial" font-size="14.00" fill="#000000">regexp </text>
<text text-anchor="start" x="205.6816" y="-444.4" font-family="Arial" font-size="14.00" fill="#666666">[varchar(255)]</text>
<polygon fill="none" stroke="#000000" points="152,-403 152,-433 373,-433 373,-403 152,-403"/>
<text text-anchor="start" x="159" y="-414.4" font-family="Arial" font-size="14.00" fill="#000000">min_length </text>
<text text-anchor="start" x="231.3506" y="-414.4" font-family="Arial" font-size="14.00" fill="#666666">[int(11)]</text>
<polygon fill="none" stroke="#000000" points="152,-373 152,-403 373,-403 373,-373 152,-373"/>
<text text-anchor="start" x="159" y="-384.4" font-family="Arial" font-size="14.00" fill="#000000">max_length </text>
<text text-anchor="start" x="235.244" y="-384.4" font-family="Arial" font-size="14.00" fill="#666666">[int(11)]</text>
<polygon fill="none" stroke="#000000" points="152,-343 152,-373 373,-373 373,-343 152,-343"/>
<text text-anchor="start" x="159" y="-354.4" font-family="Arial" font-size="14.00" fill="#000000">is_required </text>
<text text-anchor="start" x="232.1206" y="-354.4" font-family="Arial" font-size="14.00" fill="#666666">[tinyint(1)]</text>
<polygon fill="none" stroke="#000000" points="152,-313 152,-343 373,-343 373,-313 152,-313"/>
<text text-anchor="start" x="159" y="-324.4" font-family="Arial" font-size="14.00" fill="#000000">is_for_all </text>
<text text-anchor="start" x="218.892" y="-324.4" font-family="Arial" font-size="14.00" fill="#666666">[tinyint(1)]</text>
<polygon fill="none" stroke="#000000" points="152,-283 152,-313 373,-313 373,-283 152,-283"/>
<text text-anchor="start" x="159" y="-294.4" font-family="Arial" font-size="14.00" fill="#000000">is_filter </text>
<text text-anchor="start" x="207.2174" y="-294.4" font-family="Arial" font-size="14.00" fill="#666666">[tinyint(1)]</text>
<polygon fill="none" stroke="#000000" points="152,-253 152,-283 373,-283 373,-253 152,-253"/>
<text text-anchor="start" x="159" y="-264.4" font-family="Arial" font-size="14.00" fill="#000000">position </text>
<text text-anchor="start" x="211.1248" y="-264.4" font-family="Arial" font-size="14.00" fill="#666666">[int(11)]</text>
<polygon fill="none" stroke="#000000" points="152,-223 152,-253 373,-253 373,-223 152,-223"/>
<text text-anchor="start" x="159" y="-234.4" font-family="Arial" font-size="14.00" fill="#000000">searchable </text>
<text text-anchor="start" x="231.3534" y="-234.4" font-family="Arial" font-size="14.00" fill="#666666">[tinyint(1)]</text>
<polygon fill="none" stroke="#000000" points="152,-193 152,-223 373,-223 373,-193 152,-193"/>
<text text-anchor="start" x="159" y="-204.4" font-family="Arial" font-size="14.00" fill="#000000">default_value </text>
<text text-anchor="start" x="246.1458" y="-204.4" font-family="Arial" font-size="14.00" fill="#666666">[text]</text>
<polygon fill="none" stroke="#000000" points="152,-163 152,-193 373,-193 373,-163 152,-163"/>
<text text-anchor="start" x="159" y="-174.4" font-family="Arial" font-size="14.00" fill="#000000">editable </text>
<text text-anchor="start" x="211.9074" y="-174.4" font-family="Arial" font-size="14.00" fill="#666666">[tinyint(1)]</text>
<polygon fill="none" stroke="#000000" points="152,-133 152,-163 373,-163 373,-133 152,-133"/>
<text text-anchor="start" x="159" y="-144.4" font-family="Arial" font-size="14.00" fill="#000000">visible </text>
<text text-anchor="start" x="201.7756" y="-144.4" font-family="Arial" font-size="14.00" fill="#666666">[tinyint(1)]</text>
<polygon fill="none" stroke="#000000" points="152,-103 152,-133 373,-133 373,-103 152,-103"/>
<text text-anchor="start" x="159" y="-114.4" font-family="Arial" font-size="14.00" fill="#000000">multiple </text>
<text text-anchor="start" x="211.1094" y="-114.4" font-family="Arial" font-size="14.00" fill="#666666">[tinyint(1)]</text>
<polygon fill="none" stroke="#000000" points="152,-73 152,-103 373,-103 373,-73 152,-73"/>
<text text-anchor="start" x="159" y="-84.4" font-family="Arial" font-size="14.00" fill="#000000">format_store </text>
<text text-anchor="start" x="241.4572" y="-84.4" font-family="Arial" font-size="14.00" fill="#666666">[text]</text>
<polygon fill="none" stroke="#000000" points="152,-43 152,-73 373,-73 373,-43 152,-43"/>
<text text-anchor="start" x="159" y="-54.4" font-family="Arial" font-size="14.00" fill="#000000">description </text>
<text text-anchor="start" x="230.568" y="-54.4" font-family="Arial" font-size="14.00" fill="#666666">[text]</text>
</g>
<!-- custom_field_enumerations&#45;&gt;custom_fields -->
<g id="edge1" class="edge">
<title>custom_field_enumerations:custom_field_id&#45;&gt;custom_fields:id</title>
<path fill="none" stroke="#000000" stroke-dasharray="5,2" d="M86.9924,-887.9048C-31.4512,-873.3826 24.06,-598 152,-598"/>
<polygon fill="#000000" stroke="#000000" points="87.0176,-887.9062 96.7328,-892.9921 92.0088,-888.2031 97,-888.5 97,-888.5 97,-888.5 92.0088,-888.2031 97.2672,-884.0079 87.0176,-887.9062 87.0176,-887.9062"/>
<text text-anchor="start" x="7.3245" y="-898.5" font-family="Arial" font-size="10.00" fill="#000000">Additional Relation</text>
</g>
</g>
</svg>
