<?xml version="1.0" encoding="UTF-8" standalone="no"?>
<!DOCTYPE svg PUBLIC "-//W3C//DTD SVG 1.1//EN"
 "http://www.w3.org/Graphics/SVG/1.1/DTD/svg11.dtd">
<!-- Generated by graphviz version 2.40.1 (20161225.0304)
 -->
<!-- Title: custom_fields_projects Pages: 1 -->
<svg width="394pt" height="206pt"
 viewBox="0.00 0.00 394.00 206.00" xmlns="http://www.w3.org/2000/svg" xmlns:xlink="http://www.w3.org/1999/xlink">
<g id="graph0" class="graph" transform="scale(1 1) rotate(0) translate(4 202)">
<title>custom_fields_projects</title>
<polygon fill="#ffffff" stroke="transparent" points="-4,4 -4,-202 390,-202 390,4 -4,4"/>
<!-- custom_fields_projects -->
<g id="node1" class="node">
<title>custom_fields_projects</title>
<polygon fill="#efefef" stroke="transparent" points="46,-106 46,-152 340,-152 340,-106 46,-106"/>
<polygon fill="none" stroke="#000000" points="46,-106 46,-152 340,-152 340,-106 46,-106"/>
<text text-anchor="start" x="52.8584" y="-129.8" font-family="Arial Bold" font-size="18.00" fill="#000000">custom_fields_projects</text>
<text text-anchor="start" x="235.8878" y="-129.8" font-family="Arial" font-size="14.00" fill="#000000"> </text>
<text text-anchor="start" x="239.7784" y="-129.8" font-family="Arial" font-size="14.00" fill="#666666">[BASE TABLE]</text>
<text text-anchor="start" x="72.8632" y="-115.4" font-family="Arial" font-size="14.00" fill="#333333">カスタムフィールド⇔プロジェクト</text>
<polygon fill="none" stroke="#000000" points="46,-76 46,-106 340,-106 340,-76 46,-76"/>
<text text-anchor="start" x="53" y="-87.4" font-family="Arial" font-size="14.00" fill="#000000">custom_field_id </text>
<text text-anchor="start" x="154.1304" y="-87.4" font-family="Arial" font-size="14.00" fill="#666666">[int(11)]</text>
<polygon fill="none" stroke="#000000" points="46,-46 46,-76 340,-76 340,-46 46,-46"/>
<text text-anchor="start" x="53" y="-57.4" font-family="Arial" font-size="14.00" fill="#000000">project_id </text>
<text text-anchor="start" x="117.568" y="-57.4" font-family="Arial" font-size="14.00" fill="#666666">[int(11)]</text>
<polygon fill="none" stroke="#000000" stroke-width="3" points="44.5,-44.5 44.5,-153.5 341.5,-153.5 341.5,-44.5 44.5,-44.5"/>
</g>
</g>
</svg>
