<?xml version="1.0" encoding="UTF-8" standalone="no"?>
<!DOCTYPE svg PUBLIC "-//W3C//DTD SVG 1.1//EN"
 "http://www.w3.org/Graphics/SVG/1.1/DTD/svg11.dtd">
<!-- Generated by graphviz version 2.40.1 (20161225.0304)
 -->
<!-- Title: documents Pages: 1 -->
<svg width="299pt" height="326pt"
 viewBox="0.00 0.00 299.00 326.00" xmlns="http://www.w3.org/2000/svg" xmlns:xlink="http://www.w3.org/1999/xlink">
<g id="graph0" class="graph" transform="scale(1 1) rotate(0) translate(4 322)">
<title>documents</title>
<polygon fill="#ffffff" stroke="transparent" points="-4,4 -4,-322 295,-322 295,4 -4,4"/>
<!-- documents -->
<g id="node1" class="node">
<title>documents</title>
<polygon fill="#efefef" stroke="transparent" points="46.5,-226 46.5,-272 245.5,-272 245.5,-226 46.5,-226"/>
<polygon fill="none" stroke="#000000" points="46.5,-226 46.5,-272 245.5,-272 245.5,-226 46.5,-226"/>
<text text-anchor="start" x="53.3604" y="-249.8" font-family="Arial Bold" font-size="18.00" fill="#000000">documents</text>
<text text-anchor="start" x="141.3858" y="-249.8" font-family="Arial" font-size="14.00" fill="#000000"> </text>
<text text-anchor="start" x="145.2764" y="-249.8" font-family="Arial" font-size="14.00" fill="#666666">[BASE TABLE]</text>
<text text-anchor="start" x="134.7202" y="-235.4" font-family="Arial" font-size="14.00" fill="#333333">文書</text>
<polygon fill="none" stroke="#000000" points="46.5,-196 46.5,-226 245.5,-226 245.5,-196 46.5,-196"/>
<text text-anchor="start" x="53.5" y="-207.4" font-family="Arial" font-size="14.00" fill="#000000">id </text>
<text text-anchor="start" x="68.2798" y="-207.4" font-family="Arial" font-size="14.00" fill="#666666">[int(11)]</text>
<polygon fill="none" stroke="#000000" points="46.5,-166 46.5,-196 245.5,-196 245.5,-166 46.5,-166"/>
<text text-anchor="start" x="53.5" y="-177.4" font-family="Arial" font-size="14.00" fill="#000000">project_id </text>
<text text-anchor="start" x="118.068" y="-177.4" font-family="Arial" font-size="14.00" fill="#666666">[int(11)]</text>
<polygon fill="none" stroke="#000000" points="46.5,-136 46.5,-166 245.5,-166 245.5,-136 46.5,-136"/>
<text text-anchor="start" x="53.5" y="-147.4" font-family="Arial" font-size="14.00" fill="#000000">category_id </text>
<text text-anchor="start" x="129.744" y="-147.4" font-family="Arial" font-size="14.00" fill="#666666">[int(11)]</text>
<polygon fill="none" stroke="#000000" points="46.5,-106 46.5,-136 245.5,-136 245.5,-106 46.5,-106"/>
<text text-anchor="start" x="53.5" y="-117.4" font-family="Arial" font-size="14.00" fill="#000000">title </text>
<text text-anchor="start" x="79.1676" y="-117.4" font-family="Arial" font-size="14.00" fill="#666666">[varchar(255)]</text>
<polygon fill="none" stroke="#000000" points="46.5,-76 46.5,-106 245.5,-106 245.5,-76 46.5,-76"/>
<text text-anchor="start" x="53.5" y="-87.4" font-family="Arial" font-size="14.00" fill="#000000">description </text>
<text text-anchor="start" x="125.068" y="-87.4" font-family="Arial" font-size="14.00" fill="#666666">[text]</text>
<polygon fill="none" stroke="#000000" points="46.5,-46 46.5,-76 245.5,-76 245.5,-46 46.5,-46"/>
<text text-anchor="start" x="53.5" y="-57.4" font-family="Arial" font-size="14.00" fill="#000000">created_on </text>
<text text-anchor="start" x="127.42" y="-57.4" font-family="Arial" font-size="14.00" fill="#666666">[timestamp]</text>
<polygon fill="none" stroke="#000000" stroke-width="3" points="44.5,-44.5 44.5,-273.5 246.5,-273.5 246.5,-44.5 44.5,-44.5"/>
</g>
</g>
</svg>
