<?xml version="1.0" encoding="UTF-8" standalone="no"?>
<!DOCTYPE svg PUBLIC "-//W3C//DTD SVG 1.1//EN"
 "http://www.w3.org/Graphics/SVG/1.1/DTD/svg11.dtd">
<!-- Generated by graphviz version 2.40.1 (20161225.0304)
 -->
<!-- Title: enumerations Pages: 1 -->
<svg width="907pt" height="416pt"
 viewBox="0.00 0.00 907.00 416.00" xmlns="http://www.w3.org/2000/svg" xmlns:xlink="http://www.w3.org/1999/xlink">
<g id="graph0" class="graph" transform="scale(1 1) rotate(0) translate(4 412)">
<title>enumerations</title>
<polygon fill="#ffffff" stroke="transparent" points="-4,4 -4,-412 903,-412 903,4 -4,4"/>
<!-- enumerations -->
<g id="node1" class="node">
<title>enumerations</title>
<polygon fill="#efefef" stroke="transparent" points="46.5,-316 46.5,-362 853.5,-362 853.5,-316 46.5,-316"/>
<polygon fill="none" stroke="#000000" points="46.5,-316 46.5,-362 853.5,-362 853.5,-316 46.5,-316"/>
<text text-anchor="start" x="346.861" y="-339.8" font-family="Arial Bold" font-size="18.00" fill="#000000">enumerations</text>
<text text-anchor="start" x="455.8852" y="-339.8" font-family="Arial" font-size="14.00" fill="#000000"> </text>
<text text-anchor="start" x="459.7758" y="-339.8" font-family="Arial" font-size="14.00" fill="#666666">[BASE TABLE]</text>
<text text-anchor="start" x="412.3988" y="-325.4" font-family="Arial" font-size="14.00" fill="#333333">選択肢の値</text>
<polygon fill="none" stroke="#000000" points="46.5,-286 46.5,-316 853.5,-316 853.5,-286 46.5,-286"/>
<text text-anchor="start" x="53.5" y="-297.4" font-family="Arial" font-size="14.00" fill="#000000">id </text>
<text text-anchor="start" x="68.2798" y="-297.4" font-family="Arial" font-size="14.00" fill="#666666">[int(11)]</text>
<polygon fill="none" stroke="#000000" points="46.5,-256 46.5,-286 853.5,-286 853.5,-256 46.5,-256"/>
<text text-anchor="start" x="53.5" y="-267.4" font-family="Arial" font-size="14.00" fill="#000000">name </text>
<text text-anchor="start" x="92.399" y="-267.4" font-family="Arial" font-size="14.00" fill="#666666">[varchar(30)]</text>
<polygon fill="none" stroke="#000000" points="46.5,-226 46.5,-256 853.5,-256 853.5,-226 46.5,-226"/>
<text text-anchor="start" x="53.5" y="-237.4" font-family="Arial" font-size="14.00" fill="#000000">position </text>
<text text-anchor="start" x="105.6248" y="-237.4" font-family="Arial" font-size="14.00" fill="#666666">[int(11)]</text>
<polygon fill="none" stroke="#000000" points="46.5,-196 46.5,-226 853.5,-226 853.5,-196 46.5,-196"/>
<text text-anchor="start" x="53.5" y="-207.4" font-family="Arial" font-size="14.00" fill="#000000">is_default </text>
<text text-anchor="start" x="117.298" y="-207.4" font-family="Arial" font-size="14.00" fill="#666666">[tinyint(1)]</text>
<polygon fill="none" stroke="#000000" points="46.5,-166 46.5,-196 853.5,-196 853.5,-166 46.5,-166"/>
<text text-anchor="start" x="53.3163" y="-177.4" font-family="Arial" font-size="14.00" fill="#000000">type </text>
<text text-anchor="start" x="83.6627" y="-177.4" font-family="Arial" font-size="14.00" fill="#666666">[varchar(255)]</text>
<text text-anchor="start" x="170.7819" y="-177.4" font-family="Arial" font-size="14.00" fill="#000000"> IssuePriority:チケットの優先度 / DocumentCategory:文書カテゴリ / TimeEntryActivity:作業分類 (時間管理)</text>
<polygon fill="none" stroke="#000000" points="46.5,-136 46.5,-166 853.5,-166 853.5,-136 46.5,-136"/>
<text text-anchor="start" x="53.5" y="-147.4" font-family="Arial" font-size="14.00" fill="#000000">active </text>
<text text-anchor="start" x="93.953" y="-147.4" font-family="Arial" font-size="14.00" fill="#666666">[tinyint(1)]</text>
<polygon fill="none" stroke="#000000" points="46.5,-106 46.5,-136 853.5,-136 853.5,-106 46.5,-106"/>
<text text-anchor="start" x="53.5" y="-117.4" font-family="Arial" font-size="14.00" fill="#000000">project_id </text>
<text text-anchor="start" x="118.068" y="-117.4" font-family="Arial" font-size="14.00" fill="#666666">[int(11)]</text>
<polygon fill="none" stroke="#000000" points="46.5,-76 46.5,-106 853.5,-106 853.5,-76 46.5,-76"/>
<text text-anchor="start" x="53.5" y="-87.4" font-family="Arial" font-size="14.00" fill="#000000">parent_id </text>
<text text-anchor="start" x="115.744" y="-87.4" font-family="Arial" font-size="14.00" fill="#666666">[int(11)]</text>
<polygon fill="none" stroke="#000000" points="46.5,-46 46.5,-76 853.5,-76 853.5,-46 46.5,-46"/>
<text text-anchor="start" x="53.5" y="-57.4" font-family="Arial" font-size="14.00" fill="#000000">position_name </text>
<text text-anchor="start" x="148.4158" y="-57.4" font-family="Arial" font-size="14.00" fill="#666666">[varchar(30)]</text>
<polygon fill="none" stroke="#000000" stroke-width="3" points="44.5,-44.5 44.5,-363.5 854.5,-363.5 854.5,-44.5 44.5,-44.5"/>
</g>
</g>
</svg>
