<?xml version="1.0" encoding="UTF-8" standalone="no"?>
<!DOCTYPE svg PUBLIC "-//W3C//DTD SVG 1.1//EN"
 "http://www.w3.org/Graphics/SVG/1.1/DTD/svg11.dtd">
<!-- Generated by graphviz version 2.40.1 (20161225.0304)
 -->
<!-- Title: groups_users Pages: 1 -->
<svg width="580pt" height="914pt"
 viewBox="0.00 0.00 579.52 914.00" xmlns="http://www.w3.org/2000/svg" xmlns:xlink="http://www.w3.org/1999/xlink">
<g id="graph0" class="graph" transform="scale(1 1) rotate(0) translate(4 910)">
<title>groups_users</title>
<polygon fill="#ffffff" stroke="transparent" points="-4,4 -4,-910 575.518,-910 575.518,4 -4,4"/>
<!-- groups_users -->
<g id="node1" class="node">
<title>groups_users</title>
<polygon fill="#efefef" stroke="transparent" points="174,-814 174,-860 394,-860 394,-814 174,-814"/>
<polygon fill="none" stroke="#000000" points="174,-814 174,-860 394,-860 394,-814 174,-814"/>
<text text-anchor="start" x="180.8592" y="-837.8" font-family="Arial Bold" font-size="18.00" fill="#000000">groups_users</text>
<text text-anchor="start" x="289.887" y="-837.8" font-family="Arial" font-size="14.00" fill="#000000"> </text>
<text text-anchor="start" x="293.7776" y="-837.8" font-family="Arial" font-size="14.00" fill="#666666">[BASE TABLE]</text>
<text text-anchor="start" x="205.4558" y="-823.4" font-family="Arial" font-size="14.00" fill="#333333">グループ⇔ユーザー</text>
<polygon fill="none" stroke="#000000" points="174,-784 174,-814 394,-814 394,-784 174,-784"/>
<text text-anchor="start" x="181" y="-795.4" font-family="Arial" font-size="14.00" fill="#000000">group_id </text>
<text text-anchor="start" x="239.3534" y="-795.4" font-family="Arial" font-size="14.00" fill="#666666">[int(11)]</text>
<polygon fill="none" stroke="#000000" points="174,-754 174,-784 394,-784 394,-754 174,-754"/>
<text text-anchor="start" x="181" y="-765.4" font-family="Arial" font-size="14.00" fill="#000000">user_id </text>
<text text-anchor="start" x="230.7882" y="-765.4" font-family="Arial" font-size="14.00" fill="#666666">[int(11)]</text>
<polygon fill="none" stroke="#000000" stroke-width="3" points="172.5,-752.5 172.5,-861.5 395.5,-861.5 395.5,-752.5 172.5,-752.5"/>
</g>
<!-- users -->
<g id="node2" class="node">
<title>users</title>
<polygon fill="#efefef" stroke="transparent" points="43,-583 43,-629 525,-629 525,-583 43,-583"/>
<polygon fill="none" stroke="#000000" points="43,-583 43,-629 525,-629 525,-583 43,-583"/>
<text text-anchor="start" x="213.3708" y="-606.8" font-family="Arial Bold" font-size="18.00" fill="#000000">users</text>
<text text-anchor="start" x="257.3754" y="-606.8" font-family="Arial" font-size="14.00" fill="#000000"> </text>
<text text-anchor="start" x="261.266" y="-606.8" font-family="Arial" font-size="14.00" fill="#666666">[BASE TABLE]</text>
<text text-anchor="start" x="205.4558" y="-592.4" font-family="Arial" font-size="14.00" fill="#333333">ユーザー / グループ</text>
<polygon fill="none" stroke="#000000" points="43,-553 43,-583 525,-583 525,-553 43,-553"/>
<text text-anchor="start" x="50" y="-564.4" font-family="Arial" font-size="14.00" fill="#000000">id </text>
<text text-anchor="start" x="64.7798" y="-564.4" font-family="Arial" font-size="14.00" fill="#666666">[int(11)]</text>
<polygon fill="none" stroke="#000000" points="43,-523 43,-553 525,-553 525,-523 43,-523"/>
<text text-anchor="start" x="50" y="-534.4" font-family="Arial" font-size="14.00" fill="#000000">login </text>
<text text-anchor="start" x="83.4516" y="-534.4" font-family="Arial" font-size="14.00" fill="#666666">[varchar(255)]</text>
<text text-anchor="start" x="170.5708" y="-534.4" font-family="Arial" font-size="14.00" fill="#000000"> ログインID</text>
<polygon fill="none" stroke="#000000" points="43,-493 43,-523 525,-523 525,-493 43,-493"/>
<text text-anchor="start" x="50" y="-504.4" font-family="Arial" font-size="14.00" fill="#000000">hashed_password </text>
<text text-anchor="start" x="167.4838" y="-504.4" font-family="Arial" font-size="14.00" fill="#666666">[varchar(40)]</text>
<text text-anchor="start" x="246.8204" y="-504.4" font-family="Arial" font-size="14.00" fill="#000000"> パスワード(ハッシュ化済み)</text>
<polygon fill="none" stroke="#000000" points="43,-463 43,-493 525,-493 525,-463 43,-463"/>
<text text-anchor="start" x="50" y="-474.4" font-family="Arial" font-size="14.00" fill="#000000">firstname </text>
<text text-anchor="start" x="111.4474" y="-474.4" font-family="Arial" font-size="14.00" fill="#666666">[varchar(30)]</text>
<text text-anchor="start" x="190.784" y="-474.4" font-family="Arial" font-size="14.00" fill="#000000"> 名</text>
<polygon fill="none" stroke="#000000" points="43,-433 43,-463 525,-463 525,-433 43,-433"/>
<text text-anchor="start" x="50" y="-444.4" font-family="Arial" font-size="14.00" fill="#000000">lastname </text>
<text text-anchor="start" x="110.6788" y="-444.4" font-family="Arial" font-size="14.00" fill="#666666">[varchar(255)]</text>
<text text-anchor="start" x="197.798" y="-444.4" font-family="Arial" font-size="14.00" fill="#000000"> 姓</text>
<polygon fill="none" stroke="#000000" points="43,-403 43,-433 525,-433 525,-403 43,-403"/>
<text text-anchor="start" x="50" y="-414.4" font-family="Arial" font-size="14.00" fill="#000000">admin </text>
<text text-anchor="start" x="92.0056" y="-414.4" font-family="Arial" font-size="14.00" fill="#666666">[tinyint(1)]</text>
<text text-anchor="start" x="153.4502" y="-414.4" font-family="Arial" font-size="14.00" fill="#000000"> システム管理者</text>
<polygon fill="none" stroke="#000000" points="43,-373 43,-403 525,-403 525,-373 43,-373"/>
<text text-anchor="start" x="50" y="-384.4" font-family="Arial" font-size="14.00" fill="#000000">status </text>
<text text-anchor="start" x="91.237" y="-384.4" font-family="Arial" font-size="14.00" fill="#666666">[int(11)]</text>
<polygon fill="none" stroke="#000000" points="43,-343 43,-373 525,-373 525,-343 43,-343"/>
<text text-anchor="start" x="50" y="-354.4" font-family="Arial" font-size="14.00" fill="#000000">last_login_on </text>
<text text-anchor="start" x="136.3618" y="-354.4" font-family="Arial" font-size="14.00" fill="#666666">[datetime]</text>
<polygon fill="none" stroke="#000000" points="43,-313 43,-343 525,-343 525,-313 43,-313"/>
<text text-anchor="start" x="50" y="-324.4" font-family="Arial" font-size="14.00" fill="#000000">language </text>
<text text-anchor="start" x="111.4754" y="-324.4" font-family="Arial" font-size="14.00" fill="#666666">[varchar(5)]</text>
<text text-anchor="start" x="183.0294" y="-324.4" font-family="Arial" font-size="14.00" fill="#000000"> 言語</text>
<polygon fill="none" stroke="#000000" points="43,-283 43,-313 525,-313 525,-283 43,-283"/>
<text text-anchor="start" x="50" y="-294.4" font-family="Arial" font-size="14.00" fill="#000000">auth_source_id </text>
<text text-anchor="start" x="149.5918" y="-294.4" font-family="Arial" font-size="14.00" fill="#666666">[int(11)]</text>
<polygon fill="none" stroke="#000000" points="43,-253 43,-283 525,-283 525,-253 43,-253"/>
<text text-anchor="start" x="50" y="-264.4" font-family="Arial" font-size="14.00" fill="#000000">created_on </text>
<text text-anchor="start" x="123.92" y="-264.4" font-family="Arial" font-size="14.00" fill="#666666">[timestamp]</text>
<polygon fill="none" stroke="#000000" points="43,-223 43,-253 525,-253 525,-223 43,-223"/>
<text text-anchor="start" x="50" y="-234.4" font-family="Arial" font-size="14.00" fill="#000000">updated_on </text>
<text text-anchor="start" x="127.8246" y="-234.4" font-family="Arial" font-size="14.00" fill="#666666">[timestamp]</text>
<polygon fill="none" stroke="#000000" points="43,-193 43,-223 525,-223 525,-193 43,-193"/>
<text text-anchor="start" x="50" y="-204.4" font-family="Arial" font-size="14.00" fill="#000000">type </text>
<text text-anchor="start" x="80.3464" y="-204.4" font-family="Arial" font-size="14.00" fill="#666666">[varchar(255)]</text>
<text text-anchor="start" x="167.4656" y="-204.4" font-family="Arial" font-size="14.00" fill="#000000"> User:ユーザー / Group:グループ</text>
<polygon fill="none" stroke="#000000" points="43,-163 43,-193 525,-193 525,-163 43,-163"/>
<text text-anchor="start" x="50" y="-174.4" font-family="Arial" font-size="14.00" fill="#000000">identity_url </text>
<text text-anchor="start" x="121.5652" y="-174.4" font-family="Arial" font-size="14.00" fill="#666666">[varchar(255)]</text>
<polygon fill="none" stroke="#000000" points="43,-133 43,-163 525,-163 525,-133 43,-133"/>
<text text-anchor="start" x="50" y="-144.4" font-family="Arial" font-size="14.00" fill="#000000">mail_notification </text>
<text text-anchor="start" x="154.2342" y="-144.4" font-family="Arial" font-size="14.00" fill="#666666">[varchar(255)]</text>
<text text-anchor="start" x="241.3534" y="-144.4" font-family="Arial" font-size="14.00" fill="#000000"> メール通知</text>
<polygon fill="none" stroke="#000000" points="43,-103 43,-133 525,-133 525,-103 43,-103"/>
<text text-anchor="start" x="50" y="-114.4" font-family="Arial" font-size="14.00" fill="#000000">salt </text>
<text text-anchor="start" x="75.6704" y="-114.4" font-family="Arial" font-size="14.00" fill="#666666">[varchar(64)]</text>
<polygon fill="none" stroke="#000000" points="43,-73 43,-103 525,-103 525,-73 43,-73"/>
<text text-anchor="start" x="49.7646" y="-84.4" font-family="Arial" font-size="14.00" fill="#000000">must_change_passwd </text>
<text text-anchor="start" x="192.9216" y="-84.4" font-family="Arial" font-size="14.00" fill="#666666">[tinyint(1)]</text>
<text text-anchor="start" x="254.3662" y="-84.4" font-family="Arial" font-size="14.00" fill="#000000"> 次回ログイン時にパスワード変更を強制</text>
<polygon fill="none" stroke="#000000" points="43,-43 43,-73 525,-73 525,-43 43,-43"/>
<text text-anchor="start" x="50" y="-54.4" font-family="Arial" font-size="14.00" fill="#000000">passwd_changed_on </text>
<text text-anchor="start" x="186.171" y="-54.4" font-family="Arial" font-size="14.00" fill="#666666">[datetime]</text>
</g>
<!-- groups_users&#45;&gt;users -->
<g id="edge1" class="edge">
<title>groups_users:group_id&#45;&gt;users:id</title>
<path fill="none" stroke="#000000" stroke-dasharray="5,2" d="M404.0529,-798.4547C519.2468,-786.1013 639.684,-568 525,-568"/>
<polygon fill="#000000" stroke="#000000" points="403.9853,-798.4583 393.7562,-794.5066 398.9927,-798.7291 394,-799 394,-799 394,-799 398.9927,-798.7291 394.2438,-803.4934 403.9853,-798.4583 403.9853,-798.4583"/>
<text text-anchor="start" x="401.3245" y="-809" font-family="Arial" font-size="10.00" fill="#000000">Additional Relation</text>
</g>
<!-- groups_users&#45;&gt;users -->
<g id="edge2" class="edge">
<title>groups_users:user_id&#45;&gt;users:id</title>
<path fill="none" stroke="#000000" stroke-dasharray="5,2" d="M284.5361,-743.7826C295.1742,-648.5713 461.2531,-761.0256 525,-672 551.91,-634.4188 571.2222,-568 525,-568"/>
<polygon fill="#000000" stroke="#000000" points="284.5241,-744.0137 279.5062,-753.7642 284.262,-749.0069 284,-754 284,-754 284,-754 284.262,-749.0069 288.4938,-754.2358 284.5241,-744.0137 284.5241,-744.0137"/>
<text text-anchor="start" x="267.0745" y="-738" font-family="Arial" font-size="10.00" fill="#000000">Additional Relation</text>
</g>
</g>
</svg>
