<?xml version="1.0" encoding="UTF-8" standalone="no"?>
<!DOCTYPE svg PUBLIC "-//W3C//DTD SVG 1.1//EN"
 "http://www.w3.org/Graphics/SVG/1.1/DTD/svg11.dtd">
<!-- Generated by graphviz version 2.40.1 (20161225.0304)
 -->
<!-- Title: issue_statuses Pages: 1 -->
<svg width="330pt" height="296pt"
 viewBox="0.00 0.00 330.00 296.00" xmlns="http://www.w3.org/2000/svg" xmlns:xlink="http://www.w3.org/1999/xlink">
<g id="graph0" class="graph" transform="scale(1 1) rotate(0) translate(4 292)">
<title>issue_statuses</title>
<polygon fill="#ffffff" stroke="transparent" points="-4,4 -4,-292 326,-292 326,4 -4,4"/>
<!-- issue_statuses -->
<g id="node1" class="node">
<title>issue_statuses</title>
<polygon fill="#efefef" stroke="transparent" points="46,-196 46,-242 276,-242 276,-196 46,-196"/>
<polygon fill="none" stroke="#000000" points="46,-196 46,-242 276,-242 276,-196 46,-196"/>
<text text-anchor="start" x="52.8552" y="-219.8" font-family="Arial Bold" font-size="18.00" fill="#000000">issue_statuses</text>
<text text-anchor="start" x="171.891" y="-219.8" font-family="Arial" font-size="14.00" fill="#000000"> </text>
<text text-anchor="start" x="175.7816" y="-219.8" font-family="Arial" font-size="14.00" fill="#666666">[BASE TABLE]</text>
<text text-anchor="start" x="120.4448" y="-205.4" font-family="Arial" font-size="14.00" fill="#333333">ステータス</text>
<polygon fill="none" stroke="#000000" points="46,-166 46,-196 276,-196 276,-166 46,-166"/>
<text text-anchor="start" x="53" y="-177.4" font-family="Arial" font-size="14.00" fill="#000000">id </text>
<text text-anchor="start" x="67.7798" y="-177.4" font-family="Arial" font-size="14.00" fill="#666666">[int(11)]</text>
<polygon fill="none" stroke="#000000" points="46,-136 46,-166 276,-166 276,-136 46,-136"/>
<text text-anchor="start" x="53" y="-147.4" font-family="Arial" font-size="14.00" fill="#000000">name </text>
<text text-anchor="start" x="91.899" y="-147.4" font-family="Arial" font-size="14.00" fill="#666666">[varchar(30)]</text>
<polygon fill="none" stroke="#000000" points="46,-106 46,-136 276,-136 276,-106 46,-106"/>
<text text-anchor="start" x="53" y="-117.4" font-family="Arial" font-size="14.00" fill="#000000">is_closed </text>
<text text-anchor="start" x="115.2342" y="-117.4" font-family="Arial" font-size="14.00" fill="#666666">[tinyint(1)]</text>
<polygon fill="none" stroke="#000000" points="46,-76 46,-106 276,-106 276,-76 46,-76"/>
<text text-anchor="start" x="53" y="-87.4" font-family="Arial" font-size="14.00" fill="#000000">position </text>
<text text-anchor="start" x="105.1248" y="-87.4" font-family="Arial" font-size="14.00" fill="#666666">[int(11)]</text>
<polygon fill="none" stroke="#000000" points="46,-46 46,-76 276,-76 276,-46 46,-46"/>
<text text-anchor="start" x="53" y="-57.4" font-family="Arial" font-size="14.00" fill="#000000">default_done_ratio </text>
<text text-anchor="start" x="172.8274" y="-57.4" font-family="Arial" font-size="14.00" fill="#666666">[int(11)]</text>
<polygon fill="none" stroke="#000000" stroke-width="3" points="44.5,-44.5 44.5,-243.5 277.5,-243.5 277.5,-44.5 44.5,-44.5"/>
</g>
</g>
</svg>
