<?xml version="1.0" encoding="UTF-8" standalone="no"?>
<!DOCTYPE svg PUBLIC "-//W3C//DTD SVG 1.1//EN"
 "http://www.w3.org/Graphics/SVG/1.1/DTD/svg11.dtd">
<!-- Generated by graphviz version 2.40.1 (20161225.0304)
 -->
<!-- Title: issue_categories Pages: 1 -->
<svg width="890pt" height="1862pt"
 viewBox="0.00 0.00 889.50 1862.00" xmlns="http://www.w3.org/2000/svg" xmlns:xlink="http://www.w3.org/1999/xlink">
<g id="graph0" class="graph" transform="scale(1 1) rotate(0) translate(4 1858)">
<title>issue_categories</title>
<polygon fill="#ffffff" stroke="transparent" points="-4,4 -4,-1858 885.5,-1858 885.5,4 -4,4"/>
<!-- issue_categories -->
<g id="node1" class="node">
<title>issue_categories</title>
<polygon fill="#efefef" stroke="transparent" points="249.5,-874 249.5,-920 495.5,-920 495.5,-874 249.5,-874"/>
<polygon fill="none" stroke="#000000" points="249.5,-874 249.5,-920 495.5,-920 495.5,-874 249.5,-874"/>
<text text-anchor="start" x="256.3569" y="-897.8" font-family="Arial Bold" font-size="18.00" fill="#000000">issue_categories</text>
<text text-anchor="start" x="391.3893" y="-897.8" font-family="Arial" font-size="14.00" fill="#000000"> </text>
<text text-anchor="start" x="395.2799" y="-897.8" font-family="Arial" font-size="14.00" fill="#666666">[BASE TABLE]</text>
<text text-anchor="start" x="332.7148" y="-883.4" font-family="Arial" font-size="14.00" fill="#333333">カテゴリー</text>
<polygon fill="none" stroke="#000000" points="249.5,-844 249.5,-874 495.5,-874 495.5,-844 249.5,-844"/>
<text text-anchor="start" x="256.5" y="-855.4" font-family="Arial" font-size="14.00" fill="#000000">id </text>
<text text-anchor="start" x="271.2798" y="-855.4" font-family="Arial" font-size="14.00" fill="#666666">[int(11)]</text>
<polygon fill="none" stroke="#000000" points="249.5,-814 249.5,-844 495.5,-844 495.5,-814 249.5,-814"/>
<text text-anchor="start" x="256.5" y="-825.4" font-family="Arial" font-size="14.00" fill="#000000">project_id </text>
<text text-anchor="start" x="321.068" y="-825.4" font-family="Arial" font-size="14.00" fill="#666666">[int(11)]</text>
<polygon fill="none" stroke="#000000" points="249.5,-784 249.5,-814 495.5,-814 495.5,-784 249.5,-784"/>
<text text-anchor="start" x="256.5" y="-795.4" font-family="Arial" font-size="14.00" fill="#000000">name </text>
<text text-anchor="start" x="295.399" y="-795.4" font-family="Arial" font-size="14.00" fill="#666666">[varchar(60)]</text>
<polygon fill="none" stroke="#000000" points="249.5,-754 249.5,-784 495.5,-784 495.5,-754 249.5,-754"/>
<text text-anchor="start" x="256.5" y="-765.4" font-family="Arial" font-size="14.00" fill="#000000">assigned_to_id </text>
<text text-anchor="start" x="354.5378" y="-765.4" font-family="Arial" font-size="14.00" fill="#666666">[int(11)]</text>
<polygon fill="none" stroke="#000000" stroke-width="3" points="248,-752.5 248,-921.5 497,-921.5 497,-752.5 248,-752.5"/>
</g>
<!-- projects -->
<g id="node3" class="node">
<title>projects</title>
<polygon fill="#efefef" stroke="transparent" points="43.5,-538 43.5,-584 252.5,-584 252.5,-538 43.5,-538"/>
<polygon fill="none" stroke="#000000" points="43.5,-538 43.5,-584 252.5,-584 252.5,-538 43.5,-538"/>
<text text-anchor="start" x="67.8695" y="-561.8" font-family="Arial Bold" font-size="18.00" fill="#000000">projects</text>
<text text-anchor="start" x="130.8767" y="-561.8" font-family="Arial" font-size="14.00" fill="#000000"> </text>
<text text-anchor="start" x="134.7673" y="-561.8" font-family="Arial" font-size="14.00" fill="#666666">[BASE TABLE]</text>
<text text-anchor="start" x="105.6269" y="-547.4" font-family="Arial" font-size="14.00" fill="#333333">プロジェクト</text>
<polygon fill="none" stroke="#000000" points="43.5,-508 43.5,-538 252.5,-538 252.5,-508 43.5,-508"/>
<text text-anchor="start" x="50.5" y="-519.4" font-family="Arial" font-size="14.00" fill="#000000">id </text>
<text text-anchor="start" x="65.2798" y="-519.4" font-family="Arial" font-size="14.00" fill="#666666">[int(11)]</text>
<polygon fill="none" stroke="#000000" points="43.5,-478 43.5,-508 252.5,-508 252.5,-478 43.5,-478"/>
<text text-anchor="start" x="50.5" y="-489.4" font-family="Arial" font-size="14.00" fill="#000000">name </text>
<text text-anchor="start" x="89.399" y="-489.4" font-family="Arial" font-size="14.00" fill="#666666">[varchar(255)]</text>
<polygon fill="none" stroke="#000000" points="43.5,-448 43.5,-478 252.5,-478 252.5,-448 43.5,-448"/>
<text text-anchor="start" x="50.5" y="-459.4" font-family="Arial" font-size="14.00" fill="#000000">description </text>
<text text-anchor="start" x="122.068" y="-459.4" font-family="Arial" font-size="14.00" fill="#666666">[text]</text>
<polygon fill="none" stroke="#000000" points="43.5,-418 43.5,-448 252.5,-448 252.5,-418 43.5,-418"/>
<text text-anchor="start" x="50.5" y="-429.4" font-family="Arial" font-size="14.00" fill="#000000">homepage </text>
<text text-anchor="start" x="120.5294" y="-429.4" font-family="Arial" font-size="14.00" fill="#666666">[varchar(255)]</text>
<polygon fill="none" stroke="#000000" points="43.5,-388 43.5,-418 252.5,-418 252.5,-388 43.5,-388"/>
<text text-anchor="start" x="50.5" y="-399.4" font-family="Arial" font-size="14.00" fill="#000000">is_public </text>
<text text-anchor="start" x="108.8408" y="-399.4" font-family="Arial" font-size="14.00" fill="#666666">[tinyint(1)]</text>
<polygon fill="none" stroke="#000000" points="43.5,-358 43.5,-388 252.5,-388 252.5,-358 43.5,-358"/>
<text text-anchor="start" x="50.5" y="-369.4" font-family="Arial" font-size="14.00" fill="#000000">parent_id </text>
<text text-anchor="start" x="112.744" y="-369.4" font-family="Arial" font-size="14.00" fill="#666666">[int(11)]</text>
<polygon fill="none" stroke="#000000" points="43.5,-328 43.5,-358 252.5,-358 252.5,-328 43.5,-328"/>
<text text-anchor="start" x="50.5" y="-339.4" font-family="Arial" font-size="14.00" fill="#000000">created_on </text>
<text text-anchor="start" x="124.42" y="-339.4" font-family="Arial" font-size="14.00" fill="#666666">[timestamp]</text>
<polygon fill="none" stroke="#000000" points="43.5,-298 43.5,-328 252.5,-328 252.5,-298 43.5,-298"/>
<text text-anchor="start" x="50.5" y="-309.4" font-family="Arial" font-size="14.00" fill="#000000">updated_on </text>
<text text-anchor="start" x="128.3246" y="-309.4" font-family="Arial" font-size="14.00" fill="#666666">[timestamp]</text>
<polygon fill="none" stroke="#000000" points="43.5,-268 43.5,-298 252.5,-298 252.5,-268 43.5,-268"/>
<text text-anchor="start" x="50.5" y="-279.4" font-family="Arial" font-size="14.00" fill="#000000">identifier </text>
<text text-anchor="start" x="107.2826" y="-279.4" font-family="Arial" font-size="14.00" fill="#666666">[varchar(255)]</text>
<polygon fill="none" stroke="#000000" points="43.5,-238 43.5,-268 252.5,-268 252.5,-238 43.5,-238"/>
<text text-anchor="start" x="50.5" y="-249.4" font-family="Arial" font-size="14.00" fill="#000000">status </text>
<text text-anchor="start" x="91.737" y="-249.4" font-family="Arial" font-size="14.00" fill="#666666">[int(11)]</text>
<polygon fill="none" stroke="#000000" points="43.5,-208 43.5,-238 252.5,-238 252.5,-208 43.5,-208"/>
<text text-anchor="start" x="50.5" y="-219.4" font-family="Arial" font-size="14.00" fill="#000000">lft </text>
<text text-anchor="start" x="65.2784" y="-219.4" font-family="Arial" font-size="14.00" fill="#666666">[int(11)]</text>
<polygon fill="none" stroke="#000000" points="43.5,-178 43.5,-208 252.5,-208 252.5,-178 43.5,-178"/>
<text text-anchor="start" x="50.5" y="-189.4" font-family="Arial" font-size="14.00" fill="#000000">rgt </text>
<text text-anchor="start" x="70.7244" y="-189.4" font-family="Arial" font-size="14.00" fill="#666666">[int(11)]</text>
<polygon fill="none" stroke="#000000" points="43.5,-148 43.5,-178 252.5,-178 252.5,-148 43.5,-148"/>
<text text-anchor="start" x="50.5" y="-159.4" font-family="Arial" font-size="14.00" fill="#000000">inherit_members </text>
<text text-anchor="start" x="158.615" y="-159.4" font-family="Arial" font-size="14.00" fill="#666666">[tinyint(1)]</text>
<polygon fill="none" stroke="#000000" points="43.5,-118 43.5,-148 252.5,-148 252.5,-118 43.5,-118"/>
<text text-anchor="start" x="50.5" y="-129.4" font-family="Arial" font-size="14.00" fill="#000000">default_version_id </text>
<text text-anchor="start" x="167.9782" y="-129.4" font-family="Arial" font-size="14.00" fill="#666666">[int(11)]</text>
<polygon fill="none" stroke="#000000" points="43.5,-88 43.5,-118 252.5,-118 252.5,-88 43.5,-88"/>
<text text-anchor="start" x="50.357" y="-99.4" font-family="Arial" font-size="14.00" fill="#000000">default_assigned_to_id </text>
<text text-anchor="start" x="198.1956" y="-99.4" font-family="Arial" font-size="14.00" fill="#666666">[int(11)]</text>
</g>
<!-- issue_categories&#45;&gt;projects -->
<g id="edge2" class="edge">
<title>issue_categories:project_id&#45;&gt;projects:id</title>
<path fill="none" stroke="#000000" stroke-dasharray="5,2" d="M239.2483,-828.3261C128.2259,-812.4944 384.7876,-523 252.5,-523"/>
<polygon fill="#000000" stroke="#000000" points="239.5215,-828.344 249.2048,-833.4903 244.5108,-828.672 249.5,-829 249.5,-829 249.5,-829 244.5108,-828.672 249.7952,-824.5097 239.5215,-828.344 239.5215,-828.344"/>
<text text-anchor="start" x="159.8245" y="-839" font-family="Arial" font-size="10.00" fill="#000000">Additional Relation</text>
</g>
<!-- users -->
<g id="node4" class="node">
<title>users</title>
<polygon fill="#efefef" stroke="transparent" points="356.5,-583 356.5,-629 838.5,-629 838.5,-583 356.5,-583"/>
<polygon fill="none" stroke="#000000" points="356.5,-583 356.5,-629 838.5,-629 838.5,-583 356.5,-583"/>
<text text-anchor="start" x="526.8708" y="-606.8" font-family="Arial Bold" font-size="18.00" fill="#000000">users</text>
<text text-anchor="start" x="570.8754" y="-606.8" font-family="Arial" font-size="14.00" fill="#000000"> </text>
<text text-anchor="start" x="574.766" y="-606.8" font-family="Arial" font-size="14.00" fill="#666666">[BASE TABLE]</text>
<text text-anchor="start" x="518.9558" y="-592.4" font-family="Arial" font-size="14.00" fill="#333333">ユーザー / グループ</text>
<polygon fill="none" stroke="#000000" points="356.5,-553 356.5,-583 838.5,-583 838.5,-553 356.5,-553"/>
<text text-anchor="start" x="363.5" y="-564.4" font-family="Arial" font-size="14.00" fill="#000000">id </text>
<text text-anchor="start" x="378.2798" y="-564.4" font-family="Arial" font-size="14.00" fill="#666666">[int(11)]</text>
<polygon fill="none" stroke="#000000" points="356.5,-523 356.5,-553 838.5,-553 838.5,-523 356.5,-523"/>
<text text-anchor="start" x="363.5" y="-534.4" font-family="Arial" font-size="14.00" fill="#000000">login </text>
<text text-anchor="start" x="396.9516" y="-534.4" font-family="Arial" font-size="14.00" fill="#666666">[varchar(255)]</text>
<text text-anchor="start" x="484.0708" y="-534.4" font-family="Arial" font-size="14.00" fill="#000000"> ログインID</text>
<polygon fill="none" stroke="#000000" points="356.5,-493 356.5,-523 838.5,-523 838.5,-493 356.5,-493"/>
<text text-anchor="start" x="363.5" y="-504.4" font-family="Arial" font-size="14.00" fill="#000000">hashed_password </text>
<text text-anchor="start" x="480.9838" y="-504.4" font-family="Arial" font-size="14.00" fill="#666666">[varchar(40)]</text>
<text text-anchor="start" x="560.3204" y="-504.4" font-family="Arial" font-size="14.00" fill="#000000"> パスワード(ハッシュ化済み)</text>
<polygon fill="none" stroke="#000000" points="356.5,-463 356.5,-493 838.5,-493 838.5,-463 356.5,-463"/>
<text text-anchor="start" x="363.5" y="-474.4" font-family="Arial" font-size="14.00" fill="#000000">firstname </text>
<text text-anchor="start" x="424.9474" y="-474.4" font-family="Arial" font-size="14.00" fill="#666666">[varchar(30)]</text>
<text text-anchor="start" x="504.284" y="-474.4" font-family="Arial" font-size="14.00" fill="#000000"> 名</text>
<polygon fill="none" stroke="#000000" points="356.5,-433 356.5,-463 838.5,-463 838.5,-433 356.5,-433"/>
<text text-anchor="start" x="363.5" y="-444.4" font-family="Arial" font-size="14.00" fill="#000000">lastname </text>
<text text-anchor="start" x="424.1788" y="-444.4" font-family="Arial" font-size="14.00" fill="#666666">[varchar(255)]</text>
<text text-anchor="start" x="511.298" y="-444.4" font-family="Arial" font-size="14.00" fill="#000000"> 姓</text>
<polygon fill="none" stroke="#000000" points="356.5,-403 356.5,-433 838.5,-433 838.5,-403 356.5,-403"/>
<text text-anchor="start" x="363.5" y="-414.4" font-family="Arial" font-size="14.00" fill="#000000">admin </text>
<text text-anchor="start" x="405.5056" y="-414.4" font-family="Arial" font-size="14.00" fill="#666666">[tinyint(1)]</text>
<text text-anchor="start" x="466.9502" y="-414.4" font-family="Arial" font-size="14.00" fill="#000000"> システム管理者</text>
<polygon fill="none" stroke="#000000" points="356.5,-373 356.5,-403 838.5,-403 838.5,-373 356.5,-373"/>
<text text-anchor="start" x="363.5" y="-384.4" font-family="Arial" font-size="14.00" fill="#000000">status </text>
<text text-anchor="start" x="404.737" y="-384.4" font-family="Arial" font-size="14.00" fill="#666666">[int(11)]</text>
<polygon fill="none" stroke="#000000" points="356.5,-343 356.5,-373 838.5,-373 838.5,-343 356.5,-343"/>
<text text-anchor="start" x="363.5" y="-354.4" font-family="Arial" font-size="14.00" fill="#000000">last_login_on </text>
<text text-anchor="start" x="449.8618" y="-354.4" font-family="Arial" font-size="14.00" fill="#666666">[datetime]</text>
<polygon fill="none" stroke="#000000" points="356.5,-313 356.5,-343 838.5,-343 838.5,-313 356.5,-313"/>
<text text-anchor="start" x="363.5" y="-324.4" font-family="Arial" font-size="14.00" fill="#000000">language </text>
<text text-anchor="start" x="424.9754" y="-324.4" font-family="Arial" font-size="14.00" fill="#666666">[varchar(5)]</text>
<text text-anchor="start" x="496.5294" y="-324.4" font-family="Arial" font-size="14.00" fill="#000000"> 言語</text>
<polygon fill="none" stroke="#000000" points="356.5,-283 356.5,-313 838.5,-313 838.5,-283 356.5,-283"/>
<text text-anchor="start" x="363.5" y="-294.4" font-family="Arial" font-size="14.00" fill="#000000">auth_source_id </text>
<text text-anchor="start" x="463.0918" y="-294.4" font-family="Arial" font-size="14.00" fill="#666666">[int(11)]</text>
<polygon fill="none" stroke="#000000" points="356.5,-253 356.5,-283 838.5,-283 838.5,-253 356.5,-253"/>
<text text-anchor="start" x="363.5" y="-264.4" font-family="Arial" font-size="14.00" fill="#000000">created_on </text>
<text text-anchor="start" x="437.42" y="-264.4" font-family="Arial" font-size="14.00" fill="#666666">[timestamp]</text>
<polygon fill="none" stroke="#000000" points="356.5,-223 356.5,-253 838.5,-253 838.5,-223 356.5,-223"/>
<text text-anchor="start" x="363.5" y="-234.4" font-family="Arial" font-size="14.00" fill="#000000">updated_on </text>
<text text-anchor="start" x="441.3246" y="-234.4" font-family="Arial" font-size="14.00" fill="#666666">[timestamp]</text>
<polygon fill="none" stroke="#000000" points="356.5,-193 356.5,-223 838.5,-223 838.5,-193 356.5,-193"/>
<text text-anchor="start" x="363.5" y="-204.4" font-family="Arial" font-size="14.00" fill="#000000">type </text>
<text text-anchor="start" x="393.8464" y="-204.4" font-family="Arial" font-size="14.00" fill="#666666">[varchar(255)]</text>
<text text-anchor="start" x="480.9656" y="-204.4" font-family="Arial" font-size="14.00" fill="#000000"> User:ユーザー / Group:グループ</text>
<polygon fill="none" stroke="#000000" points="356.5,-163 356.5,-193 838.5,-193 838.5,-163 356.5,-163"/>
<text text-anchor="start" x="363.5" y="-174.4" font-family="Arial" font-size="14.00" fill="#000000">identity_url </text>
<text text-anchor="start" x="435.0652" y="-174.4" font-family="Arial" font-size="14.00" fill="#666666">[varchar(255)]</text>
<polygon fill="none" stroke="#000000" points="356.5,-133 356.5,-163 838.5,-163 838.5,-133 356.5,-133"/>
<text text-anchor="start" x="363.5" y="-144.4" font-family="Arial" font-size="14.00" fill="#000000">mail_notification </text>
<text text-anchor="start" x="467.7342" y="-144.4" font-family="Arial" font-size="14.00" fill="#666666">[varchar(255)]</text>
<text text-anchor="start" x="554.8534" y="-144.4" font-family="Arial" font-size="14.00" fill="#000000"> メール通知</text>
<polygon fill="none" stroke="#000000" points="356.5,-103 356.5,-133 838.5,-133 838.5,-103 356.5,-103"/>
<text text-anchor="start" x="363.5" y="-114.4" font-family="Arial" font-size="14.00" fill="#000000">salt </text>
<text text-anchor="start" x="389.1704" y="-114.4" font-family="Arial" font-size="14.00" fill="#666666">[varchar(64)]</text>
<polygon fill="none" stroke="#000000" points="356.5,-73 356.5,-103 838.5,-103 838.5,-73 356.5,-73"/>
<text text-anchor="start" x="363.2646" y="-84.4" font-family="Arial" font-size="14.00" fill="#000000">must_change_passwd </text>
<text text-anchor="start" x="506.4216" y="-84.4" font-family="Arial" font-size="14.00" fill="#666666">[tinyint(1)]</text>
<text text-anchor="start" x="567.8662" y="-84.4" font-family="Arial" font-size="14.00" fill="#000000"> 次回ログイン時にパスワード変更を強制</text>
<polygon fill="none" stroke="#000000" points="356.5,-43 356.5,-73 838.5,-73 838.5,-43 356.5,-43"/>
<text text-anchor="start" x="363.5" y="-54.4" font-family="Arial" font-size="14.00" fill="#000000">passwd_changed_on </text>
<text text-anchor="start" x="499.671" y="-54.4" font-family="Arial" font-size="14.00" fill="#666666">[datetime]</text>
</g>
<!-- issue_categories&#45;&gt;users -->
<g id="edge3" class="edge">
<title>issue_categories:assigned_to_id&#45;&gt;users:id</title>
<path fill="none" stroke="#000000" stroke-dasharray="5,2" d="M505.5727,-766.3225C519.1762,-757.0797 509.5013,-726.0895 495.5,-708 456.4396,-657.5344 395.5604,-722.4656 356.5,-672 328.2084,-635.4476 310.2778,-568 356.5,-568"/>
<polygon fill="#000000" stroke="#000000" points="505.1644,-766.431 494.344,-764.651 500.3322,-767.7155 495.5,-769 495.5,-769 495.5,-769 500.3322,-767.7155 496.656,-773.349 505.1644,-766.431 505.1644,-766.431"/>
<text text-anchor="start" x="502.8245" y="-779" font-family="Arial" font-size="10.00" fill="#000000">Additional Relation</text>
</g>
<!-- issues -->
<g id="node2" class="node">
<title>issues</title>
<polygon fill="#efefef" stroke="transparent" points="221.5,-1765 221.5,-1811 522.5,-1811 522.5,-1765 221.5,-1765"/>
<polygon fill="none" stroke="#000000" points="221.5,-1765 221.5,-1811 522.5,-1811 522.5,-1765 221.5,-1765"/>
<text text-anchor="start" x="297.8698" y="-1788.8" font-family="Arial Bold" font-size="18.00" fill="#000000">issues</text>
<text text-anchor="start" x="348.8764" y="-1788.8" font-family="Arial" font-size="14.00" fill="#000000"> </text>
<text text-anchor="start" x="352.767" y="-1788.8" font-family="Arial" font-size="14.00" fill="#666666">[BASE TABLE]</text>
<text text-anchor="start" x="344.1344" y="-1774.4" font-family="Arial" font-size="14.00" fill="#333333">チケット</text>
<polygon fill="none" stroke="#000000" points="221.5,-1735 221.5,-1765 522.5,-1765 522.5,-1735 221.5,-1735"/>
<text text-anchor="start" x="228.5" y="-1746.4" font-family="Arial" font-size="14.00" fill="#000000">id </text>
<text text-anchor="start" x="243.2798" y="-1746.4" font-family="Arial" font-size="14.00" fill="#666666">[int(11)]</text>
<polygon fill="none" stroke="#000000" points="221.5,-1705 221.5,-1735 522.5,-1735 522.5,-1705 221.5,-1705"/>
<text text-anchor="start" x="228.5" y="-1716.4" font-family="Arial" font-size="14.00" fill="#000000">tracker_id </text>
<text text-anchor="start" x="293.8394" y="-1716.4" font-family="Arial" font-size="14.00" fill="#666666">[int(11)]</text>
<text text-anchor="start" x="341.2868" y="-1716.4" font-family="Arial" font-size="14.00" fill="#000000"> トラッカーID</text>
<polygon fill="none" stroke="#000000" points="221.5,-1675 221.5,-1705 522.5,-1705 522.5,-1675 221.5,-1675"/>
<text text-anchor="start" x="228.5" y="-1686.4" font-family="Arial" font-size="14.00" fill="#000000">project_id </text>
<text text-anchor="start" x="293.068" y="-1686.4" font-family="Arial" font-size="14.00" fill="#666666">[int(11)]</text>
<text text-anchor="start" x="340.5154" y="-1686.4" font-family="Arial" font-size="14.00" fill="#000000"> プロジェクトID</text>
<polygon fill="none" stroke="#000000" points="221.5,-1645 221.5,-1675 522.5,-1675 522.5,-1645 221.5,-1645"/>
<text text-anchor="start" x="228.5" y="-1656.4" font-family="Arial" font-size="14.00" fill="#000000">subject </text>
<text text-anchor="start" x="276.7356" y="-1656.4" font-family="Arial" font-size="14.00" fill="#666666">[varchar(255)]</text>
<text text-anchor="start" x="363.8548" y="-1656.4" font-family="Arial" font-size="14.00" fill="#000000"> 題名</text>
<polygon fill="none" stroke="#000000" points="221.5,-1615 221.5,-1645 522.5,-1645 522.5,-1615 221.5,-1615"/>
<text text-anchor="start" x="228.5" y="-1626.4" font-family="Arial" font-size="14.00" fill="#000000">description </text>
<text text-anchor="start" x="300.068" y="-1626.4" font-family="Arial" font-size="14.00" fill="#666666">[longtext]</text>
<text text-anchor="start" x="356.8674" y="-1626.4" font-family="Arial" font-size="14.00" fill="#000000"> 説明</text>
<polygon fill="none" stroke="#000000" points="221.5,-1585 221.5,-1615 522.5,-1615 522.5,-1585 221.5,-1585"/>
<text text-anchor="start" x="228.5" y="-1596.4" font-family="Arial" font-size="14.00" fill="#000000">due_date </text>
<text text-anchor="start" x="290.7594" y="-1596.4" font-family="Arial" font-size="14.00" fill="#666666">[date]</text>
<text text-anchor="start" x="325.779" y="-1596.4" font-family="Arial" font-size="14.00" fill="#000000"> 期日</text>
<polygon fill="none" stroke="#000000" points="221.5,-1555 221.5,-1585 522.5,-1585 522.5,-1555 221.5,-1555"/>
<text text-anchor="start" x="228.5" y="-1566.4" font-family="Arial" font-size="14.00" fill="#000000">category_id </text>
<text text-anchor="start" x="304.744" y="-1566.4" font-family="Arial" font-size="14.00" fill="#666666">[int(11)]</text>
<text text-anchor="start" x="352.1914" y="-1566.4" font-family="Arial" font-size="14.00" fill="#000000"> カテゴリーID</text>
<polygon fill="none" stroke="#000000" points="221.5,-1525 221.5,-1555 522.5,-1555 522.5,-1525 221.5,-1525"/>
<text text-anchor="start" x="228.5" y="-1536.4" font-family="Arial" font-size="14.00" fill="#000000">status_id </text>
<text text-anchor="start" x="288.4088" y="-1536.4" font-family="Arial" font-size="14.00" fill="#666666">[int(11)]</text>
<text text-anchor="start" x="335.8562" y="-1536.4" font-family="Arial" font-size="14.00" fill="#000000"> ステータスID</text>
<polygon fill="none" stroke="#000000" points="221.5,-1495 221.5,-1525 522.5,-1525 522.5,-1495 221.5,-1495"/>
<text text-anchor="start" x="228.5" y="-1506.4" font-family="Arial" font-size="14.00" fill="#000000">assigned_to_id </text>
<text text-anchor="start" x="326.5378" y="-1506.4" font-family="Arial" font-size="14.00" fill="#666666">[int(11)]</text>
<text text-anchor="start" x="373.9852" y="-1506.4" font-family="Arial" font-size="14.00" fill="#000000"> 担当者ID</text>
<polygon fill="none" stroke="#000000" points="221.5,-1465 221.5,-1495 522.5,-1495 522.5,-1465 221.5,-1465"/>
<text text-anchor="start" x="228.5" y="-1476.4" font-family="Arial" font-size="14.00" fill="#000000">priority_id </text>
<text text-anchor="start" x="293.0526" y="-1476.4" font-family="Arial" font-size="14.00" fill="#666666">[int(11)]</text>
<text text-anchor="start" x="340.5" y="-1476.4" font-family="Arial" font-size="14.00" fill="#000000"> 優先度ID</text>
<polygon fill="none" stroke="#000000" points="221.5,-1435 221.5,-1465 522.5,-1465 522.5,-1435 221.5,-1435"/>
<text text-anchor="start" x="228.3635" y="-1446.4" font-family="Arial" font-size="14.00" fill="#000000">fixed_version_id </text>
<text text-anchor="start" x="333.3859" y="-1446.4" font-family="Arial" font-size="14.00" fill="#666666">[int(11)]</text>
<text text-anchor="start" x="380.8333" y="-1446.4" font-family="Arial" font-size="14.00" fill="#000000"> 対象バージョンID</text>
<polygon fill="none" stroke="#000000" points="221.5,-1405 221.5,-1435 522.5,-1435 522.5,-1405 221.5,-1405"/>
<text text-anchor="start" x="228.5" y="-1416.4" font-family="Arial" font-size="14.00" fill="#000000">author_id </text>
<text text-anchor="start" x="290.744" y="-1416.4" font-family="Arial" font-size="14.00" fill="#666666">[int(11)]</text>
<text text-anchor="start" x="338.1914" y="-1416.4" font-family="Arial" font-size="14.00" fill="#000000"> 登録者ID</text>
<polygon fill="none" stroke="#000000" points="221.5,-1375 221.5,-1405 522.5,-1405 522.5,-1375 221.5,-1375"/>
<text text-anchor="start" x="228.5" y="-1386.4" font-family="Arial" font-size="14.00" fill="#000000">lock_version </text>
<text text-anchor="start" x="310.1774" y="-1386.4" font-family="Arial" font-size="14.00" fill="#666666">[int(11)]</text>
<text text-anchor="start" x="357.6248" y="-1386.4" font-family="Arial" font-size="14.00" fill="#000000"> ロックバージョン</text>
<polygon fill="none" stroke="#000000" points="221.5,-1345 221.5,-1375 522.5,-1375 522.5,-1345 221.5,-1345"/>
<text text-anchor="start" x="228.5" y="-1356.4" font-family="Arial" font-size="14.00" fill="#000000">created_on </text>
<text text-anchor="start" x="302.42" y="-1356.4" font-family="Arial" font-size="14.00" fill="#666666">[timestamp]</text>
<polygon fill="none" stroke="#000000" points="221.5,-1315 221.5,-1345 522.5,-1345 522.5,-1315 221.5,-1315"/>
<text text-anchor="start" x="228.5" y="-1326.4" font-family="Arial" font-size="14.00" fill="#000000">updated_on </text>
<text text-anchor="start" x="306.3246" y="-1326.4" font-family="Arial" font-size="14.00" fill="#666666">[timestamp]</text>
<polygon fill="none" stroke="#000000" points="221.5,-1285 221.5,-1315 522.5,-1315 522.5,-1285 221.5,-1285"/>
<text text-anchor="start" x="228.5" y="-1296.4" font-family="Arial" font-size="14.00" fill="#000000">start_date </text>
<text text-anchor="start" x="294.636" y="-1296.4" font-family="Arial" font-size="14.00" fill="#666666">[date]</text>
<text text-anchor="start" x="329.6556" y="-1296.4" font-family="Arial" font-size="14.00" fill="#000000"> 開始日</text>
<polygon fill="none" stroke="#000000" points="221.5,-1255 221.5,-1285 522.5,-1285 522.5,-1255 221.5,-1255"/>
<text text-anchor="start" x="228.5" y="-1266.4" font-family="Arial" font-size="14.00" fill="#000000">done_ratio </text>
<text text-anchor="start" x="298.5266" y="-1266.4" font-family="Arial" font-size="14.00" fill="#666666">[int(11)]</text>
<text text-anchor="start" x="345.974" y="-1266.4" font-family="Arial" font-size="14.00" fill="#000000"> 進捗率</text>
<polygon fill="none" stroke="#000000" points="221.5,-1225 221.5,-1255 522.5,-1255 522.5,-1225 221.5,-1225"/>
<text text-anchor="start" x="228.5" y="-1236.4" font-family="Arial" font-size="14.00" fill="#000000">estimated_hours </text>
<text text-anchor="start" x="335.8604" y="-1236.4" font-family="Arial" font-size="14.00" fill="#666666">[float]</text>
<text text-anchor="start" x="370.0946" y="-1236.4" font-family="Arial" font-size="14.00" fill="#000000"> 予定工数</text>
<polygon fill="none" stroke="#000000" points="221.5,-1195 221.5,-1225 522.5,-1225 522.5,-1195 221.5,-1195"/>
<text text-anchor="start" x="228.5" y="-1206.4" font-family="Arial" font-size="14.00" fill="#000000">parent_id </text>
<text text-anchor="start" x="290.744" y="-1206.4" font-family="Arial" font-size="14.00" fill="#666666">[int(11)]</text>
<text text-anchor="start" x="338.1914" y="-1206.4" font-family="Arial" font-size="14.00" fill="#000000"> 親チケット</text>
<polygon fill="none" stroke="#000000" points="221.5,-1165 221.5,-1195 522.5,-1195 522.5,-1165 221.5,-1165"/>
<text text-anchor="start" x="228.5" y="-1176.4" font-family="Arial" font-size="14.00" fill="#000000">root_id </text>
<text text-anchor="start" x="275.1788" y="-1176.4" font-family="Arial" font-size="14.00" fill="#666666">[int(11)]</text>
<text text-anchor="start" x="322.6262" y="-1176.4" font-family="Arial" font-size="14.00" fill="#000000"> ルートID</text>
<polygon fill="none" stroke="#000000" points="221.5,-1135 221.5,-1165 522.5,-1165 522.5,-1135 221.5,-1135"/>
<text text-anchor="start" x="228.5" y="-1146.4" font-family="Arial" font-size="14.00" fill="#000000">lft </text>
<text text-anchor="start" x="243.2784" y="-1146.4" font-family="Arial" font-size="14.00" fill="#666666">[int(11)]</text>
<text text-anchor="start" x="290.7258" y="-1146.4" font-family="Arial" font-size="14.00" fill="#000000"> 左ノードポインタ</text>
<polygon fill="none" stroke="#000000" points="221.5,-1105 221.5,-1135 522.5,-1135 522.5,-1105 221.5,-1105"/>
<text text-anchor="start" x="228.5" y="-1116.4" font-family="Arial" font-size="14.00" fill="#000000">rgt </text>
<text text-anchor="start" x="248.7244" y="-1116.4" font-family="Arial" font-size="14.00" fill="#666666">[int(11)]</text>
<text text-anchor="start" x="296.1718" y="-1116.4" font-family="Arial" font-size="14.00" fill="#000000"> 右ノードポインタ</text>
<polygon fill="none" stroke="#000000" points="221.5,-1075 221.5,-1105 522.5,-1105 522.5,-1075 221.5,-1075"/>
<text text-anchor="start" x="228.5" y="-1086.4" font-family="Arial" font-size="14.00" fill="#000000">is_private </text>
<text text-anchor="start" x="292.2854" y="-1086.4" font-family="Arial" font-size="14.00" fill="#666666">[tinyint(1)]</text>
<text text-anchor="start" x="353.73" y="-1086.4" font-family="Arial" font-size="14.00" fill="#000000"> プライベート</text>
<polygon fill="none" stroke="#000000" points="221.5,-1045 221.5,-1075 522.5,-1075 522.5,-1045 221.5,-1045"/>
<text text-anchor="start" x="228.5" y="-1056.4" font-family="Arial" font-size="14.00" fill="#000000">closed_on </text>
<text text-anchor="start" x="296.1928" y="-1056.4" font-family="Arial" font-size="14.00" fill="#666666">[datetime]</text>
<text text-anchor="start" x="357.6528" y="-1056.4" font-family="Arial" font-size="14.00" fill="#000000"> 完了日時</text>
</g>
<!-- issues&#45;&gt;issue_categories -->
<g id="edge1" class="edge">
<title>issues:category_id&#45;&gt;issue_categories:id</title>
<path fill="none" stroke="#000000" stroke-dasharray="5,2" d="M532.665,-1569.7894C772.5774,-1559.6942 686.6527,-1189.2203 522.5,-1002 441.8166,-909.9785 330.1834,-1058.0215 249.5,-966 218.1482,-930.2425 201.9444,-859 249.5,-859"/>
<polygon fill="#000000" stroke="#000000" points="532.4979,-1569.7927 522.4067,-1565.501 527.4989,-1569.8964 522.5,-1570 522.5,-1570 522.5,-1570 527.4989,-1569.8964 522.5933,-1574.499 532.4979,-1569.7927 532.4979,-1569.7927"/>
<text text-anchor="start" x="529.8245" y="-1580" font-family="Arial" font-size="10.00" fill="#000000">Additional Relation</text>
</g>
</g>
</svg>
