<?xml version="1.0" encoding="UTF-8" standalone="no"?>
<!DOCTYPE svg PUBLIC "-//W3C//DTD SVG 1.1//EN"
 "http://www.w3.org/Graphics/SVG/1.1/DTD/svg11.dtd">
<!-- Generated by graphviz version 2.40.1 (20161225.0304)
 -->
<!-- Title: issue_relations Pages: 1 -->
<svg width="331pt" height="296pt"
 viewBox="0.00 0.00 331.00 296.00" xmlns="http://www.w3.org/2000/svg" xmlns:xlink="http://www.w3.org/1999/xlink">
<g id="graph0" class="graph" transform="scale(1 1) rotate(0) translate(4 292)">
<title>issue_relations</title>
<polygon fill="#ffffff" stroke="transparent" points="-4,4 -4,-292 327,-292 327,4 -4,4"/>
<!-- issue_relations -->
<g id="node1" class="node">
<title>issue_relations</title>
<polygon fill="#efefef" stroke="transparent" points="46.5,-196 46.5,-242 277.5,-242 277.5,-196 46.5,-196"/>
<polygon fill="none" stroke="#000000" points="46.5,-196 46.5,-242 277.5,-242 277.5,-196 46.5,-196"/>
<text text-anchor="start" x="53.3629" y="-219.8" font-family="Arial Bold" font-size="18.00" fill="#000000">issue_relations</text>
<text text-anchor="start" x="173.3833" y="-219.8" font-family="Arial" font-size="14.00" fill="#000000"> </text>
<text text-anchor="start" x="177.2739" y="-219.8" font-family="Arial" font-size="14.00" fill="#666666">[BASE TABLE]</text>
<text text-anchor="start" x="111.5706" y="-205.4" font-family="Arial" font-size="14.00" fill="#333333">関連チケット</text>
<polygon fill="none" stroke="#000000" points="46.5,-166 46.5,-196 277.5,-196 277.5,-166 46.5,-166"/>
<text text-anchor="start" x="53.5" y="-177.4" font-family="Arial" font-size="14.00" fill="#000000">id </text>
<text text-anchor="start" x="68.2798" y="-177.4" font-family="Arial" font-size="14.00" fill="#666666">[int(11)]</text>
<polygon fill="none" stroke="#000000" points="46.5,-136 46.5,-166 277.5,-166 277.5,-136 46.5,-136"/>
<text text-anchor="start" x="53.5" y="-147.4" font-family="Arial" font-size="14.00" fill="#000000">issue_from_id </text>
<text text-anchor="start" x="144.5112" y="-147.4" font-family="Arial" font-size="14.00" fill="#666666">[int(11)]</text>
<polygon fill="none" stroke="#000000" points="46.5,-106 46.5,-136 277.5,-136 277.5,-106 46.5,-106"/>
<text text-anchor="start" x="53.5" y="-117.4" font-family="Arial" font-size="14.00" fill="#000000">issue_to_id </text>
<text text-anchor="start" x="128.19" y="-117.4" font-family="Arial" font-size="14.00" fill="#666666">[int(11)]</text>
<polygon fill="none" stroke="#000000" points="46.5,-76 46.5,-106 277.5,-106 277.5,-76 46.5,-76"/>
<text text-anchor="start" x="53.5" y="-87.4" font-family="Arial" font-size="14.00" fill="#000000">relation_type </text>
<text text-anchor="start" x="137.5238" y="-87.4" font-family="Arial" font-size="14.00" fill="#666666">[varchar(255)]</text>
<polygon fill="none" stroke="#000000" points="46.5,-46 46.5,-76 277.5,-76 277.5,-46 46.5,-46"/>
<text text-anchor="start" x="53.5" y="-57.4" font-family="Arial" font-size="14.00" fill="#000000">delay </text>
<text text-anchor="start" x="90.845" y="-57.4" font-family="Arial" font-size="14.00" fill="#666666">[int(11)]</text>
<polygon fill="none" stroke="#000000" stroke-width="3" points="44.5,-44.5 44.5,-243.5 278.5,-243.5 278.5,-44.5 44.5,-44.5"/>
</g>
</g>
</svg>
