<?xml version="1.0" encoding="UTF-8" standalone="no"?>
<!DOCTYPE svg PUBLIC "-//W3C//DTD SVG 1.1//EN"
 "http://www.w3.org/Graphics/SVG/1.1/DTD/svg11.dtd">
<!-- Generated by graphviz version 2.40.1 (20161225.0304)
 -->
<!-- Title: issues Pages: 1 -->
<svg width="2764pt" height="1892pt"
 viewBox="0.00 0.00 2764.00 1892.00" xmlns="http://www.w3.org/2000/svg" xmlns:xlink="http://www.w3.org/1999/xlink">
<g id="graph0" class="graph" transform="scale(1 1) rotate(0) translate(4 1888)">
<title>issues</title>
<polygon fill="#ffffff" stroke="transparent" points="-4,4 -4,-1888 2760,-1888 2760,4 -4,4"/>
<!-- issues -->
<g id="node1" class="node">
<title>issues</title>
<polygon fill="#efefef" stroke="transparent" points="949.5,-1474 949.5,-1520 1250.5,-1520 1250.5,-1474 949.5,-1474"/>
<polygon fill="none" stroke="#000000" points="949.5,-1474 949.5,-1520 1250.5,-1520 1250.5,-1474 949.5,-1474"/>
<text text-anchor="start" x="1025.8698" y="-1497.8" font-family="Arial Bold" font-size="18.00" fill="#000000">issues</text>
<text text-anchor="start" x="1076.8764" y="-1497.8" font-family="Arial" font-size="14.00" fill="#000000"> </text>
<text text-anchor="start" x="1080.767" y="-1497.8" font-family="Arial" font-size="14.00" fill="#666666">[BASE TABLE]</text>
<text text-anchor="start" x="1072.1344" y="-1483.4" font-family="Arial" font-size="14.00" fill="#333333">チケット</text>
<polygon fill="none" stroke="#000000" points="949.5,-1444 949.5,-1474 1250.5,-1474 1250.5,-1444 949.5,-1444"/>
<text text-anchor="start" x="956.5" y="-1455.4" font-family="Arial" font-size="14.00" fill="#000000">id </text>
<text text-anchor="start" x="971.2798" y="-1455.4" font-family="Arial" font-size="14.00" fill="#666666">[int(11)]</text>
<polygon fill="none" stroke="#000000" points="949.5,-1414 949.5,-1444 1250.5,-1444 1250.5,-1414 949.5,-1414"/>
<text text-anchor="start" x="956.5" y="-1425.4" font-family="Arial" font-size="14.00" fill="#000000">tracker_id </text>
<text text-anchor="start" x="1021.8394" y="-1425.4" font-family="Arial" font-size="14.00" fill="#666666">[int(11)]</text>
<text text-anchor="start" x="1069.2868" y="-1425.4" font-family="Arial" font-size="14.00" fill="#000000"> トラッカーID</text>
<polygon fill="none" stroke="#000000" points="949.5,-1384 949.5,-1414 1250.5,-1414 1250.5,-1384 949.5,-1384"/>
<text text-anchor="start" x="956.5" y="-1395.4" font-family="Arial" font-size="14.00" fill="#000000">project_id </text>
<text text-anchor="start" x="1021.068" y="-1395.4" font-family="Arial" font-size="14.00" fill="#666666">[int(11)]</text>
<text text-anchor="start" x="1068.5154" y="-1395.4" font-family="Arial" font-size="14.00" fill="#000000"> プロジェクトID</text>
<polygon fill="none" stroke="#000000" points="949.5,-1354 949.5,-1384 1250.5,-1384 1250.5,-1354 949.5,-1354"/>
<text text-anchor="start" x="956.5" y="-1365.4" font-family="Arial" font-size="14.00" fill="#000000">subject </text>
<text text-anchor="start" x="1004.7356" y="-1365.4" font-family="Arial" font-size="14.00" fill="#666666">[varchar(255)]</text>
<text text-anchor="start" x="1091.8548" y="-1365.4" font-family="Arial" font-size="14.00" fill="#000000"> 題名</text>
<polygon fill="none" stroke="#000000" points="949.5,-1324 949.5,-1354 1250.5,-1354 1250.5,-1324 949.5,-1324"/>
<text text-anchor="start" x="956.5" y="-1335.4" font-family="Arial" font-size="14.00" fill="#000000">description </text>
<text text-anchor="start" x="1028.068" y="-1335.4" font-family="Arial" font-size="14.00" fill="#666666">[longtext]</text>
<text text-anchor="start" x="1084.8674" y="-1335.4" font-family="Arial" font-size="14.00" fill="#000000"> 説明</text>
<polygon fill="none" stroke="#000000" points="949.5,-1294 949.5,-1324 1250.5,-1324 1250.5,-1294 949.5,-1294"/>
<text text-anchor="start" x="956.5" y="-1305.4" font-family="Arial" font-size="14.00" fill="#000000">due_date </text>
<text text-anchor="start" x="1018.7594" y="-1305.4" font-family="Arial" font-size="14.00" fill="#666666">[date]</text>
<text text-anchor="start" x="1053.779" y="-1305.4" font-family="Arial" font-size="14.00" fill="#000000"> 期日</text>
<polygon fill="none" stroke="#000000" points="949.5,-1264 949.5,-1294 1250.5,-1294 1250.5,-1264 949.5,-1264"/>
<text text-anchor="start" x="956.5" y="-1275.4" font-family="Arial" font-size="14.00" fill="#000000">category_id </text>
<text text-anchor="start" x="1032.744" y="-1275.4" font-family="Arial" font-size="14.00" fill="#666666">[int(11)]</text>
<text text-anchor="start" x="1080.1914" y="-1275.4" font-family="Arial" font-size="14.00" fill="#000000"> カテゴリーID</text>
<polygon fill="none" stroke="#000000" points="949.5,-1234 949.5,-1264 1250.5,-1264 1250.5,-1234 949.5,-1234"/>
<text text-anchor="start" x="956.5" y="-1245.4" font-family="Arial" font-size="14.00" fill="#000000">status_id </text>
<text text-anchor="start" x="1016.4088" y="-1245.4" font-family="Arial" font-size="14.00" fill="#666666">[int(11)]</text>
<text text-anchor="start" x="1063.8562" y="-1245.4" font-family="Arial" font-size="14.00" fill="#000000"> ステータスID</text>
<polygon fill="none" stroke="#000000" points="949.5,-1204 949.5,-1234 1250.5,-1234 1250.5,-1204 949.5,-1204"/>
<text text-anchor="start" x="956.5" y="-1215.4" font-family="Arial" font-size="14.00" fill="#000000">assigned_to_id </text>
<text text-anchor="start" x="1054.5378" y="-1215.4" font-family="Arial" font-size="14.00" fill="#666666">[int(11)]</text>
<text text-anchor="start" x="1101.9852" y="-1215.4" font-family="Arial" font-size="14.00" fill="#000000"> 担当者ID</text>
<polygon fill="none" stroke="#000000" points="949.5,-1174 949.5,-1204 1250.5,-1204 1250.5,-1174 949.5,-1174"/>
<text text-anchor="start" x="956.5" y="-1185.4" font-family="Arial" font-size="14.00" fill="#000000">priority_id </text>
<text text-anchor="start" x="1021.0526" y="-1185.4" font-family="Arial" font-size="14.00" fill="#666666">[int(11)]</text>
<text text-anchor="start" x="1068.5" y="-1185.4" font-family="Arial" font-size="14.00" fill="#000000"> 優先度ID</text>
<polygon fill="none" stroke="#000000" points="949.5,-1144 949.5,-1174 1250.5,-1174 1250.5,-1144 949.5,-1144"/>
<text text-anchor="start" x="956.3635" y="-1155.4" font-family="Arial" font-size="14.00" fill="#000000">fixed_version_id </text>
<text text-anchor="start" x="1061.3859" y="-1155.4" font-family="Arial" font-size="14.00" fill="#666666">[int(11)]</text>
<text text-anchor="start" x="1108.8333" y="-1155.4" font-family="Arial" font-size="14.00" fill="#000000"> 対象バージョンID</text>
<polygon fill="none" stroke="#000000" points="949.5,-1114 949.5,-1144 1250.5,-1144 1250.5,-1114 949.5,-1114"/>
<text text-anchor="start" x="956.5" y="-1125.4" font-family="Arial" font-size="14.00" fill="#000000">author_id </text>
<text text-anchor="start" x="1018.744" y="-1125.4" font-family="Arial" font-size="14.00" fill="#666666">[int(11)]</text>
<text text-anchor="start" x="1066.1914" y="-1125.4" font-family="Arial" font-size="14.00" fill="#000000"> 登録者ID</text>
<polygon fill="none" stroke="#000000" points="949.5,-1084 949.5,-1114 1250.5,-1114 1250.5,-1084 949.5,-1084"/>
<text text-anchor="start" x="956.5" y="-1095.4" font-family="Arial" font-size="14.00" fill="#000000">lock_version </text>
<text text-anchor="start" x="1038.1774" y="-1095.4" font-family="Arial" font-size="14.00" fill="#666666">[int(11)]</text>
<text text-anchor="start" x="1085.6248" y="-1095.4" font-family="Arial" font-size="14.00" fill="#000000"> ロックバージョン</text>
<polygon fill="none" stroke="#000000" points="949.5,-1054 949.5,-1084 1250.5,-1084 1250.5,-1054 949.5,-1054"/>
<text text-anchor="start" x="956.5" y="-1065.4" font-family="Arial" font-size="14.00" fill="#000000">created_on </text>
<text text-anchor="start" x="1030.42" y="-1065.4" font-family="Arial" font-size="14.00" fill="#666666">[timestamp]</text>
<polygon fill="none" stroke="#000000" points="949.5,-1024 949.5,-1054 1250.5,-1054 1250.5,-1024 949.5,-1024"/>
<text text-anchor="start" x="956.5" y="-1035.4" font-family="Arial" font-size="14.00" fill="#000000">updated_on </text>
<text text-anchor="start" x="1034.3246" y="-1035.4" font-family="Arial" font-size="14.00" fill="#666666">[timestamp]</text>
<polygon fill="none" stroke="#000000" points="949.5,-994 949.5,-1024 1250.5,-1024 1250.5,-994 949.5,-994"/>
<text text-anchor="start" x="956.5" y="-1005.4" font-family="Arial" font-size="14.00" fill="#000000">start_date </text>
<text text-anchor="start" x="1022.636" y="-1005.4" font-family="Arial" font-size="14.00" fill="#666666">[date]</text>
<text text-anchor="start" x="1057.6556" y="-1005.4" font-family="Arial" font-size="14.00" fill="#000000"> 開始日</text>
<polygon fill="none" stroke="#000000" points="949.5,-964 949.5,-994 1250.5,-994 1250.5,-964 949.5,-964"/>
<text text-anchor="start" x="956.5" y="-975.4" font-family="Arial" font-size="14.00" fill="#000000">done_ratio </text>
<text text-anchor="start" x="1026.5266" y="-975.4" font-family="Arial" font-size="14.00" fill="#666666">[int(11)]</text>
<text text-anchor="start" x="1073.974" y="-975.4" font-family="Arial" font-size="14.00" fill="#000000"> 進捗率</text>
<polygon fill="none" stroke="#000000" points="949.5,-934 949.5,-964 1250.5,-964 1250.5,-934 949.5,-934"/>
<text text-anchor="start" x="956.5" y="-945.4" font-family="Arial" font-size="14.00" fill="#000000">estimated_hours </text>
<text text-anchor="start" x="1063.8604" y="-945.4" font-family="Arial" font-size="14.00" fill="#666666">[float]</text>
<text text-anchor="start" x="1098.0946" y="-945.4" font-family="Arial" font-size="14.00" fill="#000000"> 予定工数</text>
<polygon fill="none" stroke="#000000" points="949.5,-904 949.5,-934 1250.5,-934 1250.5,-904 949.5,-904"/>
<text text-anchor="start" x="956.5" y="-915.4" font-family="Arial" font-size="14.00" fill="#000000">parent_id </text>
<text text-anchor="start" x="1018.744" y="-915.4" font-family="Arial" font-size="14.00" fill="#666666">[int(11)]</text>
<text text-anchor="start" x="1066.1914" y="-915.4" font-family="Arial" font-size="14.00" fill="#000000"> 親チケット</text>
<polygon fill="none" stroke="#000000" points="949.5,-874 949.5,-904 1250.5,-904 1250.5,-874 949.5,-874"/>
<text text-anchor="start" x="956.5" y="-885.4" font-family="Arial" font-size="14.00" fill="#000000">root_id </text>
<text text-anchor="start" x="1003.1788" y="-885.4" font-family="Arial" font-size="14.00" fill="#666666">[int(11)]</text>
<text text-anchor="start" x="1050.6262" y="-885.4" font-family="Arial" font-size="14.00" fill="#000000"> ルートID</text>
<polygon fill="none" stroke="#000000" points="949.5,-844 949.5,-874 1250.5,-874 1250.5,-844 949.5,-844"/>
<text text-anchor="start" x="956.5" y="-855.4" font-family="Arial" font-size="14.00" fill="#000000">lft </text>
<text text-anchor="start" x="971.2784" y="-855.4" font-family="Arial" font-size="14.00" fill="#666666">[int(11)]</text>
<text text-anchor="start" x="1018.7258" y="-855.4" font-family="Arial" font-size="14.00" fill="#000000"> 左ノードポインタ</text>
<polygon fill="none" stroke="#000000" points="949.5,-814 949.5,-844 1250.5,-844 1250.5,-814 949.5,-814"/>
<text text-anchor="start" x="956.5" y="-825.4" font-family="Arial" font-size="14.00" fill="#000000">rgt </text>
<text text-anchor="start" x="976.7244" y="-825.4" font-family="Arial" font-size="14.00" fill="#666666">[int(11)]</text>
<text text-anchor="start" x="1024.1718" y="-825.4" font-family="Arial" font-size="14.00" fill="#000000"> 右ノードポインタ</text>
<polygon fill="none" stroke="#000000" points="949.5,-784 949.5,-814 1250.5,-814 1250.5,-784 949.5,-784"/>
<text text-anchor="start" x="956.5" y="-795.4" font-family="Arial" font-size="14.00" fill="#000000">is_private </text>
<text text-anchor="start" x="1020.2854" y="-795.4" font-family="Arial" font-size="14.00" fill="#666666">[tinyint(1)]</text>
<text text-anchor="start" x="1081.73" y="-795.4" font-family="Arial" font-size="14.00" fill="#000000"> プライベート</text>
<polygon fill="none" stroke="#000000" points="949.5,-754 949.5,-784 1250.5,-784 1250.5,-754 949.5,-754"/>
<text text-anchor="start" x="956.5" y="-765.4" font-family="Arial" font-size="14.00" fill="#000000">closed_on </text>
<text text-anchor="start" x="1024.1928" y="-765.4" font-family="Arial" font-size="14.00" fill="#666666">[datetime]</text>
<text text-anchor="start" x="1085.6528" y="-765.4" font-family="Arial" font-size="14.00" fill="#000000"> 完了日時</text>
<polygon fill="none" stroke="#000000" stroke-width="3" points="947.5,-752.5 947.5,-1521.5 1251.5,-1521.5 1251.5,-752.5 947.5,-752.5"/>
</g>
<!-- issues&#45;&gt;issues -->
<g id="edge1" class="edge">
<title>issues:parent_id&#45;&gt;issues:id</title>
<path fill="none" stroke="#000000" stroke-dasharray="5,2" d="M1101.3601,-944.5735C1109.4902,-1208.7441 1109.2035,-1869 1100.5,-1869 1091.7197,-1869 1091.5054,-1676.7429 1099.8569,-1474.2208"/>
<polygon fill="#000000" stroke="#000000" points="1101.3481,-944.1953 1105.5274,-934.0571 1101.1889,-939.1979 1101.0297,-934.2004 1101.0297,-934.2004 1101.0297,-934.2004 1101.1889,-939.1979 1096.532,-934.3437 1101.3481,-944.1953 1101.3481,-944.1953"/>
<text text-anchor="start" x="1011.3542" y="-944.2004" font-family="Arial" font-size="10.00" fill="#000000">Additional Relation</text>
</g>
<!-- issues&#45;&gt;issues -->
<g id="edge2" class="edge">
<title>issues:root_id&#45;&gt;issues:id</title>
<path fill="none" stroke="#000000" stroke-dasharray="5,2" d="M1101.348,-914.2745C1109.4905,-1180.0066 1109.2079,-1869 1100.5,-1869 1091.7197,-1869 1091.5054,-1676.7429 1099.8569,-1474.2208"/>
<polygon fill="#000000" stroke="#000000" points="1101.3467,-914.231 1105.5274,-904.0933 1101.1882,-909.2335 1101.0297,-904.236 1101.0297,-904.236 1101.0297,-904.236 1101.1882,-909.2335 1096.532,-904.3786 1101.3467,-914.231 1101.3467,-914.231"/>
<text text-anchor="start" x="1011.3542" y="-914.236" font-family="Arial" font-size="10.00" fill="#000000">Additional Relation</text>
</g>
<!-- trackers -->
<g id="node3" class="node">
<title>trackers</title>
<polygon fill="#efefef" stroke="transparent" points="43.5,-433 43.5,-479 218.5,-479 218.5,-433 43.5,-433"/>
<polygon fill="none" stroke="#000000" points="43.5,-433 43.5,-479 218.5,-479 218.5,-433 43.5,-433"/>
<text text-anchor="start" x="50.3736" y="-456.8" font-family="Arial Bold" font-size="18.00" fill="#000000">trackers</text>
<text text-anchor="start" x="114.3726" y="-456.8" font-family="Arial" font-size="14.00" fill="#000000"> </text>
<text text-anchor="start" x="118.2632" y="-456.8" font-family="Arial" font-size="14.00" fill="#666666">[BASE TABLE]</text>
<text text-anchor="start" x="92.2088" y="-442.4" font-family="Arial" font-size="14.00" fill="#333333">トラッカー</text>
<polygon fill="none" stroke="#000000" points="43.5,-403 43.5,-433 218.5,-433 218.5,-403 43.5,-403"/>
<text text-anchor="start" x="50.5" y="-414.4" font-family="Arial" font-size="14.00" fill="#000000">id </text>
<text text-anchor="start" x="65.2798" y="-414.4" font-family="Arial" font-size="14.00" fill="#666666">[int(11)]</text>
<polygon fill="none" stroke="#000000" points="43.5,-373 43.5,-403 218.5,-403 218.5,-373 43.5,-373"/>
<text text-anchor="start" x="50.5" y="-384.4" font-family="Arial" font-size="14.00" fill="#000000">name </text>
<text text-anchor="start" x="89.399" y="-384.4" font-family="Arial" font-size="14.00" fill="#666666">[varchar(30)]</text>
<polygon fill="none" stroke="#000000" points="43.5,-343 43.5,-373 218.5,-373 218.5,-343 43.5,-343"/>
<text text-anchor="start" x="50.5" y="-354.4" font-family="Arial" font-size="14.00" fill="#000000">description </text>
<text text-anchor="start" x="122.068" y="-354.4" font-family="Arial" font-size="14.00" fill="#666666">[varchar(255)]</text>
<polygon fill="none" stroke="#000000" points="43.5,-313 43.5,-343 218.5,-343 218.5,-313 43.5,-313"/>
<text text-anchor="start" x="50.5" y="-324.4" font-family="Arial" font-size="14.00" fill="#000000">is_in_chlog </text>
<text text-anchor="start" x="124.406" y="-324.4" font-family="Arial" font-size="14.00" fill="#666666">[tinyint(1)]</text>
<polygon fill="none" stroke="#000000" points="43.5,-283 43.5,-313 218.5,-313 218.5,-283 43.5,-283"/>
<text text-anchor="start" x="50.5" y="-294.4" font-family="Arial" font-size="14.00" fill="#000000">position </text>
<text text-anchor="start" x="102.6248" y="-294.4" font-family="Arial" font-size="14.00" fill="#666666">[int(11)]</text>
<polygon fill="none" stroke="#000000" points="43.5,-253 43.5,-283 218.5,-283 218.5,-253 43.5,-253"/>
<text text-anchor="start" x="50.5" y="-264.4" font-family="Arial" font-size="14.00" fill="#000000">is_in_roadmap </text>
<text text-anchor="start" x="146.1858" y="-264.4" font-family="Arial" font-size="14.00" fill="#666666">[tinyint(1)]</text>
<polygon fill="none" stroke="#000000" points="43.5,-223 43.5,-253 218.5,-253 218.5,-223 43.5,-223"/>
<text text-anchor="start" x="50.5" y="-234.4" font-family="Arial" font-size="14.00" fill="#000000">fields_bits </text>
<text text-anchor="start" x="116.622" y="-234.4" font-family="Arial" font-size="14.00" fill="#666666">[int(11)]</text>
<polygon fill="none" stroke="#000000" points="43.5,-193 43.5,-223 218.5,-223 218.5,-193 43.5,-193"/>
<text text-anchor="start" x="50.5" y="-204.4" font-family="Arial" font-size="14.00" fill="#000000">default_status_id </text>
<text text-anchor="start" x="160.2096" y="-204.4" font-family="Arial" font-size="14.00" fill="#666666">[int(11)]</text>
</g>
<!-- issues&#45;&gt;trackers -->
<g id="edge5" class="edge">
<title>issues:tracker_id&#45;&gt;trackers:id</title>
<path fill="none" stroke="#000000" stroke-dasharray="5,2" d="M939.3047,-1428.9395C496.8589,-1423.6573 470.7695,-1073.1726 269.5,-672 243.6834,-620.542 276.071,-418 218.5,-418"/>
<polygon fill="#000000" stroke="#000000" points="939.5002,-1428.9406 949.4733,-1433.4999 944.5001,-1428.9703 949.5,-1429 949.5,-1429 949.5,-1429 944.5001,-1428.9703 949.5267,-1424.5001 939.5002,-1428.9406 939.5002,-1428.9406"/>
<text text-anchor="start" x="859.8245" y="-1439" font-family="Arial" font-size="10.00" fill="#000000">Additional Relation</text>
</g>
<!-- projects -->
<g id="node4" class="node">
<title>projects</title>
<polygon fill="#efefef" stroke="transparent" points="322.5,-538 322.5,-584 531.5,-584 531.5,-538 322.5,-538"/>
<polygon fill="none" stroke="#000000" points="322.5,-538 322.5,-584 531.5,-584 531.5,-538 322.5,-538"/>
<text text-anchor="start" x="346.8695" y="-561.8" font-family="Arial Bold" font-size="18.00" fill="#000000">projects</text>
<text text-anchor="start" x="409.8767" y="-561.8" font-family="Arial" font-size="14.00" fill="#000000"> </text>
<text text-anchor="start" x="413.7673" y="-561.8" font-family="Arial" font-size="14.00" fill="#666666">[BASE TABLE]</text>
<text text-anchor="start" x="384.6269" y="-547.4" font-family="Arial" font-size="14.00" fill="#333333">プロジェクト</text>
<polygon fill="none" stroke="#000000" points="322.5,-508 322.5,-538 531.5,-538 531.5,-508 322.5,-508"/>
<text text-anchor="start" x="329.5" y="-519.4" font-family="Arial" font-size="14.00" fill="#000000">id </text>
<text text-anchor="start" x="344.2798" y="-519.4" font-family="Arial" font-size="14.00" fill="#666666">[int(11)]</text>
<polygon fill="none" stroke="#000000" points="322.5,-478 322.5,-508 531.5,-508 531.5,-478 322.5,-478"/>
<text text-anchor="start" x="329.5" y="-489.4" font-family="Arial" font-size="14.00" fill="#000000">name </text>
<text text-anchor="start" x="368.399" y="-489.4" font-family="Arial" font-size="14.00" fill="#666666">[varchar(255)]</text>
<polygon fill="none" stroke="#000000" points="322.5,-448 322.5,-478 531.5,-478 531.5,-448 322.5,-448"/>
<text text-anchor="start" x="329.5" y="-459.4" font-family="Arial" font-size="14.00" fill="#000000">description </text>
<text text-anchor="start" x="401.068" y="-459.4" font-family="Arial" font-size="14.00" fill="#666666">[text]</text>
<polygon fill="none" stroke="#000000" points="322.5,-418 322.5,-448 531.5,-448 531.5,-418 322.5,-418"/>
<text text-anchor="start" x="329.5" y="-429.4" font-family="Arial" font-size="14.00" fill="#000000">homepage </text>
<text text-anchor="start" x="399.5294" y="-429.4" font-family="Arial" font-size="14.00" fill="#666666">[varchar(255)]</text>
<polygon fill="none" stroke="#000000" points="322.5,-388 322.5,-418 531.5,-418 531.5,-388 322.5,-388"/>
<text text-anchor="start" x="329.5" y="-399.4" font-family="Arial" font-size="14.00" fill="#000000">is_public </text>
<text text-anchor="start" x="387.8408" y="-399.4" font-family="Arial" font-size="14.00" fill="#666666">[tinyint(1)]</text>
<polygon fill="none" stroke="#000000" points="322.5,-358 322.5,-388 531.5,-388 531.5,-358 322.5,-358"/>
<text text-anchor="start" x="329.5" y="-369.4" font-family="Arial" font-size="14.00" fill="#000000">parent_id </text>
<text text-anchor="start" x="391.744" y="-369.4" font-family="Arial" font-size="14.00" fill="#666666">[int(11)]</text>
<polygon fill="none" stroke="#000000" points="322.5,-328 322.5,-358 531.5,-358 531.5,-328 322.5,-328"/>
<text text-anchor="start" x="329.5" y="-339.4" font-family="Arial" font-size="14.00" fill="#000000">created_on </text>
<text text-anchor="start" x="403.42" y="-339.4" font-family="Arial" font-size="14.00" fill="#666666">[timestamp]</text>
<polygon fill="none" stroke="#000000" points="322.5,-298 322.5,-328 531.5,-328 531.5,-298 322.5,-298"/>
<text text-anchor="start" x="329.5" y="-309.4" font-family="Arial" font-size="14.00" fill="#000000">updated_on </text>
<text text-anchor="start" x="407.3246" y="-309.4" font-family="Arial" font-size="14.00" fill="#666666">[timestamp]</text>
<polygon fill="none" stroke="#000000" points="322.5,-268 322.5,-298 531.5,-298 531.5,-268 322.5,-268"/>
<text text-anchor="start" x="329.5" y="-279.4" font-family="Arial" font-size="14.00" fill="#000000">identifier </text>
<text text-anchor="start" x="386.2826" y="-279.4" font-family="Arial" font-size="14.00" fill="#666666">[varchar(255)]</text>
<polygon fill="none" stroke="#000000" points="322.5,-238 322.5,-268 531.5,-268 531.5,-238 322.5,-238"/>
<text text-anchor="start" x="329.5" y="-249.4" font-family="Arial" font-size="14.00" fill="#000000">status </text>
<text text-anchor="start" x="370.737" y="-249.4" font-family="Arial" font-size="14.00" fill="#666666">[int(11)]</text>
<polygon fill="none" stroke="#000000" points="322.5,-208 322.5,-238 531.5,-238 531.5,-208 322.5,-208"/>
<text text-anchor="start" x="329.5" y="-219.4" font-family="Arial" font-size="14.00" fill="#000000">lft </text>
<text text-anchor="start" x="344.2784" y="-219.4" font-family="Arial" font-size="14.00" fill="#666666">[int(11)]</text>
<polygon fill="none" stroke="#000000" points="322.5,-178 322.5,-208 531.5,-208 531.5,-178 322.5,-178"/>
<text text-anchor="start" x="329.5" y="-189.4" font-family="Arial" font-size="14.00" fill="#000000">rgt </text>
<text text-anchor="start" x="349.7244" y="-189.4" font-family="Arial" font-size="14.00" fill="#666666">[int(11)]</text>
<polygon fill="none" stroke="#000000" points="322.5,-148 322.5,-178 531.5,-178 531.5,-148 322.5,-148"/>
<text text-anchor="start" x="329.5" y="-159.4" font-family="Arial" font-size="14.00" fill="#000000">inherit_members </text>
<text text-anchor="start" x="437.615" y="-159.4" font-family="Arial" font-size="14.00" fill="#666666">[tinyint(1)]</text>
<polygon fill="none" stroke="#000000" points="322.5,-118 322.5,-148 531.5,-148 531.5,-118 322.5,-118"/>
<text text-anchor="start" x="329.5" y="-129.4" font-family="Arial" font-size="14.00" fill="#000000">default_version_id </text>
<text text-anchor="start" x="446.9782" y="-129.4" font-family="Arial" font-size="14.00" fill="#666666">[int(11)]</text>
<polygon fill="none" stroke="#000000" points="322.5,-88 322.5,-118 531.5,-118 531.5,-88 322.5,-88"/>
<text text-anchor="start" x="329.357" y="-99.4" font-family="Arial" font-size="14.00" fill="#000000">default_assigned_to_id </text>
<text text-anchor="start" x="477.1956" y="-99.4" font-family="Arial" font-size="14.00" fill="#666666">[int(11)]</text>
</g>
<!-- issues&#45;&gt;projects -->
<g id="edge6" class="edge">
<title>issues:project_id&#45;&gt;projects:id</title>
<path fill="none" stroke="#000000" stroke-dasharray="5,2" d="M939.3019,-1398.8932C590.3358,-1391.5033 723.3882,-1001.8672 583.5,-672 556.1164,-607.4272 601.6392,-523 531.5,-523"/>
<polygon fill="#000000" stroke="#000000" points="939.5005,-1398.8952 949.4529,-1403.4998 944.5003,-1398.9476 949.5,-1399 949.5,-1399 949.5,-1399 944.5003,-1398.9476 949.5471,-1394.5002 939.5005,-1398.8952 939.5005,-1398.8952"/>
<text text-anchor="start" x="859.8245" y="-1409" font-family="Arial" font-size="10.00" fill="#000000">Additional Relation</text>
</g>
<!-- issue_categories -->
<g id="node5" class="node">
<title>issue_categories</title>
<polygon fill="#efefef" stroke="transparent" points="635.5,-373 635.5,-419 881.5,-419 881.5,-373 635.5,-373"/>
<polygon fill="none" stroke="#000000" points="635.5,-373 635.5,-419 881.5,-419 881.5,-373 635.5,-373"/>
<text text-anchor="start" x="642.3569" y="-396.8" font-family="Arial Bold" font-size="18.00" fill="#000000">issue_categories</text>
<text text-anchor="start" x="777.3893" y="-396.8" font-family="Arial" font-size="14.00" fill="#000000"> </text>
<text text-anchor="start" x="781.2799" y="-396.8" font-family="Arial" font-size="14.00" fill="#666666">[BASE TABLE]</text>
<text text-anchor="start" x="718.7148" y="-382.4" font-family="Arial" font-size="14.00" fill="#333333">カテゴリー</text>
<polygon fill="none" stroke="#000000" points="635.5,-343 635.5,-373 881.5,-373 881.5,-343 635.5,-343"/>
<text text-anchor="start" x="642.5" y="-354.4" font-family="Arial" font-size="14.00" fill="#000000">id </text>
<text text-anchor="start" x="657.2798" y="-354.4" font-family="Arial" font-size="14.00" fill="#666666">[int(11)]</text>
<polygon fill="none" stroke="#000000" points="635.5,-313 635.5,-343 881.5,-343 881.5,-313 635.5,-313"/>
<text text-anchor="start" x="642.5" y="-324.4" font-family="Arial" font-size="14.00" fill="#000000">project_id </text>
<text text-anchor="start" x="707.068" y="-324.4" font-family="Arial" font-size="14.00" fill="#666666">[int(11)]</text>
<polygon fill="none" stroke="#000000" points="635.5,-283 635.5,-313 881.5,-313 881.5,-283 635.5,-283"/>
<text text-anchor="start" x="642.5" y="-294.4" font-family="Arial" font-size="14.00" fill="#000000">name </text>
<text text-anchor="start" x="681.399" y="-294.4" font-family="Arial" font-size="14.00" fill="#666666">[varchar(60)]</text>
<polygon fill="none" stroke="#000000" points="635.5,-253 635.5,-283 881.5,-283 881.5,-253 635.5,-253"/>
<text text-anchor="start" x="642.5" y="-264.4" font-family="Arial" font-size="14.00" fill="#000000">assigned_to_id </text>
<text text-anchor="start" x="740.5378" y="-264.4" font-family="Arial" font-size="14.00" fill="#666666">[int(11)]</text>
</g>
<!-- issues&#45;&gt;issue_categories -->
<g id="edge7" class="edge">
<title>issues:category_id&#45;&gt;issue_categories:id</title>
<path fill="none" stroke="#000000" stroke-dasharray="5,2" d="M939.7997,-1275.8457C855.9885,-1217.117 980.6046,-358 881.5,-358"/>
<polygon fill="#000000" stroke="#000000" points="939.9902,-1275.9075 948.1084,-1283.2794 944.7451,-1277.4538 949.5,-1279 949.5,-1279 949.5,-1279 944.7451,-1277.4538 950.8916,-1274.7206 939.9902,-1275.9075 939.9902,-1275.9075"/>
<text text-anchor="start" x="859.8245" y="-1289" font-family="Arial" font-size="10.00" fill="#000000">Additional Relation</text>
</g>
<!-- issue_statuses -->
<g id="node6" class="node">
<title>issue_statuses</title>
<polygon fill="#efefef" stroke="transparent" points="985.5,-388 985.5,-434 1215.5,-434 1215.5,-388 985.5,-388"/>
<polygon fill="none" stroke="#000000" points="985.5,-388 985.5,-434 1215.5,-434 1215.5,-388 985.5,-388"/>
<text text-anchor="start" x="992.3552" y="-411.8" font-family="Arial Bold" font-size="18.00" fill="#000000">issue_statuses</text>
<text text-anchor="start" x="1111.391" y="-411.8" font-family="Arial" font-size="14.00" fill="#000000"> </text>
<text text-anchor="start" x="1115.2816" y="-411.8" font-family="Arial" font-size="14.00" fill="#666666">[BASE TABLE]</text>
<text text-anchor="start" x="1059.9448" y="-397.4" font-family="Arial" font-size="14.00" fill="#333333">ステータス</text>
<polygon fill="none" stroke="#000000" points="985.5,-358 985.5,-388 1215.5,-388 1215.5,-358 985.5,-358"/>
<text text-anchor="start" x="992.5" y="-369.4" font-family="Arial" font-size="14.00" fill="#000000">id </text>
<text text-anchor="start" x="1007.2798" y="-369.4" font-family="Arial" font-size="14.00" fill="#666666">[int(11)]</text>
<polygon fill="none" stroke="#000000" points="985.5,-328 985.5,-358 1215.5,-358 1215.5,-328 985.5,-328"/>
<text text-anchor="start" x="992.5" y="-339.4" font-family="Arial" font-size="14.00" fill="#000000">name </text>
<text text-anchor="start" x="1031.399" y="-339.4" font-family="Arial" font-size="14.00" fill="#666666">[varchar(30)]</text>
<polygon fill="none" stroke="#000000" points="985.5,-298 985.5,-328 1215.5,-328 1215.5,-298 985.5,-298"/>
<text text-anchor="start" x="992.5" y="-309.4" font-family="Arial" font-size="14.00" fill="#000000">is_closed </text>
<text text-anchor="start" x="1054.7342" y="-309.4" font-family="Arial" font-size="14.00" fill="#666666">[tinyint(1)]</text>
<polygon fill="none" stroke="#000000" points="985.5,-268 985.5,-298 1215.5,-298 1215.5,-268 985.5,-268"/>
<text text-anchor="start" x="992.5" y="-279.4" font-family="Arial" font-size="14.00" fill="#000000">position </text>
<text text-anchor="start" x="1044.6248" y="-279.4" font-family="Arial" font-size="14.00" fill="#666666">[int(11)]</text>
<polygon fill="none" stroke="#000000" points="985.5,-238 985.5,-268 1215.5,-268 1215.5,-238 985.5,-238"/>
<text text-anchor="start" x="992.5" y="-249.4" font-family="Arial" font-size="14.00" fill="#000000">default_done_ratio </text>
<text text-anchor="start" x="1112.3274" y="-249.4" font-family="Arial" font-size="14.00" fill="#666666">[int(11)]</text>
</g>
<!-- issues&#45;&gt;issue_statuses -->
<g id="edge8" class="edge">
<title>issues:status_id&#45;&gt;issue_statuses:id</title>
<path fill="none" stroke="#000000" stroke-dasharray="5,2" d="M1260.8223,-1248.794C1486.8259,-1239.5846 1348.6022,-923.6575 1250.5,-708 1185.8044,-565.78 1050.1956,-619.22 985.5,-477 966.3608,-434.9264 939.2778,-373 985.5,-373"/>
<polygon fill="#000000" stroke="#000000" points="1260.498,-1248.8003 1250.4102,-1244.5009 1255.499,-1248.9002 1250.5,-1249 1250.5,-1249 1250.5,-1249 1255.499,-1248.9002 1250.5898,-1253.4991 1260.498,-1248.8003 1260.498,-1248.8003"/>
<text text-anchor="start" x="1257.8245" y="-1259" font-family="Arial" font-size="10.00" fill="#000000">Additional Relation</text>
</g>
<!-- users -->
<g id="node7" class="node">
<title>users</title>
<polygon fill="#efefef" stroke="transparent" points="1319.5,-583 1319.5,-629 1801.5,-629 1801.5,-583 1319.5,-583"/>
<polygon fill="none" stroke="#000000" points="1319.5,-583 1319.5,-629 1801.5,-629 1801.5,-583 1319.5,-583"/>
<text text-anchor="start" x="1489.8708" y="-606.8" font-family="Arial Bold" font-size="18.00" fill="#000000">users</text>
<text text-anchor="start" x="1533.8754" y="-606.8" font-family="Arial" font-size="14.00" fill="#000000"> </text>
<text text-anchor="start" x="1537.766" y="-606.8" font-family="Arial" font-size="14.00" fill="#666666">[BASE TABLE]</text>
<text text-anchor="start" x="1481.9558" y="-592.4" font-family="Arial" font-size="14.00" fill="#333333">ユーザー / グループ</text>
<polygon fill="none" stroke="#000000" points="1319.5,-553 1319.5,-583 1801.5,-583 1801.5,-553 1319.5,-553"/>
<text text-anchor="start" x="1326.5" y="-564.4" font-family="Arial" font-size="14.00" fill="#000000">id </text>
<text text-anchor="start" x="1341.2798" y="-564.4" font-family="Arial" font-size="14.00" fill="#666666">[int(11)]</text>
<polygon fill="none" stroke="#000000" points="1319.5,-523 1319.5,-553 1801.5,-553 1801.5,-523 1319.5,-523"/>
<text text-anchor="start" x="1326.5" y="-534.4" font-family="Arial" font-size="14.00" fill="#000000">login </text>
<text text-anchor="start" x="1359.9516" y="-534.4" font-family="Arial" font-size="14.00" fill="#666666">[varchar(255)]</text>
<text text-anchor="start" x="1447.0708" y="-534.4" font-family="Arial" font-size="14.00" fill="#000000"> ログインID</text>
<polygon fill="none" stroke="#000000" points="1319.5,-493 1319.5,-523 1801.5,-523 1801.5,-493 1319.5,-493"/>
<text text-anchor="start" x="1326.5" y="-504.4" font-family="Arial" font-size="14.00" fill="#000000">hashed_password </text>
<text text-anchor="start" x="1443.9838" y="-504.4" font-family="Arial" font-size="14.00" fill="#666666">[varchar(40)]</text>
<text text-anchor="start" x="1523.3204" y="-504.4" font-family="Arial" font-size="14.00" fill="#000000"> パスワード(ハッシュ化済み)</text>
<polygon fill="none" stroke="#000000" points="1319.5,-463 1319.5,-493 1801.5,-493 1801.5,-463 1319.5,-463"/>
<text text-anchor="start" x="1326.5" y="-474.4" font-family="Arial" font-size="14.00" fill="#000000">firstname </text>
<text text-anchor="start" x="1387.9474" y="-474.4" font-family="Arial" font-size="14.00" fill="#666666">[varchar(30)]</text>
<text text-anchor="start" x="1467.284" y="-474.4" font-family="Arial" font-size="14.00" fill="#000000"> 名</text>
<polygon fill="none" stroke="#000000" points="1319.5,-433 1319.5,-463 1801.5,-463 1801.5,-433 1319.5,-433"/>
<text text-anchor="start" x="1326.5" y="-444.4" font-family="Arial" font-size="14.00" fill="#000000">lastname </text>
<text text-anchor="start" x="1387.1788" y="-444.4" font-family="Arial" font-size="14.00" fill="#666666">[varchar(255)]</text>
<text text-anchor="start" x="1474.298" y="-444.4" font-family="Arial" font-size="14.00" fill="#000000"> 姓</text>
<polygon fill="none" stroke="#000000" points="1319.5,-403 1319.5,-433 1801.5,-433 1801.5,-403 1319.5,-403"/>
<text text-anchor="start" x="1326.5" y="-414.4" font-family="Arial" font-size="14.00" fill="#000000">admin </text>
<text text-anchor="start" x="1368.5056" y="-414.4" font-family="Arial" font-size="14.00" fill="#666666">[tinyint(1)]</text>
<text text-anchor="start" x="1429.9502" y="-414.4" font-family="Arial" font-size="14.00" fill="#000000"> システム管理者</text>
<polygon fill="none" stroke="#000000" points="1319.5,-373 1319.5,-403 1801.5,-403 1801.5,-373 1319.5,-373"/>
<text text-anchor="start" x="1326.5" y="-384.4" font-family="Arial" font-size="14.00" fill="#000000">status </text>
<text text-anchor="start" x="1367.737" y="-384.4" font-family="Arial" font-size="14.00" fill="#666666">[int(11)]</text>
<polygon fill="none" stroke="#000000" points="1319.5,-343 1319.5,-373 1801.5,-373 1801.5,-343 1319.5,-343"/>
<text text-anchor="start" x="1326.5" y="-354.4" font-family="Arial" font-size="14.00" fill="#000000">last_login_on </text>
<text text-anchor="start" x="1412.8618" y="-354.4" font-family="Arial" font-size="14.00" fill="#666666">[datetime]</text>
<polygon fill="none" stroke="#000000" points="1319.5,-313 1319.5,-343 1801.5,-343 1801.5,-313 1319.5,-313"/>
<text text-anchor="start" x="1326.5" y="-324.4" font-family="Arial" font-size="14.00" fill="#000000">language </text>
<text text-anchor="start" x="1387.9754" y="-324.4" font-family="Arial" font-size="14.00" fill="#666666">[varchar(5)]</text>
<text text-anchor="start" x="1459.5294" y="-324.4" font-family="Arial" font-size="14.00" fill="#000000"> 言語</text>
<polygon fill="none" stroke="#000000" points="1319.5,-283 1319.5,-313 1801.5,-313 1801.5,-283 1319.5,-283"/>
<text text-anchor="start" x="1326.5" y="-294.4" font-family="Arial" font-size="14.00" fill="#000000">auth_source_id </text>
<text text-anchor="start" x="1426.0918" y="-294.4" font-family="Arial" font-size="14.00" fill="#666666">[int(11)]</text>
<polygon fill="none" stroke="#000000" points="1319.5,-253 1319.5,-283 1801.5,-283 1801.5,-253 1319.5,-253"/>
<text text-anchor="start" x="1326.5" y="-264.4" font-family="Arial" font-size="14.00" fill="#000000">created_on </text>
<text text-anchor="start" x="1400.42" y="-264.4" font-family="Arial" font-size="14.00" fill="#666666">[timestamp]</text>
<polygon fill="none" stroke="#000000" points="1319.5,-223 1319.5,-253 1801.5,-253 1801.5,-223 1319.5,-223"/>
<text text-anchor="start" x="1326.5" y="-234.4" font-family="Arial" font-size="14.00" fill="#000000">updated_on </text>
<text text-anchor="start" x="1404.3246" y="-234.4" font-family="Arial" font-size="14.00" fill="#666666">[timestamp]</text>
<polygon fill="none" stroke="#000000" points="1319.5,-193 1319.5,-223 1801.5,-223 1801.5,-193 1319.5,-193"/>
<text text-anchor="start" x="1326.5" y="-204.4" font-family="Arial" font-size="14.00" fill="#000000">type </text>
<text text-anchor="start" x="1356.8464" y="-204.4" font-family="Arial" font-size="14.00" fill="#666666">[varchar(255)]</text>
<text text-anchor="start" x="1443.9656" y="-204.4" font-family="Arial" font-size="14.00" fill="#000000"> User:ユーザー / Group:グループ</text>
<polygon fill="none" stroke="#000000" points="1319.5,-163 1319.5,-193 1801.5,-193 1801.5,-163 1319.5,-163"/>
<text text-anchor="start" x="1326.5" y="-174.4" font-family="Arial" font-size="14.00" fill="#000000">identity_url </text>
<text text-anchor="start" x="1398.0652" y="-174.4" font-family="Arial" font-size="14.00" fill="#666666">[varchar(255)]</text>
<polygon fill="none" stroke="#000000" points="1319.5,-133 1319.5,-163 1801.5,-163 1801.5,-133 1319.5,-133"/>
<text text-anchor="start" x="1326.5" y="-144.4" font-family="Arial" font-size="14.00" fill="#000000">mail_notification </text>
<text text-anchor="start" x="1430.7342" y="-144.4" font-family="Arial" font-size="14.00" fill="#666666">[varchar(255)]</text>
<text text-anchor="start" x="1517.8534" y="-144.4" font-family="Arial" font-size="14.00" fill="#000000"> メール通知</text>
<polygon fill="none" stroke="#000000" points="1319.5,-103 1319.5,-133 1801.5,-133 1801.5,-103 1319.5,-103"/>
<text text-anchor="start" x="1326.5" y="-114.4" font-family="Arial" font-size="14.00" fill="#000000">salt </text>
<text text-anchor="start" x="1352.1704" y="-114.4" font-family="Arial" font-size="14.00" fill="#666666">[varchar(64)]</text>
<polygon fill="none" stroke="#000000" points="1319.5,-73 1319.5,-103 1801.5,-103 1801.5,-73 1319.5,-73"/>
<text text-anchor="start" x="1326.2646" y="-84.4" font-family="Arial" font-size="14.00" fill="#000000">must_change_passwd </text>
<text text-anchor="start" x="1469.4216" y="-84.4" font-family="Arial" font-size="14.00" fill="#666666">[tinyint(1)]</text>
<text text-anchor="start" x="1530.8662" y="-84.4" font-family="Arial" font-size="14.00" fill="#000000"> 次回ログイン時にパスワード変更を強制</text>
<polygon fill="none" stroke="#000000" points="1319.5,-43 1319.5,-73 1801.5,-73 1801.5,-43 1319.5,-43"/>
<text text-anchor="start" x="1326.5" y="-54.4" font-family="Arial" font-size="14.00" fill="#000000">passwd_changed_on </text>
<text text-anchor="start" x="1462.671" y="-54.4" font-family="Arial" font-size="14.00" fill="#666666">[datetime]</text>
</g>
<!-- issues&#45;&gt;users -->
<g id="edge9" class="edge">
<title>issues:assigned_to_id&#45;&gt;users:id</title>
<path fill="none" stroke="#000000" stroke-dasharray="5,2" d="M1260.5087,-1217.8549C1385.3584,-1187.6009 1177.5747,-568 1319.5,-568"/>
<polygon fill="#000000" stroke="#000000" points="1260.4352,-1217.8632 1249.9884,-1214.5292 1255.4676,-1218.4316 1250.5,-1219 1250.5,-1219 1250.5,-1219 1255.4676,-1218.4316 1251.0116,-1223.4708 1260.4352,-1217.8632 1260.4352,-1217.8632"/>
<text text-anchor="start" x="1257.8245" y="-1229" font-family="Arial" font-size="10.00" fill="#000000">Additional Relation</text>
</g>
<!-- issues&#45;&gt;users -->
<g id="edge11" class="edge">
<title>issues:author_id&#45;&gt;users:id</title>
<path fill="none" stroke="#000000" stroke-dasharray="5,2" d="M1260.4449,-1127.6757C1366.0324,-1097.6746 1197.4511,-568 1319.5,-568"/>
<polygon fill="#000000" stroke="#000000" points="1260.4125,-1127.6799 1249.9059,-1124.5394 1255.4562,-1128.3399 1250.5,-1129 1250.5,-1129 1250.5,-1129 1255.4562,-1128.3399 1251.0941,-1133.4606 1260.4125,-1127.6799 1260.4125,-1127.6799"/>
<text text-anchor="start" x="1257.8245" y="-1139" font-family="Arial" font-size="10.00" fill="#000000">Additional Relation</text>
</g>
<!-- enumerations -->
<g id="node8" class="node">
<title>enumerations</title>
<polygon fill="#efefef" stroke="transparent" points="1906.5,-448 1906.5,-494 2713.5,-494 2713.5,-448 1906.5,-448"/>
<polygon fill="none" stroke="#000000" points="1906.5,-448 1906.5,-494 2713.5,-494 2713.5,-448 1906.5,-448"/>
<text text-anchor="start" x="2206.861" y="-471.8" font-family="Arial Bold" font-size="18.00" fill="#000000">enumerations</text>
<text text-anchor="start" x="2315.8852" y="-471.8" font-family="Arial" font-size="14.00" fill="#000000"> </text>
<text text-anchor="start" x="2319.7758" y="-471.8" font-family="Arial" font-size="14.00" fill="#666666">[BASE TABLE]</text>
<text text-anchor="start" x="2272.3988" y="-457.4" font-family="Arial" font-size="14.00" fill="#333333">選択肢の値</text>
<polygon fill="none" stroke="#000000" points="1906.5,-418 1906.5,-448 2713.5,-448 2713.5,-418 1906.5,-418"/>
<text text-anchor="start" x="1913.5" y="-429.4" font-family="Arial" font-size="14.00" fill="#000000">id </text>
<text text-anchor="start" x="1928.2798" y="-429.4" font-family="Arial" font-size="14.00" fill="#666666">[int(11)]</text>
<polygon fill="none" stroke="#000000" points="1906.5,-388 1906.5,-418 2713.5,-418 2713.5,-388 1906.5,-388"/>
<text text-anchor="start" x="1913.5" y="-399.4" font-family="Arial" font-size="14.00" fill="#000000">name </text>
<text text-anchor="start" x="1952.399" y="-399.4" font-family="Arial" font-size="14.00" fill="#666666">[varchar(30)]</text>
<polygon fill="none" stroke="#000000" points="1906.5,-358 1906.5,-388 2713.5,-388 2713.5,-358 1906.5,-358"/>
<text text-anchor="start" x="1913.5" y="-369.4" font-family="Arial" font-size="14.00" fill="#000000">position </text>
<text text-anchor="start" x="1965.6248" y="-369.4" font-family="Arial" font-size="14.00" fill="#666666">[int(11)]</text>
<polygon fill="none" stroke="#000000" points="1906.5,-328 1906.5,-358 2713.5,-358 2713.5,-328 1906.5,-328"/>
<text text-anchor="start" x="1913.5" y="-339.4" font-family="Arial" font-size="14.00" fill="#000000">is_default </text>
<text text-anchor="start" x="1977.298" y="-339.4" font-family="Arial" font-size="14.00" fill="#666666">[tinyint(1)]</text>
<polygon fill="none" stroke="#000000" points="1906.5,-298 1906.5,-328 2713.5,-328 2713.5,-298 1906.5,-298"/>
<text text-anchor="start" x="1913.3163" y="-309.4" font-family="Arial" font-size="14.00" fill="#000000">type </text>
<text text-anchor="start" x="1943.6627" y="-309.4" font-family="Arial" font-size="14.00" fill="#666666">[varchar(255)]</text>
<text text-anchor="start" x="2030.7819" y="-309.4" font-family="Arial" font-size="14.00" fill="#000000"> IssuePriority:チケットの優先度 / DocumentCategory:文書カテゴリ / TimeEntryActivity:作業分類 (時間管理)</text>
<polygon fill="none" stroke="#000000" points="1906.5,-268 1906.5,-298 2713.5,-298 2713.5,-268 1906.5,-268"/>
<text text-anchor="start" x="1913.5" y="-279.4" font-family="Arial" font-size="14.00" fill="#000000">active </text>
<text text-anchor="start" x="1953.953" y="-279.4" font-family="Arial" font-size="14.00" fill="#666666">[tinyint(1)]</text>
<polygon fill="none" stroke="#000000" points="1906.5,-238 1906.5,-268 2713.5,-268 2713.5,-238 1906.5,-238"/>
<text text-anchor="start" x="1913.5" y="-249.4" font-family="Arial" font-size="14.00" fill="#000000">project_id </text>
<text text-anchor="start" x="1978.068" y="-249.4" font-family="Arial" font-size="14.00" fill="#666666">[int(11)]</text>
<polygon fill="none" stroke="#000000" points="1906.5,-208 1906.5,-238 2713.5,-238 2713.5,-208 1906.5,-208"/>
<text text-anchor="start" x="1913.5" y="-219.4" font-family="Arial" font-size="14.00" fill="#000000">parent_id </text>
<text text-anchor="start" x="1975.744" y="-219.4" font-family="Arial" font-size="14.00" fill="#666666">[int(11)]</text>
<polygon fill="none" stroke="#000000" points="1906.5,-178 1906.5,-208 2713.5,-208 2713.5,-178 1906.5,-178"/>
<text text-anchor="start" x="1913.5" y="-189.4" font-family="Arial" font-size="14.00" fill="#000000">position_name </text>
<text text-anchor="start" x="2008.4158" y="-189.4" font-family="Arial" font-size="14.00" fill="#666666">[varchar(30)]</text>
</g>
<!-- issues&#45;&gt;enumerations -->
<g id="edge10" class="edge">
<title>issues:priority_id&#45;&gt;enumerations:id</title>
<path fill="none" stroke="#000000" stroke-dasharray="5,2" d="M1260.5067,-1188.9418C1604.8318,-1184.9123 1673.6899,-971.8805 1853.5,-672 1909.4515,-578.6862 1797.6973,-433 1906.5,-433"/>
<polygon fill="#000000" stroke="#000000" points="1260.4998,-1188.9418 1250.4738,-1184.5001 1255.4999,-1188.9709 1250.5,-1189 1250.5,-1189 1250.5,-1189 1255.4999,-1188.9709 1250.5262,-1193.4999 1260.4998,-1188.9418 1260.4998,-1188.9418"/>
<text text-anchor="start" x="1257.8245" y="-1199" font-family="Arial" font-size="10.00" fill="#000000">Additional Relation</text>
</g>
<!-- issue_relations -->
<g id="node2" class="node">
<title>issue_relations</title>
<polygon fill="#efefef" stroke="transparent" points="984.5,-1795 984.5,-1841 1215.5,-1841 1215.5,-1795 984.5,-1795"/>
<polygon fill="none" stroke="#000000" points="984.5,-1795 984.5,-1841 1215.5,-1841 1215.5,-1795 984.5,-1795"/>
<text text-anchor="start" x="991.3629" y="-1818.8" font-family="Arial Bold" font-size="18.00" fill="#000000">issue_relations</text>
<text text-anchor="start" x="1111.3833" y="-1818.8" font-family="Arial" font-size="14.00" fill="#000000"> </text>
<text text-anchor="start" x="1115.2739" y="-1818.8" font-family="Arial" font-size="14.00" fill="#666666">[BASE TABLE]</text>
<text text-anchor="start" x="1049.5706" y="-1804.4" font-family="Arial" font-size="14.00" fill="#333333">関連チケット</text>
<polygon fill="none" stroke="#000000" points="984.5,-1765 984.5,-1795 1215.5,-1795 1215.5,-1765 984.5,-1765"/>
<text text-anchor="start" x="991.5" y="-1776.4" font-family="Arial" font-size="14.00" fill="#000000">id </text>
<text text-anchor="start" x="1006.2798" y="-1776.4" font-family="Arial" font-size="14.00" fill="#666666">[int(11)]</text>
<polygon fill="none" stroke="#000000" points="984.5,-1735 984.5,-1765 1215.5,-1765 1215.5,-1735 984.5,-1735"/>
<text text-anchor="start" x="991.5" y="-1746.4" font-family="Arial" font-size="14.00" fill="#000000">issue_from_id </text>
<text text-anchor="start" x="1082.5112" y="-1746.4" font-family="Arial" font-size="14.00" fill="#666666">[int(11)]</text>
<polygon fill="none" stroke="#000000" points="984.5,-1705 984.5,-1735 1215.5,-1735 1215.5,-1705 984.5,-1705"/>
<text text-anchor="start" x="991.5" y="-1716.4" font-family="Arial" font-size="14.00" fill="#000000">issue_to_id </text>
<text text-anchor="start" x="1066.19" y="-1716.4" font-family="Arial" font-size="14.00" fill="#666666">[int(11)]</text>
<polygon fill="none" stroke="#000000" points="984.5,-1675 984.5,-1705 1215.5,-1705 1215.5,-1675 984.5,-1675"/>
<text text-anchor="start" x="991.5" y="-1686.4" font-family="Arial" font-size="14.00" fill="#000000">relation_type </text>
<text text-anchor="start" x="1075.5238" y="-1686.4" font-family="Arial" font-size="14.00" fill="#666666">[varchar(255)]</text>
<polygon fill="none" stroke="#000000" points="984.5,-1645 984.5,-1675 1215.5,-1675 1215.5,-1645 984.5,-1645"/>
<text text-anchor="start" x="991.5" y="-1656.4" font-family="Arial" font-size="14.00" fill="#000000">delay </text>
<text text-anchor="start" x="1028.845" y="-1656.4" font-family="Arial" font-size="14.00" fill="#666666">[int(11)]</text>
</g>
<!-- issue_relations&#45;&gt;issues -->
<g id="edge3" class="edge">
<title>issue_relations:issue_from_id&#45;&gt;issues:id</title>
<path fill="none" stroke="#000000" stroke-dasharray="5,2" d="M974.3958,-1749.4037C852.5037,-1734.8566 822.6693,-1459 949.5,-1459"/>
<polygon fill="#000000" stroke="#000000" points="974.5174,-1749.4108 984.2349,-1754.4922 979.5087,-1749.7054 984.5,-1750 984.5,-1750 984.5,-1750 979.5087,-1749.7054 984.7651,-1745.5078 974.5174,-1749.4108 974.5174,-1749.4108"/>
<text text-anchor="start" x="894.8245" y="-1760" font-family="Arial" font-size="10.00" fill="#000000">Additional Relation</text>
</g>
<!-- issue_relations&#45;&gt;issues -->
<g id="edge4" class="edge">
<title>issue_relations:issue_to_id&#45;&gt;issues:id</title>
<path fill="none" stroke="#000000" stroke-dasharray="5,2" d="M974.4264,-1719.3411C865.5414,-1704.931 835.8905,-1459 949.5,-1459"/>
<polygon fill="#000000" stroke="#000000" points="974.5213,-1719.3472 984.2062,-1724.4904 979.5107,-1719.6736 984.5,-1720 984.5,-1720 984.5,-1720 979.5107,-1719.6736 984.7938,-1715.5096 974.5213,-1719.3472 974.5213,-1719.3472"/>
<text text-anchor="start" x="894.8245" y="-1730" font-family="Arial" font-size="10.00" fill="#000000">Additional Relation</text>
</g>
</g>
</svg>
