<?xml version="1.0" encoding="UTF-8" standalone="no"?>
<!DOCTYPE svg PUBLIC "-//W3C//DTD SVG 1.1//EN"
 "http://www.w3.org/Graphics/SVG/1.1/DTD/svg11.dtd">
<!-- Generated by graphviz version 2.40.1 (20161225.0304)
 -->
<!-- Title: members Pages: 1 -->
<svg width="345pt" height="903pt"
 viewBox="0.00 0.00 344.50 903.00" xmlns="http://www.w3.org/2000/svg" xmlns:xlink="http://www.w3.org/1999/xlink">
<g id="graph0" class="graph" transform="scale(1 1) rotate(0) translate(4 899)">
<title>members</title>
<polygon fill="#ffffff" stroke="transparent" points="-4,4 -4,-899 340.5,-899 340.5,4 -4,4"/>
<!-- members -->
<g id="node1" class="node">
<title>members</title>
<polygon fill="#efefef" stroke="transparent" points="97,-813.5 97,-848.5 283,-848.5 283,-813.5 97,-813.5"/>
<polygon fill="none" stroke="#000000" points="97,-813.5 97,-848.5 283,-848.5 283,-813.5 97,-813.5"/>
<text text-anchor="start" x="103.8755" y="-826.3" font-family="Arial Bold" font-size="18.00" fill="#000000">members</text>
<text text-anchor="start" x="178.8707" y="-826.3" font-family="Arial" font-size="14.00" fill="#000000"> </text>
<text text-anchor="start" x="182.7613" y="-826.3" font-family="Arial" font-size="14.00" fill="#666666">[BASE TABLE]</text>
<polygon fill="none" stroke="#000000" points="97,-783.5 97,-813.5 283,-813.5 283,-783.5 97,-783.5"/>
<text text-anchor="start" x="104" y="-794.9" font-family="Arial" font-size="14.00" fill="#000000">id </text>
<text text-anchor="start" x="118.7798" y="-794.9" font-family="Arial" font-size="14.00" fill="#666666">[int(11)]</text>
<polygon fill="none" stroke="#000000" points="97,-753.5 97,-783.5 283,-783.5 283,-753.5 97,-753.5"/>
<text text-anchor="start" x="104" y="-764.9" font-family="Arial" font-size="14.00" fill="#000000">user_id </text>
<text text-anchor="start" x="153.7882" y="-764.9" font-family="Arial" font-size="14.00" fill="#666666">[int(11)]</text>
<polygon fill="none" stroke="#000000" points="97,-723.5 97,-753.5 283,-753.5 283,-723.5 97,-723.5"/>
<text text-anchor="start" x="104" y="-734.9" font-family="Arial" font-size="14.00" fill="#000000">project_id </text>
<text text-anchor="start" x="168.568" y="-734.9" font-family="Arial" font-size="14.00" fill="#666666">[int(11)]</text>
<polygon fill="none" stroke="#000000" points="97,-693.5 97,-723.5 283,-723.5 283,-693.5 97,-693.5"/>
<text text-anchor="start" x="104" y="-704.9" font-family="Arial" font-size="14.00" fill="#000000">created_on </text>
<text text-anchor="start" x="177.92" y="-704.9" font-family="Arial" font-size="14.00" fill="#666666">[timestamp]</text>
<polygon fill="none" stroke="#000000" points="97,-663.5 97,-693.5 283,-693.5 283,-663.5 97,-663.5"/>
<text text-anchor="start" x="104" y="-674.9" font-family="Arial" font-size="14.00" fill="#000000">mail_notification </text>
<text text-anchor="start" x="208.2342" y="-674.9" font-family="Arial" font-size="14.00" fill="#666666">[tinyint(1)]</text>
<polygon fill="none" stroke="#000000" stroke-width="3" points="95.5,-662.5 95.5,-850.5 284.5,-850.5 284.5,-662.5 95.5,-662.5"/>
</g>
<!-- projects -->
<g id="node2" class="node">
<title>projects</title>
<polygon fill="#efefef" stroke="transparent" points="85,-493 85,-539 294,-539 294,-493 85,-493"/>
<polygon fill="none" stroke="#000000" points="85,-493 85,-539 294,-539 294,-493 85,-493"/>
<text text-anchor="start" x="109.3695" y="-516.8" font-family="Arial Bold" font-size="18.00" fill="#000000">projects</text>
<text text-anchor="start" x="172.3767" y="-516.8" font-family="Arial" font-size="14.00" fill="#000000"> </text>
<text text-anchor="start" x="176.2673" y="-516.8" font-family="Arial" font-size="14.00" fill="#666666">[BASE TABLE]</text>
<text text-anchor="start" x="147.1269" y="-502.4" font-family="Arial" font-size="14.00" fill="#333333">プロジェクト</text>
<polygon fill="none" stroke="#000000" points="85,-463 85,-493 294,-493 294,-463 85,-463"/>
<text text-anchor="start" x="92" y="-474.4" font-family="Arial" font-size="14.00" fill="#000000">id </text>
<text text-anchor="start" x="106.7798" y="-474.4" font-family="Arial" font-size="14.00" fill="#666666">[int(11)]</text>
<polygon fill="none" stroke="#000000" points="85,-433 85,-463 294,-463 294,-433 85,-433"/>
<text text-anchor="start" x="92" y="-444.4" font-family="Arial" font-size="14.00" fill="#000000">name </text>
<text text-anchor="start" x="130.899" y="-444.4" font-family="Arial" font-size="14.00" fill="#666666">[varchar(255)]</text>
<polygon fill="none" stroke="#000000" points="85,-403 85,-433 294,-433 294,-403 85,-403"/>
<text text-anchor="start" x="92" y="-414.4" font-family="Arial" font-size="14.00" fill="#000000">description </text>
<text text-anchor="start" x="163.568" y="-414.4" font-family="Arial" font-size="14.00" fill="#666666">[text]</text>
<polygon fill="none" stroke="#000000" points="85,-373 85,-403 294,-403 294,-373 85,-373"/>
<text text-anchor="start" x="92" y="-384.4" font-family="Arial" font-size="14.00" fill="#000000">homepage </text>
<text text-anchor="start" x="162.0294" y="-384.4" font-family="Arial" font-size="14.00" fill="#666666">[varchar(255)]</text>
<polygon fill="none" stroke="#000000" points="85,-343 85,-373 294,-373 294,-343 85,-343"/>
<text text-anchor="start" x="92" y="-354.4" font-family="Arial" font-size="14.00" fill="#000000">is_public </text>
<text text-anchor="start" x="150.3408" y="-354.4" font-family="Arial" font-size="14.00" fill="#666666">[tinyint(1)]</text>
<polygon fill="none" stroke="#000000" points="85,-313 85,-343 294,-343 294,-313 85,-313"/>
<text text-anchor="start" x="92" y="-324.4" font-family="Arial" font-size="14.00" fill="#000000">parent_id </text>
<text text-anchor="start" x="154.244" y="-324.4" font-family="Arial" font-size="14.00" fill="#666666">[int(11)]</text>
<polygon fill="none" stroke="#000000" points="85,-283 85,-313 294,-313 294,-283 85,-283"/>
<text text-anchor="start" x="92" y="-294.4" font-family="Arial" font-size="14.00" fill="#000000">created_on </text>
<text text-anchor="start" x="165.92" y="-294.4" font-family="Arial" font-size="14.00" fill="#666666">[timestamp]</text>
<polygon fill="none" stroke="#000000" points="85,-253 85,-283 294,-283 294,-253 85,-253"/>
<text text-anchor="start" x="92" y="-264.4" font-family="Arial" font-size="14.00" fill="#000000">updated_on </text>
<text text-anchor="start" x="169.8246" y="-264.4" font-family="Arial" font-size="14.00" fill="#666666">[timestamp]</text>
<polygon fill="none" stroke="#000000" points="85,-223 85,-253 294,-253 294,-223 85,-223"/>
<text text-anchor="start" x="92" y="-234.4" font-family="Arial" font-size="14.00" fill="#000000">identifier </text>
<text text-anchor="start" x="148.7826" y="-234.4" font-family="Arial" font-size="14.00" fill="#666666">[varchar(255)]</text>
<polygon fill="none" stroke="#000000" points="85,-193 85,-223 294,-223 294,-193 85,-193"/>
<text text-anchor="start" x="92" y="-204.4" font-family="Arial" font-size="14.00" fill="#000000">status </text>
<text text-anchor="start" x="133.237" y="-204.4" font-family="Arial" font-size="14.00" fill="#666666">[int(11)]</text>
<polygon fill="none" stroke="#000000" points="85,-163 85,-193 294,-193 294,-163 85,-163"/>
<text text-anchor="start" x="92" y="-174.4" font-family="Arial" font-size="14.00" fill="#000000">lft </text>
<text text-anchor="start" x="106.7784" y="-174.4" font-family="Arial" font-size="14.00" fill="#666666">[int(11)]</text>
<polygon fill="none" stroke="#000000" points="85,-133 85,-163 294,-163 294,-133 85,-133"/>
<text text-anchor="start" x="92" y="-144.4" font-family="Arial" font-size="14.00" fill="#000000">rgt </text>
<text text-anchor="start" x="112.2244" y="-144.4" font-family="Arial" font-size="14.00" fill="#666666">[int(11)]</text>
<polygon fill="none" stroke="#000000" points="85,-103 85,-133 294,-133 294,-103 85,-103"/>
<text text-anchor="start" x="92" y="-114.4" font-family="Arial" font-size="14.00" fill="#000000">inherit_members </text>
<text text-anchor="start" x="200.115" y="-114.4" font-family="Arial" font-size="14.00" fill="#666666">[tinyint(1)]</text>
<polygon fill="none" stroke="#000000" points="85,-73 85,-103 294,-103 294,-73 85,-73"/>
<text text-anchor="start" x="92" y="-84.4" font-family="Arial" font-size="14.00" fill="#000000">default_version_id </text>
<text text-anchor="start" x="209.4782" y="-84.4" font-family="Arial" font-size="14.00" fill="#666666">[int(11)]</text>
<polygon fill="none" stroke="#000000" points="85,-43 85,-73 294,-73 294,-43 85,-43"/>
<text text-anchor="start" x="91.857" y="-54.4" font-family="Arial" font-size="14.00" fill="#000000">default_assigned_to_id </text>
<text text-anchor="start" x="239.6956" y="-54.4" font-family="Arial" font-size="14.00" fill="#666666">[int(11)]</text>
</g>
<!-- members&#45;&gt;projects -->
<g id="edge1" class="edge">
<title>members:project_id&#45;&gt;projects:id</title>
<path fill="none" stroke="#000000" stroke-dasharray="5,2" d="M87.0193,-737.4249C46.1477,-727.8277 65.0473,-656.3209 97,-618 153.9995,-549.6404 237.0005,-650.3596 294,-582 323.6009,-546.4996 340.2222,-478 294,-478"/>
<polygon fill="#000000" stroke="#000000" points="87.0575,-737.4289 96.518,-742.9741 92.0288,-737.9645 97,-738.5 97,-738.5 97,-738.5 92.0288,-737.9645 97.482,-734.0259 87.0575,-737.4289 87.0575,-737.4289"/>
<text text-anchor="start" x="7.3245" y="-748.5" font-family="Arial" font-size="10.00" fill="#000000">Additional Relation</text>
</g>
</g>
</svg>
