<?xml version="1.0" encoding="UTF-8" standalone="no"?>
<!DOCTYPE svg PUBLIC "-//W3C//DTD SVG 1.1//EN"
 "http://www.w3.org/Graphics/SVG/1.1/DTD/svg11.dtd">
<!-- Generated by graphviz version 2.40.1 (20161225.0304)
 -->
<!-- Title: projects_trackers Pages: 1 -->
<svg width="348pt" height="206pt"
 viewBox="0.00 0.00 348.00 206.00" xmlns="http://www.w3.org/2000/svg" xmlns:xlink="http://www.w3.org/1999/xlink">
<g id="graph0" class="graph" transform="scale(1 1) rotate(0) translate(4 202)">
<title>projects_trackers</title>
<polygon fill="#ffffff" stroke="transparent" points="-4,4 -4,-202 344,-202 344,4 -4,4"/>
<!-- projects_trackers -->
<g id="node1" class="node">
<title>projects_trackers</title>
<polygon fill="#efefef" stroke="transparent" points="46,-106 46,-152 294,-152 294,-106 46,-106"/>
<polygon fill="none" stroke="#000000" points="46,-106 46,-152 294,-152 294,-106 46,-106"/>
<text text-anchor="start" x="52.8669" y="-129.8" font-family="Arial Bold" font-size="18.00" fill="#000000">projects_trackers</text>
<text text-anchor="start" x="189.8793" y="-129.8" font-family="Arial" font-size="14.00" fill="#000000"> </text>
<text text-anchor="start" x="193.7699" y="-129.8" font-family="Arial" font-size="14.00" fill="#666666">[BASE TABLE]</text>
<text text-anchor="start" x="82.9998" y="-115.4" font-family="Arial" font-size="14.00" fill="#333333">プロジェクト⇔トラッカー</text>
<polygon fill="none" stroke="#000000" points="46,-76 46,-106 294,-106 294,-76 46,-76"/>
<text text-anchor="start" x="53" y="-87.4" font-family="Arial" font-size="14.00" fill="#000000">project_id </text>
<text text-anchor="start" x="117.568" y="-87.4" font-family="Arial" font-size="14.00" fill="#666666">[int(11)]</text>
<polygon fill="none" stroke="#000000" points="46,-46 46,-76 294,-76 294,-46 46,-46"/>
<text text-anchor="start" x="53" y="-57.4" font-family="Arial" font-size="14.00" fill="#000000">tracker_id </text>
<text text-anchor="start" x="118.3394" y="-57.4" font-family="Arial" font-size="14.00" fill="#666666">[int(11)]</text>
<polygon fill="none" stroke="#000000" stroke-width="3" points="44.5,-44.5 44.5,-153.5 295.5,-153.5 295.5,-44.5 44.5,-44.5"/>
</g>
</g>
</svg>
