<?xml version="1.0" encoding="UTF-8" standalone="no"?>
<!DOCTYPE svg PUBLIC "-//W3C//DTD SVG 1.1//EN"
 "http://www.w3.org/Graphics/SVG/1.1/DTD/svg11.dtd">
<!-- Generated by graphviz version 2.40.1 (20161225.0304)
 -->
<!-- Title: repositories Pages: 1 -->
<svg width="304pt" height="536pt"
 viewBox="0.00 0.00 304.00 536.00" xmlns="http://www.w3.org/2000/svg" xmlns:xlink="http://www.w3.org/1999/xlink">
<g id="graph0" class="graph" transform="scale(1 1) rotate(0) translate(4 532)">
<title>repositories</title>
<polygon fill="#ffffff" stroke="transparent" points="-4,4 -4,-532 300,-532 300,4 -4,4"/>
<!-- repositories -->
<g id="node1" class="node">
<title>repositories</title>
<polygon fill="#efefef" stroke="transparent" points="46,-436 46,-482 250,-482 250,-436 46,-436"/>
<polygon fill="none" stroke="#000000" points="46,-436 46,-482 250,-482 250,-436 46,-436"/>
<text text-anchor="start" x="52.8701" y="-459.8" font-family="Arial Bold" font-size="18.00" fill="#000000">repositories</text>
<text text-anchor="start" x="145.8761" y="-459.8" font-family="Arial" font-size="14.00" fill="#000000"> </text>
<text text-anchor="start" x="149.7667" y="-459.8" font-family="Arial" font-size="14.00" fill="#666666">[BASE TABLE]</text>
<text text-anchor="start" x="115.2225" y="-445.4" font-family="Arial" font-size="14.00" fill="#333333">リポジトリ</text>
<polygon fill="none" stroke="#000000" points="46,-406 46,-436 250,-436 250,-406 46,-406"/>
<text text-anchor="start" x="53" y="-417.4" font-family="Arial" font-size="14.00" fill="#000000">id </text>
<text text-anchor="start" x="67.7798" y="-417.4" font-family="Arial" font-size="14.00" fill="#666666">[int(11)]</text>
<polygon fill="none" stroke="#000000" points="46,-376 46,-406 250,-406 250,-376 46,-376"/>
<text text-anchor="start" x="53" y="-387.4" font-family="Arial" font-size="14.00" fill="#000000">project_id </text>
<text text-anchor="start" x="117.568" y="-387.4" font-family="Arial" font-size="14.00" fill="#666666">[int(11)]</text>
<polygon fill="none" stroke="#000000" points="46,-346 46,-376 250,-376 250,-346 46,-346"/>
<text text-anchor="start" x="53" y="-357.4" font-family="Arial" font-size="14.00" fill="#000000">url </text>
<text text-anchor="start" x="72.4404" y="-357.4" font-family="Arial" font-size="14.00" fill="#666666">[varchar(255)]</text>
<polygon fill="none" stroke="#000000" points="46,-316 46,-346 250,-346 250,-316 46,-316"/>
<text text-anchor="start" x="53" y="-327.4" font-family="Arial" font-size="14.00" fill="#000000">login </text>
<text text-anchor="start" x="86.4516" y="-327.4" font-family="Arial" font-size="14.00" fill="#666666">[varchar(60)]</text>
<polygon fill="none" stroke="#000000" points="46,-286 46,-316 250,-316 250,-286 46,-286"/>
<text text-anchor="start" x="53" y="-297.4" font-family="Arial" font-size="14.00" fill="#000000">password </text>
<text text-anchor="start" x="116.7882" y="-297.4" font-family="Arial" font-size="14.00" fill="#666666">[varchar(255)]</text>
<polygon fill="none" stroke="#000000" points="46,-256 46,-286 250,-286 250,-256 46,-256"/>
<text text-anchor="start" x="53" y="-267.4" font-family="Arial" font-size="14.00" fill="#000000">root_url </text>
<text text-anchor="start" x="104.3394" y="-267.4" font-family="Arial" font-size="14.00" fill="#666666">[varchar(255)]</text>
<polygon fill="none" stroke="#000000" points="46,-226 46,-256 250,-256 250,-226 46,-226"/>
<text text-anchor="start" x="53" y="-237.4" font-family="Arial" font-size="14.00" fill="#000000">type </text>
<text text-anchor="start" x="83.3464" y="-237.4" font-family="Arial" font-size="14.00" fill="#666666">[varchar(255)]</text>
<polygon fill="none" stroke="#000000" points="46,-196 46,-226 250,-226 250,-196 46,-196"/>
<text text-anchor="start" x="53" y="-207.4" font-family="Arial" font-size="14.00" fill="#000000">path_encoding </text>
<text text-anchor="start" x="148.7138" y="-207.4" font-family="Arial" font-size="14.00" fill="#666666">[varchar(64)]</text>
<polygon fill="none" stroke="#000000" points="46,-166 46,-196 250,-196 250,-166 46,-166"/>
<text text-anchor="start" x="53" y="-177.4" font-family="Arial" font-size="14.00" fill="#000000">log_encoding </text>
<text text-anchor="start" x="140.1472" y="-177.4" font-family="Arial" font-size="14.00" fill="#666666">[varchar(64)]</text>
<polygon fill="none" stroke="#000000" points="46,-136 46,-166 250,-166 250,-136 46,-136"/>
<text text-anchor="start" x="53" y="-147.4" font-family="Arial" font-size="14.00" fill="#000000">extra_info </text>
<text text-anchor="start" x="118.352" y="-147.4" font-family="Arial" font-size="14.00" fill="#666666">[longtext]</text>
<polygon fill="none" stroke="#000000" points="46,-106 46,-136 250,-136 250,-106 46,-106"/>
<text text-anchor="start" x="53" y="-117.4" font-family="Arial" font-size="14.00" fill="#000000">identifier </text>
<text text-anchor="start" x="109.7826" y="-117.4" font-family="Arial" font-size="14.00" fill="#666666">[varchar(255)]</text>
<polygon fill="none" stroke="#000000" points="46,-76 46,-106 250,-106 250,-76 46,-76"/>
<text text-anchor="start" x="53" y="-87.4" font-family="Arial" font-size="14.00" fill="#000000">is_default </text>
<text text-anchor="start" x="116.798" y="-87.4" font-family="Arial" font-size="14.00" fill="#666666">[tinyint(1)]</text>
<polygon fill="none" stroke="#000000" points="46,-46 46,-76 250,-76 250,-46 46,-46"/>
<text text-anchor="start" x="53" y="-57.4" font-family="Arial" font-size="14.00" fill="#000000">created_on </text>
<text text-anchor="start" x="126.92" y="-57.4" font-family="Arial" font-size="14.00" fill="#666666">[timestamp]</text>
<polygon fill="none" stroke="#000000" stroke-width="3" points="44.5,-44.5 44.5,-483.5 251.5,-483.5 251.5,-44.5 44.5,-44.5"/>
</g>
</g>
</svg>
