<?xml version="1.0" encoding="UTF-8" standalone="no"?>
<!DOCTYPE svg PUBLIC "-//W3C//DTD SVG 1.1//EN"
 "http://www.w3.org/Graphics/SVG/1.1/DTD/svg11.dtd">
<!-- Generated by graphviz version 2.40.1 (20161225.0304)
 -->
<!-- Title: time_entries Pages: 1 -->
<svg width="890pt" height="1274pt"
 viewBox="0.00 0.00 889.50 1274.00" xmlns="http://www.w3.org/2000/svg" xmlns:xlink="http://www.w3.org/1999/xlink">
<g id="graph0" class="graph" transform="scale(1 1) rotate(0) translate(4 1270)">
<title>time_entries</title>
<polygon fill="#ffffff" stroke="transparent" points="-4,4 -4,-1270 885.5,-1270 885.5,4 -4,4"/>
<!-- time_entries -->
<g id="node1" class="node">
<title>time_entries</title>
<polygon fill="#efefef" stroke="transparent" points="267.5,-1174 267.5,-1220 476.5,-1220 476.5,-1174 267.5,-1174"/>
<polygon fill="none" stroke="#000000" points="267.5,-1174 267.5,-1220 476.5,-1220 476.5,-1174 267.5,-1174"/>
<text text-anchor="start" x="274.369" y="-1197.8" font-family="Arial Bold" font-size="18.00" fill="#000000">time_entries</text>
<text text-anchor="start" x="372.3772" y="-1197.8" font-family="Arial" font-size="14.00" fill="#000000"> </text>
<text text-anchor="start" x="376.2678" y="-1197.8" font-family="Arial" font-size="14.00" fill="#666666">[BASE TABLE]</text>
<text text-anchor="start" x="343.2167" y="-1183.4" font-family="Arial" font-size="14.00" fill="#333333">時間管理</text>
<polygon fill="none" stroke="#000000" points="267.5,-1144 267.5,-1174 476.5,-1174 476.5,-1144 267.5,-1144"/>
<text text-anchor="start" x="274.5" y="-1155.4" font-family="Arial" font-size="14.00" fill="#000000">id </text>
<text text-anchor="start" x="289.2798" y="-1155.4" font-family="Arial" font-size="14.00" fill="#666666">[int(11)]</text>
<polygon fill="none" stroke="#000000" points="267.5,-1114 267.5,-1144 476.5,-1144 476.5,-1114 267.5,-1114"/>
<text text-anchor="start" x="274.5" y="-1125.4" font-family="Arial" font-size="14.00" fill="#000000">project_id </text>
<text text-anchor="start" x="339.068" y="-1125.4" font-family="Arial" font-size="14.00" fill="#666666">[int(11)]</text>
<polygon fill="none" stroke="#000000" points="267.5,-1084 267.5,-1114 476.5,-1114 476.5,-1084 267.5,-1084"/>
<text text-anchor="start" x="274.5" y="-1095.4" font-family="Arial" font-size="14.00" fill="#000000">author_id </text>
<text text-anchor="start" x="336.744" y="-1095.4" font-family="Arial" font-size="14.00" fill="#666666">[int(11)]</text>
<polygon fill="none" stroke="#000000" points="267.5,-1054 267.5,-1084 476.5,-1084 476.5,-1054 267.5,-1054"/>
<text text-anchor="start" x="274.5" y="-1065.4" font-family="Arial" font-size="14.00" fill="#000000">user_id </text>
<text text-anchor="start" x="324.2882" y="-1065.4" font-family="Arial" font-size="14.00" fill="#666666">[int(11)]</text>
<polygon fill="none" stroke="#000000" points="267.5,-1024 267.5,-1054 476.5,-1054 476.5,-1024 267.5,-1024"/>
<text text-anchor="start" x="274.5" y="-1035.4" font-family="Arial" font-size="14.00" fill="#000000">issue_id </text>
<text text-anchor="start" x="329.7342" y="-1035.4" font-family="Arial" font-size="14.00" fill="#666666">[int(11)]</text>
<polygon fill="none" stroke="#000000" points="267.5,-994 267.5,-1024 476.5,-1024 476.5,-994 267.5,-994"/>
<text text-anchor="start" x="274.5" y="-1005.4" font-family="Arial" font-size="14.00" fill="#000000">hours </text>
<text text-anchor="start" x="313.399" y="-1005.4" font-family="Arial" font-size="14.00" fill="#666666">[float]</text>
<polygon fill="none" stroke="#000000" points="267.5,-964 267.5,-994 476.5,-994 476.5,-964 267.5,-964"/>
<text text-anchor="start" x="274.5" y="-975.4" font-family="Arial" font-size="14.00" fill="#000000">comments </text>
<text text-anchor="start" x="342.9502" y="-975.4" font-family="Arial" font-size="14.00" fill="#666666">[varchar(1024)]</text>
<polygon fill="none" stroke="#000000" points="267.5,-934 267.5,-964 476.5,-964 476.5,-934 267.5,-934"/>
<text text-anchor="start" x="274.5" y="-945.4" font-family="Arial" font-size="14.00" fill="#000000">activity_id </text>
<text text-anchor="start" x="339.8394" y="-945.4" font-family="Arial" font-size="14.00" fill="#666666">[int(11)]</text>
<polygon fill="none" stroke="#000000" points="267.5,-904 267.5,-934 476.5,-934 476.5,-904 267.5,-904"/>
<text text-anchor="start" x="274.5" y="-915.4" font-family="Arial" font-size="14.00" fill="#000000">spent_on </text>
<text text-anchor="start" x="335.9768" y="-915.4" font-family="Arial" font-size="14.00" fill="#666666">[date]</text>
<polygon fill="none" stroke="#000000" points="267.5,-874 267.5,-904 476.5,-904 476.5,-874 267.5,-874"/>
<text text-anchor="start" x="274.5" y="-885.4" font-family="Arial" font-size="14.00" fill="#000000">tyear </text>
<text text-anchor="start" x="309.507" y="-885.4" font-family="Arial" font-size="14.00" fill="#666666">[int(11)]</text>
<polygon fill="none" stroke="#000000" points="267.5,-844 267.5,-874 476.5,-874 476.5,-844 267.5,-844"/>
<text text-anchor="start" x="274.5" y="-855.4" font-family="Arial" font-size="14.00" fill="#000000">tmonth </text>
<text text-anchor="start" x="321.1802" y="-855.4" font-family="Arial" font-size="14.00" fill="#666666">[int(11)]</text>
<polygon fill="none" stroke="#000000" points="267.5,-814 267.5,-844 476.5,-844 476.5,-814 267.5,-814"/>
<text text-anchor="start" x="274.5" y="-825.4" font-family="Arial" font-size="14.00" fill="#000000">tweek </text>
<text text-anchor="start" x="314.953" y="-825.4" font-family="Arial" font-size="14.00" fill="#666666">[int(11)]</text>
<polygon fill="none" stroke="#000000" points="267.5,-784 267.5,-814 476.5,-814 476.5,-784 267.5,-784"/>
<text text-anchor="start" x="274.5" y="-795.4" font-family="Arial" font-size="14.00" fill="#000000">created_on </text>
<text text-anchor="start" x="348.42" y="-795.4" font-family="Arial" font-size="14.00" fill="#666666">[datetime]</text>
<polygon fill="none" stroke="#000000" points="267.5,-754 267.5,-784 476.5,-784 476.5,-754 267.5,-754"/>
<text text-anchor="start" x="274.5" y="-765.4" font-family="Arial" font-size="14.00" fill="#000000">updated_on </text>
<text text-anchor="start" x="352.3246" y="-765.4" font-family="Arial" font-size="14.00" fill="#666666">[datetime]</text>
<polygon fill="none" stroke="#000000" stroke-width="3" points="265.5,-752.5 265.5,-1221.5 477.5,-1221.5 477.5,-752.5 265.5,-752.5"/>
</g>
<!-- projects -->
<g id="node2" class="node">
<title>projects</title>
<polygon fill="#efefef" stroke="transparent" points="43.5,-538 43.5,-584 252.5,-584 252.5,-538 43.5,-538"/>
<polygon fill="none" stroke="#000000" points="43.5,-538 43.5,-584 252.5,-584 252.5,-538 43.5,-538"/>
<text text-anchor="start" x="67.8695" y="-561.8" font-family="Arial Bold" font-size="18.00" fill="#000000">projects</text>
<text text-anchor="start" x="130.8767" y="-561.8" font-family="Arial" font-size="14.00" fill="#000000"> </text>
<text text-anchor="start" x="134.7673" y="-561.8" font-family="Arial" font-size="14.00" fill="#666666">[BASE TABLE]</text>
<text text-anchor="start" x="105.6269" y="-547.4" font-family="Arial" font-size="14.00" fill="#333333">プロジェクト</text>
<polygon fill="none" stroke="#000000" points="43.5,-508 43.5,-538 252.5,-538 252.5,-508 43.5,-508"/>
<text text-anchor="start" x="50.5" y="-519.4" font-family="Arial" font-size="14.00" fill="#000000">id </text>
<text text-anchor="start" x="65.2798" y="-519.4" font-family="Arial" font-size="14.00" fill="#666666">[int(11)]</text>
<polygon fill="none" stroke="#000000" points="43.5,-478 43.5,-508 252.5,-508 252.5,-478 43.5,-478"/>
<text text-anchor="start" x="50.5" y="-489.4" font-family="Arial" font-size="14.00" fill="#000000">name </text>
<text text-anchor="start" x="89.399" y="-489.4" font-family="Arial" font-size="14.00" fill="#666666">[varchar(255)]</text>
<polygon fill="none" stroke="#000000" points="43.5,-448 43.5,-478 252.5,-478 252.5,-448 43.5,-448"/>
<text text-anchor="start" x="50.5" y="-459.4" font-family="Arial" font-size="14.00" fill="#000000">description </text>
<text text-anchor="start" x="122.068" y="-459.4" font-family="Arial" font-size="14.00" fill="#666666">[text]</text>
<polygon fill="none" stroke="#000000" points="43.5,-418 43.5,-448 252.5,-448 252.5,-418 43.5,-418"/>
<text text-anchor="start" x="50.5" y="-429.4" font-family="Arial" font-size="14.00" fill="#000000">homepage </text>
<text text-anchor="start" x="120.5294" y="-429.4" font-family="Arial" font-size="14.00" fill="#666666">[varchar(255)]</text>
<polygon fill="none" stroke="#000000" points="43.5,-388 43.5,-418 252.5,-418 252.5,-388 43.5,-388"/>
<text text-anchor="start" x="50.5" y="-399.4" font-family="Arial" font-size="14.00" fill="#000000">is_public </text>
<text text-anchor="start" x="108.8408" y="-399.4" font-family="Arial" font-size="14.00" fill="#666666">[tinyint(1)]</text>
<polygon fill="none" stroke="#000000" points="43.5,-358 43.5,-388 252.5,-388 252.5,-358 43.5,-358"/>
<text text-anchor="start" x="50.5" y="-369.4" font-family="Arial" font-size="14.00" fill="#000000">parent_id </text>
<text text-anchor="start" x="112.744" y="-369.4" font-family="Arial" font-size="14.00" fill="#666666">[int(11)]</text>
<polygon fill="none" stroke="#000000" points="43.5,-328 43.5,-358 252.5,-358 252.5,-328 43.5,-328"/>
<text text-anchor="start" x="50.5" y="-339.4" font-family="Arial" font-size="14.00" fill="#000000">created_on </text>
<text text-anchor="start" x="124.42" y="-339.4" font-family="Arial" font-size="14.00" fill="#666666">[timestamp]</text>
<polygon fill="none" stroke="#000000" points="43.5,-298 43.5,-328 252.5,-328 252.5,-298 43.5,-298"/>
<text text-anchor="start" x="50.5" y="-309.4" font-family="Arial" font-size="14.00" fill="#000000">updated_on </text>
<text text-anchor="start" x="128.3246" y="-309.4" font-family="Arial" font-size="14.00" fill="#666666">[timestamp]</text>
<polygon fill="none" stroke="#000000" points="43.5,-268 43.5,-298 252.5,-298 252.5,-268 43.5,-268"/>
<text text-anchor="start" x="50.5" y="-279.4" font-family="Arial" font-size="14.00" fill="#000000">identifier </text>
<text text-anchor="start" x="107.2826" y="-279.4" font-family="Arial" font-size="14.00" fill="#666666">[varchar(255)]</text>
<polygon fill="none" stroke="#000000" points="43.5,-238 43.5,-268 252.5,-268 252.5,-238 43.5,-238"/>
<text text-anchor="start" x="50.5" y="-249.4" font-family="Arial" font-size="14.00" fill="#000000">status </text>
<text text-anchor="start" x="91.737" y="-249.4" font-family="Arial" font-size="14.00" fill="#666666">[int(11)]</text>
<polygon fill="none" stroke="#000000" points="43.5,-208 43.5,-238 252.5,-238 252.5,-208 43.5,-208"/>
<text text-anchor="start" x="50.5" y="-219.4" font-family="Arial" font-size="14.00" fill="#000000">lft </text>
<text text-anchor="start" x="65.2784" y="-219.4" font-family="Arial" font-size="14.00" fill="#666666">[int(11)]</text>
<polygon fill="none" stroke="#000000" points="43.5,-178 43.5,-208 252.5,-208 252.5,-178 43.5,-178"/>
<text text-anchor="start" x="50.5" y="-189.4" font-family="Arial" font-size="14.00" fill="#000000">rgt </text>
<text text-anchor="start" x="70.7244" y="-189.4" font-family="Arial" font-size="14.00" fill="#666666">[int(11)]</text>
<polygon fill="none" stroke="#000000" points="43.5,-148 43.5,-178 252.5,-178 252.5,-148 43.5,-148"/>
<text text-anchor="start" x="50.5" y="-159.4" font-family="Arial" font-size="14.00" fill="#000000">inherit_members </text>
<text text-anchor="start" x="158.615" y="-159.4" font-family="Arial" font-size="14.00" fill="#666666">[tinyint(1)]</text>
<polygon fill="none" stroke="#000000" points="43.5,-118 43.5,-148 252.5,-148 252.5,-118 43.5,-118"/>
<text text-anchor="start" x="50.5" y="-129.4" font-family="Arial" font-size="14.00" fill="#000000">default_version_id </text>
<text text-anchor="start" x="167.9782" y="-129.4" font-family="Arial" font-size="14.00" fill="#666666">[int(11)]</text>
<polygon fill="none" stroke="#000000" points="43.5,-88 43.5,-118 252.5,-118 252.5,-88 43.5,-88"/>
<text text-anchor="start" x="50.357" y="-99.4" font-family="Arial" font-size="14.00" fill="#000000">default_assigned_to_id </text>
<text text-anchor="start" x="198.1956" y="-99.4" font-family="Arial" font-size="14.00" fill="#666666">[int(11)]</text>
</g>
<!-- time_entries&#45;&gt;projects -->
<g id="edge1" class="edge">
<title>time_entries:project_id&#45;&gt;projects:id</title>
<path fill="none" stroke="#000000" stroke-dasharray="5,2" d="M261.6124,-1120.4334C240.76,-1046.7772 283.8091,-523 252.5,-523"/>
<polygon fill="#000000" stroke="#000000" points="261.836,-1120.7587 263.7914,-1131.5488 264.668,-1124.8793 267.5,-1129 267.5,-1129 267.5,-1129 264.668,-1124.8793 271.2086,-1126.4512 261.836,-1120.7587 261.836,-1120.7587"/>
<text text-anchor="start" x="177.8245" y="-1139" font-family="Arial" font-size="10.00" fill="#000000">Additional Relation</text>
</g>
<!-- users -->
<g id="node3" class="node">
<title>users</title>
<polygon fill="#efefef" stroke="transparent" points="356.5,-583 356.5,-629 838.5,-629 838.5,-583 356.5,-583"/>
<polygon fill="none" stroke="#000000" points="356.5,-583 356.5,-629 838.5,-629 838.5,-583 356.5,-583"/>
<text text-anchor="start" x="526.8708" y="-606.8" font-family="Arial Bold" font-size="18.00" fill="#000000">users</text>
<text text-anchor="start" x="570.8754" y="-606.8" font-family="Arial" font-size="14.00" fill="#000000"> </text>
<text text-anchor="start" x="574.766" y="-606.8" font-family="Arial" font-size="14.00" fill="#666666">[BASE TABLE]</text>
<text text-anchor="start" x="518.9558" y="-592.4" font-family="Arial" font-size="14.00" fill="#333333">ユーザー / グループ</text>
<polygon fill="none" stroke="#000000" points="356.5,-553 356.5,-583 838.5,-583 838.5,-553 356.5,-553"/>
<text text-anchor="start" x="363.5" y="-564.4" font-family="Arial" font-size="14.00" fill="#000000">id </text>
<text text-anchor="start" x="378.2798" y="-564.4" font-family="Arial" font-size="14.00" fill="#666666">[int(11)]</text>
<polygon fill="none" stroke="#000000" points="356.5,-523 356.5,-553 838.5,-553 838.5,-523 356.5,-523"/>
<text text-anchor="start" x="363.5" y="-534.4" font-family="Arial" font-size="14.00" fill="#000000">login </text>
<text text-anchor="start" x="396.9516" y="-534.4" font-family="Arial" font-size="14.00" fill="#666666">[varchar(255)]</text>
<text text-anchor="start" x="484.0708" y="-534.4" font-family="Arial" font-size="14.00" fill="#000000"> ログインID</text>
<polygon fill="none" stroke="#000000" points="356.5,-493 356.5,-523 838.5,-523 838.5,-493 356.5,-493"/>
<text text-anchor="start" x="363.5" y="-504.4" font-family="Arial" font-size="14.00" fill="#000000">hashed_password </text>
<text text-anchor="start" x="480.9838" y="-504.4" font-family="Arial" font-size="14.00" fill="#666666">[varchar(40)]</text>
<text text-anchor="start" x="560.3204" y="-504.4" font-family="Arial" font-size="14.00" fill="#000000"> パスワード(ハッシュ化済み)</text>
<polygon fill="none" stroke="#000000" points="356.5,-463 356.5,-493 838.5,-493 838.5,-463 356.5,-463"/>
<text text-anchor="start" x="363.5" y="-474.4" font-family="Arial" font-size="14.00" fill="#000000">firstname </text>
<text text-anchor="start" x="424.9474" y="-474.4" font-family="Arial" font-size="14.00" fill="#666666">[varchar(30)]</text>
<text text-anchor="start" x="504.284" y="-474.4" font-family="Arial" font-size="14.00" fill="#000000"> 名</text>
<polygon fill="none" stroke="#000000" points="356.5,-433 356.5,-463 838.5,-463 838.5,-433 356.5,-433"/>
<text text-anchor="start" x="363.5" y="-444.4" font-family="Arial" font-size="14.00" fill="#000000">lastname </text>
<text text-anchor="start" x="424.1788" y="-444.4" font-family="Arial" font-size="14.00" fill="#666666">[varchar(255)]</text>
<text text-anchor="start" x="511.298" y="-444.4" font-family="Arial" font-size="14.00" fill="#000000"> 姓</text>
<polygon fill="none" stroke="#000000" points="356.5,-403 356.5,-433 838.5,-433 838.5,-403 356.5,-403"/>
<text text-anchor="start" x="363.5" y="-414.4" font-family="Arial" font-size="14.00" fill="#000000">admin </text>
<text text-anchor="start" x="405.5056" y="-414.4" font-family="Arial" font-size="14.00" fill="#666666">[tinyint(1)]</text>
<text text-anchor="start" x="466.9502" y="-414.4" font-family="Arial" font-size="14.00" fill="#000000"> システム管理者</text>
<polygon fill="none" stroke="#000000" points="356.5,-373 356.5,-403 838.5,-403 838.5,-373 356.5,-373"/>
<text text-anchor="start" x="363.5" y="-384.4" font-family="Arial" font-size="14.00" fill="#000000">status </text>
<text text-anchor="start" x="404.737" y="-384.4" font-family="Arial" font-size="14.00" fill="#666666">[int(11)]</text>
<polygon fill="none" stroke="#000000" points="356.5,-343 356.5,-373 838.5,-373 838.5,-343 356.5,-343"/>
<text text-anchor="start" x="363.5" y="-354.4" font-family="Arial" font-size="14.00" fill="#000000">last_login_on </text>
<text text-anchor="start" x="449.8618" y="-354.4" font-family="Arial" font-size="14.00" fill="#666666">[datetime]</text>
<polygon fill="none" stroke="#000000" points="356.5,-313 356.5,-343 838.5,-343 838.5,-313 356.5,-313"/>
<text text-anchor="start" x="363.5" y="-324.4" font-family="Arial" font-size="14.00" fill="#000000">language </text>
<text text-anchor="start" x="424.9754" y="-324.4" font-family="Arial" font-size="14.00" fill="#666666">[varchar(5)]</text>
<text text-anchor="start" x="496.5294" y="-324.4" font-family="Arial" font-size="14.00" fill="#000000"> 言語</text>
<polygon fill="none" stroke="#000000" points="356.5,-283 356.5,-313 838.5,-313 838.5,-283 356.5,-283"/>
<text text-anchor="start" x="363.5" y="-294.4" font-family="Arial" font-size="14.00" fill="#000000">auth_source_id </text>
<text text-anchor="start" x="463.0918" y="-294.4" font-family="Arial" font-size="14.00" fill="#666666">[int(11)]</text>
<polygon fill="none" stroke="#000000" points="356.5,-253 356.5,-283 838.5,-283 838.5,-253 356.5,-253"/>
<text text-anchor="start" x="363.5" y="-264.4" font-family="Arial" font-size="14.00" fill="#000000">created_on </text>
<text text-anchor="start" x="437.42" y="-264.4" font-family="Arial" font-size="14.00" fill="#666666">[timestamp]</text>
<polygon fill="none" stroke="#000000" points="356.5,-223 356.5,-253 838.5,-253 838.5,-223 356.5,-223"/>
<text text-anchor="start" x="363.5" y="-234.4" font-family="Arial" font-size="14.00" fill="#000000">updated_on </text>
<text text-anchor="start" x="441.3246" y="-234.4" font-family="Arial" font-size="14.00" fill="#666666">[timestamp]</text>
<polygon fill="none" stroke="#000000" points="356.5,-193 356.5,-223 838.5,-223 838.5,-193 356.5,-193"/>
<text text-anchor="start" x="363.5" y="-204.4" font-family="Arial" font-size="14.00" fill="#000000">type </text>
<text text-anchor="start" x="393.8464" y="-204.4" font-family="Arial" font-size="14.00" fill="#666666">[varchar(255)]</text>
<text text-anchor="start" x="480.9656" y="-204.4" font-family="Arial" font-size="14.00" fill="#000000"> User:ユーザー / Group:グループ</text>
<polygon fill="none" stroke="#000000" points="356.5,-163 356.5,-193 838.5,-193 838.5,-163 356.5,-163"/>
<text text-anchor="start" x="363.5" y="-174.4" font-family="Arial" font-size="14.00" fill="#000000">identity_url </text>
<text text-anchor="start" x="435.0652" y="-174.4" font-family="Arial" font-size="14.00" fill="#666666">[varchar(255)]</text>
<polygon fill="none" stroke="#000000" points="356.5,-133 356.5,-163 838.5,-163 838.5,-133 356.5,-133"/>
<text text-anchor="start" x="363.5" y="-144.4" font-family="Arial" font-size="14.00" fill="#000000">mail_notification </text>
<text text-anchor="start" x="467.7342" y="-144.4" font-family="Arial" font-size="14.00" fill="#666666">[varchar(255)]</text>
<text text-anchor="start" x="554.8534" y="-144.4" font-family="Arial" font-size="14.00" fill="#000000"> メール通知</text>
<polygon fill="none" stroke="#000000" points="356.5,-103 356.5,-133 838.5,-133 838.5,-103 356.5,-103"/>
<text text-anchor="start" x="363.5" y="-114.4" font-family="Arial" font-size="14.00" fill="#000000">salt </text>
<text text-anchor="start" x="389.1704" y="-114.4" font-family="Arial" font-size="14.00" fill="#666666">[varchar(64)]</text>
<polygon fill="none" stroke="#000000" points="356.5,-73 356.5,-103 838.5,-103 838.5,-73 356.5,-73"/>
<text text-anchor="start" x="363.2646" y="-84.4" font-family="Arial" font-size="14.00" fill="#000000">must_change_passwd </text>
<text text-anchor="start" x="506.4216" y="-84.4" font-family="Arial" font-size="14.00" fill="#666666">[tinyint(1)]</text>
<text text-anchor="start" x="567.8662" y="-84.4" font-family="Arial" font-size="14.00" fill="#000000"> 次回ログイン時にパスワード変更を強制</text>
<polygon fill="none" stroke="#000000" points="356.5,-43 356.5,-73 838.5,-73 838.5,-43 356.5,-43"/>
<text text-anchor="start" x="363.5" y="-54.4" font-family="Arial" font-size="14.00" fill="#000000">passwd_changed_on </text>
<text text-anchor="start" x="499.671" y="-54.4" font-family="Arial" font-size="14.00" fill="#666666">[datetime]</text>
</g>
<!-- time_entries&#45;&gt;users -->
<g id="edge2" class="edge">
<title>time_entries:author_id&#45;&gt;users:id</title>
<path fill="none" stroke="#000000" stroke-dasharray="5,2" d="M486.8856,-1098.6857C647.3907,-1088.7285 578.1059,-844.5615 476.5,-708 443.2619,-663.327 389.7381,-716.673 356.5,-672 328.9085,-634.9162 310.2778,-568 356.5,-568"/>
<polygon fill="#000000" stroke="#000000" points="486.4954,-1098.6974 476.3638,-1094.5021 481.4977,-1098.8487 476.5,-1099 476.5,-1099 476.5,-1099 481.4977,-1098.8487 476.6362,-1103.4979 486.4954,-1098.6974 486.4954,-1098.6974"/>
<text text-anchor="start" x="483.8245" y="-1109" font-family="Arial" font-size="10.00" fill="#000000">Additional Relation</text>
</g>
</g>
</svg>
