<?xml version="1.0" encoding="UTF-8" standalone="no"?>
<!DOCTYPE svg PUBLIC "-//W3C//DTD SVG 1.1//EN"
 "http://www.w3.org/Graphics/SVG/1.1/DTD/svg11.dtd">
<!-- Generated by graphviz version 2.40.1 (20161225.0304)
 -->
<!-- Title: user_preferences Pages: 1 -->
<svg width="398pt" height="296pt"
 viewBox="0.00 0.00 398.00 296.00" xmlns="http://www.w3.org/2000/svg" xmlns:xlink="http://www.w3.org/1999/xlink">
<g id="graph0" class="graph" transform="scale(1 1) rotate(0) translate(4 292)">
<title>user_preferences</title>
<polygon fill="#ffffff" stroke="transparent" points="-4,4 -4,-292 394,-292 394,4 -4,4"/>
<!-- user_preferences -->
<g id="node1" class="node">
<title>user_preferences</title>
<polygon fill="#efefef" stroke="transparent" points="46,-196 46,-242 344,-242 344,-196 46,-196"/>
<polygon fill="none" stroke="#000000" points="46,-196 46,-242 344,-242 344,-196 46,-196"/>
<text text-anchor="start" x="76.3558" y="-219.8" font-family="Arial Bold" font-size="18.00" fill="#000000">user_preferences</text>
<text text-anchor="start" x="216.3904" y="-219.8" font-family="Arial" font-size="14.00" fill="#000000"> </text>
<text text-anchor="start" x="220.281" y="-219.8" font-family="Arial" font-size="14.00" fill="#666666">[BASE TABLE]</text>
<text text-anchor="start" x="137.7085" y="-205.4" font-family="Arial" font-size="14.00" fill="#333333">ユーザー設定</text>
<polygon fill="none" stroke="#000000" points="46,-166 46,-196 344,-196 344,-166 46,-166"/>
<text text-anchor="start" x="53" y="-177.4" font-family="Arial" font-size="14.00" fill="#000000">id </text>
<text text-anchor="start" x="67.7798" y="-177.4" font-family="Arial" font-size="14.00" fill="#666666">[int(11)]</text>
<polygon fill="none" stroke="#000000" points="46,-136 46,-166 344,-166 344,-136 46,-136"/>
<text text-anchor="start" x="53" y="-147.4" font-family="Arial" font-size="14.00" fill="#000000">user_id </text>
<text text-anchor="start" x="102.7882" y="-147.4" font-family="Arial" font-size="14.00" fill="#666666">[int(11)]</text>
<polygon fill="none" stroke="#000000" points="46,-106 46,-136 344,-136 344,-106 46,-106"/>
<text text-anchor="start" x="53" y="-117.4" font-family="Arial" font-size="14.00" fill="#000000">others </text>
<text text-anchor="start" x="95.7896" y="-117.4" font-family="Arial" font-size="14.00" fill="#666666">[text]</text>
<polygon fill="none" stroke="#000000" points="46,-76 46,-106 344,-106 344,-76 46,-76"/>
<text text-anchor="start" x="52.6837" y="-87.4" font-family="Arial" font-size="14.00" fill="#000000">hide_mail </text>
<text text-anchor="start" x="116.4677" y="-87.4" font-family="Arial" font-size="14.00" fill="#666666">[tinyint(1)]</text>
<text text-anchor="start" x="177.9123" y="-87.4" font-family="Arial" font-size="14.00" fill="#000000"> メールアドレスを隠す</text>
<polygon fill="none" stroke="#000000" points="46,-46 46,-76 344,-76 344,-46 46,-46"/>
<text text-anchor="start" x="53" y="-57.4" font-family="Arial" font-size="14.00" fill="#000000">time_zone </text>
<text text-anchor="start" x="121.4614" y="-57.4" font-family="Arial" font-size="14.00" fill="#666666">[varchar(255)]</text>
<text text-anchor="start" x="208.5806" y="-57.4" font-family="Arial" font-size="14.00" fill="#000000"> タイムゾーン</text>
<polygon fill="none" stroke="#000000" stroke-width="3" points="44.5,-44.5 44.5,-243.5 345.5,-243.5 345.5,-44.5 44.5,-44.5"/>
</g>
</g>
</svg>
