<?xml version="1.0" encoding="UTF-8" standalone="no"?>
<!DOCTYPE svg PUBLIC "-//W3C//DTD SVG 1.1//EN"
 "http://www.w3.org/Graphics/SVG/1.1/DTD/svg11.dtd">
<!-- Generated by graphviz version 2.40.1 (20161225.0304)
 -->
<!-- Title: users Pages: 1 -->
<svg width="583pt" height="914pt"
 viewBox="0.00 0.00 582.52 914.00" xmlns="http://www.w3.org/2000/svg" xmlns:xlink="http://www.w3.org/1999/xlink">
<g id="graph0" class="graph" transform="scale(1 1) rotate(0) translate(4 910)">
<title>users</title>
<polygon fill="#ffffff" stroke="transparent" points="-4,4 -4,-910 578.518,-910 578.518,4 -4,4"/>
<!-- users -->
<g id="node1" class="node">
<title>users</title>
<polygon fill="#efefef" stroke="transparent" points="46,-586 46,-632 528,-632 528,-586 46,-586"/>
<polygon fill="none" stroke="#000000" points="46,-586 46,-632 528,-632 528,-586 46,-586"/>
<text text-anchor="start" x="216.3708" y="-609.8" font-family="Arial Bold" font-size="18.00" fill="#000000">users</text>
<text text-anchor="start" x="260.3754" y="-609.8" font-family="Arial" font-size="14.00" fill="#000000"> </text>
<text text-anchor="start" x="264.266" y="-609.8" font-family="Arial" font-size="14.00" fill="#666666">[BASE TABLE]</text>
<text text-anchor="start" x="208.4558" y="-595.4" font-family="Arial" font-size="14.00" fill="#333333">ユーザー / グループ</text>
<polygon fill="none" stroke="#000000" points="46,-556 46,-586 528,-586 528,-556 46,-556"/>
<text text-anchor="start" x="53" y="-567.4" font-family="Arial" font-size="14.00" fill="#000000">id </text>
<text text-anchor="start" x="67.7798" y="-567.4" font-family="Arial" font-size="14.00" fill="#666666">[int(11)]</text>
<polygon fill="none" stroke="#000000" points="46,-526 46,-556 528,-556 528,-526 46,-526"/>
<text text-anchor="start" x="53" y="-537.4" font-family="Arial" font-size="14.00" fill="#000000">login </text>
<text text-anchor="start" x="86.4516" y="-537.4" font-family="Arial" font-size="14.00" fill="#666666">[varchar(255)]</text>
<text text-anchor="start" x="173.5708" y="-537.4" font-family="Arial" font-size="14.00" fill="#000000"> ログインID</text>
<polygon fill="none" stroke="#000000" points="46,-496 46,-526 528,-526 528,-496 46,-496"/>
<text text-anchor="start" x="53" y="-507.4" font-family="Arial" font-size="14.00" fill="#000000">hashed_password </text>
<text text-anchor="start" x="170.4838" y="-507.4" font-family="Arial" font-size="14.00" fill="#666666">[varchar(40)]</text>
<text text-anchor="start" x="249.8204" y="-507.4" font-family="Arial" font-size="14.00" fill="#000000"> パスワード(ハッシュ化済み)</text>
<polygon fill="none" stroke="#000000" points="46,-466 46,-496 528,-496 528,-466 46,-466"/>
<text text-anchor="start" x="53" y="-477.4" font-family="Arial" font-size="14.00" fill="#000000">firstname </text>
<text text-anchor="start" x="114.4474" y="-477.4" font-family="Arial" font-size="14.00" fill="#666666">[varchar(30)]</text>
<text text-anchor="start" x="193.784" y="-477.4" font-family="Arial" font-size="14.00" fill="#000000"> 名</text>
<polygon fill="none" stroke="#000000" points="46,-436 46,-466 528,-466 528,-436 46,-436"/>
<text text-anchor="start" x="53" y="-447.4" font-family="Arial" font-size="14.00" fill="#000000">lastname </text>
<text text-anchor="start" x="113.6788" y="-447.4" font-family="Arial" font-size="14.00" fill="#666666">[varchar(255)]</text>
<text text-anchor="start" x="200.798" y="-447.4" font-family="Arial" font-size="14.00" fill="#000000"> 姓</text>
<polygon fill="none" stroke="#000000" points="46,-406 46,-436 528,-436 528,-406 46,-406"/>
<text text-anchor="start" x="53" y="-417.4" font-family="Arial" font-size="14.00" fill="#000000">admin </text>
<text text-anchor="start" x="95.0056" y="-417.4" font-family="Arial" font-size="14.00" fill="#666666">[tinyint(1)]</text>
<text text-anchor="start" x="156.4502" y="-417.4" font-family="Arial" font-size="14.00" fill="#000000"> システム管理者</text>
<polygon fill="none" stroke="#000000" points="46,-376 46,-406 528,-406 528,-376 46,-376"/>
<text text-anchor="start" x="53" y="-387.4" font-family="Arial" font-size="14.00" fill="#000000">status </text>
<text text-anchor="start" x="94.237" y="-387.4" font-family="Arial" font-size="14.00" fill="#666666">[int(11)]</text>
<polygon fill="none" stroke="#000000" points="46,-346 46,-376 528,-376 528,-346 46,-346"/>
<text text-anchor="start" x="53" y="-357.4" font-family="Arial" font-size="14.00" fill="#000000">last_login_on </text>
<text text-anchor="start" x="139.3618" y="-357.4" font-family="Arial" font-size="14.00" fill="#666666">[datetime]</text>
<polygon fill="none" stroke="#000000" points="46,-316 46,-346 528,-346 528,-316 46,-316"/>
<text text-anchor="start" x="53" y="-327.4" font-family="Arial" font-size="14.00" fill="#000000">language </text>
<text text-anchor="start" x="114.4754" y="-327.4" font-family="Arial" font-size="14.00" fill="#666666">[varchar(5)]</text>
<text text-anchor="start" x="186.0294" y="-327.4" font-family="Arial" font-size="14.00" fill="#000000"> 言語</text>
<polygon fill="none" stroke="#000000" points="46,-286 46,-316 528,-316 528,-286 46,-286"/>
<text text-anchor="start" x="53" y="-297.4" font-family="Arial" font-size="14.00" fill="#000000">auth_source_id </text>
<text text-anchor="start" x="152.5918" y="-297.4" font-family="Arial" font-size="14.00" fill="#666666">[int(11)]</text>
<polygon fill="none" stroke="#000000" points="46,-256 46,-286 528,-286 528,-256 46,-256"/>
<text text-anchor="start" x="53" y="-267.4" font-family="Arial" font-size="14.00" fill="#000000">created_on </text>
<text text-anchor="start" x="126.92" y="-267.4" font-family="Arial" font-size="14.00" fill="#666666">[timestamp]</text>
<polygon fill="none" stroke="#000000" points="46,-226 46,-256 528,-256 528,-226 46,-226"/>
<text text-anchor="start" x="53" y="-237.4" font-family="Arial" font-size="14.00" fill="#000000">updated_on </text>
<text text-anchor="start" x="130.8246" y="-237.4" font-family="Arial" font-size="14.00" fill="#666666">[timestamp]</text>
<polygon fill="none" stroke="#000000" points="46,-196 46,-226 528,-226 528,-196 46,-196"/>
<text text-anchor="start" x="53" y="-207.4" font-family="Arial" font-size="14.00" fill="#000000">type </text>
<text text-anchor="start" x="83.3464" y="-207.4" font-family="Arial" font-size="14.00" fill="#666666">[varchar(255)]</text>
<text text-anchor="start" x="170.4656" y="-207.4" font-family="Arial" font-size="14.00" fill="#000000"> User:ユーザー / Group:グループ</text>
<polygon fill="none" stroke="#000000" points="46,-166 46,-196 528,-196 528,-166 46,-166"/>
<text text-anchor="start" x="53" y="-177.4" font-family="Arial" font-size="14.00" fill="#000000">identity_url </text>
<text text-anchor="start" x="124.5652" y="-177.4" font-family="Arial" font-size="14.00" fill="#666666">[varchar(255)]</text>
<polygon fill="none" stroke="#000000" points="46,-136 46,-166 528,-166 528,-136 46,-136"/>
<text text-anchor="start" x="53" y="-147.4" font-family="Arial" font-size="14.00" fill="#000000">mail_notification </text>
<text text-anchor="start" x="157.2342" y="-147.4" font-family="Arial" font-size="14.00" fill="#666666">[varchar(255)]</text>
<text text-anchor="start" x="244.3534" y="-147.4" font-family="Arial" font-size="14.00" fill="#000000"> メール通知</text>
<polygon fill="none" stroke="#000000" points="46,-106 46,-136 528,-136 528,-106 46,-106"/>
<text text-anchor="start" x="53" y="-117.4" font-family="Arial" font-size="14.00" fill="#000000">salt </text>
<text text-anchor="start" x="78.6704" y="-117.4" font-family="Arial" font-size="14.00" fill="#666666">[varchar(64)]</text>
<polygon fill="none" stroke="#000000" points="46,-76 46,-106 528,-106 528,-76 46,-76"/>
<text text-anchor="start" x="52.7646" y="-87.4" font-family="Arial" font-size="14.00" fill="#000000">must_change_passwd </text>
<text text-anchor="start" x="195.9216" y="-87.4" font-family="Arial" font-size="14.00" fill="#666666">[tinyint(1)]</text>
<text text-anchor="start" x="257.3662" y="-87.4" font-family="Arial" font-size="14.00" fill="#000000"> 次回ログイン時にパスワード変更を強制</text>
<polygon fill="none" stroke="#000000" points="46,-46 46,-76 528,-76 528,-46 46,-46"/>
<text text-anchor="start" x="53" y="-57.4" font-family="Arial" font-size="14.00" fill="#000000">passwd_changed_on </text>
<text text-anchor="start" x="189.171" y="-57.4" font-family="Arial" font-size="14.00" fill="#666666">[datetime]</text>
<polygon fill="none" stroke="#000000" stroke-width="3" points="44.5,-44.5 44.5,-633.5 529.5,-633.5 529.5,-44.5 44.5,-44.5"/>
</g>
<!-- groups_users -->
<g id="node2" class="node">
<title>groups_users</title>
<polygon fill="#efefef" stroke="transparent" points="177,-817 177,-863 397,-863 397,-817 177,-817"/>
<polygon fill="none" stroke="#000000" points="177,-817 177,-863 397,-863 397,-817 177,-817"/>
<text text-anchor="start" x="183.8592" y="-840.8" font-family="Arial Bold" font-size="18.00" fill="#000000">groups_users</text>
<text text-anchor="start" x="292.887" y="-840.8" font-family="Arial" font-size="14.00" fill="#000000"> </text>
<text text-anchor="start" x="296.7776" y="-840.8" font-family="Arial" font-size="14.00" fill="#666666">[BASE TABLE]</text>
<text text-anchor="start" x="208.4558" y="-826.4" font-family="Arial" font-size="14.00" fill="#333333">グループ⇔ユーザー</text>
<polygon fill="none" stroke="#000000" points="177,-787 177,-817 397,-817 397,-787 177,-787"/>
<text text-anchor="start" x="184" y="-798.4" font-family="Arial" font-size="14.00" fill="#000000">group_id </text>
<text text-anchor="start" x="242.3534" y="-798.4" font-family="Arial" font-size="14.00" fill="#666666">[int(11)]</text>
<polygon fill="none" stroke="#000000" points="177,-757 177,-787 397,-787 397,-757 177,-757"/>
<text text-anchor="start" x="184" y="-768.4" font-family="Arial" font-size="14.00" fill="#000000">user_id </text>
<text text-anchor="start" x="233.7882" y="-768.4" font-family="Arial" font-size="14.00" fill="#666666">[int(11)]</text>
</g>
<!-- groups_users&#45;&gt;users -->
<g id="edge1" class="edge">
<title>groups_users:user_id&#45;&gt;users:id</title>
<path fill="none" stroke="#000000" stroke-dasharray="5,2" d="M287.5353,-746.8278C298.1576,-652.1128 463.9955,-766.3362 528,-678 555.9023,-639.4904 575.5556,-571 528,-571"/>
<polygon fill="#000000" stroke="#000000" points="287.5256,-747.0138 282.5062,-756.7635 287.2628,-752.0069 287,-757 287,-757 287,-757 287.2628,-752.0069 291.4938,-757.2365 287.5256,-747.0138 287.5256,-747.0138"/>
<text text-anchor="start" x="270.0745" y="-741" font-family="Arial" font-size="10.00" fill="#000000">Additional Relation</text>
</g>
<!-- groups_users&#45;&gt;users -->
<g id="edge2" class="edge">
<title>groups_users:group_id&#45;&gt;users:id</title>
<path fill="none" stroke="#000000" stroke-dasharray="5,2" d="M407.0529,-801.4547C522.2468,-789.1013 642.684,-571 528,-571"/>
<polygon fill="#000000" stroke="#000000" points="406.9853,-801.4583 396.7562,-797.5066 401.9927,-801.7291 397,-802 397,-802 397,-802 401.9927,-801.7291 397.2438,-806.4934 406.9853,-801.4583 406.9853,-801.4583"/>
<text text-anchor="start" x="404.3245" y="-812" font-family="Arial" font-size="10.00" fill="#000000">Additional Relation</text>
</g>
</g>
</svg>
