<?xml version="1.0" encoding="UTF-8" standalone="no"?>
<!DOCTYPE svg PUBLIC "-//W3C//DTD SVG 1.1//EN"
 "http://www.w3.org/Graphics/SVG/1.1/DTD/svg11.dtd">
<!-- Generated by graphviz version 2.40.1 (20161225.0304)
 -->
<!-- Title: wikis Pages: 1 -->
<svg width="618pt" height="1221pt"
 viewBox="0.00 0.00 618.00 1221.00" xmlns="http://www.w3.org/2000/svg" xmlns:xlink="http://www.w3.org/1999/xlink">
<g id="graph0" class="graph" transform="scale(1 1) rotate(0) translate(4 1217)">
<title>wikis</title>
<polygon fill="#ffffff" stroke="transparent" points="-4,4 -4,-1217 614,-1217 614,4 -4,4"/>
<!-- wikis -->
<g id="node1" class="node">
<title>wikis</title>
<polygon fill="#efefef" stroke="transparent" points="371,-783.5 371,-818.5 542,-818.5 542,-783.5 371,-783.5"/>
<polygon fill="none" stroke="#000000" points="371,-783.5 371,-818.5 542,-818.5 542,-783.5 371,-783.5"/>
<text text-anchor="start" x="388.3818" y="-796.3" font-family="Arial Bold" font-size="18.00" fill="#000000">wikis</text>
<text text-anchor="start" x="427.3644" y="-796.3" font-family="Arial" font-size="14.00" fill="#000000"> </text>
<text text-anchor="start" x="431.255" y="-796.3" font-family="Arial" font-size="14.00" fill="#666666">[BASE TABLE]</text>
<polygon fill="none" stroke="#000000" points="371,-753.5 371,-783.5 542,-783.5 542,-753.5 371,-753.5"/>
<text text-anchor="start" x="378" y="-764.9" font-family="Arial" font-size="14.00" fill="#000000">id </text>
<text text-anchor="start" x="392.7798" y="-764.9" font-family="Arial" font-size="14.00" fill="#666666">[int(11)]</text>
<polygon fill="none" stroke="#000000" points="371,-723.5 371,-753.5 542,-753.5 542,-723.5 371,-723.5"/>
<text text-anchor="start" x="378" y="-734.9" font-family="Arial" font-size="14.00" fill="#000000">project_id </text>
<text text-anchor="start" x="442.568" y="-734.9" font-family="Arial" font-size="14.00" fill="#666666">[int(11)]</text>
<polygon fill="none" stroke="#000000" points="371,-693.5 371,-723.5 542,-723.5 542,-693.5 371,-693.5"/>
<text text-anchor="start" x="377.9264" y="-704.9" font-family="Arial" font-size="14.00" fill="#000000">start_page </text>
<text text-anchor="start" x="447.9544" y="-704.9" font-family="Arial" font-size="14.00" fill="#666666">[varchar(255)]</text>
<polygon fill="none" stroke="#000000" points="371,-663.5 371,-693.5 542,-693.5 542,-663.5 371,-663.5"/>
<text text-anchor="start" x="378" y="-674.9" font-family="Arial" font-size="14.00" fill="#000000">status </text>
<text text-anchor="start" x="419.237" y="-674.9" font-family="Arial" font-size="14.00" fill="#666666">[int(11)]</text>
<polygon fill="none" stroke="#000000" stroke-width="3" points="369,-662.5 369,-820.5 543,-820.5 543,-662.5 369,-662.5"/>
</g>
<!-- projects -->
<g id="node4" class="node">
<title>projects</title>
<polygon fill="#efefef" stroke="transparent" points="352,-493 352,-539 561,-539 561,-493 352,-493"/>
<polygon fill="none" stroke="#000000" points="352,-493 352,-539 561,-539 561,-493 352,-493"/>
<text text-anchor="start" x="376.3695" y="-516.8" font-family="Arial Bold" font-size="18.00" fill="#000000">projects</text>
<text text-anchor="start" x="439.3767" y="-516.8" font-family="Arial" font-size="14.00" fill="#000000"> </text>
<text text-anchor="start" x="443.2673" y="-516.8" font-family="Arial" font-size="14.00" fill="#666666">[BASE TABLE]</text>
<text text-anchor="start" x="414.1269" y="-502.4" font-family="Arial" font-size="14.00" fill="#333333">プロジェクト</text>
<polygon fill="none" stroke="#000000" points="352,-463 352,-493 561,-493 561,-463 352,-463"/>
<text text-anchor="start" x="359" y="-474.4" font-family="Arial" font-size="14.00" fill="#000000">id </text>
<text text-anchor="start" x="373.7798" y="-474.4" font-family="Arial" font-size="14.00" fill="#666666">[int(11)]</text>
<polygon fill="none" stroke="#000000" points="352,-433 352,-463 561,-463 561,-433 352,-433"/>
<text text-anchor="start" x="359" y="-444.4" font-family="Arial" font-size="14.00" fill="#000000">name </text>
<text text-anchor="start" x="397.899" y="-444.4" font-family="Arial" font-size="14.00" fill="#666666">[varchar(255)]</text>
<polygon fill="none" stroke="#000000" points="352,-403 352,-433 561,-433 561,-403 352,-403"/>
<text text-anchor="start" x="359" y="-414.4" font-family="Arial" font-size="14.00" fill="#000000">description </text>
<text text-anchor="start" x="430.568" y="-414.4" font-family="Arial" font-size="14.00" fill="#666666">[text]</text>
<polygon fill="none" stroke="#000000" points="352,-373 352,-403 561,-403 561,-373 352,-373"/>
<text text-anchor="start" x="359" y="-384.4" font-family="Arial" font-size="14.00" fill="#000000">homepage </text>
<text text-anchor="start" x="429.0294" y="-384.4" font-family="Arial" font-size="14.00" fill="#666666">[varchar(255)]</text>
<polygon fill="none" stroke="#000000" points="352,-343 352,-373 561,-373 561,-343 352,-343"/>
<text text-anchor="start" x="359" y="-354.4" font-family="Arial" font-size="14.00" fill="#000000">is_public </text>
<text text-anchor="start" x="417.3408" y="-354.4" font-family="Arial" font-size="14.00" fill="#666666">[tinyint(1)]</text>
<polygon fill="none" stroke="#000000" points="352,-313 352,-343 561,-343 561,-313 352,-313"/>
<text text-anchor="start" x="359" y="-324.4" font-family="Arial" font-size="14.00" fill="#000000">parent_id </text>
<text text-anchor="start" x="421.244" y="-324.4" font-family="Arial" font-size="14.00" fill="#666666">[int(11)]</text>
<polygon fill="none" stroke="#000000" points="352,-283 352,-313 561,-313 561,-283 352,-283"/>
<text text-anchor="start" x="359" y="-294.4" font-family="Arial" font-size="14.00" fill="#000000">created_on </text>
<text text-anchor="start" x="432.92" y="-294.4" font-family="Arial" font-size="14.00" fill="#666666">[timestamp]</text>
<polygon fill="none" stroke="#000000" points="352,-253 352,-283 561,-283 561,-253 352,-253"/>
<text text-anchor="start" x="359" y="-264.4" font-family="Arial" font-size="14.00" fill="#000000">updated_on </text>
<text text-anchor="start" x="436.8246" y="-264.4" font-family="Arial" font-size="14.00" fill="#666666">[timestamp]</text>
<polygon fill="none" stroke="#000000" points="352,-223 352,-253 561,-253 561,-223 352,-223"/>
<text text-anchor="start" x="359" y="-234.4" font-family="Arial" font-size="14.00" fill="#000000">identifier </text>
<text text-anchor="start" x="415.7826" y="-234.4" font-family="Arial" font-size="14.00" fill="#666666">[varchar(255)]</text>
<polygon fill="none" stroke="#000000" points="352,-193 352,-223 561,-223 561,-193 352,-193"/>
<text text-anchor="start" x="359" y="-204.4" font-family="Arial" font-size="14.00" fill="#000000">status </text>
<text text-anchor="start" x="400.237" y="-204.4" font-family="Arial" font-size="14.00" fill="#666666">[int(11)]</text>
<polygon fill="none" stroke="#000000" points="352,-163 352,-193 561,-193 561,-163 352,-163"/>
<text text-anchor="start" x="359" y="-174.4" font-family="Arial" font-size="14.00" fill="#000000">lft </text>
<text text-anchor="start" x="373.7784" y="-174.4" font-family="Arial" font-size="14.00" fill="#666666">[int(11)]</text>
<polygon fill="none" stroke="#000000" points="352,-133 352,-163 561,-163 561,-133 352,-133"/>
<text text-anchor="start" x="359" y="-144.4" font-family="Arial" font-size="14.00" fill="#000000">rgt </text>
<text text-anchor="start" x="379.2244" y="-144.4" font-family="Arial" font-size="14.00" fill="#666666">[int(11)]</text>
<polygon fill="none" stroke="#000000" points="352,-103 352,-133 561,-133 561,-103 352,-103"/>
<text text-anchor="start" x="359" y="-114.4" font-family="Arial" font-size="14.00" fill="#000000">inherit_members </text>
<text text-anchor="start" x="467.115" y="-114.4" font-family="Arial" font-size="14.00" fill="#666666">[tinyint(1)]</text>
<polygon fill="none" stroke="#000000" points="352,-73 352,-103 561,-103 561,-73 352,-73"/>
<text text-anchor="start" x="359" y="-84.4" font-family="Arial" font-size="14.00" fill="#000000">default_version_id </text>
<text text-anchor="start" x="476.4782" y="-84.4" font-family="Arial" font-size="14.00" fill="#666666">[int(11)]</text>
<polygon fill="none" stroke="#000000" points="352,-43 352,-73 561,-73 561,-43 352,-43"/>
<text text-anchor="start" x="358.857" y="-54.4" font-family="Arial" font-size="14.00" fill="#000000">default_assigned_to_id </text>
<text text-anchor="start" x="506.6956" y="-54.4" font-family="Arial" font-size="14.00" fill="#666666">[int(11)]</text>
</g>
<!-- wikis&#45;&gt;projects -->
<g id="edge4" class="edge">
<title>wikis:project_id&#45;&gt;projects:id</title>
<path fill="none" stroke="#000000" stroke-dasharray="5,2" d="M360.7251,-737.7982C253.8881,-722.9663 239.429,-478 352,-478"/>
<polygon fill="#000000" stroke="#000000" points="361.0232,-737.8185 370.6933,-742.9895 366.0116,-738.1592 371,-738.5 371,-738.5 371,-738.5 366.0116,-738.1592 371.3067,-734.0105 361.0232,-737.8185 361.0232,-737.8185"/>
<text text-anchor="start" x="281.3245" y="-748.5" font-family="Arial" font-size="10.00" fill="#000000">Additional Relation</text>
</g>
<!-- wiki_pages -->
<g id="node2" class="node">
<title>wiki_pages</title>
<polygon fill="#efefef" stroke="transparent" points="43,-1124 43,-1170 243,-1170 243,-1124 43,-1124"/>
<polygon fill="none" stroke="#000000" points="43,-1124 43,-1170 243,-1170 243,-1124 43,-1124"/>
<text text-anchor="start" x="49.8663" y="-1147.8" font-family="Arial Bold" font-size="18.00" fill="#000000">wiki_pages</text>
<text text-anchor="start" x="138.8799" y="-1147.8" font-family="Arial" font-size="14.00" fill="#000000"> </text>
<text text-anchor="start" x="142.7705" y="-1147.8" font-family="Arial" font-size="14.00" fill="#666666">[BASE TABLE]</text>
<text text-anchor="start" x="105.6837" y="-1133.4" font-family="Arial" font-size="14.00" fill="#333333">Wikiページ</text>
<polygon fill="none" stroke="#000000" points="43,-1094 43,-1124 243,-1124 243,-1094 43,-1094"/>
<text text-anchor="start" x="50" y="-1105.4" font-family="Arial" font-size="14.00" fill="#000000">id </text>
<text text-anchor="start" x="64.7798" y="-1105.4" font-family="Arial" font-size="14.00" fill="#666666">[int(11)]</text>
<polygon fill="none" stroke="#000000" points="43,-1064 43,-1094 243,-1094 243,-1064 43,-1064"/>
<text text-anchor="start" x="50" y="-1075.4" font-family="Arial" font-size="14.00" fill="#000000">wiki_id </text>
<text text-anchor="start" x="95.8822" y="-1075.4" font-family="Arial" font-size="14.00" fill="#666666">[int(11)]</text>
<polygon fill="none" stroke="#000000" points="43,-1034 43,-1064 243,-1064 243,-1034 43,-1034"/>
<text text-anchor="start" x="50" y="-1045.4" font-family="Arial" font-size="14.00" fill="#000000">title </text>
<text text-anchor="start" x="75.6676" y="-1045.4" font-family="Arial" font-size="14.00" fill="#666666">[varchar(255)]</text>
<polygon fill="none" stroke="#000000" points="43,-1004 43,-1034 243,-1034 243,-1004 43,-1004"/>
<text text-anchor="start" x="50" y="-1015.4" font-family="Arial" font-size="14.00" fill="#000000">created_on </text>
<text text-anchor="start" x="123.92" y="-1015.4" font-family="Arial" font-size="14.00" fill="#666666">[datetime]</text>
<polygon fill="none" stroke="#000000" points="43,-974 43,-1004 243,-1004 243,-974 43,-974"/>
<text text-anchor="start" x="50" y="-985.4" font-family="Arial" font-size="14.00" fill="#000000">protected </text>
<text text-anchor="start" x="112.2454" y="-985.4" font-family="Arial" font-size="14.00" fill="#666666">[tinyint(1)]</text>
<polygon fill="none" stroke="#000000" points="43,-944 43,-974 243,-974 243,-944 43,-944"/>
<text text-anchor="start" x="50" y="-955.4" font-family="Arial" font-size="14.00" fill="#000000">parent_id </text>
<text text-anchor="start" x="112.244" y="-955.4" font-family="Arial" font-size="14.00" fill="#666666">[int(11)]</text>
</g>
<!-- wiki_pages&#45;&gt;wikis -->
<g id="edge1" class="edge">
<title>wiki_pages:wiki_id&#45;&gt;wikis:id</title>
<path fill="none" stroke="#000000" stroke-dasharray="5,2" d="M253.2503,-1078.3931C319.9761,-1069.8739 264.1658,-973.4249 295,-901 321.5931,-838.5368 303.1116,-768.5 371,-768.5"/>
<polygon fill="#000000" stroke="#000000" points="252.9825,-1078.4089 242.734,-1074.5079 247.9913,-1078.7044 243,-1079 243,-1079 243,-1079 247.9913,-1078.7044 243.266,-1083.4921 252.9825,-1078.4089 252.9825,-1078.4089"/>
<text text-anchor="start" x="250.3245" y="-1089" font-family="Arial" font-size="10.00" fill="#000000">Additional Relation</text>
</g>
<!-- wiki_redirects -->
<g id="node3" class="node">
<title>wiki_redirects</title>
<polygon fill="#efefef" stroke="transparent" points="347,-1129 347,-1164 567,-1164 567,-1129 347,-1129"/>
<polygon fill="none" stroke="#000000" points="347,-1129 347,-1164 567,-1164 567,-1129 347,-1129"/>
<text text-anchor="start" x="353.879" y="-1141.8" font-family="Arial Bold" font-size="18.00" fill="#000000">wiki_redirects</text>
<text text-anchor="start" x="462.8672" y="-1141.8" font-family="Arial" font-size="14.00" fill="#000000"> </text>
<text text-anchor="start" x="466.7578" y="-1141.8" font-family="Arial" font-size="14.00" fill="#666666">[BASE TABLE]</text>
<polygon fill="none" stroke="#000000" points="347,-1099 347,-1129 567,-1129 567,-1099 347,-1099"/>
<text text-anchor="start" x="354" y="-1110.4" font-family="Arial" font-size="14.00" fill="#000000">id </text>
<text text-anchor="start" x="368.7798" y="-1110.4" font-family="Arial" font-size="14.00" fill="#666666">[int(11)]</text>
<polygon fill="none" stroke="#000000" points="347,-1069 347,-1099 567,-1099 567,-1069 347,-1069"/>
<text text-anchor="start" x="354" y="-1080.4" font-family="Arial" font-size="14.00" fill="#000000">wiki_id </text>
<text text-anchor="start" x="399.8822" y="-1080.4" font-family="Arial" font-size="14.00" fill="#666666">[int(11)]</text>
<polygon fill="none" stroke="#000000" points="347,-1039 347,-1069 567,-1069 567,-1039 347,-1039"/>
<text text-anchor="start" x="354" y="-1050.4" font-family="Arial" font-size="14.00" fill="#000000">title </text>
<text text-anchor="start" x="379.6676" y="-1050.4" font-family="Arial" font-size="14.00" fill="#666666">[varchar(255)]</text>
<polygon fill="none" stroke="#000000" points="347,-1009 347,-1039 567,-1039 567,-1009 347,-1009"/>
<text text-anchor="start" x="354" y="-1020.4" font-family="Arial" font-size="14.00" fill="#000000">redirects_to </text>
<text text-anchor="start" x="431.0126" y="-1020.4" font-family="Arial" font-size="14.00" fill="#666666">[varchar(255)]</text>
<polygon fill="none" stroke="#000000" points="347,-979 347,-1009 567,-1009 567,-979 347,-979"/>
<text text-anchor="start" x="354" y="-990.4" font-family="Arial" font-size="14.00" fill="#000000">created_on </text>
<text text-anchor="start" x="427.92" y="-990.4" font-family="Arial" font-size="14.00" fill="#666666">[datetime]</text>
<polygon fill="none" stroke="#000000" points="347,-949 347,-979 567,-979 567,-949 347,-949"/>
<text text-anchor="start" x="354" y="-960.4" font-family="Arial" font-size="14.00" fill="#000000">redirects_to_wiki_id </text>
<text text-anchor="start" x="480.7868" y="-960.4" font-family="Arial" font-size="14.00" fill="#666666">[int(11)]</text>
</g>
<!-- wiki_redirects&#45;&gt;wikis -->
<g id="edge2" class="edge">
<title>wiki_redirects:wiki_id&#45;&gt;wikis:id</title>
<path fill="none" stroke="#000000" stroke-dasharray="5,2" d="M337.0152,-1083.3121C270.7802,-1073.6722 299.5912,-965.0601 347,-906.5 402.7539,-837.6319 486.2461,-933.8681 542,-865 568.9866,-831.6657 584.8889,-768.5 542,-768.5"/>
<polygon fill="#000000" stroke="#000000" points="337.0236,-1083.3126 346.6907,-1088.4894 342.0118,-1083.6563 347,-1084 347,-1084 347,-1084 342.0118,-1083.6563 347.3093,-1079.5106 337.0236,-1083.3126 337.0236,-1083.3126"/>
<text text-anchor="start" x="257.3245" y="-1068" font-family="Arial" font-size="10.00" fill="#000000">Additional Relation</text>
</g>
<!-- wiki_redirects&#45;&gt;wikis -->
<g id="edge3" class="edge">
<title>wiki_redirects:redirects_to_wiki_id&#45;&gt;wikis:id</title>
<path fill="none" stroke="#000000" stroke-dasharray="5,2" d="M457.9193,-938.805C465.8567,-898.104 522.969,-910.5632 542,-865 558.53,-825.4246 584.8889,-768.5 542,-768.5"/>
<polygon fill="#000000" stroke="#000000" points="457.8982,-939.0404 452.5182,-948.5958 457.4491,-944.0202 457,-949 457,-949 457,-949 457.4491,-944.0202 461.4818,-949.4042 457.8982,-939.0404 457.8982,-939.0404"/>
<text text-anchor="start" x="440.0745" y="-933" font-family="Arial" font-size="10.00" fill="#000000">Additional Relation</text>
</g>
</g>
</svg>
