<?xml version="1.0" encoding="UTF-8" standalone="no"?>
<!DOCTYPE svg PUBLIC "-//W3C//DTD SVG 1.1//EN"
 "http://www.w3.org/Graphics/SVG/1.1/DTD/svg11.dtd">
<!-- Generated by graphviz version 2.40.1 (20161225.0304)
 -->
<!-- Title: workflows Pages: 1 -->
<svg width="290pt" height="446pt"
 viewBox="0.00 0.00 290.00 446.00" xmlns="http://www.w3.org/2000/svg" xmlns:xlink="http://www.w3.org/1999/xlink">
<g id="graph0" class="graph" transform="scale(1 1) rotate(0) translate(4 442)">
<title>workflows</title>
<polygon fill="#ffffff" stroke="transparent" points="-4,4 -4,-442 286,-442 286,4 -4,4"/>
<!-- workflows -->
<g id="node1" class="node">
<title>workflows</title>
<polygon fill="#efefef" stroke="transparent" points="46,-346 46,-392 236,-392 236,-346 46,-346"/>
<polygon fill="none" stroke="#000000" points="46,-346 46,-392 236,-392 236,-346 46,-346"/>
<text text-anchor="start" x="52.8784" y="-369.8" font-family="Arial Bold" font-size="18.00" fill="#000000">workflows</text>
<text text-anchor="start" x="131.8678" y="-369.8" font-family="Arial" font-size="14.00" fill="#000000"> </text>
<text text-anchor="start" x="135.7584" y="-369.8" font-family="Arial" font-size="14.00" fill="#666666">[BASE TABLE]</text>
<text text-anchor="start" x="88.5168" y="-355.4" font-family="Arial" font-size="14.00" fill="#333333">ワークフロー</text>
<polygon fill="none" stroke="#000000" points="46,-316 46,-346 236,-346 236,-316 46,-316"/>
<text text-anchor="start" x="53" y="-327.4" font-family="Arial" font-size="14.00" fill="#000000">id </text>
<text text-anchor="start" x="67.7798" y="-327.4" font-family="Arial" font-size="14.00" fill="#666666">[int(11)]</text>
<polygon fill="none" stroke="#000000" points="46,-286 46,-316 236,-316 236,-286 46,-286"/>
<text text-anchor="start" x="53" y="-297.4" font-family="Arial" font-size="14.00" fill="#000000">tracker_id </text>
<text text-anchor="start" x="118.3394" y="-297.4" font-family="Arial" font-size="14.00" fill="#666666">[int(11)]</text>
<polygon fill="none" stroke="#000000" points="46,-256 46,-286 236,-286 236,-256 46,-256"/>
<text text-anchor="start" x="53" y="-267.4" font-family="Arial" font-size="14.00" fill="#000000">old_status_id </text>
<text text-anchor="start" x="139.3632" y="-267.4" font-family="Arial" font-size="14.00" fill="#666666">[int(11)]</text>
<polygon fill="none" stroke="#000000" points="46,-226 46,-256 236,-256 236,-226 46,-226"/>
<text text-anchor="start" x="53" y="-237.4" font-family="Arial" font-size="14.00" fill="#000000">new_status_id </text>
<text text-anchor="start" x="146.3632" y="-237.4" font-family="Arial" font-size="14.00" fill="#666666">[int(11)]</text>
<polygon fill="none" stroke="#000000" points="46,-196 46,-226 236,-226 236,-196 46,-196"/>
<text text-anchor="start" x="53" y="-207.4" font-family="Arial" font-size="14.00" fill="#000000">role_id </text>
<text text-anchor="start" x="98.8948" y="-207.4" font-family="Arial" font-size="14.00" fill="#666666">[int(11)]</text>
<polygon fill="none" stroke="#000000" points="46,-166 46,-196 236,-196 236,-166 46,-166"/>
<text text-anchor="start" x="53" y="-177.4" font-family="Arial" font-size="14.00" fill="#000000">assignee </text>
<text text-anchor="start" x="112.9102" y="-177.4" font-family="Arial" font-size="14.00" fill="#666666">[tinyint(1)]</text>
<polygon fill="none" stroke="#000000" points="46,-136 46,-166 236,-166 236,-136 46,-136"/>
<text text-anchor="start" x="53" y="-147.4" font-family="Arial" font-size="14.00" fill="#000000">author </text>
<text text-anchor="start" x="96.5722" y="-147.4" font-family="Arial" font-size="14.00" fill="#666666">[tinyint(1)]</text>
<polygon fill="none" stroke="#000000" points="46,-106 46,-136 236,-136 236,-106 46,-106"/>
<text text-anchor="start" x="53" y="-117.4" font-family="Arial" font-size="14.00" fill="#000000">type </text>
<text text-anchor="start" x="83.3464" y="-117.4" font-family="Arial" font-size="14.00" fill="#666666">[varchar(30)]</text>
<polygon fill="none" stroke="#000000" points="46,-76 46,-106 236,-106 236,-76 46,-76"/>
<text text-anchor="start" x="53" y="-87.4" font-family="Arial" font-size="14.00" fill="#000000">field_name </text>
<text text-anchor="start" x="125.3506" y="-87.4" font-family="Arial" font-size="14.00" fill="#666666">[varchar(30)]</text>
<polygon fill="none" stroke="#000000" points="46,-46 46,-76 236,-76 236,-46 46,-46"/>
<text text-anchor="start" x="53" y="-57.4" font-family="Arial" font-size="14.00" fill="#000000">rule </text>
<text text-anchor="start" x="80.223" y="-57.4" font-family="Arial" font-size="14.00" fill="#666666">[varchar(30)]</text>
<polygon fill="none" stroke="#000000" stroke-width="3" points="44.5,-44.5 44.5,-393.5 237.5,-393.5 237.5,-44.5 44.5,-44.5"/>
</g>
</g>
</svg>
