<?xml version="1.0" encoding="UTF-8" standalone="no"?>
<!DOCTYPE svg PUBLIC "-//W3C//DTD SVG 1.1//EN"
 "http://www.w3.org/Graphics/SVG/1.1/DTD/svg11.dtd">
<!-- Generated by graphviz version 2.40.1 (20161225.0304)
 -->
<!-- Title: custom_fields Pages: 1 -->
<svg width="1932pt" height="1023pt"
 viewBox="0.00 0.00 1931.50 1023.00" xmlns="http://www.w3.org/2000/svg" xmlns:xlink="http://www.w3.org/1999/xlink">
<g id="graph0" class="graph" transform="scale(1 1) rotate(0) translate(4 1019)">
<title>custom_fields</title>
<polygon fill="#ffffff" stroke="transparent" points="-4,4 -4,-1019 1927.5,-1019 1927.5,4 -4,4"/>
<!-- custom_fields -->
<g id="node1" class="node">
<title>custom_fields</title>
<polygon fill="#efefef" stroke="transparent" points="853,-616 853,-662 1074,-662 1074,-616 853,-616"/>
<polygon fill="none" stroke="#000000" points="853,-616 853,-662 1074,-662 1074,-616 853,-616"/>
<text text-anchor="start" x="859.8651" y="-639.8" font-family="Arial Bold" font-size="18.00" fill="#000000">custom_fields</text>
<text text-anchor="start" x="969.8811" y="-639.8" font-family="Arial" font-size="14.00" fill="#000000"> </text>
<text text-anchor="start" x="973.7717" y="-639.8" font-family="Arial" font-size="14.00" fill="#666666">[BASE TABLE]</text>
<text text-anchor="start" x="891.5722" y="-625.4" font-family="Arial" font-size="14.00" fill="#333333">カスタムフィールド</text>
<polygon fill="none" stroke="#000000" points="853,-586 853,-616 1074,-616 1074,-586 853,-586"/>
<text text-anchor="start" x="860" y="-597.4" font-family="Arial" font-size="14.00" fill="#000000">id </text>
<text text-anchor="start" x="874.7798" y="-597.4" font-family="Arial" font-size="14.00" fill="#666666">[int(11)]</text>
<polygon fill="none" stroke="#000000" points="853,-556 853,-586 1074,-586 1074,-556 853,-556"/>
<text text-anchor="start" x="860" y="-567.4" font-family="Arial" font-size="14.00" fill="#000000">type </text>
<text text-anchor="start" x="890.3464" y="-567.4" font-family="Arial" font-size="14.00" fill="#666666">[varchar(30)]</text>
<polygon fill="none" stroke="#000000" points="853,-526 853,-556 1074,-556 1074,-526 853,-526"/>
<text text-anchor="start" x="860" y="-537.4" font-family="Arial" font-size="14.00" fill="#000000">name </text>
<text text-anchor="start" x="898.899" y="-537.4" font-family="Arial" font-size="14.00" fill="#666666">[varchar(30)]</text>
<polygon fill="none" stroke="#000000" points="853,-496 853,-526 1074,-526 1074,-496 853,-496"/>
<text text-anchor="start" x="860" y="-507.4" font-family="Arial" font-size="14.00" fill="#000000">field_format </text>
<text text-anchor="start" x="937.0098" y="-507.4" font-family="Arial" font-size="14.00" fill="#666666">[varchar(30)]</text>
<polygon fill="none" stroke="#000000" points="853,-466 853,-496 1074,-496 1074,-466 853,-466"/>
<text text-anchor="start" x="860" y="-477.4" font-family="Arial" font-size="14.00" fill="#000000">possible_values </text>
<text text-anchor="start" x="963.4712" y="-477.4" font-family="Arial" font-size="14.00" fill="#666666">[text]</text>
<polygon fill="none" stroke="#000000" points="853,-436 853,-466 1074,-466 1074,-436 853,-436"/>
<text text-anchor="start" x="860" y="-447.4" font-family="Arial" font-size="14.00" fill="#000000">regexp </text>
<text text-anchor="start" x="906.6816" y="-447.4" font-family="Arial" font-size="14.00" fill="#666666">[varchar(255)]</text>
<polygon fill="none" stroke="#000000" points="853,-406 853,-436 1074,-436 1074,-406 853,-406"/>
<text text-anchor="start" x="860" y="-417.4" font-family="Arial" font-size="14.00" fill="#000000">min_length </text>
<text text-anchor="start" x="932.3506" y="-417.4" font-family="Arial" font-size="14.00" fill="#666666">[int(11)]</text>
<polygon fill="none" stroke="#000000" points="853,-376 853,-406 1074,-406 1074,-376 853,-376"/>
<text text-anchor="start" x="860" y="-387.4" font-family="Arial" font-size="14.00" fill="#000000">max_length </text>
<text text-anchor="start" x="936.244" y="-387.4" font-family="Arial" font-size="14.00" fill="#666666">[int(11)]</text>
<polygon fill="none" stroke="#000000" points="853,-346 853,-376 1074,-376 1074,-346 853,-346"/>
<text text-anchor="start" x="860" y="-357.4" font-family="Arial" font-size="14.00" fill="#000000">is_required </text>
<text text-anchor="start" x="933.1206" y="-357.4" font-family="Arial" font-size="14.00" fill="#666666">[tinyint(1)]</text>
<polygon fill="none" stroke="#000000" points="853,-316 853,-346 1074,-346 1074,-316 853,-316"/>
<text text-anchor="start" x="860" y="-327.4" font-family="Arial" font-size="14.00" fill="#000000">is_for_all </text>
<text text-anchor="start" x="919.892" y="-327.4" font-family="Arial" font-size="14.00" fill="#666666">[tinyint(1)]</text>
<polygon fill="none" stroke="#000000" points="853,-286 853,-316 1074,-316 1074,-286 853,-286"/>
<text text-anchor="start" x="860" y="-297.4" font-family="Arial" font-size="14.00" fill="#000000">is_filter </text>
<text text-anchor="start" x="908.2174" y="-297.4" font-family="Arial" font-size="14.00" fill="#666666">[tinyint(1)]</text>
<polygon fill="none" stroke="#000000" points="853,-256 853,-286 1074,-286 1074,-256 853,-256"/>
<text text-anchor="start" x="860" y="-267.4" font-family="Arial" font-size="14.00" fill="#000000">position </text>
<text text-anchor="start" x="912.1248" y="-267.4" font-family="Arial" font-size="14.00" fill="#666666">[int(11)]</text>
<polygon fill="none" stroke="#000000" points="853,-226 853,-256 1074,-256 1074,-226 853,-226"/>
<text text-anchor="start" x="860" y="-237.4" font-family="Arial" font-size="14.00" fill="#000000">searchable </text>
<text text-anchor="start" x="932.3534" y="-237.4" font-family="Arial" font-size="14.00" fill="#666666">[tinyint(1)]</text>
<polygon fill="none" stroke="#000000" points="853,-196 853,-226 1074,-226 1074,-196 853,-196"/>
<text text-anchor="start" x="860" y="-207.4" font-family="Arial" font-size="14.00" fill="#000000">default_value </text>
<text text-anchor="start" x="947.1458" y="-207.4" font-family="Arial" font-size="14.00" fill="#666666">[text]</text>
<polygon fill="none" stroke="#000000" points="853,-166 853,-196 1074,-196 1074,-166 853,-166"/>
<text text-anchor="start" x="860" y="-177.4" font-family="Arial" font-size="14.00" fill="#000000">editable </text>
<text text-anchor="start" x="912.9074" y="-177.4" font-family="Arial" font-size="14.00" fill="#666666">[tinyint(1)]</text>
<polygon fill="none" stroke="#000000" points="853,-136 853,-166 1074,-166 1074,-136 853,-136"/>
<text text-anchor="start" x="860" y="-147.4" font-family="Arial" font-size="14.00" fill="#000000">visible </text>
<text text-anchor="start" x="902.7756" y="-147.4" font-family="Arial" font-size="14.00" fill="#666666">[tinyint(1)]</text>
<polygon fill="none" stroke="#000000" points="853,-106 853,-136 1074,-136 1074,-106 853,-106"/>
<text text-anchor="start" x="860" y="-117.4" font-family="Arial" font-size="14.00" fill="#000000">multiple </text>
<text text-anchor="start" x="912.1094" y="-117.4" font-family="Arial" font-size="14.00" fill="#666666">[tinyint(1)]</text>
<polygon fill="none" stroke="#000000" points="853,-76 853,-106 1074,-106 1074,-76 853,-76"/>
<text text-anchor="start" x="860" y="-87.4" font-family="Arial" font-size="14.00" fill="#000000">format_store </text>
<text text-anchor="start" x="942.4572" y="-87.4" font-family="Arial" font-size="14.00" fill="#666666">[text]</text>
<polygon fill="none" stroke="#000000" points="853,-46 853,-76 1074,-76 1074,-46 853,-46"/>
<text text-anchor="start" x="860" y="-57.4" font-family="Arial" font-size="14.00" fill="#000000">description </text>
<text text-anchor="start" x="931.568" y="-57.4" font-family="Arial" font-size="14.00" fill="#666666">[text]</text>
<polygon fill="none" stroke="#000000" stroke-width="3" points="851,-44.5 851,-663.5 1075,-663.5 1075,-44.5 851,-44.5"/>
</g>
<!-- custom_fields_roles -->
<g id="node2" class="node">
<title>custom_fields_roles</title>
<polygon fill="#efefef" stroke="transparent" points="43,-886.5 43,-932.5 313,-932.5 313,-886.5 43,-886.5"/>
<polygon fill="none" stroke="#000000" points="43,-886.5 43,-932.5 313,-932.5 313,-886.5 43,-886.5"/>
<text text-anchor="start" x="49.8626" y="-910.3" font-family="Arial Bold" font-size="18.00" fill="#000000">custom_fields_roles</text>
<text text-anchor="start" x="208.8836" y="-910.3" font-family="Arial" font-size="14.00" fill="#000000"> </text>
<text text-anchor="start" x="212.7742" y="-910.3" font-family="Arial" font-size="14.00" fill="#666666">[BASE TABLE]</text>
<text text-anchor="start" x="73.4109" y="-895.9" font-family="Arial" font-size="14.00" fill="#333333">カスタムフィールド⇔ロール</text>
<polygon fill="none" stroke="#000000" points="43,-856.5 43,-886.5 313,-886.5 313,-856.5 43,-856.5"/>
<text text-anchor="start" x="50" y="-867.9" font-family="Arial" font-size="14.00" fill="#000000">custom_field_id </text>
<text text-anchor="start" x="151.1304" y="-867.9" font-family="Arial" font-size="14.00" fill="#666666">[int(11)]</text>
<polygon fill="none" stroke="#000000" points="43,-826.5 43,-856.5 313,-856.5 313,-826.5 43,-826.5"/>
<text text-anchor="start" x="50" y="-837.9" font-family="Arial" font-size="14.00" fill="#000000">role_id </text>
<text text-anchor="start" x="95.8948" y="-837.9" font-family="Arial" font-size="14.00" fill="#666666">[int(11)]</text>
</g>
<!-- custom_fields_roles&#45;&gt;custom_fields -->
<g id="edge1" class="edge">
<title>custom_fields_roles:custom_field_id&#45;&gt;custom_fields:id</title>
<path fill="none" stroke="#000000" stroke-dasharray="5,2" d="M323.1701,-870.5186C367.7609,-860.8661 322.4117,-782.4441 365,-744 448.8833,-668.2793 739.9955,-601 853,-601"/>
<polygon fill="#000000" stroke="#000000" points="322.9538,-870.5394 312.5677,-867.0208 317.9769,-871.0197 313,-871.5 313,-871.5 313,-871.5 317.9769,-871.0197 313.4323,-875.9792 322.9538,-870.5394 322.9538,-870.5394"/>
<text text-anchor="start" x="320.3245" y="-881.5" font-family="Arial" font-size="10.00" fill="#000000">Additional Relation</text>
</g>
<!-- custom_fields_projects -->
<g id="node3" class="node">
<title>custom_fields_projects</title>
<polygon fill="#efefef" stroke="transparent" points="417,-886.5 417,-932.5 711,-932.5 711,-886.5 417,-886.5"/>
<polygon fill="none" stroke="#000000" points="417,-886.5 417,-932.5 711,-932.5 711,-886.5 417,-886.5"/>
<text text-anchor="start" x="423.8584" y="-910.3" font-family="Arial Bold" font-size="18.00" fill="#000000">custom_fields_projects</text>
<text text-anchor="start" x="606.8878" y="-910.3" font-family="Arial" font-size="14.00" fill="#000000"> </text>
<text text-anchor="start" x="610.7784" y="-910.3" font-family="Arial" font-size="14.00" fill="#666666">[BASE TABLE]</text>
<text text-anchor="start" x="443.8632" y="-895.9" font-family="Arial" font-size="14.00" fill="#333333">カスタムフィールド⇔プロジェクト</text>
<polygon fill="none" stroke="#000000" points="417,-856.5 417,-886.5 711,-886.5 711,-856.5 417,-856.5"/>
<text text-anchor="start" x="424" y="-867.9" font-family="Arial" font-size="14.00" fill="#000000">custom_field_id </text>
<text text-anchor="start" x="525.1304" y="-867.9" font-family="Arial" font-size="14.00" fill="#666666">[int(11)]</text>
<polygon fill="none" stroke="#000000" points="417,-826.5 417,-856.5 711,-856.5 711,-826.5 417,-826.5"/>
<text text-anchor="start" x="424" y="-837.9" font-family="Arial" font-size="14.00" fill="#000000">project_id </text>
<text text-anchor="start" x="488.568" y="-837.9" font-family="Arial" font-size="14.00" fill="#666666">[int(11)]</text>
</g>
<!-- custom_fields_projects&#45;&gt;custom_fields -->
<g id="edge2" class="edge">
<title>custom_fields_projects:custom_field_id&#45;&gt;custom_fields:id</title>
<path fill="none" stroke="#000000" stroke-dasharray="5,2" d="M721.0707,-870.7168C767.9373,-862.7209 736.7322,-795.1414 763,-744 797.3101,-677.2009 777.9047,-601 853,-601"/>
<polygon fill="#000000" stroke="#000000" points="720.9699,-870.7246 710.6511,-867.0135 715.9849,-871.1123 711,-871.5 711,-871.5 711,-871.5 715.9849,-871.1123 711.3489,-875.9865 720.9699,-870.7246 720.9699,-870.7246"/>
<text text-anchor="start" x="718.3245" y="-881.5" font-family="Arial" font-size="10.00" fill="#000000">Additional Relation</text>
</g>
<!-- custom_fields_trackers -->
<g id="node4" class="node">
<title>custom_fields_trackers</title>
<polygon fill="#efefef" stroke="transparent" points="816,-886.5 816,-932.5 1111,-932.5 1111,-886.5 816,-886.5"/>
<polygon fill="none" stroke="#000000" points="816,-886.5 816,-932.5 1111,-932.5 1111,-886.5 816,-886.5"/>
<text text-anchor="start" x="822.8625" y="-910.3" font-family="Arial Bold" font-size="18.00" fill="#000000">custom_fields_trackers</text>
<text text-anchor="start" x="1006.8837" y="-910.3" font-family="Arial" font-size="14.00" fill="#000000"> </text>
<text text-anchor="start" x="1010.7743" y="-910.3" font-family="Arial" font-size="14.00" fill="#666666">[BASE TABLE]</text>
<text text-anchor="start" x="846.9451" y="-895.9" font-family="Arial" font-size="14.00" fill="#333333">カスタムフィールド⇔トラッカー</text>
<polygon fill="none" stroke="#000000" points="816,-856.5 816,-886.5 1111,-886.5 1111,-856.5 816,-856.5"/>
<text text-anchor="start" x="823" y="-867.9" font-family="Arial" font-size="14.00" fill="#000000">custom_field_id </text>
<text text-anchor="start" x="924.1304" y="-867.9" font-family="Arial" font-size="14.00" fill="#666666">[int(11)]</text>
<polygon fill="none" stroke="#000000" points="816,-826.5 816,-856.5 1111,-856.5 1111,-826.5 816,-826.5"/>
<text text-anchor="start" x="823" y="-837.9" font-family="Arial" font-size="14.00" fill="#000000">tracker_id </text>
<text text-anchor="start" x="888.3394" y="-837.9" font-family="Arial" font-size="14.00" fill="#666666">[int(11)]</text>
</g>
<!-- custom_fields_trackers&#45;&gt;custom_fields -->
<g id="edge3" class="edge">
<title>custom_fields_trackers:custom_field_id&#45;&gt;custom_fields:id</title>
<path fill="none" stroke="#000000" stroke-dasharray="5,2" d="M806.3263,-868.8228C759.7464,-840.7295 795.8841,-601 853,-601"/>
<polygon fill="#000000" stroke="#000000" points="806.3623,-868.8327 814.7997,-875.837 811.1811,-870.1663 816,-871.5 816,-871.5 816,-871.5 811.1811,-870.1663 817.2003,-867.163 806.3623,-868.8327 806.3623,-868.8327"/>
<text text-anchor="start" x="726.3245" y="-855.5" font-family="Arial" font-size="10.00" fill="#000000">Additional Relation</text>
</g>
<!-- custom_field_enumerations -->
<g id="node5" class="node">
<title>custom_field_enumerations</title>
<polygon fill="#efefef" stroke="transparent" points="1215,-936.5 1215,-971.5 1546,-971.5 1546,-936.5 1215,-936.5"/>
<polygon fill="none" stroke="#000000" points="1215,-936.5 1215,-971.5 1546,-971.5 1546,-936.5 1215,-936.5"/>
<text text-anchor="start" x="1221.8499" y="-949.3" font-family="Arial Bold" font-size="18.00" fill="#000000">custom_field_enumerations</text>
<text text-anchor="start" x="1441.8963" y="-949.3" font-family="Arial" font-size="14.00" fill="#000000"> </text>
<text text-anchor="start" x="1445.7869" y="-949.3" font-family="Arial" font-size="14.00" fill="#666666">[BASE TABLE]</text>
<polygon fill="none" stroke="#000000" points="1215,-906.5 1215,-936.5 1546,-936.5 1546,-906.5 1215,-906.5"/>
<text text-anchor="start" x="1222" y="-917.9" font-family="Arial" font-size="14.00" fill="#000000">id </text>
<text text-anchor="start" x="1236.7798" y="-917.9" font-family="Arial" font-size="14.00" fill="#666666">[int(11)]</text>
<polygon fill="none" stroke="#000000" points="1215,-876.5 1215,-906.5 1546,-906.5 1546,-876.5 1215,-876.5"/>
<text text-anchor="start" x="1222" y="-887.9" font-family="Arial" font-size="14.00" fill="#000000">custom_field_id </text>
<text text-anchor="start" x="1323.1304" y="-887.9" font-family="Arial" font-size="14.00" fill="#666666">[int(11)]</text>
<polygon fill="none" stroke="#000000" points="1215,-846.5 1215,-876.5 1546,-876.5 1546,-846.5 1215,-846.5"/>
<text text-anchor="start" x="1222" y="-857.9" font-family="Arial" font-size="14.00" fill="#000000">name </text>
<text text-anchor="start" x="1260.899" y="-857.9" font-family="Arial" font-size="14.00" fill="#666666">[varchar(255)]</text>
<polygon fill="none" stroke="#000000" points="1215,-816.5 1215,-846.5 1546,-846.5 1546,-816.5 1215,-816.5"/>
<text text-anchor="start" x="1222" y="-827.9" font-family="Arial" font-size="14.00" fill="#000000">active </text>
<text text-anchor="start" x="1262.453" y="-827.9" font-family="Arial" font-size="14.00" fill="#666666">[tinyint(1)]</text>
<polygon fill="none" stroke="#000000" points="1215,-786.5 1215,-816.5 1546,-816.5 1546,-786.5 1215,-786.5"/>
<text text-anchor="start" x="1222" y="-797.9" font-family="Arial" font-size="14.00" fill="#000000">position </text>
<text text-anchor="start" x="1274.1248" y="-797.9" font-family="Arial" font-size="14.00" fill="#666666">[int(11)]</text>
</g>
<!-- custom_field_enumerations&#45;&gt;custom_fields -->
<g id="edge4" class="edge">
<title>custom_field_enumerations:custom_field_id&#45;&gt;custom_fields:id</title>
<path fill="none" stroke="#000000" stroke-dasharray="5,2" d="M1204.9518,-890.8079C1150.295,-882.6133 1191.5111,-803.3517 1163,-744 1130.5854,-676.5223 1148.8595,-601 1074,-601"/>
<polygon fill="#000000" stroke="#000000" points="1205.0236,-890.8127 1214.6907,-895.9894 1210.0118,-891.1564 1215,-891.5 1215,-891.5 1215,-891.5 1210.0118,-891.1564 1215.3093,-887.0106 1205.0236,-890.8127 1205.0236,-890.8127"/>
<text text-anchor="start" x="1125.3245" y="-901.5" font-family="Arial" font-size="10.00" fill="#000000">Additional Relation</text>
</g>
<!-- custom_values -->
<g id="node6" class="node">
<title>custom_values</title>
<polygon fill="#efefef" stroke="transparent" points="1650,-936.5 1650,-971.5 1881,-971.5 1881,-936.5 1650,-936.5"/>
<polygon fill="none" stroke="#000000" points="1650,-936.5 1650,-971.5 1881,-971.5 1881,-936.5 1650,-936.5"/>
<text text-anchor="start" x="1656.8602" y="-949.3" font-family="Arial Bold" font-size="18.00" fill="#000000">custom_values</text>
<text text-anchor="start" x="1776.886" y="-949.3" font-family="Arial" font-size="14.00" fill="#000000"> </text>
<text text-anchor="start" x="1780.7766" y="-949.3" font-family="Arial" font-size="14.00" fill="#666666">[BASE TABLE]</text>
<polygon fill="none" stroke="#000000" points="1650,-906.5 1650,-936.5 1881,-936.5 1881,-906.5 1650,-906.5"/>
<text text-anchor="start" x="1657" y="-917.9" font-family="Arial" font-size="14.00" fill="#000000">id </text>
<text text-anchor="start" x="1671.7798" y="-917.9" font-family="Arial" font-size="14.00" fill="#666666">[int(11)]</text>
<polygon fill="none" stroke="#000000" points="1650,-876.5 1650,-906.5 1881,-906.5 1881,-876.5 1650,-876.5"/>
<text text-anchor="start" x="1657" y="-887.9" font-family="Arial" font-size="14.00" fill="#000000">customized_type </text>
<text text-anchor="start" x="1765.9172" y="-887.9" font-family="Arial" font-size="14.00" fill="#666666">[varchar(30)]</text>
<polygon fill="none" stroke="#000000" points="1650,-846.5 1650,-876.5 1881,-876.5 1881,-846.5 1650,-846.5"/>
<text text-anchor="start" x="1657" y="-857.9" font-family="Arial" font-size="14.00" fill="#000000">customized_id </text>
<text text-anchor="start" x="1750.3506" y="-857.9" font-family="Arial" font-size="14.00" fill="#666666">[int(11)]</text>
<polygon fill="none" stroke="#000000" points="1650,-816.5 1650,-846.5 1881,-846.5 1881,-816.5 1650,-816.5"/>
<text text-anchor="start" x="1657" y="-827.9" font-family="Arial" font-size="14.00" fill="#000000">custom_field_id </text>
<text text-anchor="start" x="1758.1304" y="-827.9" font-family="Arial" font-size="14.00" fill="#666666">[int(11)]</text>
<polygon fill="none" stroke="#000000" points="1650,-786.5 1650,-816.5 1881,-816.5 1881,-786.5 1650,-786.5"/>
<text text-anchor="start" x="1657" y="-797.9" font-family="Arial" font-size="14.00" fill="#000000">value </text>
<text text-anchor="start" x="1694.345" y="-797.9" font-family="Arial" font-size="14.00" fill="#666666">[longtext]</text>
</g>
<!-- custom_values&#45;&gt;custom_fields -->
<g id="edge5" class="edge">
<title>custom_values:custom_field_id&#45;&gt;custom_fields:id</title>
<path fill="none" stroke="#000000" stroke-dasharray="5,2" d="M1639.8985,-830.2272C1609.3055,-821.4111 1630.9057,-769.0411 1598,-744 1501.9472,-670.9042 1194.7027,-601 1074,-601"/>
<polygon fill="#000000" stroke="#000000" points="1640.0784,-830.2498 1649.4374,-835.9647 1645.0392,-830.8749 1650,-831.5 1650,-831.5 1650,-831.5 1645.0392,-830.8749 1650.5626,-827.0353 1640.0784,-830.2498 1640.0784,-830.2498"/>
<text text-anchor="start" x="1560.3245" y="-841.5" font-family="Arial" font-size="10.00" fill="#000000">Additional Relation</text>
</g>
</g>
</svg>
