<?xml version="1.0" encoding="UTF-8" standalone="no"?>
<!DOCTYPE svg PUBLIC "-//W3C//DTD SVG 1.1//EN"
 "http://www.w3.org/Graphics/SVG/1.1/DTD/svg11.dtd">
<!-- Generated by graphviz version 2.40.1 (20161225.0304)
 -->
<!-- Title: custom_fields_trackers Pages: 1 -->
<svg width="395pt" height="206pt"
 viewBox="0.00 0.00 395.00 206.00" xmlns="http://www.w3.org/2000/svg" xmlns:xlink="http://www.w3.org/1999/xlink">
<g id="graph0" class="graph" transform="scale(1 1) rotate(0) translate(4 202)">
<title>custom_fields_trackers</title>
<polygon fill="#ffffff" stroke="transparent" points="-4,4 -4,-202 391,-202 391,4 -4,4"/>
<!-- custom_fields_trackers -->
<g id="node1" class="node">
<title>custom_fields_trackers</title>
<polygon fill="#efefef" stroke="transparent" points="46.5,-106 46.5,-152 341.5,-152 341.5,-106 46.5,-106"/>
<polygon fill="none" stroke="#000000" points="46.5,-106 46.5,-152 341.5,-152 341.5,-106 46.5,-106"/>
<text text-anchor="start" x="53.3625" y="-129.8" font-family="Arial Bold" font-size="18.00" fill="#000000">custom_fields_trackers</text>
<text text-anchor="start" x="237.3837" y="-129.8" font-family="Arial" font-size="14.00" fill="#000000"> </text>
<text text-anchor="start" x="241.2743" y="-129.8" font-family="Arial" font-size="14.00" fill="#666666">[BASE TABLE]</text>
<text text-anchor="start" x="77.4451" y="-115.4" font-family="Arial" font-size="14.00" fill="#333333">カスタムフィールド⇔トラッカー</text>
<polygon fill="none" stroke="#000000" points="46.5,-76 46.5,-106 341.5,-106 341.5,-76 46.5,-76"/>
<text text-anchor="start" x="53.5" y="-87.4" font-family="Arial" font-size="14.00" fill="#000000">custom_field_id </text>
<text text-anchor="start" x="154.6304" y="-87.4" font-family="Arial" font-size="14.00" fill="#666666">[int(11)]</text>
<polygon fill="none" stroke="#000000" points="46.5,-46 46.5,-76 341.5,-76 341.5,-46 46.5,-46"/>
<text text-anchor="start" x="53.5" y="-57.4" font-family="Arial" font-size="14.00" fill="#000000">tracker_id </text>
<text text-anchor="start" x="118.8394" y="-57.4" font-family="Arial" font-size="14.00" fill="#666666">[int(11)]</text>
<polygon fill="none" stroke="#000000" stroke-width="3" points="44.5,-44.5 44.5,-153.5 342.5,-153.5 342.5,-44.5 44.5,-44.5"/>
</g>
</g>
</svg>
