<?xml version="1.0" encoding="UTF-8" standalone="no"?>
<!DOCTYPE svg PUBLIC "-//W3C//DTD SVG 1.1//EN"
 "http://www.w3.org/Graphics/SVG/1.1/DTD/svg11.dtd">
<!-- Generated by graphviz version 2.40.1 (20161225.0304)
 -->
<!-- Title: custom_fields_roles Pages: 1 -->
<svg width="370pt" height="206pt"
 viewBox="0.00 0.00 370.00 206.00" xmlns="http://www.w3.org/2000/svg" xmlns:xlink="http://www.w3.org/1999/xlink">
<g id="graph0" class="graph" transform="scale(1 1) rotate(0) translate(4 202)">
<title>custom_fields_roles</title>
<polygon fill="#ffffff" stroke="transparent" points="-4,4 -4,-202 366,-202 366,4 -4,4"/>
<!-- custom_fields_roles -->
<g id="node1" class="node">
<title>custom_fields_roles</title>
<polygon fill="#efefef" stroke="transparent" points="46,-106 46,-152 316,-152 316,-106 46,-106"/>
<polygon fill="none" stroke="#000000" points="46,-106 46,-152 316,-152 316,-106 46,-106"/>
<text text-anchor="start" x="52.8626" y="-129.8" font-family="Arial Bold" font-size="18.00" fill="#000000">custom_fields_roles</text>
<text text-anchor="start" x="211.8836" y="-129.8" font-family="Arial" font-size="14.00" fill="#000000"> </text>
<text text-anchor="start" x="215.7742" y="-129.8" font-family="Arial" font-size="14.00" fill="#666666">[BASE TABLE]</text>
<text text-anchor="start" x="76.4109" y="-115.4" font-family="Arial" font-size="14.00" fill="#333333">カスタムフィールド⇔ロール</text>
<polygon fill="none" stroke="#000000" points="46,-76 46,-106 316,-106 316,-76 46,-76"/>
<text text-anchor="start" x="53" y="-87.4" font-family="Arial" font-size="14.00" fill="#000000">custom_field_id </text>
<text text-anchor="start" x="154.1304" y="-87.4" font-family="Arial" font-size="14.00" fill="#666666">[int(11)]</text>
<polygon fill="none" stroke="#000000" points="46,-46 46,-76 316,-76 316,-46 46,-46"/>
<text text-anchor="start" x="53" y="-57.4" font-family="Arial" font-size="14.00" fill="#000000">role_id </text>
<text text-anchor="start" x="98.8948" y="-57.4" font-family="Arial" font-size="14.00" fill="#666666">[int(11)]</text>
<polygon fill="none" stroke="#000000" stroke-width="3" points="44.5,-44.5 44.5,-153.5 317.5,-153.5 317.5,-44.5 44.5,-44.5"/>
</g>
</g>
</svg>
