<?xml version="1.0" encoding="UTF-8" standalone="no"?>
<!DOCTYPE svg PUBLIC "-//W3C//DTD SVG 1.1//EN"
 "http://www.w3.org/Graphics/SVG/1.1/DTD/svg11.dtd">
<!-- Generated by graphviz version 2.40.1 (20161225.0304)
 -->
<!-- Title: groups_users Pages: 1 -->
<svg width="320pt" height="195pt"
 viewBox="0.00 0.00 320.00 195.00" xmlns="http://www.w3.org/2000/svg" xmlns:xlink="http://www.w3.org/1999/xlink">
<g id="graph0" class="graph" transform="scale(1 1) rotate(0) translate(4 191)">
<title>groups_users</title>
<polygon fill="#ffffff" stroke="transparent" points="-4,4 -4,-191 316,-191 316,4 -4,4"/>
<!-- groups_users -->
<g id="node1" class="node">
<title>groups_users</title>
<polygon fill="#efefef" stroke="transparent" points="46,-105.5 46,-140.5 266,-140.5 266,-105.5 46,-105.5"/>
<polygon fill="none" stroke="#000000" points="46,-105.5 46,-140.5 266,-140.5 266,-105.5 46,-105.5"/>
<text text-anchor="start" x="52.8592" y="-118.3" font-family="Arial Bold" font-size="18.00" fill="#000000">groups_users</text>
<text text-anchor="start" x="161.887" y="-118.3" font-family="Arial" font-size="14.00" fill="#000000"> </text>
<text text-anchor="start" x="165.7776" y="-118.3" font-family="Arial" font-size="14.00" fill="#666666">[BASE TABLE]</text>
<polygon fill="none" stroke="#000000" points="46,-75.5 46,-105.5 266,-105.5 266,-75.5 46,-75.5"/>
<text text-anchor="start" x="53" y="-86.9" font-family="Arial" font-size="14.00" fill="#000000">group_id </text>
<text text-anchor="start" x="111.3534" y="-86.9" font-family="Arial" font-size="14.00" fill="#666666">[int(11)]</text>
<polygon fill="none" stroke="#000000" points="46,-45.5 46,-75.5 266,-75.5 266,-45.5 46,-45.5"/>
<text text-anchor="start" x="53" y="-56.9" font-family="Arial" font-size="14.00" fill="#000000">user_id </text>
<text text-anchor="start" x="102.7882" y="-56.9" font-family="Arial" font-size="14.00" fill="#666666">[int(11)]</text>
<polygon fill="none" stroke="#000000" stroke-width="3" points="44.5,-44.5 44.5,-142.5 267.5,-142.5 267.5,-44.5 44.5,-44.5"/>
</g>
</g>
</svg>
