<?xml version="1.0" encoding="UTF-8" standalone="no"?>
<!DOCTYPE svg PUBLIC "-//W3C//DTD SVG 1.1//EN"
 "http://www.w3.org/Graphics/SVG/1.1/DTD/svg11.dtd">
<!-- Generated by graphviz version 2.40.1 (20161225.0304)
 -->
<!-- Title: imports Pages: 1 -->
<svg width="362pt" height="764pt"
 viewBox="0.00 0.00 362.00 764.00" xmlns="http://www.w3.org/2000/svg" xmlns:xlink="http://www.w3.org/1999/xlink">
<g id="graph0" class="graph" transform="scale(1 1) rotate(0) translate(4 760)">
<title>imports</title>
<polygon fill="#ffffff" stroke="transparent" points="-4,4 -4,-760 358,-760 358,4 -4,4"/>
<!-- imports -->
<g id="node1" class="node">
<title>imports</title>
<polygon fill="#efefef" stroke="transparent" points="65,-316 65,-362 235,-362 235,-316 65,-316"/>
<polygon fill="none" stroke="#000000" points="65,-316 65,-362 235,-362 235,-316 65,-316"/>
<text text-anchor="start" x="71.8765" y="-339.8" font-family="Arial Bold" font-size="18.00" fill="#000000">imports</text>
<text text-anchor="start" x="130.8697" y="-339.8" font-family="Arial" font-size="14.00" fill="#000000"> </text>
<text text-anchor="start" x="134.7603" y="-339.8" font-family="Arial" font-size="14.00" fill="#666666">[BASE TABLE]</text>
<text text-anchor="start" x="111.3768" y="-325.4" font-family="Arial" font-size="14.00" fill="#333333">インポート</text>
<polygon fill="none" stroke="#000000" points="65,-286 65,-316 235,-316 235,-286 65,-286"/>
<text text-anchor="start" x="72" y="-297.4" font-family="Arial" font-size="14.00" fill="#000000">id </text>
<text text-anchor="start" x="86.7798" y="-297.4" font-family="Arial" font-size="14.00" fill="#666666">[int(11)]</text>
<polygon fill="none" stroke="#000000" points="65,-256 65,-286 235,-286 235,-256 65,-256"/>
<text text-anchor="start" x="72" y="-267.4" font-family="Arial" font-size="14.00" fill="#000000">type </text>
<text text-anchor="start" x="102.3464" y="-267.4" font-family="Arial" font-size="14.00" fill="#666666">[varchar(255)]</text>
<polygon fill="none" stroke="#000000" points="65,-226 65,-256 235,-256 235,-226 65,-226"/>
<text text-anchor="start" x="72" y="-237.4" font-family="Arial" font-size="14.00" fill="#000000">user_id </text>
<text text-anchor="start" x="121.7882" y="-237.4" font-family="Arial" font-size="14.00" fill="#666666">[int(11)]</text>
<polygon fill="none" stroke="#000000" points="65,-196 65,-226 235,-226 235,-196 65,-196"/>
<text text-anchor="start" x="72" y="-207.4" font-family="Arial" font-size="14.00" fill="#000000">filename </text>
<text text-anchor="start" x="128.7854" y="-207.4" font-family="Arial" font-size="14.00" fill="#666666">[varchar(255)]</text>
<polygon fill="none" stroke="#000000" points="65,-166 65,-196 235,-196 235,-166 65,-166"/>
<text text-anchor="start" x="72" y="-177.4" font-family="Arial" font-size="14.00" fill="#000000">settings </text>
<text text-anchor="start" x="124.1262" y="-177.4" font-family="Arial" font-size="14.00" fill="#666666">[text]</text>
<polygon fill="none" stroke="#000000" points="65,-136 65,-166 235,-166 235,-136 65,-136"/>
<text text-anchor="start" x="72" y="-147.4" font-family="Arial" font-size="14.00" fill="#000000">total_items </text>
<text text-anchor="start" x="143.5666" y="-147.4" font-family="Arial" font-size="14.00" fill="#666666">[int(11)]</text>
<polygon fill="none" stroke="#000000" points="65,-106 65,-136 235,-136 235,-106 65,-106"/>
<text text-anchor="start" x="72" y="-117.4" font-family="Arial" font-size="14.00" fill="#000000">finished </text>
<text text-anchor="start" x="124.1248" y="-117.4" font-family="Arial" font-size="14.00" fill="#666666">[tinyint(1)]</text>
<polygon fill="none" stroke="#000000" points="65,-76 65,-106 235,-106 235,-76 65,-76"/>
<text text-anchor="start" x="72" y="-87.4" font-family="Arial" font-size="14.00" fill="#000000">created_at </text>
<text text-anchor="start" x="142.028" y="-87.4" font-family="Arial" font-size="14.00" fill="#666666">[datetime]</text>
<polygon fill="none" stroke="#000000" points="65,-46 65,-76 235,-76 235,-46 65,-46"/>
<text text-anchor="start" x="72" y="-57.4" font-family="Arial" font-size="14.00" fill="#000000">updated_at </text>
<text text-anchor="start" x="145.9326" y="-57.4" font-family="Arial" font-size="14.00" fill="#666666">[datetime]</text>
<polygon fill="none" stroke="#000000" stroke-width="3" points="63.5,-44.5 63.5,-363.5 236.5,-363.5 236.5,-44.5 63.5,-44.5"/>
</g>
<!-- import_items -->
<g id="node2" class="node">
<title>import_items</title>
<polygon fill="#efefef" stroke="transparent" points="43,-667 43,-713 257,-713 257,-667 43,-667"/>
<polygon fill="none" stroke="#000000" points="43,-667 43,-713 257,-713 257,-667 43,-667"/>
<text text-anchor="start" x="49.876" y="-690.8" font-family="Arial Bold" font-size="18.00" fill="#000000">import_items</text>
<text text-anchor="start" x="152.8702" y="-690.8" font-family="Arial" font-size="14.00" fill="#000000"> </text>
<text text-anchor="start" x="156.7608" y="-690.8" font-family="Arial" font-size="14.00" fill="#666666">[BASE TABLE]</text>
<text text-anchor="start" x="94.6503" y="-676.4" font-family="Arial" font-size="14.00" fill="#333333">インポート項目</text>
<polygon fill="none" stroke="#000000" points="43,-637 43,-667 257,-667 257,-637 43,-637"/>
<text text-anchor="start" x="50" y="-648.4" font-family="Arial" font-size="14.00" fill="#000000">id </text>
<text text-anchor="start" x="64.7798" y="-648.4" font-family="Arial" font-size="14.00" fill="#666666">[int(11)]</text>
<polygon fill="none" stroke="#000000" points="43,-607 43,-637 257,-637 257,-607 43,-607"/>
<text text-anchor="start" x="50" y="-618.4" font-family="Arial" font-size="14.00" fill="#000000">import_id </text>
<text text-anchor="start" x="111.446" y="-618.4" font-family="Arial" font-size="14.00" fill="#666666">[int(11)]</text>
<polygon fill="none" stroke="#000000" points="43,-577 43,-607 257,-607 257,-577 43,-577"/>
<text text-anchor="start" x="50" y="-588.4" font-family="Arial" font-size="14.00" fill="#000000">position </text>
<text text-anchor="start" x="102.1248" y="-588.4" font-family="Arial" font-size="14.00" fill="#666666">[int(11)]</text>
<polygon fill="none" stroke="#000000" points="43,-547 43,-577 257,-577 257,-547 43,-547"/>
<text text-anchor="start" x="50" y="-558.4" font-family="Arial" font-size="14.00" fill="#000000">obj_id </text>
<text text-anchor="start" x="91.2342" y="-558.4" font-family="Arial" font-size="14.00" fill="#666666">[int(11)]</text>
<polygon fill="none" stroke="#000000" points="43,-517 43,-547 257,-547 257,-517 43,-517"/>
<text text-anchor="start" x="50" y="-528.4" font-family="Arial" font-size="14.00" fill="#000000">message </text>
<text text-anchor="start" x="110.6816" y="-528.4" font-family="Arial" font-size="14.00" fill="#666666">[text]</text>
<polygon fill="none" stroke="#000000" points="43,-487 43,-517 257,-517 257,-487 43,-487"/>
<text text-anchor="start" x="50" y="-498.4" font-family="Arial" font-size="14.00" fill="#000000">unique_id </text>
<text text-anchor="start" x="114.582" y="-498.4" font-family="Arial" font-size="14.00" fill="#666666">[varchar(255)]</text>
</g>
<!-- import_items&#45;&gt;imports -->
<g id="edge1" class="edge">
<title>import_items:import_id&#45;&gt;imports:id</title>
<path fill="none" stroke="#000000" stroke-dasharray="5,2" d="M266.8101,-619.7788C326.2342,-591.4177 303.0094,-301 235,-301"/>
<polygon fill="#000000" stroke="#000000" points="266.7531,-619.7916 256.0062,-617.6111 261.8766,-620.8958 257,-622 257,-622 257,-622 261.8766,-620.8958 257.9938,-626.3889 266.7531,-619.7916 266.7531,-619.7916"/>
<text text-anchor="start" x="264.3245" y="-632" font-family="Arial" font-size="10.00" fill="#000000">Additional Relation</text>
</g>
</g>
</svg>
