<?xml version="1.0" encoding="UTF-8" standalone="no"?>
<!DOCTYPE svg PUBLIC "-//W3C//DTD SVG 1.1//EN"
 "http://www.w3.org/Graphics/SVG/1.1/DTD/svg11.dtd">
<!-- Generated by graphviz version 2.40.1 (20161225.0304)
 -->
<!-- Title: issue_categories Pages: 1 -->
<svg width="346pt" height="266pt"
 viewBox="0.00 0.00 346.00 266.00" xmlns="http://www.w3.org/2000/svg" xmlns:xlink="http://www.w3.org/1999/xlink">
<g id="graph0" class="graph" transform="scale(1 1) rotate(0) translate(4 262)">
<title>issue_categories</title>
<polygon fill="#ffffff" stroke="transparent" points="-4,4 -4,-262 342,-262 342,4 -4,4"/>
<!-- issue_categories -->
<g id="node1" class="node">
<title>issue_categories</title>
<polygon fill="#efefef" stroke="transparent" points="46,-166 46,-212 292,-212 292,-166 46,-166"/>
<polygon fill="none" stroke="#000000" points="46,-166 46,-212 292,-212 292,-166 46,-166"/>
<text text-anchor="start" x="52.8569" y="-189.8" font-family="Arial Bold" font-size="18.00" fill="#000000">issue_categories</text>
<text text-anchor="start" x="187.8893" y="-189.8" font-family="Arial" font-size="14.00" fill="#000000"> </text>
<text text-anchor="start" x="191.7799" y="-189.8" font-family="Arial" font-size="14.00" fill="#666666">[BASE TABLE]</text>
<text text-anchor="start" x="129.2148" y="-175.4" font-family="Arial" font-size="14.00" fill="#333333">カテゴリー</text>
<polygon fill="none" stroke="#000000" points="46,-136 46,-166 292,-166 292,-136 46,-136"/>
<text text-anchor="start" x="53" y="-147.4" font-family="Arial" font-size="14.00" fill="#000000">id </text>
<text text-anchor="start" x="67.7798" y="-147.4" font-family="Arial" font-size="14.00" fill="#666666">[int(11)]</text>
<polygon fill="none" stroke="#000000" points="46,-106 46,-136 292,-136 292,-106 46,-106"/>
<text text-anchor="start" x="53" y="-117.4" font-family="Arial" font-size="14.00" fill="#000000">project_id </text>
<text text-anchor="start" x="117.568" y="-117.4" font-family="Arial" font-size="14.00" fill="#666666">[int(11)]</text>
<polygon fill="none" stroke="#000000" points="46,-76 46,-106 292,-106 292,-76 46,-76"/>
<text text-anchor="start" x="53" y="-87.4" font-family="Arial" font-size="14.00" fill="#000000">name </text>
<text text-anchor="start" x="91.899" y="-87.4" font-family="Arial" font-size="14.00" fill="#666666">[varchar(60)]</text>
<polygon fill="none" stroke="#000000" points="46,-46 46,-76 292,-76 292,-46 46,-46"/>
<text text-anchor="start" x="53" y="-57.4" font-family="Arial" font-size="14.00" fill="#000000">assigned_to_id </text>
<text text-anchor="start" x="151.0378" y="-57.4" font-family="Arial" font-size="14.00" fill="#666666">[int(11)]</text>
<polygon fill="none" stroke="#000000" stroke-width="3" points="44.5,-44.5 44.5,-213.5 293.5,-213.5 293.5,-44.5 44.5,-44.5"/>
</g>
</g>
</svg>
