<?xml version="1.0" encoding="UTF-8" standalone="no"?>
<!DOCTYPE svg PUBLIC "-//W3C//DTD SVG 1.1//EN"
 "http://www.w3.org/Graphics/SVG/1.1/DTD/svg11.dtd">
<!-- Generated by graphviz version 2.40.1 (20161225.0304)
 -->
<!-- Title: issue_categories Pages: 1 -->
<svg width="346pt" height="255pt"
 viewBox="0.00 0.00 346.00 255.00" xmlns="http://www.w3.org/2000/svg" xmlns:xlink="http://www.w3.org/1999/xlink">
<g id="graph0" class="graph" transform="scale(1 1) rotate(0) translate(4 251)">
<title>issue_categories</title>
<polygon fill="#ffffff" stroke="transparent" points="-4,4 -4,-251 342,-251 342,4 -4,4"/>
<!-- issue_categories -->
<g id="node1" class="node">
<title>issue_categories</title>
<polygon fill="#efefef" stroke="transparent" points="46,-165.5 46,-200.5 292,-200.5 292,-165.5 46,-165.5"/>
<polygon fill="none" stroke="#000000" points="46,-165.5 46,-200.5 292,-200.5 292,-165.5 46,-165.5"/>
<text text-anchor="start" x="52.8569" y="-178.3" font-family="Arial Bold" font-size="18.00" fill="#000000">issue_categories</text>
<text text-anchor="start" x="187.8893" y="-178.3" font-family="Arial" font-size="14.00" fill="#000000"> </text>
<text text-anchor="start" x="191.7799" y="-178.3" font-family="Arial" font-size="14.00" fill="#666666">[BASE TABLE]</text>
<polygon fill="none" stroke="#000000" points="46,-135.5 46,-165.5 292,-165.5 292,-135.5 46,-135.5"/>
<text text-anchor="start" x="53" y="-146.9" font-family="Arial" font-size="14.00" fill="#000000">id </text>
<text text-anchor="start" x="67.7798" y="-146.9" font-family="Arial" font-size="14.00" fill="#666666">[int(11)]</text>
<polygon fill="none" stroke="#000000" points="46,-105.5 46,-135.5 292,-135.5 292,-105.5 46,-105.5"/>
<text text-anchor="start" x="53" y="-116.9" font-family="Arial" font-size="14.00" fill="#000000">project_id </text>
<text text-anchor="start" x="117.568" y="-116.9" font-family="Arial" font-size="14.00" fill="#666666">[int(11)]</text>
<polygon fill="none" stroke="#000000" points="46,-75.5 46,-105.5 292,-105.5 292,-75.5 46,-75.5"/>
<text text-anchor="start" x="53" y="-86.9" font-family="Arial" font-size="14.00" fill="#000000">name </text>
<text text-anchor="start" x="91.899" y="-86.9" font-family="Arial" font-size="14.00" fill="#666666">[varchar(60)]</text>
<polygon fill="none" stroke="#000000" points="46,-45.5 46,-75.5 292,-75.5 292,-45.5 46,-45.5"/>
<text text-anchor="start" x="53" y="-56.9" font-family="Arial" font-size="14.00" fill="#000000">assigned_to_id </text>
<text text-anchor="start" x="151.0378" y="-56.9" font-family="Arial" font-size="14.00" fill="#666666">[int(11)]</text>
<polygon fill="none" stroke="#000000" stroke-width="3" points="44.5,-44.5 44.5,-202.5 293.5,-202.5 293.5,-44.5 44.5,-44.5"/>
</g>
</g>
</svg>
