<?xml version="1.0" encoding="UTF-8" standalone="no"?>
<!DOCTYPE svg PUBLIC "-//W3C//DTD SVG 1.1//EN"
 "http://www.w3.org/Graphics/SVG/1.1/DTD/svg11.dtd">
<!-- Generated by graphviz version 2.40.1 (20161225.0304)
 -->
<!-- Title: issues Pages: 1 -->
<svg width="266pt" height="855pt"
 viewBox="0.00 0.00 266.00 855.00" xmlns="http://www.w3.org/2000/svg" xmlns:xlink="http://www.w3.org/1999/xlink">
<g id="graph0" class="graph" transform="scale(1 1) rotate(0) translate(4 851)">
<title>issues</title>
<polygon fill="#ffffff" stroke="transparent" points="-4,4 -4,-851 262,-851 262,4 -4,4"/>
<!-- issues -->
<g id="node1" class="node">
<title>issues</title>
<polygon fill="#efefef" stroke="transparent" points="46,-765.5 46,-800.5 212,-800.5 212,-765.5 46,-765.5"/>
<polygon fill="none" stroke="#000000" points="46,-765.5 46,-800.5 212,-800.5 212,-765.5 46,-765.5"/>
<text text-anchor="start" x="54.8698" y="-778.3" font-family="Arial Bold" font-size="18.00" fill="#000000">issues</text>
<text text-anchor="start" x="105.8764" y="-778.3" font-family="Arial" font-size="14.00" fill="#000000"> </text>
<text text-anchor="start" x="109.767" y="-778.3" font-family="Arial" font-size="14.00" fill="#666666">[BASE TABLE]</text>
<polygon fill="none" stroke="#000000" points="46,-735.5 46,-765.5 212,-765.5 212,-735.5 46,-735.5"/>
<text text-anchor="start" x="53" y="-746.9" font-family="Arial" font-size="14.00" fill="#000000">id </text>
<text text-anchor="start" x="67.7798" y="-746.9" font-family="Arial" font-size="14.00" fill="#666666">[int(11)]</text>
<polygon fill="none" stroke="#000000" points="46,-705.5 46,-735.5 212,-735.5 212,-705.5 46,-705.5"/>
<text text-anchor="start" x="53" y="-716.9" font-family="Arial" font-size="14.00" fill="#000000">tracker_id </text>
<text text-anchor="start" x="118.3394" y="-716.9" font-family="Arial" font-size="14.00" fill="#666666">[int(11)]</text>
<polygon fill="none" stroke="#000000" points="46,-675.5 46,-705.5 212,-705.5 212,-675.5 46,-675.5"/>
<text text-anchor="start" x="53" y="-686.9" font-family="Arial" font-size="14.00" fill="#000000">project_id </text>
<text text-anchor="start" x="117.568" y="-686.9" font-family="Arial" font-size="14.00" fill="#666666">[int(11)]</text>
<polygon fill="none" stroke="#000000" points="46,-645.5 46,-675.5 212,-675.5 212,-645.5 46,-645.5"/>
<text text-anchor="start" x="53" y="-656.9" font-family="Arial" font-size="14.00" fill="#000000">subject </text>
<text text-anchor="start" x="101.2356" y="-656.9" font-family="Arial" font-size="14.00" fill="#666666">[varchar(255)]</text>
<polygon fill="none" stroke="#000000" points="46,-615.5 46,-645.5 212,-645.5 212,-615.5 46,-615.5"/>
<text text-anchor="start" x="53" y="-626.9" font-family="Arial" font-size="14.00" fill="#000000">description </text>
<text text-anchor="start" x="124.568" y="-626.9" font-family="Arial" font-size="14.00" fill="#666666">[longtext]</text>
<polygon fill="none" stroke="#000000" points="46,-585.5 46,-615.5 212,-615.5 212,-585.5 46,-585.5"/>
<text text-anchor="start" x="53" y="-596.9" font-family="Arial" font-size="14.00" fill="#000000">due_date </text>
<text text-anchor="start" x="115.2594" y="-596.9" font-family="Arial" font-size="14.00" fill="#666666">[date]</text>
<polygon fill="none" stroke="#000000" points="46,-555.5 46,-585.5 212,-585.5 212,-555.5 46,-555.5"/>
<text text-anchor="start" x="53" y="-566.9" font-family="Arial" font-size="14.00" fill="#000000">category_id </text>
<text text-anchor="start" x="129.244" y="-566.9" font-family="Arial" font-size="14.00" fill="#666666">[int(11)]</text>
<polygon fill="none" stroke="#000000" points="46,-525.5 46,-555.5 212,-555.5 212,-525.5 46,-525.5"/>
<text text-anchor="start" x="53" y="-536.9" font-family="Arial" font-size="14.00" fill="#000000">status_id </text>
<text text-anchor="start" x="112.9088" y="-536.9" font-family="Arial" font-size="14.00" fill="#666666">[int(11)]</text>
<polygon fill="none" stroke="#000000" points="46,-495.5 46,-525.5 212,-525.5 212,-495.5 46,-495.5"/>
<text text-anchor="start" x="53" y="-506.9" font-family="Arial" font-size="14.00" fill="#000000">assigned_to_id </text>
<text text-anchor="start" x="151.0378" y="-506.9" font-family="Arial" font-size="14.00" fill="#666666">[int(11)]</text>
<polygon fill="none" stroke="#000000" points="46,-465.5 46,-495.5 212,-495.5 212,-465.5 46,-465.5"/>
<text text-anchor="start" x="53" y="-476.9" font-family="Arial" font-size="14.00" fill="#000000">priority_id </text>
<text text-anchor="start" x="117.5526" y="-476.9" font-family="Arial" font-size="14.00" fill="#666666">[int(11)]</text>
<polygon fill="none" stroke="#000000" points="46,-435.5 46,-465.5 212,-465.5 212,-435.5 46,-435.5"/>
<text text-anchor="start" x="52.7651" y="-446.9" font-family="Arial" font-size="14.00" fill="#000000">fixed_version_id </text>
<text text-anchor="start" x="157.7875" y="-446.9" font-family="Arial" font-size="14.00" fill="#666666">[int(11)]</text>
<polygon fill="none" stroke="#000000" points="46,-405.5 46,-435.5 212,-435.5 212,-405.5 46,-405.5"/>
<text text-anchor="start" x="53" y="-416.9" font-family="Arial" font-size="14.00" fill="#000000">author_id </text>
<text text-anchor="start" x="115.244" y="-416.9" font-family="Arial" font-size="14.00" fill="#666666">[int(11)]</text>
<polygon fill="none" stroke="#000000" points="46,-375.5 46,-405.5 212,-405.5 212,-375.5 46,-375.5"/>
<text text-anchor="start" x="53" y="-386.9" font-family="Arial" font-size="14.00" fill="#000000">lock_version </text>
<text text-anchor="start" x="134.6774" y="-386.9" font-family="Arial" font-size="14.00" fill="#666666">[int(11)]</text>
<polygon fill="none" stroke="#000000" points="46,-345.5 46,-375.5 212,-375.5 212,-345.5 46,-345.5"/>
<text text-anchor="start" x="53" y="-356.9" font-family="Arial" font-size="14.00" fill="#000000">created_on </text>
<text text-anchor="start" x="126.92" y="-356.9" font-family="Arial" font-size="14.00" fill="#666666">[timestamp]</text>
<polygon fill="none" stroke="#000000" points="46,-315.5 46,-345.5 212,-345.5 212,-315.5 46,-315.5"/>
<text text-anchor="start" x="53" y="-326.9" font-family="Arial" font-size="14.00" fill="#000000">updated_on </text>
<text text-anchor="start" x="130.8246" y="-326.9" font-family="Arial" font-size="14.00" fill="#666666">[timestamp]</text>
<polygon fill="none" stroke="#000000" points="46,-285.5 46,-315.5 212,-315.5 212,-285.5 46,-285.5"/>
<text text-anchor="start" x="53" y="-296.9" font-family="Arial" font-size="14.00" fill="#000000">start_date </text>
<text text-anchor="start" x="119.136" y="-296.9" font-family="Arial" font-size="14.00" fill="#666666">[date]</text>
<polygon fill="none" stroke="#000000" points="46,-255.5 46,-285.5 212,-285.5 212,-255.5 46,-255.5"/>
<text text-anchor="start" x="53" y="-266.9" font-family="Arial" font-size="14.00" fill="#000000">done_ratio </text>
<text text-anchor="start" x="123.0266" y="-266.9" font-family="Arial" font-size="14.00" fill="#666666">[int(11)]</text>
<polygon fill="none" stroke="#000000" points="46,-225.5 46,-255.5 212,-255.5 212,-225.5 46,-225.5"/>
<text text-anchor="start" x="53" y="-236.9" font-family="Arial" font-size="14.00" fill="#000000">estimated_hours </text>
<text text-anchor="start" x="160.3604" y="-236.9" font-family="Arial" font-size="14.00" fill="#666666">[float]</text>
<polygon fill="none" stroke="#000000" points="46,-195.5 46,-225.5 212,-225.5 212,-195.5 46,-195.5"/>
<text text-anchor="start" x="53" y="-206.9" font-family="Arial" font-size="14.00" fill="#000000">parent_id </text>
<text text-anchor="start" x="115.244" y="-206.9" font-family="Arial" font-size="14.00" fill="#666666">[int(11)]</text>
<polygon fill="none" stroke="#000000" points="46,-165.5 46,-195.5 212,-195.5 212,-165.5 46,-165.5"/>
<text text-anchor="start" x="53" y="-176.9" font-family="Arial" font-size="14.00" fill="#000000">root_id </text>
<text text-anchor="start" x="99.6788" y="-176.9" font-family="Arial" font-size="14.00" fill="#666666">[int(11)]</text>
<polygon fill="none" stroke="#000000" points="46,-135.5 46,-165.5 212,-165.5 212,-135.5 46,-135.5"/>
<text text-anchor="start" x="53" y="-146.9" font-family="Arial" font-size="14.00" fill="#000000">lft </text>
<text text-anchor="start" x="67.7784" y="-146.9" font-family="Arial" font-size="14.00" fill="#666666">[int(11)]</text>
<polygon fill="none" stroke="#000000" points="46,-105.5 46,-135.5 212,-135.5 212,-105.5 46,-105.5"/>
<text text-anchor="start" x="53" y="-116.9" font-family="Arial" font-size="14.00" fill="#000000">rgt </text>
<text text-anchor="start" x="73.2244" y="-116.9" font-family="Arial" font-size="14.00" fill="#666666">[int(11)]</text>
<polygon fill="none" stroke="#000000" points="46,-75.5 46,-105.5 212,-105.5 212,-75.5 46,-75.5"/>
<text text-anchor="start" x="53" y="-86.9" font-family="Arial" font-size="14.00" fill="#000000">is_private </text>
<text text-anchor="start" x="116.7854" y="-86.9" font-family="Arial" font-size="14.00" fill="#666666">[tinyint(1)]</text>
<polygon fill="none" stroke="#000000" points="46,-45.5 46,-75.5 212,-75.5 212,-45.5 46,-45.5"/>
<text text-anchor="start" x="53" y="-56.9" font-family="Arial" font-size="14.00" fill="#000000">closed_on </text>
<text text-anchor="start" x="120.6928" y="-56.9" font-family="Arial" font-size="14.00" fill="#666666">[datetime]</text>
<polygon fill="none" stroke="#000000" stroke-width="3" points="44.5,-44.5 44.5,-802.5 213.5,-802.5 213.5,-44.5 44.5,-44.5"/>
</g>
</g>
</svg>
