<?xml version="1.0" encoding="UTF-8" standalone="no"?>
<!DOCTYPE svg PUBLIC "-//W3C//DTD SVG 1.1//EN"
 "http://www.w3.org/Graphics/SVG/1.1/DTD/svg11.dtd">
<!-- Generated by graphviz version 2.40.1 (20161225.0304)
 -->
<!-- Title: member_roles Pages: 1 -->
<svg width="377pt" height="753pt"
 viewBox="0.00 0.00 377.00 753.00" xmlns="http://www.w3.org/2000/svg" xmlns:xlink="http://www.w3.org/1999/xlink">
<g id="graph0" class="graph" transform="scale(1 1) rotate(0) translate(4 749)">
<title>member_roles</title>
<polygon fill="#ffffff" stroke="transparent" points="-4,4 -4,-749 373,-749 373,4 -4,4"/>
<!-- member_roles -->
<g id="node1" class="node">
<title>member_roles</title>
<polygon fill="#efefef" stroke="transparent" points="97,-663.5 97,-698.5 323,-698.5 323,-663.5 97,-663.5"/>
<polygon fill="none" stroke="#000000" points="97,-663.5 97,-698.5 323,-698.5 323,-663.5 97,-663.5"/>
<text text-anchor="start" x="103.873" y="-676.3" font-family="Arial Bold" font-size="18.00" fill="#000000">member_roles</text>
<text text-anchor="start" x="218.8732" y="-676.3" font-family="Arial" font-size="14.00" fill="#000000"> </text>
<text text-anchor="start" x="222.7638" y="-676.3" font-family="Arial" font-size="14.00" fill="#666666">[BASE TABLE]</text>
<polygon fill="none" stroke="#000000" points="97,-633.5 97,-663.5 323,-663.5 323,-633.5 97,-633.5"/>
<text text-anchor="start" x="104" y="-644.9" font-family="Arial" font-size="14.00" fill="#000000">id </text>
<text text-anchor="start" x="118.7798" y="-644.9" font-family="Arial" font-size="14.00" fill="#666666">[int(11)]</text>
<polygon fill="none" stroke="#000000" points="97,-603.5 97,-633.5 323,-633.5 323,-603.5 97,-603.5"/>
<text text-anchor="start" x="104" y="-614.9" font-family="Arial" font-size="14.00" fill="#000000">member_id </text>
<text text-anchor="start" x="177.892" y="-614.9" font-family="Arial" font-size="14.00" fill="#666666">[int(11)]</text>
<polygon fill="none" stroke="#000000" points="97,-573.5 97,-603.5 323,-603.5 323,-573.5 97,-573.5"/>
<text text-anchor="start" x="104" y="-584.9" font-family="Arial" font-size="14.00" fill="#000000">role_id </text>
<text text-anchor="start" x="149.8948" y="-584.9" font-family="Arial" font-size="14.00" fill="#666666">[int(11)]</text>
<polygon fill="none" stroke="#000000" points="97,-543.5 97,-573.5 323,-573.5 323,-543.5 97,-543.5"/>
<text text-anchor="start" x="104" y="-554.9" font-family="Arial" font-size="14.00" fill="#000000">inherited_from </text>
<text text-anchor="start" x="197.345" y="-554.9" font-family="Arial" font-size="14.00" fill="#666666">[int(11)]</text>
<polygon fill="none" stroke="#000000" stroke-width="3" points="95.5,-542.5 95.5,-700.5 324.5,-700.5 324.5,-542.5 95.5,-542.5"/>
</g>
<!-- roles -->
<g id="node2" class="node">
<title>roles</title>
<polygon fill="#efefef" stroke="transparent" points="95,-373 95,-419 324,-419 324,-373 95,-373"/>
<polygon fill="none" stroke="#000000" points="95,-373 95,-419 324,-419 324,-373 95,-373"/>
<text text-anchor="start" x="141.3737" y="-396.8" font-family="Arial Bold" font-size="18.00" fill="#000000">roles</text>
<text text-anchor="start" x="180.3725" y="-396.8" font-family="Arial" font-size="14.00" fill="#000000"> </text>
<text text-anchor="start" x="184.2631" y="-396.8" font-family="Arial" font-size="14.00" fill="#666666">[BASE TABLE]</text>
<text text-anchor="start" x="182.6746" y="-382.4" font-family="Arial" font-size="14.00" fill="#333333">ロール</text>
<polygon fill="none" stroke="#000000" points="95,-343 95,-373 324,-373 324,-343 95,-343"/>
<text text-anchor="start" x="102" y="-354.4" font-family="Arial" font-size="14.00" fill="#000000">id </text>
<text text-anchor="start" x="116.7798" y="-354.4" font-family="Arial" font-size="14.00" fill="#666666">[int(11)]</text>
<polygon fill="none" stroke="#000000" points="95,-313 95,-343 324,-343 324,-313 95,-313"/>
<text text-anchor="start" x="102" y="-324.4" font-family="Arial" font-size="14.00" fill="#000000">name </text>
<text text-anchor="start" x="140.899" y="-324.4" font-family="Arial" font-size="14.00" fill="#666666">[varchar(255)]</text>
<polygon fill="none" stroke="#000000" points="95,-283 95,-313 324,-313 324,-283 95,-283"/>
<text text-anchor="start" x="102" y="-294.4" font-family="Arial" font-size="14.00" fill="#000000">position </text>
<text text-anchor="start" x="154.1248" y="-294.4" font-family="Arial" font-size="14.00" fill="#666666">[int(11)]</text>
<polygon fill="none" stroke="#000000" points="95,-253 95,-283 324,-283 324,-253 95,-253"/>
<text text-anchor="start" x="102" y="-264.4" font-family="Arial" font-size="14.00" fill="#000000">assignable </text>
<text text-anchor="start" x="172.7994" y="-264.4" font-family="Arial" font-size="14.00" fill="#666666">[tinyint(1)]</text>
<polygon fill="none" stroke="#000000" points="95,-223 95,-253 324,-253 324,-223 95,-223"/>
<text text-anchor="start" x="102" y="-234.4" font-family="Arial" font-size="14.00" fill="#000000">builtin </text>
<text text-anchor="start" x="142.4488" y="-234.4" font-family="Arial" font-size="14.00" fill="#666666">[int(11)]</text>
<polygon fill="none" stroke="#000000" points="95,-193 95,-223 324,-223 324,-193 95,-193"/>
<text text-anchor="start" x="102" y="-204.4" font-family="Arial" font-size="14.00" fill="#000000">permissions </text>
<text text-anchor="start" x="180.5554" y="-204.4" font-family="Arial" font-size="14.00" fill="#666666">[text]</text>
<polygon fill="none" stroke="#000000" points="95,-163 95,-193 324,-193 324,-163 95,-163"/>
<text text-anchor="start" x="102" y="-174.4" font-family="Arial" font-size="14.00" fill="#000000">issues_visibility </text>
<text text-anchor="start" x="201.5512" y="-174.4" font-family="Arial" font-size="14.00" fill="#666666">[varchar(30)]</text>
<polygon fill="none" stroke="#000000" points="95,-133 95,-163 324,-163 324,-133 95,-133"/>
<text text-anchor="start" x="102" y="-144.4" font-family="Arial" font-size="14.00" fill="#000000">users_visibility </text>
<text text-anchor="start" x="196.1052" y="-144.4" font-family="Arial" font-size="14.00" fill="#666666">[varchar(30)]</text>
<polygon fill="none" stroke="#000000" points="95,-103 95,-133 324,-133 324,-103 95,-103"/>
<text text-anchor="start" x="101.7777" y="-114.4" font-family="Arial" font-size="14.00" fill="#000000">time_entries_visibility </text>
<text text-anchor="start" x="237.8857" y="-114.4" font-family="Arial" font-size="14.00" fill="#666666">[varchar(30)]</text>
<polygon fill="none" stroke="#000000" points="95,-73 95,-103 324,-103 324,-73 95,-73"/>
<text text-anchor="start" x="102" y="-84.4" font-family="Arial" font-size="14.00" fill="#000000">all_roles_managed </text>
<text text-anchor="start" x="224.1402" y="-84.4" font-family="Arial" font-size="14.00" fill="#666666">[tinyint(1)]</text>
<polygon fill="none" stroke="#000000" points="95,-43 95,-73 324,-73 324,-43 95,-43"/>
<text text-anchor="start" x="102" y="-54.4" font-family="Arial" font-size="14.00" fill="#000000">settings </text>
<text text-anchor="start" x="154.1262" y="-54.4" font-family="Arial" font-size="14.00" fill="#666666">[text]</text>
</g>
<!-- member_roles&#45;&gt;roles -->
<g id="edge1" class="edge">
<title>member_roles:role_id&#45;&gt;roles:id</title>
<path fill="none" stroke="#000000" stroke-dasharray="5,2" d="M87.085,-586.9938C59.5277,-577.5242 73.3295,-525.7202 97,-498 163.3331,-420.3181 257.6669,-539.6819 324,-462 354.0154,-426.8493 370.2222,-358 324,-358"/>
<polygon fill="#000000" stroke="#000000" points="87.1134,-586.998 96.3241,-592.949 92.0567,-587.749 97,-588.5 97,-588.5 97,-588.5 92.0567,-587.749 97.6759,-584.051 87.1134,-586.998 87.1134,-586.998"/>
<text text-anchor="start" x="7.3245" y="-598.5" font-family="Arial" font-size="10.00" fill="#000000">Additional Relation</text>
</g>
</g>
</svg>
