<?xml version="1.0" encoding="UTF-8" standalone="no"?>
<!DOCTYPE svg PUBLIC "-//W3C//DTD SVG 1.1//EN"
 "http://www.w3.org/Graphics/SVG/1.1/DTD/svg11.dtd">
<!-- Generated by graphviz version 2.40.1 (20161225.0304)
 -->
<!-- Title: roles Pages: 1 -->
<svg width="1406pt" height="753pt"
 viewBox="0.00 0.00 1406.00 753.00" xmlns="http://www.w3.org/2000/svg" xmlns:xlink="http://www.w3.org/1999/xlink">
<g id="graph0" class="graph" transform="scale(1 1) rotate(0) translate(4 749)">
<title>roles</title>
<polygon fill="#ffffff" stroke="transparent" points="-4,4 -4,-749 1402,-749 1402,4 -4,4"/>
<!-- roles -->
<g id="node1" class="node">
<title>roles</title>
<polygon fill="#efefef" stroke="transparent" points="576,-376 576,-422 805,-422 805,-376 576,-376"/>
<polygon fill="none" stroke="#000000" points="576,-376 576,-422 805,-422 805,-376 576,-376"/>
<text text-anchor="start" x="622.3737" y="-399.8" font-family="Arial Bold" font-size="18.00" fill="#000000">roles</text>
<text text-anchor="start" x="661.3725" y="-399.8" font-family="Arial" font-size="14.00" fill="#000000"> </text>
<text text-anchor="start" x="665.2631" y="-399.8" font-family="Arial" font-size="14.00" fill="#666666">[BASE TABLE]</text>
<text text-anchor="start" x="663.6746" y="-385.4" font-family="Arial" font-size="14.00" fill="#333333">ロール</text>
<polygon fill="none" stroke="#000000" points="576,-346 576,-376 805,-376 805,-346 576,-346"/>
<text text-anchor="start" x="583" y="-357.4" font-family="Arial" font-size="14.00" fill="#000000">id </text>
<text text-anchor="start" x="597.7798" y="-357.4" font-family="Arial" font-size="14.00" fill="#666666">[int(11)]</text>
<polygon fill="none" stroke="#000000" points="576,-316 576,-346 805,-346 805,-316 576,-316"/>
<text text-anchor="start" x="583" y="-327.4" font-family="Arial" font-size="14.00" fill="#000000">name </text>
<text text-anchor="start" x="621.899" y="-327.4" font-family="Arial" font-size="14.00" fill="#666666">[varchar(255)]</text>
<polygon fill="none" stroke="#000000" points="576,-286 576,-316 805,-316 805,-286 576,-286"/>
<text text-anchor="start" x="583" y="-297.4" font-family="Arial" font-size="14.00" fill="#000000">position </text>
<text text-anchor="start" x="635.1248" y="-297.4" font-family="Arial" font-size="14.00" fill="#666666">[int(11)]</text>
<polygon fill="none" stroke="#000000" points="576,-256 576,-286 805,-286 805,-256 576,-256"/>
<text text-anchor="start" x="583" y="-267.4" font-family="Arial" font-size="14.00" fill="#000000">assignable </text>
<text text-anchor="start" x="653.7994" y="-267.4" font-family="Arial" font-size="14.00" fill="#666666">[tinyint(1)]</text>
<polygon fill="none" stroke="#000000" points="576,-226 576,-256 805,-256 805,-226 576,-226"/>
<text text-anchor="start" x="583" y="-237.4" font-family="Arial" font-size="14.00" fill="#000000">builtin </text>
<text text-anchor="start" x="623.4488" y="-237.4" font-family="Arial" font-size="14.00" fill="#666666">[int(11)]</text>
<polygon fill="none" stroke="#000000" points="576,-196 576,-226 805,-226 805,-196 576,-196"/>
<text text-anchor="start" x="583" y="-207.4" font-family="Arial" font-size="14.00" fill="#000000">permissions </text>
<text text-anchor="start" x="661.5554" y="-207.4" font-family="Arial" font-size="14.00" fill="#666666">[text]</text>
<polygon fill="none" stroke="#000000" points="576,-166 576,-196 805,-196 805,-166 576,-166"/>
<text text-anchor="start" x="583" y="-177.4" font-family="Arial" font-size="14.00" fill="#000000">issues_visibility </text>
<text text-anchor="start" x="682.5512" y="-177.4" font-family="Arial" font-size="14.00" fill="#666666">[varchar(30)]</text>
<polygon fill="none" stroke="#000000" points="576,-136 576,-166 805,-166 805,-136 576,-136"/>
<text text-anchor="start" x="583" y="-147.4" font-family="Arial" font-size="14.00" fill="#000000">users_visibility </text>
<text text-anchor="start" x="677.1052" y="-147.4" font-family="Arial" font-size="14.00" fill="#666666">[varchar(30)]</text>
<polygon fill="none" stroke="#000000" points="576,-106 576,-136 805,-136 805,-106 576,-106"/>
<text text-anchor="start" x="582.7777" y="-117.4" font-family="Arial" font-size="14.00" fill="#000000">time_entries_visibility </text>
<text text-anchor="start" x="718.8857" y="-117.4" font-family="Arial" font-size="14.00" fill="#666666">[varchar(30)]</text>
<polygon fill="none" stroke="#000000" points="576,-76 576,-106 805,-106 805,-76 576,-76"/>
<text text-anchor="start" x="583" y="-87.4" font-family="Arial" font-size="14.00" fill="#000000">all_roles_managed </text>
<text text-anchor="start" x="705.1402" y="-87.4" font-family="Arial" font-size="14.00" fill="#666666">[tinyint(1)]</text>
<polygon fill="none" stroke="#000000" points="576,-46 576,-76 805,-76 805,-46 576,-46"/>
<text text-anchor="start" x="583" y="-57.4" font-family="Arial" font-size="14.00" fill="#000000">settings </text>
<text text-anchor="start" x="635.1262" y="-57.4" font-family="Arial" font-size="14.00" fill="#666666">[text]</text>
<polygon fill="none" stroke="#000000" stroke-width="3" points="574,-44.5 574,-423.5 806,-423.5 806,-44.5 574,-44.5"/>
</g>
<!-- custom_fields_roles -->
<g id="node2" class="node">
<title>custom_fields_roles</title>
<polygon fill="#efefef" stroke="transparent" points="43,-631.5 43,-677.5 313,-677.5 313,-631.5 43,-631.5"/>
<polygon fill="none" stroke="#000000" points="43,-631.5 43,-677.5 313,-677.5 313,-631.5 43,-631.5"/>
<text text-anchor="start" x="49.8626" y="-655.3" font-family="Arial Bold" font-size="18.00" fill="#000000">custom_fields_roles</text>
<text text-anchor="start" x="208.8836" y="-655.3" font-family="Arial" font-size="14.00" fill="#000000"> </text>
<text text-anchor="start" x="212.7742" y="-655.3" font-family="Arial" font-size="14.00" fill="#666666">[BASE TABLE]</text>
<text text-anchor="start" x="73.4109" y="-640.9" font-family="Arial" font-size="14.00" fill="#333333">カスタムフィールド⇔ロール</text>
<polygon fill="none" stroke="#000000" points="43,-601.5 43,-631.5 313,-631.5 313,-601.5 43,-601.5"/>
<text text-anchor="start" x="50" y="-612.9" font-family="Arial" font-size="14.00" fill="#000000">custom_field_id </text>
<text text-anchor="start" x="151.1304" y="-612.9" font-family="Arial" font-size="14.00" fill="#666666">[int(11)]</text>
<polygon fill="none" stroke="#000000" points="43,-571.5 43,-601.5 313,-601.5 313,-571.5 43,-571.5"/>
<text text-anchor="start" x="50" y="-582.9" font-family="Arial" font-size="14.00" fill="#000000">role_id </text>
<text text-anchor="start" x="95.8948" y="-582.9" font-family="Arial" font-size="14.00" fill="#666666">[int(11)]</text>
</g>
<!-- custom_fields_roles&#45;&gt;roles -->
<g id="edge1" class="edge">
<title>custom_fields_roles:role_id&#45;&gt;roles:id</title>
<path fill="none" stroke="#000000" stroke-dasharray="5,2" d="M323.1969,-585.3085C352.8999,-577.4365 337.5729,-532.3536 365,-504 443.7635,-422.5759 462.7146,-361 576,-361"/>
<polygon fill="#000000" stroke="#000000" points="322.9324,-585.3393 312.4777,-582.0304 317.9662,-585.9196 313,-586.5 313,-586.5 313,-586.5 317.9662,-585.9196 313.5223,-590.9696 322.9324,-585.3393 322.9324,-585.3393"/>
<text text-anchor="start" x="320.3245" y="-596.5" font-family="Arial" font-size="10.00" fill="#000000">Additional Relation</text>
</g>
<!-- queries_roles -->
<g id="node3" class="node">
<title>queries_roles</title>
<polygon fill="#efefef" stroke="transparent" points="418,-636.5 418,-671.5 637,-671.5 637,-636.5 418,-636.5"/>
<polygon fill="none" stroke="#000000" points="418,-636.5 418,-671.5 637,-671.5 637,-636.5 418,-636.5"/>
<text text-anchor="start" x="424.865" y="-649.3" font-family="Arial Bold" font-size="18.00" fill="#000000">queries_roles</text>
<text text-anchor="start" x="532.8812" y="-649.3" font-family="Arial" font-size="14.00" fill="#000000"> </text>
<text text-anchor="start" x="536.7718" y="-649.3" font-family="Arial" font-size="14.00" fill="#666666">[BASE TABLE]</text>
<polygon fill="none" stroke="#000000" points="418,-606.5 418,-636.5 637,-636.5 637,-606.5 418,-606.5"/>
<text text-anchor="start" x="425" y="-617.9" font-family="Arial" font-size="14.00" fill="#000000">query_id </text>
<text text-anchor="start" x="482.5708" y="-617.9" font-family="Arial" font-size="14.00" fill="#666666">[int(11)]</text>
<polygon fill="none" stroke="#000000" points="418,-576.5 418,-606.5 637,-606.5 637,-576.5 418,-576.5"/>
<text text-anchor="start" x="425" y="-587.9" font-family="Arial" font-size="14.00" fill="#000000">role_id </text>
<text text-anchor="start" x="470.8948" y="-587.9" font-family="Arial" font-size="14.00" fill="#666666">[int(11)]</text>
</g>
<!-- queries_roles&#45;&gt;roles -->
<g id="edge2" class="edge">
<title>queries_roles:role_id&#45;&gt;roles:id</title>
<path fill="none" stroke="#000000" stroke-dasharray="5,2" d="M646.7202,-588.7346C657.177,-580.2075 644.7126,-553.7078 637,-534 622.4434,-496.8037 590.5566,-505.1963 576,-468 558.6692,-423.7149 528.4444,-361 576,-361"/>
<polygon fill="#000000" stroke="#000000" points="646.6183,-588.7636 635.7686,-587.1717 641.8092,-590.1318 637,-591.5 637,-591.5 637,-591.5 641.8092,-590.1318 638.2314,-595.8283 646.6183,-588.7636 646.6183,-588.7636"/>
<text text-anchor="start" x="644.3245" y="-601.5" font-family="Arial" font-size="10.00" fill="#000000">Additional Relation</text>
</g>
<!-- member_roles -->
<g id="node4" class="node">
<title>member_roles</title>
<polygon fill="#efefef" stroke="transparent" points="741,-666.5 741,-701.5 967,-701.5 967,-666.5 741,-666.5"/>
<polygon fill="none" stroke="#000000" points="741,-666.5 741,-701.5 967,-701.5 967,-666.5 741,-666.5"/>
<text text-anchor="start" x="747.873" y="-679.3" font-family="Arial Bold" font-size="18.00" fill="#000000">member_roles</text>
<text text-anchor="start" x="862.8732" y="-679.3" font-family="Arial" font-size="14.00" fill="#000000"> </text>
<text text-anchor="start" x="866.7638" y="-679.3" font-family="Arial" font-size="14.00" fill="#666666">[BASE TABLE]</text>
<polygon fill="none" stroke="#000000" points="741,-636.5 741,-666.5 967,-666.5 967,-636.5 741,-636.5"/>
<text text-anchor="start" x="748" y="-647.9" font-family="Arial" font-size="14.00" fill="#000000">id </text>
<text text-anchor="start" x="762.7798" y="-647.9" font-family="Arial" font-size="14.00" fill="#666666">[int(11)]</text>
<polygon fill="none" stroke="#000000" points="741,-606.5 741,-636.5 967,-636.5 967,-606.5 741,-606.5"/>
<text text-anchor="start" x="748" y="-617.9" font-family="Arial" font-size="14.00" fill="#000000">member_id </text>
<text text-anchor="start" x="821.892" y="-617.9" font-family="Arial" font-size="14.00" fill="#666666">[int(11)]</text>
<polygon fill="none" stroke="#000000" points="741,-576.5 741,-606.5 967,-606.5 967,-576.5 741,-576.5"/>
<text text-anchor="start" x="748" y="-587.9" font-family="Arial" font-size="14.00" fill="#000000">role_id </text>
<text text-anchor="start" x="793.8948" y="-587.9" font-family="Arial" font-size="14.00" fill="#666666">[int(11)]</text>
<polygon fill="none" stroke="#000000" points="741,-546.5 741,-576.5 967,-576.5 967,-546.5 741,-546.5"/>
<text text-anchor="start" x="748" y="-557.9" font-family="Arial" font-size="14.00" fill="#000000">inherited_from </text>
<text text-anchor="start" x="841.345" y="-557.9" font-family="Arial" font-size="14.00" fill="#666666">[int(11)]</text>
</g>
<!-- member_roles&#45;&gt;roles -->
<g id="edge3" class="edge">
<title>member_roles:role_id&#45;&gt;roles:id</title>
<path fill="none" stroke="#000000" stroke-dasharray="5,2" d="M730.8898,-589.909C706.0264,-580.7553 723.3611,-534.1599 741,-504 757.476,-475.8286 788.524,-496.1714 805,-468 829.0082,-426.9496 852.5556,-361 805,-361"/>
<polygon fill="#000000" stroke="#000000" points="731.1216,-589.9453 740.3004,-595.9453 736.0608,-590.7227 741,-591.5 741,-591.5 741,-591.5 736.0608,-590.7227 741.6996,-587.0547 731.1216,-589.9453 731.1216,-589.9453"/>
<text text-anchor="start" x="651.3245" y="-575.5" font-family="Arial" font-size="10.00" fill="#000000">Additional Relation</text>
</g>
<!-- roles_managed_roles -->
<g id="node5" class="node">
<title>roles_managed_roles</title>
<polygon fill="#efefef" stroke="transparent" points="1071,-636.5 1071,-671.5 1355,-671.5 1355,-636.5 1071,-636.5"/>
<polygon fill="none" stroke="#000000" points="1071,-636.5 1071,-671.5 1355,-671.5 1355,-636.5 1071,-636.5"/>
<text text-anchor="start" x="1077.8534" y="-649.3" font-family="Arial Bold" font-size="18.00" fill="#000000">roles_managed_roles</text>
<text text-anchor="start" x="1250.8928" y="-649.3" font-family="Arial" font-size="14.00" fill="#000000"> </text>
<text text-anchor="start" x="1254.7834" y="-649.3" font-family="Arial" font-size="14.00" fill="#666666">[BASE TABLE]</text>
<polygon fill="none" stroke="#000000" points="1071,-606.5 1071,-636.5 1355,-636.5 1355,-606.5 1071,-606.5"/>
<text text-anchor="start" x="1078" y="-617.9" font-family="Arial" font-size="14.00" fill="#000000">role_id </text>
<text text-anchor="start" x="1123.8948" y="-617.9" font-family="Arial" font-size="14.00" fill="#666666">[int(11)]</text>
<polygon fill="none" stroke="#000000" points="1071,-576.5 1071,-606.5 1355,-606.5 1355,-576.5 1071,-576.5"/>
<text text-anchor="start" x="1078" y="-587.9" font-family="Arial" font-size="14.00" fill="#000000">managed_role_id </text>
<text text-anchor="start" x="1190.0336" y="-587.9" font-family="Arial" font-size="14.00" fill="#666666">[int(11)]</text>
</g>
<!-- roles_managed_roles&#45;&gt;roles -->
<g id="edge4" class="edge">
<title>roles_managed_roles:role_id&#45;&gt;roles:id</title>
<path fill="none" stroke="#000000" stroke-dasharray="5,2" d="M1060.8804,-620.5542C1019.1054,-611.8322 1053.3132,-544.806 1019,-504 945.3787,-416.4481 919.3916,-361 805,-361"/>
<polygon fill="#000000" stroke="#000000" points="1061.0434,-620.5693 1070.5812,-625.9805 1066.0217,-621.0347 1071,-621.5 1071,-621.5 1071,-621.5 1066.0217,-621.0347 1071.4188,-617.0195 1061.0434,-620.5693 1061.0434,-620.5693"/>
<text text-anchor="start" x="981.3245" y="-631.5" font-family="Arial" font-size="10.00" fill="#000000">Additional Relation</text>
</g>
</g>
</svg>
