<?xml version="1.0" encoding="UTF-8" standalone="no"?>
<!DOCTYPE svg PUBLIC "-//W3C//DTD SVG 1.1//EN"
 "http://www.w3.org/Graphics/SVG/1.1/DTD/svg11.dtd">
<!-- Generated by graphviz version 2.40.1 (20161225.0304)
 -->
<!-- Title: time_entries Pages: 1 -->
<svg width="309pt" height="566pt"
 viewBox="0.00 0.00 309.00 566.00" xmlns="http://www.w3.org/2000/svg" xmlns:xlink="http://www.w3.org/1999/xlink">
<g id="graph0" class="graph" transform="scale(1 1) rotate(0) translate(4 562)">
<title>time_entries</title>
<polygon fill="#ffffff" stroke="transparent" points="-4,4 -4,-562 305,-562 305,4 -4,4"/>
<!-- time_entries -->
<g id="node1" class="node">
<title>time_entries</title>
<polygon fill="#efefef" stroke="transparent" points="46.5,-466 46.5,-512 255.5,-512 255.5,-466 46.5,-466"/>
<polygon fill="none" stroke="#000000" points="46.5,-466 46.5,-512 255.5,-512 255.5,-466 46.5,-466"/>
<text text-anchor="start" x="53.369" y="-489.8" font-family="Arial Bold" font-size="18.00" fill="#000000">time_entries</text>
<text text-anchor="start" x="151.3772" y="-489.8" font-family="Arial" font-size="14.00" fill="#000000"> </text>
<text text-anchor="start" x="155.2678" y="-489.8" font-family="Arial" font-size="14.00" fill="#666666">[BASE TABLE]</text>
<text text-anchor="start" x="122.2167" y="-475.4" font-family="Arial" font-size="14.00" fill="#333333">時間管理</text>
<polygon fill="none" stroke="#000000" points="46.5,-436 46.5,-466 255.5,-466 255.5,-436 46.5,-436"/>
<text text-anchor="start" x="53.5" y="-447.4" font-family="Arial" font-size="14.00" fill="#000000">id </text>
<text text-anchor="start" x="68.2798" y="-447.4" font-family="Arial" font-size="14.00" fill="#666666">[int(11)]</text>
<polygon fill="none" stroke="#000000" points="46.5,-406 46.5,-436 255.5,-436 255.5,-406 46.5,-406"/>
<text text-anchor="start" x="53.5" y="-417.4" font-family="Arial" font-size="14.00" fill="#000000">project_id </text>
<text text-anchor="start" x="118.068" y="-417.4" font-family="Arial" font-size="14.00" fill="#666666">[int(11)]</text>
<polygon fill="none" stroke="#000000" points="46.5,-376 46.5,-406 255.5,-406 255.5,-376 46.5,-376"/>
<text text-anchor="start" x="53.5" y="-387.4" font-family="Arial" font-size="14.00" fill="#000000">author_id </text>
<text text-anchor="start" x="115.744" y="-387.4" font-family="Arial" font-size="14.00" fill="#666666">[int(11)]</text>
<polygon fill="none" stroke="#000000" points="46.5,-346 46.5,-376 255.5,-376 255.5,-346 46.5,-346"/>
<text text-anchor="start" x="53.5" y="-357.4" font-family="Arial" font-size="14.00" fill="#000000">user_id </text>
<text text-anchor="start" x="103.2882" y="-357.4" font-family="Arial" font-size="14.00" fill="#666666">[int(11)]</text>
<polygon fill="none" stroke="#000000" points="46.5,-316 46.5,-346 255.5,-346 255.5,-316 46.5,-316"/>
<text text-anchor="start" x="53.5" y="-327.4" font-family="Arial" font-size="14.00" fill="#000000">issue_id </text>
<text text-anchor="start" x="108.7342" y="-327.4" font-family="Arial" font-size="14.00" fill="#666666">[int(11)]</text>
<polygon fill="none" stroke="#000000" points="46.5,-286 46.5,-316 255.5,-316 255.5,-286 46.5,-286"/>
<text text-anchor="start" x="53.5" y="-297.4" font-family="Arial" font-size="14.00" fill="#000000">hours </text>
<text text-anchor="start" x="92.399" y="-297.4" font-family="Arial" font-size="14.00" fill="#666666">[float]</text>
<polygon fill="none" stroke="#000000" points="46.5,-256 46.5,-286 255.5,-286 255.5,-256 46.5,-256"/>
<text text-anchor="start" x="53.5" y="-267.4" font-family="Arial" font-size="14.00" fill="#000000">comments </text>
<text text-anchor="start" x="121.9502" y="-267.4" font-family="Arial" font-size="14.00" fill="#666666">[varchar(1024)]</text>
<polygon fill="none" stroke="#000000" points="46.5,-226 46.5,-256 255.5,-256 255.5,-226 46.5,-226"/>
<text text-anchor="start" x="53.5" y="-237.4" font-family="Arial" font-size="14.00" fill="#000000">activity_id </text>
<text text-anchor="start" x="118.8394" y="-237.4" font-family="Arial" font-size="14.00" fill="#666666">[int(11)]</text>
<polygon fill="none" stroke="#000000" points="46.5,-196 46.5,-226 255.5,-226 255.5,-196 46.5,-196"/>
<text text-anchor="start" x="53.5" y="-207.4" font-family="Arial" font-size="14.00" fill="#000000">spent_on </text>
<text text-anchor="start" x="114.9768" y="-207.4" font-family="Arial" font-size="14.00" fill="#666666">[date]</text>
<polygon fill="none" stroke="#000000" points="46.5,-166 46.5,-196 255.5,-196 255.5,-166 46.5,-166"/>
<text text-anchor="start" x="53.5" y="-177.4" font-family="Arial" font-size="14.00" fill="#000000">tyear </text>
<text text-anchor="start" x="88.507" y="-177.4" font-family="Arial" font-size="14.00" fill="#666666">[int(11)]</text>
<polygon fill="none" stroke="#000000" points="46.5,-136 46.5,-166 255.5,-166 255.5,-136 46.5,-136"/>
<text text-anchor="start" x="53.5" y="-147.4" font-family="Arial" font-size="14.00" fill="#000000">tmonth </text>
<text text-anchor="start" x="100.1802" y="-147.4" font-family="Arial" font-size="14.00" fill="#666666">[int(11)]</text>
<polygon fill="none" stroke="#000000" points="46.5,-106 46.5,-136 255.5,-136 255.5,-106 46.5,-106"/>
<text text-anchor="start" x="53.5" y="-117.4" font-family="Arial" font-size="14.00" fill="#000000">tweek </text>
<text text-anchor="start" x="93.953" y="-117.4" font-family="Arial" font-size="14.00" fill="#666666">[int(11)]</text>
<polygon fill="none" stroke="#000000" points="46.5,-76 46.5,-106 255.5,-106 255.5,-76 46.5,-76"/>
<text text-anchor="start" x="53.5" y="-87.4" font-family="Arial" font-size="14.00" fill="#000000">created_on </text>
<text text-anchor="start" x="127.42" y="-87.4" font-family="Arial" font-size="14.00" fill="#666666">[datetime]</text>
<polygon fill="none" stroke="#000000" points="46.5,-46 46.5,-76 255.5,-76 255.5,-46 46.5,-46"/>
<text text-anchor="start" x="53.5" y="-57.4" font-family="Arial" font-size="14.00" fill="#000000">updated_on </text>
<text text-anchor="start" x="131.3246" y="-57.4" font-family="Arial" font-size="14.00" fill="#666666">[datetime]</text>
<polygon fill="none" stroke="#000000" stroke-width="3" points="44.5,-44.5 44.5,-513.5 256.5,-513.5 256.5,-44.5 44.5,-44.5"/>
</g>
</g>
</svg>
