<?xml version="1.0" encoding="UTF-8" standalone="no"?>
<!DOCTYPE svg PUBLIC "-//W3C//DTD SVG 1.1//EN"
 "http://www.w3.org/Graphics/SVG/1.1/DTD/svg11.dtd">
<!-- Generated by graphviz version 2.40.1 (20161225.0304)
 -->
<!-- Title: time_entries Pages: 1 -->
<svg width="890pt" height="1364pt"
 viewBox="0.00 0.00 889.50 1364.00" xmlns="http://www.w3.org/2000/svg" xmlns:xlink="http://www.w3.org/1999/xlink">
<g id="graph0" class="graph" transform="scale(1 1) rotate(0) translate(4 1360)">
<title>time_entries</title>
<polygon fill="#ffffff" stroke="transparent" points="-4,4 -4,-1360 885.5,-1360 885.5,4 -4,4"/>
<!-- time_entries -->
<g id="node1" class="node">
<title>time_entries</title>
<polygon fill="#efefef" stroke="transparent" points="267.5,-1264 267.5,-1310 476.5,-1310 476.5,-1264 267.5,-1264"/>
<polygon fill="none" stroke="#000000" points="267.5,-1264 267.5,-1310 476.5,-1310 476.5,-1264 267.5,-1264"/>
<text text-anchor="start" x="274.369" y="-1287.8" font-family="Arial Bold" font-size="18.00" fill="#000000">time_entries</text>
<text text-anchor="start" x="372.3772" y="-1287.8" font-family="Arial" font-size="14.00" fill="#000000"> </text>
<text text-anchor="start" x="376.2678" y="-1287.8" font-family="Arial" font-size="14.00" fill="#666666">[BASE TABLE]</text>
<text text-anchor="start" x="343.2167" y="-1273.4" font-family="Arial" font-size="14.00" fill="#333333">時間管理</text>
<polygon fill="none" stroke="#000000" points="267.5,-1234 267.5,-1264 476.5,-1264 476.5,-1234 267.5,-1234"/>
<text text-anchor="start" x="274.5" y="-1245.4" font-family="Arial" font-size="14.00" fill="#000000">id </text>
<text text-anchor="start" x="289.2798" y="-1245.4" font-family="Arial" font-size="14.00" fill="#666666">[int(11)]</text>
<polygon fill="none" stroke="#000000" points="267.5,-1204 267.5,-1234 476.5,-1234 476.5,-1204 267.5,-1204"/>
<text text-anchor="start" x="274.5" y="-1215.4" font-family="Arial" font-size="14.00" fill="#000000">project_id </text>
<text text-anchor="start" x="339.068" y="-1215.4" font-family="Arial" font-size="14.00" fill="#666666">[int(11)]</text>
<polygon fill="none" stroke="#000000" points="267.5,-1174 267.5,-1204 476.5,-1204 476.5,-1174 267.5,-1174"/>
<text text-anchor="start" x="274.5" y="-1185.4" font-family="Arial" font-size="14.00" fill="#000000">author_id </text>
<text text-anchor="start" x="336.744" y="-1185.4" font-family="Arial" font-size="14.00" fill="#666666">[int(11)]</text>
<polygon fill="none" stroke="#000000" points="267.5,-1144 267.5,-1174 476.5,-1174 476.5,-1144 267.5,-1144"/>
<text text-anchor="start" x="274.5" y="-1155.4" font-family="Arial" font-size="14.00" fill="#000000">user_id </text>
<text text-anchor="start" x="324.2882" y="-1155.4" font-family="Arial" font-size="14.00" fill="#666666">[int(11)]</text>
<polygon fill="none" stroke="#000000" points="267.5,-1114 267.5,-1144 476.5,-1144 476.5,-1114 267.5,-1114"/>
<text text-anchor="start" x="274.5" y="-1125.4" font-family="Arial" font-size="14.00" fill="#000000">issue_id </text>
<text text-anchor="start" x="329.7342" y="-1125.4" font-family="Arial" font-size="14.00" fill="#666666">[int(11)]</text>
<polygon fill="none" stroke="#000000" points="267.5,-1084 267.5,-1114 476.5,-1114 476.5,-1084 267.5,-1084"/>
<text text-anchor="start" x="274.5" y="-1095.4" font-family="Arial" font-size="14.00" fill="#000000">hours </text>
<text text-anchor="start" x="313.399" y="-1095.4" font-family="Arial" font-size="14.00" fill="#666666">[float]</text>
<polygon fill="none" stroke="#000000" points="267.5,-1054 267.5,-1084 476.5,-1084 476.5,-1054 267.5,-1054"/>
<text text-anchor="start" x="274.5" y="-1065.4" font-family="Arial" font-size="14.00" fill="#000000">comments </text>
<text text-anchor="start" x="342.9502" y="-1065.4" font-family="Arial" font-size="14.00" fill="#666666">[varchar(1024)]</text>
<polygon fill="none" stroke="#000000" points="267.5,-1024 267.5,-1054 476.5,-1054 476.5,-1024 267.5,-1024"/>
<text text-anchor="start" x="274.5" y="-1035.4" font-family="Arial" font-size="14.00" fill="#000000">activity_id </text>
<text text-anchor="start" x="339.8394" y="-1035.4" font-family="Arial" font-size="14.00" fill="#666666">[int(11)]</text>
<polygon fill="none" stroke="#000000" points="267.5,-994 267.5,-1024 476.5,-1024 476.5,-994 267.5,-994"/>
<text text-anchor="start" x="274.5" y="-1005.4" font-family="Arial" font-size="14.00" fill="#000000">spent_on </text>
<text text-anchor="start" x="335.9768" y="-1005.4" font-family="Arial" font-size="14.00" fill="#666666">[date]</text>
<polygon fill="none" stroke="#000000" points="267.5,-964 267.5,-994 476.5,-994 476.5,-964 267.5,-964"/>
<text text-anchor="start" x="274.5" y="-975.4" font-family="Arial" font-size="14.00" fill="#000000">tyear </text>
<text text-anchor="start" x="309.507" y="-975.4" font-family="Arial" font-size="14.00" fill="#666666">[int(11)]</text>
<polygon fill="none" stroke="#000000" points="267.5,-934 267.5,-964 476.5,-964 476.5,-934 267.5,-934"/>
<text text-anchor="start" x="274.5" y="-945.4" font-family="Arial" font-size="14.00" fill="#000000">tmonth </text>
<text text-anchor="start" x="321.1802" y="-945.4" font-family="Arial" font-size="14.00" fill="#666666">[int(11)]</text>
<polygon fill="none" stroke="#000000" points="267.5,-904 267.5,-934 476.5,-934 476.5,-904 267.5,-904"/>
<text text-anchor="start" x="274.5" y="-915.4" font-family="Arial" font-size="14.00" fill="#000000">tweek </text>
<text text-anchor="start" x="314.953" y="-915.4" font-family="Arial" font-size="14.00" fill="#666666">[int(11)]</text>
<polygon fill="none" stroke="#000000" points="267.5,-874 267.5,-904 476.5,-904 476.5,-874 267.5,-874"/>
<text text-anchor="start" x="274.5" y="-885.4" font-family="Arial" font-size="14.00" fill="#000000">created_on </text>
<text text-anchor="start" x="348.42" y="-885.4" font-family="Arial" font-size="14.00" fill="#666666">[datetime]</text>
<polygon fill="none" stroke="#000000" points="267.5,-844 267.5,-874 476.5,-874 476.5,-844 267.5,-844"/>
<text text-anchor="start" x="274.5" y="-855.4" font-family="Arial" font-size="14.00" fill="#000000">updated_on </text>
<text text-anchor="start" x="352.3246" y="-855.4" font-family="Arial" font-size="14.00" fill="#666666">[datetime]</text>
<polygon fill="none" stroke="#000000" stroke-width="3" points="265.5,-842.5 265.5,-1311.5 477.5,-1311.5 477.5,-842.5 265.5,-842.5"/>
</g>
<!-- projects -->
<g id="node2" class="node">
<title>projects</title>
<polygon fill="#efefef" stroke="transparent" points="43.5,-583 43.5,-629 252.5,-629 252.5,-583 43.5,-583"/>
<polygon fill="none" stroke="#000000" points="43.5,-583 43.5,-629 252.5,-629 252.5,-583 43.5,-583"/>
<text text-anchor="start" x="67.8695" y="-606.8" font-family="Arial Bold" font-size="18.00" fill="#000000">projects</text>
<text text-anchor="start" x="130.8767" y="-606.8" font-family="Arial" font-size="14.00" fill="#000000"> </text>
<text text-anchor="start" x="134.7673" y="-606.8" font-family="Arial" font-size="14.00" fill="#666666">[BASE TABLE]</text>
<text text-anchor="start" x="105.6269" y="-592.4" font-family="Arial" font-size="14.00" fill="#333333">プロジェクト</text>
<polygon fill="none" stroke="#000000" points="43.5,-553 43.5,-583 252.5,-583 252.5,-553 43.5,-553"/>
<text text-anchor="start" x="50.5" y="-564.4" font-family="Arial" font-size="14.00" fill="#000000">id </text>
<text text-anchor="start" x="65.2798" y="-564.4" font-family="Arial" font-size="14.00" fill="#666666">[int(11)]</text>
<polygon fill="none" stroke="#000000" points="43.5,-523 43.5,-553 252.5,-553 252.5,-523 43.5,-523"/>
<text text-anchor="start" x="50.5" y="-534.4" font-family="Arial" font-size="14.00" fill="#000000">name </text>
<text text-anchor="start" x="89.399" y="-534.4" font-family="Arial" font-size="14.00" fill="#666666">[varchar(255)]</text>
<polygon fill="none" stroke="#000000" points="43.5,-493 43.5,-523 252.5,-523 252.5,-493 43.5,-493"/>
<text text-anchor="start" x="50.5" y="-504.4" font-family="Arial" font-size="14.00" fill="#000000">description </text>
<text text-anchor="start" x="122.068" y="-504.4" font-family="Arial" font-size="14.00" fill="#666666">[text]</text>
<polygon fill="none" stroke="#000000" points="43.5,-463 43.5,-493 252.5,-493 252.5,-463 43.5,-463"/>
<text text-anchor="start" x="50.5" y="-474.4" font-family="Arial" font-size="14.00" fill="#000000">homepage </text>
<text text-anchor="start" x="120.5294" y="-474.4" font-family="Arial" font-size="14.00" fill="#666666">[varchar(255)]</text>
<polygon fill="none" stroke="#000000" points="43.5,-433 43.5,-463 252.5,-463 252.5,-433 43.5,-433"/>
<text text-anchor="start" x="50.5" y="-444.4" font-family="Arial" font-size="14.00" fill="#000000">is_public </text>
<text text-anchor="start" x="108.8408" y="-444.4" font-family="Arial" font-size="14.00" fill="#666666">[tinyint(1)]</text>
<polygon fill="none" stroke="#000000" points="43.5,-403 43.5,-433 252.5,-433 252.5,-403 43.5,-403"/>
<text text-anchor="start" x="50.5" y="-414.4" font-family="Arial" font-size="14.00" fill="#000000">parent_id </text>
<text text-anchor="start" x="112.744" y="-414.4" font-family="Arial" font-size="14.00" fill="#666666">[int(11)]</text>
<polygon fill="none" stroke="#000000" points="43.5,-373 43.5,-403 252.5,-403 252.5,-373 43.5,-373"/>
<text text-anchor="start" x="50.5" y="-384.4" font-family="Arial" font-size="14.00" fill="#000000">created_on </text>
<text text-anchor="start" x="124.42" y="-384.4" font-family="Arial" font-size="14.00" fill="#666666">[timestamp]</text>
<polygon fill="none" stroke="#000000" points="43.5,-343 43.5,-373 252.5,-373 252.5,-343 43.5,-343"/>
<text text-anchor="start" x="50.5" y="-354.4" font-family="Arial" font-size="14.00" fill="#000000">updated_on </text>
<text text-anchor="start" x="128.3246" y="-354.4" font-family="Arial" font-size="14.00" fill="#666666">[timestamp]</text>
<polygon fill="none" stroke="#000000" points="43.5,-313 43.5,-343 252.5,-343 252.5,-313 43.5,-313"/>
<text text-anchor="start" x="50.5" y="-324.4" font-family="Arial" font-size="14.00" fill="#000000">identifier </text>
<text text-anchor="start" x="107.2826" y="-324.4" font-family="Arial" font-size="14.00" fill="#666666">[varchar(255)]</text>
<polygon fill="none" stroke="#000000" points="43.5,-283 43.5,-313 252.5,-313 252.5,-283 43.5,-283"/>
<text text-anchor="start" x="50.5" y="-294.4" font-family="Arial" font-size="14.00" fill="#000000">status </text>
<text text-anchor="start" x="91.737" y="-294.4" font-family="Arial" font-size="14.00" fill="#666666">[int(11)]</text>
<polygon fill="none" stroke="#000000" points="43.5,-253 43.5,-283 252.5,-283 252.5,-253 43.5,-253"/>
<text text-anchor="start" x="50.5" y="-264.4" font-family="Arial" font-size="14.00" fill="#000000">lft </text>
<text text-anchor="start" x="65.2784" y="-264.4" font-family="Arial" font-size="14.00" fill="#666666">[int(11)]</text>
<polygon fill="none" stroke="#000000" points="43.5,-223 43.5,-253 252.5,-253 252.5,-223 43.5,-223"/>
<text text-anchor="start" x="50.5" y="-234.4" font-family="Arial" font-size="14.00" fill="#000000">rgt </text>
<text text-anchor="start" x="70.7244" y="-234.4" font-family="Arial" font-size="14.00" fill="#666666">[int(11)]</text>
<polygon fill="none" stroke="#000000" points="43.5,-193 43.5,-223 252.5,-223 252.5,-193 43.5,-193"/>
<text text-anchor="start" x="50.5" y="-204.4" font-family="Arial" font-size="14.00" fill="#000000">inherit_members </text>
<text text-anchor="start" x="158.615" y="-204.4" font-family="Arial" font-size="14.00" fill="#666666">[tinyint(1)]</text>
<polygon fill="none" stroke="#000000" points="43.5,-163 43.5,-193 252.5,-193 252.5,-163 43.5,-163"/>
<text text-anchor="start" x="50.5" y="-174.4" font-family="Arial" font-size="14.00" fill="#000000">default_version_id </text>
<text text-anchor="start" x="167.9782" y="-174.4" font-family="Arial" font-size="14.00" fill="#666666">[int(11)]</text>
<polygon fill="none" stroke="#000000" points="43.5,-133 43.5,-163 252.5,-163 252.5,-133 43.5,-133"/>
<text text-anchor="start" x="50.357" y="-144.4" font-family="Arial" font-size="14.00" fill="#000000">default_assigned_to_id </text>
<text text-anchor="start" x="198.1956" y="-144.4" font-family="Arial" font-size="14.00" fill="#666666">[int(11)]</text>
</g>
<!-- time_entries&#45;&gt;projects -->
<g id="edge1" class="edge">
<title>time_entries:project_id&#45;&gt;projects:id</title>
<path fill="none" stroke="#000000" stroke-dasharray="5,2" d="M261.4756,-1210.769C238.5284,-1135.4098 286.2739,-568 252.5,-568"/>
<polygon fill="#000000" stroke="#000000" points="261.5938,-1210.9305 263.8687,-1221.6578 264.5469,-1214.9652 267.5,-1219 267.5,-1219 267.5,-1219 264.5469,-1214.9652 271.1313,-1216.3422 261.5938,-1210.9305 261.5938,-1210.9305"/>
<text text-anchor="start" x="177.8245" y="-1229" font-family="Arial" font-size="10.00" fill="#000000">Additional Relation</text>
</g>
<!-- users -->
<g id="node3" class="node">
<title>users</title>
<polygon fill="#efefef" stroke="transparent" points="356.5,-673 356.5,-719 838.5,-719 838.5,-673 356.5,-673"/>
<polygon fill="none" stroke="#000000" points="356.5,-673 356.5,-719 838.5,-719 838.5,-673 356.5,-673"/>
<text text-anchor="start" x="526.8708" y="-696.8" font-family="Arial Bold" font-size="18.00" fill="#000000">users</text>
<text text-anchor="start" x="570.8754" y="-696.8" font-family="Arial" font-size="14.00" fill="#000000"> </text>
<text text-anchor="start" x="574.766" y="-696.8" font-family="Arial" font-size="14.00" fill="#666666">[BASE TABLE]</text>
<text text-anchor="start" x="518.9558" y="-682.4" font-family="Arial" font-size="14.00" fill="#333333">ユーザー / グループ</text>
<polygon fill="none" stroke="#000000" points="356.5,-643 356.5,-673 838.5,-673 838.5,-643 356.5,-643"/>
<text text-anchor="start" x="363.5" y="-654.4" font-family="Arial" font-size="14.00" fill="#000000">id </text>
<text text-anchor="start" x="378.2798" y="-654.4" font-family="Arial" font-size="14.00" fill="#666666">[int(11)]</text>
<polygon fill="none" stroke="#000000" points="356.5,-613 356.5,-643 838.5,-643 838.5,-613 356.5,-613"/>
<text text-anchor="start" x="363.5" y="-624.4" font-family="Arial" font-size="14.00" fill="#000000">login </text>
<text text-anchor="start" x="396.9516" y="-624.4" font-family="Arial" font-size="14.00" fill="#666666">[varchar(255)]</text>
<text text-anchor="start" x="484.0708" y="-624.4" font-family="Arial" font-size="14.00" fill="#000000"> ログインID</text>
<polygon fill="none" stroke="#000000" points="356.5,-583 356.5,-613 838.5,-613 838.5,-583 356.5,-583"/>
<text text-anchor="start" x="363.5" y="-594.4" font-family="Arial" font-size="14.00" fill="#000000">hashed_password </text>
<text text-anchor="start" x="480.9838" y="-594.4" font-family="Arial" font-size="14.00" fill="#666666">[varchar(40)]</text>
<text text-anchor="start" x="560.3204" y="-594.4" font-family="Arial" font-size="14.00" fill="#000000"> パスワード(ハッシュ化済み)</text>
<polygon fill="none" stroke="#000000" points="356.5,-553 356.5,-583 838.5,-583 838.5,-553 356.5,-553"/>
<text text-anchor="start" x="363.5" y="-564.4" font-family="Arial" font-size="14.00" fill="#000000">firstname </text>
<text text-anchor="start" x="424.9474" y="-564.4" font-family="Arial" font-size="14.00" fill="#666666">[varchar(30)]</text>
<text text-anchor="start" x="504.284" y="-564.4" font-family="Arial" font-size="14.00" fill="#000000"> 名</text>
<polygon fill="none" stroke="#000000" points="356.5,-523 356.5,-553 838.5,-553 838.5,-523 356.5,-523"/>
<text text-anchor="start" x="363.5" y="-534.4" font-family="Arial" font-size="14.00" fill="#000000">lastname </text>
<text text-anchor="start" x="424.1788" y="-534.4" font-family="Arial" font-size="14.00" fill="#666666">[varchar(255)]</text>
<text text-anchor="start" x="511.298" y="-534.4" font-family="Arial" font-size="14.00" fill="#000000"> 姓</text>
<polygon fill="none" stroke="#000000" points="356.5,-493 356.5,-523 838.5,-523 838.5,-493 356.5,-493"/>
<text text-anchor="start" x="363.5" y="-504.4" font-family="Arial" font-size="14.00" fill="#000000">admin </text>
<text text-anchor="start" x="405.5056" y="-504.4" font-family="Arial" font-size="14.00" fill="#666666">[tinyint(1)]</text>
<text text-anchor="start" x="466.9502" y="-504.4" font-family="Arial" font-size="14.00" fill="#000000"> システム管理者</text>
<polygon fill="none" stroke="#000000" points="356.5,-463 356.5,-493 838.5,-493 838.5,-463 356.5,-463"/>
<text text-anchor="start" x="363.5" y="-474.4" font-family="Arial" font-size="14.00" fill="#000000">status </text>
<text text-anchor="start" x="404.737" y="-474.4" font-family="Arial" font-size="14.00" fill="#666666">[int(11)]</text>
<polygon fill="none" stroke="#000000" points="356.5,-433 356.5,-463 838.5,-463 838.5,-433 356.5,-433"/>
<text text-anchor="start" x="363.5" y="-444.4" font-family="Arial" font-size="14.00" fill="#000000">last_login_on </text>
<text text-anchor="start" x="449.8618" y="-444.4" font-family="Arial" font-size="14.00" fill="#666666">[datetime]</text>
<polygon fill="none" stroke="#000000" points="356.5,-403 356.5,-433 838.5,-433 838.5,-403 356.5,-403"/>
<text text-anchor="start" x="363.5" y="-414.4" font-family="Arial" font-size="14.00" fill="#000000">language </text>
<text text-anchor="start" x="424.9754" y="-414.4" font-family="Arial" font-size="14.00" fill="#666666">[varchar(5)]</text>
<text text-anchor="start" x="496.5294" y="-414.4" font-family="Arial" font-size="14.00" fill="#000000"> 言語</text>
<polygon fill="none" stroke="#000000" points="356.5,-373 356.5,-403 838.5,-403 838.5,-373 356.5,-373"/>
<text text-anchor="start" x="363.5" y="-384.4" font-family="Arial" font-size="14.00" fill="#000000">auth_source_id </text>
<text text-anchor="start" x="463.0918" y="-384.4" font-family="Arial" font-size="14.00" fill="#666666">[int(11)]</text>
<polygon fill="none" stroke="#000000" points="356.5,-343 356.5,-373 838.5,-373 838.5,-343 356.5,-343"/>
<text text-anchor="start" x="363.5" y="-354.4" font-family="Arial" font-size="14.00" fill="#000000">created_on </text>
<text text-anchor="start" x="437.42" y="-354.4" font-family="Arial" font-size="14.00" fill="#666666">[timestamp]</text>
<polygon fill="none" stroke="#000000" points="356.5,-313 356.5,-343 838.5,-343 838.5,-313 356.5,-313"/>
<text text-anchor="start" x="363.5" y="-324.4" font-family="Arial" font-size="14.00" fill="#000000">updated_on </text>
<text text-anchor="start" x="441.3246" y="-324.4" font-family="Arial" font-size="14.00" fill="#666666">[timestamp]</text>
<polygon fill="none" stroke="#000000" points="356.5,-283 356.5,-313 838.5,-313 838.5,-283 356.5,-283"/>
<text text-anchor="start" x="363.5" y="-294.4" font-family="Arial" font-size="14.00" fill="#000000">type </text>
<text text-anchor="start" x="393.8464" y="-294.4" font-family="Arial" font-size="14.00" fill="#666666">[varchar(255)]</text>
<text text-anchor="start" x="480.9656" y="-294.4" font-family="Arial" font-size="14.00" fill="#000000"> User:ユーザー / Group:グループ</text>
<polygon fill="none" stroke="#000000" points="356.5,-253 356.5,-283 838.5,-283 838.5,-253 356.5,-253"/>
<text text-anchor="start" x="363.5" y="-264.4" font-family="Arial" font-size="14.00" fill="#000000">identity_url </text>
<text text-anchor="start" x="435.0652" y="-264.4" font-family="Arial" font-size="14.00" fill="#666666">[varchar(255)]</text>
<polygon fill="none" stroke="#000000" points="356.5,-223 356.5,-253 838.5,-253 838.5,-223 356.5,-223"/>
<text text-anchor="start" x="363.5" y="-234.4" font-family="Arial" font-size="14.00" fill="#000000">mail_notification </text>
<text text-anchor="start" x="467.7342" y="-234.4" font-family="Arial" font-size="14.00" fill="#666666">[varchar(255)]</text>
<text text-anchor="start" x="554.8534" y="-234.4" font-family="Arial" font-size="14.00" fill="#000000"> メール通知</text>
<polygon fill="none" stroke="#000000" points="356.5,-193 356.5,-223 838.5,-223 838.5,-193 356.5,-193"/>
<text text-anchor="start" x="363.5" y="-204.4" font-family="Arial" font-size="14.00" fill="#000000">salt </text>
<text text-anchor="start" x="389.1704" y="-204.4" font-family="Arial" font-size="14.00" fill="#666666">[varchar(64)]</text>
<polygon fill="none" stroke="#000000" points="356.5,-163 356.5,-193 838.5,-193 838.5,-163 356.5,-163"/>
<text text-anchor="start" x="363.2646" y="-174.4" font-family="Arial" font-size="14.00" fill="#000000">must_change_passwd </text>
<text text-anchor="start" x="506.4216" y="-174.4" font-family="Arial" font-size="14.00" fill="#666666">[tinyint(1)]</text>
<text text-anchor="start" x="567.8662" y="-174.4" font-family="Arial" font-size="14.00" fill="#000000"> 次回ログイン時にパスワード変更を強制</text>
<polygon fill="none" stroke="#000000" points="356.5,-133 356.5,-163 838.5,-163 838.5,-133 356.5,-133"/>
<text text-anchor="start" x="363.5" y="-144.4" font-family="Arial" font-size="14.00" fill="#000000">passwd_changed_on </text>
<text text-anchor="start" x="499.671" y="-144.4" font-family="Arial" font-size="14.00" fill="#666666">[datetime]</text>
<polygon fill="none" stroke="#000000" points="356.5,-103 356.5,-133 838.5,-133 838.5,-103 356.5,-103"/>
<text text-anchor="start" x="363.5" y="-114.4" font-family="Arial" font-size="14.00" fill="#000000">twofa_scheme </text>
<text text-anchor="start" x="457.6346" y="-114.4" font-family="Arial" font-size="14.00" fill="#666666">[varchar(255)]</text>
<polygon fill="none" stroke="#000000" points="356.5,-73 356.5,-103 838.5,-103 838.5,-73 356.5,-73"/>
<text text-anchor="start" x="363.5" y="-84.4" font-family="Arial" font-size="14.00" fill="#000000">twofa_totp_key </text>
<text text-anchor="start" x="461.5378" y="-84.4" font-family="Arial" font-size="14.00" fill="#666666">[varchar(255)]</text>
<polygon fill="none" stroke="#000000" points="356.5,-43 356.5,-73 838.5,-73 838.5,-43 356.5,-43"/>
<text text-anchor="start" x="363.5" y="-54.4" font-family="Arial" font-size="14.00" fill="#000000">twofa_totp_last_used_at </text>
<text text-anchor="start" x="519.1212" y="-54.4" font-family="Arial" font-size="14.00" fill="#666666">[int(11)]</text>
</g>
<!-- time_entries&#45;&gt;users -->
<g id="edge2" class="edge">
<title>time_entries:author_id&#45;&gt;users:id</title>
<path fill="none" stroke="#000000" stroke-dasharray="5,2" d="M486.8856,-1188.6857C647.3907,-1178.7285 578.1059,-934.5615 476.5,-798 443.2619,-753.327 389.7381,-806.673 356.5,-762 328.9085,-724.9162 310.2778,-658 356.5,-658"/>
<polygon fill="#000000" stroke="#000000" points="486.4954,-1188.6974 476.3638,-1184.5021 481.4977,-1188.8487 476.5,-1189 476.5,-1189 476.5,-1189 481.4977,-1188.8487 476.6362,-1193.4979 486.4954,-1188.6974 486.4954,-1188.6974"/>
<text text-anchor="start" x="483.8245" y="-1199" font-family="Arial" font-size="10.00" fill="#000000">Additional Relation</text>
</g>
</g>
</svg>
