<?xml version="1.0" encoding="UTF-8" standalone="no"?>
<!DOCTYPE svg PUBLIC "-//W3C//DTD SVG 1.1//EN"
 "http://www.w3.org/Graphics/SVG/1.1/DTD/svg11.dtd">
<!-- Generated by graphviz version 2.40.1 (20161225.0304)
 -->
<!-- Title: versions Pages: 1 -->
<svg width="296pt" height="446pt"
 viewBox="0.00 0.00 296.00 446.00" xmlns="http://www.w3.org/2000/svg" xmlns:xlink="http://www.w3.org/1999/xlink">
<g id="graph0" class="graph" transform="scale(1 1) rotate(0) translate(4 442)">
<title>versions</title>
<polygon fill="#ffffff" stroke="transparent" points="-4,4 -4,-442 292,-442 292,4 -4,4"/>
<!-- versions -->
<g id="node1" class="node">
<title>versions</title>
<polygon fill="#efefef" stroke="transparent" points="46,-346 46,-392 242,-392 242,-346 46,-346"/>
<polygon fill="none" stroke="#000000" points="46,-346 46,-392 242,-392 242,-346 46,-346"/>
<text text-anchor="start" x="61.8706" y="-369.8" font-family="Arial Bold" font-size="18.00" fill="#000000">versions</text>
<text text-anchor="start" x="128.8756" y="-369.8" font-family="Arial" font-size="14.00" fill="#000000"> </text>
<text text-anchor="start" x="132.7662" y="-369.8" font-family="Arial" font-size="14.00" fill="#666666">[BASE TABLE]</text>
<text text-anchor="start" x="103.0458" y="-355.4" font-family="Arial" font-size="14.00" fill="#333333">バージョン</text>
<polygon fill="none" stroke="#000000" points="46,-316 46,-346 242,-346 242,-316 46,-316"/>
<text text-anchor="start" x="53" y="-327.4" font-family="Arial" font-size="14.00" fill="#000000">id </text>
<text text-anchor="start" x="67.7798" y="-327.4" font-family="Arial" font-size="14.00" fill="#666666">[int(11)]</text>
<polygon fill="none" stroke="#000000" points="46,-286 46,-316 242,-316 242,-286 46,-286"/>
<text text-anchor="start" x="53" y="-297.4" font-family="Arial" font-size="14.00" fill="#000000">project_id </text>
<text text-anchor="start" x="117.568" y="-297.4" font-family="Arial" font-size="14.00" fill="#666666">[int(11)]</text>
<polygon fill="none" stroke="#000000" points="46,-256 46,-286 242,-286 242,-256 46,-256"/>
<text text-anchor="start" x="53" y="-267.4" font-family="Arial" font-size="14.00" fill="#000000">name </text>
<text text-anchor="start" x="91.899" y="-267.4" font-family="Arial" font-size="14.00" fill="#666666">[varchar(255)]</text>
<polygon fill="none" stroke="#000000" points="46,-226 46,-256 242,-256 242,-226 46,-226"/>
<text text-anchor="start" x="53" y="-237.4" font-family="Arial" font-size="14.00" fill="#000000">description </text>
<text text-anchor="start" x="124.568" y="-237.4" font-family="Arial" font-size="14.00" fill="#666666">[varchar(255)]</text>
<polygon fill="none" stroke="#000000" points="46,-196 46,-226 242,-226 242,-196 46,-196"/>
<text text-anchor="start" x="53" y="-207.4" font-family="Arial" font-size="14.00" fill="#000000">effective_date </text>
<text text-anchor="start" x="144.0378" y="-207.4" font-family="Arial" font-size="14.00" fill="#666666">[date]</text>
<polygon fill="none" stroke="#000000" points="46,-166 46,-196 242,-196 242,-166 46,-166"/>
<text text-anchor="start" x="53" y="-177.4" font-family="Arial" font-size="14.00" fill="#000000">created_on </text>
<text text-anchor="start" x="126.92" y="-177.4" font-family="Arial" font-size="14.00" fill="#666666">[timestamp]</text>
<polygon fill="none" stroke="#000000" points="46,-136 46,-166 242,-166 242,-136 46,-136"/>
<text text-anchor="start" x="53" y="-147.4" font-family="Arial" font-size="14.00" fill="#000000">updated_on </text>
<text text-anchor="start" x="130.8246" y="-147.4" font-family="Arial" font-size="14.00" fill="#666666">[timestamp]</text>
<polygon fill="none" stroke="#000000" points="46,-106 46,-136 242,-136 242,-106 46,-106"/>
<text text-anchor="start" x="52.5989" y="-117.4" font-family="Arial" font-size="14.00" fill="#000000">wiki_page_title </text>
<text text-anchor="start" x="148.2819" y="-117.4" font-family="Arial" font-size="14.00" fill="#666666">[varchar(255)]</text>
<polygon fill="none" stroke="#000000" points="46,-76 46,-106 242,-106 242,-76 46,-76"/>
<text text-anchor="start" x="53" y="-87.4" font-family="Arial" font-size="14.00" fill="#000000">status </text>
<text text-anchor="start" x="94.237" y="-87.4" font-family="Arial" font-size="14.00" fill="#666666">[varchar(255)]</text>
<polygon fill="none" stroke="#000000" points="46,-46 46,-76 242,-76 242,-46 46,-46"/>
<text text-anchor="start" x="53" y="-57.4" font-family="Arial" font-size="14.00" fill="#000000">sharing </text>
<text text-anchor="start" x="102.7882" y="-57.4" font-family="Arial" font-size="14.00" fill="#666666">[varchar(255)]</text>
<polygon fill="none" stroke="#000000" stroke-width="3" points="44.5,-44.5 44.5,-393.5 243.5,-393.5 243.5,-44.5 44.5,-44.5"/>
</g>
</g>
</svg>
