<?xml version="1.0" encoding="UTF-8" standalone="no"?>
<!DOCTYPE svg PUBLIC "-//W3C//DTD SVG 1.1//EN"
 "http://www.w3.org/Graphics/SVG/1.1/DTD/svg11.dtd">
<!-- Generated by graphviz version 2.40.1 (20161225.0304)
 -->
<!-- Title: watchers Pages: 1 -->
<svg width="302pt" height="266pt"
 viewBox="0.00 0.00 302.00 266.00" xmlns="http://www.w3.org/2000/svg" xmlns:xlink="http://www.w3.org/1999/xlink">
<g id="graph0" class="graph" transform="scale(1 1) rotate(0) translate(4 262)">
<title>watchers</title>
<polygon fill="#ffffff" stroke="transparent" points="-4,4 -4,-262 298,-262 298,4 -4,4"/>
<!-- watchers -->
<g id="node1" class="node">
<title>watchers</title>
<polygon fill="#efefef" stroke="transparent" points="46,-166 46,-212 248,-212 248,-166 46,-166"/>
<polygon fill="none" stroke="#000000" points="46,-166 46,-212 248,-212 248,-166 46,-166"/>
<text text-anchor="start" x="62.3695" y="-189.8" font-family="Arial Bold" font-size="18.00" fill="#000000">watchers</text>
<text text-anchor="start" x="134.3767" y="-189.8" font-family="Arial" font-size="14.00" fill="#000000"> </text>
<text text-anchor="start" x="138.2673" y="-189.8" font-family="Arial" font-size="14.00" fill="#666666">[BASE TABLE]</text>
<text text-anchor="start" x="99.7829" y="-175.4" font-family="Arial" font-size="14.00" fill="#333333">ウォッチャー</text>
<polygon fill="none" stroke="#000000" points="46,-136 46,-166 248,-166 248,-136 46,-136"/>
<text text-anchor="start" x="53" y="-147.4" font-family="Arial" font-size="14.00" fill="#000000">id </text>
<text text-anchor="start" x="67.7798" y="-147.4" font-family="Arial" font-size="14.00" fill="#666666">[int(11)]</text>
<polygon fill="none" stroke="#000000" points="46,-106 46,-136 248,-136 248,-106 46,-106"/>
<text text-anchor="start" x="52.8675" y="-117.4" font-family="Arial" font-size="14.00" fill="#000000">watchable_type </text>
<text text-anchor="start" x="154.0133" y="-117.4" font-family="Arial" font-size="14.00" fill="#666666">[varchar(255)]</text>
<polygon fill="none" stroke="#000000" points="46,-76 46,-106 248,-106 248,-76 46,-76"/>
<text text-anchor="start" x="53" y="-87.4" font-family="Arial" font-size="14.00" fill="#000000">watchable_id </text>
<text text-anchor="start" x="138.5792" y="-87.4" font-family="Arial" font-size="14.00" fill="#666666">[int(11)]</text>
<polygon fill="none" stroke="#000000" points="46,-46 46,-76 248,-76 248,-46 46,-46"/>
<text text-anchor="start" x="53" y="-57.4" font-family="Arial" font-size="14.00" fill="#000000">user_id </text>
<text text-anchor="start" x="102.7882" y="-57.4" font-family="Arial" font-size="14.00" fill="#666666">[int(11)]</text>
<polygon fill="none" stroke="#000000" stroke-width="3" points="44.5,-44.5 44.5,-213.5 249.5,-213.5 249.5,-44.5 44.5,-44.5"/>
</g>
</g>
</svg>
