<?xml version="1.0" encoding="UTF-8" standalone="no"?>
<!DOCTYPE svg PUBLIC "-//W3C//DTD SVG 1.1//EN"
 "http://www.w3.org/Graphics/SVG/1.1/DTD/svg11.dtd">
<!-- Generated by graphviz version 2.40.1 (20161225.0304)
 -->
<!-- Title: changesets_issues Pages: 1 -->
<svg width="364pt" height="195pt"
 viewBox="0.00 0.00 364.00 195.00" xmlns="http://www.w3.org/2000/svg" xmlns:xlink="http://www.w3.org/1999/xlink">
<g id="graph0" class="graph" transform="scale(1 1) rotate(0) translate(4 191)">
<title>changesets_issues</title>
<polygon fill="#ffffff" stroke="transparent" points="-4,4 -4,-191 360,-191 360,4 -4,4"/>
<!-- changesets_issues -->
<g id="node1" class="node">
<title>changesets_issues</title>
<polygon fill="#efefef" stroke="transparent" points="46,-105.5 46,-140.5 310,-140.5 310,-105.5 46,-105.5"/>
<polygon fill="none" stroke="#000000" points="46,-105.5 46,-140.5 310,-140.5 310,-105.5 46,-105.5"/>
<text text-anchor="start" x="52.847" y="-118.3" font-family="Arial Bold" font-size="18.00" fill="#000000">changesets_issues</text>
<text text-anchor="start" x="205.8992" y="-118.3" font-family="Arial" font-size="14.00" fill="#000000"> </text>
<text text-anchor="start" x="209.7898" y="-118.3" font-family="Arial" font-size="14.00" fill="#666666">[BASE TABLE]</text>
<polygon fill="none" stroke="#000000" points="46,-75.5 46,-105.5 310,-105.5 310,-75.5 46,-75.5"/>
<text text-anchor="start" x="53" y="-86.9" font-family="Arial" font-size="14.00" fill="#000000">changeset_id </text>
<text text-anchor="start" x="140.1486" y="-86.9" font-family="Arial" font-size="14.00" fill="#666666">[int(11)]</text>
<polygon fill="none" stroke="#000000" points="46,-45.5 46,-75.5 310,-75.5 310,-45.5 46,-45.5"/>
<text text-anchor="start" x="53" y="-56.9" font-family="Arial" font-size="14.00" fill="#000000">issue_id </text>
<text text-anchor="start" x="108.2342" y="-56.9" font-family="Arial" font-size="14.00" fill="#666666">[int(11)]</text>
<polygon fill="none" stroke="#000000" stroke-width="3" points="44.5,-44.5 44.5,-142.5 311.5,-142.5 311.5,-44.5 44.5,-44.5"/>
</g>
</g>
</svg>
