<?xml version="1.0" encoding="UTF-8" standalone="no"?>
<!DOCTYPE svg PUBLIC "-//W3C//DTD SVG 1.1//EN"
 "http://www.w3.org/Graphics/SVG/1.1/DTD/svg11.dtd">
<!-- Generated by graphviz version 2.40.1 (20161225.0304)
 -->
<!-- Title: custom_fields_roles Pages: 1 -->
<svg width="648pt" height="944pt"
 viewBox="0.00 0.00 648.00 944.00" xmlns="http://www.w3.org/2000/svg" xmlns:xlink="http://www.w3.org/1999/xlink">
<g id="graph0" class="graph" transform="scale(1 1) rotate(0) translate(4 940)">
<title>custom_fields_roles</title>
<polygon fill="#ffffff" stroke="transparent" points="-4,4 -4,-940 644,-940 644,4 -4,4"/>
<!-- custom_fields_roles -->
<g id="node1" class="node">
<title>custom_fields_roles</title>
<polygon fill="#efefef" stroke="transparent" points="183.5,-844 183.5,-890 453.5,-890 453.5,-844 183.5,-844"/>
<polygon fill="none" stroke="#000000" points="183.5,-844 183.5,-890 453.5,-890 453.5,-844 183.5,-844"/>
<text text-anchor="start" x="190.3626" y="-867.8" font-family="Arial Bold" font-size="18.00" fill="#000000">custom_fields_roles</text>
<text text-anchor="start" x="349.3836" y="-867.8" font-family="Arial" font-size="14.00" fill="#000000"> </text>
<text text-anchor="start" x="353.2742" y="-867.8" font-family="Arial" font-size="14.00" fill="#666666">[BASE TABLE]</text>
<text text-anchor="start" x="213.9109" y="-853.4" font-family="Arial" font-size="14.00" fill="#333333">カスタムフィールド⇔ロール</text>
<polygon fill="none" stroke="#000000" points="183.5,-814 183.5,-844 453.5,-844 453.5,-814 183.5,-814"/>
<text text-anchor="start" x="190.5" y="-825.4" font-family="Arial" font-size="14.00" fill="#000000">custom_field_id </text>
<text text-anchor="start" x="291.6304" y="-825.4" font-family="Arial" font-size="14.00" fill="#666666">[int(11)]</text>
<polygon fill="none" stroke="#000000" points="183.5,-784 183.5,-814 453.5,-814 453.5,-784 183.5,-784"/>
<text text-anchor="start" x="190.5" y="-795.4" font-family="Arial" font-size="14.00" fill="#000000">role_id </text>
<text text-anchor="start" x="236.3948" y="-795.4" font-family="Arial" font-size="14.00" fill="#666666">[int(11)]</text>
<polygon fill="none" stroke="#000000" stroke-width="3" points="182,-782.5 182,-891.5 455,-891.5 455,-782.5 182,-782.5"/>
</g>
<!-- custom_fields -->
<g id="node2" class="node">
<title>custom_fields</title>
<polygon fill="#efefef" stroke="transparent" points="43.5,-613 43.5,-659 264.5,-659 264.5,-613 43.5,-613"/>
<polygon fill="none" stroke="#000000" points="43.5,-613 43.5,-659 264.5,-659 264.5,-613 43.5,-613"/>
<text text-anchor="start" x="50.3651" y="-636.8" font-family="Arial Bold" font-size="18.00" fill="#000000">custom_fields</text>
<text text-anchor="start" x="160.3811" y="-636.8" font-family="Arial" font-size="14.00" fill="#000000"> </text>
<text text-anchor="start" x="164.2717" y="-636.8" font-family="Arial" font-size="14.00" fill="#666666">[BASE TABLE]</text>
<text text-anchor="start" x="82.0722" y="-622.4" font-family="Arial" font-size="14.00" fill="#333333">カスタムフィールド</text>
<polygon fill="none" stroke="#000000" points="43.5,-583 43.5,-613 264.5,-613 264.5,-583 43.5,-583"/>
<text text-anchor="start" x="50.5" y="-594.4" font-family="Arial" font-size="14.00" fill="#000000">id </text>
<text text-anchor="start" x="65.2798" y="-594.4" font-family="Arial" font-size="14.00" fill="#666666">[int(11)]</text>
<polygon fill="none" stroke="#000000" points="43.5,-553 43.5,-583 264.5,-583 264.5,-553 43.5,-553"/>
<text text-anchor="start" x="50.5" y="-564.4" font-family="Arial" font-size="14.00" fill="#000000">type </text>
<text text-anchor="start" x="80.8464" y="-564.4" font-family="Arial" font-size="14.00" fill="#666666">[varchar(30)]</text>
<polygon fill="none" stroke="#000000" points="43.5,-523 43.5,-553 264.5,-553 264.5,-523 43.5,-523"/>
<text text-anchor="start" x="50.5" y="-534.4" font-family="Arial" font-size="14.00" fill="#000000">name </text>
<text text-anchor="start" x="89.399" y="-534.4" font-family="Arial" font-size="14.00" fill="#666666">[varchar(30)]</text>
<polygon fill="none" stroke="#000000" points="43.5,-493 43.5,-523 264.5,-523 264.5,-493 43.5,-493"/>
<text text-anchor="start" x="50.5" y="-504.4" font-family="Arial" font-size="14.00" fill="#000000">field_format </text>
<text text-anchor="start" x="127.5098" y="-504.4" font-family="Arial" font-size="14.00" fill="#666666">[varchar(30)]</text>
<polygon fill="none" stroke="#000000" points="43.5,-463 43.5,-493 264.5,-493 264.5,-463 43.5,-463"/>
<text text-anchor="start" x="50.5" y="-474.4" font-family="Arial" font-size="14.00" fill="#000000">possible_values </text>
<text text-anchor="start" x="153.9712" y="-474.4" font-family="Arial" font-size="14.00" fill="#666666">[text]</text>
<polygon fill="none" stroke="#000000" points="43.5,-433 43.5,-463 264.5,-463 264.5,-433 43.5,-433"/>
<text text-anchor="start" x="50.5" y="-444.4" font-family="Arial" font-size="14.00" fill="#000000">regexp </text>
<text text-anchor="start" x="97.1816" y="-444.4" font-family="Arial" font-size="14.00" fill="#666666">[varchar(255)]</text>
<polygon fill="none" stroke="#000000" points="43.5,-403 43.5,-433 264.5,-433 264.5,-403 43.5,-403"/>
<text text-anchor="start" x="50.5" y="-414.4" font-family="Arial" font-size="14.00" fill="#000000">min_length </text>
<text text-anchor="start" x="122.8506" y="-414.4" font-family="Arial" font-size="14.00" fill="#666666">[int(11)]</text>
<polygon fill="none" stroke="#000000" points="43.5,-373 43.5,-403 264.5,-403 264.5,-373 43.5,-373"/>
<text text-anchor="start" x="50.5" y="-384.4" font-family="Arial" font-size="14.00" fill="#000000">max_length </text>
<text text-anchor="start" x="126.744" y="-384.4" font-family="Arial" font-size="14.00" fill="#666666">[int(11)]</text>
<polygon fill="none" stroke="#000000" points="43.5,-343 43.5,-373 264.5,-373 264.5,-343 43.5,-343"/>
<text text-anchor="start" x="50.5" y="-354.4" font-family="Arial" font-size="14.00" fill="#000000">is_required </text>
<text text-anchor="start" x="123.6206" y="-354.4" font-family="Arial" font-size="14.00" fill="#666666">[tinyint(1)]</text>
<polygon fill="none" stroke="#000000" points="43.5,-313 43.5,-343 264.5,-343 264.5,-313 43.5,-313"/>
<text text-anchor="start" x="50.5" y="-324.4" font-family="Arial" font-size="14.00" fill="#000000">is_for_all </text>
<text text-anchor="start" x="110.392" y="-324.4" font-family="Arial" font-size="14.00" fill="#666666">[tinyint(1)]</text>
<polygon fill="none" stroke="#000000" points="43.5,-283 43.5,-313 264.5,-313 264.5,-283 43.5,-283"/>
<text text-anchor="start" x="50.5" y="-294.4" font-family="Arial" font-size="14.00" fill="#000000">is_filter </text>
<text text-anchor="start" x="98.7174" y="-294.4" font-family="Arial" font-size="14.00" fill="#666666">[tinyint(1)]</text>
<polygon fill="none" stroke="#000000" points="43.5,-253 43.5,-283 264.5,-283 264.5,-253 43.5,-253"/>
<text text-anchor="start" x="50.5" y="-264.4" font-family="Arial" font-size="14.00" fill="#000000">position </text>
<text text-anchor="start" x="102.6248" y="-264.4" font-family="Arial" font-size="14.00" fill="#666666">[int(11)]</text>
<polygon fill="none" stroke="#000000" points="43.5,-223 43.5,-253 264.5,-253 264.5,-223 43.5,-223"/>
<text text-anchor="start" x="50.5" y="-234.4" font-family="Arial" font-size="14.00" fill="#000000">searchable </text>
<text text-anchor="start" x="122.8534" y="-234.4" font-family="Arial" font-size="14.00" fill="#666666">[tinyint(1)]</text>
<polygon fill="none" stroke="#000000" points="43.5,-193 43.5,-223 264.5,-223 264.5,-193 43.5,-193"/>
<text text-anchor="start" x="50.5" y="-204.4" font-family="Arial" font-size="14.00" fill="#000000">default_value </text>
<text text-anchor="start" x="137.6458" y="-204.4" font-family="Arial" font-size="14.00" fill="#666666">[text]</text>
<polygon fill="none" stroke="#000000" points="43.5,-163 43.5,-193 264.5,-193 264.5,-163 43.5,-163"/>
<text text-anchor="start" x="50.5" y="-174.4" font-family="Arial" font-size="14.00" fill="#000000">editable </text>
<text text-anchor="start" x="103.4074" y="-174.4" font-family="Arial" font-size="14.00" fill="#666666">[tinyint(1)]</text>
<polygon fill="none" stroke="#000000" points="43.5,-133 43.5,-163 264.5,-163 264.5,-133 43.5,-133"/>
<text text-anchor="start" x="50.5" y="-144.4" font-family="Arial" font-size="14.00" fill="#000000">visible </text>
<text text-anchor="start" x="93.2756" y="-144.4" font-family="Arial" font-size="14.00" fill="#666666">[tinyint(1)]</text>
<polygon fill="none" stroke="#000000" points="43.5,-103 43.5,-133 264.5,-133 264.5,-103 43.5,-103"/>
<text text-anchor="start" x="50.5" y="-114.4" font-family="Arial" font-size="14.00" fill="#000000">multiple </text>
<text text-anchor="start" x="102.6094" y="-114.4" font-family="Arial" font-size="14.00" fill="#666666">[tinyint(1)]</text>
<polygon fill="none" stroke="#000000" points="43.5,-73 43.5,-103 264.5,-103 264.5,-73 43.5,-73"/>
<text text-anchor="start" x="50.5" y="-84.4" font-family="Arial" font-size="14.00" fill="#000000">format_store </text>
<text text-anchor="start" x="132.9572" y="-84.4" font-family="Arial" font-size="14.00" fill="#666666">[text]</text>
<polygon fill="none" stroke="#000000" points="43.5,-43 43.5,-73 264.5,-73 264.5,-43 43.5,-43"/>
<text text-anchor="start" x="50.5" y="-54.4" font-family="Arial" font-size="14.00" fill="#000000">description </text>
<text text-anchor="start" x="122.068" y="-54.4" font-family="Arial" font-size="14.00" fill="#666666">[text]</text>
</g>
<!-- custom_fields_roles&#45;&gt;custom_fields -->
<g id="edge1" class="edge">
<title>custom_fields_roles:custom_field_id&#45;&gt;custom_fields:id</title>
<path fill="none" stroke="#000000" stroke-dasharray="5,2" d="M173.2833,-827.4415C146.6851,-818.0711 163.6135,-768.6006 183.5,-738 204.9671,-704.9672 243.0329,-735.0328 264.5,-702 289.6871,-663.243 310.7222,-598 264.5,-598"/>
<polygon fill="#000000" stroke="#000000" points="173.6144,-827.4919 182.8213,-833.4485 178.5572,-828.2459 183.5,-829 183.5,-829 183.5,-829 178.5572,-828.2459 184.1787,-824.5515 173.6144,-827.4919 173.6144,-827.4919"/>
<text text-anchor="start" x="93.8245" y="-839" font-family="Arial" font-size="10.00" fill="#000000">Additional Relation</text>
</g>
<!-- roles -->
<g id="node3" class="node">
<title>roles</title>
<polygon fill="#efefef" stroke="transparent" points="368.5,-493 368.5,-539 597.5,-539 597.5,-493 368.5,-493"/>
<polygon fill="none" stroke="#000000" points="368.5,-493 368.5,-539 597.5,-539 597.5,-493 368.5,-493"/>
<text text-anchor="start" x="414.8737" y="-516.8" font-family="Arial Bold" font-size="18.00" fill="#000000">roles</text>
<text text-anchor="start" x="453.8725" y="-516.8" font-family="Arial" font-size="14.00" fill="#000000"> </text>
<text text-anchor="start" x="457.7631" y="-516.8" font-family="Arial" font-size="14.00" fill="#666666">[BASE TABLE]</text>
<text text-anchor="start" x="456.1746" y="-502.4" font-family="Arial" font-size="14.00" fill="#333333">ロール</text>
<polygon fill="none" stroke="#000000" points="368.5,-463 368.5,-493 597.5,-493 597.5,-463 368.5,-463"/>
<text text-anchor="start" x="375.5" y="-474.4" font-family="Arial" font-size="14.00" fill="#000000">id </text>
<text text-anchor="start" x="390.2798" y="-474.4" font-family="Arial" font-size="14.00" fill="#666666">[int(11)]</text>
<polygon fill="none" stroke="#000000" points="368.5,-433 368.5,-463 597.5,-463 597.5,-433 368.5,-433"/>
<text text-anchor="start" x="375.5" y="-444.4" font-family="Arial" font-size="14.00" fill="#000000">name </text>
<text text-anchor="start" x="414.399" y="-444.4" font-family="Arial" font-size="14.00" fill="#666666">[varchar(255)]</text>
<polygon fill="none" stroke="#000000" points="368.5,-403 368.5,-433 597.5,-433 597.5,-403 368.5,-403"/>
<text text-anchor="start" x="375.5" y="-414.4" font-family="Arial" font-size="14.00" fill="#000000">position </text>
<text text-anchor="start" x="427.6248" y="-414.4" font-family="Arial" font-size="14.00" fill="#666666">[int(11)]</text>
<polygon fill="none" stroke="#000000" points="368.5,-373 368.5,-403 597.5,-403 597.5,-373 368.5,-373"/>
<text text-anchor="start" x="375.5" y="-384.4" font-family="Arial" font-size="14.00" fill="#000000">assignable </text>
<text text-anchor="start" x="446.2994" y="-384.4" font-family="Arial" font-size="14.00" fill="#666666">[tinyint(1)]</text>
<polygon fill="none" stroke="#000000" points="368.5,-343 368.5,-373 597.5,-373 597.5,-343 368.5,-343"/>
<text text-anchor="start" x="375.5" y="-354.4" font-family="Arial" font-size="14.00" fill="#000000">builtin </text>
<text text-anchor="start" x="415.9488" y="-354.4" font-family="Arial" font-size="14.00" fill="#666666">[int(11)]</text>
<polygon fill="none" stroke="#000000" points="368.5,-313 368.5,-343 597.5,-343 597.5,-313 368.5,-313"/>
<text text-anchor="start" x="375.5" y="-324.4" font-family="Arial" font-size="14.00" fill="#000000">permissions </text>
<text text-anchor="start" x="454.0554" y="-324.4" font-family="Arial" font-size="14.00" fill="#666666">[text]</text>
<polygon fill="none" stroke="#000000" points="368.5,-283 368.5,-313 597.5,-313 597.5,-283 368.5,-283"/>
<text text-anchor="start" x="375.5" y="-294.4" font-family="Arial" font-size="14.00" fill="#000000">issues_visibility </text>
<text text-anchor="start" x="475.0512" y="-294.4" font-family="Arial" font-size="14.00" fill="#666666">[varchar(30)]</text>
<polygon fill="none" stroke="#000000" points="368.5,-253 368.5,-283 597.5,-283 597.5,-253 368.5,-253"/>
<text text-anchor="start" x="375.5" y="-264.4" font-family="Arial" font-size="14.00" fill="#000000">users_visibility </text>
<text text-anchor="start" x="469.6052" y="-264.4" font-family="Arial" font-size="14.00" fill="#666666">[varchar(30)]</text>
<polygon fill="none" stroke="#000000" points="368.5,-223 368.5,-253 597.5,-253 597.5,-223 368.5,-223"/>
<text text-anchor="start" x="375.2777" y="-234.4" font-family="Arial" font-size="14.00" fill="#000000">time_entries_visibility </text>
<text text-anchor="start" x="511.3857" y="-234.4" font-family="Arial" font-size="14.00" fill="#666666">[varchar(30)]</text>
<polygon fill="none" stroke="#000000" points="368.5,-193 368.5,-223 597.5,-223 597.5,-193 368.5,-193"/>
<text text-anchor="start" x="375.5" y="-204.4" font-family="Arial" font-size="14.00" fill="#000000">all_roles_managed </text>
<text text-anchor="start" x="497.6402" y="-204.4" font-family="Arial" font-size="14.00" fill="#666666">[tinyint(1)]</text>
<polygon fill="none" stroke="#000000" points="368.5,-163 368.5,-193 597.5,-193 597.5,-163 368.5,-163"/>
<text text-anchor="start" x="375.5" y="-174.4" font-family="Arial" font-size="14.00" fill="#000000">settings </text>
<text text-anchor="start" x="427.6262" y="-174.4" font-family="Arial" font-size="14.00" fill="#666666">[text]</text>
</g>
<!-- custom_fields_roles&#45;&gt;roles -->
<g id="edge2" class="edge">
<title>custom_fields_roles:role_id&#45;&gt;roles:id</title>
<path fill="none" stroke="#000000" stroke-dasharray="5,2" d="M463.2763,-796.3864C474.2808,-787.8325 459.0949,-759.9617 453.5,-738 434.0078,-661.4864 387.9922,-658.5136 368.5,-582 357.0891,-537.2084 322.2778,-478 368.5,-478"/>
<polygon fill="#000000" stroke="#000000" points="463.1607,-796.4172 452.3378,-794.6527 458.3304,-797.7086 453.5,-799 453.5,-799 453.5,-799 458.3304,-797.7086 454.6622,-803.3473 463.1607,-796.4172 463.1607,-796.4172"/>
<text text-anchor="start" x="460.8245" y="-809" font-family="Arial" font-size="10.00" fill="#000000">Additional Relation</text>
</g>
</g>
</svg>
