<?xml version="1.0" encoding="UTF-8" standalone="no"?>
<!DOCTYPE svg PUBLIC "-//W3C//DTD SVG 1.1//EN"
 "http://www.w3.org/Graphics/SVG/1.1/DTD/svg11.dtd">
<!-- Generated by graphviz version 2.40.1 (20161225.0304)
 -->
<!-- Title: issue_relations Pages: 1 -->
<svg width="414pt" height="1184pt"
 viewBox="0.00 0.00 413.50 1184.00" xmlns="http://www.w3.org/2000/svg" xmlns:xlink="http://www.w3.org/1999/xlink">
<g id="graph0" class="graph" transform="scale(1 1) rotate(0) translate(4 1180)">
<title>issue_relations</title>
<polygon fill="#ffffff" stroke="transparent" points="-4,4 -4,-1180 409.5,-1180 409.5,4 -4,4"/>
<!-- issue_relations -->
<g id="node1" class="node">
<title>issue_relations</title>
<polygon fill="#efefef" stroke="transparent" points="97,-1084 97,-1130 328,-1130 328,-1084 97,-1084"/>
<polygon fill="none" stroke="#000000" points="97,-1084 97,-1130 328,-1130 328,-1084 97,-1084"/>
<text text-anchor="start" x="103.8629" y="-1107.8" font-family="Arial Bold" font-size="18.00" fill="#000000">issue_relations</text>
<text text-anchor="start" x="223.8833" y="-1107.8" font-family="Arial" font-size="14.00" fill="#000000"> </text>
<text text-anchor="start" x="227.7739" y="-1107.8" font-family="Arial" font-size="14.00" fill="#666666">[BASE TABLE]</text>
<text text-anchor="start" x="162.0706" y="-1093.4" font-family="Arial" font-size="14.00" fill="#333333">関連チケット</text>
<polygon fill="none" stroke="#000000" points="97,-1054 97,-1084 328,-1084 328,-1054 97,-1054"/>
<text text-anchor="start" x="104" y="-1065.4" font-family="Arial" font-size="14.00" fill="#000000">id </text>
<text text-anchor="start" x="118.7798" y="-1065.4" font-family="Arial" font-size="14.00" fill="#666666">[int(11)]</text>
<polygon fill="none" stroke="#000000" points="97,-1024 97,-1054 328,-1054 328,-1024 97,-1024"/>
<text text-anchor="start" x="104" y="-1035.4" font-family="Arial" font-size="14.00" fill="#000000">issue_from_id </text>
<text text-anchor="start" x="195.0112" y="-1035.4" font-family="Arial" font-size="14.00" fill="#666666">[int(11)]</text>
<polygon fill="none" stroke="#000000" points="97,-994 97,-1024 328,-1024 328,-994 97,-994"/>
<text text-anchor="start" x="104" y="-1005.4" font-family="Arial" font-size="14.00" fill="#000000">issue_to_id </text>
<text text-anchor="start" x="178.69" y="-1005.4" font-family="Arial" font-size="14.00" fill="#666666">[int(11)]</text>
<polygon fill="none" stroke="#000000" points="97,-964 97,-994 328,-994 328,-964 97,-964"/>
<text text-anchor="start" x="104" y="-975.4" font-family="Arial" font-size="14.00" fill="#000000">relation_type </text>
<text text-anchor="start" x="188.0238" y="-975.4" font-family="Arial" font-size="14.00" fill="#666666">[varchar(255)]</text>
<polygon fill="none" stroke="#000000" points="97,-934 97,-964 328,-964 328,-934 97,-934"/>
<text text-anchor="start" x="104" y="-945.4" font-family="Arial" font-size="14.00" fill="#000000">delay </text>
<text text-anchor="start" x="141.345" y="-945.4" font-family="Arial" font-size="14.00" fill="#666666">[int(11)]</text>
<polygon fill="none" stroke="#000000" stroke-width="3" points="95,-932.5 95,-1131.5 329,-1131.5 329,-932.5 95,-932.5"/>
</g>
<!-- issues -->
<g id="node2" class="node">
<title>issues</title>
<polygon fill="#efefef" stroke="transparent" points="62,-763 62,-809 363,-809 363,-763 62,-763"/>
<polygon fill="none" stroke="#000000" points="62,-763 62,-809 363,-809 363,-763 62,-763"/>
<text text-anchor="start" x="138.3698" y="-786.8" font-family="Arial Bold" font-size="18.00" fill="#000000">issues</text>
<text text-anchor="start" x="189.3764" y="-786.8" font-family="Arial" font-size="14.00" fill="#000000"> </text>
<text text-anchor="start" x="193.267" y="-786.8" font-family="Arial" font-size="14.00" fill="#666666">[BASE TABLE]</text>
<text text-anchor="start" x="184.6344" y="-772.4" font-family="Arial" font-size="14.00" fill="#333333">チケット</text>
<polygon fill="none" stroke="#000000" points="62,-733 62,-763 363,-763 363,-733 62,-733"/>
<text text-anchor="start" x="69" y="-744.4" font-family="Arial" font-size="14.00" fill="#000000">id </text>
<text text-anchor="start" x="83.7798" y="-744.4" font-family="Arial" font-size="14.00" fill="#666666">[int(11)]</text>
<polygon fill="none" stroke="#000000" points="62,-703 62,-733 363,-733 363,-703 62,-703"/>
<text text-anchor="start" x="69" y="-714.4" font-family="Arial" font-size="14.00" fill="#000000">tracker_id </text>
<text text-anchor="start" x="134.3394" y="-714.4" font-family="Arial" font-size="14.00" fill="#666666">[int(11)]</text>
<text text-anchor="start" x="181.7868" y="-714.4" font-family="Arial" font-size="14.00" fill="#000000"> トラッカーID</text>
<polygon fill="none" stroke="#000000" points="62,-673 62,-703 363,-703 363,-673 62,-673"/>
<text text-anchor="start" x="69" y="-684.4" font-family="Arial" font-size="14.00" fill="#000000">project_id </text>
<text text-anchor="start" x="133.568" y="-684.4" font-family="Arial" font-size="14.00" fill="#666666">[int(11)]</text>
<text text-anchor="start" x="181.0154" y="-684.4" font-family="Arial" font-size="14.00" fill="#000000"> プロジェクトID</text>
<polygon fill="none" stroke="#000000" points="62,-643 62,-673 363,-673 363,-643 62,-643"/>
<text text-anchor="start" x="69" y="-654.4" font-family="Arial" font-size="14.00" fill="#000000">subject </text>
<text text-anchor="start" x="117.2356" y="-654.4" font-family="Arial" font-size="14.00" fill="#666666">[varchar(255)]</text>
<text text-anchor="start" x="204.3548" y="-654.4" font-family="Arial" font-size="14.00" fill="#000000"> 題名</text>
<polygon fill="none" stroke="#000000" points="62,-613 62,-643 363,-643 363,-613 62,-613"/>
<text text-anchor="start" x="69" y="-624.4" font-family="Arial" font-size="14.00" fill="#000000">description </text>
<text text-anchor="start" x="140.568" y="-624.4" font-family="Arial" font-size="14.00" fill="#666666">[longtext]</text>
<text text-anchor="start" x="197.3674" y="-624.4" font-family="Arial" font-size="14.00" fill="#000000"> 説明</text>
<polygon fill="none" stroke="#000000" points="62,-583 62,-613 363,-613 363,-583 62,-583"/>
<text text-anchor="start" x="69" y="-594.4" font-family="Arial" font-size="14.00" fill="#000000">due_date </text>
<text text-anchor="start" x="131.2594" y="-594.4" font-family="Arial" font-size="14.00" fill="#666666">[date]</text>
<text text-anchor="start" x="166.279" y="-594.4" font-family="Arial" font-size="14.00" fill="#000000"> 期日</text>
<polygon fill="none" stroke="#000000" points="62,-553 62,-583 363,-583 363,-553 62,-553"/>
<text text-anchor="start" x="69" y="-564.4" font-family="Arial" font-size="14.00" fill="#000000">category_id </text>
<text text-anchor="start" x="145.244" y="-564.4" font-family="Arial" font-size="14.00" fill="#666666">[int(11)]</text>
<text text-anchor="start" x="192.6914" y="-564.4" font-family="Arial" font-size="14.00" fill="#000000"> カテゴリーID</text>
<polygon fill="none" stroke="#000000" points="62,-523 62,-553 363,-553 363,-523 62,-523"/>
<text text-anchor="start" x="69" y="-534.4" font-family="Arial" font-size="14.00" fill="#000000">status_id </text>
<text text-anchor="start" x="128.9088" y="-534.4" font-family="Arial" font-size="14.00" fill="#666666">[int(11)]</text>
<text text-anchor="start" x="176.3562" y="-534.4" font-family="Arial" font-size="14.00" fill="#000000"> ステータスID</text>
<polygon fill="none" stroke="#000000" points="62,-493 62,-523 363,-523 363,-493 62,-493"/>
<text text-anchor="start" x="69" y="-504.4" font-family="Arial" font-size="14.00" fill="#000000">assigned_to_id </text>
<text text-anchor="start" x="167.0378" y="-504.4" font-family="Arial" font-size="14.00" fill="#666666">[int(11)]</text>
<text text-anchor="start" x="214.4852" y="-504.4" font-family="Arial" font-size="14.00" fill="#000000"> 担当者ID</text>
<polygon fill="none" stroke="#000000" points="62,-463 62,-493 363,-493 363,-463 62,-463"/>
<text text-anchor="start" x="69" y="-474.4" font-family="Arial" font-size="14.00" fill="#000000">priority_id </text>
<text text-anchor="start" x="133.5526" y="-474.4" font-family="Arial" font-size="14.00" fill="#666666">[int(11)]</text>
<text text-anchor="start" x="181" y="-474.4" font-family="Arial" font-size="14.00" fill="#000000"> 優先度ID</text>
<polygon fill="none" stroke="#000000" points="62,-433 62,-463 363,-463 363,-433 62,-433"/>
<text text-anchor="start" x="68.8635" y="-444.4" font-family="Arial" font-size="14.00" fill="#000000">fixed_version_id </text>
<text text-anchor="start" x="173.8859" y="-444.4" font-family="Arial" font-size="14.00" fill="#666666">[int(11)]</text>
<text text-anchor="start" x="221.3333" y="-444.4" font-family="Arial" font-size="14.00" fill="#000000"> 対象バージョンID</text>
<polygon fill="none" stroke="#000000" points="62,-403 62,-433 363,-433 363,-403 62,-403"/>
<text text-anchor="start" x="69" y="-414.4" font-family="Arial" font-size="14.00" fill="#000000">author_id </text>
<text text-anchor="start" x="131.244" y="-414.4" font-family="Arial" font-size="14.00" fill="#666666">[int(11)]</text>
<text text-anchor="start" x="178.6914" y="-414.4" font-family="Arial" font-size="14.00" fill="#000000"> 登録者ID</text>
<polygon fill="none" stroke="#000000" points="62,-373 62,-403 363,-403 363,-373 62,-373"/>
<text text-anchor="start" x="69" y="-384.4" font-family="Arial" font-size="14.00" fill="#000000">lock_version </text>
<text text-anchor="start" x="150.6774" y="-384.4" font-family="Arial" font-size="14.00" fill="#666666">[int(11)]</text>
<text text-anchor="start" x="198.1248" y="-384.4" font-family="Arial" font-size="14.00" fill="#000000"> ロックバージョン</text>
<polygon fill="none" stroke="#000000" points="62,-343 62,-373 363,-373 363,-343 62,-343"/>
<text text-anchor="start" x="69" y="-354.4" font-family="Arial" font-size="14.00" fill="#000000">created_on </text>
<text text-anchor="start" x="142.92" y="-354.4" font-family="Arial" font-size="14.00" fill="#666666">[timestamp]</text>
<polygon fill="none" stroke="#000000" points="62,-313 62,-343 363,-343 363,-313 62,-313"/>
<text text-anchor="start" x="69" y="-324.4" font-family="Arial" font-size="14.00" fill="#000000">updated_on </text>
<text text-anchor="start" x="146.8246" y="-324.4" font-family="Arial" font-size="14.00" fill="#666666">[timestamp]</text>
<polygon fill="none" stroke="#000000" points="62,-283 62,-313 363,-313 363,-283 62,-283"/>
<text text-anchor="start" x="69" y="-294.4" font-family="Arial" font-size="14.00" fill="#000000">start_date </text>
<text text-anchor="start" x="135.136" y="-294.4" font-family="Arial" font-size="14.00" fill="#666666">[date]</text>
<text text-anchor="start" x="170.1556" y="-294.4" font-family="Arial" font-size="14.00" fill="#000000"> 開始日</text>
<polygon fill="none" stroke="#000000" points="62,-253 62,-283 363,-283 363,-253 62,-253"/>
<text text-anchor="start" x="69" y="-264.4" font-family="Arial" font-size="14.00" fill="#000000">done_ratio </text>
<text text-anchor="start" x="139.0266" y="-264.4" font-family="Arial" font-size="14.00" fill="#666666">[int(11)]</text>
<text text-anchor="start" x="186.474" y="-264.4" font-family="Arial" font-size="14.00" fill="#000000"> 進捗率</text>
<polygon fill="none" stroke="#000000" points="62,-223 62,-253 363,-253 363,-223 62,-223"/>
<text text-anchor="start" x="69" y="-234.4" font-family="Arial" font-size="14.00" fill="#000000">estimated_hours </text>
<text text-anchor="start" x="176.3604" y="-234.4" font-family="Arial" font-size="14.00" fill="#666666">[float]</text>
<text text-anchor="start" x="210.5946" y="-234.4" font-family="Arial" font-size="14.00" fill="#000000"> 予定工数</text>
<polygon fill="none" stroke="#000000" points="62,-193 62,-223 363,-223 363,-193 62,-193"/>
<text text-anchor="start" x="69" y="-204.4" font-family="Arial" font-size="14.00" fill="#000000">parent_id </text>
<text text-anchor="start" x="131.244" y="-204.4" font-family="Arial" font-size="14.00" fill="#666666">[int(11)]</text>
<text text-anchor="start" x="178.6914" y="-204.4" font-family="Arial" font-size="14.00" fill="#000000"> 親チケット</text>
<polygon fill="none" stroke="#000000" points="62,-163 62,-193 363,-193 363,-163 62,-163"/>
<text text-anchor="start" x="69" y="-174.4" font-family="Arial" font-size="14.00" fill="#000000">root_id </text>
<text text-anchor="start" x="115.6788" y="-174.4" font-family="Arial" font-size="14.00" fill="#666666">[int(11)]</text>
<text text-anchor="start" x="163.1262" y="-174.4" font-family="Arial" font-size="14.00" fill="#000000"> ルートID</text>
<polygon fill="none" stroke="#000000" points="62,-133 62,-163 363,-163 363,-133 62,-133"/>
<text text-anchor="start" x="69" y="-144.4" font-family="Arial" font-size="14.00" fill="#000000">lft </text>
<text text-anchor="start" x="83.7784" y="-144.4" font-family="Arial" font-size="14.00" fill="#666666">[int(11)]</text>
<text text-anchor="start" x="131.2258" y="-144.4" font-family="Arial" font-size="14.00" fill="#000000"> 左ノードポインタ</text>
<polygon fill="none" stroke="#000000" points="62,-103 62,-133 363,-133 363,-103 62,-103"/>
<text text-anchor="start" x="69" y="-114.4" font-family="Arial" font-size="14.00" fill="#000000">rgt </text>
<text text-anchor="start" x="89.2244" y="-114.4" font-family="Arial" font-size="14.00" fill="#666666">[int(11)]</text>
<text text-anchor="start" x="136.6718" y="-114.4" font-family="Arial" font-size="14.00" fill="#000000"> 右ノードポインタ</text>
<polygon fill="none" stroke="#000000" points="62,-73 62,-103 363,-103 363,-73 62,-73"/>
<text text-anchor="start" x="69" y="-84.4" font-family="Arial" font-size="14.00" fill="#000000">is_private </text>
<text text-anchor="start" x="132.7854" y="-84.4" font-family="Arial" font-size="14.00" fill="#666666">[tinyint(1)]</text>
<text text-anchor="start" x="194.23" y="-84.4" font-family="Arial" font-size="14.00" fill="#000000"> プライベート</text>
<polygon fill="none" stroke="#000000" points="62,-43 62,-73 363,-73 363,-43 62,-43"/>
<text text-anchor="start" x="69" y="-54.4" font-family="Arial" font-size="14.00" fill="#000000">closed_on </text>
<text text-anchor="start" x="136.6928" y="-54.4" font-family="Arial" font-size="14.00" fill="#666666">[datetime]</text>
<text text-anchor="start" x="198.1528" y="-54.4" font-family="Arial" font-size="14.00" fill="#000000"> 完了日時</text>
</g>
<!-- issue_relations&#45;&gt;issues -->
<g id="edge1" class="edge">
<title>issue_relations:issue_from_id&#45;&gt;issues:id</title>
<path fill="none" stroke="#000000" stroke-dasharray="5,2" d="M86.9575,-1036.6576C28.4543,-1009.1178 .302,-748 62,-748"/>
<polygon fill="#000000" stroke="#000000" points="87.2614,-1036.7284 95.9778,-1043.3824 92.1307,-1037.8642 97,-1039 97,-1039 97,-1039 92.1307,-1037.8642 98.0222,-1034.6176 87.2614,-1036.7284 87.2614,-1036.7284"/>
<text text-anchor="start" x="7.3245" y="-1049" font-family="Arial" font-size="10.00" fill="#000000">Additional Relation</text>
</g>
<!-- issue_relations&#45;&gt;issues -->
<g id="edge2" class="edge">
<title>issue_relations:issue_to_id&#45;&gt;issues:id</title>
<path fill="none" stroke="#000000" stroke-dasharray="5,2" d="M87.2954,-1006.5829C34.816,-980.2709 6.7954,-748 62,-748"/>
<polygon fill="#000000" stroke="#000000" points="87.2965,-1006.5831 95.9124,-1013.3666 92.1482,-1007.7915 97,-1009 97,-1009 97,-1009 92.1482,-1007.7915 98.0876,-1004.6334 87.2965,-1006.5831 87.2965,-1006.5831"/>
<text text-anchor="start" x="7.3245" y="-1019" font-family="Arial" font-size="10.00" fill="#000000">Additional Relation</text>
</g>
</g>
</svg>
