<?xml version="1.0" encoding="UTF-8" standalone="no"?>
<!DOCTYPE svg PUBLIC "-//W3C//DTD SVG 1.1//EN"
 "http://www.w3.org/Graphics/SVG/1.1/DTD/svg11.dtd">
<!-- Generated by graphviz version 2.40.1 (20161225.0304)
 -->
<!-- Title: queries Pages: 1 -->
<svg width="396pt" height="1341pt"
 viewBox="0.00 0.00 396.00 1341.00" xmlns="http://www.w3.org/2000/svg" xmlns:xlink="http://www.w3.org/1999/xlink">
<g id="graph0" class="graph" transform="scale(1 1) rotate(0) translate(4 1337)">
<title>queries</title>
<polygon fill="#ffffff" stroke="transparent" points="-4,4 -4,-1337 392,-1337 392,4 -4,4"/>
<!-- queries -->
<g id="node1" class="node">
<title>queries</title>
<polygon fill="#efefef" stroke="transparent" points="97,-1024 97,-1070 267,-1070 267,-1024 97,-1024"/>
<polygon fill="none" stroke="#000000" points="97,-1024 97,-1070 267,-1070 267,-1024 97,-1024"/>
<text text-anchor="start" x="103.8675" y="-1047.8" font-family="Arial Bold" font-size="18.00" fill="#000000">queries</text>
<text text-anchor="start" x="162.8787" y="-1047.8" font-family="Arial" font-size="14.00" fill="#000000"> </text>
<text text-anchor="start" x="166.7693" y="-1047.8" font-family="Arial" font-size="14.00" fill="#666666">[BASE TABLE]</text>
<text text-anchor="start" x="128.093" y="-1033.4" font-family="Arial" font-size="14.00" fill="#333333">カスタムクエリ</text>
<polygon fill="none" stroke="#000000" points="97,-994 97,-1024 267,-1024 267,-994 97,-994"/>
<text text-anchor="start" x="104" y="-1005.4" font-family="Arial" font-size="14.00" fill="#000000">id </text>
<text text-anchor="start" x="118.7798" y="-1005.4" font-family="Arial" font-size="14.00" fill="#666666">[int(11)]</text>
<polygon fill="none" stroke="#000000" points="97,-964 97,-994 267,-994 267,-964 97,-964"/>
<text text-anchor="start" x="104" y="-975.4" font-family="Arial" font-size="14.00" fill="#000000">project_id </text>
<text text-anchor="start" x="168.568" y="-975.4" font-family="Arial" font-size="14.00" fill="#666666">[int(11)]</text>
<polygon fill="none" stroke="#000000" points="97,-934 97,-964 267,-964 267,-934 97,-934"/>
<text text-anchor="start" x="104" y="-945.4" font-family="Arial" font-size="14.00" fill="#000000">name </text>
<text text-anchor="start" x="142.899" y="-945.4" font-family="Arial" font-size="14.00" fill="#666666">[varchar(255)]</text>
<polygon fill="none" stroke="#000000" points="97,-904 97,-934 267,-934 267,-904 97,-904"/>
<text text-anchor="start" x="104" y="-915.4" font-family="Arial" font-size="14.00" fill="#000000">filters </text>
<text text-anchor="start" x="141.3282" y="-915.4" font-family="Arial" font-size="14.00" fill="#666666">[text]</text>
<polygon fill="none" stroke="#000000" points="97,-874 97,-904 267,-904 267,-874 97,-874"/>
<text text-anchor="start" x="104" y="-885.4" font-family="Arial" font-size="14.00" fill="#000000">user_id </text>
<text text-anchor="start" x="153.7882" y="-885.4" font-family="Arial" font-size="14.00" fill="#666666">[int(11)]</text>
<polygon fill="none" stroke="#000000" points="97,-844 97,-874 267,-874 267,-844 97,-844"/>
<text text-anchor="start" x="104" y="-855.4" font-family="Arial" font-size="14.00" fill="#000000">column_names </text>
<text text-anchor="start" x="202.7966" y="-855.4" font-family="Arial" font-size="14.00" fill="#666666">[text]</text>
<polygon fill="none" stroke="#000000" points="97,-814 97,-844 267,-844 267,-814 97,-814"/>
<text text-anchor="start" x="104" y="-825.4" font-family="Arial" font-size="14.00" fill="#000000">sort_criteria </text>
<text text-anchor="start" x="180.9972" y="-825.4" font-family="Arial" font-size="14.00" fill="#666666">[text]</text>
<polygon fill="none" stroke="#000000" points="97,-784 97,-814 267,-814 267,-784 97,-784"/>
<text text-anchor="start" x="104" y="-795.4" font-family="Arial" font-size="14.00" fill="#000000">group_by </text>
<text text-anchor="start" x="166.2468" y="-795.4" font-family="Arial" font-size="14.00" fill="#666666">[varchar(255)]</text>
<polygon fill="none" stroke="#000000" points="97,-754 97,-784 267,-784 267,-754 97,-754"/>
<text text-anchor="start" x="104" y="-765.4" font-family="Arial" font-size="14.00" fill="#000000">type </text>
<text text-anchor="start" x="134.3464" y="-765.4" font-family="Arial" font-size="14.00" fill="#666666">[varchar(255)]</text>
<polygon fill="none" stroke="#000000" points="97,-724 97,-754 267,-754 267,-724 97,-724"/>
<text text-anchor="start" x="104" y="-735.4" font-family="Arial" font-size="14.00" fill="#000000">visibility </text>
<text text-anchor="start" x="156.0968" y="-735.4" font-family="Arial" font-size="14.00" fill="#666666">[int(11)]</text>
<polygon fill="none" stroke="#000000" points="97,-694 97,-724 267,-724 267,-694 97,-694"/>
<text text-anchor="start" x="104" y="-705.4" font-family="Arial" font-size="14.00" fill="#000000">options </text>
<text text-anchor="start" x="153.0182" y="-705.4" font-family="Arial" font-size="14.00" fill="#666666">[text]</text>
<polygon fill="none" stroke="#000000" stroke-width="3" points="95.5,-692.5 95.5,-1071.5 268.5,-1071.5 268.5,-692.5 95.5,-692.5"/>
</g>
<!-- projects -->
<g id="node3" class="node">
<title>projects</title>
<polygon fill="#efefef" stroke="transparent" points="77,-523 77,-569 286,-569 286,-523 77,-523"/>
<polygon fill="none" stroke="#000000" points="77,-523 77,-569 286,-569 286,-523 77,-523"/>
<text text-anchor="start" x="101.3695" y="-546.8" font-family="Arial Bold" font-size="18.00" fill="#000000">projects</text>
<text text-anchor="start" x="164.3767" y="-546.8" font-family="Arial" font-size="14.00" fill="#000000"> </text>
<text text-anchor="start" x="168.2673" y="-546.8" font-family="Arial" font-size="14.00" fill="#666666">[BASE TABLE]</text>
<text text-anchor="start" x="139.1269" y="-532.4" font-family="Arial" font-size="14.00" fill="#333333">プロジェクト</text>
<polygon fill="none" stroke="#000000" points="77,-493 77,-523 286,-523 286,-493 77,-493"/>
<text text-anchor="start" x="84" y="-504.4" font-family="Arial" font-size="14.00" fill="#000000">id </text>
<text text-anchor="start" x="98.7798" y="-504.4" font-family="Arial" font-size="14.00" fill="#666666">[int(11)]</text>
<polygon fill="none" stroke="#000000" points="77,-463 77,-493 286,-493 286,-463 77,-463"/>
<text text-anchor="start" x="84" y="-474.4" font-family="Arial" font-size="14.00" fill="#000000">name </text>
<text text-anchor="start" x="122.899" y="-474.4" font-family="Arial" font-size="14.00" fill="#666666">[varchar(255)]</text>
<polygon fill="none" stroke="#000000" points="77,-433 77,-463 286,-463 286,-433 77,-433"/>
<text text-anchor="start" x="84" y="-444.4" font-family="Arial" font-size="14.00" fill="#000000">description </text>
<text text-anchor="start" x="155.568" y="-444.4" font-family="Arial" font-size="14.00" fill="#666666">[text]</text>
<polygon fill="none" stroke="#000000" points="77,-403 77,-433 286,-433 286,-403 77,-403"/>
<text text-anchor="start" x="84" y="-414.4" font-family="Arial" font-size="14.00" fill="#000000">homepage </text>
<text text-anchor="start" x="154.0294" y="-414.4" font-family="Arial" font-size="14.00" fill="#666666">[varchar(255)]</text>
<polygon fill="none" stroke="#000000" points="77,-373 77,-403 286,-403 286,-373 77,-373"/>
<text text-anchor="start" x="84" y="-384.4" font-family="Arial" font-size="14.00" fill="#000000">is_public </text>
<text text-anchor="start" x="142.3408" y="-384.4" font-family="Arial" font-size="14.00" fill="#666666">[tinyint(1)]</text>
<polygon fill="none" stroke="#000000" points="77,-343 77,-373 286,-373 286,-343 77,-343"/>
<text text-anchor="start" x="84" y="-354.4" font-family="Arial" font-size="14.00" fill="#000000">parent_id </text>
<text text-anchor="start" x="146.244" y="-354.4" font-family="Arial" font-size="14.00" fill="#666666">[int(11)]</text>
<polygon fill="none" stroke="#000000" points="77,-313 77,-343 286,-343 286,-313 77,-313"/>
<text text-anchor="start" x="84" y="-324.4" font-family="Arial" font-size="14.00" fill="#000000">created_on </text>
<text text-anchor="start" x="157.92" y="-324.4" font-family="Arial" font-size="14.00" fill="#666666">[timestamp]</text>
<polygon fill="none" stroke="#000000" points="77,-283 77,-313 286,-313 286,-283 77,-283"/>
<text text-anchor="start" x="84" y="-294.4" font-family="Arial" font-size="14.00" fill="#000000">updated_on </text>
<text text-anchor="start" x="161.8246" y="-294.4" font-family="Arial" font-size="14.00" fill="#666666">[timestamp]</text>
<polygon fill="none" stroke="#000000" points="77,-253 77,-283 286,-283 286,-253 77,-253"/>
<text text-anchor="start" x="84" y="-264.4" font-family="Arial" font-size="14.00" fill="#000000">identifier </text>
<text text-anchor="start" x="140.7826" y="-264.4" font-family="Arial" font-size="14.00" fill="#666666">[varchar(255)]</text>
<polygon fill="none" stroke="#000000" points="77,-223 77,-253 286,-253 286,-223 77,-223"/>
<text text-anchor="start" x="84" y="-234.4" font-family="Arial" font-size="14.00" fill="#000000">status </text>
<text text-anchor="start" x="125.237" y="-234.4" font-family="Arial" font-size="14.00" fill="#666666">[int(11)]</text>
<polygon fill="none" stroke="#000000" points="77,-193 77,-223 286,-223 286,-193 77,-193"/>
<text text-anchor="start" x="84" y="-204.4" font-family="Arial" font-size="14.00" fill="#000000">lft </text>
<text text-anchor="start" x="98.7784" y="-204.4" font-family="Arial" font-size="14.00" fill="#666666">[int(11)]</text>
<polygon fill="none" stroke="#000000" points="77,-163 77,-193 286,-193 286,-163 77,-163"/>
<text text-anchor="start" x="84" y="-174.4" font-family="Arial" font-size="14.00" fill="#000000">rgt </text>
<text text-anchor="start" x="104.2244" y="-174.4" font-family="Arial" font-size="14.00" fill="#666666">[int(11)]</text>
<polygon fill="none" stroke="#000000" points="77,-133 77,-163 286,-163 286,-133 77,-133"/>
<text text-anchor="start" x="84" y="-144.4" font-family="Arial" font-size="14.00" fill="#000000">inherit_members </text>
<text text-anchor="start" x="192.115" y="-144.4" font-family="Arial" font-size="14.00" fill="#666666">[tinyint(1)]</text>
<polygon fill="none" stroke="#000000" points="77,-103 77,-133 286,-133 286,-103 77,-103"/>
<text text-anchor="start" x="84" y="-114.4" font-family="Arial" font-size="14.00" fill="#000000">default_version_id </text>
<text text-anchor="start" x="201.4782" y="-114.4" font-family="Arial" font-size="14.00" fill="#666666">[int(11)]</text>
<polygon fill="none" stroke="#000000" points="77,-73 77,-103 286,-103 286,-73 77,-73"/>
<text text-anchor="start" x="83.857" y="-84.4" font-family="Arial" font-size="14.00" fill="#000000">default_assigned_to_id </text>
<text text-anchor="start" x="231.6956" y="-84.4" font-family="Arial" font-size="14.00" fill="#666666">[int(11)]</text>
<polygon fill="none" stroke="#000000" points="77,-43 77,-73 286,-73 286,-43 77,-43"/>
<text text-anchor="start" x="83.8633" y="-54.4" font-family="Arial" font-size="14.00" fill="#000000">default_issue_query_id </text>
<text text-anchor="start" x="231.6893" y="-54.4" font-family="Arial" font-size="14.00" fill="#666666">[int(11)]</text>
</g>
<!-- queries&#45;&gt;projects -->
<g id="edge2" class="edge">
<title>queries:project_id&#45;&gt;projects:id</title>
<path fill="none" stroke="#000000" stroke-dasharray="5,2" d="M86.9845,-978.6454C-47.5893,-968.8544 5.4105,-758.6818 97,-648 151.5153,-582.1207 231.4847,-677.8793 286,-612 315.468,-576.3892 332.2222,-508 286,-508"/>
<polygon fill="#000000" stroke="#000000" points="87.0063,-978.6461 96.8408,-983.4972 92.0031,-978.8231 97,-979 97,-979 97,-979 92.0031,-978.8231 97.1592,-974.5028 87.0063,-978.6461 87.0063,-978.6461"/>
<text text-anchor="start" x="7.3245" y="-989" font-family="Arial" font-size="10.00" fill="#000000">Additional Relation</text>
</g>
<!-- queries_roles -->
<g id="node2" class="node">
<title>queries_roles</title>
<polygon fill="#efefef" stroke="transparent" points="72,-1254.5 72,-1289.5 291,-1289.5 291,-1254.5 72,-1254.5"/>
<polygon fill="none" stroke="#000000" points="72,-1254.5 72,-1289.5 291,-1289.5 291,-1254.5 72,-1254.5"/>
<text text-anchor="start" x="78.865" y="-1267.3" font-family="Arial Bold" font-size="18.00" fill="#000000">queries_roles</text>
<text text-anchor="start" x="186.8812" y="-1267.3" font-family="Arial" font-size="14.00" fill="#000000"> </text>
<text text-anchor="start" x="190.7718" y="-1267.3" font-family="Arial" font-size="14.00" fill="#666666">[BASE TABLE]</text>
<polygon fill="none" stroke="#000000" points="72,-1224.5 72,-1254.5 291,-1254.5 291,-1224.5 72,-1224.5"/>
<text text-anchor="start" x="79" y="-1235.9" font-family="Arial" font-size="14.00" fill="#000000">query_id </text>
<text text-anchor="start" x="136.5708" y="-1235.9" font-family="Arial" font-size="14.00" fill="#666666">[int(11)]</text>
<polygon fill="none" stroke="#000000" points="72,-1194.5 72,-1224.5 291,-1224.5 291,-1194.5 72,-1194.5"/>
<text text-anchor="start" x="79" y="-1205.9" font-family="Arial" font-size="14.00" fill="#000000">role_id </text>
<text text-anchor="start" x="124.8948" y="-1205.9" font-family="Arial" font-size="14.00" fill="#666666">[int(11)]</text>
</g>
<!-- queries_roles&#45;&gt;queries -->
<g id="edge1" class="edge">
<title>queries_roles:query_id&#45;&gt;queries:id</title>
<path fill="none" stroke="#000000" stroke-dasharray="5,2" d="M300.9185,-1237.9315C327.0462,-1228.5145 313.4357,-1178.982 291,-1152 234.9323,-1084.5709 153.0677,-1183.4291 97,-1116 66.5952,-1079.4339 49.4444,-1009 97,-1009"/>
<polygon fill="#000000" stroke="#000000" points="300.8773,-1237.938 290.2971,-1235.0552 295.9386,-1238.719 291,-1239.5 291,-1239.5 291,-1239.5 295.9386,-1238.719 291.7029,-1243.9448 300.8773,-1237.938 300.8773,-1237.938"/>
<text text-anchor="start" x="298.3245" y="-1249.5" font-family="Arial" font-size="10.00" fill="#000000">Additional Relation</text>
</g>
</g>
</svg>
