<?xml version="1.0" encoding="UTF-8" standalone="no"?>
<!DOCTYPE svg PUBLIC "-//W3C//DTD SVG 1.1//EN"
 "http://www.w3.org/Graphics/SVG/1.1/DTD/svg11.dtd">
<!-- Generated by graphviz version 2.40.1 (20161225.0304)
 -->
<!-- Title: queries Pages: 1 -->
<svg width="399pt" height="1341pt"
 viewBox="0.00 0.00 398.83 1341.00" xmlns="http://www.w3.org/2000/svg" xmlns:xlink="http://www.w3.org/1999/xlink">
<g id="graph0" class="graph" transform="scale(1 1) rotate(0) translate(4 1337)">
<title>queries</title>
<polygon fill="#ffffff" stroke="transparent" points="-4,4 -4,-1337 394.8289,-1337 394.8289,4 -4,4"/>
<!-- queries -->
<g id="node1" class="node">
<title>queries</title>
<polygon fill="#efefef" stroke="transparent" points="99.8289,-1024 99.8289,-1070 269.8289,-1070 269.8289,-1024 99.8289,-1024"/>
<polygon fill="none" stroke="#000000" points="99.8289,-1024 99.8289,-1070 269.8289,-1070 269.8289,-1024 99.8289,-1024"/>
<text text-anchor="start" x="106.6964" y="-1047.8" font-family="Arial Bold" font-size="18.00" fill="#000000">queries</text>
<text text-anchor="start" x="165.7076" y="-1047.8" font-family="Arial" font-size="14.00" fill="#000000"> </text>
<text text-anchor="start" x="169.5982" y="-1047.8" font-family="Arial" font-size="14.00" fill="#666666">[BASE TABLE]</text>
<text text-anchor="start" x="130.9219" y="-1033.4" font-family="Arial" font-size="14.00" fill="#333333">カスタムクエリ</text>
<polygon fill="none" stroke="#000000" points="99.8289,-994 99.8289,-1024 269.8289,-1024 269.8289,-994 99.8289,-994"/>
<text text-anchor="start" x="106.8289" y="-1005.4" font-family="Arial" font-size="14.00" fill="#000000">id </text>
<text text-anchor="start" x="121.6087" y="-1005.4" font-family="Arial" font-size="14.00" fill="#666666">[int(11)]</text>
<polygon fill="none" stroke="#000000" points="99.8289,-964 99.8289,-994 269.8289,-994 269.8289,-964 99.8289,-964"/>
<text text-anchor="start" x="106.8289" y="-975.4" font-family="Arial" font-size="14.00" fill="#000000">project_id </text>
<text text-anchor="start" x="171.3969" y="-975.4" font-family="Arial" font-size="14.00" fill="#666666">[int(11)]</text>
<polygon fill="none" stroke="#000000" points="99.8289,-934 99.8289,-964 269.8289,-964 269.8289,-934 99.8289,-934"/>
<text text-anchor="start" x="106.8289" y="-945.4" font-family="Arial" font-size="14.00" fill="#000000">name </text>
<text text-anchor="start" x="145.7279" y="-945.4" font-family="Arial" font-size="14.00" fill="#666666">[varchar(255)]</text>
<polygon fill="none" stroke="#000000" points="99.8289,-904 99.8289,-934 269.8289,-934 269.8289,-904 99.8289,-904"/>
<text text-anchor="start" x="106.8289" y="-915.4" font-family="Arial" font-size="14.00" fill="#000000">filters </text>
<text text-anchor="start" x="144.1571" y="-915.4" font-family="Arial" font-size="14.00" fill="#666666">[text]</text>
<polygon fill="none" stroke="#000000" points="99.8289,-874 99.8289,-904 269.8289,-904 269.8289,-874 99.8289,-874"/>
<text text-anchor="start" x="106.8289" y="-885.4" font-family="Arial" font-size="14.00" fill="#000000">user_id </text>
<text text-anchor="start" x="156.6171" y="-885.4" font-family="Arial" font-size="14.00" fill="#666666">[int(11)]</text>
<polygon fill="none" stroke="#000000" points="99.8289,-844 99.8289,-874 269.8289,-874 269.8289,-844 99.8289,-844"/>
<text text-anchor="start" x="106.8289" y="-855.4" font-family="Arial" font-size="14.00" fill="#000000">column_names </text>
<text text-anchor="start" x="205.6255" y="-855.4" font-family="Arial" font-size="14.00" fill="#666666">[text]</text>
<polygon fill="none" stroke="#000000" points="99.8289,-814 99.8289,-844 269.8289,-844 269.8289,-814 99.8289,-814"/>
<text text-anchor="start" x="106.8289" y="-825.4" font-family="Arial" font-size="14.00" fill="#000000">sort_criteria </text>
<text text-anchor="start" x="183.8261" y="-825.4" font-family="Arial" font-size="14.00" fill="#666666">[text]</text>
<polygon fill="none" stroke="#000000" points="99.8289,-784 99.8289,-814 269.8289,-814 269.8289,-784 99.8289,-784"/>
<text text-anchor="start" x="106.8289" y="-795.4" font-family="Arial" font-size="14.00" fill="#000000">group_by </text>
<text text-anchor="start" x="169.0757" y="-795.4" font-family="Arial" font-size="14.00" fill="#666666">[varchar(255)]</text>
<polygon fill="none" stroke="#000000" points="99.8289,-754 99.8289,-784 269.8289,-784 269.8289,-754 99.8289,-754"/>
<text text-anchor="start" x="106.8289" y="-765.4" font-family="Arial" font-size="14.00" fill="#000000">type </text>
<text text-anchor="start" x="137.1753" y="-765.4" font-family="Arial" font-size="14.00" fill="#666666">[varchar(255)]</text>
<polygon fill="none" stroke="#000000" points="99.8289,-724 99.8289,-754 269.8289,-754 269.8289,-724 99.8289,-724"/>
<text text-anchor="start" x="106.8289" y="-735.4" font-family="Arial" font-size="14.00" fill="#000000">visibility </text>
<text text-anchor="start" x="158.9257" y="-735.4" font-family="Arial" font-size="14.00" fill="#666666">[int(11)]</text>
<polygon fill="none" stroke="#000000" points="99.8289,-694 99.8289,-724 269.8289,-724 269.8289,-694 99.8289,-694"/>
<text text-anchor="start" x="106.8289" y="-705.4" font-family="Arial" font-size="14.00" fill="#000000">options </text>
<text text-anchor="start" x="155.8471" y="-705.4" font-family="Arial" font-size="14.00" fill="#666666">[text]</text>
<polygon fill="none" stroke="#000000" stroke-width="3" points="98.3289,-692.5 98.3289,-1071.5 271.3289,-1071.5 271.3289,-692.5 98.3289,-692.5"/>
</g>
<!-- projects -->
<g id="node2" class="node">
<title>projects</title>
<polygon fill="#efefef" stroke="transparent" points="79.8289,-523 79.8289,-569 288.8289,-569 288.8289,-523 79.8289,-523"/>
<polygon fill="none" stroke="#000000" points="79.8289,-523 79.8289,-569 288.8289,-569 288.8289,-523 79.8289,-523"/>
<text text-anchor="start" x="104.1984" y="-546.8" font-family="Arial Bold" font-size="18.00" fill="#000000">projects</text>
<text text-anchor="start" x="167.2056" y="-546.8" font-family="Arial" font-size="14.00" fill="#000000"> </text>
<text text-anchor="start" x="171.0962" y="-546.8" font-family="Arial" font-size="14.00" fill="#666666">[BASE TABLE]</text>
<text text-anchor="start" x="141.9558" y="-532.4" font-family="Arial" font-size="14.00" fill="#333333">プロジェクト</text>
<polygon fill="none" stroke="#000000" points="79.8289,-493 79.8289,-523 288.8289,-523 288.8289,-493 79.8289,-493"/>
<text text-anchor="start" x="86.8289" y="-504.4" font-family="Arial" font-size="14.00" fill="#000000">id </text>
<text text-anchor="start" x="101.6087" y="-504.4" font-family="Arial" font-size="14.00" fill="#666666">[int(11)]</text>
<polygon fill="none" stroke="#000000" points="79.8289,-463 79.8289,-493 288.8289,-493 288.8289,-463 79.8289,-463"/>
<text text-anchor="start" x="86.8289" y="-474.4" font-family="Arial" font-size="14.00" fill="#000000">name </text>
<text text-anchor="start" x="125.7279" y="-474.4" font-family="Arial" font-size="14.00" fill="#666666">[varchar(255)]</text>
<polygon fill="none" stroke="#000000" points="79.8289,-433 79.8289,-463 288.8289,-463 288.8289,-433 79.8289,-433"/>
<text text-anchor="start" x="86.8289" y="-444.4" font-family="Arial" font-size="14.00" fill="#000000">description </text>
<text text-anchor="start" x="158.3969" y="-444.4" font-family="Arial" font-size="14.00" fill="#666666">[text]</text>
<polygon fill="none" stroke="#000000" points="79.8289,-403 79.8289,-433 288.8289,-433 288.8289,-403 79.8289,-403"/>
<text text-anchor="start" x="86.8289" y="-414.4" font-family="Arial" font-size="14.00" fill="#000000">homepage </text>
<text text-anchor="start" x="156.8583" y="-414.4" font-family="Arial" font-size="14.00" fill="#666666">[varchar(255)]</text>
<polygon fill="none" stroke="#000000" points="79.8289,-373 79.8289,-403 288.8289,-403 288.8289,-373 79.8289,-373"/>
<text text-anchor="start" x="86.8289" y="-384.4" font-family="Arial" font-size="14.00" fill="#000000">is_public </text>
<text text-anchor="start" x="145.1697" y="-384.4" font-family="Arial" font-size="14.00" fill="#666666">[tinyint(1)]</text>
<polygon fill="none" stroke="#000000" points="79.8289,-343 79.8289,-373 288.8289,-373 288.8289,-343 79.8289,-343"/>
<text text-anchor="start" x="86.8289" y="-354.4" font-family="Arial" font-size="14.00" fill="#000000">parent_id </text>
<text text-anchor="start" x="149.0729" y="-354.4" font-family="Arial" font-size="14.00" fill="#666666">[int(11)]</text>
<polygon fill="none" stroke="#000000" points="79.8289,-313 79.8289,-343 288.8289,-343 288.8289,-313 79.8289,-313"/>
<text text-anchor="start" x="86.8289" y="-324.4" font-family="Arial" font-size="14.00" fill="#000000">created_on </text>
<text text-anchor="start" x="160.7489" y="-324.4" font-family="Arial" font-size="14.00" fill="#666666">[timestamp]</text>
<polygon fill="none" stroke="#000000" points="79.8289,-283 79.8289,-313 288.8289,-313 288.8289,-283 79.8289,-283"/>
<text text-anchor="start" x="86.8289" y="-294.4" font-family="Arial" font-size="14.00" fill="#000000">updated_on </text>
<text text-anchor="start" x="164.6535" y="-294.4" font-family="Arial" font-size="14.00" fill="#666666">[timestamp]</text>
<polygon fill="none" stroke="#000000" points="79.8289,-253 79.8289,-283 288.8289,-283 288.8289,-253 79.8289,-253"/>
<text text-anchor="start" x="86.8289" y="-264.4" font-family="Arial" font-size="14.00" fill="#000000">identifier </text>
<text text-anchor="start" x="143.6115" y="-264.4" font-family="Arial" font-size="14.00" fill="#666666">[varchar(255)]</text>
<polygon fill="none" stroke="#000000" points="79.8289,-223 79.8289,-253 288.8289,-253 288.8289,-223 79.8289,-223"/>
<text text-anchor="start" x="86.8289" y="-234.4" font-family="Arial" font-size="14.00" fill="#000000">status </text>
<text text-anchor="start" x="128.0659" y="-234.4" font-family="Arial" font-size="14.00" fill="#666666">[int(11)]</text>
<polygon fill="none" stroke="#000000" points="79.8289,-193 79.8289,-223 288.8289,-223 288.8289,-193 79.8289,-193"/>
<text text-anchor="start" x="86.8289" y="-204.4" font-family="Arial" font-size="14.00" fill="#000000">lft </text>
<text text-anchor="start" x="101.6073" y="-204.4" font-family="Arial" font-size="14.00" fill="#666666">[int(11)]</text>
<polygon fill="none" stroke="#000000" points="79.8289,-163 79.8289,-193 288.8289,-193 288.8289,-163 79.8289,-163"/>
<text text-anchor="start" x="86.8289" y="-174.4" font-family="Arial" font-size="14.00" fill="#000000">rgt </text>
<text text-anchor="start" x="107.0533" y="-174.4" font-family="Arial" font-size="14.00" fill="#666666">[int(11)]</text>
<polygon fill="none" stroke="#000000" points="79.8289,-133 79.8289,-163 288.8289,-163 288.8289,-133 79.8289,-133"/>
<text text-anchor="start" x="86.8289" y="-144.4" font-family="Arial" font-size="14.00" fill="#000000">inherit_members </text>
<text text-anchor="start" x="194.9439" y="-144.4" font-family="Arial" font-size="14.00" fill="#666666">[tinyint(1)]</text>
<polygon fill="none" stroke="#000000" points="79.8289,-103 79.8289,-133 288.8289,-133 288.8289,-103 79.8289,-103"/>
<text text-anchor="start" x="86.8289" y="-114.4" font-family="Arial" font-size="14.00" fill="#000000">default_version_id </text>
<text text-anchor="start" x="204.3071" y="-114.4" font-family="Arial" font-size="14.00" fill="#666666">[int(11)]</text>
<polygon fill="none" stroke="#000000" points="79.8289,-73 79.8289,-103 288.8289,-103 288.8289,-73 79.8289,-73"/>
<text text-anchor="start" x="86.6859" y="-84.4" font-family="Arial" font-size="14.00" fill="#000000">default_assigned_to_id </text>
<text text-anchor="start" x="234.5245" y="-84.4" font-family="Arial" font-size="14.00" fill="#666666">[int(11)]</text>
<polygon fill="none" stroke="#000000" points="79.8289,-43 79.8289,-73 288.8289,-73 288.8289,-43 79.8289,-43"/>
<text text-anchor="start" x="86.6922" y="-54.4" font-family="Arial" font-size="14.00" fill="#000000">default_issue_query_id </text>
<text text-anchor="start" x="234.5182" y="-54.4" font-family="Arial" font-size="14.00" fill="#666666">[int(11)]</text>
</g>
<!-- queries&#45;&gt;projects -->
<g id="edge3" class="edge">
<title>queries:project_id&#45;&gt;projects:id</title>
<path fill="none" stroke="#000000" stroke-dasharray="5,2" d="M89.8134,-978.6454C-44.7604,-968.8544 8.2394,-758.6818 99.8289,-648 154.3442,-582.1207 234.3136,-677.8793 288.8289,-612 318.297,-576.3892 335.0512,-508 288.8289,-508"/>
<polygon fill="#000000" stroke="#000000" points="89.8352,-978.6461 99.6697,-983.4972 94.8321,-978.8231 99.8289,-979 99.8289,-979 99.8289,-979 94.8321,-978.8231 99.9882,-974.5028 89.8352,-978.6461 89.8352,-978.6461"/>
<text text-anchor="start" x="10.1534" y="-989" font-family="Arial" font-size="10.00" fill="#000000">Additional Relation</text>
</g>
<!-- projects&#45;&gt;queries -->
<g id="edge1" class="edge">
<title>projects:default_issue_query_id&#45;&gt;queries:id</title>
<path fill="none" stroke="#000000" stroke-dasharray="5,2" d="M298.888,-59.0861C409.3853,-83.7145 365.0931,-519.8381 288.8289,-612 234.3136,-677.8793 154.3442,-582.1207 99.8289,-648 -2.4591,-771.6106 -60.6155,-1009 99.8289,-1009"/>
<polygon fill="#000000" stroke="#000000" points="298.7712,-59.0735 289.312,-53.526 293.8,-58.5368 288.8289,-58 288.8289,-58 288.8289,-58 293.8,-58.5368 288.3458,-62.474 298.7712,-59.0735 298.7712,-59.0735"/>
<text text-anchor="start" x="296.1534" y="-68" font-family="Arial" font-size="10.00" fill="#000000">Additional Relation</text>
</g>
<!-- queries_roles -->
<g id="node3" class="node">
<title>queries_roles</title>
<polygon fill="#efefef" stroke="transparent" points="74.8289,-1254.5 74.8289,-1289.5 293.8289,-1289.5 293.8289,-1254.5 74.8289,-1254.5"/>
<polygon fill="none" stroke="#000000" points="74.8289,-1254.5 74.8289,-1289.5 293.8289,-1289.5 293.8289,-1254.5 74.8289,-1254.5"/>
<text text-anchor="start" x="81.6939" y="-1267.3" font-family="Arial Bold" font-size="18.00" fill="#000000">queries_roles</text>
<text text-anchor="start" x="189.7101" y="-1267.3" font-family="Arial" font-size="14.00" fill="#000000"> </text>
<text text-anchor="start" x="193.6007" y="-1267.3" font-family="Arial" font-size="14.00" fill="#666666">[BASE TABLE]</text>
<polygon fill="none" stroke="#000000" points="74.8289,-1224.5 74.8289,-1254.5 293.8289,-1254.5 293.8289,-1224.5 74.8289,-1224.5"/>
<text text-anchor="start" x="81.8289" y="-1235.9" font-family="Arial" font-size="14.00" fill="#000000">query_id </text>
<text text-anchor="start" x="139.3997" y="-1235.9" font-family="Arial" font-size="14.00" fill="#666666">[int(11)]</text>
<polygon fill="none" stroke="#000000" points="74.8289,-1194.5 74.8289,-1224.5 293.8289,-1224.5 293.8289,-1194.5 74.8289,-1194.5"/>
<text text-anchor="start" x="81.8289" y="-1205.9" font-family="Arial" font-size="14.00" fill="#000000">role_id </text>
<text text-anchor="start" x="127.7237" y="-1205.9" font-family="Arial" font-size="14.00" fill="#666666">[int(11)]</text>
</g>
<!-- queries_roles&#45;&gt;queries -->
<g id="edge2" class="edge">
<title>queries_roles:query_id&#45;&gt;queries:id</title>
<path fill="none" stroke="#000000" stroke-dasharray="5,2" d="M303.7475,-1237.9315C329.8752,-1228.5145 316.2646,-1178.982 293.8289,-1152 237.7613,-1084.5709 155.8966,-1183.4291 99.8289,-1116 69.4241,-1079.4339 52.2734,-1009 99.8289,-1009"/>
<polygon fill="#000000" stroke="#000000" points="303.7062,-1237.938 293.126,-1235.0552 298.7676,-1238.719 293.8289,-1239.5 293.8289,-1239.5 293.8289,-1239.5 298.7676,-1238.719 294.5318,-1243.9448 303.7062,-1237.938 303.7062,-1237.938"/>
<text text-anchor="start" x="301.1534" y="-1249.5" font-family="Arial" font-size="10.00" fill="#000000">Additional Relation</text>
</g>
</g>
</svg>
