<?xml version="1.0" encoding="UTF-8" standalone="no"?>
<!DOCTYPE svg PUBLIC "-//W3C//DTD SVG 1.1//EN"
 "http://www.w3.org/Graphics/SVG/1.1/DTD/svg11.dtd">
<!-- Generated by graphviz version 2.40.1 (20161225.0304)
 -->
<!-- Title: wiki_pages Pages: 1 -->
<svg width="704pt" height="1030pt"
 viewBox="0.00 0.00 704.00 1030.00" xmlns="http://www.w3.org/2000/svg" xmlns:xlink="http://www.w3.org/1999/xlink">
<g id="graph0" class="graph" transform="scale(1 1) rotate(0) translate(4 1026)">
<title>wiki_pages</title>
<polygon fill="#ffffff" stroke="transparent" points="-4,4 -4,-1026 700,-1026 700,4 -4,4"/>
<!-- wiki_pages -->
<g id="node1" class="node">
<title>wiki_pages</title>
<polygon fill="#efefef" stroke="transparent" points="231.5,-503 231.5,-549 431.5,-549 431.5,-503 231.5,-503"/>
<polygon fill="none" stroke="#000000" points="231.5,-503 231.5,-549 431.5,-549 431.5,-503 231.5,-503"/>
<text text-anchor="start" x="238.3663" y="-526.8" font-family="Arial Bold" font-size="18.00" fill="#000000">wiki_pages</text>
<text text-anchor="start" x="327.3799" y="-526.8" font-family="Arial" font-size="14.00" fill="#000000"> </text>
<text text-anchor="start" x="331.2705" y="-526.8" font-family="Arial" font-size="14.00" fill="#666666">[BASE TABLE]</text>
<text text-anchor="start" x="294.1837" y="-512.4" font-family="Arial" font-size="14.00" fill="#333333">Wikiページ</text>
<polygon fill="none" stroke="#000000" points="231.5,-473 231.5,-503 431.5,-503 431.5,-473 231.5,-473"/>
<text text-anchor="start" x="238.5" y="-484.4" font-family="Arial" font-size="14.00" fill="#000000">id </text>
<text text-anchor="start" x="253.2798" y="-484.4" font-family="Arial" font-size="14.00" fill="#666666">[int(11)]</text>
<polygon fill="none" stroke="#000000" points="231.5,-443 231.5,-473 431.5,-473 431.5,-443 231.5,-443"/>
<text text-anchor="start" x="238.5" y="-454.4" font-family="Arial" font-size="14.00" fill="#000000">wiki_id </text>
<text text-anchor="start" x="284.3822" y="-454.4" font-family="Arial" font-size="14.00" fill="#666666">[int(11)]</text>
<polygon fill="none" stroke="#000000" points="231.5,-413 231.5,-443 431.5,-443 431.5,-413 231.5,-413"/>
<text text-anchor="start" x="238.5" y="-424.4" font-family="Arial" font-size="14.00" fill="#000000">title </text>
<text text-anchor="start" x="264.1676" y="-424.4" font-family="Arial" font-size="14.00" fill="#666666">[varchar(255)]</text>
<polygon fill="none" stroke="#000000" points="231.5,-383 231.5,-413 431.5,-413 431.5,-383 231.5,-383"/>
<text text-anchor="start" x="238.5" y="-394.4" font-family="Arial" font-size="14.00" fill="#000000">created_on </text>
<text text-anchor="start" x="312.42" y="-394.4" font-family="Arial" font-size="14.00" fill="#666666">[datetime]</text>
<polygon fill="none" stroke="#000000" points="231.5,-353 231.5,-383 431.5,-383 431.5,-353 231.5,-353"/>
<text text-anchor="start" x="238.5" y="-364.4" font-family="Arial" font-size="14.00" fill="#000000">protected </text>
<text text-anchor="start" x="300.7454" y="-364.4" font-family="Arial" font-size="14.00" fill="#666666">[tinyint(1)]</text>
<polygon fill="none" stroke="#000000" points="231.5,-323 231.5,-353 431.5,-353 431.5,-323 231.5,-323"/>
<text text-anchor="start" x="238.5" y="-334.4" font-family="Arial" font-size="14.00" fill="#000000">parent_id </text>
<text text-anchor="start" x="300.744" y="-334.4" font-family="Arial" font-size="14.00" fill="#666666">[int(11)]</text>
<polygon fill="none" stroke="#000000" stroke-width="3" points="230,-321.5 230,-550.5 433,-550.5 433,-321.5 230,-321.5"/>
</g>
<!-- wiki_pages&#45;&gt;wiki_pages -->
<g id="edge1" class="edge">
<title>wiki_pages:parent_id&#45;&gt;wiki_pages:id</title>
<path fill="none" stroke="#000000" stroke-dasharray="5,2" d="M333.2814,-363.3361C340.4546,-485.6201 339.8608,-752 331.5,-752 322.9219,-752 322.5198,-607.8597 330.2937,-503.1422"/>
<polygon fill="#000000" stroke="#000000" points="333.2605,-363.0017 337.1256,-352.7395 332.9474,-358.0115 332.6344,-353.0213 332.6344,-353.0213 332.6344,-353.0213 332.9474,-358.0115 328.1432,-353.303 333.2605,-363.0017 333.2605,-363.0017"/>
<text text-anchor="start" x="242.9589" y="-363.0213" font-family="Arial" font-size="10.00" fill="#000000">Additional Relation</text>
</g>
<!-- wikis -->
<g id="node4" class="node">
<title>wikis</title>
<polygon fill="#efefef" stroke="transparent" points="245.5,-162.5 245.5,-197.5 416.5,-197.5 416.5,-162.5 245.5,-162.5"/>
<polygon fill="none" stroke="#000000" points="245.5,-162.5 245.5,-197.5 416.5,-197.5 416.5,-162.5 245.5,-162.5"/>
<text text-anchor="start" x="262.8818" y="-175.3" font-family="Arial Bold" font-size="18.00" fill="#000000">wikis</text>
<text text-anchor="start" x="301.8644" y="-175.3" font-family="Arial" font-size="14.00" fill="#000000"> </text>
<text text-anchor="start" x="305.755" y="-175.3" font-family="Arial" font-size="14.00" fill="#666666">[BASE TABLE]</text>
<polygon fill="none" stroke="#000000" points="245.5,-132.5 245.5,-162.5 416.5,-162.5 416.5,-132.5 245.5,-132.5"/>
<text text-anchor="start" x="252.5" y="-143.9" font-family="Arial" font-size="14.00" fill="#000000">id </text>
<text text-anchor="start" x="267.2798" y="-143.9" font-family="Arial" font-size="14.00" fill="#666666">[int(11)]</text>
<polygon fill="none" stroke="#000000" points="245.5,-102.5 245.5,-132.5 416.5,-132.5 416.5,-102.5 245.5,-102.5"/>
<text text-anchor="start" x="252.5" y="-113.9" font-family="Arial" font-size="14.00" fill="#000000">project_id </text>
<text text-anchor="start" x="317.068" y="-113.9" font-family="Arial" font-size="14.00" fill="#666666">[int(11)]</text>
<polygon fill="none" stroke="#000000" points="245.5,-72.5 245.5,-102.5 416.5,-102.5 416.5,-72.5 245.5,-72.5"/>
<text text-anchor="start" x="252.4264" y="-83.9" font-family="Arial" font-size="14.00" fill="#000000">start_page </text>
<text text-anchor="start" x="322.4544" y="-83.9" font-family="Arial" font-size="14.00" fill="#666666">[varchar(255)]</text>
<polygon fill="none" stroke="#000000" points="245.5,-42.5 245.5,-72.5 416.5,-72.5 416.5,-42.5 245.5,-42.5"/>
<text text-anchor="start" x="252.5" y="-53.9" font-family="Arial" font-size="14.00" fill="#000000">status </text>
<text text-anchor="start" x="293.737" y="-53.9" font-family="Arial" font-size="14.00" fill="#666666">[int(11)]</text>
</g>
<!-- wiki_pages&#45;&gt;wikis -->
<g id="edge4" class="edge">
<title>wiki_pages:wiki_id&#45;&gt;wikis:id</title>
<path fill="none" stroke="#000000" stroke-dasharray="5,2" d="M221.3152,-457.296C153.7305,-447.4303 182.6358,-336.2895 231.5,-277 284.7741,-212.3597 363.2259,-305.6403 416.5,-241 442.9293,-208.932 458.0556,-147.5 416.5,-147.5"/>
<polygon fill="#000000" stroke="#000000" points="221.5238,-457.3103 231.1896,-462.4893 226.5119,-457.6552 231.5,-458 231.5,-458 231.5,-458 226.5119,-457.6552 231.8104,-453.5107 221.5238,-457.3103 221.5238,-457.3103"/>
<text text-anchor="start" x="141.8245" y="-468" font-family="Arial" font-size="10.00" fill="#000000">Additional Relation</text>
</g>
<!-- wiki_contents -->
<g id="node2" class="node">
<title>wiki_contents</title>
<polygon fill="#efefef" stroke="transparent" points="43.5,-913.5 43.5,-948.5 262.5,-948.5 262.5,-913.5 43.5,-913.5"/>
<polygon fill="none" stroke="#000000" points="43.5,-913.5 43.5,-948.5 262.5,-948.5 262.5,-913.5 43.5,-913.5"/>
<text text-anchor="start" x="50.3641" y="-926.3" font-family="Arial Bold" font-size="18.00" fill="#000000">wiki_contents</text>
<text text-anchor="start" x="158.3821" y="-926.3" font-family="Arial" font-size="14.00" fill="#000000"> </text>
<text text-anchor="start" x="162.2727" y="-926.3" font-family="Arial" font-size="14.00" fill="#666666">[BASE TABLE]</text>
<polygon fill="none" stroke="#000000" points="43.5,-883.5 43.5,-913.5 262.5,-913.5 262.5,-883.5 43.5,-883.5"/>
<text text-anchor="start" x="50.5" y="-894.9" font-family="Arial" font-size="14.00" fill="#000000">id </text>
<text text-anchor="start" x="65.2798" y="-894.9" font-family="Arial" font-size="14.00" fill="#666666">[int(11)]</text>
<polygon fill="none" stroke="#000000" points="43.5,-853.5 43.5,-883.5 262.5,-883.5 262.5,-853.5 43.5,-853.5"/>
<text text-anchor="start" x="50.5" y="-864.9" font-family="Arial" font-size="14.00" fill="#000000">page_id </text>
<text text-anchor="start" x="104.1928" y="-864.9" font-family="Arial" font-size="14.00" fill="#666666">[int(11)]</text>
<polygon fill="none" stroke="#000000" points="43.5,-823.5 43.5,-853.5 262.5,-853.5 262.5,-823.5 43.5,-823.5"/>
<text text-anchor="start" x="50.5" y="-834.9" font-family="Arial" font-size="14.00" fill="#000000">author_id </text>
<text text-anchor="start" x="112.744" y="-834.9" font-family="Arial" font-size="14.00" fill="#666666">[int(11)]</text>
<polygon fill="none" stroke="#000000" points="43.5,-793.5 43.5,-823.5 262.5,-823.5 262.5,-793.5 43.5,-793.5"/>
<text text-anchor="start" x="50.5" y="-804.9" font-family="Arial" font-size="14.00" fill="#000000">text </text>
<text text-anchor="start" x="76.9544" y="-804.9" font-family="Arial" font-size="14.00" fill="#666666">[longtext]</text>
<polygon fill="none" stroke="#000000" points="43.5,-763.5 43.5,-793.5 262.5,-793.5 262.5,-763.5 43.5,-763.5"/>
<text text-anchor="start" x="50.5" y="-774.9" font-family="Arial" font-size="14.00" fill="#000000">comments </text>
<text text-anchor="start" x="118.9502" y="-774.9" font-family="Arial" font-size="14.00" fill="#666666">[varchar(1024)]</text>
<polygon fill="none" stroke="#000000" points="43.5,-733.5 43.5,-763.5 262.5,-763.5 262.5,-733.5 43.5,-733.5"/>
<text text-anchor="start" x="50.5" y="-744.9" font-family="Arial" font-size="14.00" fill="#000000">updated_on </text>
<text text-anchor="start" x="128.3246" y="-744.9" font-family="Arial" font-size="14.00" fill="#666666">[datetime]</text>
<polygon fill="none" stroke="#000000" points="43.5,-703.5 43.5,-733.5 262.5,-733.5 262.5,-703.5 43.5,-703.5"/>
<text text-anchor="start" x="50.5" y="-714.9" font-family="Arial" font-size="14.00" fill="#000000">version </text>
<text text-anchor="start" x="99.5056" y="-714.9" font-family="Arial" font-size="14.00" fill="#666666">[int(11)]</text>
</g>
<!-- wiki_contents&#45;&gt;wiki_pages -->
<g id="edge2" class="edge">
<title>wiki_contents:page_id&#45;&gt;wiki_pages:id</title>
<path fill="none" stroke="#000000" stroke-dasharray="5,2" d="M272.5678,-867.9708C349.166,-859.3629 281.8011,-747.4924 262.5,-661 255.4417,-629.3701 238.5583,-626.6299 231.5,-595 221.1426,-548.5861 183.9444,-488 231.5,-488"/>
<polygon fill="#000000" stroke="#000000" points="272.4862,-867.975 262.2638,-864.0062 267.4931,-868.2375 262.5,-868.5 262.5,-868.5 262.5,-868.5 267.4931,-868.2375 262.7362,-872.9938 272.4862,-867.975 272.4862,-867.975"/>
<text text-anchor="start" x="269.8245" y="-878.5" font-family="Arial" font-size="10.00" fill="#000000">Additional Relation</text>
</g>
<!-- wiki_content_versions -->
<g id="node3" class="node">
<title>wiki_content_versions</title>
<polygon fill="#efefef" stroke="transparent" points="366.5,-943.5 366.5,-978.5 653.5,-978.5 653.5,-943.5 366.5,-943.5"/>
<polygon fill="none" stroke="#000000" points="366.5,-943.5 366.5,-978.5 653.5,-978.5 653.5,-943.5 366.5,-943.5"/>
<text text-anchor="start" x="373.3585" y="-956.3" font-family="Arial Bold" font-size="18.00" fill="#000000">wiki_content_versions</text>
<text text-anchor="start" x="549.3877" y="-956.3" font-family="Arial" font-size="14.00" fill="#000000"> </text>
<text text-anchor="start" x="553.2783" y="-956.3" font-family="Arial" font-size="14.00" fill="#666666">[BASE TABLE]</text>
<polygon fill="none" stroke="#000000" points="366.5,-913.5 366.5,-943.5 653.5,-943.5 653.5,-913.5 366.5,-913.5"/>
<text text-anchor="start" x="373.5" y="-924.9" font-family="Arial" font-size="14.00" fill="#000000">id </text>
<text text-anchor="start" x="388.2798" y="-924.9" font-family="Arial" font-size="14.00" fill="#666666">[int(11)]</text>
<polygon fill="none" stroke="#000000" points="366.5,-883.5 366.5,-913.5 653.5,-913.5 653.5,-883.5 366.5,-883.5"/>
<text text-anchor="start" x="373.5" y="-894.9" font-family="Arial" font-size="14.00" fill="#000000">wiki_content_id </text>
<text text-anchor="start" x="473.0764" y="-894.9" font-family="Arial" font-size="14.00" fill="#666666">[int(11)]</text>
<polygon fill="none" stroke="#000000" points="366.5,-853.5 366.5,-883.5 653.5,-883.5 653.5,-853.5 366.5,-853.5"/>
<text text-anchor="start" x="373.5" y="-864.9" font-family="Arial" font-size="14.00" fill="#000000">page_id </text>
<text text-anchor="start" x="427.1928" y="-864.9" font-family="Arial" font-size="14.00" fill="#666666">[int(11)]</text>
<polygon fill="none" stroke="#000000" points="366.5,-823.5 366.5,-853.5 653.5,-853.5 653.5,-823.5 366.5,-823.5"/>
<text text-anchor="start" x="373.5" y="-834.9" font-family="Arial" font-size="14.00" fill="#000000">author_id </text>
<text text-anchor="start" x="435.744" y="-834.9" font-family="Arial" font-size="14.00" fill="#666666">[int(11)]</text>
<polygon fill="none" stroke="#000000" points="366.5,-793.5 366.5,-823.5 653.5,-823.5 653.5,-793.5 366.5,-793.5"/>
<text text-anchor="start" x="373.5" y="-804.9" font-family="Arial" font-size="14.00" fill="#000000">data </text>
<text text-anchor="start" x="404.629" y="-804.9" font-family="Arial" font-size="14.00" fill="#666666">[longblob]</text>
<polygon fill="none" stroke="#000000" points="366.5,-763.5 366.5,-793.5 653.5,-793.5 653.5,-763.5 366.5,-763.5"/>
<text text-anchor="start" x="373.5" y="-774.9" font-family="Arial" font-size="14.00" fill="#000000">compression </text>
<text text-anchor="start" x="456.7314" y="-774.9" font-family="Arial" font-size="14.00" fill="#666666">[varchar(6)]</text>
<polygon fill="none" stroke="#000000" points="366.5,-733.5 366.5,-763.5 653.5,-763.5 653.5,-733.5 366.5,-733.5"/>
<text text-anchor="start" x="373.5" y="-744.9" font-family="Arial" font-size="14.00" fill="#000000">comments </text>
<text text-anchor="start" x="441.9502" y="-744.9" font-family="Arial" font-size="14.00" fill="#666666">[varchar(1024)]</text>
<polygon fill="none" stroke="#000000" points="366.5,-703.5 366.5,-733.5 653.5,-733.5 653.5,-703.5 366.5,-703.5"/>
<text text-anchor="start" x="373.5" y="-714.9" font-family="Arial" font-size="14.00" fill="#000000">updated_on </text>
<text text-anchor="start" x="451.3246" y="-714.9" font-family="Arial" font-size="14.00" fill="#666666">[datetime]</text>
<polygon fill="none" stroke="#000000" points="366.5,-673.5 366.5,-703.5 653.5,-703.5 653.5,-673.5 366.5,-673.5"/>
<text text-anchor="start" x="373.5" y="-684.9" font-family="Arial" font-size="14.00" fill="#000000">version </text>
<text text-anchor="start" x="422.5056" y="-684.9" font-family="Arial" font-size="14.00" fill="#666666">[int(11)]</text>
</g>
<!-- wiki_content_versions&#45;&gt;wiki_pages -->
<g id="edge3" class="edge">
<title>wiki_content_versions:page_id&#45;&gt;wiki_pages:id</title>
<path fill="none" stroke="#000000" stroke-dasharray="5,2" d="M356.5082,-865.7696C317.3801,-842.2204 341.5892,-673.273 366.5,-631 383.2659,-602.5487 414.7341,-623.4513 431.5,-595 455.6435,-554.029 479.0556,-488 431.5,-488"/>
<polygon fill="#000000" stroke="#000000" points="356.8537,-865.8639 365.3138,-872.8408 361.6768,-867.182 366.5,-868.5 366.5,-868.5 366.5,-868.5 361.6768,-867.182 367.6862,-864.1592 356.8537,-865.8639 356.8537,-865.8639"/>
<text text-anchor="start" x="276.8245" y="-852.5" font-family="Arial" font-size="10.00" fill="#000000">Additional Relation</text>
</g>
</g>
</svg>
