<?xml version="1.0" encoding="UTF-8" standalone="no"?>
<!DOCTYPE svg PUBLIC "-//W3C//DTD SVG 1.1//EN"
 "http://www.w3.org/Graphics/SVG/1.1/DTD/svg11.dtd">
<!-- Generated by graphviz version 2.40.1 (20161225.0304)
 -->
<!-- Title: workflows Pages: 1 -->
<svg width="638pt" height="824pt"
 viewBox="0.00 0.00 637.50 824.00" xmlns="http://www.w3.org/2000/svg" xmlns:xlink="http://www.w3.org/1999/xlink">
<g id="graph0" class="graph" transform="scale(1 1) rotate(0) translate(4 820)">
<title>workflows</title>
<polygon fill="#ffffff" stroke="transparent" points="-4,4 -4,-820 633.5,-820 633.5,4 -4,4"/>
<!-- workflows -->
<g id="node1" class="node">
<title>workflows</title>
<polygon fill="#efefef" stroke="transparent" points="342.5,-724 342.5,-770 532.5,-770 532.5,-724 342.5,-724"/>
<polygon fill="none" stroke="#000000" points="342.5,-724 342.5,-770 532.5,-770 532.5,-724 342.5,-724"/>
<text text-anchor="start" x="349.3784" y="-747.8" font-family="Arial Bold" font-size="18.00" fill="#000000">workflows</text>
<text text-anchor="start" x="428.3678" y="-747.8" font-family="Arial" font-size="14.00" fill="#000000"> </text>
<text text-anchor="start" x="432.2584" y="-747.8" font-family="Arial" font-size="14.00" fill="#666666">[BASE TABLE]</text>
<text text-anchor="start" x="385.0168" y="-733.4" font-family="Arial" font-size="14.00" fill="#333333">ワークフロー</text>
<polygon fill="none" stroke="#000000" points="342.5,-694 342.5,-724 532.5,-724 532.5,-694 342.5,-694"/>
<text text-anchor="start" x="349.5" y="-705.4" font-family="Arial" font-size="14.00" fill="#000000">id </text>
<text text-anchor="start" x="364.2798" y="-705.4" font-family="Arial" font-size="14.00" fill="#666666">[int(11)]</text>
<polygon fill="none" stroke="#000000" points="342.5,-664 342.5,-694 532.5,-694 532.5,-664 342.5,-664"/>
<text text-anchor="start" x="349.5" y="-675.4" font-family="Arial" font-size="14.00" fill="#000000">tracker_id </text>
<text text-anchor="start" x="414.8394" y="-675.4" font-family="Arial" font-size="14.00" fill="#666666">[int(11)]</text>
<polygon fill="none" stroke="#000000" points="342.5,-634 342.5,-664 532.5,-664 532.5,-634 342.5,-634"/>
<text text-anchor="start" x="349.5" y="-645.4" font-family="Arial" font-size="14.00" fill="#000000">old_status_id </text>
<text text-anchor="start" x="435.8632" y="-645.4" font-family="Arial" font-size="14.00" fill="#666666">[int(11)]</text>
<polygon fill="none" stroke="#000000" points="342.5,-604 342.5,-634 532.5,-634 532.5,-604 342.5,-604"/>
<text text-anchor="start" x="349.5" y="-615.4" font-family="Arial" font-size="14.00" fill="#000000">new_status_id </text>
<text text-anchor="start" x="442.8632" y="-615.4" font-family="Arial" font-size="14.00" fill="#666666">[int(11)]</text>
<polygon fill="none" stroke="#000000" points="342.5,-574 342.5,-604 532.5,-604 532.5,-574 342.5,-574"/>
<text text-anchor="start" x="349.5" y="-585.4" font-family="Arial" font-size="14.00" fill="#000000">role_id </text>
<text text-anchor="start" x="395.3948" y="-585.4" font-family="Arial" font-size="14.00" fill="#666666">[int(11)]</text>
<polygon fill="none" stroke="#000000" points="342.5,-544 342.5,-574 532.5,-574 532.5,-544 342.5,-544"/>
<text text-anchor="start" x="349.5" y="-555.4" font-family="Arial" font-size="14.00" fill="#000000">assignee </text>
<text text-anchor="start" x="409.4102" y="-555.4" font-family="Arial" font-size="14.00" fill="#666666">[tinyint(1)]</text>
<polygon fill="none" stroke="#000000" points="342.5,-514 342.5,-544 532.5,-544 532.5,-514 342.5,-514"/>
<text text-anchor="start" x="349.5" y="-525.4" font-family="Arial" font-size="14.00" fill="#000000">author </text>
<text text-anchor="start" x="393.0722" y="-525.4" font-family="Arial" font-size="14.00" fill="#666666">[tinyint(1)]</text>
<polygon fill="none" stroke="#000000" points="342.5,-484 342.5,-514 532.5,-514 532.5,-484 342.5,-484"/>
<text text-anchor="start" x="349.5" y="-495.4" font-family="Arial" font-size="14.00" fill="#000000">type </text>
<text text-anchor="start" x="379.8464" y="-495.4" font-family="Arial" font-size="14.00" fill="#666666">[varchar(30)]</text>
<polygon fill="none" stroke="#000000" points="342.5,-454 342.5,-484 532.5,-484 532.5,-454 342.5,-454"/>
<text text-anchor="start" x="349.5" y="-465.4" font-family="Arial" font-size="14.00" fill="#000000">field_name </text>
<text text-anchor="start" x="421.8506" y="-465.4" font-family="Arial" font-size="14.00" fill="#666666">[varchar(30)]</text>
<polygon fill="none" stroke="#000000" points="342.5,-424 342.5,-454 532.5,-454 532.5,-424 342.5,-424"/>
<text text-anchor="start" x="349.5" y="-435.4" font-family="Arial" font-size="14.00" fill="#000000">rule </text>
<text text-anchor="start" x="376.723" y="-435.4" font-family="Arial" font-size="14.00" fill="#666666">[varchar(30)]</text>
<polygon fill="none" stroke="#000000" stroke-width="3" points="341,-422.5 341,-771.5 534,-771.5 534,-422.5 341,-422.5"/>
</g>
<!-- trackers -->
<g id="node2" class="node">
<title>trackers</title>
<polygon fill="#efefef" stroke="transparent" points="43.5,-253 43.5,-299 218.5,-299 218.5,-253 43.5,-253"/>
<polygon fill="none" stroke="#000000" points="43.5,-253 43.5,-299 218.5,-299 218.5,-253 43.5,-253"/>
<text text-anchor="start" x="50.3736" y="-276.8" font-family="Arial Bold" font-size="18.00" fill="#000000">trackers</text>
<text text-anchor="start" x="114.3726" y="-276.8" font-family="Arial" font-size="14.00" fill="#000000"> </text>
<text text-anchor="start" x="118.2632" y="-276.8" font-family="Arial" font-size="14.00" fill="#666666">[BASE TABLE]</text>
<text text-anchor="start" x="92.2088" y="-262.4" font-family="Arial" font-size="14.00" fill="#333333">トラッカー</text>
<polygon fill="none" stroke="#000000" points="43.5,-223 43.5,-253 218.5,-253 218.5,-223 43.5,-223"/>
<text text-anchor="start" x="50.5" y="-234.4" font-family="Arial" font-size="14.00" fill="#000000">id </text>
<text text-anchor="start" x="65.2798" y="-234.4" font-family="Arial" font-size="14.00" fill="#666666">[int(11)]</text>
<polygon fill="none" stroke="#000000" points="43.5,-193 43.5,-223 218.5,-223 218.5,-193 43.5,-193"/>
<text text-anchor="start" x="50.5" y="-204.4" font-family="Arial" font-size="14.00" fill="#000000">name </text>
<text text-anchor="start" x="89.399" y="-204.4" font-family="Arial" font-size="14.00" fill="#666666">[varchar(30)]</text>
<polygon fill="none" stroke="#000000" points="43.5,-163 43.5,-193 218.5,-193 218.5,-163 43.5,-163"/>
<text text-anchor="start" x="50.5" y="-174.4" font-family="Arial" font-size="14.00" fill="#000000">description </text>
<text text-anchor="start" x="122.068" y="-174.4" font-family="Arial" font-size="14.00" fill="#666666">[varchar(255)]</text>
<polygon fill="none" stroke="#000000" points="43.5,-133 43.5,-163 218.5,-163 218.5,-133 43.5,-133"/>
<text text-anchor="start" x="50.5" y="-144.4" font-family="Arial" font-size="14.00" fill="#000000">position </text>
<text text-anchor="start" x="102.6248" y="-144.4" font-family="Arial" font-size="14.00" fill="#666666">[int(11)]</text>
<polygon fill="none" stroke="#000000" points="43.5,-103 43.5,-133 218.5,-133 218.5,-103 43.5,-103"/>
<text text-anchor="start" x="50.5" y="-114.4" font-family="Arial" font-size="14.00" fill="#000000">is_in_roadmap </text>
<text text-anchor="start" x="146.1858" y="-114.4" font-family="Arial" font-size="14.00" fill="#666666">[tinyint(1)]</text>
<polygon fill="none" stroke="#000000" points="43.5,-73 43.5,-103 218.5,-103 218.5,-73 43.5,-73"/>
<text text-anchor="start" x="50.5" y="-84.4" font-family="Arial" font-size="14.00" fill="#000000">fields_bits </text>
<text text-anchor="start" x="116.622" y="-84.4" font-family="Arial" font-size="14.00" fill="#666666">[int(11)]</text>
<polygon fill="none" stroke="#000000" points="43.5,-43 43.5,-73 218.5,-73 218.5,-43 43.5,-43"/>
<text text-anchor="start" x="50.5" y="-54.4" font-family="Arial" font-size="14.00" fill="#000000">default_status_id </text>
<text text-anchor="start" x="160.2096" y="-54.4" font-family="Arial" font-size="14.00" fill="#666666">[int(11)]</text>
</g>
<!-- workflows&#45;&gt;trackers -->
<g id="edge1" class="edge">
<title>workflows:tracker_id&#45;&gt;trackers:id</title>
<path fill="none" stroke="#000000" stroke-dasharray="5,2" d="M333.5574,-674.3458C288.8064,-627.2143 266.3183,-238 218.5,-238"/>
<polygon fill="#000000" stroke="#000000" points="333.6295,-674.3832 340.4225,-682.9917 338.0647,-676.6916 342.5,-679 342.5,-679 342.5,-679 338.0647,-676.6916 344.5775,-675.0083 333.6295,-674.3832 333.6295,-674.3832"/>
<text text-anchor="start" x="252.8245" y="-689" font-family="Arial" font-size="10.00" fill="#000000">Additional Relation</text>
</g>
<!-- issue_statuses -->
<g id="node3" class="node">
<title>issue_statuses</title>
<polygon fill="#efefef" stroke="transparent" points="322.5,-223 322.5,-269 552.5,-269 552.5,-223 322.5,-223"/>
<polygon fill="none" stroke="#000000" points="322.5,-223 322.5,-269 552.5,-269 552.5,-223 322.5,-223"/>
<text text-anchor="start" x="329.3552" y="-246.8" font-family="Arial Bold" font-size="18.00" fill="#000000">issue_statuses</text>
<text text-anchor="start" x="448.391" y="-246.8" font-family="Arial" font-size="14.00" fill="#000000"> </text>
<text text-anchor="start" x="452.2816" y="-246.8" font-family="Arial" font-size="14.00" fill="#666666">[BASE TABLE]</text>
<text text-anchor="start" x="396.9448" y="-232.4" font-family="Arial" font-size="14.00" fill="#333333">ステータス</text>
<polygon fill="none" stroke="#000000" points="322.5,-193 322.5,-223 552.5,-223 552.5,-193 322.5,-193"/>
<text text-anchor="start" x="329.5" y="-204.4" font-family="Arial" font-size="14.00" fill="#000000">id </text>
<text text-anchor="start" x="344.2798" y="-204.4" font-family="Arial" font-size="14.00" fill="#666666">[int(11)]</text>
<polygon fill="none" stroke="#000000" points="322.5,-163 322.5,-193 552.5,-193 552.5,-163 322.5,-163"/>
<text text-anchor="start" x="329.5" y="-174.4" font-family="Arial" font-size="14.00" fill="#000000">name </text>
<text text-anchor="start" x="368.399" y="-174.4" font-family="Arial" font-size="14.00" fill="#666666">[varchar(30)]</text>
<polygon fill="none" stroke="#000000" points="322.5,-133 322.5,-163 552.5,-163 552.5,-133 322.5,-133"/>
<text text-anchor="start" x="329.5" y="-144.4" font-family="Arial" font-size="14.00" fill="#000000">is_closed </text>
<text text-anchor="start" x="391.7342" y="-144.4" font-family="Arial" font-size="14.00" fill="#666666">[tinyint(1)]</text>
<polygon fill="none" stroke="#000000" points="322.5,-103 322.5,-133 552.5,-133 552.5,-103 322.5,-103"/>
<text text-anchor="start" x="329.5" y="-114.4" font-family="Arial" font-size="14.00" fill="#000000">position </text>
<text text-anchor="start" x="381.6248" y="-114.4" font-family="Arial" font-size="14.00" fill="#666666">[int(11)]</text>
<polygon fill="none" stroke="#000000" points="322.5,-73 322.5,-103 552.5,-103 552.5,-73 322.5,-73"/>
<text text-anchor="start" x="329.5" y="-84.4" font-family="Arial" font-size="14.00" fill="#000000">default_done_ratio </text>
<text text-anchor="start" x="449.3274" y="-84.4" font-family="Arial" font-size="14.00" fill="#666666">[int(11)]</text>
</g>
<!-- workflows&#45;&gt;issue_statuses -->
<g id="edge2" class="edge">
<title>workflows:old_status_id&#45;&gt;issue_statuses:id</title>
<path fill="none" stroke="#000000" stroke-dasharray="5,2" d="M541.3467,-644.0474C583.7806,-595.5977 598.4847,-208 552.5,-208"/>
<polygon fill="#000000" stroke="#000000" points="541.2257,-644.1151 530.3018,-645.0734 536.8629,-646.5575 532.5,-649 532.5,-649 532.5,-649 536.8629,-646.5575 534.6982,-652.9266 541.2257,-644.1151 541.2257,-644.1151"/>
<text text-anchor="start" x="539.8245" y="-659" font-family="Arial" font-size="10.00" fill="#000000">Additional Relation</text>
</g>
<!-- workflows&#45;&gt;issue_statuses -->
<g id="edge3" class="edge">
<title>workflows:new_status_id&#45;&gt;issue_statuses:id</title>
<path fill="none" stroke="#000000" stroke-dasharray="5,2" d="M541.2564,-613.8034C580.5871,-566.2265 595.1846,-208 552.5,-208"/>
<polygon fill="#000000" stroke="#000000" points="541.0997,-613.8964 530.2034,-615.1301 536.7998,-616.4482 532.5,-619 532.5,-619 532.5,-619 536.7998,-616.4482 534.7966,-622.8699 541.0997,-613.8964 541.0997,-613.8964"/>
<text text-anchor="start" x="539.8245" y="-629" font-family="Arial" font-size="10.00" fill="#000000">Additional Relation</text>
</g>
</g>
</svg>
